<svg xmlns="http://www.w3.org/2000/svg" viewBox="0 0 512 512" >
	<!-- <defs>
		<linearGradient id="bg-gradient" x1="0" x2="1" y1="0" y2="1">
			<stop offset="0%" stop-color="rgb(78, 78, 78)"></stop>
			<stop offset="100%" stop-color="rgb(0, 0, 0)"></stop>
		</linearGradient>
		<linearGradient id="stroke-gradient" x1="0" x2="1" y1="0" y2="1">
			<stop offset="0%" stop-color="rgb(129, 128, 128)"></stop>
			<stop offset="100%" stop-color="rgb(79, 78, 78)"></stop>
		</linearGradient>
	</defs> -->
	<g transform-origin="center" transform="">
		<path fill="#F03232" stroke="#FFFFFF" stroke-width="14" stroke-miterlimit="11" d="M-367.41,51.44
			c-48.24-22.37-101.19-38.46-159.93-47.37c50,28.61,102.29,55.64,147.24,90.49c-35.16-7.39-84.9-33.42-132.14-43.21
			c62.33,36.75,117.1,77.59,165.65,122.28c-61.39,50.55-114.63,112.11-158,186.48c29.03-26.01,58.79-50.91,88.73-75.68
			c-50.02,59.81-89.52,130.1-116.13,212.68c21.8-26.36,164.95-226.69,224.55-261.63c-24.4,37.98-70.69,87.81-101.76,139.76
			c46.53-43.51,86.63-92.86,133.02-129.32c65.95,75.47,118.59,159.94,162.9,252.55c-7.21-47.96-17.98-93.56-32.15-136.69
			l49.73,70.16c0,0-31.83-74.34-46.75-109.2c43.64,59.86,83.74,122.52,120.27,187.59c-19.99-95.78-59.47-178.32-105.89-255.07
			c40.7,34.8,73.49,76.13,108.07,116.75c-35.7-81.89-80.1-153.63-135.1-212.33c43.07-27.72,87.24-53.25,132.62-76.86
			c-34.29,5.95-66.91,13.83-98.51,23.48C-97.61,89-73.44,71.92-49.22,55.43C-89.9,68.18-127.41,86.91-166,99.79
			c45.68-29.63,95.04-51.47,140.27-84.16c0,0-140.08,45.17-202.36,78.75c-60.27-44.74-131.53-75.7-213.61-92.71
			C-441.71,1.67-391.45,33.98-367.41,51.44z"/>>
	</g>
</svg>