<svg xmlns="http://www.w3.org/2000/svg" viewBox="0 0 512 512" >
	<!-- <defs>
		<linearGradient id="bg-gradient" x1="0" x2="1" y1="0" y2="1">
			<stop offset="0%" stop-color="rgb(78, 78, 78)"></stop>
			<stop offset="100%" stop-color="rgb(0, 0, 0)"></stop>
		</linearGradient>
		<linearGradient id="stroke-gradient" x1="0" x2="1" y1="0" y2="1">
			<stop offset="0%" stop-color="rgb(129, 128, 128)"></stop>
			<stop offset="100%" stop-color="rgb(79, 78, 78)"></stop>
		</linearGradient>
	</defs> -->
	<g transform-origin="center" transform="">
		<path fill="#958b6a" d="M-116.89,788l45.92-45.92c43.91-43.91,43.91-115.18,0-159.09c-21.95-21.96-50.76-32.94-79.56-32.94
			c-28.8,0-57.58,10.98-79.53,32.94L-276,628.92l-45.94-45.93c-21.95-21.96-50.73-32.94-79.53-32.94
			c-28.8,0-57.61,10.98-79.56,32.94c-43.91,43.91-43.91,115.18,0,159.09l45.92,45.92l-45.92,45.92
			c-43.91,43.92-43.91,115.19,0,159.1c43.91,43.91,115.21,43.91,159.12,0l45.91-45.91l45.91,45.91
			c43.91,43.91,115.21,43.91,159.12,0c43.91-43.91,43.91-115.18,0-159.1L-116.89,788z M-78.53,648.33c2.43-2.43,5.6-3.66,8.78-3.65
			v-0.01c3.18,0,6.35,1.23,8.78,3.66c4.86,4.85,4.86,12.71,0,17.56c-4.85,4.86-12.71,4.86-17.56,0
			C-83.38,661.04-83.38,653.18-78.53,648.33z M-96.13,701.05c-4.85,4.85-12.71,4.85-17.56,0s-4.85-12.71,0-17.56
			c2.43-2.43,5.6-3.66,8.78-3.66c3.18,0,6.36,1.23,8.78,3.66C-91.27,688.34-91.27,696.2-96.13,701.05z M-115.22,611.64
			c2.43-2.42,5.63-3.62,8.81-3.62h0.01c3.18,0,6.35,1.2,8.78,3.62c4.85,4.86,4.85,12.74,0,17.6c-4.86,4.85-12.74,4.85-17.6,0
			C-120.07,624.38-120.07,616.5-115.22,611.64z M-149.34,577.52c2.43-2.43,5.6-3.66,8.78-3.66s6.35,1.23,8.78,3.66
			c4.85,4.85,4.85,12.71,0,17.56c-4.85,4.85-12.71,4.85-17.56,0C-154.19,590.23-154.19,582.37-149.34,577.52z M-150.37,646.8
			c2.42-2.43,5.63-3.63,8.81-3.62v-0.01c3.18,0,6.35,1.2,8.78,3.63c4.85,4.85,4.85,12.74,0,17.59c-4.85,4.86-12.74,4.86-17.59,0
			C-155.23,659.54-155.23,651.65-150.37,646.8z M-150.38,720.14c2.43-2.42,5.63-3.65,8.82-3.65c3.18,0,6.35,1.23,8.78,3.65
			c4.85,4.86,4.85,12.71,0,17.57c-4.86,4.85-12.74,4.85-17.6,0C-155.23,732.85-155.23,725-150.38,720.14z M-184.5,612.67
			c2.43-2.42,5.6-3.65,8.78-3.65c3.18,0,6.36,1.23,8.78,3.65c4.86,4.86,4.86,12.71,0,17.57c-4.85,4.85-12.71,4.85-17.56,0
			C-189.35,625.38-189.35,617.53-184.5,612.67z M-187.03,683.49c2.43-2.43,5.6-3.66,8.78-3.66s6.39,1.23,8.81,3.66
			c4.86,4.85,4.86,12.71,0,17.56c-4.85,4.85-12.74,4.85-17.59,0C-191.88,696.2-191.88,688.34-187.03,683.49z M-221.19,649.33
			c2.43-2.43,5.63-3.66,8.82-3.65v-0.01c3.18,0,6.35,1.23,8.78,3.66c4.85,4.85,4.85,12.71,0,17.56c-4.86,4.86-12.74,4.86-17.6,0
			C-226.04,662.04-226.04,654.18-221.19,649.33z M-348.41,649.33c2.43-2.43,5.6-3.66,8.78-3.66v0.01c3.19-0.01,6.39,1.22,8.82,3.65
			c4.85,4.85,4.85,12.71,0,17.56c-4.86,4.86-12.74,4.86-17.6,0C-353.26,662.04-353.26,654.18-348.41,649.33z M-364.97,701.05
			c-4.85,4.85-12.74,4.85-17.59,0c-4.86-4.85-4.86-12.71,0-17.56c2.42-2.43,5.63-3.66,8.81-3.66s6.35,1.23,8.78,3.66
			C-360.12,688.34-360.12,696.2-364.97,701.05z M-385.06,612.67c2.42-2.42,5.6-3.65,8.78-3.65c3.18,0,6.35,1.23,8.78,3.65
			c4.85,4.86,4.85,12.71,0,17.57c-4.85,4.85-12.71,4.85-17.56,0C-389.92,625.38-389.92,617.53-385.06,612.67z M-401.62,737.71
			c-4.86,4.85-12.74,4.85-17.6,0c-4.85-4.86-4.85-12.71,0-17.57c2.43-2.42,5.6-3.65,8.78-3.65c3.19,0,6.39,1.23,8.82,3.65
			C-396.77,725-396.77,732.85-401.62,737.71z M-401.63,664.39c-4.85,4.86-12.74,4.86-17.59,0c-4.85-4.85-4.85-12.74,0-17.59
			c2.43-2.43,5.6-3.63,8.78-3.63v0.01c3.18-0.01,6.39,1.19,8.81,3.62C-396.77,651.65-396.77,659.54-401.63,664.39z M-420.22,577.52
			c2.43-2.43,5.6-3.66,8.78-3.66s6.35,1.23,8.78,3.66c4.85,4.85,4.85,12.71,0,17.56c-4.85,4.85-12.71,4.85-17.56,0
			C-425.07,590.23-425.07,582.37-420.22,577.52z M-454.38,611.64c2.43-2.42,5.6-3.62,8.78-3.62h0.01c3.18,0,6.38,1.2,8.81,3.62
			c4.85,4.86,4.85,12.74,0,17.6c-4.86,4.85-12.74,4.85-17.6,0C-459.23,624.38-459.23,616.5-454.38,611.64z M-473.47,665.89
			c-4.85,4.86-12.71,4.86-17.56,0c-4.86-4.85-4.86-12.71,0-17.56c2.43-2.43,5.6-3.66,8.78-3.66v0.01c3.18-0.01,6.35,1.22,8.78,3.65
			C-468.62,653.18-468.62,661.04-473.47,665.89z M-438.31,701.05c-4.85,4.85-12.71,4.85-17.56,0c-4.86-4.85-4.86-12.71,0-17.56
			c2.42-2.43,5.6-3.66,8.78-3.66c3.18,0,6.35,1.23,8.78,3.66C-433.46,688.34-433.46,696.2-438.31,701.05z M-465.69,928.99
			c-4.85,4.85-12.71,4.85-17.56,0c-4.86-4.86-4.86-12.74,0-17.6c2.42-2.42,5.6-3.62,8.78-3.62c3.18,0,6.35,1.2,8.78,3.62
			C-460.84,916.25-460.84,924.13-465.69,928.99z M-431.53,963.14c-4.86,4.86-12.71,4.86-17.57,0c-4.85-4.85-4.85-12.74,0-17.59
			c2.43-2.43,5.6-3.63,8.79-3.63v0.01c3.18,0,6.35,1.19,8.78,3.62C-426.68,950.4-426.68,958.29-431.53,963.14z M-429.03,892.33
			c-4.86,4.85-12.71,4.85-17.57,0c-4.85-4.85-4.85-12.74,0-17.59c2.43-2.43,5.6-3.63,8.79-3.63c3.18,0,6.35,1.2,8.78,3.63
			C-424.18,879.59-424.18,887.48-429.03,892.33z M-394.88,999.8c-4.85,4.85-12.71,4.85-17.56,0s-4.85-12.74,0-17.59
			c2.43-2.43,5.6-3.63,8.78-3.63c3.18,0,6.35,1.23,8.78,3.66C-390.02,987.09-390.02,994.95-394.88,999.8z M-394.88,926.49
			c-4.85,4.85-12.71,4.85-17.56,0c-4.85-4.86-4.85-12.74,0-17.6c2.43-2.42,5.6-3.62,8.78-3.62c3.18,0,6.36,1.2,8.78,3.62
			C-390.02,913.75-390.02,921.63-394.88,926.49z M-393.88,857.17c-4.85,4.86-12.71,4.86-17.56,0c-4.85-4.85-4.85-12.74,0-17.59
			c2.43-2.43,5.6-3.62,8.78-3.62c3.18,0,6.36,1.19,8.78,3.62C-389.02,844.43-389.02,852.32-393.88,857.17z M-377.28,873.74
			c2.42-2.43,5.6-3.63,8.78-3.63s6.35,1.2,8.78,3.63c4.85,4.85,4.85,12.74,0,17.59c-4.85,4.85-12.71,4.85-17.56,0
			C-382.14,886.48-382.14,878.59-377.28,873.74z M-358.22,963.14c-4.85,4.86-12.71,4.86-17.56,0c-4.86-4.85-4.86-12.74,0-17.59
			c2.42-2.43,5.6-3.63,8.78-3.63v0.01c3.18,0,6.35,1.19,8.78,3.62C-353.37,950.4-353.37,958.29-358.22,963.14z M-323.07,927.99
			c-4.85,4.85-12.7,4.85-17.56,0c-4.85-4.86-4.85-12.74,0-17.6c2.43-2.42,5.6-3.62,8.78-3.62c3.18,0,6.36,1.2,8.78,3.62
			C-318.21,915.25-318.21,923.13-323.07,927.99z M-257.16,874.71l69.73-69.75l9.05,9.03l-69.75,69.77L-257.16,874.71z
			 M-178.37,758.24l-9.05,9.05l-69.74-69.74l9.05-9.05L-178.37,758.24z M-294.84,697.55l-69.74,69.74l-9.05-9.05l69.74-69.74
			L-294.84,697.55z M-373.62,813.99l9.05-9.03l69.73,69.75l-9.03,9.05L-373.62,813.99z M-211.37,927.99
			c-4.86,4.85-12.71,4.85-17.56,0c-4.86-4.86-4.86-12.74,0-17.6c2.42-2.42,5.6-3.62,8.78-3.62c3.18,0,6.35,1.2,8.78,3.62
			C-206.52,915.25-206.52,923.13-211.37,927.99z M-176.22,963.14c-4.85,4.86-12.71,4.86-17.56,0c-4.85-4.85-4.85-12.74,0-17.59
			c2.43-2.43,5.6-3.62,8.78-3.62v-0.01c3.18,0,6.36,1.2,8.78,3.63C-171.36,950.4-171.36,958.29-176.22,963.14z M-174.72,891.33
			c-4.85,4.85-12.71,4.85-17.56,0c-4.85-4.85-4.85-12.74,0-17.59c2.43-2.43,5.6-3.63,8.78-3.63s6.36,1.2,8.78,3.63
			C-169.86,878.59-169.86,886.48-174.72,891.33z M-158.12,839.58c2.42-2.43,5.6-3.62,8.78-3.62c3.18,0,6.35,1.19,8.78,3.62
			c4.85,4.85,4.85,12.74,0,17.59c-4.85,4.86-12.71,4.86-17.56,0C-162.98,852.32-162.98,844.43-158.12,839.58z M-139.56,999.8
			c-4.85,4.85-12.71,4.85-17.56,0c-4.86-4.85-4.86-12.71,0-17.56c2.43-2.43,5.6-3.66,8.78-3.66c3.18,0,6.35,1.2,8.78,3.63
			C-134.71,987.06-134.71,994.95-139.56,999.8z M-139.56,926.49c-4.85,4.85-12.71,4.85-17.56,0c-4.86-4.86-4.86-12.74,0-17.6
			c2.42-2.42,5.6-3.62,8.78-3.62c3.18,0,6.35,1.2,8.78,3.62C-134.71,913.75-134.71,921.63-139.56,926.49z M-122.97,874.74
			c2.43-2.43,5.6-3.63,8.78-3.63c3.19,0,6.36,1.2,8.79,3.63c4.85,4.85,4.85,12.74,0,17.59c-4.86,4.85-12.71,4.85-17.57,0
			C-127.82,887.48-127.82,879.59-122.97,874.74z M-102.9,963.14c-4.86,4.86-12.71,4.86-17.57,0c-4.85-4.85-4.85-12.74,0-17.59
			c2.43-2.43,5.6-3.62,8.78-3.62v-0.01c3.19,0,6.36,1.2,8.79,3.63C-98.05,950.4-98.05,958.29-102.9,963.14z M-68.75,928.99
			c-4.85,4.85-12.71,4.85-17.56,0c-4.85-4.86-4.85-12.74,0-17.6c2.43-2.42,5.6-3.62,8.78-3.62c3.18,0,6.36,1.2,8.78,3.62
			C-63.89,916.25-63.89,924.13-68.75,928.99z"/>
	</g>
</svg>