<svg xmlns="http://www.w3.org/2000/svg" viewBox="0 0 512 512" >
	<!-- <defs>
		<linearGradient id="bg-gradient" x1="0" x2="1" y1="0" y2="1">
			<stop offset="0%" stop-color="rgb(78, 78, 78)"></stop>
			<stop offset="100%" stop-color="rgb(0, 0, 0)"></stop>
		</linearGradient>
		<linearGradient id="stroke-gradient" x1="0" x2="1" y1="0" y2="1">
			<stop offset="0%" stop-color="rgb(129, 128, 128)"></stop>
			<stop offset="100%" stop-color="rgb(79, 78, 78)"></stop>
		</linearGradient>
	</defs> -->
	<g transform-origin="center" transform="">
		<path fill="#958b6a" d="M130.53,550.05c28.8,0,57.58,10.98,79.53,32.94l250.97,250.94c43.91,43.91,43.91,115.18,0,159.09
			c-43.91,43.91-115.21,43.91-159.12,0L50.97,742.08c-43.91-43.91-43.91-115.18,0-159.09C72.92,561.03,101.73,550.05,130.53,550.05
			L130.53,550.05z M120.56,573.86c-3.18,0-6.35,1.23-8.78,3.66c-4.85,4.85-4.85,12.71,0,17.56c4.85,4.85,12.71,4.85,17.56,0
			c4.85-4.85,4.85-12.71,0-17.56C126.91,575.09,123.74,573.86,120.56,573.86L120.56,573.86z M86.4,608.02
			c-3.18,0-6.35,1.2-8.78,3.63c-4.85,4.85-4.85,12.74,0,17.59s12.74,4.85,17.59,0c4.85-4.85,4.85-12.74,0-17.59
			C92.79,609.22,89.59,608.02,86.4,608.02L86.4,608.02z M155.72,609.02c-3.18,0-6.35,1.23-8.78,3.66c-4.86,4.85-4.86,12.71,0,17.56
			c4.85,4.85,12.71,4.85,17.56,0c4.85-4.85,4.85-12.71,0-17.56C162.07,610.25,158.9,609.02,155.72,609.02L155.72,609.02z
			 M121.56,643.17c-3.18,0-6.35,1.2-8.78,3.63c-4.85,4.85-4.85,12.74,0,17.59c4.85,4.85,12.74,4.85,17.59,0
			c4.85-4.85,4.85-12.74,0-17.59C127.95,644.37,124.74,643.17,121.56,643.17L121.56,643.17z M49.75,644.67
			c-3.18,0-6.35,1.23-8.78,3.66c-4.86,4.85-4.86,12.71,0,17.56c4.85,4.85,12.71,4.85,17.56,0c4.86-4.85,4.86-12.71,0-17.56
			C56.1,645.9,52.93,644.67,49.75,644.67L49.75,644.67z M192.37,645.67c-3.18,0-6.35,1.23-8.78,3.66c-4.86,4.85-4.86,12.71,0,17.56
			c4.85,4.85,12.74,4.85,17.59,0c4.85-4.85,4.85-12.71,0-17.56C198.76,646.9,195.56,645.67,192.37,645.67L192.37,645.67z
			 M158.25,679.83c-3.18,0-6.39,1.23-8.81,3.66c-4.85,4.85-4.85,12.71,0,17.56c4.85,4.85,12.74,4.85,17.59,0
			c4.85-4.85,4.85-12.71,0-17.56C164.6,681.06,161.43,679.83,158.25,679.83L158.25,679.83z M84.91,679.83
			c-3.18,0-6.35,1.23-8.78,3.66c-4.85,4.85-4.85,12.71,0,17.56c4.85,4.85,12.71,4.85,17.56,0c4.85-4.85,4.85-12.71,0-17.56
			C91.26,681.06,88.09,679.83,84.91,679.83L84.91,679.83z M279.72,684.33l-13.22,13.22l73.91,73.9l13.22-13.22L279.72,684.33
			L279.72,684.33z M223.94,684.33l-73.91,73.91l13.22,13.22l73.9-73.91L223.94,684.33L223.94,684.33z M121.56,716.49
			c-3.18,0-6.35,1.23-8.78,3.66c-4.85,4.85-4.85,12.71,0,17.56c4.85,4.85,12.74,4.85,17.59,0c4.85-4.85,4.85-12.71,0-17.56
			C127.95,717.72,124.75,716.49,121.56,716.49L121.56,716.49z M163.25,800.77l-13.22,13.22l73.94,73.94l13.19-13.22L163.25,800.77
			L163.25,800.77z M340.41,800.8l-73.9,73.91l13.22,13.22l73.9-73.94L340.41,800.8L340.41,800.8z M382.66,835.96
			c-3.18,0-6.35,1.2-8.78,3.62c-4.85,4.85-4.85,12.74,0,17.59c4.85,4.85,12.71,4.85,17.56,0c4.85-4.85,4.85-12.74,0-17.59
			C389.01,837.15,385.84,835.96,382.66,835.96L382.66,835.96z M348.5,870.11c-3.18,0-6.35,1.2-8.78,3.62
			c-4.86,4.85-4.86,12.74,0,17.59c4.85,4.85,12.71,4.85,17.56,0c4.85-4.85,4.85-12.74,0-17.59
			C354.86,871.31,351.68,870.11,348.5,870.11z M417.81,871.11c-3.18,0-6.35,1.2-8.78,3.62c-4.85,4.85-4.85,12.74,0,17.59
			c4.85,4.85,12.71,4.85,17.56,0c4.85-4.85,4.85-12.74,0-17.59C424.17,872.31,421,871.11,417.81,871.11L417.81,871.11z
			 M383.66,905.27c-3.18,0-6.35,1.2-8.78,3.63c-4.85,4.85-4.85,12.74,0,17.59s12.71,4.85,17.56,0s4.85-12.74,0-17.59
			C390.01,906.47,386.84,905.27,383.66,905.27L383.66,905.27z M311.85,906.77c-3.18,0-6.36,1.2-8.78,3.63
			c-4.85,4.85-4.85,12.74,0,17.59c4.85,4.85,12.71,4.85,17.56,0s4.85-12.74,0-17.59C318.2,907.97,315.03,906.77,311.85,906.77
			L311.85,906.77z M454.47,907.77c-3.18,0-6.35,1.2-8.78,3.63c-4.85,4.85-4.85,12.74,0,17.59c4.85,4.85,12.71,4.85,17.56,0
			c4.85-4.85,4.85-12.74,0-17.59C460.83,908.97,457.65,907.77,454.47,907.77L454.47,907.77z M420.31,941.93
			c-3.18,0-6.35,1.2-8.78,3.62c-4.85,4.85-4.85,12.74,0,17.59c4.85,4.85,12.71,4.85,17.56,0c4.85-4.85,4.85-12.74,0-17.59
			C426.67,943.12,423.5,941.92,420.31,941.93L420.31,941.93z M347,941.93c-3.18,0-6.35,1.2-8.78,3.62c-4.86,4.85-4.86,12.74,0,17.59
			c4.85,4.85,12.71,4.85,17.56,0c4.85-4.85,4.85-12.74,0-17.59C353.36,943.12,350.18,941.92,347,941.93L347,941.93z M383.66,978.58
			c-3.18,0-6.35,1.23-8.78,3.66c-4.85,4.85-4.85,12.71,0,17.56c4.85,4.85,12.71,4.85,17.56,0c4.85-4.85,4.85-12.74,0-17.59
			C390.01,979.78,386.84,978.58,383.66,978.58L383.66,978.58z"/>
	</g>
</svg>