<?xml version="1.0" encoding="utf-8"?>
<!-- Generator: Adobe Illustrator 25.0.0, SVG Export Plug-In . SVG Version: 6.00 Build 0)  -->
<svg version="1.1" id="Layer_4" xmlns="http://www.w3.org/2000/svg" xmlns:xlink="http://www.w3.org/1999/xlink" x="0px" y="0px"
	 viewBox="0 0 512 512" style="enable-background:new 0 0 512 512;" xml:space="preserve">
<style type="text/css">
	.st0{fill:#685F43;}
</style>
<path class="st0" d="M486,237.8c-6.7-2.2-13.7-4.5-19.6-6.8l-1.2-0.5l-0.2-1.2c-1.2-9.8-3.2-19.6-5.8-29l-0.3-1.2l0.9-0.9
	c4.7-4.6,10.5-9.6,16.1-14.4c7.2-6.1,14.5-12.5,19.6-17.9c-1.9-5.1-4.1-10.3-6.6-15.8c-7.6-0.3-17.5,0.4-27.1,1.2
	c-7.2,0.6-14.6,1.1-21,1.3l-1.2,0l-0.6-1.1c-4.9-8.5-10.4-16.8-16.5-24.6l-0.8-1l0.5-1.1c2.6-6,6-12.7,9.3-19.2
	c4.3-8.5,8.8-17.3,11.3-24.4c-3.9-4.2-8-8.2-12.1-12.1c-7.1,2.6-15.9,7-24.4,11.3c-6.5,3.3-13.2,6.7-19.2,9.3l-1.1,0.5l-1-0.8
	c-7.7-6-16-11.6-24.6-16.5l-1.1-0.6l0-1.2c0.1-6.5,0.7-13.9,1.2-21.1c0.7-9.6,1.5-19.4,1.2-27c-5.5-2.5-10.7-4.7-15.8-6.6
	c-5.5,5-11.8,12.4-18,19.6c-4.8,5.6-9.7,11.4-14.4,16.1l-0.9,0.9l-1.2-0.3c-9.4-2.6-19.2-4.5-29-5.8l-1.2-0.2l-0.5-1.2
	c-2.3-5.9-4.6-12.8-6.8-19.6c-3-9.3-6.1-18.8-9.4-25.8c-5.8-0.2-11.7-0.2-17.6,0c-3.3,7-6.4,16.5-9.4,25.8
	c-2.2,6.7-4.5,13.7-6.8,19.6l-0.5,1.2l-1.2,0.2c-9.8,1.2-19.6,3.2-29,5.8l-1.2,0.3l-0.9-0.9c-4.6-4.7-9.6-10.5-14.4-16.1
	c-6.1-7.2-12.5-14.6-18-19.6c-5.1,1.9-10.3,4.1-15.8,6.6c-0.3,7.6,0.4,17.5,1.2,27.1c0.6,7.2,1.1,14.6,1.3,21l0,1.2l-1.1,0.6
	c-8.6,4.9-16.9,10.5-24.6,16.5l-1,0.8l-1.1-0.5c-6-2.6-12.7-6-19.2-9.3c-8.5-4.3-17.3-8.8-24.4-11.3C77,72.9,73,77,69.1,81.2
	c2.6,7.1,7,15.9,11.3,24.4c3.3,6.5,6.7,13.2,9.3,19.2l0.5,1.1l-0.8,1c-6,7.8-11.6,16.1-16.5,24.6l-0.6,1.1l-1.2,0
	c-6.5-0.1-13.9-0.7-21.1-1.3c-9.6-0.8-19.4-1.5-27-1.2c-2.5,5.6-4.7,10.8-6.6,15.8c5,5.5,12.4,11.8,19.6,18
	c5.6,4.8,11.4,9.7,16.1,14.4l0.9,0.9l-0.3,1.2c-2.6,9.4-4.5,19.2-5.8,29l-0.2,1.2l-1.2,0.5c-5.9,2.3-12.9,4.6-19.6,6.8
	c-9.3,3-18.8,6.1-25.8,9.4C0.1,250.1,0,253.1,0,256c0,2.9,0.1,5.9,0.2,8.8c7,3.3,16.5,6.4,25.8,9.4c6.7,2.2,13.7,4.5,19.6,6.8
	l1.2,0.5l0.2,1.2c1.2,9.8,3.2,19.6,5.8,29l0.3,1.2l-0.9,0.9c-4.7,4.6-10.5,9.6-16.1,14.4c-7.2,6.1-14.6,12.5-19.6,18
	c1.9,5.1,4.1,10.3,6.6,15.8c7.6,0.3,17.5-0.4,27.1-1.2c7.2-0.6,14.6-1.1,21-1.3l1.2,0l0.6,1.1c4.9,8.5,10.4,16.8,16.5,24.6l0.8,1
	l-0.5,1.1c-2.6,6-6,12.7-9.3,19.2c-4.3,8.5-8.8,17.3-11.3,24.3c3.9,4.2,8,8.2,12.1,12.1c7.1-2.6,15.9-7,24.4-11.3
	c6.5-3.3,13.2-6.7,19.2-9.3l1.1-0.5l1,0.8c7.8,6,16.1,11.6,24.6,16.5l1.1,0.6l0,1.2c-0.1,6.4-0.7,13.9-1.3,21
	c-0.7,9.6-1.5,19.5-1.2,27.1c5.5,2.5,10.7,4.7,15.8,6.6c5.5-5,11.8-12.4,17.9-19.6c4.8-5.6,9.8-11.4,14.4-16.1l0.9-0.9l1.2,0.3
	c9.4,2.6,19.2,4.5,29,5.8l1.2,0.2l0.5,1.2c2.3,5.9,4.6,12.9,6.8,19.6c3,9.2,6.1,18.8,9.4,25.7c5.8,0.2,11.7,0.2,17.6,0
	c3.3-7,6.4-16.5,9.4-25.8c2.2-6.7,4.5-13.7,6.8-19.6l0.5-1.2l1.2-0.2c9.8-1.2,19.6-3.2,29-5.8l1.2-0.3l0.9,0.9
	c4.6,4.7,9.6,10.5,14.4,16.1c6.1,7.2,12.5,14.6,18,19.6c5.1-1.9,10.3-4.1,15.8-6.6c0.3-7.6-0.4-17.5-1.2-27.1
	c-0.6-7.2-1.1-14.6-1.3-21l0-1.2l1.1-0.6c8.6-4.9,16.9-10.4,24.6-16.5l1-0.8l1.1,0.5c6,2.6,12.7,6,19.2,9.3
	c8.5,4.3,17.3,8.8,24.4,11.3c4.2-3.9,8.2-8,12.1-12.1c-2.6-7.1-7-15.9-11.3-24.3c-3.3-6.5-6.7-13.2-9.3-19.2l-0.5-1.1l0.8-1
	c6.1-7.8,11.6-16.1,16.5-24.6l0.6-1.1l1.2,0c6.4,0.1,13.9,0.7,21,1.3c7.9,0.6,16.1,1.3,23,1.3h0c1.4,0,2.8,0,4.1-0.1
	c2.5-5.5,4.7-10.7,6.6-15.8c-5-5.5-12.4-11.8-19.6-17.9c-5.6-4.8-11.4-9.8-16.1-14.4l-0.9-0.9l0.3-1.2c2.6-9.4,4.5-19.2,5.8-29
	l0.2-1.2l1.2-0.5c5.9-2.3,12.9-4.6,19.6-6.8c9.3-3,18.8-6.1,25.8-9.4c0.1-2.9,0.2-5.8,0.2-8.8c0-3-0.1-5.9-0.2-8.8
	C504.8,243.9,495.3,240.8,486,237.8z M397.5,164c3.2,4.9,6.2,10.1,8.9,15.4l0.9,1.8L317,233.3l-0.9-2.2c-2.1-5.1-5-10.1-8.6-14.7
	l-1.5-1.9l90.4-52.2L397.5,164z M274.2,88.2l2.4,0.3c45.1,5.5,86.7,29.5,114.2,65.9l1.4,1.9L300.9,209l-1.1-1
	c-7.1-6.4-15.1-11.1-24-13.9l-1.5-0.5V88.2z M245.1,87.5l2-0.1c5.9-0.3,11.9-0.3,17.8,0l2,0.1v104.3l-2.4-0.3
	c-6.6-0.9-10.7-0.8-17,0l-2.4,0.3V87.5z M121.2,154.4C148.7,118,190.3,94,235.3,88.5l2.4-0.3v105.3l-1.5,0.5c-8.9,2.8-17,7.5-24,14
	l-1.1,1l-91.3-52.7L121.2,154.4z M105.6,179.5c2.7-5.3,5.7-10.5,8.9-15.4l1.1-1.7l90.4,52.2l-1.5,1.9c-3.6,4.6-6.4,9.6-8.6,14.7
	l-0.9,2.2l-90.3-52.1L105.6,179.5z M100.6,322c-8.9-20.9-13.4-43.1-13.4-66c0-22.9,4.5-45,13.4-65.9l0.9-2.2l91.3,52.7l-0.3,1.5
	c-1,4.6-1.5,9.3-1.5,13.9c0,4.6,0.5,9.3,1.5,13.9l0.3,1.5l-91.3,52.7L100.6,322z M114.5,348c-3.2-4.9-6.2-10.1-8.9-15.4l-0.9-1.8
	l90.3-52.1l0.9,2.2c2.1,5.1,5,10.1,8.6,14.7l1.5,1.9l-90.4,52.2L114.5,348z M237.8,423.8l-2.4-0.3c-45.1-5.5-86.7-29.5-114.2-65.9
	l-1.4-1.9l91.3-52.7l1.1,1c7.1,6.4,15.1,11.1,24,13.9l1.5,0.5V423.8z M266.9,424.5l-2,0.1c-3,0.1-5.9,0.2-8.9,0.2
	c-3,0-5.9-0.1-8.8-0.2l-2-0.1V320.1l2.4,0.3c6.6,0.9,10.6,0.8,17,0l2.4-0.3V424.5z M256,293.4c-13.3,0-25.8-7.2-32.4-18.7
	c-5-8.7-6.3-18.7-3.7-28.4c2.6-9.7,8.8-17.7,17.4-22.7c5.7-3.3,12.2-5,18.7-5c13.3,0,25.8,7.2,32.4,18.7
	c10.3,17.9,4.2,40.8-13.7,51.1C269,291.7,262.6,293.4,256,293.4z M390.8,357.6c-27.5,36.4-69.1,60.4-114.1,65.9l-2.4,0.3V318.4
	l1.5-0.5c8.9-2.8,16.9-7.5,24-14l1.1-1l91.3,52.7L390.8,357.6z M406.4,332.5c-2.7,5.3-5.7,10.5-8.9,15.4l-1.1,1.7l-90.3-52.2
	l1.5-1.9c3.6-4.6,6.4-9.6,8.6-14.7l0.9-2.2l90.3,52.1L406.4,332.5z M411.4,321.9l-0.9,2.2l-91.3-52.7l0.3-1.5
	c1-4.6,1.5-9.3,1.5-13.9c0-4.6-0.5-9.3-1.5-13.9l-0.3-1.5l91.3-52.7l0.9,2.2c8.9,20.9,13.4,43.1,13.4,66
	C424.8,278.9,420.3,301,411.4,321.9z"/>
</svg>
