<?xml version="1.0" encoding="utf-8"?>
<!-- Generator: Adobe Illustrator 25.0.0, SVG Export Plug-In . SVG Version: 6.00 Build 0)  -->
<svg version="1.1" id="Layer_3" xmlns="http://www.w3.org/2000/svg" xmlns:xlink="http://www.w3.org/1999/xlink" x="0px" y="0px"
	 viewBox="0 0 512 512" style="enable-background:new 0 0 512 512;" xml:space="preserve">
<style type="text/css">
	.st0{fill:#685F43;}
</style>
<path class="st0" d="M512,275.3v-38.7l-50.7-5.6c-1.3-10.5-3.3-20.7-6.1-30.6l44.7-24.6l-14.8-35.7l-49,14.2
	c-5.1-9.1-10.9-17.8-17.3-25.9l31.9-39.8l-27.3-27.3l-39.8,31.9c-8.2-6.4-16.8-12.2-25.9-17.3l14.2-49l-35.7-14.8l-24.6,44.7
	c-9.9-2.8-20.1-4.8-30.6-6.1L275.3,0h-38.7l-5.6,50.7c-10.5,1.3-20.7,3.3-30.6,6.1l-24.6-44.7l-35.7,14.8l14.2,49
	c-9.1,5.1-17.8,10.9-25.9,17.3L88.7,61.3L61.3,88.7l31.9,39.8c-6.4,8.2-12.2,16.8-17.3,25.9l-49-14.2l-14.8,35.7l44.7,24.6
	c-2.8,9.9-4.8,20.1-6.1,30.6L0,236.7v38.7l50.7,5.6c1.3,10.5,3.3,20.7,6.1,30.6l-44.7,24.6l14.8,35.7l49-14.2
	c5.1,9.1,10.9,17.8,17.3,25.9l-31.9,39.8l27.3,27.3l39.8-31.9c8.2,6.4,16.8,12.2,25.9,17.3l-14.2,49l35.7,14.8l24.6-44.7
	c9.9,2.8,20.1,4.8,30.6,6.1l5.6,50.7h38.7l5.6-50.7c10.5-1.3,20.7-3.3,30.6-6.1l24.6,44.7l35.7-14.8l-14.2-49
	c9.1-5.1,17.8-10.9,25.9-17.3l39.8,31.9l27.3-27.3l-31.9-39.8c6.4-8.2,12.2-16.8,17.3-25.9l49,14.2l14.8-35.7l-44.7-24.6
	c2.8-9.9,4.8-20.1,6.1-30.6L512,275.3z M187.3,313.4l-75.9,43.8c-6.1,3.5-13.9,1.4-17.4-4.7l-4.7-8.1c-3.5-6.1-1.4-13.9,4.7-17.4
	l75.9-43.8c6.1-3.5,13.9-1.4,17.4,4.7l4.7,8.1C195.5,302.1,193.4,309.9,187.3,313.4z M192,216l-4.7,8.1c-3.5,6.1-11.3,8.2-17.4,4.7
	L94,184.9c-6.1-3.5-8.2-11.3-4.7-17.4l4.7-8.1c3.5-6.1,11.3-8.2,17.4-4.7l75.9,43.8C193.4,202.1,195.5,209.9,192,216z M269.3,428.3
	c0,7-5.7,12.7-12.7,12.7h-9.3c-7,0-12.7-5.7-12.7-12.7v-87.6c0-7,5.7-12.7,12.7-12.7h9.3c7,0,12.7,5.7,12.7,12.7V428.3z
	 M269.3,171.3c0,7-5.7,12.7-12.7,12.7h-9.3c-7,0-12.7-5.7-12.7-12.7V83.7c0-7,5.7-12.7,12.7-12.7h9.3c7,0,12.7,5.7,12.7,12.7V171.3z
	 M414.5,344.5l-4.7,8.1c-3.5,6.1-11.3,8.2-17.4,4.7l-75.9-43.8c-6.1-3.5-8.2-11.3-4.7-17.4l4.7-8.1c3.5-6.1,11.3-8.2,17.4-4.7
	l75.9,43.8C415.9,330.6,418,338.4,414.5,344.5z M409.8,184.9l-75.9,43.8c-6.1,3.5-13.9,1.4-17.4-4.7l-4.7-8.1
	c-3.5-6.1-1.4-13.9,4.7-17.4l75.9-43.8c6.1-3.5,13.9-1.4,17.4,4.7l4.7,8.1C418,173.6,415.9,181.4,409.8,184.9z"/>
</svg>
