<?xml version="1.0" encoding="utf-8"?>
<!-- Generator: Adobe Illustrator 25.0.0, SVG Export Plug-In . SVG Version: 6.00 Build 0)  -->
<svg version="1.1" id="Layer_5" xmlns="http://www.w3.org/2000/svg" xmlns:xlink="http://www.w3.org/1999/xlink" x="0px" y="0px"
	 viewBox="0 0 512 512" style="enable-background:new 0 0 512 512;" xml:space="preserve">
<style type="text/css">
	.st0{fill:#685F43;}
</style>
<path class="st0" d="M494.9,242.6c-7.7-2.3-15.7-4.8-21.7-7.3l-1.2-0.5l-0.1-1.3c-0.5-5.3-1.4-10.8-2.5-17l-0.2-1.2l1-0.8
	c5.1-4.3,12.3-9,19.3-13.6c4.9-3.2,10-6.5,14.2-9.6c-1.2-4.7-2.7-9.6-4.4-15c-5.3-0.3-11.6-0.4-17.6-0.4c-8.2-0.1-16.6-0.1-23-0.9
	l-1.3-0.2l-0.5-1.2c-2.1-5.2-4.5-10.4-7.2-15.6l-0.6-1.1l0.7-1.1c3.7-5.5,9.2-12,14.6-18.3c3.8-4.5,7.8-9.2,11-13.4
	c-2.6-4.3-5.5-8.7-8.5-13.1c-5.2,1.2-11.1,2.9-16.9,4.5c-7.9,2.3-16.1,4.6-22.5,5.6l-1.2,0.2l-0.8-1c-3.6-4.5-7.3-8.8-11.2-12.9
	l-0.9-0.9l0.4-1.2c2-6.2,5.4-14,8.8-21.6c2.4-5.5,4.9-11.1,6.8-16c-3.8-3.5-7.8-7-11.8-10.2c-4.6,2.6-9.8,5.9-14.9,9
	c-7,4.4-14.2,8.9-20.1,11.8l-1.1,0.5l-1-0.7c-4.7-3.3-9.6-6.4-14.4-9.3l-1.1-0.6l0-1.3c0.1-6.5,1.3-14.9,2.4-23
	c0.8-6,1.6-12.1,2.1-17.4c-4.8-2.4-9.5-4.6-14.2-6.5c-3.7,3.8-7.7,8.3-11.6,12.8c-5.5,6.2-11.2,12.7-16.1,17.1l-0.9,0.8l-1.2-0.4
	c-5.8-1.9-11.2-3.5-16.4-4.9l-1.2-0.3l-0.3-1.2c-1.7-6.2-3-14.6-4.2-22.6c-0.9-6-1.9-12.2-3-17.4c-5.5-1-10.6-1.7-15.5-2.3
	c-2.4,4.6-5,10.1-7.5,15.4c-3.5,7.6-7.2,15.4-10.7,21.1l-0.7,1.1l-1.3-0.1c-5.8-0.2-11.6-0.2-17.3,0l-1.3,0.1l-0.7-1.1
	c-3.5-5.7-7.2-13.5-10.7-21.1c-2.5-5.3-5-10.8-7.5-15.4c-4.9,0.6-10,1.3-15.5,2.3c-1.1,5.3-2.1,11.4-3,17.4
	c-1.2,8-2.5,16.4-4.2,22.6l-0.3,1.2l-1.2,0.3c-5.3,1.3-10.7,2.9-16.4,4.9l-1.2,0.4l-0.9-0.8c-4.9-4.4-10.6-10.9-16.1-17.1
	c-3.9-4.4-8-9-11.6-12.8c-4.6,1.9-9.3,4.1-14.2,6.5c0.4,5.3,1.3,11.5,2.1,17.4c1.1,8.1,2.2,16.5,2.4,23l0,1.3l-1.1,0.6
	c-4.9,2.9-9.7,6-14.4,9.3l-1,0.7l-1.1-0.5c-5.9-2.8-13.1-7.4-20.1-11.8c-5-3.2-10.2-6.5-14.9-9c-4,3.2-7.9,6.7-11.8,10.2
	c1.9,4.9,4.4,10.6,6.8,16c3.4,7.5,6.8,15.3,8.8,21.6l0.4,1.2l-0.9,0.9c-3.9,4.2-7.7,8.6-11.2,13l-0.8,1l-1.3-0.2
	c-6.5-1.1-14.6-3.4-22.6-5.7c-5.8-1.6-11.7-3.3-16.9-4.5c-3,4.4-5.8,8.8-8.5,13.1c3.2,4.2,7.2,8.9,11,13.4
	c5.4,6.3,10.9,12.8,14.6,18.3l0.7,1.1l-0.6,1.1c-2.6,5.2-5,10.4-7.1,15.6l-0.5,1.2l-1.3,0.2c-6.4,0.8-14.9,0.9-23.1,0.9
	c-6,0-12.3,0.1-17.6,0.4c-1.7,5.3-3.2,10.2-4.4,15c4.2,3.1,9.3,6.4,14.3,9.7c7,4.6,14.2,9.3,19.3,13.5l1,0.8l-0.2,1.2
	c-1.1,6.2-1.9,11.7-2.5,17l-0.1,1.3l-1.2,0.5c-5.9,2.5-13.9,5-21.7,7.3c-5.8,1.8-11.8,3.6-16.9,5.4c-0.1,2.8-0.2,5.4-0.2,8
	c0,2.7,0.1,5.3,0.2,8c5.1,1.9,11.1,3.7,16.9,5.5c7.7,2.3,15.7,4.8,21.6,7.3l1.2,0.5l0.1,1.3c0.5,5.3,1.4,10.8,2.5,17l0.2,1.2l-1,0.8
	c-5.1,4.2-12.3,9-19.3,13.5c-4.9,3.2-10,6.6-14.3,9.7c1.2,4.7,2.7,9.6,4.4,15c5.3,0.3,11.6,0.4,17.6,0.4c8.2,0.1,16.6,0.1,23.1,0.9
	l1.3,0.2l0.5,1.2c2.1,5.1,4.5,10.4,7.2,15.6l0.6,1.1l-0.7,1.1c-3.7,5.5-9.2,12-14.6,18.3c-3.8,4.5-7.8,9.2-11,13.4
	c2.6,4.4,5.5,8.8,8.5,13.1c5.2-1.2,11.1-2.9,16.9-4.5c7.9-2.3,16.1-4.6,22.6-5.7l1.3-0.2l0.8,1c3.5,4.4,7.3,8.8,11.2,13l0.9,0.9
	l-0.4,1.2c-2,6.3-5.4,14-8.8,21.6c-2.4,5.4-4.9,11.1-6.8,16c3.9,3.6,7.8,7,11.8,10.2c4.6-2.6,9.8-5.8,14.9-9c7-4.4,14.2-9,20.1-11.8
	l1.1-0.5l1,0.7c4.7,3.3,9.6,6.4,14.4,9.3l1.1,0.6l0,1.3c-0.1,6.5-1.3,14.9-2.4,23c-0.8,6-1.6,12.1-2.1,17.4
	c4.8,2.4,9.5,4.5,14.2,6.5c3.7-3.8,7.7-8.3,11.7-12.8c5.5-6.2,11.2-12.7,16.1-17.1l0.9-0.8l1.2,0.4c5.8,1.9,11.2,3.5,16.4,4.9
	l1.2,0.3l0.3,1.2c1.7,6.3,3,14.6,4.2,22.6c0.9,6,1.9,12.1,3,17.4c5.5,1,10.6,1.7,15.5,2.3c2.4-4.6,5-10.1,7.5-15.4
	c3.5-7.6,7.2-15.5,10.7-21.1l0.7-1.1l1.3,0.1c5.8,0.2,11.6,0.2,17.3,0l1.3-0.1l0.7,1.1c3.5,5.7,7.2,13.5,10.7,21.1
	c2.5,5.3,5,10.8,7.5,15.4c4.9-0.6,10-1.3,15.5-2.3c1.1-5.3,2-11.4,3-17.4c1.2-8,2.5-16.4,4.2-22.6l0.3-1.2l1.2-0.3
	c5.3-1.3,10.7-2.9,16.4-4.9l1.2-0.4l0.9,0.8c4.9,4.4,10.6,10.9,16.1,17.1c3.9,4.4,8,9,11.6,12.8c4.6-2,9.3-4.1,14.2-6.5
	c-0.4-5.3-1.3-11.5-2.1-17.4c-1.1-8.1-2.2-16.5-2.4-23.1l0-1.3l1.1-0.6c4.9-2.9,9.8-6,14.4-9.3l1-0.7l1.1,0.5
	c5.9,2.8,13.1,7.4,20.1,11.8c5,3.2,10.2,6.5,14.9,9c4-3.2,7.9-6.7,11.8-10.2c-1.9-4.9-4.4-10.6-6.8-16c-3.4-7.5-6.8-15.3-8.8-21.6
	l-0.4-1.2l0.9-0.9c3.9-4.2,7.7-8.6,11.2-13l0.8-1l1.3,0.2c6.4,1.1,14.6,3.4,22.5,5.6c5.8,1.6,11.7,3.3,16.9,4.5
	c3-4.3,5.8-8.7,8.5-13.1c-3.2-4.2-7.2-8.9-11-13.4c-5.4-6.3-10.9-12.8-14.6-18.3l-0.7-1.1l0.6-1.1c2.6-5.2,5-10.4,7.2-15.6l0.5-1.2
	l1.3-0.2c6.4-0.8,14.9-0.9,23-0.9c6,0,12.3-0.1,17.6-0.4c1.8-5.3,3.2-10.3,4.4-15c-4.2-3.1-9.3-6.4-14.2-9.6
	c-7-4.6-14.2-9.3-19.3-13.5l-1-0.8l0.2-1.2c1.1-6.2,1.9-11.7,2.5-17l0.1-1.3l1.2-0.5c5.9-2.5,13.9-5,21.6-7.3
	c5.8-1.8,11.9-3.6,16.9-5.5c0.1-2.6,0.2-5.3,0.2-8s-0.1-5.3-0.2-8C506.7,246.2,500.7,244.4,494.9,242.6z M323.3,82.8l0.9-0.4
	l0.9,0.4c25.4,10.1,48.8,26.1,67.5,46.3l2.9,3.1l-4.2,0.6c-34.2,4.6-82.8,34-110.1,59.8l-1,0.9l-1.3-0.5c-7.5-2.7-15.2-4.1-22.9-4.1
	c-1.9,0-3.9,0.1-6.2,0.3l-3,0.3l0.7-2.9C258.8,136.9,294.2,96.8,323.3,82.8z M288.5,256c0,8.7-3.4,16.8-9.5,23
	c-6.1,6.1-14.3,9.5-23,9.5c-8.7,0-16.8-3.4-23-9.5c-12.7-12.7-12.7-33.3,0-45.9c6.1-6.1,14.3-9.5,23-9.5s16.8,3.4,23,9.5
	C285.1,239.2,288.5,247.3,288.5,256z M181.1,85.9l0.3-0.9l0.9-0.4c23.4-10,48.1-15.1,73.7-15.1c2.3,0,4.5,0.1,6.7,0.2l4.2,0.2
	l-2.5,3.3c-21,27.4-34.5,82.6-35.5,120.1l0,1.3l-1.2,0.6c-9,4.2-17.1,10.4-23.3,17.9l-1.9,2.3l-1.6-2.5
	C173.8,169.8,170.4,116.4,181.1,85.9z M82.8,187c10.1-25.4,26.1-48.8,46.3-67.5l3.1-2.9l0.6,4.2c4.6,34.2,34,82.8,59.8,110.1l0.9,1
	l-0.5,1.3c-2.7,7.5-4.1,15.2-4.1,22.9c0,2.1,0.1,4.2,0.3,6.2l0.3,3l-2.9-0.7c-49.5-11.3-89.6-46.7-103.6-75.8l-0.4-0.9L82.8,187z
	 M85.9,330.9l-0.9-0.3l-0.4-0.9c-10-23.3-15.1-48.1-15.1-73.7c0-2,0.1-3.9,0.1-5.9l0.2-5l3.3,2.5c27.4,21,82.6,34.5,120.1,35.6
	l1.3,0l0.6,1.2c4.2,9,10.4,17.1,17.9,23.3l2.3,1.9l-2.5,1.6c-25.6,16.1-58.2,25.3-89.2,25.3C109.6,336.5,96.5,334.6,85.9,330.9z
	 M188.7,429.2l-0.9,0.4l-0.9-0.4c-25.4-10.1-48.8-26.1-67.5-46.3l-2.9-3.1l4.2-0.6c34.2-4.6,82.8-34,110.1-59.8l1-0.9l1.3,0.5
	c9.5,3.5,19.5,4.7,29.2,3.8l3-0.3l-0.7,2.9C253.2,375.1,217.8,415.2,188.7,429.2z M330.9,426.1l-0.3,0.9l-0.9,0.4
	c-23.3,10-48.1,15.1-73.7,15.1c-2.1,0-4.1-0.1-6.2-0.1l-4.8-0.2l2.5-3.3c21-27.4,34.5-82.6,35.5-120.1l0-1.3l1.2-0.6
	c9-4.2,17.1-10.4,23.3-17.9l1.9-2.3l1.6,2.5C338.2,342.2,341.6,395.6,330.9,426.1z M429.2,325c-10.1,25.4-26.1,48.8-46.3,67.5
	l-3.1,2.9l-0.6-4.2c-4.6-34.2-34-82.8-59.8-110l-0.9-1l0.5-1.3c2.7-7.5,4.1-15.2,4.1-22.9c0-1.9-0.1-3.9-0.3-6.2l-0.3-3l2.9,0.7
	c49.5,11.3,89.6,46.7,103.6,75.8l0.4,0.9L429.2,325z M442.3,261.9l-0.2,5l-3.3-2.5c-27.4-21-82.6-34.5-120.1-35.5l-1.3,0l-0.6-1.2
	c-4.2-9-10.4-17.1-17.9-23.3l-2.3-1.9l2.5-1.6c25.6-16.1,58.2-25.3,89.2-25.3c14.1,0,27.1,2,37.7,5.7l0.9,0.3l0.4,0.9
	c10,23.3,15.1,48.1,15.1,73.7C442.5,258,442.4,259.9,442.3,261.9z"/>
</svg>
