<?xml version="1.0" encoding="utf-8"?>
<!-- Generator: Adobe Illustrator 25.0.0, SVG Export Plug-In . SVG Version: 6.00 Build 0)  -->
<svg version="1.1" xmlns="http://www.w3.org/2000/svg" xmlns:xlink="http://www.w3.org/1999/xlink" x="0px" y="0px"
	 viewBox="0 0 512 512" style="enable-background:new 0 0 512 512;" xml:space="preserve">
<style type="text/css">
	.st0{fill:#685F43;}
</style>
<path class="st0" d="M512,275.3v-38.7l-33.5-3.7c-1.4-14-4.2-27.7-8.1-40.8l29.5-16.2l-14.8-35.7l-32.3,9.4
	c-6.7-12.3-14.4-23.8-23.2-34.6l21.1-26.3l-27.3-27.3L397,82.4c-10.7-8.7-22.3-16.5-34.6-23.2l9.4-32.3l-35.7-14.8l-16.2,29.5
	c-13.1-3.9-26.8-6.7-40.8-8.1L275.3,0h-38.7L233,33.5c-14,1.4-27.7,4.2-40.8,8.1l-16.2-29.5l-35.7,14.8l9.4,32.3
	c-12.3,6.7-23.8,14.4-34.6,23.2L88.7,61.3L61.3,88.7L82.4,115c-8.7,10.7-16.5,22.3-23.2,34.6l-32.3-9.4l-14.8,35.7l29.5,16.2
	c-3.9,13.1-6.7,26.8-8.1,40.8L0,236.7v38.7l33.5,3.7c1.4,14,4.2,27.7,8.1,40.8l-29.5,16.2l14.8,35.7l32.3-9.4
	c6.7,12.3,14.4,23.8,23.2,34.6l-21.1,26.3l27.3,27.3l26.3-21.1c10.7,8.7,22.3,16.5,34.6,23.2l-9.4,32.3l35.7,14.8l16.2-29.5
	c13.1,3.9,26.8,6.7,40.8,8.1l3.7,33.5h38.7l3.7-33.5c14-1.4,27.7-4.2,40.8-8.1l16.2,29.5l35.7-14.8l-9.4-32.3
	c12.3-6.7,23.8-14.4,34.6-23.2l26.3,21.1l27.3-27.3L429.6,397c8.7-10.7,16.5-22.3,23.2-34.6l32.3,9.4l14.8-35.7l-29.5-16.2
	c3.9-13.1,6.7-26.8,8.1-40.8L512,275.3z M256,289.8c-18.7,0-33.8-15.1-33.8-33.8c0-18.7,15.1-33.8,33.8-33.8s33.8,15.1,33.8,33.8
	C289.8,274.7,274.7,289.8,256,289.8z"/>
</svg>
