<?xml version="1.0" encoding="utf-8"?>
<!-- Generator: Adobe Illustrator 25.0.0, SVG Export Plug-In . SVG Version: 6.00 Build 0)  -->
<svg version="1.1" id="Layer_6" xmlns="http://www.w3.org/2000/svg" xmlns:xlink="http://www.w3.org/1999/xlink" x="0px" y="0px"
	 viewBox="0 0 512 512" style="enable-background:new 0 0 512 512;" xml:space="preserve">
<style type="text/css">
	.st0{fill:#685F43;}
</style>
<path class="st0" d="M511.8,249.2c-3.6-1.3-7.7-2.6-11.7-3.8c-4-1.3-8.1-2.5-11.7-3.8l-1.4-0.5l-0.1-1.4c-0.5-7.1-1.2-13.4-2.1-19.4
	l-0.2-1.4l1.2-0.8c3.3-2.1,7.1-4.3,10.8-6.4c3.5-2,7.1-4.1,10.3-6.1c-0.9-4.6-1.9-8.9-2.9-13c-3.8-0.4-8.1-0.8-12.2-1.1
	c-4.2-0.3-8.4-0.7-12.2-1.1l-1.4-0.2l-0.4-1.4c-1.8-6-4-12.2-6.5-18.4l-0.5-1.3l1-1c2.8-2.8,5.9-5.7,9.1-8.7c3-2.8,6-5.6,8.7-8.3
	c-1.8-4.1-3.8-8.1-5.8-12c-3.8,0.4-8,1-12.1,1.6c-4.2,0.6-8.4,1.2-12.2,1.7l-1.4,0.2l-0.7-1.3c-3.3-5.8-6.8-11.3-10.4-16.5l-0.8-1.2
	l0.8-1.2c2.1-3.3,4.5-6.9,6.9-10.5c2.3-3.4,4.6-6.9,6.6-10.1c-2.5-3.2-5.2-6.6-8.4-10.4c-3.6,1.2-7.5,2.8-11.3,4.2
	c-4,1.6-8,3.1-11.7,4.4l-1.4,0.5l-1-1.1c-4.4-4.8-9-9.4-13.8-13.8l-1.1-1l0.5-1.4c1.3-3.7,2.8-7.7,4.4-11.7c1.5-3.8,3-7.7,4.2-11.3
	c-3.8-3.2-7.2-5.9-10.4-8.4c-3.2,2-6.7,4.3-10.1,6.6c-3.6,2.4-7.1,4.8-10.5,6.9l-1.2,0.8l-1.2-0.8c-5.2-3.6-10.8-7.1-16.5-10.4
	l-1.3-0.7l0.2-1.4c0.4-3.9,1-8.1,1.7-12.3c0.6-4.1,1.2-8.2,1.6-12c-3.9-2-8-4-12-5.8c-2.7,2.6-5.5,5.7-8.3,8.6
	c-3,3.2-5.9,6.3-8.7,9.1l-1,1l-1.3-0.5c-6.3-2.5-12.5-4.7-18.4-6.5l-1.4-0.4l-0.2-1.4c-0.4-3.8-0.8-8-1.1-12.3
	c-0.3-4.1-0.7-8.4-1.1-12.2c-4.1-1-8.4-2-13-2.9c-2,3.2-4.1,6.8-6.1,10.2c-2.2,3.7-4.3,7.5-6.5,10.8l-0.8,1.2l-1.4-0.2
	c-6-0.9-12.3-1.6-19.4-2.1l-1.4-0.1l-0.5-1.4c-1.3-3.6-2.5-7.6-3.8-11.7c-1.2-4-2.5-8.1-3.8-11.7l-0.2,0c-4.4-0.2-8.8-0.2-13.2,0
	l-0.2,0c-1.3,3.6-2.6,7.7-3.8,11.7c-1.3,4-2.5,8-3.8,11.6l-0.5,1.4l-1.4,0.1c-7,0.5-13.4,1.2-19.4,2.1l-1.4,0.2l-0.8-1.2
	c-2.1-3.3-4.3-7.1-6.5-10.8c-2-3.5-4.1-7.1-6.1-10.2c-4.6,0.9-8.9,1.9-13,2.9c-0.4,3.8-0.8,8-1.1,12.2c-0.3,4.2-0.7,8.5-1.1,12.3
	l-0.2,1.4l-1.4,0.4c-6,1.8-12.2,4-18.4,6.5l-1.3,0.5l-1-1c-2.8-2.8-5.8-5.9-8.7-9.1c-2.8-2.9-5.6-6-8.3-8.6c-4.1,1.8-8.1,3.8-12,5.8
	c0.4,3.8,1,8,1.6,12c0.6,4.2,1.2,8.4,1.7,12.3l0.2,1.4l-1.3,0.7c-5.8,3.3-11.4,6.8-16.5,10.4l-1.2,0.8l-1.2-0.8
	c-3.3-2.1-6.9-4.5-10.4-6.9c-3.4-2.3-6.9-4.7-10.1-6.7c-3.2,2.4-6.6,5.1-10.4,8.4c1.2,3.6,2.8,7.5,4.3,11.3c1.5,4,3.1,8,4.4,11.6
	l0.5,1.4l-1.1,1c-4.8,4.4-9.4,9.1-13.8,13.8l-1,1.1l-1.4-0.5c-3.7-1.3-7.6-2.8-11.6-4.4c-3.8-1.5-7.8-3-11.3-4.3
	c-3.2,3.8-5.9,7.2-8.4,10.4c2,3.2,4.4,6.7,6.7,10.1c2.4,3.6,4.8,7.1,6.9,10.4l0.8,1.2l-0.8,1.2c-3.6,5.2-7.1,10.8-10.4,16.5
	l-0.7,1.3l-1.4-0.2c-3.8-0.4-8-1-12.2-1.7c-4.1-0.6-8.3-1.2-12.1-1.6c-2,3.9-4,8-5.8,12c2.7,2.7,5.7,5.5,8.7,8.3
	c3.2,2.9,6.3,5.9,9.1,8.7l1,1l-0.5,1.3c-2.5,6.2-4.7,12.4-6.5,18.4l-0.4,1.4l-1.4,0.2c-3.8,0.4-8,0.8-12.2,1.1
	c-4.1,0.3-8.4,0.7-12.2,1.1c-1,4.1-2,8.4-2.9,13c3.2,2,6.7,4.1,10.2,6.1c3.7,2.2,7.5,4.3,10.8,6.5l1.2,0.8l-0.2,1.4
	c-0.9,6-1.6,12.4-2.1,19.4l-0.1,1.4l-1.4,0.5c-3.6,1.3-7.6,2.5-11.7,3.8c-4,1.2-8,2.5-11.7,3.8l0,0.4C0.1,251.8,0,253.9,0,256
	c0,2.1,0.1,4.2,0.1,6.3l0,0.4c3.6,1.3,7.7,2.6,11.7,3.8c4,1.3,8,2.5,11.6,3.8l1.4,0.5l0.1,1.4c0.5,7,1.2,13.4,2.1,19.4l0.2,1.4
	l-1.2,0.8c-3.3,2.1-7.1,4.3-10.8,6.4c-3.5,2-7.1,4.1-10.3,6.1c0.9,4.6,1.9,8.9,2.9,13c3.8,0.4,8,0.8,12.1,1.1
	c4.2,0.3,8.5,0.7,12.3,1.1l1.4,0.2l0.4,1.4c1.8,6,4,12.2,6.5,18.4l0.5,1.3l-1,1c-2.8,2.8-5.9,5.8-9.1,8.7c-3,2.8-6,5.6-8.6,8.3
	c1.8,4.1,3.8,8.1,5.8,12c3.8-0.4,8-1,12.1-1.6c4.2-0.6,8.4-1.2,12.2-1.7l1.4-0.2l0.7,1.3c3.3,5.8,6.8,11.4,10.4,16.5l0.8,1.2
	l-0.8,1.2c-2.1,3.3-4.5,6.9-6.9,10.4c-2.3,3.4-4.6,6.9-6.6,10.1c2.5,3.2,5.2,6.6,8.4,10.4c3.6-1.2,7.5-2.8,11.3-4.2
	c4-1.6,8-3.1,11.6-4.4l1.4-0.5l1,1.1c4.4,4.8,9.1,9.5,13.8,13.8l1.1,1l-0.5,1.4c-1.3,3.7-2.8,7.6-4.4,11.6c-1.5,3.8-3,7.7-4.3,11.3
	c3.8,3.2,7.2,5.9,10.4,8.4c3.2-2,6.7-4.4,10.1-6.6c3.6-2.4,7.1-4.8,10.5-6.9l1.2-0.8l1.2,0.8c5.3,3.6,10.8,7.1,16.5,10.4l1.3,0.7
	l-0.2,1.4c-0.4,3.9-1,8.1-1.7,12.3c-0.6,4.1-1.2,8.2-1.6,12c3.9,2,7.9,3.9,12,5.8c2.7-2.6,5.5-5.7,8.3-8.7c3-3.2,5.9-6.3,8.7-9.1
	l1-1l1.3,0.5c6.3,2.5,12.5,4.7,18.4,6.5l1.4,0.4l0.2,1.4c0.4,3.8,0.8,8.1,1.1,12.3c0.3,4.1,0.7,8.4,1.1,12.2c4.1,1,8.4,2,13,2.9
	c2-3.2,4.1-6.8,6.1-10.2c2.2-3.7,4.3-7.5,6.5-10.8l0.8-1.2l1.4,0.2c6,0.9,12.4,1.6,19.4,2.1l1.4,0.1l0.5,1.4
	c1.3,3.6,2.5,7.6,3.8,11.6c1.2,4,2.5,8.1,3.8,11.7l0.2,0c4.4,0.2,8.8,0.2,13.2,0l0.2,0c1.3-3.6,2.6-7.7,3.8-11.7
	c1.3-4,2.5-8,3.8-11.6l0.5-1.4l1.4-0.1c7-0.5,13.4-1.2,19.4-2.1l1.4-0.2l0.8,1.2c2.1,3.3,4.3,7.1,6.5,10.8c2,3.5,4.1,7.1,6.1,10.2
	c4.6-0.9,8.9-1.9,13-2.9c0.4-3.8,0.8-8,1.1-12.2c0.3-4.2,0.7-8.5,1.1-12.3l0.2-1.4l1.4-0.4c6-1.8,12.2-4,18.4-6.5l1.3-0.5l1,1
	c2.8,2.8,5.8,5.9,8.7,9.1c2.8,3,5.6,6,8.3,8.6c4.1-1.8,8.1-3.8,12-5.8c-0.4-3.8-1-7.9-1.6-12c-0.6-4.2-1.3-8.5-1.7-12.3l-0.2-1.4
	l1.3-0.7c5.8-3.3,11.4-6.8,16.5-10.4l1.2-0.8l1.2,0.8c3.3,2.1,6.9,4.5,10.5,6.9c3.4,2.3,6.9,4.6,10,6.6c3.2-2.4,6.6-5.1,10.4-8.4
	c-1.2-3.6-2.8-7.5-4.3-11.3c-1.5-4-3.1-8-4.4-11.6l-0.5-1.4l1.1-1c4.7-4.4,9.4-9,13.8-13.8l1-1.1l1.4,0.5c3.7,1.3,7.7,2.8,11.6,4.4
	c3.8,1.5,7.7,3,11.3,4.3c3.2-3.8,5.9-7.2,8.4-10.4c-2-3.2-4.3-6.7-6.6-10c-2.4-3.6-4.8-7.2-6.9-10.5l-0.8-1.2l0.8-1.2
	c3.6-5.2,7.1-10.8,10.4-16.5l0.7-1.3l1.4,0.2c3.8,0.4,8,1,12.2,1.7c4.1,0.6,8.3,1.2,12.1,1.6c2-3.9,4-7.9,5.8-12
	c-2.7-2.7-5.7-5.5-8.7-8.3c-3.2-2.9-6.3-5.9-9.1-8.7l-1-1l0.5-1.3c2.5-6.3,4.7-12.5,6.5-18.4l0.4-1.4l1.4-0.2
	c3.8-0.4,8.1-0.8,12.3-1.1c4.1-0.3,8.3-0.7,12.1-1.1c1.1-4.1,2-8.4,2.9-13c-3.2-2-6.7-4.1-10.2-6.1c-3.7-2.2-7.5-4.4-10.8-6.5
	l-1.2-0.8l0.2-1.4c0.9-6,1.6-12.4,2.1-19.4l0.1-1.4l1.4-0.5c3.6-1.3,7.6-2.5,11.7-3.8c4-1.2,8-2.5,11.7-3.8l0-0.3
	c0.1-2.1,0.1-4.3,0.1-6.4c0-2.2-0.1-4.3-0.1-6.4L511.8,249.2z M270.1,187c2.4-28.4,7.7-57.2,15.8-85.6l0.6-2l2,0.4
	c19.9,4.1,38.6,11.9,55.6,23.2l1.7,1.1l-0.9,1.8c-13.9,26.4-30.6,50.5-49.5,71.7L294,199l-1.6-1c-6.4-4-13.3-6.9-20.6-8.6l-1.9-0.4
	L270.1,187z M168.5,122.7c17.1-11.2,35.8-19,55.7-23l2-0.4l0.6,1.9c8.8,28.5,14.1,57.4,15.7,85.7l0.1,1.9l-1.8,0.4
	c-7.2,1.6-14.2,4.5-20.6,8.4l-1.6,1l-1.2-1.4c-18.7-22.1-35.3-46.1-49.5-71.6l-1-1.8L168.5,122.7z M99.8,223.5
	c4.1-19.9,11.9-38.6,23.2-55.6l1.1-1.7l1.8,0.9c26.4,13.9,50.5,30.6,71.7,49.5l1.4,1.2l-1,1.6c-4,6.4-6.9,13.3-8.6,20.6l-0.4,1.9
	l-1.9-0.2c-28.4-2.4-57.2-7.7-85.6-15.8l-2-0.6L99.8,223.5z M125.6,344.2l-1.8,1l-1.1-1.7c-11.2-17.1-18.9-35.8-23-55.7l-0.4-2
	l1.9-0.6c28.5-8.8,57.4-14.1,85.7-15.7l1.9-0.1l0.4,1.8c1.6,7.2,4.5,14.2,8.4,20.6l1,1.6l-1.5,1.2C175.1,313.3,151,330,125.6,344.2z
	 M241.9,325c-2.4,28.4-7.7,57.2-15.8,85.6l-0.6,2l-2-0.4c-19.9-4.1-38.6-11.9-55.6-23.2l-1.7-1.1l0.9-1.8
	c13.9-26.4,30.6-50.5,49.5-71.7l1.2-1.4l1.6,1c6.4,4,13.3,6.9,20.6,8.6l1.9,0.4L241.9,325z M256,305.4c-13.2,0-25.6-5.1-34.9-14.5
	c-9.3-9.3-14.5-21.7-14.5-34.9c0-13.2,5.1-25.6,14.5-34.9c9.3-9.3,21.7-14.5,34.9-14.5c13.2,0,25.6,5.1,34.9,14.5
	c19.3,19.3,19.3,50.6,0,69.9C281.6,300.3,269.2,305.4,256,305.4z M343.4,389.4c-17.1,11.2-35.8,18.9-55.7,23l-2,0.4l-0.6-1.9
	c-8.8-28.5-14.1-57.4-15.7-85.7l-0.1-1.9l1.8-0.4c7.2-1.6,14.1-4.5,20.6-8.4l1.6-1l1.2,1.5c18.7,22.1,35.3,46.2,49.5,71.6l1,1.8
	L343.4,389.4z M412.2,288.5c-4.1,19.9-11.9,38.6-23.2,55.6l-1.1,1.7l-1.8-0.9c-26.4-13.9-50.5-30.6-71.7-49.5L313,294l1-1.6
	c4-6.4,6.9-13.3,8.6-20.6l0.4-1.9l1.9,0.2c28.4,2.4,57.2,7.7,85.6,15.8l2,0.6L412.2,288.5z M410.8,226.8
	c-28.5,8.8-57.4,14.1-85.7,15.7l-1.9,0.1l-0.4-1.8c-1.7-7.2-4.5-14.2-8.4-20.6l-1-1.6l1.4-1.2c22-18.6,46.1-35.3,71.6-49.5l1.8-1
	l1.1,1.7c11.2,17.1,19,35.8,23,55.7l0.4,2L410.8,226.8z"/>
</svg>
