<?xml version="1.0" encoding="utf-8"?>
<!-- Generator: Adobe Illustrator 25.0.0, SVG Export Plug-In . SVG Version: 6.00 Build 0)  -->
<svg version="1.1" xmlns="http://www.w3.org/2000/svg" xmlns:xlink="http://www.w3.org/1999/xlink" x="0px" y="0px"
	 viewBox="0 0 512 512" style="enable-background:new 0 0 512 512;" xml:space="preserve">
<style type="text/css">
	.st0{fill:#685F43;}
</style>
<g>
	<path class="st0" d="M433.1,240c-1.1-12.8-3.6-25.2-7.3-37l69-39.5l-2-4.7l-0.6-1.6l-2-4.7l-76.7,20.9c-5.9-11.2-12.9-21.7-21-31.3
		l48.7-62.9l-3.6-3.6l-1.2-1.2l-3.6-3.6l-62.9,48.7c-9.6-8-20.1-15.1-31.3-21l20.9-76.7l-4.7-2l-1.6-0.6l-4.7-2l-39.5,69
		c-11.8-3.7-24.2-6.2-37-7.3L262,0h-5.1h-1.7H250l-10,78.9c-12.8,1.1-25.2,3.6-37,7.3l-39.5-69l-4.7,2l-1.6,0.6l-4.7,2l20.9,76.7
		c-11.2,5.9-21.7,12.9-31.3,21L79.2,70.8l-3.6,3.6l-1.2,1.2l-3.6,3.6l48.7,62.9c-8,9.6-15.1,20.1-21,31.3l-76.7-20.9l-2,4.7
		l-0.6,1.6l-2,4.7l69,39.5c-3.7,11.8-6.2,24.2-7.3,37L0,250v5.1v1.7v5.1l78.9,10c1.1,12.8,3.6,25.2,7.3,37l-69,39.5l2,4.7l0.6,1.6
		l2,4.7l76.7-20.9c5.9,11.2,12.9,21.7,21,31.3l-48.7,62.9l3.6,3.6l1.2,1.2l3.6,3.6l62.9-48.7c9.6,8,20.1,15.1,31.3,21l-20.9,76.7
		l4.7,2l1.6,0.6l4.7,2l39.5-69c11.8,3.7,24.2,6.2,37,7.3l10,78.9h5.1h1.7h5.1l10-78.9c12.8-1.1,25.2-3.6,37-7.3l39.5,69l4.7-2
		l1.6-0.6l4.7-2l-20.9-76.7c11.2-5.9,21.7-12.9,31.3-21l62.9,48.7l3.6-3.6l1.2-1.2l3.6-3.6l-48.7-62.9c8-9.6,15.1-20.1,21-31.3
		l76.7,20.9l2-4.7l0.6-1.6l2-4.7l-69-39.5c3.7-11.8,6.2-24.2,7.3-37l78.9-10v-5.1v-1.7V250L433.1,240z M304.9,162.3
		c12.4-12.4,32.4-12.4,44.8,0c12.4,12.4,12.4,32.4,0,44.8c-12.4,12.4-32.4,12.4-44.8,0C292.6,194.7,292.6,174.7,304.9,162.3z
		 M312.6,256c0,31.2-25.3,56.6-56.6,56.6c-31.2,0-56.6-25.3-56.6-56.6c0-31.2,25.3-56.6,56.6-56.6
		C287.2,199.4,312.6,224.8,312.6,256z M256,123.5c17.5,0,31.7,14.2,31.7,31.7s-14.2,31.7-31.7,31.7c-17.5,0-31.7-14.2-31.7-31.7
		S238.5,123.5,256,123.5z M162.3,162.3c12.4-12.4,32.4-12.4,44.8,0c12.4,12.4,12.4,32.4,0,44.8c-12.4,12.4-32.4,12.4-44.8,0
		C149.9,194.7,149.9,174.7,162.3,162.3z M123.5,256c0-17.5,14.2-31.7,31.7-31.7c17.5,0,31.7,14.2,31.7,31.7
		c0,17.5-14.2,31.7-31.7,31.7C137.6,287.7,123.5,273.5,123.5,256z M207.1,349.7c-12.4,12.4-32.4,12.4-44.8,0
		c-12.4-12.4-12.4-32.4,0-44.8c12.4-12.4,32.4-12.4,44.8,0C219.4,317.3,219.4,337.3,207.1,349.7z M256,388.5
		c-17.5,0-31.7-14.2-31.7-31.7c0-17.5,14.2-31.7,31.7-31.7c17.5,0,31.7,14.2,31.7,31.7C287.7,374.4,273.5,388.5,256,388.5z
		 M349.7,349.7c-12.4,12.4-32.4,12.4-44.8,0c-12.4-12.4-12.4-32.4,0-44.8c12.4-12.4,32.4-12.4,44.8,0
		C362.1,317.3,362.1,337.3,349.7,349.7z M356.9,287.7c-17.5,0-31.7-14.2-31.7-31.7c0-17.5,14.2-31.7,31.7-31.7
		c17.5,0,31.7,14.2,31.7,31.7C388.5,273.5,374.4,287.7,356.9,287.7z"/>
</g>
</svg>
