<?xml version="1.0" encoding="utf-8"?>
<!-- Generator: Adobe Illustrator 25.0.0, SVG Export Plug-In . SVG Version: 6.00 Build 0)  -->
<svg version="1.1" xmlns="http://www.w3.org/2000/svg" xmlns:xlink="http://www.w3.org/1999/xlink" x="0px" y="0px"
	 viewBox="0 0 512 512" style="enable-background:new 0 0 512 512;" xml:space="preserve">
<style type="text/css">
	.st0{fill:#685F43;}
</style>
<g>
<path class="st0" d="M490.1,247.3c-0.2-4.7-0.5-9.5-1-14.2c-0.5-4.8-1.1-9.5-1.8-14.1l20.9-7l-1-5l-0.3-1.7l-1-5l-22,1.5
	c-2.2-9.3-5-18.4-8.3-27.3l19.1-10.9l-2-4.7l-0.6-1.6l-2-4.7l-21.3,5.8c-0.3-0.7-0.7-1.5-1-2.2c-3.7-7.9-7.9-15.6-12.4-22.9
	l16.6-14.5l-2.8-4.3l-0.9-1.4l-2.8-4.3l-19.7,9.8c-5.6-7.7-11.6-15.1-18.1-22l13.5-17.4l-3.6-3.6l-1.2-1.2l-3.6-3.6l-17.5,13.5
	c-2.7-2.5-5.4-4.9-8.2-7.2c0,0,0,0,0,0c-0.6-0.5-1.1-0.9-1.7-1.4c-0.3-0.2-0.6-0.5-0.9-0.7c-0.3-0.2-0.6-0.5-0.9-0.7
	c-0.6-0.5-1.1-0.9-1.7-1.4c0,0,0,0,0,0c-2.8-2.3-5.7-4.5-8.7-6.6l9.9-19.8l-4.3-2.8l-1.4-0.9l-4.3-2.8l-14.5,16.7
	c-8.1-5-16.4-9.5-25.1-13.5l5.8-21.3l-4.7-2l-1.6-0.6l-4.7-2l-10.9,19.1c-8.1-3-16.4-5.6-24.9-7.7c-0.8-0.2-1.6-0.4-2.4-0.6l1.5-22
	l-5-1l-1.7-0.3l-5-1l-7,20.9c-9.3-1.5-18.8-2.4-28.4-2.8L262,0h-5.1h-1.7H250l-2.8,21.9c-4.7,0.2-9.5,0.5-14.2,1
	c-4.8,0.5-9.5,1.1-14.1,1.8l-7-20.9l-5,1l-1.7,0.3l-5,1l1.5,22c-9.3,2.2-18.4,5-27.3,8.3l-10.9-19.1l-4.7,2l-1.6,0.6l-4.7,2
	l5.8,21.3c-0.7,0.3-1.5,0.7-2.2,1c-7.9,3.7-15.6,7.9-22.9,12.4l-14.5-16.6l-4.3,2.8l-1.4,0.9l-4.3,2.8l9.8,19.7
	c-7.7,5.6-15.1,11.6-22,18.1L79.2,70.8l-3.6,3.6l-1.2,1.2l-3.6,3.6l13.5,17.5c-2.5,2.7-4.9,5.4-7.2,8.2c0,0,0,0,0,0
	c-0.5,0.6-0.9,1.1-1.4,1.7c-0.2,0.3-0.5,0.6-0.7,0.9c-0.2,0.3-0.5,0.6-0.7,0.9c-0.5,0.6-0.9,1.1-1.4,1.7c0,0,0,0,0,0
	c-2.3,2.8-4.5,5.7-6.6,8.7l-19.8-9.9l-2.8,4.3l-0.9,1.4l-2.8,4.3l16.7,14.5c-5,8.1-9.5,16.4-13.5,25.1l-21.3-5.8l-2,4.7l-0.6,1.6
	l-2,4.7l19.1,10.9c-3,8.1-5.6,16.4-7.7,24.9c-0.2,0.8-0.4,1.6-0.6,2.4l-22-1.5l-1,5l-0.3,1.7l-1,5l20.9,7
	c-1.5,9.3-2.4,18.8-2.8,28.4L0,250v5.1v1.7v5.1l21.9,2.8c0.2,4.7,0.5,9.5,1,14.2c0.5,4.8,1.1,9.5,1.8,14.1l-20.9,7l1,5l0.3,1.7l1,5
	l22-1.5c2.2,9.3,5,18.4,8.3,27.3l-19.1,10.9l2,4.7l0.6,1.6l2,4.7l21.3-5.8c0.3,0.7,0.7,1.5,1,2.2c3.7,7.9,7.9,15.6,12.4,22.9
	l-16.6,14.5l2.8,4.3l0.9,1.4l2.8,4.3l19.7-9.8c5.6,7.7,11.6,15.1,18.1,22l-13.5,17.4l3.6,3.6l1.2,1.2l3.6,3.6l17.5-13.5
	c2.7,2.5,5.4,4.9,8.2,7.2c0,0,0,0,0,0c0.6,0.5,1.1,0.9,1.7,1.4c0.3,0.2,0.6,0.5,0.9,0.7c0.3,0.2,0.6,0.5,0.9,0.7
	c0.6,0.5,1.1,0.9,1.7,1.4c0,0,0,0,0,0c2.8,2.3,5.7,4.5,8.7,6.6l-9.9,19.8l4.3,2.8l1.4,0.9l4.3,2.8l14.5-16.7
	c8.1,5,16.4,9.5,25.1,13.5l-5.8,21.3l4.7,2l1.6,0.6l4.7,2l10.9-19.1c8.1,3,16.4,5.6,24.9,7.7c0.8,0.2,1.6,0.4,2.4,0.6l-1.5,22l5,1
	l1.7,0.3l5,1l7-20.9c9.3,1.5,18.8,2.4,28.4,2.8L250,512h5.1h1.7h5.1l2.8-21.9c4.7-0.2,9.5-0.5,14.2-1c4.8-0.5,9.5-1.1,14.1-1.8
	l7,20.9l5-1l1.7-0.3l5-1l-1.5-22c9.3-2.2,18.4-5,27.3-8.3l10.9,19.1l4.7-2l1.6-0.6l4.7-2l-5.8-21.3c0.7-0.3,1.5-0.7,2.2-1
	c7.9-3.7,15.6-7.9,22.9-12.4l14.5,16.6l4.3-2.8l1.4-0.9l4.3-2.8l-9.8-19.7c7.7-5.6,15.1-11.6,22-18.1l17.4,13.5l3.6-3.6l1.2-1.2
	l3.6-3.6l-13.5-17.5c2.5-2.7,4.9-5.4,7.2-8.2c0,0,0,0,0,0c0.5-0.6,0.9-1.1,1.4-1.7c0.2-0.3,0.5-0.6,0.7-0.9c0.2-0.3,0.5-0.6,0.7-0.9
	c0.5-0.6,0.9-1.1,1.4-1.7c0,0,0,0,0,0c2.3-2.8,4.5-5.7,6.6-8.7l19.8,9.9l2.8-4.3l0.9-1.4l2.8-4.3l-16.7-14.5
	c5-8.1,9.5-16.4,13.5-25.1l21.3,5.8l2-4.7l0.6-1.6l2-4.7l-19.1-10.9c3-8.1,5.6-16.4,7.7-24.9c0.2-0.8,0.4-1.6,0.6-2.4l22,1.5l1-5
	l0.3-1.7l1-5l-20.9-7c1.5-9.3,2.4-18.8,2.8-28.4L512,262v-5.1v-1.7V250L490.1,247.3z M256,464.1c-114.9,0-208.1-93.2-208.1-208.1
	c0-114.9,93.2-208.1,208.1-208.1c114.9,0,208.1,93.2,208.1,208.1C464.1,370.9,370.9,464.1,256,464.1z"/>
</g>
</svg>
