<?xml version="1.0" encoding="utf-8"?>
<!-- Generator: Adobe Illustrator 25.0.0, SVG Export Plug-In . SVG Version: 6.00 Build 0)  -->
<svg version="1.1" id="Layer_7" xmlns="http://www.w3.org/2000/svg" xmlns:xlink="http://www.w3.org/1999/xlink" x="0px" y="0px"
	 viewBox="0 0 512 512" style="enable-background:new 0 0 512 512;" xml:space="preserve">
<style type="text/css">
	.st0{fill:#685F43;}
	.st1{fill:#958B68;}
</style>
<path class="st0" d="M505.7,295.6c-1.1-0.1-2.1-0.2-3.1-0.3c-7.1-1.2-13.7-4-19.7-7.8c-6.1-3.9-11.3-8.7-16.6-14.2l-1.4-0.1
	c0.1-0.8,0.1-1.7,0.1-2.5c0.4-8.8,0.7-14.6,0.7-14.6s-0.3-5.9-0.7-14.6c0-0.8-0.1-1.7-0.1-2.5l0.5-0.1c5.5-5.7,10.7-10.8,16.9-14.8
	c6.1-4,12.9-7,20.2-8.2c1-0.2,2-0.3,3.1-0.4c1.7-0.1,2.4-5.6,1-12.3l-2.2-8.9c-1.7-6.6-4.4-11.4-6-10.7c-0.9,0.4-1.9,0.7-2.9,1
	c-13.6,4-28.5,1.4-42.4-4.2l-1.4,0.6c-0.3-0.8-0.6-1.6-0.9-2.4c-1.4-4.2-3.1-7.4-4.2-9.8c-1.1-2.3-1.8-3.6-1.8-3.6s-0.7-1.3-1.8-3.6
	c-1.1-2.3-2.7-5.7-5-9.4c-0.4-0.7-0.9-1.4-1.3-2.2l0.5-0.3c2.2-7.4,5-14.5,8.9-20.9c3.8-6.3,8.4-11.8,14.5-16.1
	c0.8-0.6,1.7-1.1,2.6-1.7c1.5-0.8-0.5-5.9-4.6-11.4c0,0-1.4-1.8-2.8-3.6c-1.4-1.8-2.9-3.6-2.9-3.6c-4.5-5.1-9.1-8.1-10.2-6.8
	c-0.7,0.7-1.4,1.4-2.2,2.1c-5.3,4.9-11.6,8.2-18.3,10.5c-3.4,1.1-6.8,2-10.4,2.6c-3.6,0.7-7.3,1.3-11.1,1.5l-1,1
	c-0.6-0.5-1.3-1.2-1.9-1.7c-3.3-2.9-6-5.3-7.9-7.1c-2-1.6-3.2-2.5-3.2-2.5s-4.7-3.5-11.8-8.8c-0.7-0.4-1.4-0.9-2-1.4l0.3-0.5
	c-2.6-14.9-2.2-30.4,5-43.3c0.5-0.9,1-1.8,1.6-2.6c0.5-0.7-0.2-2-1.8-3.6c-1.6-1.5-4.2-3.2-7.2-4.6l-8.3-4c-6.1-3-11.7-3.5-12.1-1.9
	c-0.3,1-0.7,2-1,3c-5.4,13.2-16.7,23.2-29.6,30.4l-0.4,1.4c-0.8-0.3-1.6-0.5-2.4-0.8c-8.6-2.3-14.2-3.7-14.2-3.7s-1.4-0.4-3.9-1
	c-2.5-0.5-6.2-1-10.5-1.7c-0.8-0.1-1.7-0.2-2.5-0.4l0.1-0.6c-8.8-12.9-15.1-26.4-14.2-41.2c0.1-1,0.2-2.1,0.3-3.1
	C272,2,266.8,0.4,260,0.1c0,0-2.3-0.1-4.5-0.1c-2.3,0.1-4.6,0.2-4.6,0.2c-6.7,0.2-11.9,1.9-11.7,3.6c0.1,1,0.2,2,0.3,3.1
	c0.9,14.5-5,27.6-13.4,40.3l0.2,1.4c-0.8,0.2-1.7,0.3-2.5,0.4c-4.4,0.7-8,1.2-10.6,1.7c-2.5,0.6-3.9,1-3.9,1s-5.7,1.4-14.2,3.7
	c-0.7,0.2-1.6,0.5-2.4,0.8l-0.2-0.6c-13.3-7.2-25.2-17.3-30.8-30.9c-0.4-1-0.7-1.9-1.1-2.9c-0.3-0.8-1.8-1.1-4-0.8
	c-2.1,0.4-5.1,1.3-8.2,2.8l-8.2,4c-6.2,2.9-10,6.9-9.1,8.3c0.6,0.8,1.1,1.7,1.7,2.6c7,12.5,7.8,27.6,5.4,42.1l0.8,1.2
	c-0.7,0.5-1.4,1-2.1,1.4c-7.1,5.3-11.8,8.8-11.8,8.8s-1.2,0.9-3.2,2.5c-1.9,1.8-4.6,4.2-7.9,7.1c-0.6,0.6-1.2,1.1-1.9,1.7l-0.4-0.4
	c-7.8-0.6-15.2-1.7-22.2-3.9c-7-2.3-13.5-5.7-18.9-10.7c-0.8-0.7-1.5-1.4-2.2-2.1c-1.1-1.3-5.7,1.7-10.2,6.9l-5.6,7.2
	c-4.1,5.5-6.1,10.5-4.6,11.4c0.9,0.6,1.8,1.1,2.6,1.7c5.9,4.1,10.5,9.4,14.3,15.6c3.8,6.1,6.7,13,8.9,20.2l1.3,0.7
	c-0.4,0.7-0.9,1.5-1.3,2.2c-2.3,3.8-3.9,7.1-5,9.4c-1.1,2.3-1.8,3.6-1.8,3.6s-0.6,1.3-1.7,3.6c-1.1,2.3-2.8,5.6-4.3,9.8
	c-0.3,0.8-0.5,1.6-0.9,2.4l-0.5-0.2c-7.1,3-14.5,5.1-21.8,6.1c-7.4,1-14.6,0.8-21.6-1.3c-1-0.3-2-0.7-3-1.1c-1.6-0.6-4.3,4.1-6,10.8
	l-2.2,8.9c-1.2,6.7-0.6,12.2,1.1,12.3c1,0.1,2,0.2,3.1,0.4c7.1,1.1,13.6,3.9,19.6,7.7c6.1,3.9,11.3,8.7,16.6,14.2l1.4,0.1
	c-0.1,0.9-0.1,1.7-0.1,2.5c-0.4,8.8-0.7,14.6-0.7,14.6s0.3,5.9,0.7,14.6c0.1,0.8,0.1,1.6,0.1,2.5l-0.5,0.1
	c-5.5,5.7-10.7,10.8-16.9,14.9c-6.1,4-12.9,7-20.1,8.2c-1,0.2-2,0.3-3,0.3c-1.7,0.2-2.4,5.6-1,12.3l2.2,8.9c1.7,6.6,4.4,11.3,6,10.7
	c1-0.4,1.9-0.7,2.9-1c13.6-4,28.5-1.4,42.4,4.1l1.4-0.5c0.3,0.8,0.6,1.6,0.9,2.4c1.4,4.2,3.1,7.5,4.3,9.8c1.1,2.3,1.7,3.6,1.7,3.6
	s0.7,1.3,1.8,3.6c1.1,2.3,2.7,5.6,5,9.4c0.4,0.7,0.9,1.4,1.3,2.2l-0.5,0.3c-2.1,7.4-5,14.5-8.9,20.9c-3.8,6.3-8.4,11.9-14.5,16.1
	c-0.8,0.5-1.7,1.2-2.6,1.7c-1.5,0.9,0.5,6,4.6,11.4c0,0,1.4,1.8,2.8,3.6c1.4,1.8,2.8,3.5,2.8,3.5c4.5,5.1,9.1,8.1,10.2,6.8
	c0.7-0.8,1.5-1.5,2.2-2.2c5.4-4.8,11.6-8.2,18.3-10.5c3.4-1.2,6.9-2,10.4-2.6c3.6-0.7,7.3-1.2,11.1-1.5l1-1c0.7,0.6,1.3,1.1,1.9,1.7
	c3.2,3,6,5.4,7.9,7.1c2,1.7,3.2,2.5,3.2,2.5s4.7,3.5,11.8,8.8c0.7,0.5,1.4,0.9,2.1,1.4l-0.4,0.5c2.7,14.9,2.1,30.5-5,43.3
	c-0.5,0.9-1,1.8-1.6,2.7c-0.5,0.7,0.2,2,1.8,3.6c1.6,1.5,4.2,3.1,7.2,4.6l8.3,4c6.1,3,11.7,3.6,12.1,1.9c0.3-1,0.7-2,1.1-2.9
	c5.4-13.3,16.7-23.2,29.6-30.4l0.5-1.5c0.8,0.3,1.7,0.6,2.4,0.8c8.6,2.2,14.2,3.7,14.2,3.7s1.4,0.3,3.9,0.9
	c2.5,0.5,6.2,1.1,10.6,1.7c0.8,0.1,1.6,0.3,2.5,0.4l-0.1,0.6c8.8,12.9,15.1,26.3,14.3,41.2c-0.1,1-0.2,2.1-0.3,3.1
	c-0.3,1.7,4.9,3.4,11.7,3.7c0,0,2.3,0.1,4.5,0.1c2.3-0.1,4.6-0.1,4.6-0.1c6.8-0.3,11.9-2,11.7-3.7c-0.2-1-0.3-2.1-0.3-3.1
	c-0.9-14.5,5-27.7,13.4-40.4l-0.2-1.4c0.8-0.1,1.6-0.3,2.5-0.4c4.4-0.7,8-1.2,10.5-1.7c2.5-0.6,3.9-0.9,3.9-0.9s5.7-1.5,14.2-3.7
	c0.8-0.2,1.6-0.6,2.4-0.8l0.2,0.7c13.4,7.2,25.2,17.2,30.8,30.9c0.4,1,0.8,1.9,1.1,2.9c0.2,0.8,1.7,1.1,3.9,0.8
	c2.2-0.4,5.1-1.3,8.2-2.8l8.3-4c6.2-2.9,10-6.9,9-8.3c-0.5-0.9-1.1-1.8-1.6-2.7c-7-12.5-7.7-27.6-5.4-42.1l-0.8-1.3
	c0.7-0.5,1.4-0.9,2-1.4c7.1-5.2,11.8-8.8,11.8-8.8s1.2-0.8,3.2-2.5c1.9-1.7,4.6-4.1,7.9-7.1c0.6-0.5,1.3-1.1,1.9-1.7l0.4,0.4
	c7.8,0.6,15.2,1.7,22.2,4c7,2.3,13.5,5.6,18.9,10.6c0.8,0.7,1.5,1.4,2.2,2.2c1.2,1.3,5.7-1.7,10.2-6.8l5.6-7.2
	c4.2-5.4,6.1-10.5,4.6-11.4c-0.9-0.5-1.8-1-2.7-1.7c-5.9-4.1-10.4-9.4-14.3-15.6c-3.8-6.1-6.7-13-8.9-20.1l-1.3-0.7
	c0.4-0.7,0.9-1.5,1.3-2.2c2.4-3.8,3.9-7.1,5-9.4c1.1-2.3,1.8-3.6,1.8-3.6s0.7-1.3,1.8-3.6c1-2.4,2.8-5.6,4.2-9.8
	c0.3-0.8,0.6-1.5,0.9-2.4l0.5,0.2c7.1-2.9,14.5-5.1,21.9-6.1c7.3-0.9,14.5-0.8,21.6,1.3c1,0.3,2,0.6,2.9,1c1.6,0.6,4.4-4.1,6-10.8
	l2.1-8.9C508,301.2,507.3,295.7,505.7,295.6z M133.4,289.9c-19.7,0-35.8-16-35.8-35.8c0-19.7,16.1-35.7,35.8-35.7
	c19.7,0,35.8,16,35.8,35.7C169.2,273.9,153.1,289.9,133.4,289.9z M256,96.5c19.7,0,35.8,16.1,35.8,35.8c0,19.7-16.1,35.8-35.8,35.8
	c-19.7,0-35.8-16.1-35.8-35.8C220.2,112.6,236.3,96.5,256,96.5z M255.3,412.5c-19.8,0-35.8-16.1-35.8-35.8c0-19.7,16-35.8,35.8-35.8
	c19.7,0,35.7,16,35.7,35.8C291,396.4,275,412.5,255.3,412.5z M305.7,261.3c-0.2,0.6-0.3,1.2-0.4,1.8c-0.1,0.7-0.2,1.3-0.2,2l-0.1,1
	l-0.3,1c-0.4,1.3-0.7,2.6-1,3.9c-0.6,1.1-0.9,2.3-1.2,3.3c-0.2,1-0.8,1.8-1,2.3c-0.3,0.5-0.4,0.8-0.4,0.8s-0.1,0.3-0.4,0.9
	c-0.2,0.6-0.4,1.4-1.1,2.2c-0.6,0.9-1.2,1.9-1.8,3.1c-0.8,1-1.8,2.1-2.5,3.3c-0.7,1.3-2,2-2.8,3.1c-0.8,1.1-1.8,1.8-2.6,2.5
	c-0.8,0.7-1.4,1.3-1.9,1.8c-0.4,0.4-0.8,0.6-0.8,0.6s-1.2,0.7-2.8,2.1c-0.8,0.7-2,1-3.1,1.8c-0.5,0.3-1,0.8-1.7,1.1
	c-0.6,0.2-1.3,0.5-1.9,0.8c-0.7,0.3-1.2,0.6-1.8,1c-0.6,0.3-1.3,0.4-1.9,0.6c-1.2,0.4-2.3,1-3.3,1.3c-2,0.3-3.4,0.8-3.4,0.8
	s-0.3,0.1-0.9,0.3c-0.6,0.1-1.5,0.1-2.5,0.3c-1,0.1-2.2,0.7-3.6,0.5c-1.3,0-2.8,0.1-4.2,0.3c-1.4-0.2-2.9-0.3-4.2-0.3
	c-1.4,0.2-2.5-0.4-3.6-0.5c-1-0.2-1.9-0.2-2.5-0.3c-0.6-0.2-0.9-0.3-0.9-0.3s-1.3-0.5-3.3-0.8c-1-0.3-2.1-0.9-3.3-1.3
	c-0.6-0.2-1.3-0.3-1.9-0.6c-0.6-0.4-1.2-0.7-1.9-1c-0.6-0.3-1.3-0.6-1.9-0.8c-0.7-0.3-1.2-0.8-1.7-1.1c-1-0.8-2.3-1.2-3.1-1.8
	c-1.6-1.4-2.8-2.1-2.8-2.1s-0.3-0.2-0.8-0.6c-0.4-0.4-1-1.1-1.8-1.8c-0.8-0.7-1.9-1.4-2.6-2.5c-0.8-1.1-2-1.9-2.8-3.1
	c-0.8-1.2-1.7-2.3-2.5-3.3c-0.5-1.2-1.2-2.3-1.8-3.1c-0.7-0.8-0.9-1.7-1.2-2.2c-0.2-0.5-0.4-0.9-0.4-0.9s-0.2-0.3-0.4-0.8
	c-0.3-0.6-0.8-1.3-1-2.3c-0.3-1-0.7-2.1-1.3-3.3c-0.3-1.3-0.5-2.7-1-3.9l-0.3-1l-0.1-1c-0.1-0.7-0.2-1.4-0.3-2
	c-0.1-0.6-0.3-1.2-0.4-1.8c0.1-0.6,0.1-1.2,0.1-1.7c-0.1-2.1-0.3-3.6-0.3-3.6s0.3-1.4,0.3-3.6c0-0.5,0-1.1-0.1-1.8
	c0.2-0.5,0.3-1.2,0.4-1.8c0.1-0.7,0.2-1.3,0.3-2l0.1-1l0.3-1c0.4-1.3,0.7-2.7,1-3.9c0.6-1.2,0.9-2.3,1.3-3.3c0.2-1,0.7-1.8,1-2.3
	c0.3-0.6,0.4-0.9,0.4-0.9s0.2-0.3,0.4-0.9c0.2-0.5,0.5-1.4,1.2-2.2c0.6-0.9,1.3-1.9,1.8-3.1c0.8-1,1.8-2.1,2.5-3.3
	c0.7-1.2,2-2,2.8-3.1c0.7-1.1,1.8-1.9,2.6-2.5c0.8-0.7,1.4-1.3,1.8-1.8c0.4-0.4,0.8-0.5,0.8-0.5s1.2-0.7,2.8-2.1
	c0.8-0.7,2-1.1,3.1-1.9c0.6-0.3,1.1-0.8,1.7-1.1c0.6-0.2,1.3-0.5,1.9-0.8c0.7-0.3,1.3-0.6,1.9-0.9c0.5-0.4,1.3-0.4,1.9-0.7
	c1.2-0.3,2.3-1,3.3-1.3c2-0.3,3.3-0.8,3.3-0.8s0.3-0.1,0.9-0.3c0.6-0.1,1.5-0.1,2.5-0.3c1.1,0,2.2-0.7,3.6-0.5
	c1.3,0.1,2.8,0,4.2-0.3c1.4,0.2,2.9,0.3,4.2,0.3c1.4-0.2,2.5,0.5,3.6,0.5c1,0.2,1.9,0.2,2.5,0.3c0.6,0.2,0.9,0.3,0.9,0.3
	s1.3,0.4,3.4,0.8c1,0.3,2,0.9,3.3,1.3c0.6,0.3,1.3,0.3,1.9,0.7c0.6,0.3,1.1,0.7,1.8,0.9c0.6,0.3,1.3,0.6,1.9,0.8
	c0.7,0.3,1.2,0.8,1.7,1.1c1,0.8,2.3,1.2,3.1,1.9c1.6,1.4,2.8,2.1,2.8,2.1s0.3,0.2,0.8,0.5c0.4,0.5,1,1.1,1.9,1.8
	c0.8,0.7,1.8,1.4,2.6,2.5c0.8,1.1,2,1.9,2.8,3.1c0.7,1.2,1.6,2.3,2.5,3.3c0.6,1.2,1.2,2.2,1.8,3.1c0.7,0.8,0.9,1.7,1.1,2.2
	c0.3,0.5,0.4,0.9,0.4,0.9s0.2,0.3,0.4,0.9c0.3,0.5,0.8,1.2,1,2.3c0.3,1,0.7,2.1,1.2,3.3c0.3,1.2,0.5,2.6,1,3.9l0.3,1l0.1,1
	c0,0.7,0.1,1.3,0.2,2c0.1,0.6,0.3,1.3,0.4,1.8c0,0.7,0,1.2,0,1.8c0,2.2,0.3,3.6,0.3,3.6s-0.3,1.4-0.3,3.6
	C305.7,260.1,305.7,260.7,305.7,261.3z M377.8,290.6c-19.7,0-35.7-16.1-35.7-35.8c0-19.7,16-35.8,35.7-35.8
	c19.8,0,35.8,16.1,35.8,35.8C413.6,274.6,397.6,290.6,377.8,290.6z"/>
<path class="st1" d="M256,85.4c-94.2,0-170.6,76.3-170.6,170.6S161.8,426.6,256,426.6c94.2,0,170.6-76.4,170.6-170.6
	S350.2,85.4,256,85.4z M256,96.2c19.7,0,35.8,16.1,35.8,35.8c0,19.7-16.1,35.8-35.8,35.8c-19.7,0-35.8-16.1-35.8-35.8
	C220.2,112.3,236.3,96.2,256,96.2z M133.4,289.6c-19.7,0-35.8-16-35.8-35.8c0-19.7,16.1-35.7,35.8-35.7c19.7,0,35.8,16,35.8,35.7
	C169.2,273.6,153.2,289.6,133.4,289.6z M255.3,412.1c-19.8,0-35.8-16.1-35.8-35.8c0-19.7,16-35.8,35.8-35.8
	c19.7,0,35.7,16,35.7,35.8C291,396.1,275,412.1,255.3,412.1z M305.7,261c-0.2,0.6-0.3,1.2-0.4,1.8c-0.1,0.7-0.2,1.3-0.2,2l-0.1,1
	l-0.3,1c-0.4,1.3-0.7,2.6-1,3.9c-0.6,1.1-0.9,2.3-1.2,3.3c-0.2,1-0.8,1.8-1,2.3c-0.3,0.5-0.4,0.8-0.4,0.8s-0.1,0.3-0.4,0.9
	c-0.2,0.6-0.4,1.4-1.1,2.2c-0.6,0.9-1.2,1.9-1.8,3.1c-0.8,1-1.8,2.1-2.5,3.3c-0.7,1.3-2,2-2.8,3.1c-0.8,1.1-1.8,1.8-2.6,2.5
	c-0.8,0.7-1.4,1.3-1.9,1.8c-0.4,0.4-0.8,0.6-0.8,0.6s-1.2,0.7-2.8,2.1c-0.8,0.7-2,1-3.1,1.8c-0.5,0.3-1,0.8-1.7,1.1
	c-0.6,0.2-1.3,0.5-1.9,0.8c-0.7,0.3-1.2,0.6-1.8,1c-0.6,0.3-1.3,0.4-1.9,0.6c-1.2,0.4-2.3,1-3.3,1.3c-2,0.3-3.4,0.8-3.4,0.8
	s-0.3,0.1-0.9,0.3c-0.6,0.1-1.5,0.1-2.5,0.3c-1,0.1-2.2,0.7-3.6,0.5c-1.3,0-2.8,0.1-4.2,0.3c-1.4-0.2-2.9-0.3-4.2-0.3
	c-1.4,0.2-2.5-0.4-3.6-0.5c-1-0.2-1.9-0.2-2.5-0.3c-0.6-0.2-0.9-0.3-0.9-0.3s-1.3-0.5-3.3-0.8c-1-0.3-2.1-0.9-3.3-1.3
	c-0.6-0.2-1.3-0.3-1.9-0.6c-0.6-0.4-1.2-0.7-1.9-1c-0.6-0.3-1.3-0.6-1.9-0.8c-0.7-0.3-1.2-0.8-1.7-1.1c-1-0.8-2.3-1.2-3.1-1.8
	c-1.6-1.4-2.8-2.1-2.8-2.1s-0.3-0.2-0.8-0.6c-0.4-0.4-1-1.1-1.8-1.8c-0.8-0.7-1.9-1.4-2.6-2.5c-0.8-1.1-2-1.9-2.8-3.1
	c-0.8-1.2-1.7-2.3-2.5-3.3c-0.5-1.2-1.2-2.3-1.8-3.1c-0.7-0.8-0.9-1.7-1.2-2.2c-0.2-0.5-0.4-0.9-0.4-0.9s-0.2-0.3-0.4-0.8
	c-0.3-0.6-0.8-1.3-1-2.3c-0.3-1-0.7-2.1-1.3-3.3c-0.3-1.3-0.5-2.7-1-3.9l-0.3-1l-0.1-1c-0.1-0.7-0.2-1.4-0.3-2
	c-0.1-0.6-0.3-1.2-0.4-1.8c0.1-0.6,0.1-1.2,0.1-1.7c-0.1-2.1-0.3-3.6-0.3-3.6s0.3-1.4,0.3-3.6c0-0.5,0-1.1-0.1-1.8
	c0.2-0.5,0.3-1.2,0.4-1.8c0.1-0.7,0.2-1.3,0.3-2l0.1-1l0.3-1c0.4-1.3,0.7-2.7,1-3.9c0.6-1.2,0.9-2.3,1.3-3.3c0.2-1,0.7-1.8,1-2.3
	c0.3-0.6,0.4-0.9,0.4-0.9s0.2-0.3,0.4-0.9c0.2-0.5,0.5-1.4,1.2-2.2c0.6-0.9,1.3-1.9,1.8-3.1c0.8-1,1.8-2.1,2.5-3.3
	c0.7-1.2,2-2,2.8-3.1c0.7-1.1,1.8-1.9,2.6-2.5c0.8-0.7,1.4-1.3,1.8-1.8c0.4-0.4,0.8-0.5,0.8-0.5s1.2-0.7,2.8-2.1
	c0.8-0.7,2-1.1,3.1-1.9c0.6-0.3,1.1-0.8,1.7-1.1c0.6-0.2,1.3-0.5,1.9-0.8c0.7-0.3,1.3-0.6,1.9-0.9c0.5-0.4,1.3-0.4,1.9-0.7
	c1.2-0.3,2.3-1,3.3-1.3c2-0.3,3.3-0.8,3.3-0.8s0.3-0.1,0.9-0.3c0.6-0.1,1.5-0.1,2.5-0.3c1.1,0,2.2-0.7,3.6-0.5
	c1.3,0.1,2.8,0,4.2-0.3c1.4,0.2,2.9,0.3,4.2,0.3c1.4-0.2,2.5,0.5,3.6,0.5c1,0.2,1.9,0.2,2.5,0.3c0.6,0.2,0.9,0.3,0.9,0.3
	s1.3,0.4,3.4,0.8c1,0.3,2,0.9,3.3,1.3c0.6,0.3,1.3,0.3,1.9,0.7c0.6,0.3,1.1,0.7,1.8,0.9c0.6,0.3,1.3,0.6,1.9,0.8
	c0.7,0.3,1.2,0.8,1.7,1.1c1,0.8,2.3,1.2,3.1,1.9c1.6,1.4,2.8,2.1,2.8,2.1s0.3,0.2,0.8,0.5c0.4,0.5,1,1.1,1.9,1.8
	c0.8,0.7,1.8,1.4,2.6,2.5c0.8,1.1,2,1.9,2.8,3.1c0.7,1.2,1.6,2.3,2.5,3.3c0.6,1.2,1.2,2.2,1.8,3.1c0.7,0.8,0.9,1.7,1.1,2.2
	c0.3,0.5,0.4,0.9,0.4,0.9s0.2,0.3,0.4,0.9c0.3,0.5,0.8,1.2,1,2.3c0.3,1,0.7,2.1,1.2,3.3c0.3,1.2,0.5,2.6,1,3.9l0.3,1l0.1,1
	c0,0.7,0.1,1.3,0.2,2c0.1,0.6,0.3,1.3,0.4,1.8c0,0.7,0,1.2,0,1.8c0,2.2,0.3,3.6,0.3,3.6s-0.3,1.4-0.3,3.6
	C305.7,259.7,305.7,260.4,305.7,261z M377.8,290.3c-19.7,0-35.7-16.1-35.7-35.8c0-19.7,16-35.8,35.7-35.8
	c19.8,0,35.8,16.1,35.8,35.8C413.6,274.2,397.6,290.3,377.8,290.3z"/>
</svg>
