<?xml version="1.0" encoding="utf-8"?>
<!-- Generator: Adobe Illustrator 23.0.1, SVG Export Plug-In . SVG Version: 6.00 Build 0)  -->
<svg version="1.1" id="icon" xmlns="http://www.w3.org/2000/svg" xmlns:xlink="http://www.w3.org/1999/xlink" x="0px" y="0px"
	 viewBox="0 0 512 512" style="enable-background:new 0 0 512 512;" xml:space="preserve">
<style type="text/css">
	.st0{fill:#968C6A;}
</style>
<g transform="">
	<path class="st0" d="M372.9,191.2l-56.9,22c-11.8-16.6-30.3-28.1-51.4-30.7l-8.9-31.2l-8.6,31.2c-21.4,2.4-40.1,14-52,30.8
		l-56.8-22l48.9,36.4c-3.7,8.8-5.7,18.4-5.7,28.5c0,38.5,29.5,70.2,67,73.8l7.2,13.6l7.2-13.6c37.5-3.7,66.8-35.4,66.8-73.8
		c0-10.4-2.1-20.2-6-29.2L372.9,191.2z M255.6,316.3c-33.2,0-60.1-27-60.1-60.1s27-60.1,60.1-60.1c33.2,0,60.1,27,60.1,60.1
		S288.8,316.3,255.6,316.3z"/>
</g>
</svg>
