<svg id="icon" xmlns="http://www.w3.org/2000/svg" viewBox="0 0 512 512">
	<g transform-origin="center" transform="">
		<path d="M372.88,191.24l-56.85,21.97c-11.82-16.57-30.26-28.1-51.44-30.66l-8.9-31.22l-8.55,31.16 c-21.42,2.43-40.1,14.04-52,30.79l-56.82-22.04l48.85,36.39c-3.68,8.78-5.71,18.41-5.71,28.51c0,38.48,29.47,70.21,67.02,73.8 l7.21,13.62l7.22-13.64c37.47-3.68,66.84-35.37,66.84-73.78c0-10.35-2.13-20.21-5.98-29.16L372.88,191.24z M255.6,316.28 c-33.16,0-60.14-26.98-60.14-60.14c0-33.16,26.98-60.14,60.14-60.14c33.17,0,60.15,26.98,60.15,60.14 C315.75,289.3,288.77,316.28,255.6,316.28z"></path>
	</g>
</svg>