<?xml version="1.0" encoding="utf-8"?>
<!-- Generator: Adobe Illustrator 23.0.1, SVG Export Plug-In . SVG Version: 6.00 Build 0)  -->
<svg version="1.1" id="icon" xmlns="http://www.w3.org/2000/svg" xmlns:xlink="http://www.w3.org/1999/xlink" x="0px" y="0px"
	 viewBox="0 0 512 512" style="enable-background:new 0 0 512 512;" xml:space="preserve">
<style type="text/css">
	.st0{fill:#968C6A;}
</style>
<g transform="">
	<path class="st0" d="M329.4,263.5v0.6l30-8l-30-7.9v0.6c-0.8-7.7-2.7-15.1-5.7-21.9l47.6-35.3l-55.3,21.7
		c-11.9-16.8-30.6-28.4-52-30.8l-8.2-29.9l-7.9,29.8c-37.3,3.8-66.5,35.4-66.5,73.8c0,40.9,33.3,74.1,74.1,74.1
		c11.1,0,21.6-2.4,31-6.8l23.2,22.3l-9-30.9c6.4-4.9,11.9-10.8,16.4-17.5l54.1,21.3l-47-34.8C327,277.5,328.7,270.6,329.4,263.5z
		 M255.6,316.3c-33.2,0-60.1-27-60.1-60.1s27-60.1,60.1-60.1c33.2,0,60.1,27,60.1,60.1S288.8,316.3,255.6,316.3z"/>
</g>
</svg>
