<svg xmlns="http://www.w3.org/2000/svg" viewBox="0 0 512 512">
	<g transform-origin="center" transform="">
		<path d="M263.59,182.43l-7.99-30.35l-7.44,30.29c-34.63,3.47-62.32,30.87-66.22,65.38l-150.1,7.95 l149.99,7.94c0.76,7.51,2.65,14.69,5.49,21.37l-47.43,35.15l54.94-21.6c12.04,17.2,31.19,29.08,53.15,31.33l7.62,14.42l7.63-14.42 c37.32-3.83,66.52-35.45,66.52-73.75C329.75,217.96,300.74,186.43,263.59,182.43z M255.6,316.28c-33.16,0-60.14-26.98-60.14-60.14 c0-33.16,26.98-60.14,60.14-60.14c33.17,0,60.15,26.98,60.15,60.14C315.75,289.3,288.77,316.28,255.6,316.28z" fill="rgb(150, 140, 106)"></path>
	</g>
</svg>