<?xml version="1.0" encoding="utf-8"?>
<!-- Generator: Adobe Illustrator 23.0.1, SVG Export Plug-In . SVG Version: 6.00 Build 0)  -->
<svg version="1.1" id="icon" xmlns="http://www.w3.org/2000/svg" xmlns:xlink="http://www.w3.org/1999/xlink" x="0px" y="0px"
	 viewBox="0 0 512 512" style="enable-background:new 0 0 512 512;" xml:space="preserve">
<style type="text/css">
	.st0{fill:#968C6A;}
</style>
<g transform="">
	<path class="st0" d="M263.6,182.4l-8-30.4l-7.4,30.3c-34.6,3.5-62.3,30.9-66.2,65.4l-150.1,7.9l150,7.9c0.8,7.5,2.6,14.7,5.5,21.4
		l-47.4,35.1l54.9-21.6c12,17.2,31.2,29.1,53.1,31.3l7.6,14.4l7.6-14.4c37.3-3.8,66.5-35.5,66.5-73.8
		C329.8,218,300.7,186.4,263.6,182.4z M255.6,316.3c-33.2,0-60.1-27-60.1-60.1s27-60.1,60.1-60.1c33.2,0,60.1,27,60.1,60.1
		S288.8,316.3,255.6,316.3z"/>
</g>
</svg>
