<?xml version="1.0" encoding="utf-8"?>
<!-- Generator: Adobe Illustrator 23.0.1, SVG Export Plug-In . SVG Version: 6.00 Build 0)  -->
<svg version="1.1" id="icon" xmlns="http://www.w3.org/2000/svg" xmlns:xlink="http://www.w3.org/1999/xlink" x="0px" y="0px"
	 viewBox="0 0 512 512" style="enable-background:new 0 0 512 512;" xml:space="preserve">
<style type="text/css">
	.st0{fill:#968C6A;}
</style>
<g transform="">
	<path class="st0" d="M315.6,212.6c-4.5-6.2-10-11.7-16.1-16.2L389.3,25L285.9,188.5c-7.1-3.2-14.8-5.3-22.9-6.1L258.7,4h-6.5
		L248,182.4c-8,0.8-15.6,2.9-22.6,6.1L121.9,25l89.9,171.4c-6.1,4.5-11.6,10-16.1,16.1l-57.6-22.3l49.6,36.1
		c-4,9.1-6.3,19.2-6.3,29.8s2.2,20.7,6.3,29.8l-49.6,35.8l57.5-22.1c12,16.6,30.7,28,52.1,30.3l7.8,14.8l7.8-14.8
		c21.5-2.2,40.3-13.6,52.3-30.3l57,22.1l-49.1-35.9c4-9.1,6.2-19.1,6.2-29.7c0-10.5-2.2-20.5-6.2-29.6l49.1-36.3L315.6,212.6z
		 M255.6,316.3c-33.2,0-60.1-27-60.1-60.1s27-60.1,60.1-60.1c33.2,0,60.1,27,60.1,60.1S288.8,316.3,255.6,316.3z"/>
</g>
</svg>
