<?xml version="1.0" encoding="utf-8"?>
<!-- Generator: Adobe Illustrator 23.0.1, SVG Export Plug-In . SVG Version: 6.00 Build 0)  -->
<svg version="1.1" id="icon" xmlns="http://www.w3.org/2000/svg" xmlns:xlink="http://www.w3.org/1999/xlink" x="0px" y="0px"
	 viewBox="0 0 512 512" style="enable-background:new 0 0 512 512;" xml:space="preserve">
<style type="text/css">
	.st0{fill:#968C6A;}
</style>
<g transform="">
	<path class="st0" d="M329.4,263.6l150-7.9l-150.1-7.9c-3.9-34.1-30.9-61.3-65-65.2l-8.7-30.4l-7.9,30.3
		c-37.2,4-66.2,35.5-66.2,73.7c0,38.3,29.2,69.9,66.5,73.8l7.6,14.4l7.6-14.4c21.9-2.3,41.1-14.1,53.1-31.3l54.8,21.5l-47.3-35
		C326.7,278.4,328.6,271.2,329.4,263.6z M255.6,316.3c-33.2,0-60.1-27-60.1-60.1s27-60.1,60.1-60.1c33.2,0,60.1,27,60.1,60.1
		S288.8,316.3,255.6,316.3z"/>
</g>
</svg>
