<svg id="icon" xmlns="http://www.w3.org/2000/svg" viewBox="0 0 512 512">
	<g transform-origin="center" transform="">
		<path d="M300.17,196.93l16.21-42.22l-29.68,34.13c-7.2-3.34-15.02-5.56-23.24-6.43l-7.86-29.68 l-7.85,29.68c-8.22,0.87-16.04,3.09-23.24,6.43l-29.68-34.13l16.21,42.22c-17.95,13.54-29.58,35.04-29.58,59.21 c0,40.88,33.26,74.14,74.14,74.14c40.89,0,74.15-33.26,74.15-74.14C329.75,231.97,318.13,210.47,300.17,196.93z M255.6,316.28 c-33.16,0-60.14-26.98-60.14-60.14c0-33.16,26.98-60.14,60.14-60.14c33.17,0,60.15,26.98,60.15,60.14 C315.75,289.3,288.77,316.28,255.6,316.28z"></path>
	</g>
</svg>