<?xml version="1.0" encoding="utf-8"?>
<!-- Generator: Adobe Illustrator 23.0.1, SVG Export Plug-In . SVG Version: 6.00 Build 0)  -->
<svg version="1.1" id="icon" xmlns="http://www.w3.org/2000/svg" xmlns:xlink="http://www.w3.org/1999/xlink" x="0px" y="0px"
	 viewBox="0 0 512 512" style="enable-background:new 0 0 512 512;" xml:space="preserve">
<style type="text/css">
	.st0{fill:#968C6A;}
</style>
<g transform="">
	<path class="st0" d="M300.2,196.9l16.2-42.2l-29.7,34.1c-7.2-3.3-15-5.6-23.2-6.4l-7.9-29.7l-7.9,29.7c-8.2,0.9-16,3.1-23.2,6.4
		l-29.7-34.1l16.2,42.2c-17.9,13.5-29.6,35-29.6,59.2c0,40.9,33.3,74.1,74.1,74.1c40.9,0,74.1-33.3,74.1-74.1
		C329.8,232,318.1,210.5,300.2,196.9z M255.6,316.3c-33.2,0-60.1-27-60.1-60.1s27-60.1,60.1-60.1c33.2,0,60.1,27,60.1,60.1
		S288.8,316.3,255.6,316.3z"/>
</g>
</svg>
