<?xml version="1.0" encoding="utf-8"?>
<!-- Generator: Adobe Illustrator 23.0.1, SVG Export Plug-In . SVG Version: 6.00 Build 0)  -->
<svg version="1.1" id="icon" xmlns="http://www.w3.org/2000/svg" xmlns:xlink="http://www.w3.org/1999/xlink" x="0px" y="0px"
	 viewBox="0 0 512 512" style="enable-background:new 0 0 512 512;" xml:space="preserve">
<style type="text/css">
	.st0{fill:#FF0000;}
	.st1{fill:#460E0E;}
	.st2{opacity:0.5;fill:#FF0000;}
</style>
<path class="st0" d="M313.5,281.5l-29.7,25h-55.5l-29.7-25L256.1,160l0,0l0,0L313.5,281.5z"/>
<path class="st1" d="M241.1,172.9L189.9,279l-25.4,6.2L150,249l8.7-32.5L241.1,172.9z"/>
<path class="st1" d="M352.3,216.6L361,249l-14.6,36.2L321,279l-51.2-106.1L352.3,216.6z"/>
<path class="st1" d="M283.9,315.2l-27.7,12.5l-27.5-12.5H283.9z M318.5,286.5l-35,28.7l58.7-23.7L318.5,286.5z M170,291.5l58.7,23.7
	l-35-28.7L170,291.5z"/>
<path class="st2" d="M328.4,290L291,321.5h-69.9L183.7,290l72.4-153l0,0l0,0L328.4,290z"/>
</svg>
