<?xml version="1.0" encoding="utf-8"?>
<!-- Generator: Adobe Illustrator 23.0.1, SVG Export Plug-In . SVG Version: 6.00 Build 0)  -->
<svg version="1.1" id="icon" xmlns="http://www.w3.org/2000/svg" xmlns:xlink="http://www.w3.org/1999/xlink" x="0px" y="0px"
	 viewBox="0 0 512 512" style="enable-background:new 0 0 512 512;" xml:space="preserve">
<style type="text/css">
	.st0{fill:#968C6A;}
</style>
<g transform="">
	<path class="st0" d="M263.5,182.4l-7.9-29.7l-7.9,29.7c-21.7,2.3-40.6,13.9-52.6,30.8l-55.3-21.7l47.6,35.3
		c-2.9,6.8-4.9,14-5.7,21.6l-29.1,7.7l29.1,7.7c0.7,7,2.4,13.7,5,20l-46.9,34.8l54.1-21.3c4.6,6.8,10.2,12.8,16.7,17.8l-9,30.6
		l22.9-22.3c9.4,4.4,20,6.8,31.1,6.8c40.9,0,74.2-33.3,74.2-74.1C329.8,217.9,300.7,186.4,263.5,182.4z M255.6,316.3
		c-33.2,0-60.1-27-60.1-60.1s27-60.1,60.1-60.1c33.2,0,60.1,27,60.1,60.1S288.8,316.3,255.6,316.3z"/>
</g>
</svg>
