<?xml version="1.0" encoding="utf-8"?>
<!-- Generator: Adobe Illustrator 23.0.1, SVG Export Plug-In . SVG Version: 6.00 Build 0)  -->
<svg id="icon" version="1.1" xmlns="http://www.w3.org/2000/svg" xmlns:xlink="http://www.w3.org/1999/xlink" x="0px" y="0px"
	 viewBox="0 0 512 512" style="enable-background:new 0 0 512 512;" xml:space="preserve">
<style type="text/css">
	.st0{fill:#FF0000;}
</style>
<g transform="">
	<path class="st0" d="M425.5,1.1c-24.8,16.5-49.4,33.5-73.4,50.9C400.3,29.6,453.3,13.6,512,4.7c-50,28.6-98.1,59.5-145.3,91.6
		c39.8-19.3,83-34.5,130.2-44.3c-62.3,36.7-140.1,90.5-236.1,194.6S142.3,406.4,97.9,499c7.2-48,18-93.6,32.2-136.7l-49.7,70.2
		c0,0,27.9-77.8,46.8-109.2C83.5,383.2,43.4,445.8,6.8,510.9c20-95.8,54.1-181.8,105.9-255.1C75.3,293,39.2,332,4.7,372.6
		c35.7-81.9,93.9-175.2,168-238.1S343.4,18.1,425.5,1.1L425.5,1.1z"/>
</g>
</svg>
