<?xml version="1.0" encoding="utf-8"?>
<!-- Generator: Adobe Illustrator 23.0.1, SVG Export Plug-In . SVG Version: 6.00 Build 0)  -->
<svg version="1.1" id="icon" xmlns="http://www.w3.org/2000/svg" xmlns:xlink="http://www.w3.org/1999/xlink" x="0px" y="0px"
	 viewBox="0 0 512 512" style="enable-background:new 0 0 512 512;" xml:space="preserve">
	<style type="text/css">
		.st0{fill:#9B2020; stroke:transparent;}
		.st1{fill:#141414; stroke:transparent;}
		.st2{fill:#F03232; stroke:transparent;}
	</style>
	<path class="st0" d="M455.5,448.3c-0.7-0.3-75.3-32.2-117-43.8l-0.1,0c-38.6-12-117.3-25.7-118-25.9l-11.2-1.9l10.3-4.7
		c0.1,0,9-4.1,13.3-6.2c12.9-6.5,27.4-13.8,37.9-28.1c2.9-3.9,5.3-9,6.5-14.2c2.5-10.2-2.1-20-6.4-26.4
		c-7.3-10.9-16.7-17.6-25.8-24.1c-1.6-1.1-3.2-2.3-4.7-3.4c-39.2-28.6-169.7-53.1-171-53.4l-16.2-3l16-3.8
		c0.3-0.1,28.3-6.8,41.6-11.7c1.5-0.5,2.9-1.1,4.4-1.6c11.9-4.3,23.1-8.3,32.4-17.4c9.2-8.9,1.8-20.8-1.7-25.5
		c-15.9-20.7-94.9-88.2-95.7-88.9L36.3,52.4l17.2,5.8c1.2,0.4,123.3,41.5,192.2,41.5c18.8,0,56.6-4,57-4.1l19.5-2.1l-17.6,8.7
		c-0.6,0.3-56.1,27.9-64.7,48.7c-4.5,10.8-1.8,21.1,9.2,34.3c22.3,27.1,161.8,69.1,163.2,69.5l19,5.7l-19.8,1.2
		c-19.6,1.2-72.3,7.6-80.8,23.2c-10.3,18.9,18,47,31.7,60.5c1.6,1.5,3,2.9,4.1,4.1c38.7,39.6,92.2,92.5,92.8,93l13.1,13L455.5,448.3
		z"/>
	<path class="st1" d="M52.4,61.6c0,0,123,41.7,193.3,41.7c19.2,0,57.4-4.1,57.4-4.1s-57.2,28.3-66.4,50.5
		c-5.2,12.4-1.8,23.9,9.7,37.9c23.3,28.2,164.9,70.6,164.9,70.6s-72.4,4.3-83.7,25c-12.8,23.5,24.3,56.4,36.4,68.8
		c39.2,40.1,92.8,93.1,92.8,93.1s-75.1-32.2-117.4-43.9c-39.3-12.3-118.5-26-118.5-26s9-4.1,13.4-6.3c14.3-7.2,28.5-14.6,39.2-29.2
		c3.1-4.1,5.7-9.6,7.1-15.4c2.5-10.2-1-20.4-6.9-29.2c-8.9-13.4-20.9-20.7-31.4-28.4c-40.3-29.4-172.4-54-172.4-54s28.3-6.8,42-11.8
		c13.3-4.9,27-9,38.1-19.8c8-7.8,7-19.1-1.4-30.1C132.3,129.8,52.4,61.6,52.4,61.6 M20.2,43.3l27.7,23.6c0.8,0.7,79.5,68,95.2,88.3
		c3.7,4.9,9,14.1,2.1,20.8c-8.8,8.6-19.7,12.5-31.2,16.6c-1.5,0.5-3,1.1-4.4,1.6c-13.2,4.8-40.9,11.5-41.2,11.6l-32,7.7l32.3,6
		c1.3,0.2,131,24.6,169.5,52.8c1.6,1.1,3.2,2.3,4.8,3.4c8.9,6.3,18.1,12.8,24.9,23.2c3.9,5.9,8.1,14.7,5.9,23.7
		c-1.1,4.7-3.3,9.4-5.9,12.8l0,0l0,0c-10,13.6-23.6,20.5-36.7,27.1c-4.2,2.1-13.1,6.1-13.2,6.2l-20.6,9.4l22.3,3.9
		c0.8,0.1,79.2,13.8,117.6,25.8l0.1,0l0.1,0c41.4,11.5,115.8,43.3,116.6,43.6l34,14.6l-26.3-26c-0.5-0.5-54-53.4-92.7-93
		c-1.2-1.2-2.6-2.6-4.2-4.2c-7.1-7-17.8-17.6-25-28.7c-7.6-11.7-9.7-21-6-27.7c1.6-3,8.9-10.7,41.1-16.7c18.9-3.5,36.7-4.6,36.9-4.6
		l39.5-2.3l-37.9-11.4c-0.4-0.1-35.7-10.7-73.4-24.6c-65.1-24-83.2-37.7-88.1-43.7c-12.5-15.2-11.5-23.8-8.6-30.8
		c6-14.4,41.8-36.4,63-46.9L341.5,88l-39.1,4.2c-0.4,0-38.1,4.1-56.7,4.1c-68.4,0-189.8-40.9-191-41.3L20.2,43.3L20.2,43.3z"/>
	<path class="st2" d="M296.2,328.1c3.3-13.5,0.2-28-9.1-41.9c-9.4-14.1-21.5-25-37.1-33.6c-16.7-9.1-36.5-19.5-56.3-27.2
		c-18.3-7.1-37.2-12.9-56.4-17.1c8.2-3.7,16.4-8.4,23.9-15.7c13.7-13.3,13.8-33.4,0.2-51.3c-12.7-16.5-26.7-28.8-40.7-40
		c40.9,11.6,81.3,17.6,120.6,18c-7.3,5.7-13.8,13.8-18.7,22.9c-9.9,18.4-5.1,39.8,12.7,57c13.8,13.3,28.8,21.4,41.7,27.6
		c16.7,8,31.6,14.2,45.6,19c5.4,1.8,10.8,3.7,16.2,5.4c-5.5,2.4-11,5.7-16.2,10.3c-6.9,6.1-21.2,23.7-6,54.7
		c10.1,20.4,23.8,34.5,36,47c14.1,14.5,28.6,28.2,43.2,41.4c-45-17.9-86.6-30.4-126.1-38.2c6-4.7,11.7-10.2,16.8-17.2
		C291,343.1,294.3,335.8,296.2,328.1z"/>
</svg>
