<?xml version="1.0" encoding="utf-8"?>
<!-- Generator: Adobe Illustrator 23.0.1, SVG Export Plug-In . SVG Version: 6.00 Build 0)  -->
<svg id="icon" version="1.1" xmlns="http://www.w3.org/2000/svg" xmlns:xlink="http://www.w3.org/1999/xlink" x="0px" y="0px"
	 viewBox="0 0 512 512" style="enable-background:new 0 0 512 512;" xml:space="preserve">
	<path fill="#968C6A" d="M120.7,101.3c40.9,11.6,81.3,17.6,120.6,18c-7.3,5.7-13.8,13.8-18.7,22.9c-9.9,18.4-5.1,39.8,12.7,57
			c13.8,13.3,28.8,21.4,41.7,27.6c16.7,8,31.6,14.2,45.6,19c5.4,1.8,10.8,3.7,16.2,5.4c-5.5,2.4-11,5.7-16.2,10.3
			c-6.9,6.1-21.2,23.7-6,54.7c10.1,20.4,23.8,34.5,36,47c14.1,14.5,28.6,28.2,43.2,41.4c-45-17.9-86.6-30.4-126.1-38.2
			c6-4.7,11.7-10.2,16.8-17.2c4.5-6.1,7.8-13.4,9.7-21.1c3.3-13.5,0.2-28-9.1-41.9c-9.4-14.1-21.5-25-37.1-33.6
			c-16.7-9.1-36.5-19.5-56.3-27.2c-18.3-7.1-37.2-12.9-56.4-17.1c8.2-3.7,16.4-8.4,23.9-15.7c13.7-13.3,13.8-33.4,0.2-51.3
			C148.7,124.8,134.7,112.5,120.7,101.3 M32.7,50.6c0.8,1.5,1.5,2.2,2.3,2.9c19.5,15.6,39,31.2,58.5,46.7c0.3,0.3,0.6,0.5,1,0.8
			c18.8,14.7,37.8,28.8,54.1,50c8.4,11,9.4,22.3,1.4,30.1c-11.1,10.8-24.8,14.9-38.1,19.8c-13.7,5-28,8-42,11.8
			c0.2,0.7,0.4,1.4,0.6,2.1c7.8,0.9,15.6,1.9,23.3,2.7c31.3,3.3,62.7,10.6,94,22.8c18.3,7.1,36.5,16.5,54.5,26.4
			c11.4,6.2,22.5,15,31.4,28.4c5.9,8.8,9.4,19,6.9,29.2c-1.4,5.8-4,11.3-7.1,15.4c-10.7,14.6-24.9,22-39.2,29.2
			c-4.4,2.2-8.9,4.2-13.4,6.3c89.5,9.1,177.8,43.8,266,88.1c-0.4-1.1-0.8-1.7-1.3-2.1C444.8,425.9,403.2,392.1,364,352
			c-12.1-12.4-24.3-25-33.1-42.9c-7.5-15.2-6.9-27.5,2.3-35.7c11.6-10.4,26-12,40.1-13.8c12.1-1.5,24.6-1,38-1.4
			c-2.4-1.2-3.8-2-5.2-2.5c-26.1-8.4-52.2-16.2-78.3-25.2c-14.7-5.1-29.3-11.4-43.9-18.3c-12.9-6.1-25.7-13.2-37.5-24.6
			c-13-12.6-16.1-26.1-9.7-37.9c4.3-7.9,10-14.9,16.5-19.3c15.9-11.1,32.5-20.5,49.9-31.2c-19.1,2.8-38.2,4.1-57.4,4.1
			C175.4,103.3,104.5,85,32.7,50.6L32.7,50.6z"/>
</svg>
