<?xml version="1.0" encoding="utf-8"?>
<!-- Generator: Adobe Illustrator 23.0.1, SVG Export Plug-In . SVG Version: 6.00 Build 0)  -->
<svg id="icon" version="1.1" xmlns="http://www.w3.org/2000/svg" xmlns:xlink="http://www.w3.org/1999/xlink" x="0px" y="0px"
	 viewBox="0 0 512 512" style="enable-background:new 0 0 512 512;" xml:space="preserve">
<style type="text/css">
	.st0{fill:#F06000;stroke:#FF0000;stroke-width:14;stroke-miterlimit:11;}
</style>
<g transform="">
	<path class="st0" d="M174.6,73.8c-43-19.9-90.1-34.3-142.4-42.2c44.5,25.5,91.1,49.6,131.1,80.6C132,105.6,87.7,82.4,45.6,73.7
		c55.5,32.7,104.3,69.1,147.5,108.9c-54.7,45-102.1,99.8-140.7,166.1c25.9-23.2,52.4-45.3,79-67.4C86.9,334.6,51.7,397.2,28,470.7
		c19.4-23.5,146.9-201.9,200-233c-21.7,33.8-63,78.2-90.6,124.5c41.4-38.8,77.2-82.7,118.5-115.2c58.7,67.2,105.6,142.4,145.1,224.9
		c-6.4-42.7-16-83.3-28.6-121.7l44.3,62.5c0,0-28.3-66.2-41.6-97.3c38.9,53.3,74.6,109.1,107.1,167.1
		c-17.8-85.3-53-158.8-94.3-227.2c36.2,31,65.5,67.8,96.3,104c-31.8-72.9-71.3-136.8-120.3-189.1c38.4-24.7,77.7-47.4,118.1-68.5
		c-30.5,5.3-59.6,12.3-87.7,20.9c20.8-15.4,42.4-30.6,63.9-45.3c-36.2,11.4-69.6,28-104,39.5c40.7-26.4,84.6-45.8,124.9-75
		c0,0-124.8,40.2-180.2,70.1C245,72.2,181.5,44.6,108.4,29.5C108.4,29.5,153.2,58.3,174.6,73.8z"/>
</g>
</svg>
