<?xml version="1.0" encoding="utf-8"?>
<!-- Generator: Adobe Illustrator 23.0.1, SVG Export Plug-In . SVG Version: 6.00 Build 0)  -->
<svg id="icon" version="1.1" xmlns="http://www.w3.org/2000/svg" xmlns:xlink="http://www.w3.org/1999/xlink" x="0px" y="0px"
	 viewBox="0 0 512 512" style="enable-background:new 0 0 512 512;" xml:space="preserve">
	<path fill="#9B2020" d="M69.9,386.1c19.3-42.1,24-85.7,8-123.3c60.7,76,94.7,22.9,2.1-74.9C210.8,269.6,217.9,160.4,0,0
		c132.4,71.2,402.8,188,205.2,59.3c114.9,40.2,139.3,23.2,162.2,13.2C420.1,54.7,459,26.2,512,0c-25.3,34-53,66.2-60.4,101
		c-9,23.8-3.8,50.4,40.5,82.6c-160.6-43.5-113.8,61.2,12.1,136.6C290.2,239.9,374.5,348.8,512,512
		c-108.1-79.5-330.5-148.3-295.4-49.6c-40.7-31.9-74.5-38.7-100.4-27.2C79,461.9,40.2,487.5,0,512C21.9,468.4,45.1,426.3,69.9,386.1
		z M130.1,395.1c21.4-12.9,33.7,0.3,47.3,18.2c-9.4-19.7-14.3-40-3.5-55l4.8-4.2l48-38.3l51.1,28.7l-18.4-27.4
		c-7.8-13.4-3.7-29.4,6-44.5c11.7-11.8,23.2-23.7,34.5-35.7c1.8-1.3,3.5-2.6,5.3-3.8l71,20.4L353,225.6c-11.3-19.1,0-45,10.5-60.3
		c6-7.1,11.9-14.2,17.8-21.4l46.7,7.9c-19.7-7.9-33.5-24.2-18-43.3l2.5-2.8c-0.9,0.9-1.7,1.9-2.4,2.8l-2.2,2.5
		c17.5-22.3,34.6-44.9,51.2-67.8c-30.7,23.3-60.5,47.5-89.7,72.6l-39.2-10.3l23.6,23.8c-16.7,14.6-33.1,29.6-49.3,44.8l-76.8-33
		l20.1,31.5l-0.3-0.3c23,29.8-20.1,93.1-49.2,84.9L164.1,238l26.5,39.5l-39.4,57c-0.3,0.3-0.6,0.6-0.8,1
		c-14.6,13.5-33.4,1.9-46-15.7l20.9,45.5C102.4,392.9,80,421.2,58,450.2C82.8,432.4,106.8,414,130.1,395.1z"/>
	<g>
		<path fill="#460E0E" d="M80.6,430.9c10.6-14.9,21.2-29.9,26.8-38.7c10.1-15.9,10.2-38.9,7.7-58.3c7.1,7.2,14.9,12.3,23.8,12.3
			c0,0,0,0,0,0c7.9,0,15.1-4.2,21.2-12.3c13.7-18.2,20-32.1,26.3-49.8c3.7-10.4-4.2-24-25.5-44c16,3.8,34.6,7.3,49.3,7.3
			c12.6,0,21.3-2.6,26.5-7.8c7.4-7.5,10.7-21.8-45.1-95.7c-10.2-13.5-20.7-26.7-29.9-38.2c11.3,6.4,24.2,13.6,37.5,20.7
			c81.8,44,99.4,44.1,105.2,44.1c0,0,0,0,0.1,0c5.6,0,9.9-1.8,12.5-5.2c5.6-7.3,7.7-15.6,6.2-24.9c-2.1-12.8-10.9-25.3-20.6-35.5
			c20.8,5.3,45.9,10.8,61.5,10.8c7.7,0,12.9-1.3,16.5-4.1c6.6-5.1,26.6-20.1,46.8-35.3c-11,13.7-20.9,26.4-24.8,32.1
			c-4.7,6.9-5.9,15.9-3.2,24.6c1.1,3.6,2.8,7,5,10.2c-15.2,1.9-35.3,8.7-47.8,30.3c-13.9,22.7-2.7,52.8,8.2,72.8
			c-11.2-3.7-24.8-7-37.5-7c-22.4,0-36.9,10.7-40.9,30.1c-1.9,9.2,0.9,29.3,47.6,95.9c5.5,7.9,11.1,15.6,16.4,22.9
			c-37.1-25.6-88.5-56-123-56c-6.3,0-12,1-17,3c-32.5,12.9-32.7,53.1-29.9,75.9c-6.2-1.9-14.3-3.5-24.5-3.5c-7,0-14.5,0.7-22.2,2.2
			C114.2,413.5,95.9,421.8,80.6,430.9z"/>
		<path fill="#FF0000" d="M391.5,113.2c-2.1,7-2.1,14.7,0.2,22.2c0.2,0.6,0.4,1.3,0.6,1.9c-18.5,4.8-33.2,15.8-42.7,32.2
			c-7.3,11.9-12.7,32.6,0.3,64.6c-7.5-1.6-15.3-2.7-22.8-2.7c-26.2,0-44,13.3-48.8,36.5c-2.4,11.6,0.9,31.7,41.4,91.4
			C281,336,250,324.3,227.3,324.3c-7.3,0-14,1.2-19.9,3.5c-15.6,6.2-34.5,21.9-35.9,61.5c-0.1,4-0.1,7.9,0.1,11.6
			c-4.6-0.7-9.8-1.2-15.7-1.2c-7.5,0-15.4,0.8-23.7,2.3c-9.4,1.7-18.5,4.5-27.1,7.9c3.6-5.2,6.7-9.9,9-13.5
			c7.3-11.5,10.8-26.8,10.3-45.7c4.5,2.2,9.3,3.4,14.4,3.4c7.3,0,18-2.7,27.6-15.5c14.2-19,21.1-33.9,27.5-51.9
			c3.5-9.8,0.5-20.5-10.1-33.9c9.2,1.5,18.3,2.5,26.3,2.5c14.9,0,25.4-3.3,32.2-10.2c13.1-13.3,9.9-34.2-44.4-106.2
			c-1.8-2.4-3.6-4.7-5.4-7.1c0.9,0.5,1.9,1,2.8,1.5c75.2,40.4,98.3,45.1,109.1,45.1c10.3,0,15.9-4.5,18.9-8.3c6.9-9,9.6-19.7,7.7-31
			c-1.2-7.3-4.3-14.5-8.4-21.3c15.2,3.3,30.4,5.8,41.4,5.8c9.6,0,16.4-1.8,21.4-5.7C386.8,116.8,388.9,115.2,391.5,113.2
			 M474.3,31.3c0,0-83.7,62.2-98.7,73.9c-2.1,1.7-6.2,2.4-11.6,2.4c-28.8,0-94.3-20.2-94.3-20.2s63.8,43.1,40.9,73
			c-1.1,1.4-3.2,2.1-6.2,2.1c-33.8,0-177.7-86.4-177.7-86.4s121,140.7,104.2,157.8c-3.9,3.9-11.4,5.4-20.8,5.4
			c-31.3,0-82.6-16.9-82.6-16.9s57.1,42.8,51.3,59c-5.7,16.2-11.6,29.6-25.2,47.7c-4.9,6.5-9.9,9.1-14.8,9.1
			c-15.3,0-30.1-25.1-39.6-38.4c0,0,19.9,59,1.4,88.1c-13.5,21.3-57.9,81.7-57.9,81.7s42.7-42.6,92.5-51.8c7.8-1.4,14.7-2,20.8-2
			c24.7,0,35.2,9.7,35.2,9.7s-17-67.1,22.2-82.7c4.1-1.6,8.9-2.4,14-2.4c55.9,0,163.9,88.5,163.9,88.5s-103.1-128.6-97.1-157.7
			c3.7-18.1,17.4-23.8,33.1-23.8c26.1,0,57.7,15.7,57.7,15.7s-41.3-53.1-21.4-85.4c13.2-23,36.3-27,51.1-27c8,0,13.5,1.2,13.5,1.2
			c-19.7-7.9-26.9-27-18.8-38.9C419.4,97.7,474.3,31.3,474.3,31.3L474.3,31.3z"/>
	</g>
</svg>
