<?xml version="1.0" encoding="utf-8"?>
<!-- Generator: Adobe Illustrator 23.0.1, SVG Export Plug-In . SVG Version: 6.00 Build 0)  -->
<svg version="1.1" id="icon" xmlns="http://www.w3.org/2000/svg" xmlns:xlink="http://www.w3.org/1999/xlink" x="0px" y="0px"
	 viewBox="0 0 512 512" style="enable-background:new 0 0 512 512;" xml:space="preserve">
<style type="text/css">
	.st0{fill:#FF0000;}
	.st1{fill:#141414;}
	.st2{fill:#9B2020;}
	.st3{fill:#460E0E;}
</style>
<path class="st0" d="M9,502.9c6-10.5,14.9-25.3,24.1-40.6c21.4-35.6,45.7-75.9,50.7-90.1c5.7-16.2,5.6-67.6,1-96
	c15.5,16.8,30,26.2,40.9,26.2c6.2,0,10.9-3.1,13.3-8.6c6.4-14.8-4.6-48.2-41.6-91.8c21.2,11.3,39.3,17.2,52.8,17.2
	c12.5,0,21.1-5.2,24.2-14.7c5.5-16.9-6.3-45.2-33.4-79.7c-25.1-32-61.6-67.1-106.6-102.9c87.6,44.5,209.3,98.6,236,98.6
	c5.5,0,7.4-2.4,8-4.4c1.1-3.8-1.2-8.8-16.1-21c-8.6-7-20.9-15.9-36.8-26.6c35.2,9.1,65.4,13.6,91.8,13.6
	c57.3,0,93.1-21.1,134.6-45.5c15.1-8.9,30.7-18,48.5-27.1c-0.8,1-1.5,2-2.3,3c-22.3,29.3-43.4,57-49.9,87.5
	c-9.9,26.5-0.8,51,28.8,76.2c-18.4-4.2-34.3-6.3-47.4-6.3c-30.3,0-39.9,11.6-42.6,21.3c-4.2,15.1,5.3,36.8,26.7,61.1
	c16,18.2,37.8,37,62.9,54.4c-33.9-11.4-58.9-17-76.1-17c-14.7,0-24.1,4.2-28,12.6c-12.9,27.8,40.5,97,120.2,192.3
	c-72.3-46.4-175.5-84.5-233.5-84.5c-22.2,0-37.3,5.4-44.7,15.9c-5.2,7.4-6.5,17.1-3.8,28.8c-8-3.6-18.2-5.4-30.4-5.4
	C126.4,449.4,45.7,483.3,9,502.9z"/>
<path class="st1" d="M488.1,20c-19.7,26.1-37.2,51.3-43.3,79.1c-9.2,24.9-2.7,47.9,20.5,71.2c-13.5-2.5-25.4-3.8-35.7-3.8
	c-32.5,0-42.9,13-45.9,23.9c-5.8,20.8,11.7,46.5,27.4,64.4c12.3,14,28,28.4,46.1,42.2c-24.1-7.1-42.8-10.6-56.6-10.6
	c-16.2,0-26.6,4.9-31.2,14.6c-7.3,15.6,2.6,41.5,32.1,83.8c19.6,28.1,46.6,61.7,75,95.9c-27.3-16-58.5-31.1-90.2-43.5
	c-50-19.6-95.1-30.4-127-30.4c-23.4,0-39.4,5.9-47.6,17.4c-4.8,6.9-6.7,15.4-5.5,25.4c-7.3-2.3-16-3.5-26-3.5
	c-49.8,0-121.9,28.4-162.3,48.4c5.3-8.9,11.6-19.4,18.1-30.2c21.5-35.7,45.9-76.2,51-90.7c5.3-15,5.8-57.5,2.6-87.1
	c13.4,12.8,25.9,19.7,36,19.7c7.6,0,13.6-3.9,16.5-10.7c4.3-10.1,1.7-25.4-7.6-44.5c-5.8-12-14.2-25.1-24.6-38.6
	c15.7,7,29.3,10.6,40.2,10.6c19,0,25.4-10.7,27.5-17.1c5.9-18-6.2-47.5-34-83c-20.5-26.5-48.7-54.9-83-84c31,15.2,64,30.6,94.6,44.1
	c42.6,18.7,97.2,41,115.2,41c8.1,0,10.6-4.3,11.3-6.9c1.9-6.4-2.6-12.8-17.2-24.7c-5.6-4.6-12.8-9.9-21.4-16
	c27.7,6.2,52.3,9.2,74.2,9.2c58.2,0,94.4-21.3,136.3-45.9C464.7,33.2,475.9,26.6,488.1,20 M512,0c-78,36.8-113.7,78.6-194.7,78.6
	c-29.8,0-65.7-5.7-112.1-19.3c64.1,41.8,79,57.7,65.2,57.7C241.8,117,89.4,48.1,0,0c166.9,122.9,201.8,215.7,150.2,215.7
	c-15.8,0-39.6-8.7-70.2-27.8c62.1,65.5,67.3,111,45.7,111c-10.6,0-27.7-11-47.8-36.1c7.4,17.5,9.5,88.8,2.6,108.2
	c-8,22.7-68.8,117.6-80.5,141c31.8-19.4,123.3-59.1,180.3-59.1c15.1,0,27.8,2.8,36.3,9.5c-12.4-34.8,7.3-48.8,42.7-48.8
	c64.9,0,182.7,47,252.7,98.4C406.3,386.5,332,293.2,400.6,293.2c20.6,0,54.2,8.5,103.6,27c-105.4-63.1-155.4-146.8-74.5-146.8
	c15.7,0,36.3,3.2,62.4,10.2c-44.3-32.2-49.5-58.8-40.5-82.6C459,66.2,486.7,34,512,0L512,0z"/>
<path class="st2" d="M406.1,124c0.4-18.1,52.3-78.7,52.3-78.7s-60.2,56.3-89.3,62.8c-24.2,5.4-99.4-20.7-99.4-20.7
	s65.4,44.4,40.9,73c-27.6,32.2-193.9-85-193.9-85s133.8,133.3,109.5,162c-18.9,22.3-78.9,0.4-78.9,0.4s43.6,38.7,18.8,74.7
	c-33.8,49.1-60.6,2.6-60.6,2.6s13.3,44.1-5,72.9c-13.3,21-56.8,80.1-57.9,81.7c1.3-1.3,42.6-46.8,91.9-54.6
	c43.8-6.9,56.6,10.5,56.6,10.5s-15.2-42.6,11.3-75.4c28.1-34.7,210.4,80.2,210.4,80.2S274.5,290.9,299,256c18.5-26.3,86,7.1,86,7.1
	s-41.3-53.1-21.4-85.4c13.2-23,64.6-25.8,64.6-25.8C408.5,144,405.8,138.3,406.1,124z"/>
<path class="st3" d="M349.6,169.5c-11.2,18.2-12.7,32.6,0.3,64.6c-7.5-1.6-47.5-11.4-65.2,17.5c-22,35.7,48,112.3,48,112.3
	s-106.9-57-137.9-26.6c-29.6,29.1-21.4,67.4-21.4,67.4s-21.3-5.8-35.1-3.7c-13.8,2-46.6,19.1-46.6,19.1s20.1-22.4,27.1-37.3
	s-1-34.2-1-34.2s34.9,13.9,60.3-32.7c15.9-29.2,1.1-58.5,1.1-58.5s46.9,8.9,63.1-12.3c19.6-25.7-62.5-120.7-62.5-120.7
	s127.9,93.4,147.8,33.7c3.6-10.8-5-40.3-5-40.3s16.3,7.1,41.4,5.8c25.4-1.3,34.2-15.5,34.2-15.5s-4.9,5.2-3.7,19.9
	c1.1,13.4,3.7,13.3,3.7,13.3S366.9,141.5,349.6,169.5z"/>
<path class="st2" d="M460.6,189.2c-19.9,0-36.1,16.2-36,36.2s16.2,36.1,36.2,36c19.9,0,36-16.2,36-36.1
	c0.2-19.8-15.8-35.9-35.5-36.1C461.1,189.2,460.9,189.2,460.6,189.2z M354,1.5c-17.9,0-32.4,14.5-32.4,32.5
	c0,17.9,14.5,32.4,32.5,32.4c17.9,0,32.4-14.5,32.4-32.4c0.1-17.8-14.3-32.4-32.1-32.5C354.3,1.5,354.1,1.5,354,1.5z M41.7,278
	c-17.9,0-32.4,14.5-32.4,32.5c0,17.9,14.5,32.4,32.5,32.4c17.9,0,32.4-14.5,32.4-32.4c0.1-17.8-14.3-32.4-32.1-32.5
	C41.9,278,41.8,278,41.7,278z M125.4,146c-13.2,0-24,10.7-24,24c0,13.2,10.7,24,24,24s24-10.7,24-24l0,0c0.1-13.1-10.4-23.9-23.6-24
	C125.7,146,125.5,146,125.4,146z M406.7,301.4c-10.3,0-18.7,8.3-18.7,18.7c0,10.3,8.3,18.7,18.7,18.7c10.3,0,18.7-8.3,18.7-18.7
	c0,0,0,0,0,0c0.1-10.3-8.2-18.6-18.5-18.7C406.9,301.4,406.8,301.4,406.7,301.4z M351.9,440.9c-14.3,0-25.9,11.6-25.9,25.9
	c0,14.3,11.6,25.9,25.9,25.9c14.3,0,25.9-11.6,25.9-25.9c0.1-14.2-11.3-25.8-25.5-25.9C352.2,440.9,352.1,440.9,351.9,440.9
	L351.9,440.9z"/>
<path class="st0" d="M460.6,325.2c-19.9,0-36.1,16.2-36,36.2c0,19.9,16.2,36.1,36.2,36c19.9,0,36-16.2,36-36.1
	c0.2-19.8-15.8-35.9-35.5-36.1C461.1,325.2,460.9,325.2,460.6,325.2z M115.9,256.8c-9.4,0-16.9,7.6-16.9,17c0,9.4,7.6,16.9,17,16.9
	c9.4,0,16.9-7.6,16.9-16.9c0-9.3-7.5-16.9-16.8-16.9C115.9,256.8,115.9,256.8,115.9,256.8z M479.5,97.5c-14.3,0-25.8,11.6-25.8,25.9
	c0,14.3,11.6,25.8,25.9,25.8c14.2,0,25.8-11.6,25.8-25.8c0.1-14.1-11.3-25.7-25.4-25.8C479.8,97.5,479.7,97.5,479.5,97.5L479.5,97.5
	z M179.1,26.4c-14.9,0-25.8,17.2-13.9,32.8c15.6,11.9,32.8,1,32.8-13.9c0.1-10.4-8.3-18.9-18.7-18.9
	C179.2,26.4,179.2,26.4,179.1,26.4z M54.3,69.9c-20.1,0-36.3,16.2-36.4,36.3c0,20.1,16.2,36.3,36.3,36.4s36.3-16.2,36.4-36.3
	c0,0,0,0,0,0c0.1-20-16.1-36.3-36.1-36.3C54.4,69.9,54.3,69.9,54.3,69.9z M270.6,423.7c-20.9,0-37.8,16.9-37.8,37.8
	c0,20.9,16.9,37.8,37.8,37.8c20.8,0,37.8-16.9,37.8-37.8c0.1-20.8-16.7-37.7-37.5-37.8C270.8,423.7,270.7,423.7,270.6,423.7z
	 M409.4,467c-7.3,0-13.3,6-13.3,13.3c0,7.3,6,13.3,13.3,13.3c7.3,0,13.3-6,13.3-13.3c0.1-7.3-5.8-13.2-13.1-13.3
	C409.5,467,409.5,467,409.4,467L409.4,467z"/>
<g>
	<path class="st1" d="M354.2,8.5l0.2,0c6.8,0,13.1,2.7,17.8,7.5c4.7,4.8,7.3,11.2,7.3,18c0,14-11.4,25.4-25.5,25.4
		c-14,0-25.4-11.4-25.5-25.4c0-14,11.4-25.5,25.5-25.5L354.2,8.5 M179.2,33.4L179.2,33.4c3.2,0,6.2,1.3,8.4,3.5
		c2.2,2.2,3.4,5.2,3.4,8.4c0,6.6-5.4,11.9-11.9,11.9c-2.9,0-6-1.1-8.9-3.1c-3.3-4.7-4-9.8-1.9-14.1
		C170.4,35.9,174.5,33.4,179.2,33.4L179.2,33.4 M54.3,76.9L54.3,76.9c16.2,0.1,29.3,13.2,29.2,29.4c0,16.2-13.2,29.3-29.4,29.3
		c-16.2,0-29.3-13.2-29.3-29.4C24.9,90.1,38.1,76.9,54.3,76.9L54.3,76.9 M479.8,104.5l0.1,0c10.3,0.1,18.5,8.5,18.5,18.8l0,0v0
		c0,10.4-8.4,18.8-18.8,18.8c-10.4,0-18.8-8.4-18.8-18.8c0-5,1.9-9.7,5.5-13.3c3.5-3.6,8.3-5.5,13.3-5.5l0,0l0,0L479.8,104.5
		 M125.6,153l0.1,0c9.3,0.1,16.7,7.7,16.6,16.9l0,0v0c0,9.4-7.6,17-17,17s-17-7.6-17-17c0-9.4,7.6-17,17-17h0l0,0L125.6,153
		 M461,196.2l0.2,0c7.7,0.1,14.9,3.1,20.3,8.6c5.4,5.5,8.3,12.7,8.3,20.4l0,0v0c0,16-13,29.1-29,29.1l0,0h0c-16,0-29.1-13-29.1-29
		c0-7.8,3-15.1,8.5-20.6c5.5-5.5,12.8-8.5,20.6-8.6l0,0l0,0L461,196.2 M115.9,256.8l0,7c5.5,0,9.9,4.5,9.9,9.9
		c0,5.5-4.5,9.9-9.9,9.9c-5.5,0-9.9-4.5-9.9-9.9c0-2.7,1-5.2,2.9-7c1.9-1.9,4.4-2.9,7.1-2.9l0,0L115.9,256.8 M41.8,285l0.2,0
		c13.9,0.1,25.2,11.5,25.1,25.5c0,14-11.4,25.4-25.5,25.4c-14,0-25.4-11.4-25.5-25.4c0-6.8,2.6-13.2,7.4-18s11.2-7.5,18-7.5
		L41.8,285 M406.8,308.4L406.8,308.4c3.2,0,6.1,1.2,8.2,3.4c2.2,2.2,3.4,5.1,3.3,8.3c0,6.4-5.3,11.7-11.7,11.7
		c-3.1,0-6.1-1.2-8.3-3.4s-3.4-5.2-3.4-8.3c0-6.4,5.3-11.7,11.7-11.7L406.8,308.4L406.8,308.4L406.8,308.4 M461,332.2l0.2,0
		c15.9,0.1,28.7,13.2,28.6,29l0,0v0c0,16-13,29.1-29,29.1l0,0h0c-16,0-29.1-13-29.1-29c0-7.8,3-15.1,8.5-20.6
		c5.5-5.5,12.8-8.5,20.6-8.6l0,0l0,0L461,332.2 M270.8,430.7l0.1,0c16.9,0.1,30.6,13.9,30.6,30.8c0,17-13.8,30.8-30.8,30.8
		c-17,0-30.8-13.8-30.8-30.8C239.9,444.5,253.7,430.7,270.8,430.7L270.8,430.7 M352.2,447.9l0.1,0c5,0,9.7,2,13.2,5.6
		s5.4,8.3,5.4,13.3l0,0v0c0,10.4-8.5,18.9-18.9,18.9c-10.4,0-18.9-8.5-18.9-18.9c0-5,2-9.8,5.5-13.4c3.6-3.6,8.3-5.5,13.4-5.5l0.1,0
		l0,0L352.2,447.9 M409.5,474L409.5,474c3.5,0,6.2,2.8,6.2,6.3l0,0v0c0,3.5-2.8,6.3-6.3,6.3c-3.5,0-6.3-2.8-6.3-6.3
		c0-3.5,2.8-6.3,6.3-6.3L409.5,474L409.5,474L409.5,474 M354.2,1.5c-0.1,0-0.1,0-0.2,0c-17.9,0-32.4,14.5-32.4,32.5
		c0,17.9,14.5,32.4,32.5,32.4c0,0,0,0,0,0c17.9,0,32.4-14.5,32.4-32.4c0.1-17.8-14.3-32.4-32.1-32.5C354.3,1.5,354.3,1.5,354.2,1.5
		L354.2,1.5z M179.2,26.4c0,0-0.1,0-0.1,0c-14.9,0-25.8,17.2-13.9,32.8c4.6,3.5,9.4,5.1,13.9,5.1c10.5,0,18.9-8.5,18.9-18.9
		c0.1-10.4-8.3-18.9-18.7-18.9C179.3,26.4,179.2,26.4,179.2,26.4L179.2,26.4z M54.3,69.9C54.3,69.9,54.3,69.9,54.3,69.9
		C54.3,69.9,54.2,69.9,54.3,69.9c-20.2,0-36.4,16.3-36.4,36.3c0,20.1,16.2,36.3,36.3,36.4c0,0,0,0,0,0c20.1,0,36.3-16.3,36.3-36.3
		c0,0,0,0,0,0c0.1-20-16.1-36.3-36.1-36.3C54.4,69.9,54.4,69.9,54.3,69.9L54.3,69.9z M479.8,97.5c-0.1,0-0.2,0-0.3,0
		c-14.3,0-25.8,11.6-25.8,25.9c0,14.2,11.6,25.8,25.8,25.8c0,0,0,0,0,0c14.2,0,25.8-11.6,25.8-25.8c0.1-14.1-11.3-25.7-25.4-25.8
		C479.9,97.5,479.9,97.5,479.8,97.5L479.8,97.5z M125.6,146c-0.1,0-0.1,0-0.2,0c-13.2,0-24,10.7-24,24c0,13.2,10.7,24,24,24
		c13.2,0,24-10.7,24-24c0.1-13.1-10.4-23.9-23.6-24C125.7,146,125.7,146,125.6,146L125.6,146z M461,189.2c-0.1,0-0.2,0-0.3,0
		c-19.9,0-36.1,16.2-36,36.2c0,19.9,16.2,36,36.1,36c0,0,0,0,0.1,0c19.9,0,36-16.2,36-36.1c0.2-19.8-15.8-35.9-35.5-36.1
		C461.2,189.2,461.1,189.2,461,189.2L461,189.2z M115.9,256.8C115.9,256.8,115.9,256.8,115.9,256.8c-9.4,0-17,7.6-17,17
		c0,9.4,7.6,16.9,16.9,16.9c0,0,0,0,0,0c9.4,0,16.9-7.6,16.9-16.9C132.8,264.5,125.3,256.9,115.9,256.8
		C116,256.8,115.9,256.8,115.9,256.8L115.9,256.8z M41.8,278c-0.1,0-0.1,0-0.2,0c-17.9,0-32.4,14.5-32.4,32.5
		c0,17.9,14.5,32.4,32.5,32.4c0,0,0,0,0,0c17.9,0,32.4-14.5,32.4-32.4c0.1-17.8-14.3-32.4-32.1-32.5C42,278,41.9,278,41.8,278
		L41.8,278z M406.8,301.4C406.8,301.4,406.7,301.4,406.8,301.4c-0.1,0-0.1,0-0.1,0c-10.3,0-18.7,8.4-18.7,18.7
		c0,10.3,8.3,18.7,18.7,18.7c0,0,0,0,0,0c10.3,0,18.7-8.4,18.7-18.7c0,0,0,0,0,0c0.1-10.3-8.2-18.6-18.5-18.7
		C406.9,301.4,406.9,301.4,406.8,301.4L406.8,301.4z M461,325.2c-0.1,0-0.2,0-0.3,0c-19.9,0-36.1,16.2-36,36.2
		c0,19.9,16.2,36,36.1,36c0,0,0,0,0.1,0c19.9,0,36-16.2,36-36.1c0.2-19.8-15.8-35.9-35.5-36.1C461.2,325.2,461.1,325.2,461,325.2
		L461,325.2z M270.8,423.7c0,0-0.1,0-0.1,0c-20.9,0-37.8,16.9-37.8,37.8c0,20.9,16.9,37.8,37.8,37.8c0,0,0,0,0,0
		c20.8,0,37.8-16.9,37.8-37.8c0.1-20.8-16.7-37.7-37.5-37.8C270.8,423.7,270.8,423.7,270.8,423.7L270.8,423.7z M352.2,440.9
		c-0.1,0-0.1,0-0.2,0l0,0c-14.3,0-25.9,11.6-25.9,25.9c0,14.3,11.6,25.9,25.9,25.9c0,0,0,0,0,0c14.3,0,25.9-11.6,25.9-25.9
		c0.1-14.2-11.3-25.8-25.5-25.9C352.3,440.9,352.2,440.9,352.2,440.9L352.2,440.9z M409.5,467C409.5,467,409.4,467,409.5,467l-0.1,0
		c-7.3,0-13.3,6-13.3,13.3c0,7.3,6,13.3,13.3,13.3c0,0,0,0,0,0c7.3,0,13.3-6,13.3-13.3C422.8,473,416.9,467,409.5,467
		C409.6,467,409.5,467,409.5,467L409.5,467z"/>
</g>
</svg>
