<svg xmlns="http://www.w3.org/2000/svg" viewBox="0 0 512 512" >
	<!-- <defs>
		<linearGradient id="bg-gradient" x1="0" x2="1" y1="0" y2="1">
			<stop offset="0%" stop-color="rgb(78, 78, 78)"></stop>
			<stop offset="100%" stop-color="rgb(0, 0, 0)"></stop>
		</linearGradient>
		<linearGradient id="stroke-gradient" x1="0" x2="1" y1="0" y2="1">
			<stop offset="0%" stop-color="rgb(129, 128, 128)"></stop>
			<stop offset="100%" stop-color="rgb(79, 78, 78)"></stop>
		</linearGradient>
	</defs> -->
	<g transform-origin="center" transform="">
		<path fill="#460E0E" d="M425.47,1.09c-24.78,16.54-49.36,33.48-73.4,50.94C400.31,29.65,453.26,13.57,512,4.65
				c-50,28.61-98.07,59.51-145.3,91.57c39.83-19.31,82.96-34.5,130.2-44.3c-62.33,36.75-140.13,90.46-236.06,194.57
				S142.25,406.44,97.93,499.05c7.21-47.96,17.98-93.56,32.15-136.69l-49.73,70.16c0,0,27.88-77.83,46.75-109.2
				C83.46,383.18,43.37,445.84,6.84,510.91c19.99-95.78,54.08-181.78,105.89-255.07C75.35,292.99,39.23,331.97,4.65,372.6
				c35.7-81.89,93.86-175.24,167.97-238.12S343.39,18.1,425.47,1.09L425.47,1.09z"/>
	</g>
</svg>