<?xml version="1.0" encoding="utf-8"?>
<!-- Generator: Adobe Illustrator 23.0.1, SVG Export Plug-In . SVG Version: 6.00 Build 0)  -->
<svg version="1.1" id="Layer_1" xmlns="http://www.w3.org/2000/svg" xmlns:xlink="http://www.w3.org/1999/xlink" x="0px" y="0px"
	 viewBox="0 0 512 512" style="enable-background:new 0 0 512 512;" xml:space="preserve">
<style type="text/css">
	.st0{fill:#958B6A;}
</style>
<g transform="">
	<path class="st0" d="M415.1,256l45.9-45.9c43.9-43.9,43.9-115.2,0-159.1c-22-22-50.8-32.9-79.6-32.9c-28.8,0-57.6,11-79.5,32.9
		L256,96.9L210.1,51c-22-22-50.7-32.9-79.5-32.9S72.9,29,51,51C7.1,94.9,7.1,166.2,51,210.1L96.9,256L51,301.9
		C7.1,345.8,7.1,417.1,51,461c43.9,43.9,115.2,43.9,159.1,0l45.9-45.9l45.9,45.9c43.9,43.9,115.2,43.9,159.1,0
		c43.9-43.9,43.9-115.2,0-159.1L415.1,256z M453.5,116.3c2.4-2.4,5.6-3.7,8.8-3.7v0c3.2,0,6.3,1.2,8.8,3.7c4.9,4.8,4.9,12.7,0,17.6
		c-4.9,4.9-12.7,4.9-17.6,0C448.6,129,448.6,121.2,453.5,116.3z M435.9,169c-4.9,4.8-12.7,4.8-17.6,0s-4.9-12.7,0-17.6
		c2.4-2.4,5.6-3.7,8.8-3.7s6.4,1.2,8.8,3.7C440.7,156.3,440.7,164.2,435.9,169z M416.8,79.6c2.4-2.4,5.6-3.6,8.8-3.6h0
		c3.2,0,6.4,1.2,8.8,3.6c4.9,4.9,4.9,12.7,0,17.6c-4.9,4.8-12.7,4.8-17.6,0C411.9,92.4,411.9,84.5,416.8,79.6z M382.7,45.5
		c2.4-2.4,5.6-3.7,8.8-3.7s6.4,1.2,8.8,3.7c4.8,4.8,4.8,12.7,0,17.6c-4.9,4.8-12.7,4.8-17.6,0C377.8,58.2,377.8,50.4,382.7,45.5z
		 M381.6,114.8c2.4-2.4,5.6-3.6,8.8-3.6v0c3.2,0,6.4,1.2,8.8,3.6c4.8,4.8,4.8,12.7,0,17.6c-4.9,4.9-12.7,4.9-17.6,0
		C376.8,127.5,376.8,119.6,381.6,114.8z M381.6,188.1c2.4-2.4,5.6-3.7,8.8-3.7c3.2,0,6.4,1.2,8.8,3.7c4.8,4.9,4.8,12.7,0,17.6
		c-4.9,4.8-12.7,4.8-17.6,0C376.8,200.8,376.8,193,381.6,188.1z M347.5,80.7c2.4-2.4,5.6-3.7,8.8-3.7s6.4,1.2,8.8,3.7
		c4.9,4.9,4.9,12.7,0,17.6c-4.9,4.8-12.7,4.8-17.6,0C342.6,93.4,342.6,85.5,347.5,80.7z M345,151.5c2.4-2.4,5.6-3.7,8.8-3.7
		s6.4,1.2,8.8,3.7c4.9,4.8,4.9,12.7,0,17.6c-4.9,4.8-12.7,4.8-17.6,0C340.1,164.2,340.1,156.3,345,151.5z M310.8,117.3
		c2.4-2.4,5.6-3.7,8.8-3.7v0c3.2,0,6.4,1.2,8.8,3.7c4.9,4.8,4.9,12.7,0,17.6c-4.9,4.9-12.7,4.9-17.6,0
		C306,130,306,122.2,310.8,117.3z M183.6,117.3c2.4-2.4,5.6-3.7,8.8-3.7v0c3.2,0,6.4,1.2,8.8,3.7c4.9,4.8,4.9,12.7,0,17.6
		c-4.9,4.9-12.7,4.9-17.6,0C178.7,130,178.7,122.2,183.6,117.3z M167,169c-4.9,4.8-12.7,4.8-17.6,0c-4.9-4.8-4.9-12.7,0-17.6
		c2.4-2.4,5.6-3.7,8.8-3.7s6.4,1.2,8.8,3.7C171.9,156.3,171.9,164.2,167,169z M146.9,80.7c2.4-2.4,5.6-3.7,8.8-3.7s6.4,1.2,8.8,3.7
		c4.9,4.9,4.9,12.7,0,17.6c-4.9,4.8-12.7,4.8-17.6,0C142.1,93.4,142.1,85.5,146.9,80.7z M130.4,205.7c-4.9,4.8-12.7,4.8-17.6,0
		c-4.9-4.9-4.9-12.7,0-17.6c2.4-2.4,5.6-3.7,8.8-3.7c3.2,0,6.4,1.2,8.8,3.7C135.2,193,135.2,200.8,130.4,205.7z M130.4,132.4
		c-4.9,4.9-12.7,4.9-17.6,0c-4.9-4.8-4.9-12.7,0-17.6c2.4-2.4,5.6-3.6,8.8-3.6v0c3.2,0,6.4,1.2,8.8,3.6
		C135.2,119.6,135.2,127.5,130.4,132.4z M111.8,45.5c2.4-2.4,5.6-3.7,8.8-3.7s6.4,1.2,8.8,3.7c4.9,4.8,4.9,12.7,0,17.6
		s-12.7,4.8-17.6,0C106.9,58.2,106.9,50.4,111.8,45.5z M77.6,79.6c2.4-2.4,5.6-3.6,8.8-3.6h0c3.2,0,6.4,1.2,8.8,3.6
		c4.9,4.9,4.9,12.7,0,17.6c-4.9,4.8-12.7,4.8-17.6,0C72.8,92.4,72.8,84.5,77.6,79.6z M58.5,133.9c-4.9,4.9-12.7,4.9-17.6,0
		c-4.9-4.8-4.9-12.7,0-17.6c2.4-2.4,5.6-3.7,8.8-3.7v0c3.2,0,6.4,1.2,8.8,3.7C63.4,121.2,63.4,129,58.5,133.9z M93.7,169
		c-4.9,4.8-12.7,4.8-17.6,0c-4.9-4.8-4.9-12.7,0-17.6c2.4-2.4,5.6-3.7,8.8-3.7s6.4,1.2,8.8,3.7C98.5,156.3,98.5,164.2,93.7,169z
		 M66.3,397c-4.9,4.8-12.7,4.8-17.6,0c-4.9-4.9-4.9-12.7,0-17.6c2.4-2.4,5.6-3.6,8.8-3.6s6.4,1.2,8.8,3.6
		C71.2,384.2,71.2,392.1,66.3,397z M100.5,431.1c-4.9,4.9-12.7,4.9-17.6,0c-4.9-4.8-4.9-12.7,0-17.6c2.4-2.4,5.6-3.6,8.8-3.6v0
		c3.2,0,6.4,1.2,8.8,3.6C105.3,418.4,105.3,426.3,100.5,431.1z M103,360.3c-4.9,4.8-12.7,4.8-17.6,0c-4.9-4.8-4.9-12.7,0-17.6
		c2.4-2.4,5.6-3.6,8.8-3.6c3.2,0,6.4,1.2,8.8,3.6C107.8,347.6,107.8,355.5,103,360.3z M137.1,467.8c-4.9,4.8-12.7,4.8-17.6,0
		s-4.9-12.7,0-17.6c2.4-2.4,5.6-3.6,8.8-3.6s6.4,1.2,8.8,3.7C142,455.1,142,462.9,137.1,467.8z M137.1,394.5
		c-4.9,4.8-12.7,4.8-17.6,0c-4.9-4.9-4.9-12.7,0-17.6c2.4-2.4,5.6-3.6,8.8-3.6s6.4,1.2,8.8,3.6C142,381.7,142,389.6,137.1,394.5z
		 M138.1,325.2c-4.9,4.9-12.7,4.9-17.6,0c-4.9-4.8-4.9-12.7,0-17.6c2.4-2.4,5.6-3.6,8.8-3.6s6.4,1.2,8.8,3.6
		C143,312.4,143,320.3,138.1,325.2z M154.7,341.7c2.4-2.4,5.6-3.6,8.8-3.6s6.4,1.2,8.8,3.6c4.9,4.8,4.9,12.7,0,17.6
		c-4.9,4.8-12.7,4.8-17.6,0C149.9,354.5,149.9,346.6,154.7,341.7z M173.8,431.1c-4.9,4.9-12.7,4.9-17.6,0c-4.9-4.8-4.9-12.7,0-17.6
		c2.4-2.4,5.6-3.6,8.8-3.6v0c3.2,0,6.4,1.2,8.8,3.6C178.6,418.4,178.6,426.3,173.8,431.1z M208.9,396c-4.9,4.8-12.7,4.8-17.6,0
		c-4.9-4.9-4.9-12.7,0-17.6c2.4-2.4,5.6-3.6,8.8-3.6s6.4,1.2,8.8,3.6C213.8,383.2,213.8,391.1,208.9,396z M274.8,342.7l69.7-69.8
		l9,9l-69.8,69.8L274.8,342.7z M353.6,226.2l-9.1,9l-69.7-69.7l9-9L353.6,226.2z M237.2,165.5l-69.7,69.7l-9-9l69.7-69.7
		L237.2,165.5z M158.4,282l9-9l69.7,69.8l-9,9L158.4,282z M320.6,396c-4.9,4.8-12.7,4.8-17.6,0c-4.9-4.9-4.9-12.7,0-17.6
		c2.4-2.4,5.6-3.6,8.8-3.6s6.4,1.2,8.8,3.6C325.5,383.2,325.5,391.1,320.6,396z M355.8,431.1c-4.9,4.9-12.7,4.9-17.6,0
		c-4.9-4.8-4.9-12.7,0-17.6c2.4-2.4,5.6-3.6,8.8-3.6v0c3.2,0,6.4,1.2,8.8,3.6C360.6,418.4,360.6,426.3,355.8,431.1z M357.3,359.3
		c-4.9,4.8-12.7,4.8-17.6,0c-4.9-4.8-4.9-12.7,0-17.6c2.4-2.4,5.6-3.6,8.8-3.6s6.4,1.2,8.8,3.6C362.1,346.6,362.1,354.5,357.3,359.3
		z M373.9,307.6c2.4-2.4,5.6-3.6,8.8-3.6s6.4,1.2,8.8,3.6c4.9,4.8,4.9,12.7,0,17.6c-4.9,4.9-12.7,4.9-17.6,0
		C369,320.3,369,312.4,373.9,307.6z M392.4,467.8c-4.9,4.8-12.7,4.8-17.6,0c-4.9-4.8-4.9-12.7,0-17.6c2.4-2.4,5.6-3.7,8.8-3.7
		s6.4,1.2,8.8,3.6C397.3,455.1,397.3,462.9,392.4,467.8z M392.4,394.5c-4.9,4.8-12.7,4.8-17.6,0c-4.9-4.9-4.9-12.7,0-17.6
		c2.4-2.4,5.6-3.6,8.8-3.6s6.4,1.2,8.8,3.6C397.3,381.7,397.3,389.6,392.4,394.5z M409,342.7c2.4-2.4,5.6-3.6,8.8-3.6
		c3.2,0,6.4,1.2,8.8,3.6c4.9,4.8,4.9,12.7,0,17.6c-4.9,4.8-12.7,4.8-17.6,0C404.2,355.5,404.2,347.6,409,342.7z M429.1,431.1
		c-4.9,4.9-12.7,4.9-17.6,0c-4.9-4.8-4.9-12.7,0-17.6c2.4-2.4,5.6-3.6,8.8-3.6v0c3.2,0,6.4,1.2,8.8,3.6
		C433.9,418.4,433.9,426.3,429.1,431.1z M463.3,397c-4.9,4.8-12.7,4.8-17.6,0c-4.9-4.9-4.9-12.7,0-17.6c2.4-2.4,5.6-3.6,8.8-3.6
		c3.2,0,6.4,1.2,8.8,3.6C468.1,384.2,468.1,392.1,463.3,397z"/>
</g>
</svg>
