<?xml version="1.0" encoding="utf-8"?>
<!-- Generator: Adobe Illustrator 23.0.1, SVG Export Plug-In . SVG Version: 6.00 Build 0)  -->
<svg version="1.1" id="Layer_1" xmlns="http://www.w3.org/2000/svg" xmlns:xlink="http://www.w3.org/1999/xlink" x="0px" y="0px"
	 viewBox="0 0 512 512" style="enable-background:new 0 0 512 512;" xml:space="preserve">
<style type="text/css">
	.st0{fill:#958B6A;}
</style>
<g transform="">
	<path class="st0" d="M130.5,18c28.8,0,57.6,11,79.5,32.9l251,250.9c43.9,43.9,43.9,115.2,0,159.1s-115.2,43.9-159.1,0L51,210.1
		C7.1,166.2,7.1,94.9,51,51C72.9,29,101.7,18,130.5,18L130.5,18z M120.6,41.9c-3.2,0-6.3,1.2-8.8,3.7c-4.8,4.8-4.8,12.7,0,17.6
		s12.7,4.8,17.6,0c4.9-4.8,4.9-12.7,0-17.6C126.9,43.1,123.7,41.9,120.6,41.9L120.6,41.9z M86.4,76c-3.2,0-6.3,1.2-8.8,3.6
		c-4.8,4.8-4.8,12.7,0,17.6s12.7,4.8,17.6,0c4.8-4.8,4.8-12.7,0-17.6C92.8,77.2,89.6,76,86.4,76L86.4,76z M155.7,77
		c-3.2,0-6.4,1.2-8.8,3.7c-4.9,4.8-4.9,12.7,0,17.6c4.9,4.8,12.7,4.8,17.6,0c4.9-4.8,4.9-12.7,0-17.6C162.1,78.2,158.9,77,155.7,77
		L155.7,77z M121.6,111.2c-3.2,0-6.3,1.2-8.8,3.6c-4.8,4.8-4.8,12.7,0,17.6c4.8,4.8,12.7,4.8,17.6,0c4.9-4.8,4.9-12.7,0-17.6
		C127.9,112.4,124.7,111.2,121.6,111.2L121.6,111.2z M49.8,112.7c-3.2,0-6.3,1.2-8.8,3.7c-4.9,4.8-4.9,12.7,0,17.6
		c4.8,4.8,12.7,4.8,17.6,0c4.9-4.8,4.9-12.7,0-17.6C56.1,113.9,52.9,112.7,49.8,112.7L49.8,112.7z M192.4,113.7
		c-3.2,0-6.4,1.2-8.8,3.7c-4.9,4.8-4.9,12.7,0,17.6c4.9,4.8,12.7,4.8,17.6,0c4.9-4.8,4.9-12.7,0-17.6
		C198.8,114.9,195.6,113.7,192.4,113.7L192.4,113.7z M158.3,147.8c-3.2,0-6.4,1.2-8.8,3.7c-4.9,4.8-4.9,12.7,0,17.6s12.7,4.8,17.6,0
		c4.9-4.8,4.9-12.7,0-17.6C164.6,149.1,161.4,147.8,158.3,147.8L158.3,147.8z M84.9,147.8c-3.2,0-6.3,1.2-8.8,3.7
		c-4.8,4.8-4.8,12.7,0,17.6s12.7,4.8,17.6,0s4.8-12.7,0-17.6C91.3,149.1,88.1,147.8,84.9,147.8L84.9,147.8z M279.7,152.3l-13.2,13.2
		l73.9,73.9l13.2-13.2L279.7,152.3L279.7,152.3z M223.9,152.3L150,226.2l13.2,13.2l73.9-73.9L223.9,152.3L223.9,152.3z M121.6,184.5
		c-3.2,0-6.3,1.2-8.8,3.7c-4.8,4.8-4.8,12.7,0,17.6s12.7,4.8,17.6,0c4.9-4.8,4.9-12.7,0-17.6C127.9,185.7,124.8,184.5,121.6,184.5
		L121.6,184.5z M163.3,268.8L150,282l73.9,73.9l13.2-13.2L163.3,268.8L163.3,268.8z M340.4,268.8l-73.9,73.9l13.2,13.2l73.9-73.9
		L340.4,268.8L340.4,268.8z M382.7,304c-3.2,0-6.4,1.2-8.8,3.6c-4.9,4.8-4.9,12.7,0,17.6c4.9,4.8,12.7,4.8,17.6,0s4.9-12.7,0-17.6
		C389,305.1,385.8,304,382.7,304L382.7,304z M348.5,338.1c-3.2,0-6.4,1.2-8.8,3.6c-4.9,4.8-4.9,12.7,0,17.6c4.9,4.8,12.7,4.8,17.6,0
		s4.9-12.7,0-17.6C354.9,339.3,351.7,338.1,348.5,338.1z M417.8,339.1c-3.2,0-6.4,1.2-8.8,3.6c-4.9,4.8-4.9,12.7,0,17.6
		c4.9,4.8,12.7,4.8,17.6,0s4.9-12.7,0-17.6C424.2,340.3,421,339.1,417.8,339.1L417.8,339.1z M383.7,373.3c-3.2,0-6.4,1.2-8.8,3.6
		c-4.9,4.8-4.9,12.7,0,17.6s12.7,4.8,17.6,0s4.9-12.7,0-17.6C390,374.5,386.8,373.3,383.7,373.3L383.7,373.3z M311.9,374.8
		c-3.2,0-6.4,1.2-8.8,3.6c-4.9,4.8-4.9,12.7,0,17.6c4.9,4.8,12.7,4.8,17.6,0s4.9-12.7,0-17.6C318.2,376,315,374.8,311.9,374.8
		L311.9,374.8z M454.5,375.8c-3.2,0-6.4,1.2-8.8,3.6c-4.9,4.8-4.9,12.7,0,17.6c4.9,4.8,12.7,4.8,17.6,0s4.9-12.7,0-17.6
		C460.8,377,457.6,375.8,454.5,375.8L454.5,375.8z M420.3,409.9c-3.2,0-6.4,1.2-8.8,3.6c-4.9,4.8-4.9,12.7,0,17.6
		c4.9,4.8,12.7,4.8,17.6,0s4.9-12.7,0-17.6C426.7,411.1,423.5,409.9,420.3,409.9L420.3,409.9z M347,409.9c-3.2,0-6.4,1.2-8.8,3.6
		c-4.9,4.8-4.9,12.7,0,17.6c4.9,4.8,12.7,4.8,17.6,0s4.9-12.7,0-17.6C353.4,411.1,350.2,409.9,347,409.9L347,409.9z M383.7,446.6
		c-3.2,0-6.4,1.2-8.8,3.7c-4.9,4.8-4.9,12.7,0,17.6s12.7,4.8,17.6,0s4.9-12.7,0-17.6C390,447.8,386.8,446.6,383.7,446.6L383.7,446.6
		z"/>
</g>
</svg>
