<?xml version="1.0" encoding="utf-8"?>
<!-- Generator: Adobe Illustrator 23.0.1, SVG Export Plug-In . SVG Version: 6.00 Build 0)  -->
<svg id="icon" version="1.1" xmlns="http://www.w3.org/2000/svg" xmlns:xlink="http://www.w3.org/1999/xlink" x="0px" y="0px"
	 viewBox="0 0 512 512" style="enable-background:new 0 0 512 512;" xml:space="preserve">
<path fill="#968C6A" d="M69.9,386.1c19.3-42.1,24-85.7,8-123.3c60.7,76,94.7,22.9,2.1-74.9C210.8,269.6,217.9,160.4,0,0
		c132.4,71.2,402.8,188,205.2,59.3c114.9,40.2,139.3,23.2,162.2,13.2C420.1,54.7,459,26.2,512,0c-25.3,34-53,66.2-60.4,101
		c-9,23.8-3.8,50.4,40.5,82.6c-160.6-43.5-113.8,61.2,12.1,136.6C290.2,239.9,374.5,348.8,512,512
		c-108.1-79.5-330.5-148.3-295.4-49.6c-40.7-31.9-74.5-38.7-100.4-27.2C79,461.9,40.2,487.5,0,512C21.9,468.4,45.1,426.3,69.9,386.1
		z M130.1,395.1c21.4-12.9,33.7,0.3,47.3,18.2c-9.4-19.7-14.3-40-3.5-55l4.8-4.2l48-38.3l51.1,28.7l-18.4-27.4
		c-7.8-13.4-3.7-29.4,6-44.5c11.7-11.8,23.2-23.7,34.5-35.7c1.8-1.3,3.5-2.6,5.3-3.8l71,20.4L353,225.6c-11.3-19.1,0-45,10.5-60.3
		c6-7.1,11.9-14.2,17.8-21.4l46.7,7.9c-19.7-7.9-33.5-24.2-18-43.3l2.5-2.8c-0.9,0.9-1.7,1.9-2.4,2.8l-2.2,2.5
		c17.5-22.3,34.6-44.9,51.2-67.8c-30.7,23.3-60.5,47.5-89.7,72.6l-39.2-10.3l23.6,23.8c-16.7,14.6-33.1,29.6-49.3,44.8l-76.8-33
		l20.1,31.5l-0.3-0.3c23,29.8-20.1,93.1-49.2,84.9L164.1,238l26.5,39.5l-39.4,57c-0.3,0.3-0.6,0.6-0.8,1
		c-14.6,13.5-33.4,1.9-46-15.7l20.9,45.5C102.4,392.9,80,421.2,58,450.2C82.8,432.4,106.8,414,130.1,395.1z"/>
</svg>
