<?xml version="1.0" encoding="utf-8"?>
<!-- Generator: Adobe Illustrator 25.0.0, SVG Export Plug-In . SVG Version: 6.00 Build 0)  -->
<svg version="1.1" id="Layer_1" xmlns="http://www.w3.org/2000/svg" xmlns:xlink="http://www.w3.org/1999/xlink" x="0px" y="0px"
	 viewBox="0 0 512 512" style="enable-background:new 0 0 512 512;" xml:space="preserve">
<style type="text/css">
	.st0{fill:#FFFFFF;}
</style>
<g transform="translate(0,0)">
	<path class="st0" d="M494,18v207.1c-19.2,18.9-53.1,37.3-85,47.9c-28.1,9.4-46.7,12.8-66.9,5.3c-15.9-5.9-34.2-10.2-46.4-18.1
		c-12.3-7.9-19.3-17-15.8-39.4l0-0.2l0-0.2c0.3-3.2,0.7-6.5,1.2-9.9c0.2,0,0.4,0.1,0.5,0.1c10.8,2.8,26.3,4.3,45.8,0.4
		c1.3,0.8,2.7,1.6,4.1,2.4l7.9,4.4l8.7-15.8l-7.9-4.4c-19.5-10.8-36.1-31.5-46.1-47.4c0.4-1.2,0.7-2.5,1.1-3.8
		c12.9,8.9,31,13.2,52.2,4.9l8.4-3.3l-6.5-16.8l-8.4,3.3c-19,7.4-29.9,2.5-39.1-5.9c-7.4-6.8-12.8-16.3-16.3-23.7
		c26.3-30.7,51.5-59.2,76.4-87H494z M309.9,18C300,32.1,286.4,47.6,270,63c-2.3-0.8-4.7-1.7-7.2-2.5c-12.1-3.9-25.9-7.8-38.9-7.2
		c-4.3,0.2-8.6,0.8-12.7,2.2l-8.6,2.8l5.6,17.1l8.6-2.8c7.7-2.5,25.6,0.3,40.5,5.1c8.9,2.8,16.5,5.9,21.2,7.9c-3.4,4-6.9,8-10.3,12
		l-3.6,4.3l2.2,5.2c1.2,2.8,2.9,6.6,5.1,10.8c-10.9,13.4-26.3,27.1-37,34.8c-17.4,12.6-42.4,27.8-61.9,31.9
		c-9.8,2.1-17.5,1.4-23.1-2c-5.6-3.4-10.4-10-12.9-24.1l-1.5-8.9l-17.7,3.1l1.5,8.9c0,0.2,0.1,0.4,0.1,0.7
		C87.4,176,56.7,184.5,31.8,185c-4.9,0.1-9.5-0.1-13.8-0.6v-77.7c8.3,6.7,18.9,14.6,32.7,24.1l10.2-14.8c-21-14.5-34-25-42.9-33V18
		H309.9z M450.1,19.4c-11.1,0.6-118.6,57.1-88.5,46.6c1.6-0.5,9.6-1.7,20.6-2.6c-3,5.5-4.8,11.6-5.4,17.9c-0.7,7.8,0.7,14.7,4,19.9
		c3.4,5.2,9.3,9,17.1,7.8c7.7-1.2,14.6-6.9,19-13.3c4.4-6.4,7.1-13.9,7.8-21.8c0.4-4.4,0.1-8.6-0.8-12.3c22.7,0.2,44,2.9,48.2,11.3
		l-21.2-53.4C450.7,19.4,450.5,19.4,450.1,19.4L450.1,19.4z M401.9,64.4c0.5-0.1,1.5,0,2.8,2c1.3,2,2.3,5.7,1.9,10.2
		c-0.4,4.5-2.1,8.6-3.8,11.1c-1.7,2.5-2.8,2.9-3.3,3c-0.5,0.1-1.5,0-2.8-2c-1.3-2-2.3-5.7-1.9-10.2c0.4-4.5,2.1-8.6,3.8-11.1
		S401.4,64.5,401.9,64.4z M212.9,88.5c-0.6,0-1.2,0-1.7,0.1c-18.6,1.1-37.9,12.4-57.6,33.2l13,12.4c18-18.9,33.9-27,45.6-27.7
		c11.7-0.7,20.6,4.7,28.4,18.5l15.7-8.9C246.4,98.9,230.7,88.2,212.9,88.5L212.9,88.5z M288.1,173.5c5.4,7.3,11.8,14.9,19.2,21.9
		c-8.7,0.3-15.8-0.8-21.1-2.1c-0.8-0.2-1.4-0.4-2.1-0.6C285.2,186.5,286.6,180.1,288.1,173.5L288.1,173.5z M124.6,179.6
		c2.5,5.3,5.6,9.7,9.2,13.3c-31.8,24.7-60.4,54.7-77.9,91.2L55,286c-30,39.7-39.6,93.7-31.9,140.4l0.4,2.6l1.8,2
		c27.8,31,73.8,47.3,115.1,53.6c20.6,3.2,40.1,3.8,56,2c15.9-1.8,28.9-4.7,35.9-15.5l1-1.6l0.3-1.9c1.8-11.4,2.6-22.5,3.9-33.3
		c17.1,19.2,29.6,38.8,36.2,59.8H18V202.5c4.6,0.4,9.3,0.6,14.1,0.5C60.2,202.5,92,193.6,124.6,179.6L124.6,179.6z M494,248.9v50.3
		c-9.1,6.8-33.5,24.9-62.8,46.5c-17.7,13-35.5,26.1-49.1,35.8c-6.1,4.4-11.1,7.8-15,10.6c-0.4-1.2-0.7-1.9-1.2-3.3
		c-2.6-7.9-5.7-18.6-8.7-29.4c-4.7-16.7-8.3-30.4-10-37.1c1.2-7.1,1.6-14.9,1.1-23.7c21.1,4.2,42-0.5,66.5-8.6
		C443,280.6,472.1,266.2,494,248.9L494,248.9z M85.4,280.9c0.6,0,1.1,0,1.5,0c4.9,0.4,6.2,2.1,8.2,4.3c1.3,1.5,2.6,3.5,4.8,6
		c2.3,2.5,6.6,5.7,11.7,5.9c4.7,0.2,8.8-1.8,11.4-3.6c2.5-1.8,4.1-3.4,5.5-4.5c2.7-2.1,3.7-3.4,11.2-1.6c3.2,0.7,4,2,5.8,5.6
		c0.9,1.8,1.8,3.9,3.1,6.3c1.3,2.4,3.1,5.5,7.1,7.7c2.9,1.6,5.9,1.4,7.7,1c1.8-0.4,2.9-0.9,4-1.4c2.1-0.9,3.7-1.8,5.5-2.4
		c3.7-1.3,7.9-2.2,15.8,0.8c6.5,2.6,6.8,4,7.5,5.8c0.3,0.9,0.5,2,1.2,4.1c0.7,2.1,2.9,6.6,7.3,8.3c3.8,1.5,7.7,1.2,10.3,0.6
		c2.7-0.6,4.6-1.3,6.6-1.8c3.9-1,7.7-1.6,15.6,1c4.6,1.5,9.9,8,12.3,16.9c2.4,8.6,1.6,18.4-1.2,23.3c-30.1,34-28,69.6-32.2,98.7
		c-2.3,1.6-9.9,5.4-21.9,6.8c-5.6,0.6-12,0.9-18.9,0.9c-1.1-34.2,7.6-76.9,20.2-104.8l-16.4-7.4c-13.9,30.7-22.9,73.9-21.8,111.3
		c-4.7-0.4-9.4-1-14.3-1.8c-9.4-1.4-19-3.5-28.5-6.1c6.5-36.4,12-75.9,31.6-109.7l-15.6-9c-21.4,36.8-27.1,77.9-33.3,113.2
		c-8.4-3.1-16.5-6.6-24.2-10.6c1.9-42.7,7.1-79.4,24.3-106.1l-15.1-9.8C63.6,357.7,58,393.9,55.7,433.8c-5.6-4-10.7-8.4-15.2-13.1
		c-7.1-48.4,6.7-105.4,43.2-139.7C84.3,280.9,84.8,280.9,85.4,280.9L85.4,280.9z M494,321.7V494H292.5
		c-7.8-28.8-25.2-54.8-48.3-79.1l64.6-39.2l0.1,0c9.8-6.2,19.8-13.7,27.3-24.7c1.2,4.4,2.4,8.8,3.7,13.4c3.1,10.9,6.2,21.8,9,30.1
		c1.4,4.2,2.6,7.7,3.8,10.5c0.6,1.4,1.1,2.6,1.9,3.9c0.4,0.7,0.8,1.4,1.8,2.4c1,1,2.7,2.9,6.9,2.9c2.5,0,3-0.5,3.6-0.7
		c0.6-0.2,1-0.4,1.3-0.6c0.7-0.4,1.4-0.8,2.1-1.2c1.5-0.9,3.2-2.1,5.4-3.5c4.3-2.9,10.2-7,17-11.9c13.7-9.8,31.6-22.9,49.3-35.9
		C462.5,345.1,480.5,331.7,494,321.7z"/>
</g>
</svg>
