<?xml version="1.0" encoding="utf-8"?>
<!-- Generator: Adobe Illustrator 24.3.0, SVG Export Plug-In . SVG Version: 6.00 Build 0)  -->
<svg version="1.0" xmlns="http://www.w3.org/2000/svg" xmlns:xlink="http://www.w3.org/1999/xlink" x="0px" y="0px"
	 viewBox="0 0 2000 324" width="2000" height="324" enable-background="new 0 0 2000 324" xml:space="preserve">
<g id="BOTTOM">
	<path fill="#958F6B" d="M1681,281c-1.63,0.09-2.92,1.44-3.38,3.17c-0.35,1.34-0.81,2.76-3,3.31c0.26-1.25,0.52-2.08,0.59-2.92
		c0.17-2.01-0.71-3.02-2.72-3.03c-9.51-0.01-19.03-0.01-28.54,0.04c-8.03,0.04-16.07,0.15-24.11,0.22c-0.4,0.01-0.8-0.09-1.2-0.09
		c-7.77-0.13-15.53-0.31-23.3-0.34c-6-0.03-11.99,0.21-17.99,0.21c-5.63,0-11.26-0.25-16.89-0.22c-8.59,0.05-17.18,0.25-25.77,0.36
		c-3.06,0.04-6.11,0.01-9.07,0.01c-1.36,3.54-1.4,3.55-4.87,1.61c-0.9,0.5-1.8,1.01-2.96,1.67c-0.61-1.21-1.11-2.19-1.77-3.49
		h-27.18c-6.43,0-12.86,0.03-19.29-0.01c-4.96-0.03-9.91-0.23-14.86-0.22c-4.42,0.01-8.84,0.31-13.26,0.31
		c-10.87,0-21.74-0.16-32.62-0.14c-12.46,0.02-24.93,0.21-37.4,0.24c-8.16,0.02-16.33-0.15-24.5-0.16
		c-7.76-0.01-15.53,0.15-23.29,0.12c-6.29-0.02-12.59-0.24-18.88-0.29c-6.03-0.05-12.06-0.03-18.09,0.06
		c-1.11,0.01-2.2,0.47-3.39,0.74c1.73,4.12,2.53,4.82,5.76,6.14c1.03,0.42,2.02,1.23,2.73,2.1c1.06,1.32,1.87,2.85,2.93,4.51
		c-0.33,0.9-0.73,2.02-1.15,3.2c-0.94-0.61-1.91-1.09-2.67-1.79c-0.73-0.67-1.19-1.62-1.86-2.35c-0.41-0.45-0.99-1.01-1.51-1.02
		c-2.11-0.07-3.43-1.32-4.74-2.72c-0.61-0.67-1.41-8.27-2.12-8.81c-3.64,0-3.64,0.04-7.31,0c-5.21-0.06-10.42-0.22-15.63-0.22
		c-4.8,0.01-9.6,0.27-14.4,0.26c-5.74-0.02-11.48-0.3-17.22-0.33c-6.95-0.03-13.91-0.08-20.85,0.17
		c-10.57,0.38-21.14-0.54-31.7,0.16c-2.24,0.15-4.52-0.41-6.78-0.39c-6.7,0.05-13.4,0.31-20.1,0.35
		c-6.95,0.03-13.89-0.08-20.83-0.15c-6.69-0.08-13.38,0.18-20.07,0.15c-1.15-0.01-2.31-0.23-3.55,0c-0.07,2.03-0.2,4.7-2.6,4.55
		c-2.35-0.15-2.32-2.73-2.54-4.55c-9.79,0-19.41,0.09-29.02-0.08c-1.83-0.04-11.49,0.08-11.49,0.08s-1.36,2.34-2.25,3.89
		c-0.86-1.63-1.46-2.75-2.12-3.99h-22.67v0.08c-2.32,0.04-4.66,0.04-6.99-0.12c-4.15-0.28-8.04-0.35-10.78,3.49
		c-0.13,0.18-0.48,0.2-0.83,0.34c-0.41-0.2-0.92-0.39-1.36-0.68c-3.81-2.59-7.97-3.49-12.53-2.72c-1.04,0.18-2.18,0.21-3.21,0
		c-6.14-1.31-12.28,0.13-18.42-0.04c-5.99-0.17-11.99-0.27-17.99-0.36c-5.19-0.08-10.39-0.15-15.59-0.14
		c-3.73,0.01-7.46,0.21-11.19,0.21c-5.5,0-10.99-0.16-16.49-0.14c-7.59,0.04-15.18,0.23-22.77,0.26
		c-9.77,0.04-19.54-0.03-29.31-0.01c-3.62,0.01-7.23,0.27-10.84,0.23c-6.94-0.09-13.87-0.39-20.81-0.44
		c-4.9-0.03-9.81,0.35-14.72,0.33c-6.55-0.03-13.11-0.27-19.66-0.39c-1.07-0.01-2.14,0.23-3.21,0.24c-2.76,0.04-8,0.01-8,0.01
		s-3.26,3.05-4.79,0.02c-7.64,0-15.1,0.04-22.57-0.02c-4.79-0.03-9.58-0.33-14.37-0.31c-7.21,0.04-14.42,0.32-21.64,0.37
		c-4.52,0.04-9.04-0.18-13.56-0.2c-10.41-0.06-20.82-0.1-31.23-0.04c-0.74,0-1.47,0.83-2.2,1.27c0.01,0.02,0.02,0.04,0.03,0.05
		c-0.92-0.44-1.8-1.15-2.75-1.23c-2.79-0.23-5.6-0.25-8.4-0.26c-4.8-0.02-9.59,0.06-14.38,0.06c-3.86,0-7.72-0.1-11.58-0.08
		c-4.81,0.01-9.62,0.09-14.43,0.17c-6.11,0.1-12.22,0.23-17.96,0.34c-1.03,1.65-1.8,2.87-2.73,4.34c-0.79-0.73-1.27-1.53-1.92-1.7
		c-0.81-0.21-2.54,0.1-2.54,0.16c0.03,2.11-3.07,3.23-1.81,5.68c0.04,0.08-0.29,0.34-0.52,0.61c-0.68-0.19-1.41-0.41-3.06-0.89
		c3.13-1.87,1.65-3.79,0.46-6.01c1.8-0.72,3.19-1.29,4.58-1.85c-4.72-0.62-9.39-0.6-14.06-0.63c-3.09-0.02-6.17-0.16-9.25-0.14
		c-5.07,0.03-10.14,0.16-15.21,0.2c-2.66,0.02-5.36-0.34-7.98-0.01l-18.24,0.22c-1.73-0.1-3.45-0.33-5.18-0.31
		c-5.62,0.06-11.24,0.31-16.86,0.27c-6.53-0.04-13.06-0.44-19.59-0.44c-5.89-0.01-11.77,0.38-17.66,0.46
		c-7.19,0.08-14.39,0.01-21.58,0.02c-3.22,0.01-6.44,0.16-9.65,0.07c-4.67-0.12-9.35-0.37-14.02-0.62
		c-1.93-0.11-3.61,0.18-5.11,1.65c-0.96,0.93-2.13,2.2-4.07,1.12c0.71-0.72,1.34-1.36,2.64-2.67c-10.95,0-20.93-0.01-30.91,0.03
		c-0.43,0-0.86,0.48-1.51,0.87c1.67,0.54,3.05,0.99,4.26,1.39c0.18,1.15,0.02,2.38,0.55,2.91c0.57,0.57,1.97,0.46,1.55,1.79
		c-0.26,0.8-0.95,1.48-1.3,2c-2.24-0.86-4.16-1.59-6.42-2.46c2.45-2.64-1.23-3.75-1.1-5.98c-1.19-0.15-2.38-0.45-3.57-0.43
		c-7.09,0.07-14.19,0.29-21.28,0.32c-6.44,0.02-12.88-0.2-19.32-0.22c-7.36-0.01-29.2-0.4-36.56-0.36c-1.32,0-29.68,0-31,0v29
		c2.54,0.03,46.61,0.16,49.15,0.18c5.21,0.03,10.42,0.05,15.64,0c4.81-0.05,9.62-0.31,14.43-0.29c7.23,0.05,14.46,0.47,21.67,0.3
		c2.97-0.07,6.57,0.83,8.76-3.48c0.75,3.46,2.79,3.46,5.03,3.4c5.62-0.13,11.24-0.14,16.87-0.15c15.4-0.02,30.81-0.01,46.21-0.01
		c10.05-0.01,20.09-0.05,30.14,0c4.96,0.03,9.92,0.32,14.87,0.3c11.13-0.03,33.38-0.29,33.38-0.29l17.95,0.02h163.69
		c-0.08-1.43-0.13-2.52-0.19-3.62c3.28-0.27,1.29,2.95,3.36,3.84c2.45,0,5.37,0.02,8.29,0c10.46-0.08,20.91-0.21,31.37-0.22
		c8.43-0.01,16.86,0.14,25.29,0.2c3.48,0.03,6.96,0.06,10.44,0.02c0.78,0,2.2-0.15,2.24-0.43c0.47-2.71,3.66-2.84,4.32-4.97
		c1.24,0.22,2.37,0.77,3.18,0.47c1.87-0.69,2.53,0.71,3.21,1.68c0.53,0.77,0.46,1.96,0.64,2.9c0.21,0.11,0.32,0.24,0.44,0.24
		c4.95,0,9.92,0.24,14.85-0.08c4.86-0.31,9.64-0.97,14.51,0.22c1.87,0.45,3.99-0.24,6-0.28c2-0.05,4.3,0.67,5.95-0.08
		c2.11-0.96,3.73,0.25,5.58,0.2c9.1-0.26,18.21-0.15,27.32-0.16c15.02-0.02,30.03-0.03,45.05-0.03c9.36,0.01,18.72,0.05,28.08,0.09
		c9.63,0.03,19.27,0.1,28.9,0.14c6.84,0.02,13.67,0.04,20.5,0c6.7-0.03,13.39-0.16,20.08-0.22c2.67-0.03,5.35-0.03,8.06-0.01
		c0.01,0.13,0.01,0.25,0.02,0.37c6.48,0.78,12.76-0.31,19.07-0.09c6.55,0.22,13.12-0.17,19.68-0.17c6.69,0,13.38,0.15,20.06,0.23
		c6.55,0.07,13.1,0.15,19.65,0.2c6.69,0.05,13.38,0.14,20.07,0.09c6.66-0.04,13.32-0.25,19.97-0.33c6.55-0.07,13.1-0.11,19.65-0.09
		c6.66,0.02,13.32,0.12,19.98,0.21c6.55,0.09,13.1,0.32,19.64,0.28c6.7-0.04,13.4-0.38,20.1-0.48c6.68-0.1,13.37-0.09,20.05-0.07
		c6.54,0.02,13.09,0.12,19.63,0.19c6.69,0.07,13.38,0.22,20.07,0.21s13.37-0.27,20.06-0.26c6.55,0,13.11,0.25,19.67,0.31
		c6.67,0.05,13.34-0.02,20.01-0.03l19.65-0.03h20.09c-0.44-1.01-0.62-1.43-0.87-2c1.52-0.21,2.93-0.41,4.55-0.63
		c0.31,2.1,1.44,2.45,3.38,2.35c3.19-0.18,6.42,0.14,9.62,0.39c2.31,0.18,4.49,0.3,5.8-2.87c0.97,2.32,2.1,2.56,3.93,2.7
		c3.47,0.26,6.82-0.82,10.39-0.09c3.59,0.73,7.46,0.09,11.21,0.06c11.5-0.11,23-0.23,34.5-0.3c6.94-0.03,13.87,0.04,20.81,0.05
		c7.88,0.01,15.76,0.01,23.75,0.01l14.9,0.07c6.37,0,12.39-0.03,18.4,0.01c3.2,0.02,6.41,0.23,9.61,0.25
		c2.26,0.01,4.53-0.19,6.79-0.2c2,0,4.01,0.19,6.01,0.16c3.35-0.04,6.7-0.27,10.06-0.28c11.78-0.04,23.56,0.07,35.33-0.04
		c9.9-0.1,19.8,0.69,29.69-0.08c0.53-0.04,1.08,0.05,1.61,0.07c5.22,0.16,10.44,0.42,15.66,0.44c7.74,0.03,15.49-0.13,23.24-0.15
		c4.14-0.01,8.28,0.18,12.41,0.15c4.79-0.04,9.58-0.29,14.37-0.34c6.81-0.07,12.47-0.15,12.47-0.15v-29
		C1725,281,1681.93,280.95,1681,281z M332.4,302.84c-0.19-0.33-0.38-0.65-0.56-0.98c1.15-0.63,2.31-1.26,3.47-1.89l0.51,0.96
		C334.68,301.57,333.54,302.21,332.4,302.84z M386.9,306.64v-3.62c2.7-0.95,5.72-1.32,7.76-3.7c0.14-0.17,1.01,0.29,2.34,0.72
		C392.68,301.72,392.39,307.6,386.9,306.64z M597.86,294.15c-0.11-2.03,0.32-2.66,2.44-2.02
		C599.38,292.89,598.82,293.35,597.86,294.15z M670.15,298.09c-0.93-0.14-1.87-0.29-3.01-0.47c0.29-0.58,0.52-1.17,0.58-1.17
		c0.9,0.27,1.77,0.61,2.65,0.93C670.3,297.62,670.23,297.86,670.15,298.09z M674.6,286.49c-0.83-0.64-1.61-1.24-2.84-2.19
		c1.16-0.69,1.95-1.15,2.74-1.63C675.4,284.46,675.38,284.5,674.6,286.49z M714.67,299.57c0.68-0.68,1.36-1.35,2.03-2.03
		C717.44,299.55,716.78,300.27,714.67,299.57z M720.11,303.04c-0.61,0.06-1.23,0.03-1.84,0.03c0.01-0.35,0.02-0.7,0.03-1.05
		c0.66,0.12,1.31,0.23,1.97,0.34C720.22,302.6,720.18,303.03,720.11,303.04z M749.72,288.19c-2.18-2.01-2.18-2.01-6.42-0.34
		c0.19-2.01,0.34-3.48,0.46-4.73c2.95,0.48,5.45,0.89,8.1,1.32C752.7,286.56,751.5,287.53,749.72,288.19z M755.66,303.22
		c-0.66,1.13-2.32,1.74-4.07,0.27c1.74-1.96,1.42-5.03,4.21-6.7C757.11,299.13,756.73,301.36,755.66,303.22z M782.59,295.71
		c-0.17,0.5-0.67,0.89-1.29,1.62c-0.41-0.72-0.91-1.27-0.79-1.46c0.29-0.47,0.85-0.79,1.3-1.17
		C782.09,295.05,782.67,295.49,782.59,295.71z M841.33,307.61c-0.55-0.37-1.11-0.74-1.62-1.17c0-0.06,0.38-0.58,0.57-0.87
		c0.56,0.42,1.12,0.83,1.68,1.25C841.75,307.08,841.54,307.35,841.33,307.61z M1070.33,299.01c-2.67-0.28-2.14-2.4-2.35-3.93
		c-0.17-1.18,0.37-2.09,2.35-1.73V299.01z M1073.94,302.81c-0.89-0.24-1.78-0.49-2.67-0.74c0.19-0.4,0.38-0.8,0.56-1.2
		c0.81,0.37,1.61,0.74,2.41,1.11L1073.94,302.81z M1098.56,299.39c0.37-1.02,0.75-2.04,1.15-3.15
		C1101.49,297.63,1101.49,297.63,1098.56,299.39z M1307.06,302.39c-1.05,1.51-2.18,2.61-0.61,4.45c0.41,0.48,0.14,1.56-0.18,2.52
		c-2.73-4.16-7.57-5.63-10.73-9.15c2.19,0,4.25-0.03,5.87,1.72c0.95,1.02,2.51,1.18,3.03-0.19c1.23-3.23,4.28-3.15,6.83-4.43
		c0.46,1.05,0.87,1.96,1.36,3.06C1310.57,301.1,1308.43,300.41,1307.06,302.39z M1327.12,309.25c0.16-2.6,0.16-2.6,3.7-1.86
		c0.07,0.3,0.15,0.6,0.22,0.9C1329.78,308.6,1328.51,308.91,1327.12,309.25z M1389.21,294.27c-0.06-1.74,0.95-2.45,2.33-2.79
		c1.27-0.32,2.06,0.23,2.37,1.64C1392.21,293.54,1390.79,293.88,1389.21,294.27z M1404.79,301c2.38,0.94,3.26,2.39,3.7,4.94
		C1405.62,305.22,1405.27,303.4,1404.79,301z M1483.82,295.22c-0.56-0.82-1.03-1.49-1.66-2.39c1.48-0.9,2.39-2.73,4.41-1.06
		C1485.65,292.93,1484.85,293.93,1483.82,295.22z M1715.75,294.43c2.08-1.16,3.46-1.92,5.26-2.92c0.58,1.13,1.11,2.16,1.81,3.53
		C1720.23,295.54,1718.27,296.01,1715.75,294.43z"/>
</g>
<g id="LEFT">
	<path fill="#4B4835" d="M24.01,170.99c-0.62,0-1.18,0.25-1.59,0.67c-0.41,0.41-0.66,0.98-0.66,1.61v9.46c0,0.62,0.25,1.2,0.66,1.61
		s0.97,0.67,1.59,0.67c1.24,0,2.25-1.02,2.25-2.27v-9.46C26.26,172.01,25.24,170.99,24.01,170.99z M30.93,167.9v-1.75
		c0-3.25-2.16-3.25-3.51-3.25c-0.03,0-0.03,14.38,0.01,14.38c1.25,0,3.51,0.04,3.51-3.21v-1.98c0-1.21,1.3-2.18,1.3-2.18
		S30.93,169,30.93,167.9z M20.6,162.89c-1.35,0-3.51,0-3.51,3.25v1.75c0,1.1-1.31,2.01-1.31,2.01s1.31,0.97,1.31,2.18v1.98
		c0,3.24,2.26,3.21,3.51,3.21C20.63,177.28,20.63,162.89,20.6,162.89z M25.59,188.68c-0.41-0.41-0.97-0.67-1.59-0.67
		c-1.24,0-2.25,1.02-2.25,2.27V194h4.51v-3.72C26.26,189.66,26.01,189.09,25.59,188.68z M30.93,183.91v-1.99
		c0-3.24-2.26-3.2-3.51-3.2c-0.04,0-0.04,14.38-0.01,14.38c1.35,0,3.51,0,3.51-3.26v-1.75c0-1.1,1.3-2.02,1.3-2.02
		S30.93,185.11,30.93,183.91z M20.59,178.72c-1.25,0-3.51-0.04-3.51,3.2v1.99c0,1.2-1.31,2.17-1.31,2.17s1.31,0.92,1.31,2.02v1.75
		c0,3.26,2.17,3.26,3.51,3.26C20.63,193.11,20.63,178.72,20.59,178.72z M26.26,158.28V162v3.71c0,0.63-0.25,1.2-0.66,1.61
		s-0.97,0.67-1.59,0.67c-1.24,0-2.25-1.02-2.25-2.28V162l0.01-3.72c0-1.25,1.02-2.27,2.25-2.27c0.62,0,1.18,0.25,1.59,0.67
		C26.01,157.09,26.26,157.66,26.26,158.28z M24.01,138.99c-0.62,0-1.18,0.25-1.59,0.67c-0.41,0.41-0.66,0.98-0.66,1.61v9.47
		c0,0.62,0.25,1.19,0.66,1.6s0.97,0.67,1.59,0.67c1.24,0,2.25-1.02,2.25-2.27v-9.47C26.26,140.01,25.25,138.99,24.01,138.99z
		 M21.76,130v3.71c0,1.25,1.02,2.27,2.25,2.27c0.62,0,1.18-0.25,1.59-0.67c0.41-0.41,0.66-0.98,0.66-1.61V130H21.76z M30.94,135.9
		v-1.75c0-3.25-2.16-3.25-3.51-3.25c-0.03,0-0.03,14.38,0.01,14.38c1.25,0,3.51,0.04,3.51-3.2v-1.99c0-1.21,1.3-2.18,1.3-2.18
		S30.94,137,30.94,135.9z M20.6,130.89c-1.35,0-3.51,0-3.51,3.25v1.75c0,1.1-1.31,2.01-1.31,2.01s1.31,0.97,1.31,2.18v1.99
		c0,3.24,2.26,3.2,3.51,3.2C20.63,145.28,20.63,130.89,20.6,130.89z M30.94,151.91v-1.99c0-3.24-2.26-3.2-3.51-3.2
		c-0.04,0-0.04,14.38-0.01,14.38c1.35,0,3.51,0,3.51-3.26v-1.75c0-1.1,1.3-2.02,1.3-2.02S30.94,153.11,30.94,151.91z M20.6,146.72
		c-1.25,0-3.51-0.04-3.51,3.2v1.99c0,1.2-1.31,2.17-1.31,2.17s1.31,0.92,1.31,2.02v1.75c0,3.26,2.17,3.26,3.51,3.26
		C20.63,161.11,20.63,146.72,20.6,146.72z"/>
</g>
<g id="RIGHT">
	<path fill="#4B4835" d="M1976,170.99c-0.62,0-1.18,0.25-1.59,0.67c-0.41,0.41-0.66,0.98-0.66,1.61v9.46c0,0.62,0.25,1.2,0.66,1.61
		s0.97,0.67,1.59,0.67c1.24,0,2.25-1.02,2.25-2.27v-9.46C1978.25,172.01,1977.24,170.99,1976,170.99z M1982.92,167.9v-1.75
		c0-3.25-2.16-3.25-3.51-3.25c-0.03,0-0.03,14.38,0.01,14.38c1.25,0,3.51,0.04,3.51-3.21v-1.98c0-1.21,1.3-2.18,1.3-2.18
		S1982.92,169,1982.92,167.9z M1972.59,162.89c-1.35,0-3.51,0-3.51,3.25v1.75c0,1.1-1.31,2.01-1.31,2.01s1.31,0.97,1.31,2.18v1.98
		c0,3.24,2.26,3.21,3.51,3.21C1972.62,177.28,1972.62,162.89,1972.59,162.89z M1977.59,188.68c-0.41-0.41-0.97-0.67-1.59-0.67
		c-1.24,0-2.25,1.02-2.25,2.27l-0.01,3.72h4.51v-3.72C1978.25,189.66,1978,189.09,1977.59,188.68z M1982.92,183.91v-1.99
		c0-3.24-2.26-3.2-3.51-3.2c-0.04,0-0.04,14.38-0.01,14.38c1.35,0,3.51,0,3.51-3.26v-1.75c0-1.1,1.3-2.02,1.3-2.02
		S1982.92,185.11,1982.92,183.91z M1972.58,178.72c-1.25,0-3.51-0.04-3.51,3.2v1.99c0,1.2-1.31,2.17-1.31,2.17s1.31,0.92,1.31,2.02
		v1.75c0,3.26,2.17,3.26,3.51,3.26C1972.62,193.11,1972.62,178.72,1972.58,178.72z M1978.26,158.28l-0.01,3.72v3.71
		c0,0.63-0.25,1.2-0.66,1.61s-0.97,0.67-1.59,0.67c-1.24,0-2.25-1.02-2.25-2.28V162l0.01-3.72c0-1.25,1.02-2.27,2.25-2.27
		c0.62,0,1.18,0.25,1.59,0.67C1978.01,157.09,1978.26,157.66,1978.26,158.28z M1976,138.99c-0.62,0-1.18,0.25-1.59,0.67
		c-0.41,0.41-0.66,0.98-0.66,1.61v9.47c0,0.62,0.25,1.19,0.66,1.6s0.97,0.67,1.59,0.67c1.24,0,2.25-1.02,2.25-2.27v-9.47
		C1978.26,140.01,1977.24,138.99,1976,138.99z M1973.75,130v3.71c0,1.25,1.02,2.27,2.25,2.27c0.62,0,1.18-0.25,1.59-0.67
		c0.41-0.41,0.66-0.98,0.66-1.61V130H1973.75z M1982.93,135.9v-1.75c0-3.25-2.16-3.25-3.51-3.25c-0.03,0-0.03,14.38,0.01,14.38
		c1.25,0,3.51,0.04,3.51-3.2v-1.99c0-1.21,1.3-2.18,1.3-2.18S1982.93,137,1982.93,135.9z M1972.6,130.89c-1.35,0-3.51,0-3.51,3.25
		v1.75c0,1.1-1.31,2.01-1.31,2.01s1.31,0.97,1.31,2.18v1.99c0,3.24,2.26,3.2,3.51,3.2C1972.63,145.28,1972.63,130.89,1972.6,130.89z
		 M1982.93,151.91v-1.99c0-3.24-2.26-3.2-3.51-3.2c-0.04,0-0.04,14.38-0.01,14.38c1.35,0,3.51,0,3.51-3.26v-1.75
		c0-1.1,1.3-2.02,1.3-2.02S1982.93,153.11,1982.93,151.91z M1972.59,146.72c-1.25,0-3.51-0.04-3.51,3.2v1.99
		c0,1.2-1.31,2.17-1.31,2.17s1.31,0.92,1.31,2.02v1.75c0,3.26,2.17,3.26,3.51,3.26C1972.63,161.11,1972.63,146.72,1972.59,146.72z"
		/>
</g>
<g id="CORNER_BR">
	<path fill="#958F6B" d="M1922.26,309.63c0,0-21.14-0.67-27.02-0.74c-2.68-0.02-5.66,0.7-8.34,0.73
		c-7.63,0.07-15.26,0.21-22.89,0.24c-2.67,0.01-5.34-0.35-8.01-0.33c-7.46,0.04-14.93,0.23-22.4,0.26
		c-3.6,0.02-7.21-0.29-10.81-0.26c-5.58,0.05-11.16,0.35-16.74,0.37c-3.74,0.02-7.48-0.41-11.22-0.37
		c-6.43,0.06-12.85,0.48-19.28,0.47c-7.35-0.01-14.7-0.39-22.06-0.47c-5.74-0.06-24.73,0.5-28.48,0.47v-29h13
		c1.6,3.3,3.31,6.2,4.72,9.1c5.54,0,10.6-0.04,15.65,0.01c4.67,0.05,9.33,0.29,13.99,0.3c4.55,0,9.1-0.19,13.66-0.28
		c2.28-0.04,4.59-0.29,6.84-0.03c4.16,0.47,8.25,0.62,12.43,0.01c2.33-0.34,4.8,0.37,7.2,0.38c6.44,0.02,12.88-0.1,19.32-0.15
		c3.87-0.03,7.73-0.05,11.6-0.03c10.03,0.04,20.06,0.11,30.09,0.14c5.88,0.02,11.76-0.02,17.64-0.02
		c11.77,0.01,23.54,0.02,35.31,0.05c1.56,0,2.71-0.56,3.85-1.75c4.28-4.45,8.72-8.75,13.1-13.11c1.89-1.88,3.79-3.77,5.68-5.66
		c5.12-5.14,10.2-10.31,15.37-15.39c2.61-2.57,2.29-5.75,2.26-8.95c-0.05-6.24-0.1-18.7-0.1-18.7l-0.09-2.59
		c-0.03-1.78,0.02-1.62-0.12-2.05c-0.16-0.49-0.24-7.02-0.32-7.33c-4.58-2.26-8.95-4.42-14-6.91L1976,194l23.12,14.26l-13.14,6.29
		l-0.61,0.34l0.22,9.43l-0.23,21.08L1922.26,309.63z"/>
	<path fill="#25241B" stroke="#4B4835" stroke-miterlimit="10" d="M1950.23,276.87c-1.38,0-2.51-1.13-2.51-2.51s1.13-2.51,2.51-2.51
		s2.51,1.13,2.51,2.51C1952.74,275.75,1951.61,276.87,1950.23,276.87z"/>
	<path fill="#4b4835" d="M1972.54,271.45c0.25,0.04,0.49,0.11,0.76,0.22c3.15,1.31,3.93,5.65,1.85,8.27
		c-0.27,0.35-0.62,0.64-0.96,0.92c-0.25,0.2-0.75,0.66-1.07,0.7c1.45-0.22,3.04-0.52,4.27-1.4c3.62-2.52,1.6-7.68,0.36-10.9
		c-0.42-1.09-0.76-2.19-1.07-3.31c-0.09-0.31-0.42-2.5-0.75-2.58l-0.8-0.15l-4.22,8.23C1971.5,271.39,1972.01,271.36,1972.54,271.45
		z M1940.15,298.66l0.15,0.81c0.05,0.33,2.24,0.68,2.55,0.75c1.11,0.31,2.2,0.68,3.27,1.09c3.2,1.23,8.29,3.3,10.78-0.37
		c0.85-1.25,1.15-2.87,1.38-4.33c-0.05,0.35-0.58,0.9-0.75,1.16c-0.05,0.07-0.11,0.17-0.16,0.24c-2.45,2.89-7.45,2.26-8.87-1.22
		c-0.11-0.26-0.18-0.52-0.22-0.77c-0.09-0.53-0.05-1.05,0-1.64L1940.15,298.66z M1983.94,229.63L1983.94,229.63l-0.01,0.78
		L1983.94,229.63z M1972.54,271.45c0.25,0.04,0.49,0.11,0.76,0.22c3.15,1.31,3.93,5.65,1.85,8.27c-0.27,0.35-0.62,0.64-0.96,0.92
		c-0.25,0.2-0.75,0.66-1.07,0.7c1.45-0.22,3.04-0.52,4.27-1.4c3.62-2.52,1.6-7.68,0.36-10.9c-0.42-1.09-0.76-2.19-1.07-3.31
		c-0.09-0.31-0.42-2.5-0.75-2.58l-0.8-0.15l-4.22,8.23C1971.5,271.39,1972.01,271.36,1972.54,271.45z M1940.15,298.66l0.15,0.81
		c0.05,0.33,2.24,0.68,2.55,0.75c1.11,0.31,2.2,0.68,3.27,1.09c3.2,1.23,8.29,3.3,10.78-0.37c0.85-1.25,1.15-2.87,1.38-4.33
		c-0.05,0.35-0.58,0.9-0.75,1.16c-0.05,0.07-0.11,0.17-0.16,0.24c-2.45,2.89-7.45,2.26-8.87-1.22c-0.11-0.26-0.18-0.52-0.22-0.77
		c-0.09-0.53-0.05-1.05,0-1.64L1940.15,298.66z M1972.54,271.45c0.25,0.04,0.49,0.11,0.76,0.22c3.15,1.31,3.93,5.65,1.85,8.27
		c-0.27,0.35-0.62,0.64-0.96,0.92c-0.25,0.2-0.75,0.66-1.07,0.7c1.45-0.22,3.04-0.52,4.27-1.4c3.62-2.52,1.6-7.68,0.36-10.9
		c-0.42-1.09-0.76-2.19-1.07-3.31c-0.09-0.31-0.42-2.5-0.75-2.58l-0.8-0.15l-4.22,8.23C1971.5,271.39,1972.01,271.36,1972.54,271.45
		z M1940.15,298.66l0.15,0.81c0.05,0.33,2.24,0.68,2.55,0.75c1.11,0.31,2.2,0.68,3.27,1.09c3.2,1.23,8.29,3.3,10.78-0.37
		c0.85-1.25,1.15-2.87,1.38-4.33c-0.05,0.35-0.58,0.9-0.75,1.16c-0.05,0.07-0.11,0.17-0.16,0.24c-2.45,2.89-7.45,2.26-8.87-1.22
		c-0.11-0.26-0.18-0.52-0.22-0.77c-0.09-0.53-0.05-1.05,0-1.64L1940.15,298.66z M1966.52,224.65l0.15,22.46h-0.02
		c0,0.06,0.02,0.13,0.02,0.18v38.52c-1.25-0.51-11.35-8.99-11.35-8.99l-5.24-2.23l2.4,5.19c0,0,7.97,8.8,8.29,9.4
		c0.18,0.35,0.38,0.68,0.56,1.01h-37.03c-0.05,0-0.13-0.02-0.18-0.02v0.02h-18.36l-25.81,0.2l12.16,2.25l14.48-0.19
		c7.03,0.87,10.16,2.77,11.56,4.42l-13.41,10.62h-12.63l-11.57,2.21l105.22-0.19v-0.05v-1.17l-0.18-83.65l-1.64,2.27l-10.68,13.83
		c-1.6-1.46-5.59-5.49-6.42-12.42 M1983.5,307.13l-17.67,0.17h-8.13l0.08-0.14c0.64-0.29,1.24-0.61,1.81-0.96h22.82v-23.08
		c0.27-0.42,0.51-0.85,0.74-1.31l0.35-0.2L1983.5,307.13L1983.5,307.13z M1974.08,273.79c-1.16-1.12-2.87-1.82-4.07-1.82
		c0.8-1.53,1.62-3.09,2.4-4.66c0.07-0.15,0.15-0.29,0.22-0.44c0.78-1.58,1.64-3.3,1.71-5.19c0.55,0.09,1.33,0.2,2.44,0.33
		c0.71,1.25,3.8,9.43,3.38,14.82c-0.2,2.45-1.44,3.87-3.02,5.67l-0.25,0.28c-0.53,0.59-1.09,1.16-1.64,1.71
		c-1.33,1.34-2.71,2.74-3.55,4.62c-0.16,0.37-0.31,0.74-0.44,1.09l-2.24-3.41v-8.05c0.16-0.75,0.44-1.44,0.82-1.84
		c1.22-1.27,3.22-1.79,4.15-0.7s1.02,2.3,1.02,2.3S1975.75,275.39,1974.08,273.79z M1982.23,276.93c-0.51,3.83-2.58,6.11-4.76,8.52
		c-0.4,0.44-0.8,0.88-1.2,1.34c-2.13,2.45-3.09,4.68-2.89,6.59l-1.44-2.19c0.16-0.64,0.42-1.27,0.64-1.77
		c0.76-1.69,2.02-2.96,3.35-4.31c0.56-0.57,1.13-1.14,1.67-1.77l0.25-0.28c1.64-1.88,3.05-3.5,3.27-6.28
		c0.25-3.28-0.67-7.29-1.51-10.07c-0.4-1.36-0.89-2.74-1.35-3.9c-0.71-1.75-0.87-1.8-1.05-1.9l-0.05-0.02h-0.07
		c-1-0.13-2.09-0.28-2.82-0.39c-0.05-0.46-0.16-0.92-0.35-1.4c-0.22-0.59-0.49-1.16-0.75-1.69c1.76,0.94,3.42,1.33,4.31,1.47
		C1981.24,266.66,1982.81,272.55,1982.23,276.93z M1980.48,251.07l-1.58-8.42l-0.12-0.64l1.69-2.23v11.29H1980.48z M1975.36,295.43
		l0.74-1.08c-0.08-0.07-0.41-0.41-0.47-1.07c-0.07-0.87,0.27-2.39,2.35-4.79c0.38-0.44,0.78-0.88,1.16-1.31
		c0.36-0.4,0.73-0.8,1.09-1.22v8.94L1975.36,295.43z M1980.23,297.14v6.85h-6.75l0.65-6.19L1980.23,297.14z M1969.81,299.21
		c0.65,0.07,0.98,0.4,1.05,0.48l0.95-0.67l-0.52,4.97h-8.84c0.45-0.4,0.89-0.81,1.33-1.22c0.42-0.39,0.85-0.79,1.29-1.18
		C1967.46,299.49,1968.97,299.14,1969.81,299.21z M1983.94,229.64L1983.94,229.64v0.77v39.11l-1.45-7.77v-28.38l-6.55,8.61
		c-0.35-0.02-0.75-0.1-1.18-0.27L1983.94,229.64z M1969.03,238.53c1.04,2.32,2.36,3.96,3.96,4.9c1.51,0.88,2.93,0.98,3.91,0.87
		l2.55,13.55c-0.07-0.15-0.15-0.28-0.2-0.42l-0.29-0.57l-0.64-0.06c-0.02,0-2.2-0.18-4.45-1.51c-2.24-1.31-3.71-3.22-4.38-5.71
		c2.51,1.27,7.18,0.04,7.18,0.04s-2.84-0.26-4.91-2.17c-1.2-1.1-2.13-4.12-2.73-6.61L1969.03,238.53L1969.03,238.53z
		 M1969.03,254.11v0.05c0.89,1.27,1.65,2.36,1.65,2.36c0.16,0.24,0.33,0.57,0.47,0.88c0.05,0.11,0.09,0.2,0.15,0.31
		c0.07,0.17,0.15,0.31,0.24,0.48c0.25,0.53,0.53,1.09,0.73,1.62c0.78,2.15-0.2,4.12-1.24,6.2c-0.07,0.15-0.15,0.29-0.22,0.46
		c-0.58,1.18-1.18,2.34-1.78,3.5v-15.82c-0.01-0.02-0.02-0.03-0.04-0.05h0.04V254.11z M1967.34,295.57
		c0.64,0.42,1.31,0.85,1.98,1.27c-1.73,0.06-3.69,1.05-5.82,2.95c-0.45,0.41-0.89,0.81-1.33,1.22c-2.38,2.21-4.64,4.31-8.42,4.82
		c-4.33,0.59-10.15-0.98-17.8-4.82c-0.15-0.9-0.53-2.58-1.45-4.36c0.53,0.28,1.09,0.55,1.67,0.77c0.45,0.17,0.91,0.28,1.38,0.35
		c0.13,0.75,0.27,1.84,0.38,2.85v0.07l0.02,0.06c0.07,0.18,0.15,0.37,1.87,1.07c1.13,0.46,2.49,0.96,3.85,1.36
		c2.75,0.85,6.71,1.79,9.95,1.53c2.75-0.22,4.35-1.66,6.2-3.31l0.27-0.26c0.62-0.55,1.18-1.12,1.75-1.69
		c1.33-1.34,2.58-2.61,4.25-3.39C1966.44,295.88,1966.88,295.71,1967.34,295.57z M1950.59,297.52c1.58,1.69,4.65,0.94,4.65,0.94
		s-1.22-0.09-2.27-1.03c-1.07-0.94-0.56-2.96,0.69-4.2c0.4-0.39,1.07-0.64,1.82-0.83h7.25l0.09,0.13l0.22,0.15
		c0.02,0.02,1.42,0.94,3.27,2.15c-0.2,0.07-0.38,0.17-0.58,0.26c-1.85,0.85-3.22,2.25-4.56,3.61c-0.55,0.55-1.11,1.12-1.69,1.66
		l-0.27,0.26c-1.78,1.6-3.2,2.87-5.62,3.06c-5.33,0.42-13.4-2.71-14.64-3.42c-0.15-1.12-0.25-1.91-0.33-2.47
		c1.85-0.06,3.51-0.9,5.13-1.73c0.15-0.07,0.29-0.15,0.44-0.22c1.55-0.79,3.09-1.62,4.6-2.43
		C1948.79,294.63,1949.48,296.34,1950.59,297.52z M1946.84,292.4c-1.15,0.61-2.31,1.23-3.45,1.8c-0.15,0.07-0.29,0.15-0.45,0.22
		c-1.55,0.79-3.02,1.55-4.55,1.55c-0.55,0-1.07-0.09-1.58-0.29c-0.53-0.2-1.07-0.46-1.6-0.74c-0.16-0.07-0.31-0.15-0.47-0.24
		c-0.09-0.06-0.2-0.09-0.31-0.15c-0.29-0.11-0.6-0.26-0.85-0.44c0,0-1.18-0.85-2.38-1.71H1946.84z M1915.77,292.4h2.27
		c2.45,0.61,5.44,1.55,6.53,2.76c1.89,2.1,2.15,4.97,2.15,4.97s1.22-4.73-0.04-7.27c6.45,1.84,7.09,8.63,7.11,8.95l0.05,0.64
		l0.56,0.29c0.15,0.07,0.27,0.15,0.42,0.2l-13.38-2.58c0.11-0.99,0.02-2.43-0.85-3.96C1919.64,294.79,1918.04,293.45,1915.77,292.4z
		 M1928,304.03h-10.59l2.11-1.65L1928,304.03z M1919.05,298.44c0.15,0.45,0.21,0.87,0.21,1.23l-8.19,6.38h27.33l7.37,1.44h-38.34
		L1919.05,298.44z"/>
</g>
<g id="CORNER_BL">
	<path fill="#958F6B" d="M84.01,309.32l11.07-0.37l17.63,0.43c0,0,19.23-0.03,28.88,0.03c8.58,0.04,17.16,0.31,25.74,0.31
		c7.64,0,15.28-0.27,22.91-0.33c9.51-0.06,19.03,0.14,28.53-0.09c5.17-0.13,10.39,1.25,15.52-0.43c6.79,1.33,13.63,0.27,20.45,0.48
		c1.43,0.05,2.86,0.01,4.13,0.01c1.15-4.41,1.15-4.41,3.65-4.14L262,310c0.6,0.05,9.39-0.03,13,0v-29c-3.47,0.01-6.54,0.01-10,0
		c-1.88-0.01-3.28,0.58-3.99,2.31c-1.02,2.47-2.31,4.82-3.5,7.23c-1.11,0-1.91,0.02-2.7,0c-8.69-0.18-17.38-0.45-26.07-0.51
		c-4.4-0.03-8.82,0.49-13.22,0.46c-5.48-0.04-10.96-0.54-16.44-0.57c-11.23-0.06-22.46,0.03-33.69,0.1c-2.8,0.02-5.6,0.19-8.39,0.33
		c-0.35,0.02-0.68,0.34-1.02,0.52c0.49,1.02,0.95,1.97,1.55,3.21c-6.64-1.78-9-2.34-12.21,5.47c-2.01-4.76-2.01-4.76-1.38-8.03
		c3.04,0.36,6.18,1.37,9.59-0.8c-1.2-0.08-1.93-0.17-2.66-0.18c-4.96-0.09-9.91-0.18-14.86-0.26c-6.14-0.1-12.28-0.24-18.42-0.27
		c-7.5-0.04-15.01,0.57-22.52-0.09c-0.13-0.01-0.26-0.03-0.4-0.03c-6.69,0.04-13.39-0.02-20.09,0.15c-2.22,0.05-3.78-0.68-5.28-2.25
		c-4.24-4.47,2.41,2.38-1.91-2.02c-1.75-1.78-3.54-3.54-5.63-5.63c-0.31,2.42-0.55,4.3-0.89,6.99c-2.09-1.97-3.51-3.32-4.93-4.66
		c-0.2,0.21-0.39,0.42-0.59,0.63c9.07,9.26,7.15,7.28,16.34,16.64l-0.01,0.01c0.04,0.04,0.09,0.08,0.13,0.12
		c0.87,0.85,1.75,1.66,2.65,2.43c0.24-0.49,0.52-1.04,0.86-1.72c0.35,1.17,0.38,1.97,0.09,2.51L84.01,309.32z M129.98,308.14
		c-1.92-1.12-4.3-1.85-5.61-3.48c-1.29-1.59-1.48-4.08-2.15-6.18c0.3-0.14,0.6-0.27,0.9-0.41c1.09,1.67,2.04,3.46,3.31,4.97
		c1.26,1.5,2.84,2.71,4.28,4.04C130.46,307.44,130.22,307.79,129.98,308.14z M48.35,276.07c3.68,3.6,5.22,3.75,10.95,0.97
		c-2.04-0.51-3.38-0.86-5.5-1.39c2.71-1.79,0.81-2.84-0.22-3.93c-2.22-2.33-15.64-15.7-17.82-18.07c-0.83-0.91-1.59-2.18-1.74-3.37
		c-0.36-2.79-0.47-5.64-0.44-8.46c0.09-9.85,0.28-15.7,0.45-25.54c0.01-0.51,0.24-1.02,0.32-1.33c4.58-2.26,8.95-4.42,14-6.91
		l-2.21-1.18c-1.39-0.74-2.64-1.39-3.82-2.05l-0.08-0.04l-3.17-1.7c-1.69-0.63-3.28-0.47-4.81,1.2c-0.07,0.08-0.47-0.13-0.71-0.2
		c0.37-0.99,1.09-1.97,1.06-2.95c0-0.15-0.01-0.29-0.02-0.44L24,194L1.27,207.56c0.02,0.39,0.05,0.79,0.07,1.18
		c4.68,0.51,8.03,5.26,13.24,4.17c-0.01,0.19-0.01,0.48-0.01,0.93c0.04,7.94,0.46,21.27,0.5,29.74c0.62,0.24,1.18,0.61,1.59,1.14
		L48.35,276.07z M14.7,212.88c0.32-0.07,0.64-0.16,0.97-0.27c0.16-0.06,0.44,0.23,0.61,0.34C15.3,215.11,14.88,213.52,14.7,212.88z"
		/>
	<path fill="#25241B" stroke="#4B4835" stroke-miterlimit="10" d="M51.32,276.87c-1.38,0-2.51-1.13-2.51-2.51s1.13-2.51,2.51-2.51
		c1.38,0,2.51,1.13,2.51,2.51C53.83,275.75,52.7,276.87,51.32,276.87z"/>
	<path fill="#4b4835" d="M28,271.12c-0.25,0.04-0.49,0.11-0.76,0.22c-3.15,1.31-3.93,5.65-1.85,8.27c0.27,0.35,0.62,0.64,0.96,0.92
		c0.25,0.2,0.75,0.66,1.07,0.7c-1.45-0.22-3.04-0.52-4.27-1.4c-3.62-2.52-1.6-7.68-0.36-10.9c0.42-1.09,0.76-2.19,1.07-3.31
		c0.09-0.31,0.42-2.5,0.75-2.58l0.8-0.15l4.22,8.23C29.04,271.07,28.53,271.03,28,271.12z M60.39,298.34l-0.15,0.81
		c-0.05,0.33-2.24,0.68-2.55,0.75c-1.11,0.31-2.2,0.68-3.27,1.09c-3.2,1.23-8.29,3.3-10.78-0.37c-0.85-1.25-1.15-2.87-1.38-4.33
		c0.05,0.35,0.58,0.9,0.75,1.16c0.05,0.07,0.11,0.17,0.16,0.24c2.45,2.89,7.45,2.26,8.87-1.22c0.11-0.26,0.18-0.52,0.22-0.77
		c0.09-0.53,0.05-1.05,0-1.64L60.39,298.34z M16.6,229.31L16.6,229.31l0.01,0.78L16.6,229.31z M28,271.12
		c-0.25,0.04-0.49,0.11-0.76,0.22c-3.15,1.31-3.93,5.65-1.85,8.27c0.27,0.35,0.62,0.64,0.96,0.92c0.25,0.2,0.75,0.66,1.07,0.7
		c-1.45-0.22-3.04-0.52-4.27-1.4c-3.62-2.52-1.6-7.68-0.36-10.9c0.42-1.09,0.76-2.19,1.07-3.31c0.09-0.31,0.42-2.5,0.75-2.58
		l0.8-0.15l4.22,8.23C29.04,271.07,28.53,271.03,28,271.12z M60.39,298.34l-0.15,0.81c-0.05,0.33-2.24,0.68-2.55,0.75
		c-1.11,0.31-2.2,0.68-3.27,1.09c-3.2,1.23-8.29,3.3-10.78-0.37c-0.85-1.25-1.15-2.87-1.38-4.33c0.05,0.35,0.58,0.9,0.75,1.16
		c0.05,0.07,0.11,0.17,0.16,0.24c2.45,2.89,7.45,2.26,8.87-1.22c0.11-0.26,0.18-0.52,0.22-0.77c0.09-0.53,0.05-1.05,0-1.64
		L60.39,298.34z M28,271.12c-0.25,0.04-0.49,0.11-0.76,0.22c-3.15,1.31-3.93,5.65-1.85,8.27c0.27,0.35,0.62,0.64,0.96,0.92
		c0.25,0.2,0.75,0.66,1.07,0.7c-1.45-0.22-3.04-0.52-4.27-1.4c-3.62-2.52-1.6-7.68-0.36-10.9c0.42-1.09,0.76-2.19,1.07-3.31
		c0.09-0.31,0.42-2.5,0.75-2.58l0.8-0.15l4.22,8.23C29.04,271.07,28.53,271.03,28,271.12z M60.39,298.34l-0.15,0.81
		c-0.05,0.33-2.24,0.68-2.55,0.75c-1.11,0.31-2.2,0.68-3.27,1.09c-3.2,1.23-8.29,3.3-10.78-0.37c-0.85-1.25-1.15-2.87-1.38-4.33
		c0.05,0.35,0.58,0.9,0.75,1.16c0.05,0.07,0.11,0.17,0.16,0.24c2.45,2.89,7.45,2.26,8.87-1.22c0.11-0.26,0.18-0.52,0.22-0.77
		c0.09-0.53,0.05-1.05,0-1.64L60.39,298.34z M33.87,224.33v22.46h0.02c0,0.06-0.02,0.13-0.02,0.18v38.52
		c1.25-0.51,11.35-8.99,11.35-8.99l6.1-2.15l-3.25,5.1c0,0-7.97,8.8-8.29,9.4c-0.18,0.35-0.38,0.68-0.56,1.01h37.03
		c0.05,0,0.13-0.02,0.18-0.02v0.02h18.36l25.81,0.2l-12.16,2.25l-14.48-0.19c-7.03,0.87-10.16,2.77-11.56,4.42l13.41,10.62h12.63
		l11.57,2.21l-105.22-0.19v-0.05v-1.17l-0.07-83.65l1.9,2.27l10.68,13.83c1.6-1.46,5.59-5.49,6.42-12.42 M17.04,306.81l17.67,0.17
		h8.13l-0.08-0.14c-0.64-0.29-1.24-0.61-1.81-0.96H18.13V282.8c-0.27-0.42-0.51-0.85-0.74-1.31l-0.35-0.2
		C17.04,281.29,17.04,306.81,17.04,306.81z M26.46,273.46c1.16-1.12,2.87-1.82,4.07-1.82c-0.8-1.53-1.62-3.09-2.4-4.66
		c-0.07-0.15-0.15-0.29-0.22-0.44c-0.78-1.58-1.64-3.3-1.71-5.19c-0.55,0.09-1.33,0.2-2.44,0.33c-0.71,1.25-3.8,9.43-3.38,14.82
		c0.2,2.45,1.44,3.87,3.02,5.67l0.25,0.28c0.53,0.59,1.09,1.16,1.64,1.71c1.33,1.34,2.71,2.74,3.55,4.62
		c0.16,0.37,0.31,0.74,0.44,1.09l2.24-3.41v-8.05c-0.16-0.75-0.44-1.44-0.82-1.84c-1.22-1.27-3.22-1.79-4.15-0.7s-1.02,2.3-1.02,2.3
		S24.79,275.06,26.46,273.46z M18.31,276.61c0.51,3.83,2.58,6.11,4.76,8.52c0.4,0.44,0.8,0.88,1.2,1.34
		c2.13,2.45,3.09,4.68,2.89,6.59l1.44-2.19c-0.16-0.64-0.42-1.27-0.64-1.77c-0.76-1.69-2.02-2.96-3.35-4.31
		c-0.56-0.57-1.13-1.14-1.67-1.77l-0.25-0.28c-1.64-1.88-3.05-3.5-3.27-6.28c-0.25-3.28,0.67-7.29,1.51-10.07
		c0.4-1.36,0.89-2.74,1.35-3.9c0.71-1.75,0.87-1.8,1.05-1.9l0.05-0.02h0.07c1-0.13,2.09-0.28,2.82-0.39
		c0.05-0.46,0.16-0.92,0.35-1.4c0.22-0.59,0.49-1.16,0.75-1.69c-1.76,0.94-3.42,1.33-4.31,1.47
		C19.29,266.34,17.73,272.23,18.31,276.61z M20.06,250.75l1.58-8.42l0.12-0.64l-1.69-2.23v11.29H20.06z M25.18,295.1l-0.74-1.08
		c0.08-0.07,0.41-0.41,0.47-1.07c0.07-0.87-0.27-2.39-2.35-4.79c-0.38-0.44-0.78-0.88-1.16-1.31c-0.36-0.4-0.73-0.8-1.09-1.22v8.94
		L25.18,295.1z M20.31,296.82v6.85h6.75l-0.65-6.19L20.31,296.82z M30.73,298.89c-0.65,0.07-0.98,0.4-1.05,0.48l-0.95-0.67
		l0.52,4.97h8.84c-0.45-0.4-0.89-0.81-1.33-1.22c-0.42-0.39-0.85-0.79-1.29-1.18C33.08,299.16,31.57,298.81,30.73,298.89z
		 M16.6,229.31L16.6,229.31v0.77v39.11l1.45-7.77v-28.38l6.55,8.61c0.35-0.02,0.75-0.1,1.18-0.27L16.6,229.31z M31.51,238.21
		c-1.04,2.32-2.36,3.96-3.96,4.9c-1.51,0.88-2.93,0.98-3.91,0.87l-2.55,13.55c0.07-0.15,0.15-0.28,0.2-0.42l0.29-0.57l0.64-0.06
		c0.02,0,2.2-0.18,4.45-1.51c2.24-1.31,3.71-3.22,4.38-5.71c-2.51,1.27-7.18,0.04-7.18,0.04s2.84-0.26,4.91-2.17
		c1.2-1.1,2.13-4.12,2.73-6.61C31.51,240.52,31.51,238.21,31.51,238.21z M31.51,253.78v0.05c-0.89,1.27-1.65,2.36-1.65,2.36
		c-0.16,0.24-0.33,0.57-0.47,0.88c-0.05,0.11-0.09,0.2-0.15,0.31c-0.07,0.17-0.15,0.31-0.24,0.48c-0.25,0.53-0.53,1.09-0.73,1.62
		c-0.78,2.15,0.2,4.12,1.24,6.2c0.07,0.15,0.15,0.29,0.22,0.46c0.58,1.18,1.18,2.34,1.78,3.5v-15.82c0.01-0.02,0.02-0.03,0.04-0.05
		L31.51,253.78L31.51,253.78z M33.2,295.24c-0.64,0.42-1.31,0.85-1.98,1.27c1.73,0.06,3.69,1.05,5.82,2.95
		c0.45,0.41,0.89,0.81,1.33,1.22c2.38,2.21,4.64,4.31,8.42,4.82c4.33,0.59,10.15-0.98,17.8-4.82c0.15-0.9,0.53-2.58,1.45-4.36
		c-0.53,0.28-1.09,0.55-1.67,0.77c-0.45,0.17-0.91,0.28-1.38,0.35c-0.13,0.75-0.27,1.84-0.38,2.85v0.07l-0.02,0.06
		c-0.07,0.18-0.15,0.37-1.87,1.07c-1.13,0.46-2.49,0.96-3.85,1.36c-2.75,0.85-6.71,1.79-9.95,1.53c-2.75-0.22-4.35-1.66-6.2-3.31
		l-0.27-0.26c-0.62-0.55-1.18-1.12-1.75-1.69c-1.33-1.34-2.58-2.61-4.25-3.39C34.09,295.56,33.66,295.39,33.2,295.24z M49.95,297.19
		c-1.58,1.69-4.65,0.94-4.65,0.94s1.22-0.09,2.27-1.03c1.07-0.94,0.56-2.96-0.69-4.2c-0.4-0.39-1.07-0.64-1.82-0.83H37.8l-0.09,0.13
		l-0.22,0.15c-0.02,0.02-1.42,0.94-3.27,2.15c0.2,0.07,0.38,0.17,0.58,0.26c1.85,0.85,3.22,2.25,4.56,3.61
		c0.55,0.55,1.11,1.12,1.69,1.66l0.27,0.26c1.78,1.6,3.2,2.87,5.62,3.06c5.33,0.42,13.4-2.71,14.64-3.42
		c0.15-1.12,0.25-1.91,0.33-2.47c-1.85-0.06-3.51-0.9-5.13-1.73c-0.15-0.07-0.29-0.15-0.44-0.22c-1.55-0.79-3.09-1.62-4.6-2.43
		C51.75,294.3,51.06,296.02,49.95,297.19z M53.69,292.08c1.15,0.61,2.31,1.23,3.45,1.8c0.15,0.07,0.29,0.15,0.45,0.22
		c1.55,0.79,3.02,1.55,4.55,1.55c0.55,0,1.07-0.09,1.58-0.29c0.53-0.2,1.07-0.46,1.6-0.74c0.16-0.07,0.31-0.15,0.47-0.24
		c0.09-0.06,0.2-0.09,0.31-0.15c0.29-0.11,0.6-0.26,0.85-0.44c0,0,1.18-0.85,2.38-1.71H53.69z M84.77,292.08H82.5
		c-2.45,0.61-5.44,1.55-6.53,2.76c-1.89,2.1-2.15,4.97-2.15,4.97s-1.22-4.73,0.04-7.27c-6.45,1.84-7.09,8.63-7.11,8.95l-0.05,0.64
		l-0.56,0.29c-0.15,0.07-0.27,0.15-0.42,0.2l13.38-2.58c-0.11-0.99-0.02-2.43,0.85-3.96C80.89,294.47,82.49,293.13,84.77,292.08z
		 M72.53,303.71h10.59l-2.11-1.65L72.53,303.71z M81.49,298.12c-0.15,0.45-0.21,0.87-0.21,1.23l8.19,6.38H62.14l-7.37,1.44h38.34
		L81.49,298.12z"/>
</g>
<g id="TOP">
	<path fill="#958F6B" d="M1402.36,30.9c1.83,0.97,2.67,0.28,2.77-1.65C1404.21,29.8,1403.29,30.35,1402.36,30.9z M1359.76,27.48
		c0.89-1.83,1.59-3.27,2.34-4.81C1358.67,22.32,1358.09,23.51,1359.76,27.48z M1346.19,25.81c-0.63,0.9-1.06,1.49-1.46,2.08
		c0.51,0.35,1.06,1.02,1.52,0.96c0.45-0.06,1.04-0.84,1.1-1.36C1347.39,27.08,1346.76,26.58,1346.19,25.81z M1331.99,19.25
		c-0.31-0.03-0.61-0.06-0.91-0.09c-0.15,0.93-0.29,1.86-0.52,3.33C1332.83,21.45,1332.39,20.35,1331.99,19.25z M1220.92,28.04
		c-1.31,0.43-2.63,0.86-3.94,1.29c0.09,0.3,0.16,0.61,0.26,0.91c1.29-0.35,2.57-0.7,3.85-1.05
		C1221.04,28.8,1220.98,28.42,1220.92,28.04z M1182.08,21.34c2.05,0.94,3.15,1.07,4.14-1.45
		C1184.59,20.46,1183.63,20.79,1182.08,21.34z M1176.79,23.6c0.88,0.05,1.82,0.1,2.75,0.16C1177.45,22.1,1176.61,22.18,1176.79,23.6
		z M1149.6,26.16c1.34,1.2,2.12,1.89,3.09,2.76c0.56-1.08,0.9-1.75,1.42-2.76H1149.6z M1108.86,26.54c0.9,0.95,1.77,1.88,2.9,3.07
		c1.29-2.07,2.42-3.9,3.73-5.99C1112.01,22.66,1110.21,23.94,1108.86,26.54z M1402.36,30.9c1.83,0.97,2.67,0.28,2.77-1.65
		C1404.21,29.8,1403.29,30.35,1402.36,30.9z M1359.76,27.48c0.89-1.83,1.59-3.27,2.34-4.81
		C1358.67,22.32,1358.09,23.51,1359.76,27.48z M1344.73,27.89c0.51,0.35,1.06,1.02,1.52,0.96c0.45-0.06,1.04-0.84,1.1-1.36
		c0.04-0.41-0.59-0.91-1.16-1.68C1345.56,26.71,1345.13,27.3,1344.73,27.89z M1331.08,19.16c-0.15,0.93-0.29,1.86-0.52,3.33
		c2.27-1.04,1.83-2.14,1.43-3.24C1331.68,19.22,1331.38,19.19,1331.08,19.16z M1216.98,29.33c0.09,0.3,0.16,0.61,0.26,0.91
		c1.29-0.35,2.57-0.7,3.85-1.05c-0.05-0.39-0.11-0.77-0.17-1.15C1219.61,28.47,1218.29,28.9,1216.98,29.33z M1186.22,19.89
		c-1.63,0.57-2.59,0.9-4.14,1.45C1184.13,22.28,1185.23,22.41,1186.22,19.89z M1176.79,23.6c0.88,0.05,1.82,0.1,2.75,0.16
		C1177.45,22.1,1176.61,22.18,1176.79,23.6z M1152.69,28.92c0.56-1.08,0.9-1.75,1.42-2.76h-4.51
		C1150.94,27.36,1151.72,28.05,1152.69,28.92z M1108.86,26.54c0.9,0.95,1.77,1.88,2.9,3.07c1.29-2.07,2.42-3.9,3.73-5.99
		C1112.01,22.66,1110.21,23.94,1108.86,26.54z M1002,34c0,0,0.01,0,0.06-0.01L1002,34L1002,34z M541.2,15.18
		c4.26,1.92,4.26,1.92,4.62-0.5C544.23,14.85,542.71,15.02,541.2,15.18z M1002.08,33.99C1003.98,34,1005,34,1005,34v-0.07
		C1002.93,33.91,1002.27,33.96,1002.08,33.99z M1515.38,14.74c-2.67-0.2-5.35-0.31-8.02-0.58c-5.68-0.56-11.27,1.22-16.98,0.42
		c-2.75-0.39-5.58,0.02-8.37-0.01c-8.44-0.1-16.88-0.34-25.31-0.33c-8.53,0-17.07,0.29-25.58,0.33c-7.51,0.03-15.02-0.11-22.52-0.18
		c-1.88-0.01-3.76,0.08-5.63-0.07c-1.7-0.13-3.18,2.28-5.03,0.41c-0.12-0.13-0.87,0.08-1.07,0.34c-1.62,2.06-3.58,1.11-5.42,0.48
		c-1.76,1.62-3.16,3.86-5.92,2.05c-0.3-0.19-1.17,0.71-1.73,0.66c-2.03-0.17-3.62,2.51-5.78,1.02v-4.5
		c-1.89-0.15-3.72-0.42-5.54-0.42c-12.48,0-24.97,0.32-37.44-0.07c-4.19-0.13-7.25,0.68-9.62,4.03c-0.33,0.47-0.63,0.98-1.12,1.73
		c-0.6-0.74-1.06-1.08-1.22-1.53c-0.96-2.7-3.41-3.63-5.71-3.81c-6.11-0.46-12.25-0.59-18.38-0.57c-9.11,0.03-18.2,0.41-27.3,0.43
		c-7.35,0.02-14.7-0.38-22.06-0.4c-5.71-0.02-11.43,0.41-17.14,0.39c-6.68-0.02-13.36-0.4-20.02-0.48
		c-7.76-0.09-15.53-0.02-23.29-0.01c-1.07,0-2.14,0.12-3.22,0.13c-3.74,0.05-7.49,0.09-11.24,0.1c-3.85,0.01-7.7-0.06-11.55-0.02
		c-6.02,0.08-12.02,0.26-18.03,0.32c-4.25,0.05-8.5,0.02-12.75-0.04c-4.41-0.06-8.83-0.21-13.26-0.29
		c-3.45-0.07-6.92-0.16-10.38-0.1c-3.72,0.07-7.44,0.43-11.16,0.41c-5.33-0.03-10.67-0.43-16-0.41c-8.31,0.02-16.61,0.38-24.91,0.4
		c-10.58,0.03-21.15-0.16-31.72-0.22C1018.27,14.31,1002,15,1002,15c-25.68,0.02-207.62,0.17-211.81,0.2
		c-4.93,0.02-9.86,0.12-14.8,0.12c-3.05-0.01-6.11-0.15-9.16-0.22c-5.73-0.12-11.45-0.35-17.17-0.32
		c-6.14,0.04-12.28,0.45-18.42,0.5c-3.75,0.02-7.5-0.48-11.25-0.48c-7.73,0.02-15.46,0.24-23.2,0.34
		c-5.75,0.08-11.51,0.16-17.26,0.17c-6.15,0.01-12.31-0.01-18.47-0.1c-5.73-0.09-11.46-0.42-17.2-0.4
		c-8.41,0.03-16.82,0.35-25.24,0.42c-8.7,0.08-17.4,0.07-26.1,0c-5.73-0.04-11.45-0.3-17.19-0.35c-5.59-0.05-11.19-0.04-16.78,0.09
		c-1.84,0.05-3.69,0.47-5.5,0.83c-1.43,0.27-2.84,0.7-4.66,1.16v4.64c-1.52,0.21-2.37,1.16-2.07,2.94c0.25,1.56-0.03,2.88-1.64,3.58
		c-3.17-0.42-4.74-2.56-5.53-4.04v-8.94H290.74L275,15v19l15.32-0.15c0,0,4.4,0.4,6.39,0.4c4.92,0,9.85-0.13,14.78-0.19
		c10.12-0.11,20.26-0.24,30.38-0.28c2.68-0.02,5.35,0.4,8.01,0.36c7.06-0.09,14.11-0.36,21.16-0.48c4.4-0.07,8.81,0.03,13.21,0.05
		c2.28,0.01,4.55-0.04,6.83,0.03c4.51,0.14,9.03,0.48,13.54,0.48c8.4,0.01,16.8-0.22,25.2-0.26c3.74-0.02,7.48,0.29,11.22,0.23
		c7.21-0.11,14.41-0.51,21.61-0.52c9.92-0.03,19.84,0.24,29.75,0.29c9.08,0.05,18.17-0.08,27.24-0.05
		c6.91,0.02,13.83,0.23,20.74,0.27c2.06,0.01,4.11-0.28,6.17-0.44c-0.24-1.58-0.43-2.82-0.63-4.06c2.98-0.33,2.98-0.33,6.19,4.15
		c23.09,0,46.3,0.16,69.5-0.05c23.1-0.23,46.21,0.76,69.42-0.66c-1.15-0.66-2.3-1.32-3.68-2.11c3.53-1.36,4.01-1.12,5.95,2.67
		c5.35,0.17,10.8,0.42,16.25,0.48c3.99,0.05,8-0.24,12-0.24c4.01,0,8.01,0.3,12.01,0.26c4.28-0.05,8.54-0.49,12.81-0.5
		c8.27-0.02,16.55,0.12,24.83,0.22c2,0.02,3.99,0.28,5.99,0.28c4.26,0.02,8.53-0.04,12.8-0.11c2.77-0.05,5.55-0.02,8.31-0.31
		c4.05-0.43,178.57,0.15,203.7,0.23h0.06c0,0,0.01,0,0.02,0c0.19-0.03,0.85-0.08,2.92-0.06c0.78,0.01,1.77,0.03,3,0.07
		c0.53,0.02,7.5,0.1,8,0c3.04-0.59,2.19,0.58,4.88-2.28c1.25,3.2,3.82,2.2,5.94,2.16c6.41-0.12,12.81-0.55,19.23-0.57
		c10.2-0.02,20.39,0.22,30.58,0.29c2.54,0.02,5.08-0.28,7.61-0.26c4.68,0.04,9.35,0.22,14.03,0.32c3.48,0.08,6.97,0.2,10.45,0.17
		c3.85-0.03,7.7-0.32,11.55-0.31c4.13,0.01,8.28,0.34,12.42,0.34c2.74,0,5.48-0.34,8.02-0.51c0.93-2.28-0.74-5.33,2.99-5.89v5.77
		c5.58,0.2,11.05,0.5,16.52,0.57c4,0.05,8.01-0.3,12.01-0.27c5.75,0.04,11.49,0.4,17.24,0.38c4.15-0.02,8.29-0.48,12.45-0.67
		c2.38-0.11,4.7,0.22,6.68-1.92c1.24-1.35,2.5-0.44,3.08,2.22c5.95,0,11.96,0.02,17.97-0.01c4.96-0.03,9.91-0.2,14.85-0.17
		c6.42,0.03,12.84,0.23,19.26,0.27c3.35,0.02,6.71-0.22,10.06-0.21c6.95,0.03,13.91,0.18,20.86,0.22c8.7,0.04,17.42-0.01,26.13,0.03
		c7.07,0.04,14.15,0.27,21.22,0.21c8.44-0.07,16.86-0.49,25.3-0.52c9.67-0.03,19.35,0.19,29.02,0.31c1.87,0.03,3.75,0.2,5.63,0.18
		c7.32-0.08,14.64-0.23,21.96-0.29c5.99-0.06,11.98-0.03,17.96-0.03c3.19,0,6.38-0.02,9.56,0.04c4.28,0.08,8.57,0.37,12.85,0.31
		c6.16-0.08,12.31-0.52,18.47-0.57c9.6-0.08,19.22,0.01,28.83,0.12c2.64,0.03,7.53,0.59,7.53,0.59L1725,34V15
		C1725,15,1517.59,14.9,1515.38,14.74z M562.7,24.98c-0.27,0.45-1.68,0.82-2,0.55c-1.95-1.66-3.79-3.46-5.52-5.34
		c-0.22-0.23,0.43-1.23,0.65-1.81c1.89,1.34,3.22,2.31,4.58,3.23c0.64,0.45,1.55,0.69,1.98,1.28C562.78,23.43,563,24.5,562.7,24.98z
		 M655.74,27.59v-7.47c0.28-0.02,0.56-0.03,0.84-0.04C657.82,22.62,657.48,25.12,655.74,27.59z M767.85,20.66
		c0.32-2.17,1.4-2.92,3.91-2.88C770.9,19.76,769.95,20.71,767.85,20.66z M789.57,31.08c-0.1-0.88-0.2-1.78-0.33-2.9
		C791.13,28.93,791.37,29.82,789.57,31.08z M1111.76,29.61c-1.13-1.19-2-2.12-2.9-3.07c1.35-2.6,3.15-3.88,6.63-2.92
		C1114.18,25.71,1113.05,27.54,1111.76,29.61z M1152.69,28.92c-0.97-0.87-1.75-1.56-3.09-2.76h4.51
		C1153.59,27.17,1153.25,27.84,1152.69,28.92z M1176.79,23.6c-0.18-1.42,0.66-1.5,2.75,0.16
		C1178.61,23.7,1177.67,23.65,1176.79,23.6z M1182.08,21.34c1.55-0.55,2.51-0.88,4.14-1.45
		C1185.23,22.41,1184.13,22.28,1182.08,21.34z M1217.24,30.24c-0.1-0.3-0.17-0.61-0.26-0.91c1.31-0.43,2.63-0.86,3.94-1.29
		c0.06,0.38,0.12,0.76,0.17,1.15C1219.81,29.54,1218.53,29.89,1217.24,30.24z M1330.56,22.49c0.23-1.47,0.37-2.4,0.52-3.33
		c0.3,0.03,0.6,0.06,0.91,0.09C1332.39,20.35,1332.83,21.45,1330.56,22.49z M1346.25,28.85c-0.46,0.06-1.01-0.61-1.52-0.96
		c0.4-0.59,0.83-1.18,1.46-2.08c0.57,0.77,1.2,1.27,1.16,1.68C1347.29,28.01,1346.7,28.79,1346.25,28.85z M1359.76,27.48
		c-1.67-3.97-1.09-5.16,2.34-4.81C1361.35,24.21,1360.65,25.65,1359.76,27.48z M1402.36,30.9c0.93-0.55,1.85-1.1,2.77-1.65
		C1405.03,31.18,1404.19,31.87,1402.36,30.9z"/>
</g>
<g id="CORNER_TR">
	<path fill="#958F6B" d="M1925.74,21.28c-0.29,0.58-0.63,1.24-1.06,2.12c-0.47-1.56-0.37-2.46,0.33-2.94
		c-1.57-1.81-3.91-3.32-5.01-5.46c-5.33,0.03-9.65-0.09-14.98-0.09c-5.88,0.01-19.19-0.3-25.08-0.29
		c-9.65,0.01-11.88,0.03-21.53-0.03c-8.58-0.04-17.16-0.31-25.74-0.31c-7.64,0-15.28,0.27-22.91,0.33
		c-9.51,0.06-19.03-0.14-28.53,0.09c-5.17,0.13-10.39-1.25-15.52,0.43c-5.23-1.02-15.32-0.49-15.58-0.49
		c-1.15,4.41-1.15,4.41-3.65,4.14v-4.06c-0.08-0.01-2.97,0.03-6.6,0.08L1725,15v19l15,0.14v-0.55c2.84-0.08,5.01-0.14,5.19-0.13
		c8.69,0.18,17.38,0.45,26.07,0.51c4.4,0.03,8.82-0.49,13.22-0.46c5.48,0.04,10.96,0.54,16.44,0.57c11.23,0.06,22.46-0.03,33.69-0.1
		c2.8-0.02,5.6-0.19,8.39-0.33c0.35-0.02,0.68-0.34,1.02-0.52c-0.49-1.02-0.95-1.98-1.55-3.22c6.64,1.79,9,2.34,12.21-5.47
		c2.01,4.76,2.01,4.76,1.38,8.03c-3.04-0.36-6.18-1.37-9.59,0.8c1.2,0.08,1.93,0.17,2.66,0.18c4.96,0.09,9.91,0.18,14.86,0.26
		c6.14,0.1,12.28,0.24,18.42,0.27c7.5,0.04,15.01-0.57,22.52,0.09c0.13,0.01,0.26,0.03,0.4,0.03c6.69-0.04,13.39,0.02,20.09-0.15
		c2.22-0.05,3.78,0.68,5.28,2.25c4.24,4.47,16.46,17.02,20.78,21.42c1.75,1.78,3.54,3.54,5.63,5.63c0.31-2.42,0.55-4.3,0.89-6.99
		c2.09,1.97,3.51,3.32,4.93,4.66c0.2-0.21,0.39-0.42,0.59-0.63c-9.07-9.26-26.02-26.68-35.21-36.04 M1876.88,25.92
		c-1.09-1.67-2.04-3.45-3.31-4.96c-1.26-1.5-2.84-2.71-4.28-4.04c0.25-0.36,0.49-0.71,0.73-1.06c1.92,1.12,4.3,1.85,5.61,3.47
		c1.29,1.6,1.48,4.08,2.15,6.18C1877.48,25.65,1877.18,25.78,1876.88,25.92z M1985.42,104.16c0.01,3.66-0.12,1.41-1.7,4.89
		c0.17,0.11,0.45,0.4,0.61,0.34c5.85-2.05,9.33,3.33,14.33,3.87c0.02,0.39,0.05,0.79,0.07,1.18l-1.58,0.85
		c-3.7,2-7.46,4.01-11.68,6.28v0.08L1976,130l-10.59-8.67c-0.01-0.15-0.02-0.29-0.02-0.44c-0.03-0.98,0.69-1.97,1.06-2.96
		c-0.24-0.07-0.64-0.28-0.71-0.2c-1.53,1.68-3.12,1.84-4.81,1.2l-3.17-1.7l-0.08-0.04c-1.18-0.66-2.43-1.31-3.82-2.05l-2.21-1.17
		c5.05-2.49,9.42-4.66,14-6.92c0.08-0.31,0.31-2.81,0.32-3.33c0.17-9.84,0.36-11.68,0.45-21.54c0.03-2.82-0.08-5.67-0.44-8.46
		c-0.15-1.19-3.62-4.17-0.91-5.97c-2.12-0.53-3.46-0.87-5.5-1.39c5.73-2.78,7.27-2.63,10.95,0.97l14.4,14.67L1985.42,104.16z"/>
	<path fill="#25241B" stroke="#4B4835" stroke-miterlimit="10" d="M1948.62,52.15c-1.38,0-2.51-1.13-2.51-2.51
		c0-1.38,1.13-2.51,2.51-2.51s2.51,1.13,2.51,2.51C1951.13,51.03,1950,52.15,1948.62,52.15z"/>
	<path fill="#4b4835" d="M1971.93,52.87c0.25-0.04,0.49-0.11,0.76-0.22c3.15-1.31,3.93-5.65,1.85-8.27
		c-0.27-0.35-0.62-0.64-0.96-0.92c-0.25-0.2-0.75-0.66-1.07-0.7c1.45,0.22,3.04,0.52,4.27,1.4c3.62,2.52,1.6,7.68,0.36,10.9
		c-0.42,1.09-0.76,2.19-1.07,3.31c-0.09,0.31-0.42,2.5-0.75,2.58l-0.8,0.15l-4.22-8.23C1970.89,52.93,1971.4,52.97,1971.93,52.87z
		 M1939.55,25.66l0.15-0.81c0.05-0.33,2.24-0.68,2.55-0.75c1.11-0.31,2.2-0.68,3.27-1.09c3.2-1.23,8.29-3.3,10.78,0.37
		c0.85,1.25,1.15,2.87,1.38,4.33c-0.05-0.35-0.58-0.9-0.75-1.16c-0.05-0.07-0.11-0.17-0.16-0.24c-2.45-2.89-7.45-2.26-8.87,1.22
		c-0.11,0.26-0.18,0.52-0.22,0.77c-0.09,0.53-0.05,1.05,0,1.64L1939.55,25.66z M1983.34,94.69L1983.34,94.69l-0.01-0.78
		L1983.34,94.69z M1971.93,52.87c0.25-0.04,0.49-0.11,0.76-0.22c3.15-1.31,3.93-5.65,1.85-8.27c-0.27-0.35-0.62-0.64-0.96-0.92
		c-0.25-0.2-0.75-0.66-1.07-0.7c1.45,0.22,3.04,0.52,4.27,1.4c3.62,2.52,1.6,7.68,0.36,10.9c-0.42,1.09-0.76,2.19-1.07,3.31
		c-0.09,0.31-0.42,2.5-0.75,2.58l-0.8,0.15l-4.22-8.23C1970.89,52.93,1971.4,52.97,1971.93,52.87z M1939.55,25.66l0.15-0.81
		c0.05-0.33,2.24-0.68,2.55-0.75c1.11-0.31,2.2-0.68,3.27-1.09c3.2-1.23,8.29-3.3,10.78,0.37c0.85,1.25,1.15,2.87,1.38,4.33
		c-0.05-0.35-0.58-0.9-0.75-1.16c-0.05-0.07-0.11-0.17-0.16-0.24c-2.45-2.89-7.45-2.26-8.87,1.22c-0.11,0.26-0.18,0.52-0.22,0.77
		c-0.09,0.53-0.05,1.05,0,1.64L1939.55,25.66z M1971.93,52.87c0.25-0.04,0.49-0.11,0.76-0.22c3.15-1.31,3.93-5.65,1.85-8.27
		c-0.27-0.35-0.62-0.64-0.96-0.92c-0.25-0.2-0.75-0.66-1.07-0.7c1.45,0.22,3.04,0.52,4.27,1.4c3.62,2.52,1.6,7.68,0.36,10.9
		c-0.42,1.09-0.76,2.19-1.07,3.31c-0.09,0.31-0.42,2.5-0.75,2.58l-0.8,0.15l-4.22-8.23C1970.89,52.93,1971.4,52.97,1971.93,52.87z
		 M1939.55,25.66l0.15-0.81c0.05-0.33,2.24-0.68,2.55-0.75c1.11-0.31,2.2-0.68,3.27-1.09c3.2-1.23,8.29-3.3,10.78,0.37
		c0.85,1.25,1.15,2.87,1.38,4.33c-0.05-0.35-0.58-0.9-0.75-1.16c-0.05-0.07-0.11-0.17-0.16-0.24c-2.45-2.89-7.45-2.26-8.87,1.22
		c-0.11,0.26-0.18,0.52-0.22,0.77c-0.09,0.53-0.05,1.05,0,1.64L1939.55,25.66z M1965.91,99.67l0.15-22.46h-0.02
		c0-0.06,0.02-0.13,0.02-0.18V38.51c-1.25,0.51-11.35,8.99-11.35,8.99l-6.1,2.15l3.25-5.1c0,0,7.97-8.8,8.29-9.4
		c0.18-0.35,0.38-0.68,0.56-1.01h-37.03c-0.05,0-0.13,0.02-0.18,0.02v-0.02h-18.36l-25.81-0.2l12.16-2.25l14.48,0.19
		c7.03-0.87,10.16-2.77,11.56-4.42l-13.41-10.62h-12.63l-11.57-2.21l105.22,0.19v0.05v1.17l0.17,83.65l-2-2.27l-10.68-13.83
		c-1.6,1.46-5.59,5.49-6.42,12.42 M1982.89,17.19l-17.67-0.17h-8.13l0.08,0.14c0.64,0.29,1.24,0.61,1.81,0.96h22.82V41.2
		c0.27,0.42,0.51,0.85,0.74,1.31l0.35,0.2L1982.89,17.19L1982.89,17.19z M1973.48,50.54c-1.16,1.12-2.87,1.82-4.07,1.82
		c0.8,1.53,1.62,3.09,2.4,4.66c0.07,0.15,0.15,0.29,0.22,0.44c0.78,1.58,1.64,3.3,1.71,5.19c0.55-0.09,1.33-0.2,2.44-0.33
		c0.71-1.25,3.8-9.43,3.38-14.82c-0.2-2.45-1.44-3.87-3.02-5.67l-0.25-0.28c-0.53-0.59-1.09-1.16-1.64-1.71
		c-1.33-1.34-2.71-2.74-3.55-4.62c-0.16-0.37-0.31-0.74-0.44-1.09l-2.24,3.41v8.05c0.16,0.75,0.44,1.44,0.82,1.84
		c1.22,1.27,3.22,1.79,4.15,0.7s1.02-2.3,1.02-2.3S1975.15,48.94,1973.48,50.54z M1981.62,47.39c-0.51-3.83-2.58-6.11-4.76-8.52
		c-0.4-0.44-0.8-0.88-1.2-1.34c-2.13-2.45-3.09-4.68-2.89-6.59l-1.44,2.19c0.16,0.64,0.42,1.27,0.64,1.77
		c0.76,1.69,2.02,2.96,3.35,4.31c0.56,0.57,1.13,1.14,1.67,1.77l0.25,0.28c1.64,1.88,3.05,3.5,3.27,6.28
		c0.25,3.28-0.67,7.29-1.51,10.07c-0.4,1.36-0.89,2.74-1.35,3.9c-0.71,1.75-0.87,1.8-1.05,1.9l-0.05,0.02h-0.07
		c-1,0.13-2.09,0.28-2.82,0.39c-0.05,0.46-0.16,0.92-0.35,1.4c-0.22,0.59-0.49,1.16-0.75,1.69c1.76-0.94,3.42-1.33,4.31-1.47
		C1980.64,57.66,1982.2,51.77,1981.62,47.39z M1979.88,73.25l-1.58,8.42l-0.12,0.64l1.69,2.23V73.25H1979.88z M1974.75,28.9
		l0.74,1.08c-0.08,0.07-0.41,0.41-0.47,1.07c-0.07,0.87,0.27,2.39,2.35,4.79c0.38,0.44,0.78,0.88,1.16,1.31
		c0.36,0.4,0.73,0.8,1.09,1.22v-8.94L1974.75,28.9z M1979.62,27.18v-6.85h-6.75l0.65,6.19L1979.62,27.18z M1969.2,25.11
		c0.65-0.07,0.98-0.4,1.05-0.48l0.95,0.67l-0.52-4.97h-8.84c0.45,0.4,0.89,0.81,1.33,1.22c0.42,0.39,0.85,0.79,1.29,1.18
		C1966.86,24.84,1968.37,25.19,1969.2,25.11z M1983.33,94.69L1983.33,94.69v-0.77V54.81l-1.45,7.77v28.38l-6.55-8.61
		c-0.35,0.02-0.75,0.1-1.18,0.27L1983.33,94.69z M1968.42,85.79c1.04-2.32,2.36-3.96,3.96-4.9c1.51-0.88,2.93-0.98,3.91-0.87
		l2.55-13.55c-0.07,0.15-0.15,0.28-0.2,0.42l-0.29,0.57l-0.64,0.06c-0.02,0-2.2,0.18-4.45,1.51c-2.24,1.31-3.71,3.22-4.38,5.71
		c2.51-1.27,7.18-0.04,7.18-0.04s-2.84,0.26-4.91,2.17c-1.2,1.1-2.13,4.12-2.73,6.61L1968.42,85.79L1968.42,85.79z M1968.42,70.22
		v-0.05c0.89-1.27,1.65-2.36,1.65-2.36c0.16-0.24,0.33-0.57,0.47-0.88c0.05-0.11,0.09-0.2,0.15-0.31c0.07-0.17,0.15-0.31,0.24-0.48
		c0.25-0.53,0.53-1.09,0.73-1.62c0.78-2.15-0.2-4.12-1.24-6.2c-0.07-0.15-0.15-0.29-0.22-0.46c-0.58-1.18-1.18-2.34-1.78-3.5v15.82
		c-0.01,0.02-0.02,0.03-0.04,0.05L1968.42,70.22L1968.42,70.22z M1966.73,28.76c0.64-0.42,1.31-0.85,1.98-1.27
		c-1.73-0.06-3.69-1.05-5.82-2.95c-0.45-0.41-0.89-0.81-1.33-1.22c-2.38-2.21-4.64-4.31-8.42-4.82c-4.33-0.59-10.15,0.98-17.8,4.82
		c-0.15,0.9-0.53,2.58-1.45,4.36c0.53-0.28,1.09-0.55,1.67-0.77c0.45-0.17,0.91-0.28,1.38-0.35c0.13-0.75,0.27-1.84,0.38-2.85v-0.07
		l0.02-0.06c0.07-0.18,0.15-0.37,1.87-1.07c1.13-0.46,2.49-0.96,3.85-1.36c2.75-0.85,6.71-1.79,9.95-1.53
		c2.75,0.22,4.35,1.66,6.2,3.31l0.27,0.26c0.62,0.55,1.18,1.12,1.75,1.69c1.33,1.34,2.58,2.61,4.25,3.39
		C1965.84,28.44,1966.28,28.61,1966.73,28.76z M1949.99,26.81c1.58-1.69,4.65-0.94,4.65-0.94s-1.22,0.09-2.27,1.03
		c-1.07,0.94-0.56,2.96,0.69,4.2c0.4,0.39,1.07,0.64,1.82,0.83h7.25l0.09-0.13l0.22-0.15c0.02-0.02,1.42-0.94,3.27-2.15
		c-0.2-0.07-0.38-0.17-0.58-0.26c-1.85-0.85-3.22-2.25-4.56-3.61c-0.55-0.55-1.11-1.12-1.69-1.66l-0.27-0.26
		c-1.78-1.6-3.2-2.87-5.62-3.06c-5.33-0.42-13.4,2.71-14.64,3.42c-0.15,1.12-0.25,1.91-0.33,2.47c1.85,0.06,3.51,0.9,5.13,1.73
		c0.15,0.07,0.29,0.15,0.44,0.22c1.55,0.79,3.09,1.62,4.6,2.43C1948.19,29.7,1948.88,27.98,1949.99,26.81z M1946.24,31.92
		c-1.15-0.61-2.31-1.23-3.45-1.8c-0.15-0.07-0.29-0.15-0.45-0.22c-1.55-0.79-3.02-1.55-4.55-1.55c-0.55,0-1.07,0.09-1.58,0.29
		c-0.53,0.2-1.07,0.46-1.6,0.74c-0.16,0.07-0.31,0.15-0.47,0.24c-0.09,0.06-0.2,0.09-0.31,0.15c-0.29,0.11-0.6,0.26-0.85,0.44
		c0,0-1.18,0.85-2.38,1.71C1930.6,31.92,1946.24,31.92,1946.24,31.92z M1915.17,31.92h2.27c2.45-0.61,5.44-1.55,6.53-2.76
		c1.89-2.1,2.15-4.97,2.15-4.97s1.22,4.73-0.04,7.27c6.45-1.84,7.09-8.63,7.11-8.95l0.05-0.64l0.56-0.29
		c0.15-0.07,0.27-0.15,0.42-0.2l-13.38,2.58c0.11,0.99,0.02,2.43-0.85,3.96C1919.04,29.53,1917.44,30.87,1915.17,31.92z
		 M1927.4,20.29h-10.59l2.11,1.65L1927.4,20.29z M1918.44,25.88c0.15-0.45,0.21-0.87,0.21-1.23l-8.19-6.38h27.33l7.37-1.44h-38.34
		L1918.44,25.88z"/>
</g>
<g id="CORNER_TL">
	<path fill="#958F6B" d="M74.25,34.05c-1.56,0.01-3.37,0.31-4.51,1.49c-4.28,4.44-8.72,8.72-13.1,13.07
		c-1.89,1.88-3.79,3.76-5.68,5.64c-5.12,5.12-10.2,10.27-15.37,15.33c-2.61,2.56-2.29,5.73-2.26,8.92
		c0.05,6.22,0.58,17.28,0.58,17.28l0.01,0.12c0.08,4.86-0.01,0.82,0.07,5.68c0.01,0.51-0.12,6.17-0.04,6.48
		c4.58,2.25,8.95,4.41,14,6.89l-2.21,1.17c-1.39,0.73-2.64,1.39-3.82,2.04l-0.08,0.04l-3.17,1.7l-4.48,2.39L30,124.95L24,130
		l-6.42-5.05L0.92,114.72l12.84-6.15l0.61-0.34l0.17-8.56l0.04-20.39L80.78,15l17.55-0.26c0,0,12.14,0.01,14.82-0.02
		c7.63-0.07,15.26-0.21,22.89-0.24c2.67-0.01,5.34,0.35,8.01,0.33c7.46-0.04,14.93-0.23,22.4-0.26c3.6-0.02,7.21,0.29,10.81,0.26
		c5.58-0.05,11.16-0.35,16.74-0.37c3.74-0.02,7.48,0.41,11.22,0.37c6.43-0.06,12.85-0.48,19.28-0.47c7.35,0.01,14.7,0.39,22.06,0.47
		c2.4,0.03,13.48,0.2,13.48,0.2l15-0.06v19l-15,0.14c0,0-15.94,0.09-18.37,0.07c-4.67-0.05-9.33-0.29-13.99-0.3
		c-4.55,0-9.1,0.19-13.66,0.28c-2.28,0.04-4.59,0.29-6.84,0.03c-4.16-0.47-8.25-0.62-12.43-0.01c-2.33,0.34-4.8-0.37-7.2-0.38
		c-6.44-0.02-12.88,0.1-19.32,0.15c-3.87,0.03-7.73,0.05-11.6,0.03c-10.03-0.04-20.06-0.11-30.09-0.14L74.25,34.05"/>
	<path fill="#25241B" stroke="#4B4835" stroke-miterlimit="10" d="M50.25,52.15c-1.38,0-2.51-1.13-2.51-2.51
		c0-1.38,1.13-2.51,2.51-2.51c1.38,0,2.51,1.13,2.51,2.51C52.76,51.03,51.63,52.15,50.25,52.15z"/>
	<path fill="#4b4835" d="M27.94,52.87c-0.25-0.04-0.49-0.11-0.76-0.22c-3.15-1.31-3.93-5.65-1.85-8.27
		c0.27-0.35,0.62-0.64,0.96-0.92c0.25-0.2,0.75-0.66,1.07-0.7c-1.45,0.22-3.04,0.52-4.27,1.4c-3.62,2.52-1.6,7.68-0.36,10.9
		c0.42,1.09,0.76,2.19,1.07,3.31c0.09,0.31,0.42,2.5,0.75,2.58l0.8,0.15l4.22-8.23C28.98,52.93,28.47,52.97,27.94,52.87z
		 M60.32,25.66l-0.15-0.81c-0.05-0.33-2.24-0.68-2.55-0.75c-1.11-0.31-2.2-0.68-3.27-1.09c-3.2-1.23-8.29-3.3-10.78,0.37
		c-0.85,1.25-1.15,2.87-1.38,4.33c0.05-0.35,0.58-0.9,0.75-1.16c0.05-0.07,0.11-0.17,0.16-0.24c2.45-2.89,7.45-2.26,8.87,1.22
		c0.11,0.26,0.18,0.52,0.22,0.77c0.09,0.53,0.05,1.05,0,1.64L60.32,25.66z M16.53,94.69L16.53,94.69l0.01-0.78L16.53,94.69z
		 M27.94,52.87c-0.25-0.04-0.49-0.11-0.76-0.22c-3.15-1.31-3.93-5.65-1.85-8.27c0.27-0.35,0.62-0.64,0.96-0.92
		c0.25-0.2,0.75-0.66,1.07-0.7c-1.45,0.22-3.04,0.52-4.27,1.4c-3.62,2.52-1.6,7.68-0.36,10.9c0.42,1.09,0.76,2.19,1.07,3.31
		c0.09,0.31,0.42,2.5,0.75,2.58l0.8,0.15l4.22-8.23C28.98,52.93,28.47,52.97,27.94,52.87z M60.32,25.66l-0.15-0.81
		c-0.05-0.33-2.24-0.68-2.55-0.75c-1.11-0.31-2.2-0.68-3.27-1.09c-3.2-1.23-8.29-3.3-10.78,0.37c-0.85,1.25-1.15,2.87-1.38,4.33
		c0.05-0.35,0.58-0.9,0.75-1.16c0.05-0.07,0.11-0.17,0.16-0.24c2.45-2.89,7.45-2.26,8.87,1.22c0.11,0.26,0.18,0.52,0.22,0.77
		c0.09,0.53,0.05,1.05,0,1.64L60.32,25.66z M27.94,52.87c-0.25-0.04-0.49-0.11-0.76-0.22c-3.15-1.31-3.93-5.65-1.85-8.27
		c0.27-0.35,0.62-0.64,0.96-0.92c0.25-0.2,0.75-0.66,1.07-0.7c-1.45,0.22-3.04,0.52-4.27,1.4c-3.62,2.52-1.6,7.68-0.36,10.9
		c0.42,1.09,0.76,2.19,1.07,3.31c0.09,0.31,0.42,2.5,0.75,2.58l0.8,0.15l4.22-8.23C28.98,52.93,28.47,52.97,27.94,52.87z
		 M60.32,25.66l-0.15-0.81c-0.05-0.33-2.24-0.68-2.55-0.75c-1.11-0.31-2.2-0.68-3.27-1.09c-3.2-1.23-8.29-3.3-10.78,0.37
		c-0.85,1.25-1.15,2.87-1.38,4.33c0.05-0.35,0.58-0.9,0.75-1.16c0.05-0.07,0.11-0.17,0.16-0.24c2.45-2.89,7.45-2.26,8.87,1.22
		c0.11,0.26,0.18,0.52,0.22,0.77c0.09,0.53,0.05,1.05,0,1.64L60.32,25.66z M33.96,99.67l-0.15-22.46h0.02
		c0-0.06-0.02-0.13-0.02-0.18V38.51c1.25,0.51,11.35,8.99,11.35,8.99l5.24,2.23L48,44.54c0,0-7.97-8.8-8.29-9.4
		c-0.18-0.35-0.38-0.68-0.56-1.01h37.03c0.05,0,0.13,0.02,0.18,0.02v-0.02h18.36l25.81-0.2l-12.16-2.25l-14.48,0.19
		C86.86,31,83.72,29.1,82.33,27.45l13.41-10.62h12.63l11.57-2.21L14.71,14.81v0.05v1.17l-0.17,83.65l2-2.27l10.68-13.83
		c1.6,1.46,5.59,5.49,6.42,12.42 M16.98,17.19l17.67-0.17h8.13l-0.08,0.14c-0.64,0.29-1.24,0.61-1.81,0.96H18.07V41.2
		c-0.27,0.42-0.51,0.85-0.74,1.31l-0.35,0.2V17.19z M26.39,50.54c1.16,1.12,2.87,1.82,4.07,1.82c-0.8,1.53-1.62,3.09-2.4,4.66
		c-0.07,0.15-0.15,0.29-0.22,0.44c-0.78,1.58-1.64,3.3-1.71,5.19c-0.55-0.09-1.33-0.2-2.44-0.33c-0.71-1.25-3.8-9.43-3.38-14.82
		c0.2-2.45,1.44-3.87,3.02-5.67l0.25-0.28c0.53-0.59,1.09-1.16,1.64-1.71c1.33-1.34,2.71-2.74,3.55-4.62
		c0.16-0.37,0.31-0.74,0.44-1.09l2.24,3.41v8.05c-0.16,0.75-0.44,1.44-0.82,1.84c-1.22,1.27-3.22,1.79-4.15,0.7s-1.02-2.3-1.02-2.3
		S24.72,48.94,26.39,50.54z M18.25,47.39c0.51-3.83,2.58-6.11,4.76-8.52c0.4-0.44,0.8-0.88,1.2-1.34c2.13-2.45,3.09-4.68,2.89-6.59
		l1.44,2.19c-0.16,0.64-0.42,1.27-0.64,1.77c-0.76,1.69-2.02,2.96-3.35,4.31c-0.56,0.57-1.13,1.14-1.67,1.77l-0.25,0.28
		c-1.64,1.88-3.05,3.5-3.27,6.28c-0.25,3.28,0.67,7.29,1.51,10.07c0.4,1.36,0.89,2.74,1.35,3.9c0.71,1.75,0.87,1.8,1.05,1.9
		l0.05,0.02h0.07c1,0.13,2.09,0.28,2.82,0.39c0.05,0.46,0.16,0.92,0.35,1.4c0.22,0.59,0.49,1.16,0.75,1.69
		c-1.76-0.94-3.42-1.33-4.31-1.47C19.23,57.66,17.67,51.77,18.25,47.39z M19.99,73.25l1.58,8.42l0.12,0.64L20,84.54V73.25H19.99z
		 M25.12,28.9l-0.74,1.08c0.08,0.07,0.41,0.41,0.47,1.07c0.07,0.87-0.27,2.39-2.35,4.79c-0.38,0.44-0.78,0.88-1.16,1.31
		c-0.36,0.4-0.73,0.8-1.09,1.22v-8.94L25.12,28.9z M20.25,27.18v-6.85H27l-0.65,6.19L20.25,27.18z M30.67,25.11
		c-0.65-0.07-0.98-0.4-1.05-0.48l-0.95,0.67l0.52-4.97h8.84c-0.45,0.4-0.89,0.81-1.33,1.22c-0.42,0.39-0.85,0.79-1.29,1.18
		C33.01,24.84,31.5,25.19,30.67,25.11z M16.54,94.69L16.54,94.69v-0.77V54.81l1.45,7.77v28.38l6.55-8.61
		c0.35,0.02,0.75,0.1,1.18,0.27L16.54,94.69z M31.45,85.79c-1.04-2.32-2.36-3.96-3.96-4.9c-1.51-0.88-2.93-0.98-3.91-0.87
		l-2.55-13.55c0.07,0.15,0.15,0.28,0.2,0.42l0.29,0.57l0.64,0.06c0.02,0,2.2,0.18,4.45,1.51c2.24,1.31,3.71,3.22,4.38,5.71
		c-2.51-1.27-7.18-0.04-7.18-0.04s2.84,0.26,4.91,2.17c1.2,1.1,2.13,4.12,2.73,6.61C31.45,83.48,31.45,85.79,31.45,85.79z
		 M31.45,70.22v-0.05c-0.89-1.27-1.65-2.36-1.65-2.36c-0.16-0.24-0.33-0.57-0.47-0.88c-0.05-0.11-0.09-0.2-0.15-0.31
		c-0.07-0.17-0.15-0.31-0.24-0.48c-0.25-0.53-0.53-1.09-0.73-1.62c-0.78-2.15,0.2-4.12,1.24-6.2c0.07-0.15,0.15-0.29,0.22-0.46
		c0.58-1.18,1.18-2.34,1.78-3.5v15.82c0.01,0.02,0.02,0.03,0.04,0.05L31.45,70.22L31.45,70.22z M33.14,28.76
		c-0.64-0.42-1.31-0.85-1.98-1.27c1.73-0.06,3.69-1.05,5.82-2.95c0.45-0.41,0.89-0.81,1.33-1.22c2.38-2.21,4.64-4.31,8.42-4.82
		c4.33-0.59,10.15,0.98,17.8,4.82c0.15,0.9,0.53,2.58,1.45,4.36c-0.53-0.28-1.09-0.55-1.67-0.77c-0.45-0.17-0.91-0.28-1.38-0.35
		c-0.13-0.75-0.27-1.84-0.38-2.85v-0.07l-0.02-0.06c-0.07-0.18-0.15-0.37-1.87-1.07c-1.13-0.46-2.49-0.96-3.85-1.36
		c-2.75-0.85-6.71-1.79-9.95-1.53c-2.75,0.22-4.35,1.66-6.2,3.31l-0.27,0.26c-0.62,0.55-1.18,1.12-1.75,1.69
		c-1.33,1.34-2.58,2.61-4.25,3.39C34.03,28.44,33.59,28.61,33.14,28.76z M49.88,26.81c-1.58-1.69-4.65-0.94-4.65-0.94
		s1.22,0.09,2.27,1.03c1.07,0.94,0.56,2.96-0.69,4.2c-0.4,0.39-1.07,0.64-1.82,0.83h-7.25l-0.09-0.13l-0.22-0.15
		c-0.02-0.02-1.42-0.94-3.27-2.15c0.2-0.07,0.38-0.17,0.58-0.26c1.85-0.85,3.22-2.25,4.56-3.61c0.55-0.55,1.11-1.12,1.69-1.66
		l0.27-0.26c1.78-1.6,3.2-2.87,5.62-3.06c5.33-0.42,13.4,2.71,14.64,3.42c0.15,1.12,0.25,1.91,0.33,2.47
		c-1.85,0.06-3.51,0.9-5.13,1.73c-0.15,0.07-0.29,0.15-0.44,0.22c-1.55,0.79-3.09,1.62-4.6,2.43C51.68,29.7,50.99,27.98,49.88,26.81
		z M53.63,31.92c1.15-0.61,2.31-1.23,3.45-1.8c0.15-0.07,0.29-0.15,0.45-0.22c1.55-0.79,3.02-1.55,4.55-1.55
		c0.55,0,1.07,0.09,1.58,0.29c0.53,0.2,1.07,0.46,1.6,0.74c0.16,0.07,0.31,0.15,0.47,0.24c0.09,0.06,0.2,0.09,0.31,0.15
		c0.29,0.11,0.6,0.26,0.85,0.44c0,0,1.18,0.85,2.38,1.71C69.27,31.92,53.63,31.92,53.63,31.92z M84.7,31.92h-2.27
		c-2.45-0.61-5.44-1.55-6.53-2.76c-1.89-2.1-2.15-4.97-2.15-4.97s-1.22,4.73,0.04,7.27c-6.45-1.84-7.09-8.63-7.11-8.95l-0.05-0.64
		l-0.56-0.29c-0.15-0.07-0.27-0.15-0.42-0.2l13.38,2.58c-0.11,0.99-0.02,2.43,0.85,3.96C80.83,29.53,82.43,30.87,84.7,31.92z
		 M72.47,20.29h10.59l-2.11,1.65L72.47,20.29z M81.43,25.88c-0.15-0.45-0.21-0.87-0.21-1.23l8.19-6.38H62.07l-7.37-1.44h38.34
		L81.43,25.88z"/>
</g>
</svg>
