<?xml version="1.0" encoding="utf-8"?>
<!-- Generator: Adobe Illustrator 24.3.0, SVG Export Plug-In . SVG Version: 6.00 Build 0)  -->
<svg version="1.0" xmlns="http://www.w3.org/2000/svg" xmlns:xlink="http://www.w3.org/1999/xlink" x="0px" y="0px"
	 viewBox="0 0 512 512" enable-background="new 0 0 512 512" xml:space="preserve">
<path id="Left" fill="#958F6B" d="M0,353.28V158.72c0,0,140.82,1.3,220.57,0.85c68.4-0.41,146.95-0.1,218.22-0.1
	c11.35-21.17,23.01-42.74,34.46-64.42c10.72-20.54,21.35-41.18,32.07-61.83c3.59,0.87,3.09,0.75,6.69,1.62V486.4
	c-20.24-24.47-33.94-52.85-46.52-79.48c-24.53-52.53-36.72-54.07-93.56-52.33c-5.42,0.2-11.14,2.66-16.25,1.64
	c-31.08-6.04-65.84,10.34-93.44-18.94c-12.78,32.77-38.95,22.53-60.63,22.12L0,353.28"/>
</svg>
