<?xml version="1.0" encoding="utf-8"?>
<!-- Generator: Adobe Illustrator 24.3.0, SVG Export Plug-In . SVG Version: 6.00 Build 0)  -->
<svg version="1.0" xmlns="http://www.w3.org/2000/svg" xmlns:xlink="http://www.w3.org/1999/xlink" x="0px" y="0px"
	 viewBox="0 0 512 512" enable-background="new 0 0 512 512" xml:space="preserve">
<path id="Right" fill="#958F6B" d="M0,25.6c0,0,54.41,91.54,76.5,135.05c48.26,0,94.48-0.2,140.7,0.1
	c50.51,0.2,101.02,1.21,151.54,1.21c31.29-0.1,62.58-1.51,93.87-2.21c6.23-0.13,49.4-1.02,49.4-1.02v194.56
	c0,0-80.17-1.24-100.32-0.97c-20.45,0.2-40.9,2.82-61.35,2.82c-43.66,0.2-87.32-0.4-131.09-1.11c-28.32-0.5-56.85-0.2-85.07-3.22
	c-44.68-4.73-61.15,2.62-81.8,43.01c-6.75,13.29-11.04,27.8-17.89,40.99C26.8,449.8,0,486.4,0,486.4V25.6z M445.93,216.65
	c-3.27-22.16-14.32-29.91-39.98-29.41C414.74,207.48,424.46,217.15,445.93,216.65z M223.53,323.4c1.02-9.06,2.04-18.23,3.37-29.71
	C207.58,301.35,205.13,310.51,223.53,323.4z"/>
</svg>
