<svg xmlns="http://www.w3.org/2000/svg" viewBox="0 0 512 512" style="height: 512px; width: 512px;">
	<style type="text/css">
		.d-0, .d-1 {
			fill: #958b68;
		}
		.d-2, .d-3 {
			fill: #958b68;
		}
	</style>
	<path class="d-0" d="M324.5,0v121.2c0,37.8-30.8,68.7-68.5,68.7h0c-37.7,0-68.5-30.9-68.5-68.7V0"/>
	<path class="d-1" d="M187.5,511.9V349.6c0-37.8,30.8-68.7,68.5-68.7h0c37.7,0,68.5,30.9,68.5,68.7V512"/>
	<path class="d-2" d="M359.9,0C398,0,466.7-1.2,466.7,96.8c0,19.8,0,40.8,0,59.9c0,36.5,39.7,65.9,39.7,65.9s-39.7,27.8-39.7,61
		c0,17.3,0,36,0,53c0,98.3-65.9,98.3-106.9,98.3C358.8,434.8,358.8,0,359.9,0z"/>
	<path class="d-3" d="M152.1,0C114,0,45.3-1.2,45.3,96.8c0,19.8,0,40.8,0,59.9c0,36.5-39.7,65.9-39.7,65.9s39.7,27.8,39.7,61
		c0,17.3,0,36,0,53c0,98.3,65.9,98.3,106.9,98.3C153.2,434.8,153.2,0,152.1,0z"/>
</svg>
