<?xml version="1.0" encoding="utf-8"?>
<svg version="1.1" xmlns="http://www.w3.org/2000/svg" xmlns:xlink="http://www.w3.org/1999/xlink" x="0px" y="0px"
	 viewBox="0 0 100 100" style="enable-background:new 0 0 100 100;" xml:space="preserve">
<style type="text/css">
	.st0{fill:#42391A;}
	.st1{fill:#42391A;}
</style>
<path class="st0" d="M63.4,0v23.7c0,7.4-6,13.4-13.4,13.4h0c-7.4,0-13.4-6-13.4-13.4V0"/>
<path class="st0" d="M36.6,100V68.3c0-7.4,6-13.4,13.4-13.4h0c7.4,0,13.4,6,13.4,13.4V100"/>
<path class="st1" d="M66.4,0c7.4,0,20.9-0.2,20.9,18.9c0,3.9,0,8,0,11.7c0,7.1,7.7,12.9,7.7,12.9s-7.7,5.4-7.7,11.9
	c0,3.4,0,7,0,10.3c0,19.2-12.9,19.2-20.9,19.2C66.2,84.9,66.2,0,66.4,0z"/>
<path class="st1" d="M33.6,0c-7.4,0-20.9-0.2-20.9,18.9c0,3.9,0,8,0,11.7c0,7.1-7.7,12.9-7.7,12.9s7.7,5.4,7.7,11.9
	c0,3.4,0,7,0,10.3c0,19.2,12.9,19.2,20.9,19.2C33.8,84.9,33.8,0,33.6,0z"/>
</svg>
