<?xml version="1.0" encoding="utf-8"?>
<!-- Generator: Adobe Illustrator 25.0.0, SVG Export Plug-In . SVG Version: 6.00 Build 0)  -->
<svg version="1.1" id="Layer_1" xmlns="http://www.w3.org/2000/svg" xmlns:xlink="http://www.w3.org/1999/xlink" x="0px" y="0px"
	 viewBox="0 0 434.5 191.7" xml:space="preserve">
<g>
	<polyline points="50.2,145.3 50.2,171.5 76.4,171.5 	"/>
	<polyline points="76.4,20.3 50.2,20.3 50.2,46.5 	"/>
	<polyline points="383.6,145.3 383.6,171.5 357.4,171.5 	"/>
	<polyline points="357.4,20.3 383.6,20.3 383.6,46.5 	"/>
	<rect x="12" y="20.4" width="2.4" height="51.2"/>
	<rect x="12" y="121" width="2.4" height="51.2"/>
	<rect x="420.3" y="20.4" width="2.4" height="51.2"/>
	<rect x="420.3" y="121" width="2.4" height="51.2"/>
	<path d="M386.4,173.9H48.1v-156h338.2V173.9z M53,169h328.6V22.7H53V169z"/>
	<path d="M403.4,191.7H31.1V0h372.2V191.7z M33.5,189.3H401V2.4H33.5V189.3z"/>
	<path d="M403.4,191.7H31.1V0h372.2V191.7z M33.5,189.3H401V2.4H33.5V189.3z"/>
	<path d="M410.6,66c0.9,0.1,1.7,0.4,2.4,0.8V0H21.5v66.6c0.7-0.5,1.6-0.9,2.4-1.1V2.4h386.7V66z"/>
	<path d="M410.6,125.8v63.5H23.9v-63.6c-0.9-0.1-1.7-0.4-2.4-0.7v66.8H413v-66.5C412.3,125.6,411.4,125.7,410.6,125.8z"/>
	<rect x="40.2" y="-2.4" transform="matrix(0.7232 -0.6907 0.6907 0.7232 4.0508 31.6016)" width="2.4" height="26.4"/>
	<rect x="379.9" y="9.5" transform="matrix(0.6907 -0.7232 0.7232 0.6907 113.8091 287.5685)" width="26.4" height="2.4"/>
	<rect x="28.3" y="179.8" transform="matrix(0.6907 -0.7232 0.7232 0.6907 -118.073 85.9604)" width="26.4" height="2.4"/>
	<rect x="391.8" y="167.8" transform="matrix(0.7232 -0.6907 0.6907 0.7232 -16.2006 321.5836)" width="2.4" height="26.4"/>
	<circle cx="217.3" cy="9.9" r="1.7"/>
	<circle cx="234.5" cy="9.9" r="1.7"/>
	<circle cx="251.8" cy="9.9" r="1.7"/>
	<circle cx="269.1" cy="9.9" r="1.7"/>
	<circle cx="286.4" cy="9.9" r="1.7"/>
	<circle cx="303.6" cy="9.9" r="1.7"/>
	<circle cx="320.9" cy="9.9" r="1.7"/>
	<circle cx="338.2" cy="9.9" r="1.7"/>
	<circle cx="355.5" cy="9.9" r="1.7"/>
	<circle cx="372.8" cy="9.9" r="1.7"/>
	<circle cx="61.6" cy="9.9" r="1.7"/>
	<circle cx="78.9" cy="9.9" r="1.7"/>
	<circle cx="96.1" cy="9.9" r="1.7"/>
	<circle cx="113.4" cy="9.9" r="1.7"/>
	<circle cx="130.7" cy="9.9" r="1.7"/>
	<circle cx="148" cy="9.9" r="1.7"/>
	<circle cx="165.2" cy="9.9" r="1.7"/>
	<circle cx="182.5" cy="9.9" r="1.7"/>
	<circle cx="199.8" cy="9.9" r="1.7"/>
	<circle cx="217.3" cy="181.8" r="1.7"/>
	<circle cx="234.5" cy="181.8" r="1.7"/>
	<circle cx="251.8" cy="181.8" r="1.7"/>
	<circle cx="269.1" cy="181.8" r="1.7"/>
	<circle cx="286.4" cy="181.8" r="1.7"/>
	<circle cx="303.6" cy="181.8" r="1.7"/>
	<circle cx="320.9" cy="181.8" r="1.7"/>
	<circle cx="338.2" cy="181.8" r="1.7"/>
	<circle cx="355.5" cy="181.8" r="1.7"/>
	<circle cx="372.8" cy="181.8" r="1.7"/>
	<circle cx="61.6" cy="181.8" r="1.7"/>
	<circle cx="78.9" cy="181.8" r="1.7"/>
	<circle cx="96.1" cy="181.8" r="1.7"/>
	<circle cx="113.4" cy="181.8" r="1.7"/>
	<circle cx="130.7" cy="181.8" r="1.7"/>
	<circle cx="148" cy="181.8" r="1.7"/>
	<circle cx="165.2" cy="181.8" r="1.7"/>
	<circle cx="182.5" cy="181.8" r="1.7"/>
	<circle cx="199.8" cy="181.8" r="1.7"/>
	<path d="M32.3,117.5c-11.9,0-21.6-9.7-21.6-21.6s9.7-21.6,21.6-21.6"/>
	<path d="M32.3,128.2C14.5,128.2,0,113.7,0,95.9s14.5-32.3,32.3-32.3V66C15.8,66,2.4,79.4,2.4,95.9s13.4,29.9,29.9,29.9V128.2z"/>
	<path d="M402.2,128.2v-2.4c16.5,0,29.9-13.4,29.9-29.9S418.7,66,402.2,66v-2.4c17.8,0,32.3,14.5,32.3,32.3S420,128.2,402.2,128.2z"
		/>
	<path d="M402.2,117.5c11.9,0,21.6-9.7,21.6-21.6s-9.7-21.6-21.6-21.6"/>
</g>
</svg>
