<svg xmlns="http://www.w3.org/2000/svg" viewBox="0 0 512 512">
	<g transform-origin="center" transform="">
		<path d="M329.39,263.48v0.65l30.04-7.95l-30.04-7.95v0.57c-0.76-7.72-2.71-15.09-5.67-21.94 l47.63-35.3l-55.27,21.72c-11.92-16.75-30.61-28.37-52.05-30.8l-8.23-29.92l-7.85,29.83c-37.3,3.84-66.49,35.45-66.49,73.75 c0,40.88,33.26,74.14,74.14,74.14c11.05,0,21.55-2.43,30.99-6.79l23.18,22.26l-8.95-30.9c6.36-4.9,11.9-10.81,16.39-17.49 l54.14,21.29l-46.97-34.81C326.97,277.45,328.69,270.61,329.39,263.48z M255.6,316.28c-33.16,0-60.14-26.98-60.14-60.14 c0-33.16,26.98-60.14,60.14-60.14c33.17,0,60.15,26.98,60.15,60.14C315.75,289.3,288.77,316.28,255.6,316.28z" fill="rgb(150, 140, 106)"></path>
	</g>
</svg>