<svg xmlns="http://www.w3.org/2000/svg" viewBox="0 0 512 512">
	<g transform-origin="center" transform="">
		<path d="M313.54,281.49l-29.69,24.97h-55.47l-29.69-24.97l57.42-121.44l0.01-0.03v0.03L313.54,281.49z" fill="rgb(155, 32, 32)"></path>
		<path d="M241.14,172.87l-51.19,106.12l-25.37,6.24L150,249.03l8.74-32.46L241.14,172.87z" fill="rgb(240, 50, 50)"></path>
		<path d="M352.26,216.57l8.74,32.46l-14.58,36.21l-25.37-6.24l-51.19-106.12L352.26,216.57z" fill="rgb(70, 14, 14)"></path>
		<path d="M283.85,315.2l-27.73,12.49l-27.46-12.49H283.85z M318.55,286.49l-34.96,28.71l58.68-23.72L318.55,286.49z M169.98,291.48l58.68,23.72l-34.96-28.71L169.98,291.48z" fill="rgb(70, 14, 14)"></path>
	</g>
</svg>