<svg xmlns="http://www.w3.org/2000/svg" viewBox="0 0 512 512">
	<g transform-origin="center" transform="">
		<path d="M263.46,182.41l-7.86-29.68l-7.85,29.68c-21.66,2.29-40.57,13.95-52.59,30.84l-55.27-21.74 l47.63,35.29c-2.93,6.76-4.87,14.03-5.66,21.64l-29.09,7.7l29.09,7.7c0.72,7,2.43,13.71,4.97,19.99l-46.94,34.78l54.09-21.28 c4.56,6.79,10.21,12.8,16.7,17.75l-9.04,30.63l22.88-22.27c9.45,4.39,19.99,6.84,31.08,6.84c40.89,0,74.15-33.26,74.15-74.14 C329.75,217.91,300.67,186.35,263.46,182.41z M255.6,316.28c-33.16,0-60.14-26.98-60.14-60.14c0-33.16,26.98-60.14,60.14-60.14 c33.17,0,60.15,26.98,60.15,60.14C315.75,289.3,288.77,316.28,255.6,316.28z" fill="rgb(150, 140, 106)"></path>
	</g>
</svg>