<svg xmlns="http://www.w3.org/2000/svg" viewBox="0 0 512 512" style="height: 512px; width: 512px;"><path d="M0 0h512v512H0z"
 fill="url(#bg-gradient)" fill-opacity="1" stroke="url(#stroke-gradient)" stroke-opacity="1" stroke-width="10" clip-path="url(#icon-bg)" transform="translate(-25.6, -25.6) scale(1.1, 1.1) rotate(0, 256, 256) skewX(0) skewY(0)">[
s]*</path>
			<defs>
				
			<clipPath id="icon-bg">
				<polygon points="376,463.85,136,463.85,16,256,136,48.15,376,48.15,496,256" fill="rgb(100,0,0)" fill-opacity="1" stroke="#ff0000" stroke-opacity="1" stroke-width="16" transform="translate(-25.6, -25.6) scale(1.1, 1.1) rotate(0, 256, 256) skewX(0) skewY(0)">
				</polygon>
			</clipPath>
		
				<linearGradient id="bg-gradient" x1="0" x2="1" y1="1" y2="0">
			<stop offset="40%" stop-color="rgb(200, 0, 0)" stop-opacity="1"></stop>
			<stop offset="100%" stop-color="rgb(109, 22, 22)" stop-opacity="1"></stop>
		</linearGradient>
				<linearGradient id="stroke-gradient" x1="0" x2="1" y1="1" y2="0">
			<stop offset="50%" stop-color="rgb(255, 0, 0)" stop-opacity="1"></stop>
			<stop offset="100%" stop-color="rgb(255, 0, 0)" stop-opacity="1"></stop>
		</linearGradient>
			</defs>
			<g
		class="" transform="translate(0,0)" style=""><path d="M311.96 258.5L105.55 484l-30-28.31L288.92 236.7zM139.77 417.7a7.41 7.41 0 1 0 .3 10.47 7.41 7.41 0 0 0-.3-10.47zm23.74-25.14a7.41 7.41 0 1 0 .3 10.47 7.41 7.41 0 0 0-.29-10.44zm23.76-25.11a7.41 7.41 0 1 0 .3 10.47 7.41 7.41 0 0 0-.3-10.47zm23.74-25.15a7.41 7.41 0 1 0 .3 10.47 7.41 7.41 0 0 0-.3-10.47zm23.76-25.14a7.41 7.41 0 1 0 .3 10.47 7.41 7.41 0 0 0-.3-10.47zm23.74-25.14a7.41 7.41 0 1 0 .3 10.47 7.41 7.41 0 0 0-.31-10.47zm23.74-25.14a7.41 7.41 0 1 0 .3 10.47 7.41 7.41 0 0 0-.3-10.47zM52.67 433.13l-28.26-30 225.85-206 21.71 23.02zm36.9-63.05a7.41 7.41 0 1 0-.32 10.47 7.41 7.41 0 0 0 .33-10.47zm25.2-23.7a7.41 7.41 0 1 0-.32 10.47 7.41 7.41 0 0 0 .32-10.47zm25.17-23.68a7.41 7.41 0 1 0-.32 10.47 7.41 7.41 0 0 0 .32-10.47zm25.18-23.7a7.41 7.41 0 1 0-.32 10.47 7.41 7.41 0 0 0 .32-10.5zm25.18-23.7a7.41 7.41 0 1 0-.32 10.47 7.41 7.41 0 0 0 .32-10.5zm25.18-23.7a7.41 7.41 0 1 0-.32 10.47 7.41 7.41 0 0 0 .32-10.51zm25.18-23.7a7.41 7.41 0 1 0-.32 10.47 7.41 7.41 0 0 0 .32-10.51zm63.89 1.63c12.87-10.8 25.09-20.92 37-30.79C425.04 129.57 475.68 87.63 487.59 28c-8.36 6.7-63.45 50.38-92.82 58.58l-114 119.47z" fill="#fff" fill-opacity="1"></path></g></svg>