<svg xmlns="http://www.w3.org/2000/svg" viewBox="0 0 512 512" style="height: 512px; width: 512px;"> <path d="M0 0h512v512H0z"
 fill="url(#bg-gradient)" fill-opacity="1" stroke="url(#stroke-gradient)" stroke-opacity="1" stroke-width="10" clip-path="url(#icon-bg)" transform="translate(-25.6, -25.6) scale(1.1, 1.1) rotate(0, 256, 256) skewX(0) skewY(0)">[
s]*</path> 
			<defs>
				
			<clipPath id="icon-bg">
				<polygon points="376,463.85,136,463.85,16,256,136,48.15,376,48.15,496,256" fill="rgb(100,0,0)" fill-opacity="1" stroke="#ff0000" stroke-opacity="1" stroke-width="16" transform="translate(-25.6, -25.6) scale(1.1, 1.1) rotate(0, 256, 256) skewX(0) skewY(0)">
				</polygon>
			</clipPath>
		
				<linearGradient id="bg-gradient" x1="0" x2="1" y1="1" y2="0">
			<stop offset="40%" stop-color="rgb(200, 0, 0)" stop-opacity="1"></stop>
			<stop offset="100%" stop-color="rgb(109, 22, 22)" stop-opacity="1"></stop>
		</linearGradient>
				<linearGradient id="stroke-gradient" x1="0" x2="1" y1="1" y2="0">
			<stop offset="50%" stop-color="rgb(255, 0, 0)" stop-opacity="1"></stop>
			<stop offset="100%" stop-color="rgb(255, 0, 0)" stop-opacity="1"></stop>
		</linearGradient>
			</defs>
			<g
		class="" transform="translate(0,0)" style=""> <path d="M329.8,235.7l62.8-82.7l42.9,32.6l-62.8,82.8L329.8,235.7z M316.9,226.2l66.8-88l-45-34.2l-66.8,88L316.9,226.2 z M289.5,128.4L270.2,168l57-75l-42.5-32.3l-36.2,47.7L289.5,128.4z M268.7,55.1l-46.6-35.4l-42,55.3l53.7,26.2L268.7,55.1z M375.7,290.7L236.7,188l-9.9,0.9l4.6,2l62.2,138.4l-16.5,2.2L219.3,203l-40-17.7l-4-30.8l39.4,19.4l36.4-3.3l17-34.8L157.2,81.7 L76.5,194.2l101.1,152.5l-22.7,145.6H341V372.6l35.3-48.9l10.7-47.9L375.7,290.7z" fill="#fff" fill-opacity="1"> </path> </g> </svg>