<svg xmlns="http://www.w3.org/2000/svg" viewBox="0 0 512 512" >
	<defs>
		<style>
			.chain { fill: url(#chain-gradient) }
			.fill { fill: #1E1E1C }
			.frame { fill: url(#bg-gradient) }
		</style>
		<linearGradient id="bg-gradient" x1="0" x2="1" y1="0" y2="1">
			<stop offset="0%" stop-color="rgb(235, 219, 166)"></stop>
			<stop offset="100%" stop-color="rgb(65, 61, 46)"></stop>
		</linearGradient>
		<linearGradient id="chain-gradient" x1="0" x2="1" y1="0" y2="1">
			<stop offset="0%" stop-color="rgb(65, 61, 46)"></stop>
			<stop offset="100%" stop-color="#0B0903"></stop>
		</linearGradient>
	</defs>
	<g transform-origin="center" transform="">
		<path class="chain" d="M410.33,511.98c0,0-0.02,0.02-0.02,0.02h-8.11c0-7.31,0.02-14.76,0.05-14.76
	c2.1,0,5.9-0.08,5.9,6.4v3.98C408.14,510.04,410.33,511.98,410.33,511.98z M384.86,503.66v3.98c0,2.42-2.2,4.36-2.2,4.36h8.13
	c0-7.31-0.01-14.75-0.04-14.74C388.66,497.26,384.86,497.18,384.86,503.66z M396.49,481.78c-1.04,0-1.98,0.52-2.67,1.34
	s-1.11,1.96-1.11,3.2v18.94c0,1.26,0.42,2.4,1.11,3.22c0.69,0.84,1.63,1.34,2.67,1.34c2.08,0,3.78-2.04,3.78-4.56v-18.94
	C400.27,483.82,398.57,481.78,396.49,481.78z M408.11,475.62v-3.5c0-6.52-3.63-6.52-5.89-6.52c-0.03,0-0.04,7.3-0.04,14.54
	c0,7.13,0.02,14.22,0.05,14.22c2.1,0,5.9,0.08,5.9-6.4v-3.98c0-1.69,1.07-3.13,1.7-3.84c0.27-0.3,0.46-0.48,0.46-0.48
	S408.11,477.82,408.11,475.62z M390.76,465.58c-2.25,0-5.9,0-5.9,6.52v3.5c0,2.2-2.2,4.04-2.2,4.04s0.21,0.19,0.49,0.5
	c0.64,0.72,1.71,2.16,1.71,3.84v3.98c0,6.48,3.8,6.4,5.9,6.4c0.03,0,0.04-7.08,0.04-14.22C390.8,472.89,390.79,465.58,390.76,465.58
	z M408.12,391.5V388c0-2.13,2.05-3.89,2.18-4h-8.11c0,7.06,0.01,14,0.04,14C404.49,398,408.12,398,408.12,391.5z M400.26,392.4
	c0-1.26-0.42-2.4-1.1-3.22c-0.7-0.84-1.64-1.34-2.68-1.34c-2.06,0-3.78,2.04-3.78,4.54v14.86c0,2.5,1.7,4.54,3.78,4.54
	c1.04,0,1.98-0.52,2.66-1.34c0.72-0.82,1.14-1.96,1.14-3.2v-7.44h-0.02V392.4z M408.11,423.96v-3.98c0-2.4,2.17-4.32,2.17-4.32
	s-2.18-1.84-2.18-4.04v-3.5c0-6.52-3.63-6.52-5.9-6.52c-0.05,0-0.05,28.76,0.02,28.76C404.31,430.36,408.11,430.44,408.11,423.96z
	 M396.49,417.78c-1.04,0-1.98,0.52-2.67,1.34s-1.11,1.98-1.11,3.22v18.92c0,1.26,0.42,2.4,1.11,3.22c0.69,0.84,1.63,1.34,2.67,1.34
	c2.07,0,3.78-2.04,3.78-4.58v-18.92C400.27,419.82,398.57,417.78,396.49,417.78z M408.13,443.62v-3.96c0-6.5-3.8-6.42-5.9-6.42
	c-0.07,0-0.07,28.76-0.02,28.76c2.27,0,5.9,0,5.9-6.5V452c0-2.2,2.2-4.02,2.2-4.02S408.13,446.04,408.13,443.62z M384.86,439.68
	v3.96c0,2.42-2.2,4.36-2.2,4.36s2.2,1.82,2.2,4.02v3.5c0,6.5,3.63,6.5,5.9,6.5c0.05,0,0.05-28.78,0-28.76
	C388.66,433.26,384.86,433.2,384.86,439.68z M384.85,419.98v3.98c0,6.48,3.8,6.4,5.9,6.4c0.07,0,0.07-28.78,0-28.78
	c-2.25,0-5.9,0-5.9,6.52v3.5c0,2.2-2.2,4.04-2.2,4.04S384.85,417.58,384.85,419.98z M396.49,451.82c-2.08,0-3.78,2.04-3.78,4.56
	v7.42l0.02,7.44c0,2.5,1.71,4.54,3.78,4.54c1.04,0,1.98-0.5,2.67-1.34c0.67-0.82,1.09-1.96,1.09-3.2v-7.44v-7.42
	c0-1.26-0.42-2.4-1.11-3.22S397.53,451.82,396.49,451.82z M384.86,388.02v3.5c0,6.5,3.63,6.5,5.9,6.5c0.02,0,0.04-6.95,0.04-14.02
	h-8.13C382.66,384,384.86,385.82,384.86,388.02z"/>
		<path class="chain" d="M132.4,496.18c0,0-2.62,1.82-2.62,4.02v3.5c0,6.5-4.32,6.5-7.02,6.5
	c-0.06,0-0.06-28.76,0.02-28.76c2.5,0,7.02-0.08,7.02,6.4v3.98C129.8,494.24,132.4,496.18,132.4,496.18z M102.08,487.86v3.98
	c0,2.42-2.62,4.36-2.62,4.36s2.62,1.82,2.62,4.02v3.5c0,6.5,4.32,6.5,7.02,6.5c0.06,0,0.06-28.78,0-28.76
	C106.6,481.46,102.08,481.38,102.08,487.86z M115.92,500.04c-2.46,0-4.5,2.04-4.5,4.54V512h9v-7.4c0-1.26-0.5-2.4-1.32-3.22
	C118.28,500.54,117.16,500.04,115.92,500.04z M102.06,404.18v3.98c0,6.48,4.52,6.4,7.02,6.4c0.08,0,0.08-28.78,0-28.78
	c-2.68,0-7.02,0-7.02,6.52v3.5c0,2.2-2.62,4.04-2.62,4.04S102.06,401.78,102.06,404.18z M102.08,456.3v3.5
	c0,2.2-2.62,4.04-2.62,4.04s2.62,1.94,2.62,4.34v3.98c0,6.48,4.52,6.4,7.02,6.4c0.06,0,0.06-28.78,0-28.78
	C106.42,449.78,102.08,449.78,102.08,456.3z M115.92,465.98c-1.24,0-2.36,0.52-3.18,1.34c-0.82,0.82-1.32,1.96-1.32,3.2v18.94
	c0,1.26,0.5,2.4,1.32,3.22c0.82,0.84,1.94,1.34,3.18,1.34c2.48,0,4.5-2.04,4.5-4.56v-18.94
	C120.42,468.02,118.4,465.98,115.92,465.98z M111.4,391.44c0,2.5,2.02,4.54,4.5,4.54c1.24,0,2.36-0.52,3.18-1.34
	c0.84-0.82,1.34-1.96,1.34-3.2V384h-9.02V391.44z M129.76,408.16v-3.98c0-2.4,2.58-4.32,2.58-4.32s-2.6-1.84-2.6-4.04v-3.5
	c0-6.52-4.32-6.52-7.02-6.52c-0.06,0-0.06,28.76,0.02,28.76C125.24,414.56,129.76,414.64,129.76,408.16z M129.76,459.82v-3.5
	c0-6.52-4.32-6.52-7.02-6.52c-0.06,0-0.06,28.76,0.02,28.76c2.5,0,7.02,0.08,7.02-6.4v-3.98c0-2.4,2.58-4.32,2.58-4.32
	S129.76,462.02,129.76,459.82z M129.78,427.82v-3.96c0-6.5-4.52-6.42-7.02-6.42c-0.08,0-0.08,28.76-0.02,28.76
	c2.7,0,7.02,0,7.02-6.5v-3.5c0-2.2,2.62-4.02,2.62-4.02S129.78,430.24,129.78,427.82z M115.92,401.98c-1.24,0-2.36,0.52-3.18,1.34
	c-0.82,0.82-1.32,1.98-1.32,3.22v18.92c0,1.26,0.5,2.4,1.32,3.22c0.82,0.84,1.94,1.34,3.18,1.34c2.46,0,4.5-2.04,4.5-4.58v-18.92
	C120.42,404.02,118.4,401.98,115.92,401.98z M115.92,436.02c-2.48,0-4.5,2.04-4.5,4.56V448l0.02,7.44c0,2.5,2.04,4.54,4.5,4.54
	c1.24,0,2.36-0.5,3.18-1.34c0.8-0.82,1.3-1.96,1.3-3.2V448v-7.42c0-1.26-0.5-2.4-1.32-3.22S117.16,436.02,115.92,436.02z
	 M102.08,423.88v3.96c0,2.42-2.62,4.36-2.62,4.36s2.62,1.82,2.62,4.02v3.5c0,6.5,4.32,6.5,7.02,6.5c0.06,0,0.06-28.78,0-28.76
	C106.6,417.46,102.08,417.4,102.08,423.88z"/>
		<path class="chain" d="M390.8,31.63h-7.45c0.65-0.78,1.52-2.1,1.52-3.61v-3.98c0-6.48,3.8-6.4,5.9-6.4
			C390.78,17.64,390.8,24.57,390.8,31.63z M384.86,4.36v3.98c0,6.48,3.8,6.4,5.9,6.4c0.03,0.01,0.04-7.43,0.04-14.74h-8.13
			C382.66,0,384.86,1.94,384.86,4.36z M408.13,28.02v-3.98c0-6.48-3.8-6.4-5.9-6.4c-0.03,0-0.05,6.93-0.05,13.99h7.45
			C408.99,30.86,408.13,29.54,408.13,28.02z M396.49,30.22c2.08,0,3.78-2.04,3.78-4.54V6.74c0-2.52-1.7-4.56-3.78-4.56
			c-1.04,0-1.98,0.5-2.67,1.34c-0.69,0.82-1.11,1.96-1.11,3.22v18.94c0,1.24,0.42,2.38,1.11,3.2S395.45,30.22,396.49,30.22z
			 M408.14,8.36V4.38c0-2.42,2.18-4.36,2.18-4.36S410.31,0,410.3,0h-8.11c0,7.31,0.02,14.76,0.05,14.76
			C404.35,14.76,408.14,14.84,408.14,8.36z"/>
		<path class="chain" d="M120.42,31.63h-9v-9.09c0-1.26,0.5-2.4,1.32-3.22c0.82-0.84,1.94-1.34,3.18-1.34
			c2.48,0,4.5,2.04,4.5,4.56V31.63z M102.08,20.16v3.98c0,6.48,4.52,6.4,7.02,6.4c0.06,0.02,0.06-28.76,0-28.76
			c-2.7,0-7.02,0-7.02,6.5v3.5c0,2.2-2.62,4.02-2.62,4.02S102.08,17.74,102.08,20.16z M115.92,11.96c1.24,0,2.36-0.5,3.18-1.34
			c0.82-0.82,1.32-1.96,1.32-3.22V0h-9v7.42C111.42,9.92,113.46,11.96,115.92,11.96z M129.8,24.16v-3.98c0-2.42,2.6-4.36,2.6-4.36
			s-2.62-1.82-2.62-4.02V8.3c0-6.5-4.32-6.5-7.02-6.5c-0.06,0-0.06,28.76,0.02,28.76C125.28,30.56,129.8,30.64,129.8,24.16z"/>
		<path class="fill" d="M267.17,31.63c-1.03,5.23-5.63,9.18-11.17,9.18s-10.14-3.95-11.17-9.18H12.53v421.32h232.29
	c0.98-5.29,5.61-9.29,11.18-9.29s10.2,4.01,11.18,9.29h232.7V31.63H267.17z"/>
		<path class="frame" d="M256,23.7c-3.45,0-6.26,2.8-6.26,6.26s2.81,6.27,6.26,6.27c3.46,0,6.26-2.81,6.26-6.27S259.46,23.7,256,23.7z
	 M256,448.3c-3.45,0-6.26,2.8-6.26,6.26s2.81,6.26,6.26,6.26c3.46,0,6.26-2.8,6.26-6.26S259.46,448.3,256,448.3z M512.08,31.96H512
	V19.7H313.07c-8.19,0-16.24-0.86-23.41,2.85c-3.8,1.97-7.15,3.78-9.44,5.04h-13.05c0.14,0.72,0.21,1.45,0.21,2.2
	c0,0.76-0.07,1.49-0.21,2.2h5.67c-6.15,3.97-11.49,8.34-16.84,13.08c-5.35-4.74-11.54-9.09-17.67-13.08h6.5
	c-0.14-0.71-0.21-1.44-0.21-2.2c0-0.75,0.07-1.48,0.21-2.2h-14c-1.93-1.1-4.23-2.39-6.64-3.73c-0.11-0.05-0.22-0.11-0.32-0.16h0.02
	c-0.35-0.19-0.7-0.38-1.05-0.58c-7.42-4.09-15.87-3.42-24.48-3.42H0v12.26h-0.01L0,452.44v12.29h198.36
	c8.61,0,17.06,0.67,24.48-3.42c0.35-0.2,0.7-0.39,1.05-0.58h-0.02c0.1-0.05,0.21-0.11,0.32-0.16c2.41-1.34,4.71-2.63,6.64-3.73h14
	c-0.14-0.72-0.21-1.45-0.21-2.2c0-0.76,0.07-1.49,0.21-2.2h-6.5c6.13-3.99,12.32-8.34,17.67-13.08c5.35,4.74,10.69,9.11,16.84,13.08
	h-5.67c0.14,0.71,0.21,1.44,0.21,2.2c0,0.75-0.07,1.48-0.21,2.2h13.05c2.29,1.26,5.64,3.07,9.44,5.04
	c7.17,3.71,15.22,2.85,23.41,2.85H512v-12.18h0.09L512.08,31.96z M503.88,23.7h3.72v3.89h-3.72V23.7z M12.53,23.7h186.81
	c6.52,0,10,0.77,13.19,2.25c1.15,0.53,2.29,1.08,3.42,1.64H12.53V23.7z M8.12,460.73H4.4v-3.89h3.72V460.73z M4.4,452.44V31.99h3.71
	l0.01,420.45H4.4z M8.12,27.59H4.4V23.7h3.72V27.59z M212.53,458.48c-3.19,1.48-6.67,2.25-13.19,2.25H12.53v-3.89h203.42
	C214.82,457.4,213.68,457.95,212.53,458.48z M499.47,460.73H309.66c-3.47,0-6.92-0.73-10.07-2.19c-1.2-0.55-2.38-1.12-3.55-1.7
	h203.43V460.73z M499.47,452.44h-211.7c-10.84-6.2-20.62-13.6-29.21-22.12l-2.56-2.54l-2.56,2.54c-8.58,8.51-18.36,15.91-29.2,22.12
	H12.53V31.99h211.71c10.84,6.21,20.62,13.61,29.2,22.12l2.56,2.54l2.56-2.54c8.59-8.52,18.37-15.92,29.21-22.12h211.7V452.44z
	 M499.47,27.59H296.04c1.17-0.58,2.35-1.15,3.55-1.7c3.15-1.46,6.6-2.19,10.07-2.19h189.81V27.59z M507.6,460.73h-3.72v-3.89h3.72
	V460.73z M503.89,452.44l-0.01-420.45h3.79l0.01,420.45H503.89z"/>
	</g>
</svg>