<svg xmlns="http://www.w3.org/2000/svg" viewBox="0 0 512 512" style="height: 512px; width: 512px;">
	<defs>
		<linearGradient id="bg-gradient" x1="0" x2="1" y1="1" y2="0">
			<stop offset="50%" stop-color="rgb(255, 243, 181)" stop-opacity="1"></stop>
			<stop offset="100%" stop-color="rgb(255, 255, 255)" stop-opacity="1"></stop>
		</linearGradient>
		<linearGradient id="stroke-gradient" x1="0" x2="1" y1="1" y2="0">
			<stop offset="50%" stop-color="rgb(141, 118, 42)" stop-opacity="1"></stop>
			<stop offset="100%" stop-color="rgb(255, 243, 181)" stop-opacity="1"></stop>
		</linearGradient>
	</defs>
	<g class="" transform="translate(0,0)" style="">
		<path d="M169 57v430h78V57h-78zM25 105v190h46V105H25zm158 23h18v320h-18V128zm128.725 7.69l-45.276 8.124 61.825 344.497 45.276-8.124-61.825-344.497zM89 153v270h62V153H89zm281.502 28.68l-27.594 11.773 5.494 12.877 27.594-11.773-5.494-12.877zm12.56 29.433l-27.597 11.772 5.494 12.877 27.593-11.772-5.492-12.877zm12.555 29.434l-27.594 11.77 99.674 233.628 27.594-11.773-99.673-233.625zM25 313v30h46v-30H25zm190 7h18v128h-18V320zM25 361v126h46V361H25zm64 80v46h62v-46H89z" fill="url(#bg-gradient-advantage)" fill-opacity="1" stroke="url(#stroke-gradient-advantage)" stroke-opacity="1" stroke-width="10">[
s]*</path>
	</g>
</svg>