<?xml version="1.0" encoding="utf-8"?>
<!-- Generator: Adobe Illustrator 23.0.1, SVG Export Plug-In . SVG Version: 6.00 Build 0)  -->
<svg id="icon" version="1.1" xmlns="http://www.w3.org/2000/svg" xmlns:xlink="http://www.w3.org/1999/xlink" x="0px" y="0px"
	 viewBox="0 0 512 512" style="enable-background:new 0 0 512 512;" xml:space="preserve">
<g transform="">
	<path d="M72.7,18.3l56.6,42.4c13.4-5,27.7-7.5,42-7.5c1.8,0,3.6,0,5.3,0.1L72.7,18.3z M7,45.5L65.9,112c8-12.4,18-23.2,29.3-32.2
		L7,45.5z M171.3,70.5c-61,0-110.8,52.6-110.8,118.3s49.8,118.3,110.8,118.3c61,0,110.8-52.6,110.8-118.3S232.3,70.5,171.3,70.5
		L171.3,70.5z M9.6,133.6L43.3,189l0-0.2c0-16.8,2.9-32.8,8.2-47.7L9.6,133.6z M347.8,162.5l-13.1,14.3c9.1,8.3,17.6,15.5,25.3,22
		c2.8-6.1,6.8-11.4,11.8-15.5C364.4,177.1,356.4,170.4,347.8,162.5L347.8,162.5z M396,194c-1.6,0-3.1,0.2-4.7,0.5
		c-12.1,3.1-20.5,19.5-15.6,38.5c4.9,19,20.2,29.2,32.3,26.1c12.1-3.1,20.5-19.5,15.6-38.5C419.4,204.1,407.1,194.1,396,194L396,194
		z M6,202.8l55.2,54.8c-7-12.5-12-26.1-14.9-40.2L6,202.8z M303.6,234.6l0.3,19.4c15.6-0.2,41.6,6.1,62.8,13.1
		c4.7,1.6,9.5,3.2,14.1,5c-9.5-6.1-17.2-15.9-21.7-27.7C340.3,238.9,320.2,234.4,303.6,234.6L303.6,234.6z M0,266v18.6
		c21,8.8,42,17.5,63,26.1c60.4,24.9,139.1,57,217.3,88.8c77.2,31.4,154.4,62.8,231.7,94.1v-18.6c-75.1-30.4-150.1-60.9-225.2-91.4
		c-78.2-31.8-156.9-64-217.3-88.8C41.6,283.4,18.1,273.6,0,266L0,266z M428.6,269.5c-4.4,3.9-9.7,6.8-15.8,8.3
		c-5.4,1.4-11.1,1.6-16.6,0.6c20.3,15.2,13.1,63.6,3.2,76c-8.7,11-23,14.6-30.9,15.6c0.1,0.1-0.3,0.1-1.5,0.1c0.5,0,1-0.1,1.5-0.1
		c-0.2-0.1-1.5-0.5-3-1.8c-2.5-2.1-5.8-5.5-9.1-9.5c-6.6-8-13.6-18.4-17.4-25.7l-6.8-12.9l-9.3,11.2c-5.5,6.6-10.8,10.2-23.1,16.9
		l9.3,17c7.8-4.3,13.9-8.1,19.2-12.4c4,6.2,8.3,12.5,13.1,18.2c3.8,4.6,7.6,8.7,11.6,12c3.9,3.3,7.5,6.7,14.8,6.4
		c23.4-0.9,43.6-19.6,60.4-31.8c4.8-3.5,15.1-6.3,25.9-6.6c7.9-0.2,16.1,0.9,22.4,2.6c-1.2,15.5-5.7,42.2-16.2,57.4l-9.8,14.3
		l17.3,0.8c16.7,0.8,25.8-1.5,42.3-8.6l-7.6-17.8c-8.4,3.6-13.1,5.5-17.9,6.4c9.3-21.8,11.5-46.5,11.7-59.2l0.1-6.4l-5.8-2.6
		c-10.6-4.8-23.9-6.8-37.2-6.5c-5.8,0.2-11.5,0.7-17.1,1.9c2.2-10.1,2.4-20.2,1.2-29.9C436.4,291.9,432.9,280.5,428.6,269.5
		L428.6,269.5z"/>
</g>
</svg>
