<?xml version="1.0" standalone="no"?>
<!DOCTYPE svg PUBLIC "-//W3C//DTD SVG 1.1//EN" "http://www.w3.org/Graphics/SVG/1.1/DTD/svg11.dtd" >
<svg xmlns="http://www.w3.org/2000/svg" xmlns:xlink="http://www.w3.org/1999/xlink" version="1.1">
<metadata>
Created by FontForge 20200427 at Wed Feb 19 20:32:15 2014
 By www
(c) Gerard Unger, 2011. ALL RIGHTS RESERVED. Produced by Tom Grace, 2011. This software is licensed, not sold. Unauthorised use prohibited.
</metadata>
<defs>
<font id="AlverataW07-PEMediumItalic" horiz-adv-x="651" >
  <font-face 
    font-family="AlverataW07-PEMediumItalic"
    font-weight="500"
    font-style="italic"
    font-stretch="normal"
    units-per-em="1000"
    panose-1="2 3 6 3 6 5 4 2 0 4"
    ascent="787"
    descent="-213"
    x-height="566"
    cap-height="713"
    bbox="-337 -312 1738 995"
    underline-thickness="39"
    underline-position="-85"
    slope="-7"
    unicode-range="U+0020-FB04"
  />
<missing-glyph horiz-adv-x="500" 
d="M76 0v713h348v-713h-348zM359 65v583h-218v-583h218z" />
    <glyph glyph-name=".notdef" horiz-adv-x="500" 
d="M76 0v713h348v-713h-348zM359 65v583h-218v-583h218z" />
    <glyph glyph-name="glyph1" horiz-adv-x="0" 
 />
    <glyph glyph-name="glyph1" horiz-adv-x="0" 
 />
    <glyph glyph-name="nonmarkingreturn" horiz-adv-x="333" 
 />
    <glyph glyph-name="space" unicode=" " horiz-adv-x="230" 
 />
    <glyph glyph-name="exclam" unicode="!" horiz-adv-x="319" 
d="M286 696q-6 -13 -12 -33t-14.5 -58.5t-20 -101.5t-28.5 -160l-28 -166h-78l14 166q8 100 13 163t6.5 101.5t1 57.5t-3.5 31l-5 19q6 -1 17 -1q9 -1 25 -1h40h40t26 1q11 0 17 1zM194 69q0 -29 -17.5 -51.5t-55.5 -27.5q-32 4 -44.5 22.5t-12.5 38.5q0 28 17 51t56 28
q32 -4 44.5 -21.5t12.5 -39.5z" />
    <glyph glyph-name="quotedbl" unicode="&#x22;" horiz-adv-x="319" 
d="M264 499h-66l17 222h91zM118 499h-65l16 222h91z" />
    <glyph glyph-name="numbersign" unicode="#" horiz-adv-x="543" 
d="M566 456h-115l-39 -201h115l-11 -58h-115l-37 -197h-66l37 197h-168l-37 -197h-66l37 197h-115l12 58h114l39 201h-115l11 58h115l37 197h67l-38 -197h168l37 197h66l-37 -197h115zM217 456l-39 -201h168l39 201h-168z" />
    <glyph glyph-name="dollar" unicode="$" horiz-adv-x="485" 
d="M171 -70l8 62q-42 1 -73 5.5t-54 10.5q-26 6 -46 15q2 7 4 16q2 8 4 19t4 27q2 17 3.5 31.5t2.5 25.5q1 12 2 23q10 -22 23.5 -40.5t32.5 -32t45 -21t61 -7.5l32 255l-33 27q-21 17 -41.5 35t-36.5 39.5t-25.5 48.5t-9.5 63q0 20 6.5 49.5t27.5 58.5t59.5 51.5
t102.5 27.5l8 65h44l-8 -63q35 -1 64.5 -6t50.5 -11q25 -7 43 -15q-1 -7 -3 -16q-2 -8 -3.5 -19.5t-3.5 -28.5q-4 -33 -6 -55q-1 -11 -2 -21q-21 45 -54.5 72t-94.5 29l-29 -233l37 -29q26 -20 48 -40t37.5 -43t24.5 -51t9 -65t-11 -71t-36 -60.5t-65 -43.5t-97 -21l-8 -63
h-44zM260 288l-28 -221q42 8 66.5 34t24.5 74q0 62 -60 111zM178 548q0 -36 18.5 -59.5t39.5 -40.5l25 199q-36 -7 -59.5 -30.5t-23.5 -68.5z" />
    <glyph glyph-name="percent" unicode="%" horiz-adv-x="622" 
d="M340 583q0 -79 -43 -125t-118 -46q-65 0 -103.5 36.5t-38.5 102.5q0 79 43.5 124.5t118.5 45.5q65 0 103 -36.5t38 -101.5zM64 0h-79l571 712h79zM582 161q0 -79 -43 -124.5t-119 -45.5q-64 0 -102 36.5t-38 101.5q0 78 43.5 124t118.5 46q64 0 102 -36.5t38 -101.5z
M271 582q0 37 -18.5 61t-55.5 24q-27 0 -44.5 -12t-27.5 -29.5t-14 -37.5t-4 -36q0 -38 18 -61.5t56 -23.5q27 0 44.5 12t27.5 29.5t14 37.5t4 36zM513 160q0 38 -18.5 61.5t-55.5 23.5q-27 0 -44.5 -12t-27.5 -29.5t-14 -37.5t-4 -36q0 -37 18.5 -61t55.5 -24q27 0 44.5 12
t27.5 29.5t14 37.5t4 36z" />
    <glyph glyph-name="ampersand" unicode="&#x26;" horiz-adv-x="713" 
d="M674 340q-10 -60 -22 -98t-26 -62q-12 -20 -23.5 -34.5t-21.5 -23.5q-11 -11 -21 -17l20 -25q16 -20 27.5 -33.5t21 -22.5t18 -14.5t18.5 -10.5h-18q-9 0 -22.5 0.5t-32.5 0.5h-83l-33 42q-23 -16 -54 -27q-26 -10 -64 -18t-88 -8q-73 0 -118 19t-70 47.5t-33.5 61.5
t-8.5 60q0 71 44 125.5t134 71.5l-19 24q-24 30 -45 67.5t-21 85.5q0 34 11 65t34 54.5t60 37t88 13.5q66 0 104 -18t57.5 -42.5t24.5 -50t5 -41.5q0 -40 -13 -72t-35.5 -56.5t-53 -41t-66.5 -24.5l175 -225q11 12 22 29q9 14 17 36t11 52q6 56 -12 74q5 -1 13 -1
q7 -1 18 -1h28h40q8 0 13 1zM422 567q0 19 -4.5 36t-15.5 29.5t-29.5 19.5t-45.5 7q-13 0 -28.5 -3.5t-28.5 -13.5t-22 -27.5t-9 -45.5q0 -34 17 -65.5t40 -61.5l30 -38q51 23 73.5 63t22.5 100zM241 345q-28 -10 -49 -29q-18 -17 -33 -45t-15 -71q0 -30 8.5 -56t27.5 -45.5
t48.5 -31t71.5 -11.5q35 0 61 5.5t43 12.5q20 8 34 18z" />
    <glyph glyph-name="quotesingle" unicode="'" horiz-adv-x="173" 
d="M118 499h-65l16 222h91z" />
    <glyph glyph-name="parenleft" unicode="(" horiz-adv-x="272" 
d="M308 787q-40 -48 -74 -125t-58.5 -170.5t-38 -197.5t-13.5 -205q0 -108 18 -184t35 -118q-24 17 -49 47t-45.5 75t-33.5 104.5t-13 135.5q0 41 5 96.5t17 117.5t32 126t50.5 121.5t71.5 103.5t96 73z" />
    <glyph glyph-name="parenright" unicode=")" horiz-adv-x="272" 
d="M236 425q0 -41 -5 -96.5t-17 -117.5t-32 -126t-50.5 -121.5t-72 -103.5t-95.5 -73q40 48 73.5 125t58 170.5t38.5 197.5t14 205q0 108 -18 184t-35 118q24 -17 49 -47.5t45.5 -75t33.5 -104.5t13 -135z" />
    <glyph glyph-name="asterisk" unicode="*" horiz-adv-x="388" 
d="M261 621l126 -56l-38 -53l-104 88l6 -148h-72l41 148l-121 -86l-28 57l141 50l-131 53l42 55l104 -86l-5 147h72l-42 -147l123 85l26 -57z" />
    <glyph glyph-name="plus" unicode="+" 
d="M368 318v-257h-76v257h-244v73h244v256h76v-256h243v-73h-243z" />
    <glyph glyph-name="comma" unicode="," horiz-adv-x="246" 
d="M159 47q0 -37 -11 -71.5t-32 -61.5t-53 -43.5t-74 -16.5q17 12 30 30q11 16 21 39.5t10 56.5q0 20 -5 32t-11 18q-7 7 -15 10l2 17q5 35 25 53t52 23q18 -3 30 -11t19 -19.5t9.5 -26t2.5 -29.5z" />
    <glyph glyph-name="hyphen" unicode="-" horiz-adv-x="326" 
d="M281 241h-246l10 84h246z" />
    <glyph glyph-name="period" unicode="." horiz-adv-x="252" 
d="M169 65q0 -32 -21 -53.5t-59 -25.5q-37 5 -52.5 24t-15.5 47q0 32 21 53t59 26q38 -6 53 -24.5t15 -46.5z" />
    <glyph glyph-name="slash" unicode="/" horiz-adv-x="278" 
d="M36 -215h-71l275 1000h72z" />
    <glyph glyph-name="zero" unicode="0" horiz-adv-x="611" 
d="M571 423q0 -39 -4.5 -86.5t-17 -96t-33.5 -94t-53.5 -80.5t-78.5 -56.5t-107 -21.5q-74 0 -118.5 26t-68.5 64.5t-31.5 82t-7.5 78.5q0 39 4.5 86.5t17 96t33.5 94t53.5 80.5t78 56.5t106.5 21.5q74 0 118.5 -26t68.5 -64.5t32 -82t8 -78.5zM453 431q0 40 -4 72
t-16.5 54.5t-35.5 34t-60 11.5q-39 0 -67 -23t-46.5 -58.5t-29.5 -79t-16.5 -85t-7 -75.5t-1.5 -51q0 -41 4 -72.5t16.5 -54t35 -34t59.5 -11.5q39 0 67 23t47 58.5t30 79t16.5 85t7 75.5t1.5 51z" />
    <glyph glyph-name="one" unicode="1" horiz-adv-x="399" 
d="M328 688q-7 -40 -16 -94q-8 -46 -17 -112.5t-20 -153.5q-12 -93 -17.5 -147.5t-7 -86t1.5 -47.5t9 -31l7 -17q-8 0 -20 1q-11 0 -27.5 0.5t-39.5 0.5t-39 -0.5t-27 -0.5q-12 -1 -21 -1l11 17q9 14 15.5 27.5t13 46.5t15.5 96t23 175l24 189q2 11 -2 16t-21 5h-115
q19 28 51 41.5t69 23t76.5 20t73.5 32.5z" />
    <glyph glyph-name="two" unicode="2" horiz-adv-x="524" 
d="M483 508q0 -50 -18 -89.5t-46 -72t-62.5 -59.5t-68.5 -52l-79 -60q-38 -27 -66 -52.5t-30 -38.5h175q71 0 112 22q11 6 18.5 11t12.5 9t8 7q-3 -12 -6 -26q-3 -12 -6 -29.5t-6 -38.5l-6 -39h-421q4 32 13.5 58t25 49.5t38 46t52.5 48.5l91 76q35 30 63 55t47 50t29 52
t10 62q0 55 -28 80.5t-86 25.5q-35 0 -60 -6.5t-44.5 -18t-35.5 -28t-32 -35.5q2 8 4 19q2 9 4 21.5t4 28.5q2 17 2.5 28t1.5 19q1 9 1 14q17 8 43 14q22 5 55 10t80 5q64 0 105.5 -14t64.5 -37t32 -53t9 -62z" />
    <glyph glyph-name="three" unicode="3" horiz-adv-x="519" 
d="M477 513q0 -56 -18.5 -92t-46.5 -58t-62.5 -32.5t-65.5 -14.5q24 -2 52.5 -10.5t53.5 -28t41.5 -51t16.5 -79.5q0 -46 -14 -85t-44.5 -67.5t-79 -44.5t-117.5 -16q-87 0 -144 32t-72 86q15 -13 41 -23q22 -8 57.5 -15t89.5 -7q32 0 62 7.5t53 24.5t37 46t14 73
q0 27 -6.5 50t-22.5 39t-43 25t-68 9q-26 0 -45.5 -5t-27.5 -9q1 5 2 12q1 6 2 15t3 21q2 13 3 22.5t1 15.5v11q6 -3 25 -8.5t49 -5.5q52 0 83.5 14.5t48.5 36.5t22.5 47.5t5.5 47.5q0 21 -5.5 40.5t-19 34.5t-36.5 24t-57 9q-30 0 -53 -5.5t-42.5 -16.5t-36.5 -28t-35 -39
l3 18q2 9 4 21.5t4 29.5t3 28.5t2 19.5v13q17 8 42 14q21 5 52 10t73 5q28 0 65 -4.5t70.5 -20.5t57 -48.5t23.5 -87.5z" />
    <glyph glyph-name="four" unicode="4" horiz-adv-x="594" 
d="M554 255q-1 -5 -2 -13q-1 -7 -2 -17t-3 -23q-2 -14 -3 -24t-2 -16q-1 -7 -1 -12l-20 5q-11 2 -26.5 3.5t-37.5 1.5h-10q-4 -35 -5.5 -75t10.5 -69l7 -17q-8 0 -19 1q-10 0 -26.5 0.5t-39.5 0.5q-25 0 -41 -0.5t-26 -0.5q-11 -1 -18 -1l11 17q17 26 25.5 64t13.5 80h-327
q3 27 9.5 52t21 52t39.5 58t67 69l90 83q88 81 130 132.5t42 92.5q0 12 -2.5 20.5t-4.5 14.5q-4 6 -7 11q7 4 17 8q8 3 20.5 6t29.5 3q25 0 40 -7.5t22 -18t9 -22t2 -19.5q0 -30 -16 -58.5t-45 -59t-69 -65t-88 -75.5l-95 -80q-47 -41 -72 -67.5t-25 -46.5h224l9 78
q14 3 30.5 8.5t32 13t29 16t22.5 17.5l-16 -133h10q23 0 38.5 2t26.5 4q12 3 21 6z" />
    <glyph glyph-name="five" unicode="5" horiz-adv-x="536" 
d="M505 676q-1 -6 -2 -14q-1 -7 -2.5 -17t-3.5 -23q-2 -15 -3 -25t-2 -17q-1 -8 -1 -12q-5 2 -22 5q-14 2 -40.5 4t-71.5 2h-158l-32 -198q10 3 24 7q12 3 30 5.5t41 2.5q46 0 84.5 -12.5t67 -38t44.5 -64.5t16 -91q0 -20 -3 -46.5t-12.5 -55t-27 -56t-46.5 -49.5
t-71.5 -35.5t-100.5 -13.5q-41 0 -77 8.5t-63.5 23.5t-45.5 37t-24 49q15 -13 40 -23q21 -8 55 -15t82 -7q28 0 59 7t57.5 26t43.5 53.5t17 89.5q0 29 -7 55.5t-25 46.5t-48 31.5t-76 11.5q-31 0 -54.5 -4t-39.5 -9q-18 -5 -32 -12l53 362h240q45 0 72 1.5t41 3.5q17 3 24 6
z" />
    <glyph glyph-name="six" unicode="6" horiz-adv-x="598" 
d="M566 632q-12 7 -30 13q-16 5 -40.5 9.5t-59.5 4.5q-61 0 -104.5 -24.5t-72.5 -63t-46 -85.5t-26 -92.5t-11.5 -84t-2.5 -59.5q0 -39 3 -74t14.5 -62t34.5 -42.5t62 -15.5q41 0 67 19.5t41 48.5t20.5 62t5.5 60q0 20 -2 42.5t-11 41t-26.5 30.5t-47.5 12q-21 0 -35.5 -5
t-24 -12t-14 -13t-5.5 -7q1 15 8.5 32.5t22.5 32.5t39 25.5t58 10.5q46 0 76 -16t47.5 -42t24.5 -58.5t7 -66.5q0 -20 -3.5 -47.5t-13.5 -57t-27.5 -58.5t-45.5 -51.5t-68 -36.5t-94 -14q-79 0 -124.5 26.5t-68.5 66t-29 85.5t-6 86q0 44 6 96.5t20.5 105t39.5 102t63 87
t90 60.5t122 23q57 0 90 -15t50 -32q20 -21 27 -47z" />
    <glyph glyph-name="seven" unicode="7" horiz-adv-x="500" 
d="M519 666q-4 -32 -13.5 -61t-24 -58.5t-33.5 -61.5t-41 -70l-88 -148q-34 -57 -54.5 -100t-31 -75t-14 -55t-3.5 -41q0 -16 2.5 -27t6.5 -19q4 -9 10 -15q-7 -5 -18 -9q-9 -3 -23.5 -5.5t-33.5 -2.5q-23 0 -37.5 7.5t-22 19t-10 24t-2.5 22.5q0 33 11 68t30 72t44.5 77
t54.5 82l101 151q12 18 25.5 39.5t25.5 41t19.5 35.5t7.5 23l-211 1q-51 0 -89.5 -13.5t-62.5 -35.5q1 9 4 20q2 10 4.5 23.5t4.5 32.5q2 18 3 31t2 21q1 10 1 17q5 -3 22 -6q14 -2 40.5 -3.5t71.5 -1.5h322v0z" />
    <glyph glyph-name="eight" unicode="8" horiz-adv-x="558" 
d="M522 522q0 -44 -21 -75t-48 -50.5t-54 -29.5t-39 -11l20 -12q22 -14 43 -29t37 -35t25.5 -47t9.5 -64q0 -28 -10.5 -60t-37.5 -59t-73 -44.5t-117 -17.5q-39 0 -80 6.5t-74.5 24.5t-55 49.5t-21.5 81.5q0 49 23 83.5t53.5 56.5t61 33t45.5 13l-20 12q-33 19 -52.5 40
t-29.5 41.5t-13 41t-3 38.5q0 16 6 43.5t28 54.5t65.5 47t119.5 20q98 0 155 -35.5t57 -116.5zM420 506q0 55 -27.5 80.5t-83.5 25.5q-33 0 -55 -9t-35 -22.5t-18.5 -30t-5.5 -31.5q0 -35 15.5 -57.5t54.5 -46.5l59 -36q27 8 48 25q18 14 33 39t15 63zM385 158
q0 41 -19.5 68t-65.5 55l-57 34q-30 -11 -54 -31q-20 -17 -37 -45.5t-17 -72.5q0 -54 28 -84.5t97 -30.5q56 0 90.5 25.5t34.5 81.5z" />
    <glyph glyph-name="nine" unicode="9" horiz-adv-x="597" 
d="M541 411q0 -44 -6 -96.5t-20.5 -105.5t-39.5 -102t-63 -87t-90.5 -61t-121.5 -23q-57 0 -90 14.5t-50 32.5q-20 20 -27 47q12 -8 30 -14q16 -5 40.5 -9t59.5 -4q61 0 104.5 24.5t72.5 63t46 85.5t26 92.5t11.5 84t2.5 59.5q0 39 -3 74.5t-14.5 62t-34.5 42.5t-62 16
q-41 0 -67 -19.5t-41 -49t-20.5 -62.5t-5.5 -60q0 -20 2 -42t11 -40.5t26.5 -30.5t47.5 -12q21 0 35.5 5t24 11.5t14 12t5.5 6.5q-1 -14 -8.5 -31.5t-23 -32.5t-39.5 -25.5t-57 -10.5q-46 0 -76 16t-47.5 42t-24.5 58.5t-7 66.5q0 31 8.5 76t35.5 87t76.5 72t131.5 30
q79 0 124.5 -26.5t68.5 -66t29 -85.5t6 -85z" />
    <glyph glyph-name="colon" unicode=":" horiz-adv-x="269" 
d="M241 503q0 -32 -21 -53.5t-59 -25.5q-38 5 -53 24t-15 46q0 32 21 53.5t59 25.5q37 -5 52.5 -23.5t15.5 -46.5zM181 65q0 -32 -21 -53.5t-59 -25.5q-38 5 -53.5 24t-15.5 47q0 32 21 53t59 26q38 -6 53.5 -24.5t15.5 -46.5z" />
    <glyph glyph-name="semicolon" unicode=";" horiz-adv-x="268" 
d="M241 503q0 -32 -21 -53.5t-59 -25.5q-38 5 -53.5 24t-15.5 46q0 32 21 53.5t59 25.5q38 -5 53.5 -23.5t15.5 -46.5zM174 47q0 -37 -10.5 -71.5t-32 -61.5t-53.5 -43.5t-74 -16.5q17 12 30 30q11 16 21 39.5t10 56.5q0 20 -5 32t-11 18q-7 7 -15 10l3 17q5 35 24.5 53
t51.5 23q18 -3 30 -11t19 -19.5t9.5 -26t2.5 -29.5z" />
    <glyph glyph-name="less" unicode="&#x3c;" 
d="M46 321v71l563 250v-83l-463 -201l463 -201v-85z" />
    <glyph glyph-name="equal" unicode="=" 
d="M48 443v72h564v-72h-564zM48 192v73h564v-73h-564z" />
    <glyph glyph-name="greater" unicode="&#x3e;" 
d="M52 72v85l463 201l-463 201v83l562 -250v-71z" />
    <glyph glyph-name="question" unicode="?" horiz-adv-x="451" 
d="M451 560q0 -39 -11.5 -71t-29 -57.5t-37 -45.5t-35.5 -35l-62 -58q-29 -27 -40 -46t-13 -37q-1 -8 -0.5 -13.5t1.5 -10.5t2 -9h-94q-1 3 -1.5 10t1.5 19q5 31 18.5 57.5t42.5 56.5l70 75q13 14 26 29.5t23 34t16 40.5t6 49q0 43 -25 72.5t-89 29.5q-30 0 -52.5 -5.5
t-41 -16.5t-35 -28t-35.5 -40q1 8 3 19q2 9 4 22t4 30t3 28.5t2 18.5v13q16 8 41 14q21 5 53.5 10t77.5 5q104 0 155.5 -41t51.5 -119zM226 69q0 -29 -17.5 -51.5t-55.5 -27.5q-32 4 -44.5 22.5t-12.5 38.5q0 28 17 51t56 28q32 -4 44.5 -21.5t12.5 -39.5z" />
    <glyph glyph-name="at" unicode="@" horiz-adv-x="1008" 
d="M979 386q0 -59 -11.5 -113.5t-34 -100.5t-55 -81.5t-74.5 -57.5q-53 -28 -102 -35.5t-80 -7.5q-35 0 -50 15t-15 39q0 10 2.5 34t7 57t9.5 72.5t11 78.5q13 92 30 203q-7 6 -19 11q-11 4 -27.5 7.5t-39.5 3.5q-39 0 -67 -19t-47 -48.5t-30.5 -66.5t-17.5 -73.5t-8 -68.5
t-2 -52q0 -18 2.5 -40.5t11 -41.5t25 -32t44.5 -13q23 0 38 5.5t24 12.5t12.5 13.5t4.5 7.5q-5 -36 -19.5 -57t-32.5 -32t-37 -14t-33 -3q-51 0 -81 22t-45.5 53.5t-19.5 67t-4 62.5q0 22 3 59.5t12 80.5t27 87t47.5 80t73 58.5t104.5 22.5q34 0 58.5 -7.5t39.5 -15.5
q18 -11 29 -23l96 47q-5 -23 -12 -62q-6 -34 -14.5 -88.5t-19.5 -137.5l-33 -245q53 2 95.5 26.5t72 67.5t45.5 102.5t16 131.5q0 61 -16 121.5t-55.5 108t-107.5 77t-172 29.5q-83 0 -158 -26t-133 -81t-92 -141.5t-34 -207.5q0 -48 6.5 -96.5t23.5 -93.5t46 -83.5
t73.5 -67t106.5 -45t146 -16.5q68 0 121 11.5t92 29.5t66 38.5t44 39t25 31.5t9 15q0 -18 -7 -42.5t-23 -50.5t-44 -51t-70 -45t-100.5 -32t-135.5 -12q-110 0 -197 29.5t-147 87.5t-92 142.5t-32 195.5q0 88 20 167.5t59.5 145.5t98.5 116t137 79q46 17 99 24t110 7
q85 0 162 -23t135 -71.5t92 -123.5t34 -178z" />
    <glyph glyph-name="A" unicode="A" horiz-adv-x="595" 
d="M571 -1q-10 0 -24 1q-12 0 -30 0.5t-41 0.5q-24 0 -42 -0.5t-31 -0.5q-15 -1 -26 -1q21 14 30 33.5t9 48.5q0 9 -1 20.5t-2.5 28t-5 39t-7.5 55.5l-8 59h-213l-23 -56q-16 -39 -27 -66t-17.5 -46.5t-9.5 -33t-3 -26.5q0 -24 7.5 -37t15.5 -19q-11 0 -25 1q-12 0 -28 0.5
t-35 0.5q-20 0 -36 -0.5t-27 -0.5q-13 -1 -23 -1q14 14 25.5 30.5t25 42.5t31 65.5t42.5 99.5l173 411q4 10 8 21t4 22q0 6 -1 10t-2 6q-2 3 -3 4h206q0 -1 -5 -6.5t-5 -22.5q0 -8 1.5 -19.5t2.5 -17.5l60 -409q9 -63 15.5 -103t12.5 -65.5t13.5 -40.5t18.5 -28zM346 605
q-5 38 -6.5 55.5t-1.5 18.5q-1 -2 -7 -19t-21 -55l-102 -251h174z" />
    <glyph glyph-name="B" unicode="B" horiz-adv-x="581" 
d="M546 545q0 -39 -11 -67.5t-28 -49t-38 -33.5t-41 -20.5t-36.5 -10.5t-24.5 -4q15 -1 42.5 -6.5t53.5 -22.5t45.5 -48t19.5 -82q0 -65 -31 -111t-91 -69q-38 -15 -87.5 -19t-100.5 -4q-43 0 -77.5 1.5t-51.5 1.5q-13 0 -24.5 -0.5t-20.5 -0.5q-11 -1 -20 -1l11 17
q6 10 11 18.5t9.5 22t9 35.5t10 57t12.5 87t17 127q4 28 8.5 67.5t9 78.5t7.5 72t3 49q0 23 -2.5 37.5t-8.5 28.5l-7 17q8 -1 19 -1q9 -1 20.5 -1h25.5q23 0 54.5 1.5t66.5 1.5q52 0 97 -6t78 -24t52 -51t19 -88zM173 68q19 -5 39.5 -6t43.5 -1q5 0 16 0.5t24 2.5t27 5.5
t26 10.5q22 12 35.5 28.5t20.5 34.5t9 35t2 29q0 40 -11 64.5t-31 37.5t-49.5 17t-65.5 4q-11 0 -21 -0.5t-18 -0.5q-10 -1 -17 -1zM433 538q0 34 -9 56t-26.5 35t-43.5 18t-59 5q-9 0 -18 -0.5t-16 -0.5q-9 -1 -16 -1l-33 -256q7 -1 16 -1q8 -1 17.5 -1h21.5q6 0 21 0.5
t27 2.5q62 7 90 45t28 98z" />
    <glyph glyph-name="C" unicode="C" horiz-adv-x="586" 
d="M602 690q-1 -6 -3 -16q-2 -8 -3.5 -21t-3.5 -30q-5 -34 -6 -52q-1 -11 -2 -20q-11 22 -23.5 40t-31 31t-44.5 20t-65 7q-17 0 -43 -2.5t-54.5 -13.5t-57 -33t-51.5 -61.5t-37 -98.5t-14 -144q0 -49 11 -91.5t35.5 -73.5t63.5 -49t96 -18q28 0 50.5 6.5t42 18.5t37 30
t35.5 41q-2 -9 -4 -20q-2 -10 -4 -24.5t-4 -31.5q-2 -16 -3 -27t-2 -19q-1 -9 -1 -16q-15 -9 -39 -15q-20 -5 -52 -9.5t-77 -4.5q-83 0 -140.5 23t-93.5 64t-52.5 96t-16.5 120q0 76 18 152t61 136.5t115 98.5t180 38q45 0 79 -5t57 -11q27 -7 47 -15z" />
    <glyph glyph-name="D" unicode="D" horiz-adv-x="693" 
d="M650 412q0 -71 -11.5 -125t-30.5 -95t-42.5 -69.5t-46.5 -47.5t-44.5 -30t-35.5 -17q-43 -17 -94.5 -23.5t-116.5 -6.5q-31 0 -66.5 1.5t-60.5 1.5q-18 0 -32.5 -0.5t-24.5 -0.5q-11 -1 -20 -1l11 17q6 10 11 18.5t9.5 22t9 35.5t10 57t12.5 87t17 127q4 28 8.5 67.5
t9 78.5t7.5 72t3 49q0 23 -2.5 37.5t-8.5 28.5l-7 17q9 -1 20 -1q10 -1 24 -1h31q27 0 61 1.5t62 1.5q69 0 130 -11.5t107.5 -44t73.5 -91.5t27 -155zM534 421q0 118 -50.5 173t-170.5 55q-14 0 -25.5 -0.5t-20.5 -1.5q-11 -1 -19 -1l-72 -574q17 -5 37 -6.5t40 -1.5
q57 0 93.5 9.5t64.5 33.5q36 20 59.5 54t37.5 76t20 89.5t6 94.5z" />
    <glyph glyph-name="E" unicode="E" horiz-adv-x="534" 
d="M514 712q-1 -6 -3 -14q-3 -14 -6 -39q-2 -17 -2.5 -29.5t-1.5 -20.5q-1 -10 -1 -17l-8 10q-8 10 -24 21q-33 22 -101 22h-120l-32 -255h98q34 0 62 4t46 15q11 6 18 11t12 9t8 7q-1 -9 -4 -21q-2 -11 -5 -25.5t-5 -34.5q-3 -19 -4 -33.5t-2 -24.5q-1 -11 -1 -20
q-2 3 -6 7t-9.5 8.5t-15.5 11.5q-16 11 -42.5 15t-59.5 4h-98l-34 -256h113q44 0 71.5 5t46 15.5t31.5 26t30 36.5q-3 -11 -7 -28q-4 -14 -8.5 -37t-10.5 -55l-6 -30h-335q-20 0 -33.5 -0.5t-22.5 -0.5h-18l11 17q6 10 11 18.5t9.5 22t9 35.5t10 57t12.5 87t17 127
q4 28 8.5 67.5t9 78.5t7.5 72t3 49q0 23 -2.5 37.5t-8.5 28.5l-7 17q7 -1 18 -1h56h326v0z" />
    <glyph glyph-name="F" unicode="F" horiz-adv-x="504" 
d="M515 712q-1 -6 -3 -14q-3 -14 -6 -39q-2 -17 -2.5 -29.5t-1.5 -20.5q-1 -10 -1 -17l-8 10q-8 10 -24 21q-33 22 -101 22h-120l-32 -260h98q34 0 61.5 4t45.5 15q11 6 18 11t12 9t8 7q-1 -9 -4 -21q-2 -11 -5 -25.5t-5 -34.5q-3 -19 -4 -33t-2 -24q-1 -11 -1 -20
q-2 3 -6 7q-3 4 -9 8.5t-15 11.5q-17 11 -43 15t-60 4h-98q-4 -32 -8.5 -67t-8 -67.5t-6 -60t-2.5 -42.5q0 -23 2.5 -37.5t9.5 -28.5l7 -17q-7 0 -19 1q-11 0 -27.5 0.5t-40.5 0.5t-41 -0.5t-28 -0.5q-13 -1 -21 -1l11 17q6 10 11 18.5t9.5 22t9 35.5t10 57t12.5 87t17 127
q4 28 8.5 67.5t9 78.5t7.5 72t3 49q0 23 -2.5 37.5t-8.5 28.5l-7 17q7 -1 18 -1h56h327v0z" />
    <glyph glyph-name="G" unicode="G" 
d="M630 690q-1 -6 -3 -16q-2 -8 -3.5 -21t-3.5 -30q-5 -34 -6 -52q-1 -11 -2 -20q-12 23 -24.5 41t-32 31t-48.5 19.5t-73 6.5q-39 0 -86.5 -13t-88.5 -51.5t-68.5 -107t-27.5 -179.5q0 -48 9.5 -90.5t33.5 -74.5t64.5 -51t101.5 -19q37 0 54 3q10 1 16 3q1 6 4 28.5
t6.5 50.5t6.5 56.5t3 46.5t-2.5 34t-7.5 29l-7 17q8 -1 19 -1q10 -1 25 -1h37h38.5t27.5 1q12 0 21 1l-11 -17q-10 -16 -17 -32.5t-13 -44t-12 -71t-15 -112.5l-4 -27q-20 -10 -46 -17q-23 -7 -57 -12t-80 -5q-155 0 -234 80.5t-79 222.5q0 38 5 84t20 93.5t41.5 92t69.5 79
t105 55.5t148 21q53 0 89.5 -5t60.5 -11q27 -7 46 -15z" />
    <glyph glyph-name="H" unicode="H" horiz-adv-x="706" 
d="M685 696q-6 -10 -11 -18.5t-9.5 -22t-9 -35.5t-10 -57t-13 -87t-16.5 -127q-4 -29 -8.5 -68l-9 -78t-7.5 -72t-3 -49q0 -23 2.5 -37.5t8.5 -28.5l7 -17q-7 0 -19 1q-11 0 -27.5 0.5t-40.5 0.5t-40.5 -0.5t-27.5 -0.5q-12 -1 -20 -1l11 17q9 14 15.5 27.5t13.5 43.5t15 86
t21 155h-301q-4 -29 -8.5 -65.5t-8 -71.5t-6 -64.5t-2.5 -44.5q0 -23 2.5 -37.5t8.5 -28.5l7 -17q-8 0 -20 1q-11 0 -27 0.5t-40 0.5t-40.5 -0.5t-27.5 -0.5q-12 -1 -20 -1l11 17q6 10 11 18.5t9.5 22t9 35.5t10 57t12.5 87t17 127q4 28 8.5 67.5t9 78.5t7.5 72t3 49
q0 23 -2.5 37.5t-8.5 28.5l-7 17q7 -1 19 -1q10 -1 26.5 -1h40.5h40.5t27.5 1q12 0 21 1l-11 -17q-9 -14 -15.5 -27t-13 -41t-14 -80t-19.5 -143h300q4 30 8 63.5t7.5 65t5.5 57t2 39.5q0 23 -2.5 37.5t-8.5 28.5l-7 17q7 -1 19 -1q10 -1 26.5 -1h40.5h40.5t27.5 1
q12 0 21 1z" />
    <glyph glyph-name="I" unicode="I" horiz-adv-x="299" 
d="M278 696q-6 -10 -11 -18.5t-9.5 -22t-9 -35.5t-10 -57t-13 -87t-16.5 -127q-4 -29 -8.5 -68l-9 -78t-7.5 -72t-3 -49q0 -23 2.5 -37.5t8.5 -28.5l7 -17q-8 0 -20 1q-11 0 -27 0.5t-40 0.5t-40.5 -0.5t-27.5 -0.5q-12 -1 -20 -1l11 17q6 10 11 18.5t9.5 22t9 35.5t10 57
t12.5 87t17 127q4 28 8.5 67.5t9 78.5t7.5 72t3 49q0 23 -2.5 37.5t-8.5 28.5l-7 17q7 -1 19 -1q10 -1 26.5 -1h40.5h40.5t27.5 1q12 0 21 1z" />
    <glyph glyph-name="J" unicode="J" horiz-adv-x="292" 
d="M282 696q-9 -14 -16 -28.5t-14 -48.5t-16.5 -96.5t-22.5 -172.5l-48 -382q-4 -34 -11.5 -66.5t-27.5 -58t-56 -41t-97 -15.5h-19q33 15 52 38t30 53t16.5 68t11.5 84l44 336q4 28 8.5 67t9 77.5t7.5 71t3 48.5q0 23 -2.5 37.5t-8.5 28.5l-7 17q7 -1 19 -1q10 -1 26.5 -1
h40.5h40.5t27.5 1q12 0 21 1z" />
    <glyph glyph-name="K" unicode="K" horiz-adv-x="582" 
d="M646 713q-3 -2 -7 -6q-8 -8 -27 -30q-18 -20 -37.5 -53.5t-50 -74.5t-75 -86.5t-111.5 -88.5l117 -204q27 -46 47 -76.5t35 -49.5t26 -29t20 -16h-21q-11 0 -27.5 0.5t-40.5 0.5h-69l-203 365q18 10 44 29.5t54.5 45t56.5 55t50.5 59.5t36.5 59t14 53q0 11 -3.5 23.5
t-17.5 23.5q10 -1 23 -2q11 -1 28 -1h40h43.5t30.5 1q14 1 24 2zM278 696q-6 -10 -11 -18.5t-9.5 -22t-9 -35.5t-10 -57t-13 -87t-16.5 -127q-4 -29 -8.5 -68l-9 -78t-7.5 -72t-3 -49q0 -23 2.5 -37.5t8.5 -28.5l7 -17q-8 0 -20 1q-11 0 -27 0.5t-40 0.5t-40.5 -0.5
t-27.5 -0.5q-12 -1 -20 -1l11 17q6 10 11 18.5t9.5 22t9 35.5t10 57t12.5 87t17 127q4 28 8.5 67.5t9 78.5t7.5 72t3 49q0 23 -2.5 37.5t-8.5 28.5l-7 17q7 -1 19 -1q10 -1 26.5 -1h40.5h40.5t27.5 1q12 0 21 1z" />
    <glyph glyph-name="L" unicode="L" horiz-adv-x="468" 
d="M266 67q44 0 71.5 5t46 15.5t32 26t30.5 36.5q-4 -11 -8 -28q-4 -14 -8.5 -37t-10.5 -55l-5 -30h-316q-20 0 -33.5 -0.5t-22.5 -0.5h-18l11 17q6 10 11 18.5t9.5 22t9 35.5t10 57t12.5 87t17 127q4 28 8.5 67.5t9 78.5t7.5 72t3 49q0 23 -2.5 37.5t-8.5 28.5l-7 17
q7 -1 19 -1q10 -1 26.5 -1h40.5h41.5t28.5 1q13 0 21 1l-12 -17q-6 -9 -11 -17.5t-9.5 -22t-9 -34.5t-10 -55t-12 -84t-15.5 -120l-38 -296h92z" />
    <glyph glyph-name="M" unicode="M" horiz-adv-x="796" 
d="M696 -1q-8 0 -19 1q-10 0 -26 0.5t-39 0.5q-24 0 -40 -0.5t-27 -0.5q-12 -1 -20 -1l10 17q6 10 11 18.5t9.5 22t9 35.5t10 57t12.5 87t16 127l35 278q-2 -3 -11.5 -26t-21.5 -45l-245 -445l-124 442q-3 11 -6 23.5t-5 23.5q-3 12 -4 25l-37 -290q-3 -29 -8 -68t-9.5 -78
t-7.5 -72t-3 -49q0 -23 3 -37.5t8 -28.5l7 -17q-8 0 -19 1q-10 0 -23.5 0.5t-32.5 0.5q-20 0 -34 -0.5t-23 -0.5q-11 -1 -18 -1l11 17q6 10 11 18.5t9.5 22t9 35.5t10 57t12.5 87t17 127q4 28 8.5 67.5t9 78.5t7.5 72t3 49q0 23 -3 37.5t-8 28.5l-7 17q11 -1 25 -1
q12 -1 29.5 -1h40.5h37t29 1q14 1 24 2l93 -330q6 -21 7 -34t1 -14q0 2 7 20t17 36l177 321q10 -1 23 -1q11 -1 27.5 -1h38.5h38.5t30.5 1q15 0 27 1l-11 -17q-6 -10 -11 -18.5t-9.5 -22t-9 -35t-10 -57t-13 -87.5t-16.5 -127q-5 -37 -9.5 -78t-9 -78.5t-7 -67.5t-2.5 -46
q0 -23 2.5 -36t8.5 -27l7 -17v0z" />
    <glyph glyph-name="N" unicode="N" horiz-adv-x="694" 
d="M680 696q-6 -10 -11 -18.5t-9.5 -22t-9.5 -35.5t-10.5 -57t-12.5 -87t-16 -127l-44 -351q-7 0 -17 1q-8 1 -20.5 1.5t-28.5 0.5q-17 0 -30.5 -0.5t-22.5 -1.5q-11 -1 -19 -1l-193 543q-5 13 -8.5 27.5t-5.5 25.5q-3 13 -5 26l-33 -271q-3 -29 -8 -68t-9.5 -78t-7.5 -72
t-3 -49q0 -23 2.5 -37.5t8.5 -28.5l7 -17q-8 0 -19 1q-10 0 -23.5 0.5t-32.5 0.5q-20 0 -34 -0.5t-23 -0.5q-11 -1 -18 -1l11 17q6 10 11 18.5t9.5 22t9 35.5t10 57t12.5 87t17 127q4 28 8.5 67.5t9 78.5t7.5 72t3 49q0 23 -2.5 37.5t-8.5 28.5l-7 17q7 -1 19 -1
q11 -1 28 -1h43h37.5t25.5 1q11 0 19 1l191 -541q6 -17 10 -31t6 -25q3 -13 4 -24l33 272q3 28 8 67.5t9.5 78t7.5 71.5t3 49q0 23 -2.5 37.5t-8.5 28.5l-7 17q8 -1 19 -1q9 -1 23 -1h33h33t24 1q11 0 19 1z" />
    <glyph glyph-name="O" unicode="O" horiz-adv-x="682" 
d="M639 430q0 -42 -6 -90.5t-20.5 -97.5t-38.5 -95t-60.5 -81.5t-86 -56.5t-115.5 -21q-72 0 -123 21.5t-83 60.5t-46.5 93t-14.5 119q0 42 6 91t20.5 98t38.5 95t60.5 81.5t86.5 56.5t116 21q72 0 122.5 -21.5t82.5 -60.5t46.5 -93.5t14.5 -119.5zM520 436q0 52 -6 92.5
t-22.5 68t-44.5 42t-72 14.5q-47 0 -81 -20t-57.5 -52t-38 -73t-22 -82.5t-10 -80.5t-2.5 -68q0 -52 6 -92.5t22.5 -68t45 -42t72.5 -14.5q47 0 81 20t57 52t37.5 73t22 82.5t10 80.5t2.5 68z" />
    <glyph glyph-name="P" unicode="P" horiz-adv-x="559" 
d="M555 522q0 -81 -28 -128.5t-69 -72t-86.5 -32t-81.5 -7.5q-40 0 -64 3q-14 2 -25 4q-3 -23 -6.5 -52.5l-7 -59t-5.5 -55t-2 -40.5q0 -23 3 -37.5t9 -28.5l7 -17q-8 0 -20 1q-11 0 -27.5 0.5t-40.5 0.5q-22 0 -38 -0.5t-27 -0.5q-13 -1 -22 -1l11 17q6 10 11 18.5t9.5 22
t9 35.5t10 57t12.5 87t17 127q4 28 8.5 67.5t9 78.5t7.5 72t3 49q0 23 -2.5 37.5t-8.5 28.5l-7 17q9 -1 20 -1q9 -1 21 -1h25q12 0 28.5 0.5t34 1t33.5 1t28 0.5q35 0 78.5 -4t82 -23t64.5 -57.5t26 -107.5zM440 521q0 72 -33.5 101t-109.5 29q-12 0 -21.5 -0.5t-15.5 -0.5
q-8 -1 -13 -1l-37 -295q5 -2 16 -3q8 -1 22 -1.5t34 -0.5q45 0 75.5 12.5t49 35.5t26 54.5t7.5 69.5z" />
    <glyph glyph-name="Q" unicode="Q" horiz-adv-x="680" 
d="M668 3q-8 -26 -28 -45q-17 -17 -49.5 -30.5t-86.5 -13.5q-33 0 -76 5.5t-89.5 18t-93.5 33.5t-87 52q-21 16 -41.5 40t-36.5 56t-25.5 73t-9.5 92q0 41 6 90t20 98t38 94.5t60.5 81t86 56.5t115.5 21q72 0 123 -21.5t83 -60.5t46.5 -93.5t14.5 -119.5q0 -32 -4.5 -72.5
t-16 -83.5t-31.5 -86t-51 -79.5t-74 -63t-101 -36.5q24 -7 54 -11q26 -5 61 -8t80 -3q28 0 49.5 2.5t35.5 5.5q17 4 28 8zM519 436q0 52 -6 92.5t-22.5 68t-45 42t-72.5 14.5q-47 0 -81 -20t-57.5 -52t-37.5 -73t-22 -82.5t-10.5 -80.5t-2.5 -68q0 -59 10 -100t27.5 -67.5
t40 -42t47.5 -23.5q62 12 106 46t72 86t41 118t13 142z" />
    <glyph glyph-name="R" unicode="R" horiz-adv-x="593" 
d="M579 5q-5 -3 -14 -6q-17 -5 -52 -5q-27 0 -45.5 7t-32.5 20.5t-26 34t-26 48.5l-55 108q-18 35 -30 56.5t-23 33.5t-23.5 16t-31.5 4q-4 0 -7 -0.5t-5 -0.5h-4q-2 -12 -6 -45.5t-8.5 -72t-8 -74t-3.5 -50.5q0 -23 3 -36t8 -27l7 -17q-7 0 -19 1q-11 0 -27.5 0.5
t-39.5 0.5q-21 0 -37 -0.5t-27 -0.5q-13 -1 -22 -1l11 17q6 10 11 18.5t9.5 22t9 35.5t10 57t12.5 87t17 127q4 28 8.5 67.5t9 78.5t7.5 72t3 49q0 23 -3 37.5t-8 28.5l-7 17q9 -1 20 -1q9 -1 22 -1h28q10 0 25 0.5t30.5 1l31 1t27.5 0.5q55 0 100.5 -6.5t78.5 -25.5
t51.5 -52.5t18.5 -87.5q0 -47 -14 -80.5t-35.5 -55.5t-48.5 -34.5t-53.5 -19t-49.5 -8t-36 -0.5q32 -4 53.5 -15.5t37 -30.5t28 -44t27.5 -56l37 -80q20 -42 38.5 -70.5t47.5 -42.5zM434 535q0 68 -35.5 92.5t-102.5 24.5q-10 0 -19 -0.5t-16 -0.5q-9 -1 -16 -1l-33 -263
q7 -1 16 -1q8 -1 17.5 -1h21.5q6 0 20 0.5t26 2.5q62 6 91.5 46t29.5 101z" />
    <glyph glyph-name="S" unicode="S" horiz-adv-x="485" 
d="M475 689q-1 -7 -3 -16q-2 -8 -3.5 -19.5t-3.5 -28.5q-4 -33 -6 -55q-1 -11 -2 -21q-11 23 -24.5 41.5t-32 31.5t-42.5 20t-57 7q-17 0 -37.5 -3.5t-38.5 -14t-30 -30.5t-12 -53q0 -20 6.5 -36t16.5 -29t23 -24t27 -22l60 -49q26 -21 48 -41t37.5 -42.5t24.5 -50.5t9 -65
q0 -41 -13 -77t-42 -62.5t-75.5 -41.5t-112.5 -15q-47 0 -81 4.5t-57 10.5q-26 6 -44 15q1 7 3 16q2 8 4 19t4 27q2 17 4 31.5t3 25.5q1 12 1 23q11 -23 24 -41.5t32 -32t45 -20.5t62 -7q24 0 48 4.5t42.5 17t30.5 34t12 55.5q0 29 -14.5 57t-44.5 52l-75 62
q-22 18 -42.5 35.5t-36.5 39.5t-25.5 48.5t-9.5 62.5q0 22 7.5 54.5t31.5 62.5t68.5 51t118.5 21q42 0 74 -5t54 -11q26 -7 44 -16z" />
    <glyph glyph-name="T" unicode="T" horiz-adv-x="515" 
d="M309 -1q-9 0 -21 1q-11 0 -27 0.5t-39 0.5t-40 -0.5t-28 -0.5q-13 -1 -22 -1l11 17q9 13 15.5 26.5t13.5 46.5t16.5 96t23.5 176l35 282h-57q-34 0 -61.5 -6.5t-46.5 -17.5q-11 -7 -17.5 -11.5t-11.5 -8.5t-8 -8q2 11 5 24q2 11 4.5 26.5t4.5 33.5l4 37h496
q-1 -4 -2 -12.5t-3 -23.5q-5 -36 -6.5 -59.5t-1.5 -25.5q-1 1 -6.5 8t-24.5 20q-16 11 -41 17.5t-59 6.5h-58l-38 -292q-4 -29 -8.5 -68.5t-9 -78.5t-7.5 -72.5t-3 -49.5q0 -23 2.5 -37.5t8.5 -28.5l7 -17v0z" />
    <glyph glyph-name="U" unicode="U" horiz-adv-x="668" 
d="M665 696q-9 -14 -15.5 -29t-13.5 -49t-16.5 -97t-22.5 -173l-5 -40q-4 -34 -8.5 -71.5t-14 -73t-26.5 -67.5t-46.5 -56t-73.5 -38t-108 -14q-56 0 -101 10t-77.5 33.5t-50 61t-17.5 92.5q0 38 4.5 81t11.5 90l4 33q4 31 8.5 67.5t8.5 70.5t6.5 61.5t2.5 41.5
q0 23 -2.5 37.5t-8.5 28.5l-7 17q7 -1 19 -1q11 -1 27.5 -1h40.5h40.5t27.5 1q12 0 21 1l-11 -17q-7 -10 -12.5 -20t-10 -24.5t-9 -36.5t-10 -57.5t-13 -86.5t-16.5 -124l-5 -40q-5 -38 -7 -71t-2 -45q0 -29 6 -53t21.5 -41.5t43.5 -27t73 -9.5q63 0 99.5 27t51.5 73
q7 22 11.5 50t8.5 56l13 96q4 28 9 67.5t9.5 78.5t7.5 72.5t3 49.5q0 23 -2.5 37.5t-8.5 28.5l-7 17q11 -1 23 -1q11 -1 25.5 -1h31.5h32t26 1q12 0 22 1z" />
    <glyph glyph-name="V" unicode="V" horiz-adv-x="574" 
d="M558 711q45 0 66.5 1t22.5 1q0 -1 -7.5 -7t-18.5 -23q-14 -20 -32.5 -77.5t-53 -146t-88.5 -205t-138 -255.5q-8 0 -18 1q-9 0 -21 0.5t-27 0.5t-28 -0.5t-23 -0.5q-11 -1 -22 -1l-75 477q-9 60 -15.5 99.5t-13 65.5t-14 42t-18.5 30q9 -1 23 -1q12 -1 29.5 -1h43.5h42.5
t31.5 1q15 0 26 1q-22 -14 -30.5 -34t-8.5 -48q0 -11 1 -23.5t2.5 -29.5t4.5 -40.5t8 -55.5l58 -411q37 68 77.5 151.5t74.5 165.5t56 154t22 119q0 16 -4 28.5t-18 23.5q9 -1 21 -1q11 -1 26.5 -1h37.5z" />
    <glyph glyph-name="W" unicode="W" horiz-adv-x="978" 
d="M954 711q45 0 66.5 1t22.5 1q0 -1 -7.5 -7t-18.5 -23q-14 -20 -32.5 -80.5t-49.5 -151t-79 -206.5t-121 -246q-7 0 -18 1q-9 0 -21.5 0.5t-29.5 0.5t-30 -0.5t-22 -0.5q-11 -1 -19 -1l-63 564q-2 23 -2 39.5v17.5q-1 -3 -4.5 -18.5t-11.5 -38.5l-199 -564q-9 0 -20 1
q-10 0 -23.5 0.5t-30.5 0.5t-31 -0.5t-24 -0.5q-11 -1 -21 -1l-64 477q-8 61 -14 100.5t-12.5 65.5t-14 41.5t-18.5 29.5q10 -1 24 -1q12 -1 29.5 -1h41.5h42.5t32.5 1q16 0 28 1q-19 -13 -29 -31t-11 -46v-24t1.5 -30.5t4.5 -42t7 -57.5l41 -370q3 -21 3 -37v-17
q0 2 4.5 17.5t11.5 36.5l212 601q9 -1 20 -1q9 -1 21 -1h26h26t22 1q11 0 21 1l70 -644q20 41 43 93t45 107.5t42.5 112.5t36 109t25 96t9.5 74q0 16 -4.5 28.5t-18.5 23.5q9 -1 21 -1q11 -1 26.5 -1h37.5z" />
    <glyph glyph-name="X" unicode="X" horiz-adv-x="563" 
d="M621 713q-3 -2 -7 -6q-8 -8 -27 -30q-17 -20 -35.5 -50.5t-44 -70.5t-61 -88t-87.5 -102l83 -176q26 -55 42 -87.5t28 -52t21.5 -30t23.5 -21.5q-10 0 -25 1q-13 0 -32.5 0.5t-48.5 0.5q-28 0 -47.5 -0.5t-32.5 -0.5q-15 -1 -24 -1q28 24 28 59q0 8 -2 16.5t-6.5 21.5
t-13 30.5t-20.5 43.5l-66 142q-18 -20 -45 -55t-52 -73.5t-43 -76t-18 -62.5q0 -11 3 -23t17 -23q-10 0 -23 1q-11 0 -27.5 0.5t-39.5 0.5q-45 0 -70.5 -1t-26.5 -1q0 1 7 7t26 29q18 20 39 55t50.5 80.5t70.5 99t100 110.5l-68 142q-26 55 -42 87.5t-28 52t-22 30t-23 21.5
q9 -1 24 -1q13 -1 33 -1h49h46.5t32.5 1q15 0 25 1q-28 -24 -28 -59q0 -8 2 -16.5t6.5 -21.5t13 -30.5t20.5 -43.5l51 -109q22 27 45 59t41.5 63.5t30.5 60.5t12 51q0 11 -3 23t-17 23q9 -1 22 -1q11 -1 27 -1h39h43t30 1q14 0 24 1z" />
    <glyph glyph-name="Y" unicode="Y" horiz-adv-x="499" 
d="M591 713q-1 -1 -8.5 -7.5t-21.5 -21.5q-17 -20 -39.5 -64.5t-53.5 -102.5t-72.5 -122t-96.5 -123q-2 -21 -5 -48.5t-6 -54.5t-5 -50.5t-2 -36.5q0 -23 2.5 -37.5t8.5 -28.5l7 -17q-7 0 -19 1q-11 0 -27.5 0.5t-39.5 0.5q-24 0 -41 -0.5t-28 -0.5q-12 -1 -20 -1l11 17
q8 13 14 24t12 35t13 67t17 119l-84 252q-18 54 -30 88.5t-21.5 56.5t-18 34t-19.5 21q9 -1 23 -1q12 -1 29.5 -1h42.5h42.5t30.5 1q14 0 25 1q-29 -25 -29 -62q0 -8 1.5 -16.5t5 -21.5t9.5 -32t15 -47l60 -191q20 26 47 68t51 88t40.5 90t16.5 74q0 11 -3.5 25t-17.5 25
q10 -1 23 -1q11 -1 27.5 -1h39.5q51 0 72 0.5t22 1.5z" />
    <glyph glyph-name="Z" unicode="Z" horiz-adv-x="551" 
d="M567 699q-5 -40 -19 -76t-36 -70.5t-50.5 -69t-62.5 -71.5l-170 -192q-23 -25 -41.5 -45t-32.5 -38t-23 -34t-11 -33h202q44 0 72.5 5.5t47.5 16t33 26.5t30 36q-4 -15 -8 -34q-4 -17 -9 -39.5t-10 -51.5l-5 -29h-481l2 18q6 39 20 74.5t35.5 70t49.5 69t62 71.5l171 191
q25 28 44.5 49.5t33 38.5t21.5 31.5t10 28.5h-201q-38 0 -63 -5.5t-43 -16.5q-11 -7 -19 -12t-13 -10q-6 -5 -9 -9q2 6 4 16q2 8 3.5 21t3.5 30q2 14 3 24.5t2 17.5q1 8 1 14h458z" />
    <glyph glyph-name="bracketleft" unicode="[" horiz-adv-x="336" 
d="M313 787q-2 -5 -5.5 -27.5t-3.5 -45.5q-4 2 -10 4t-15.5 3.5t-25.5 1.5h-31l-107 -872h36q14 0 24 1t15 3q6 2 9 5q-2 -5 -5.5 -27.5t-3.5 -45.5q-4 2 -10 4t-15.5 3.5t-25.5 1.5h-116l120 982h122q14 0 24 1t15 3q6 2 9 5z" />
    <glyph glyph-name="backslash" unicode="\" horiz-adv-x="264" 
d="M99 -213l-8 1000h74l7 -1000h-73z" />
    <glyph glyph-name="bracketright" unicode="]" horiz-adv-x="336" 
d="M192 -204h-121q-15 0 -24.5 -1.5t-14.5 -3.5q-6 -2 -9 -4q2 5 5.5 27.5t3.5 45.5q3 -3 10 -5q5 -2 15 -3t26 -1h31l107 872h-36q-15 0 -24.5 -1.5t-14.5 -3.5q-6 -2 -9 -4q0 3 1.5 10.5t3 17.5t3 22t1.5 23q3 -3 9 -5q5 -2 15 -3t26 -1h117z" />
    <glyph glyph-name="asciicircum" unicode="^" 
d="M554 344h-85l-139 323l-141 -323h-83l189 423h71z" />
    <glyph glyph-name="underscore" unicode="_" horiz-adv-x="500" 
d="M0 -104v39h500v-39h-500z" />
    <glyph glyph-name="grave" unicode="`" horiz-adv-x="429" 
d="M303 623q-15 3 -33 11q-15 6 -34 17.5t-40 30.5q-23 20 -36.5 37t-21.5 30q-9 14 -12 26h115l62 -152v0z" />
    <glyph glyph-name="a" unicode="a" horiz-adv-x="583" 
d="M538 580q-4 -22 -10 -62q-5 -34 -13.5 -89t-19.5 -138q-4 -27 -8.5 -59.5t-8 -62.5t-6 -53t-2.5 -31q0 -12 3 -21t15 -19l13 -10q-8 -13 -20 -23q-11 -8 -26.5 -15t-37.5 -7q-20 0 -31.5 6.5t-17.5 15.5t-7.5 19t-1.5 17q0 16 3 37.5t7 41.5q4 23 10 46
q-27 -66 -53.5 -103t-51.5 -55t-48 -22t-42 -4q-69 0 -105.5 47.5t-36.5 155.5q0 20 2.5 56t12 79t27 88t47.5 81.5t74 59.5t107 23q35 0 59 -7.5t40 -15.5q18 -11 30 -23zM416 486q-8 6 -20 11q-11 5 -27.5 8.5t-40.5 3.5q-54 0 -88 -31.5t-53 -78.5t-26 -101.5t-7 -100.5
q0 -60 15 -93.5t61 -33.5q10 0 24 2.5t32 13.5t40 32.5t48 59.5z" />
    <glyph glyph-name="b" unicode="b" horiz-adv-x="587" 
d="M541 377q0 -20 -2.5 -56.5t-12 -79.5t-27 -87.5t-47.5 -81t-74.5 -60t-106.5 -23.5q-35 0 -60.5 7t-41.5 16q-19 10 -31 23l-97 -48q2 15 9 56q5 35 15.5 102t27.5 182q8 56 16 114t14.5 108t10.5 87t4 52q0 19 -2 34t-10 28l-7 12l146 25q-5 -25 -10 -59
q-5 -29 -11 -73.5t-14 -103.5l-3 -22q-3 -20 -6.5 -42t-7 -40.5t-6.5 -32.5t-4 -18q27 64 53 101t51 55t48.5 22.5t43.5 4.5q68 0 105 -47.5t37 -154.5zM430 372q0 60 -15.5 93.5t-61.5 33.5q-11 0 -25 -3t-32 -14t-40 -32.5t-48 -59.5l-44 -307q8 -7 21 -12q11 -5 28 -8
t41 -3q36 0 63.5 14.5t47 39t32 56t20 66.5t10.5 70t3 66z" />
    <glyph glyph-name="c" unicode="c" horiz-adv-x="465" 
d="M462 550q-1 -7 -3 -16q-2 -8 -3.5 -19t-3.5 -26t-3.5 -29t-2.5 -25q-2 -13 -2 -24q-10 21 -19.5 39t-23 31.5t-33.5 21.5t-51 8q-46 0 -77.5 -24t-50.5 -63t-27 -88t-8 -98q0 -26 2.5 -56.5t14 -56.5t35.5 -43t68 -17q36 0 62 9t43 20.5t25.5 22.5t10.5 16q0 -23 -9 -48
t-29.5 -46.5t-54 -35.5t-83.5 -14q-63 0 -101.5 22t-60 55.5t-28.5 74t-7 76.5q0 14 1.5 46t10 72.5t25 83.5t47 78.5t76 58.5t111.5 23q38 0 66.5 -5t46.5 -10q21 -6 36 -14z" />
    <glyph glyph-name="d" unicode="d" horiz-adv-x="579" 
d="M569 787q-5 -24 -13 -79q-8 -47 -20 -133t-31 -227q-9 -68 -15.5 -114.5t-10 -77.5t-5.5 -47.5t-2 -24.5q0 -12 3 -20.5t16 -18.5l13 -10q-8 -13 -20 -23q-11 -8 -27 -15t-38 -7q-20 0 -31.5 6.5t-17 15.5t-7 19t-1.5 17q0 16 2.5 37.5t6.5 41.5q4 23 10 46
q-26 -65 -52.5 -101.5t-51.5 -55t-48.5 -23t-43.5 -4.5q-68 0 -105 47.5t-37 155.5q0 20 2.5 56t12 79t27 88t47.5 81.5t74.5 59.5t106.5 23q29 0 50.5 -5.5t35.5 -11.5q17 -8 28 -17q2 17 4.5 37t4.5 39.5t3.5 37t1.5 29.5q0 19 -2 34t-10 28l-7 12zM419 486q-9 6 -21 11
q-11 5 -27.5 8.5t-40.5 3.5q-54 0 -88.5 -31.5t-54 -78.5t-26.5 -101.5t-7 -100.5q0 -60 15.5 -93.5t61.5 -33.5q10 0 24.5 2.5t32.5 13.5t40 32.5t48 59.5z" />
    <glyph glyph-name="e" unicode="e" horiz-adv-x="516" 
d="M491 433q0 -57 -21 -94t-55 -58.5t-77.5 -30t-88.5 -8.5q-48 0 -72 3q-14 2 -24 4q-1 -5 -1 -10v-17q0 -30 6 -58.5t20.5 -50.5t39.5 -35t64 -13q42 0 71 9t48.5 20.5t29 23t12.5 17.5q0 -16 -7.5 -40.5t-29 -48t-59.5 -40.5t-98 -17q-26 0 -62 6t-68 28t-54.5 66
t-22.5 120q0 83 17.5 151.5t51.5 117t84.5 75t115.5 26.5q49 0 83.5 -11.5t56 -31.5t31 -46.5t9.5 -56.5zM383 433q0 15 -3.5 29.5t-13 26.5t-25 19.5t-39.5 7.5q-26 0 -49.5 -9.5t-42 -33t-32.5 -63.5t-21 -100q7 -1 18 -2q9 -1 24 -1.5t36 -0.5q78 0 113 32t35 95z" />
    <glyph glyph-name="f" unicode="f" horiz-adv-x="327" 
d="M430 778q-2 -5 -3 -12q-2 -6 -2.5 -15.5t-2.5 -22.5q-2 -14 -2.5 -24.5t-1.5 -18.5q-1 -9 -1 -16q-20 35 -41.5 45.5t-43.5 10.5q-44 0 -65 -27q-14 -18 -18 -42.5t-9 -59.5l-6 -44h28q29 0 48 1.5t30 3.5q13 3 21 6q-1 -4 -2 -11q-1 -6 -2 -15t-3 -20q-3 -23 -3 -32v-10
q-8 2 -21 5q-11 2 -29.5 4t-46.5 2h-27l-51 -398q-7 -58 -14 -112.5t-23.5 -96.5t-48 -67t-88.5 -25q-24 0 -40.5 2t-26.5 4q-11 3 -18 6q1 5 3 11q2 5 2.5 13t2.5 19q2 13 2.5 23.5t1.5 18.5q1 9 1 15q17 -33 33 -43.5t31 -10.5q19 0 29.5 7.5t16.5 23t9 39.5t7 57l64 514
h-57l13 11q29 24 41 42t14 38l2 16q4 31 11 65.5t27.5 63t59 47t104.5 18.5q26 0 44 -1.5t29 -3.5q13 -2 22 -4z" />
    <glyph glyph-name="g" unicode="g" horiz-adv-x="576" 
d="M544 580q-5 -24 -12 -64q-6 -34 -14 -88t-18 -132l-32 -244q-3 -29 -7.5 -58t-12 -55.5t-20.5 -50.5t-34 -43q-35 -32 -84.5 -45t-107.5 -13q-45 0 -79 3t-57 7q-27 4 -48 11q1 7 4 16q2 8 4.5 19t4.5 26q4 32 6 55q1 12 1 22q13 -25 25.5 -42.5t29 -28t39.5 -15.5t57 -5
q48 0 79 11t49 32t27 51t14 68l4 30q3 23 6.5 46t7.5 41q4 21 8 40q-27 -66 -54 -102.5t-52.5 -54.5t-48.5 -21.5t-41 -3.5q-69 0 -106 47t-37 153q0 20 2.5 56t12 79t27 88t47.5 81.5t74 59.5t106 23q35 0 59.5 -7.5t40.5 -15.5q18 -11 31 -23zM420 486q-8 6 -20 11
q-11 5 -28 8.5t-41 3.5q-54 0 -88 -31.5t-53 -78.5t-26 -101.5t-7 -100.5q0 -60 15.5 -93.5t61.5 -33.5q10 0 24.5 2.5t32.5 13.5t40 32.5t48 59.5z" />
    <glyph glyph-name="h" unicode="h" horiz-adv-x="592" 
d="M530 462q0 -16 -3.5 -46.5t-8.5 -68t-11.5 -78.5t-11.5 -77.5t-8.5 -65.5t-3.5 -42q0 -12 3 -20.5t16 -18.5l13 -10q-9 -13 -21 -23q-11 -8 -27 -15t-39 -7q-21 0 -32.5 6.5t-17 15.5t-7 19t-1.5 17q0 13 3.5 41.5t9 65t12 78t12 80t9 71t3.5 51.5q0 7 -1 18t-7 20.5
t-18 16.5t-34 7q-41 0 -76 -25.5t-75 -82.5l-17 -120q-11 -80 -17 -132t-10 -83q-4 -36 -6 -55q-7 0 -15 1q-8 0 -17.5 0.5t-22.5 0.5q-12 0 -23 -0.5t-19 -0.5q-10 -1 -17 -1q4 22 11 65q6 37 15.5 100.5t23.5 163.5q9 64 17 122.5t14.5 105.5t10 81t3.5 51q0 19 -2 34
t-10 28l-7 12l146 25q-5 -26 -10 -61q-5 -30 -11.5 -74.5t-14.5 -103.5l-3 -22q-4 -26 -7.5 -50t-7.5 -42q-4 -21 -8 -39q27 64 55.5 101t56 55.5t52 23t44.5 4.5q43 0 66.5 -13t35 -32t14 -39t2.5 -33z" />
    <glyph glyph-name="i" unicode="i" horiz-adv-x="282" 
d="M265 722q0 -29 -17.5 -47t-52.5 -18q-20 0 -32.5 5.5t-20 14t-10.5 18.5t-3 19q0 29 17.5 47t51.5 18q20 0 33 -5.5t20.5 -14t10.5 -18.5t3 -19zM235 575q-5 -27 -10 -67q-5 -34 -12 -85t-16 -120q-5 -35 -10 -71t-8.5 -66t-6 -52t-2.5 -30q0 -12 3 -20.5t15 -18.5
l13 -10q-9 -13 -21 -23q-11 -8 -26.5 -15t-38.5 -7q-21 0 -32.5 6.5t-17.5 15.5t-7.5 19t-1.5 17q0 14 4 45t10 70.5t13.5 85t13.5 88t10 79.5t4 60q0 19 -2 34t-10 28l-7 12z" />
    <glyph glyph-name="j" unicode="j" horiz-adv-x="288" 
d="M274 722q0 -29 -18 -47t-52 -18q-20 0 -32.5 5.5t-20 14t-10.5 18.5t-3 19q0 29 17.5 47t51.5 18q20 0 33 -5.5t20.5 -14t10.5 -18.5t3 -19zM246 575q-5 -21 -10 -58q-5 -32 -12 -84t-17 -130l-30 -244q-5 -42 -9 -76t-9.5 -61.5t-14 -48.5t-21.5 -37q-16 -19 -43 -34
t-80 -15q-23 0 -39.5 2.5t-27.5 5.5q-13 4 -22 8q0 4 2 10q1 5 2.5 13.5t3.5 19.5q2 13 2 23t1 18q0 9 1 15q17 -33 33 -45t37 -12q20 0 31 7t17.5 22t10 39t8.5 59l35 270q4 34 8.5 68.5t8 65t5.5 55t2 39.5q0 16 -1 33.5t-9 31.5l-7 15z" />
    <glyph glyph-name="k" unicode="k" horiz-adv-x="536" 
d="M534 515q0 -46 -37.5 -90t-118.5 -91q-16 -9 -27 -15.5t-19 -10.5q-9 -4 -15 -7l67 -130q18 -36 30 -58t21.5 -35.5t18.5 -21t21 -13.5l13 -8q-8 -13 -20 -23q-11 -8 -26.5 -15t-37.5 -7q-35 0 -49 16.5t-25 41.5q-23 45 -45 90t-39 82q-20 43 -39 83q12 5 30 15
q15 8 36 21.5t50 33.5q54 38 78 69.5t24 71.5q0 14 -4 22.5t-9 13.5q-5 6 -12 10q7 5 18 9q8 4 20.5 7t26.5 3q37 0 53 -17.5t16 -46.5zM265 787q-5 -29 -10 -66q-5 -32 -11.5 -75t-13.5 -97l-39 -283q-11 -80 -17 -131.5t-10 -81.5q-4 -35 -6 -54q-7 0 -15 1
q-8 0 -17.5 0.5t-23.5 0.5t-24 -0.5t-18 -0.5q-9 -1 -16 -1q4 23 11 67q6 38 15.5 100.5t23.5 161.5q20 138 31.5 230.5t11.5 126.5q0 21 -2 36t-9 27l-7 14z" />
    <glyph glyph-name="l" unicode="l" horiz-adv-x="277" 
d="M266 787q-4 -21 -12 -74q-7 -45 -18.5 -128t-30.5 -220q-9 -70 -16 -119.5t-11 -83t-6 -52.5t-2 -26q0 -12 3 -20.5t15 -18.5l13 -10q-9 -13 -21 -23q-11 -8 -26.5 -15t-38.5 -7q-21 0 -32.5 6.5t-17.5 15.5t-7.5 19t-1.5 17q0 18 6 65t15.5 109.5t20 133.5t20 136
t15.5 117.5t6 78.5q0 19 -2 34t-10 28l-7 12l146 25v0z" />
    <glyph glyph-name="m" unicode="m" horiz-adv-x="908" 
d="M842 462q0 -16 -3.5 -46.5t-8.5 -68t-11 -78.5t-11 -77.5t-8.5 -65.5t-3.5 -42q0 -12 3 -20.5t15 -18.5l13 -10q-9 -13 -21 -23q-11 -8 -26.5 -15t-38.5 -7q-21 0 -32.5 6.5t-17.5 15.5t-7.5 19t-1.5 17q0 13 3.5 41.5t9.5 65t12 78t12 80t9.5 71t3.5 51.5q0 7 -1 18
t-7 20.5t-18.5 16.5t-34.5 7q-41 0 -76 -25.5t-75 -82.5l-16 -120q-11 -80 -17 -132t-10 -83q-4 -36 -6 -55q-6 0 -15 1q-8 0 -18 0.5t-24 0.5q-12 0 -22.5 -0.5t-18.5 -0.5q-10 -1 -17 -1q4 18 9 49q5 26 11.5 68.5t15.5 105.5q3 23 7.5 53.5t8.5 61t6.5 56t2.5 37.5
q0 10 -1 22t-7 22t-18 16.5t-34 6.5q-41 0 -75 -25.5t-74 -82.5l-17 -120q-11 -80 -17 -132t-10 -83q-4 -36 -6 -55q-6 0 -15 1q-8 0 -18 0.5t-23 0.5q-12 0 -22.5 -0.5t-18.5 -0.5q-10 -1 -17 -1q4 21 10 60q5 33 14 87t21 138q11 72 16 124.5t5 73.5q0 14 -2.5 29.5
t-10.5 29.5l-6 10l141 25l-28 -181q24 57 49 93t51 56t52.5 27.5t53.5 7.5q43 0 66.5 -13.5t34.5 -32.5t13 -39t2 -32q0 -15 -3 -34t-5 -27q27 62 55.5 97.5t55.5 53.5t51.5 22.5t43.5 4.5q43 0 66.5 -13t35 -32t14 -39t2.5 -33z" />
    <glyph glyph-name="n" unicode="n" horiz-adv-x="595" 
d="M530 462q0 -16 -3.5 -46.5t-8.5 -68t-11.5 -78.5t-11.5 -77.5t-8.5 -65.5t-3.5 -42q0 -12 3 -20.5t16 -18.5l13 -10q-9 -13 -21 -23q-11 -8 -27 -15t-39 -7q-21 0 -32.5 6.5t-17 15.5t-7 19t-1.5 17q0 13 3.5 41.5t9 65t12 78t12 80t9 71t3.5 51.5q0 7 -1 18t-7 20.5
t-18 16.5t-34 7q-41 0 -76 -25.5t-75 -82.5l-17 -120q-11 -80 -17 -132t-10 -83q-4 -36 -6 -55q-6 0 -15 1q-8 0 -18 0.5t-23 0.5q-12 0 -22.5 -0.5t-18.5 -0.5q-10 -1 -17 -1q4 21 10 60q5 33 14 87t21 138q11 72 16 124.5t5 73.5q0 14 -2.5 29.5t-10.5 29.5l-6 10l141 25
l-28 -181q27 64 55.5 101t56 55.5t52 23t44.5 4.5q43 0 66.5 -13t35 -32t14 -39t2.5 -33z" />
    <glyph glyph-name="o" unicode="o" horiz-adv-x="558" 
d="M515 330q0 -24 -4 -59t-15 -73t-30 -75.5t-48.5 -67.5t-70.5 -48.5t-97 -18.5q-59 0 -99 18t-64 51t-34.5 79t-10.5 102q0 24 4 59t15 72.5t30 75t48.5 67.5t70.5 48.5t97 18.5q60 0 100 -18t64 -51t34 -79t10 -101zM405 346q0 57 -9 90t-23.5 50t-32.5 21.5t-36 4.5
q-34 0 -58.5 -17.5t-41 -44.5t-27 -60.5t-16 -66t-7 -59.5t-1.5 -42q0 -57 9 -90t23.5 -50t32.5 -21.5t36 -4.5q34 0 58.5 17.5t41 44.5t27 60.5t16 65.5t7 59.5t1.5 42.5z" />
    <glyph glyph-name="p" unicode="p" horiz-adv-x="585" 
d="M542 377q0 -20 -2.5 -56.5t-12 -79.5t-27 -87.5t-47.5 -81t-74.5 -60t-106.5 -23.5q-30 0 -51.5 5.5t-35.5 12.5q-17 8 -27 19l-5 -36q-5 -32 -7.5 -54t-3.5 -36.5t-1.5 -23t-0.5 -12.5q0 -20 2 -34t8 -28l6 -15q-5 0 -16 1q-9 0 -25 0.5t-40 0.5t-39.5 -0.5t-25.5 -0.5
q-11 -1 -17 -1l12 19q8 12 13 25.5t10.5 39.5t11.5 69.5t17 114.5l25 176q8 60 13.5 102t9 70.5t5 46.5t1.5 32t-2.5 29.5t-10.5 29.5l-6 10l140 25l-28 -181q27 65 53 102t51 55t48.5 22.5t43.5 4.5q68 0 105 -47.5t37 -154.5zM431 372q0 60 -15.5 93.5t-61.5 33.5
q-11 0 -25 -3t-32 -14t-40 -32.5t-48 -59.5l-43 -307q8 -7 20 -12q11 -5 28 -8t41 -3q36 0 63.5 14.5t47 39t32 56t20 66.5t10.5 70t3 66z" />
    <glyph glyph-name="q" unicode="q" horiz-adv-x="584" 
d="M541 581q-3 -16 -10 -58q-6 -36 -16.5 -104t-26.5 -182q-12 -85 -20 -145t-13 -100.5t-8 -64.5t-4 -37t-1 -18v-8q0 -20 2 -34t8 -28l6 -15q-5 0 -16 1q-9 0 -25 0.5t-40 0.5t-39.5 -0.5t-25.5 -0.5q-11 -1 -18 -1l12 19q8 13 13.5 27.5t10.5 38t10.5 57.5t12.5 86l3 22
q3 22 6.5 44t7.5 41t6.5 32t3.5 17q-27 -65 -53.5 -101.5t-51.5 -54.5t-48 -22t-42 -4q-69 0 -106 47.5t-37 155.5q0 20 2.5 56t12 79t27 88t47.5 81.5t74.5 59.5t106.5 23q35 0 60 -7.5t41 -15.5q18 -11 30 -23zM418 486q-9 6 -21 11q-11 5 -27.5 8.5t-40.5 3.5
q-54 0 -88 -31.5t-53.5 -78.5t-26.5 -101.5t-7 -100.5q0 -60 15.5 -93.5t61.5 -33.5q10 0 24 2.5t32 13.5t40 32.5t48 59.5z" />
    <glyph glyph-name="r" unicode="r" horiz-adv-x="386" 
d="M417 563q-1 -5 -3 -14q-2 -8 -4.5 -20.5t-4.5 -31.5q-3 -20 -5 -34t-3 -22q-1 -10 -1 -16q-13 26 -29.5 41.5t-45.5 15.5q-26 0 -47 -15.5t-36 -34.5q-18 -22 -32 -49l-15 -116q-11 -81 -17.5 -132.5t-9.5 -81.5q-4 -35 -5 -54q-6 0 -15 1q-8 0 -18 0.5t-23 0.5
q-12 0 -22.5 -0.5t-18.5 -0.5q-10 -1 -17 -1q4 21 10 60q5 33 13 87.5t20 137.5q10 72 15.5 124.5t5.5 73.5q0 14 -2.5 29.5t-10.5 29.5l-6 10l141 25l-32 -188q28 86 68 138.5t93 52.5q15 0 25.5 -2.5t17.5 -5.5q8 -4 14 -8z" />
    <glyph glyph-name="s" unicode="s" horiz-adv-x="419" 
d="M395 548q-1 -5 -3 -14q-3 -15 -6 -46q-5 -32 -6 -51q-1 -11 -2 -21q-9 21 -20.5 39t-27 31t-36.5 20.5t-50 7.5q-50 0 -69.5 -21t-19.5 -50q0 -16 4 -27.5t12 -22t19 -20t26 -20.5l49 -38q22 -17 40 -32.5t31.5 -33.5t21 -40.5t7.5 -52.5q0 -23 -7.5 -51t-29 -53
t-59.5 -42t-99 -17q-39 0 -68 4.5t-49 9.5q-23 6 -38 15q1 5 3 14q2 8 3 18.5t3 26.5t3.5 29.5t2.5 24.5q1 12 2 22q8 -17 18.5 -35t26.5 -32t39 -23t58 -9q26 0 43.5 7.5t28 19.5t15 26t4.5 27q0 34 -16 54t-42 40l-54 41q-50 38 -70.5 72t-20.5 82q0 67 45.5 109.5
t138.5 42.5q38 0 65.5 -5t46.5 -11q22 -7 37 -15z" />
    <glyph glyph-name="t" unicode="t" horiz-adv-x="379" 
d="M393 574q-1 -5 -2 -11q-1 -5 -1.5 -13.5t-2.5 -19.5t-2.5 -19.5t-1.5 -13.5q-1 -6 -1 -11q-5 2 -17 5q-11 2 -29.5 3.5t-49.5 1.5h-63l-37 -278l-2.5 -20t-2.5 -24t-1.5 -22.5t-0.5 -16.5q0 -12 1.5 -26t8.5 -25.5t22 -19.5t41 -8q20 0 36 4.5t27 10.5q12 7 22 16
q-4 -28 -21 -49q-14 -18 -42 -33t-79 -15q-42 0 -67 12.5t-38 31t-17 40t-4 39.5q0 25 2.5 55.5t7.5 62.5q19 136 30 201q6 38 11 64h-66q2 1 25.5 23.5t57.5 64.5q17 22 30 41t22 33q11 17 18 31h41l-17 -126h63q31 0 50 1.5t30 3.5q12 3 19 6z" />
    <glyph glyph-name="u" unicode="u" horiz-adv-x="592" 
d="M547 575q-3 -21 -9 -60q-5 -33 -13.5 -87.5t-19.5 -137.5q-4 -27 -8.5 -59.5t-8.5 -62t-6.5 -52.5t-2.5 -31q0 -12 3 -21t16 -19l13 -10q-8 -13 -20 -23q-11 -8 -26.5 -15t-38.5 -7q-20 0 -31.5 6.5t-17 15.5t-7 19t-1.5 17q0 16 2.5 37.5t6.5 41.5q4 23 10 46
q-27 -64 -55.5 -101t-56 -55.5t-52.5 -23.5t-46 -5q-43 0 -66 13.5t-34 32.5t-13 39t-2 33q0 17 3 47t8 66t10.5 75.5t10.5 74.5t8 63.5t3 43.5q0 20 -2 35t-9 27l-7 12l145 25q-17 -103 -30 -191q-6 -38 -11 -75.5t-9.5 -71t-7 -59.5t-2.5 -40q0 -10 1 -22t7 -22
t18.5 -16.5t34.5 -6.5q40 0 75 25.5t75 82.5l16 116q11 71 15.5 114.5t4.5 66.5q0 20 -2 35t-10 27l-6 12l145 25v0z" />
    <glyph glyph-name="v" unicode="v" horiz-adv-x="515" 
d="M502 513q0 -34 -12.5 -77.5t-32.5 -91.5t-45.5 -97t-51 -93.5t-49.5 -81t-40 -58.5l-11 -15q-5 0 -13 1q-7 0 -18 0.5t-27 0.5q-15 0 -27 -0.5t-20 -0.5q-10 -1 -17 -1l-62 453q-5 30 -14 51t-18 32l-13 16l133 25q2 -10 6 -36q3 -23 8.5 -65.5t14.5 -114.5l28 -232
q2 -16 2.5 -29t1.5 -22q1 -11 1 -20q47 84 85 164q16 34 31.5 71t27.5 73t19.5 70t7.5 62q0 18 -4.5 29t-9.5 18q-6 8 -13 12q7 6 18 11q9 5 21.5 8.5t29.5 3.5q23 0 35.5 -7t18.5 -17.5t7.5 -22t1.5 -19.5z" />
    <glyph glyph-name="w" unicode="w" horiz-adv-x="848" 
d="M821 513q0 -37 -11 -82.5t-29 -93.5t-40.5 -96.5t-45.5 -91.5t-45 -78t-38 -57l-11 -15q-6 0 -14 1q-7 0 -17.5 0.5t-23.5 0.5q-14 0 -24.5 -0.5t-18.5 -0.5q-9 -1 -16 -1l-43 411q-3 26 -3.5 48.5t-0.5 24.5q-1 -4 -5.5 -25t-13.5 -47l-145 -412q-6 0 -16 1
q-8 0 -20.5 0.5t-28.5 0.5q-17 0 -29.5 -0.5t-21.5 -0.5q-11 -1 -18 -1l-62 453q-4 30 -13.5 51t-17.5 32l-12 16l130 25q1 -9 4 -29q2 -17 6.5 -50t10.5 -87l32 -276q2 -22 3 -41.5t1 -21.5q1 2 5 19.5t14 44.5l152 434q7 -1 17 -1q8 -1 19.5 -1h26.5h27t20 1q10 0 17 1
l46 -436q2 -16 2.5 -27.5t1.5 -19.5q1 -10 1 -16q40 77 73 154q13 33 26.5 68.5t23.5 71t16.5 69.5t6.5 64q0 18 -5 29t-10 18q-6 8 -14 12q7 6 17 11q8 5 20.5 8.5t29.5 3.5q23 0 36 -7t19 -17.5t7.5 -22t1.5 -19.5z" />
    <glyph glyph-name="x" unicode="x" horiz-adv-x="517" 
d="M494 514q0 -12 -4.5 -33t-21.5 -49.5t-52 -65t-96 -80.5l57 -125q16 -35 26 -56t19 -33.5t19 -19.5t24 -14l17 -8q-8 -10 -21 -18q-11 -7 -29.5 -12.5t-45.5 -5.5q-13 0 -22 0.5t-14 1.5q-7 1 -11 3q-3 5 -10 19q-6 12 -16 34.5t-27 60.5l-58 128q-37 -29 -59 -54.5
t-33.5 -47.5t-15 -40.5t-3.5 -33.5q0 -13 6.5 -28.5t20.5 -22.5q-8 -7 -18 -11q-9 -5 -21 -8t-27 -3q-20 0 -32 6t-19.5 15.5t-10 21t-2.5 22.5q0 23 8.5 48.5t30 55t58 63t92.5 72.5l-71 156q-14 30 -28 51t-26 32l-18 16l132 25q5 -13 15 -35q8 -20 22 -51.5t36 -79.5
l31 -69q40 34 68 74.5t28 89.5q0 13 -6.5 29.5t-20.5 23.5q8 6 18 10q8 4 20 7.5t27 3.5q20 0 32.5 -6t19.5 -15.5t9.5 -21t2.5 -22.5z" />
    <glyph glyph-name="y" unicode="y" horiz-adv-x="519" 
d="M505 513q0 -46 -22 -111.5t-54 -135t-68 -134.5t-64 -110q-39 -63 -70 -107.5t-60 -73t-59.5 -41.5t-69.5 -13q-23 0 -38.5 2t-25.5 4q-11 3 -18 6q1 6 3 14q3 15 6 38q2 13 2.5 24.5t1.5 19.5q1 10 1 18q18 -33 35 -45t34 -12q13 0 25.5 3.5t27.5 16.5t34.5 37t45.5 65
l-97 475q-6 30 -14.5 51t-17.5 31l-14 16l140 25q2 -16 6 -44q4 -25 10 -65.5t17 -103.5l37 -207q6 -39 7.5 -59t0.5 -23q2 5 14.5 28.5t29 59t35.5 79t35.5 89t27 89t10.5 78.5q0 18 -4.5 29t-9.5 18q-6 8 -13 12q7 6 18 11q9 5 21 8.5t29 3.5q23 0 36 -7t19.5 -17.5t8 -22
t1.5 -19.5z" />
    <glyph glyph-name="z" unicode="z" horiz-adv-x="445" 
d="M294 -14q-65 0 -125 9t-123 9q-19 0 -30.5 -1.5t-17.5 -3.5q-8 -2 -11 -4l2 13q4 27 13.5 51t25 49t37 51.5t50.5 59.5l140 159q14 16 27.5 31.5t24 29.5t17 25t6.5 18h-128q-23 0 -41.5 -2.5t-34 -9t-30 -19t-29.5 -32.5q1 10 4 21q2 10 4.5 23.5t4.5 30.5q4 30 6 52
q1 11 2 20h366l-1 -8q-3 -23 -10 -44t-21.5 -46t-39 -56t-61.5 -73l-149 -169q-32 -37 -51.5 -60.5t-24.5 -48.5q7 5 18 9q10 4 25 7t38 3q41 0 72 -2.5t67 -2.5q24 0 39.5 5.5t25 12.5t13.5 13.5t5 7.5v-11q0 -67 -25.5 -92t-79.5 -25z" />
    <glyph glyph-name="braceleft" unicode="{" horiz-adv-x="390" 
d="M401 747q-5 1 -12 2t-18 1q-43 0 -62 -24q-11 -13 -14 -29.5t-5 -33.5l-20 -161q-4 -32 -7.5 -55t-8.5 -41t-12 -32.5t-19 -28.5q-14 -18 -30.5 -29t-31.5 -17.5t-26 -9t-15 -2.5q7 -1 19.5 -4.5t26 -11.5t26.5 -22t21 -36q6 -13 9 -26t3 -29.5t-2 -37.5t-6 -48l-20 -161
q-2 -15 -2.5 -29.5t5.5 -25.5q9 -32 57 -32q20 0 31 3q6 1 10 3q0 -4 -3.5 -11t-13.5 -14t-27.5 -12.5t-45.5 -5.5q-35 0 -56.5 8.5t-33 22t-15.5 29t-4 30.5q0 16 2.5 38t4.5 38l23 186q5 37 2.5 62t-18.5 40q-16 20 -34 30.5t-32 15.5q10 3 21 7q10 4 22 9.5t25 13.5
q26 17 35.5 45t14.5 73l26 205q5 40 10.5 65t25.5 47q17 20 44 27.5t54 7.5q28 0 45 -5t26 -12t11.5 -14.5t2.5 -11.5z" />
    <glyph glyph-name="bar" unicode="|" horiz-adv-x="258" 
d="M106 -212h-71l126 1000h71z" />
    <glyph glyph-name="braceright" unicode="}" horiz-adv-x="390" 
d="M346 287q-10 -3 -21 -7q-10 -4 -22 -9.5t-25 -13.5q-26 -17 -35.5 -45t-14.5 -73l-26 -205q-5 -40 -11 -65t-25 -47q-18 -20 -45 -27.5t-53 -7.5q-29 0 -46 5t-26 12t-11.5 14.5t-2.5 11.5q4 -2 9 -3q9 -3 30 -3q43 0 62 24q11 13 14.5 29.5t5.5 33.5l20 161
q4 31 7.5 54.5t8 41.5t11.5 32.5t19 28.5q14 18 30.5 29t31.5 17t26.5 8.5t15.5 3.5q-7 1 -19.5 4t-26 11t-26.5 22t-21 37q-6 13 -9 26t-3 29.5t2 37.5t6 48l20 161q2 15 2.5 29.5t-5.5 25.5q-11 32 -57 32q-11 0 -18.5 -1t-12.5 -2q-6 -2 -10 -3q0 4 3.5 11t13.5 14
t27.5 12.5t45.5 5.5q35 0 56.5 -8.5t33 -22t15.5 -29t4 -30.5q0 -16 -2.5 -38t-4.5 -38l-23 -186q-5 -37 -3 -62t19 -40q16 -20 34 -30.5t32 -15.5z" />
    <glyph glyph-name="asciitilde" unicode="~" 
d="M628 454q-23 -96 -58.5 -144.5t-101.5 -48.5q-36 0 -65 10t-61 26l-62 30q-39 19 -61.5 25.5t-44.5 6.5q-25 0 -43.5 -9t-32 -24.5t-23.5 -36t-17 -42.5l-27 7q23 97 59 145.5t102 48.5q35 0 60.5 -10t58.5 -26l62 -30q38 -18 64.5 -25.5t48.5 -7.5q24 0 42.5 9t32 24.5
t23.5 36t18 43.5l26 -8v0z" />
    <glyph glyph-name="uni00A0" unicode="&#xa0;" horiz-adv-x="230" 
 />
    <glyph glyph-name="exclamdown" unicode="&#xa1;" horiz-adv-x="319" 
d="M238 521q0 -28 -17 -51t-55 -28q-32 5 -45 22t-13 40q0 29 17.5 51.5t56.5 27.5q32 -5 44 -23t12 -39zM172 -143q-6 0 -17 1q-10 0 -26 0.5t-40 0.5q-25 0 -40.5 -0.5t-24.5 -0.5q-11 -1 -17 -1l9 19q6 13 12.5 33t15 59t20 101.5t28.5 160.5l28 165h78l-15 -165
q-8 -103 -12.5 -167t-6 -101.5t-1 -56t3.5 -29.5z" />
    <glyph glyph-name="cent" unicode="&#xa2;" horiz-adv-x="512" 
d="M355 579q29 -2 52.5 -6.5t39.5 -9.5q18 -6 32 -13q-1 -7 -3 -16q-2 -8 -3.5 -19t-3.5 -26t-3.5 -29t-2.5 -25q-2 -13 -2 -24q-11 24 -21.5 42.5t-23.5 31.5t-29.5 20t-39.5 8l-57 -449q35 0 59.5 9t40.5 20.5t24 23t10 16.5q0 -21 -7 -44.5t-23.5 -44.5t-44 -36.5
t-68.5 -19.5l-8 -63h-43l8 63q-56 4 -90 27t-53.5 56.5t-26 72t-6.5 73.5q0 13 1.5 44t9 69.5t23 80.5t43.5 78t70 60.5t103 29.5l8 62h43zM173 238q0 -23 1.5 -48.5t9 -49t22.5 -42.5t41 -28l56 440q-36 -9 -61 -36t-40.5 -64.5t-22 -82t-6.5 -89.5z" />
    <glyph glyph-name="sterling" unicode="&#xa3;" horiz-adv-x="574" 
d="M566 688q-1 -7 -3 -17q-2 -8 -3.5 -20t-3.5 -29q-5 -35 -6 -54q-1 -11 -2 -20q-22 52 -53 75.5t-85 23.5q-67 0 -99 -37q-22 -25 -29.5 -61.5t-15.5 -94.5l-6 -50h163l-8 -68h-164l-12 -99q-4 -34 -10.5 -59t-17.5 -45.5t-27 -36.5t-39 -32q5 2 30.5 11.5t63.5 9.5
q19 0 32 -0.5t28 -2.5l74 -8q11 -1 25.5 -2t28.5 -1q22 0 38.5 7.5t27.5 16.5t16.5 17t6.5 10q-4 -30 -12.5 -55.5t-23.5 -44t-38.5 -28.5t-57.5 -10t-59.5 4.5t-47.5 8.5l-62 11q-17 3 -37.5 6t-40.5 3q-19 0 -37 -5t-32 -11q-17 -7 -32 -15q37 36 56.5 84.5t27.5 107.5
l20 158h-76l9 68h76l7 61q4 30 8 56t11 49t18 42t28 36q32 41 78 56t103 15q42 0 73 -5t51 -11q24 -7 40 -15z" />
    <glyph glyph-name="currency" unicode="&#xa4;" horiz-adv-x="609" 
d="M419 325q0 22 -8 41.5t-22 33.5t-32.5 22t-40.5 8t-40.5 -8t-32 -22t-21.5 -33.5t-8 -41.5q0 -21 8 -40t21.5 -33.5t32 -23t40.5 -8.5t40.5 8.5t32.5 23t22 33.5t8 40zM493 325q0 -27 -7.5 -51.5t-21.5 -45.5l111 -110l-52 -52l-111 112q-42 -27 -96 -27q-26 0 -50 7
t-44 20l-111 -113l-52 52l111 111q-29 41 -29 97q0 26 7.5 50.5t20.5 45.5l-110 109l52 52l109 -110q44 28 96 28q27 0 51.5 -7.5t44.5 -21.5l112 112l52 -52l-111 -111q13 -20 20.5 -44.5t7.5 -50.5z" />
    <glyph glyph-name="yen" unicode="&#xa5;" horiz-adv-x="562" 
d="M620 713q-1 -1 -8.5 -7.5t-20.5 -21.5q-17 -19 -39.5 -64t-53 -102.5t-70 -120.5t-91.5 -119h134l-5 -43h-142q0 -2 -1 -9t-2 -16t-2 -16.5t-1 -9.5h141l-5 -43h-140q-2 -19 -3 -34t-1 -25q0 -23 2.5 -37.5t8.5 -28.5l7 -17q-7 0 -19 1q-11 0 -27.5 0.5t-39.5 0.5
q-24 0 -40.5 -0.5t-27.5 -0.5q-12 -1 -21 -1l11 17q6 9 11 17.5t9.5 21t8.5 33t10 53.5h-137l5 43h138q0 1 1 8.5t2.5 16.5t2.5 16.5t1 9.5h-138l5 43h130l-77 235q-20 61 -34 96t-25 54.5t-21 29t-23 20.5q9 -1 23 -1q12 -1 31.5 -1h48.5h47.5t32.5 1q15 0 24 1
q-29 -25 -29 -62q0 -8 1.5 -16.5t5 -21.5t9.5 -32t15 -47l60 -196q20 26 47 69t51 89.5t40.5 91.5t16.5 75q0 11 -3.5 25t-17.5 25q10 -1 23 -1q11 -1 27.5 -1h39.5q51 0 72 0.5t22 1.5z" />
    <glyph glyph-name="brokenbar" unicode="&#xa6;" horiz-adv-x="258" 
d="M189 448h-71l43 340h71zM106 -213h-71l44 346h71z" />
    <glyph glyph-name="section" unicode="&#xa7;" horiz-adv-x="552" 
d="M490 361q0 -28 -7.5 -50t-19.5 -39t-27 -29t-31 -21q-38 -20 -85 -27l26 -18q26 -17 45 -48t19 -73q0 -72 -48 -113.5t-147 -41.5q-39 0 -68.5 4.5t-49.5 10.5q-23 6 -39 15q1 5 3 14q3 15 6 45q2 15 3.5 28t2.5 23l2 22q10 -21 21.5 -39t28 -31t38.5 -20.5t52 -7.5
q50 0 70.5 21.5t20.5 50.5q0 31 -15.5 48t-34.5 31l-86 62q-20 14 -37 28t-29.5 31.5t-19.5 39t-7 51.5q0 27 7 49t19 39t27 29t31 21q37 20 85 27l-26 18q-26 18 -45 48.5t-19 73.5q0 71 48 112.5t147 41.5q39 0 68.5 -5t49.5 -10q23 -7 39 -15l-3 -15q-3 -16 -6 -44
q-2 -15 -3 -28t-2 -23q-1 -11 -2 -21q-10 21 -22 39t-28 31t-38 20t-53 7q-50 0 -70.5 -21.5t-20.5 -50.5q0 -30 16 -47.5t35 -31.5l85 -62q20 -14 37.5 -28t30 -31t19.5 -39t7 -51zM389 332q0 34 -13.5 57.5t-45.5 46.5l-57 39q-27 -11 -48 -28q-18 -14 -32.5 -36.5
t-14.5 -54.5q0 -34 13 -57.5t45 -46.5l57 -38q27 10 48 27q18 14 33 36.5t15 54.5z" />
    <glyph glyph-name="dieresis" unicode="&#xa8;" horiz-adv-x="429" 
d="M362 709q0 -24 -15 -42.5t-44 -18.5q-17 0 -27.5 6t-16.5 14t-8 17.5t-2 16.5q0 24 15 42.5t44 18.5q16 0 26.5 -6t16.5 -14t8.5 -17.5t2.5 -16.5zM175 709q0 -24 -14.5 -42.5t-43.5 -18.5q-17 0 -27.5 6t-16.5 14t-8.5 17.5t-2.5 16.5q0 24 15 42.5t44 18.5
q16 0 26.5 -6t16.5 -14t8.5 -17.5t2.5 -16.5z" />
    <glyph glyph-name="copyright" unicode="&#xa9;" horiz-adv-x="967" 
d="M921 279q0 -98 -32 -180.5t-89.5 -142.5t-138 -93.5t-177.5 -33.5q-98 0 -178.5 33t-139 92.5t-90.5 141t-32 178.5q0 98 32.5 180t91.5 141.5t140.5 92.5t179.5 33t178 -33t136.5 -91.5t87.5 -139.5t31 -178zM847 279q0 81 -25 151t-71.5 121t-113 80.5t-149.5 29.5
t-151 -29.5t-116 -81t-74.5 -122.5t-26.5 -154q0 -82 26 -152.5t73.5 -122.5t114.5 -81.5t150 -29.5q82 0 149.5 30t114.5 82.5t73 124t26 154.5zM654 19q-16 -7 -37 -11q-18 -5 -44.5 -8t-61.5 -3q-81 0 -133.5 23.5t-82.5 61.5t-42 86t-12 97q0 141 72.5 212.5t202.5 71.5
q38 0 63.5 -3.5t42.5 -7.5q19 -5 32 -11q-1 -6 -1 -14v-45v-44q0 -10 1 -16q-12 18 -24 31.5t-26.5 23t-33.5 14.5t-46 5q-35 0 -65 -12.5t-52.5 -38.5t-35.5 -66.5t-13 -96.5q0 -46 8.5 -83.5t28 -64.5t50.5 -42t76 -15q27 0 46.5 5.5t34.5 15t27.5 23.5t24.5 32
q-1 -8 -1 -18v-47v-42q0 -8 1 -13z" />
    <glyph glyph-name="ordfeminine" unicode="&#xaa;" horiz-adv-x="388" 
d="M401 769q-3 -15 -7 -41q-4 -23 -8.5 -59t-12.5 -90q-3 -17 -5.5 -37.5t-5 -39.5t-4 -33.5t-1.5 -19.5q0 -8 2 -13.5t10 -12.5l8 -6q-6 -10 -15 -17q-8 -6 -19.5 -11t-28.5 -5q-15 0 -24 4.5t-13 11.5t-5 14t-1 12q0 11 2 25t4 26q3 14 6 29q-17 -44 -33.5 -68.5
t-32.5 -36.5t-31.5 -15t-28.5 -3q-44 0 -69 31t-25 105q0 15 2 39t8 51.5t18 56t31.5 51t48.5 37t69 14.5q23 0 39 -5t26 -10q11 -6 19 -14zM305 702q-4 3 -11 6q-6 2 -15 4t-22 2q-33 0 -54 -20t-32 -49.5t-15 -62.5t-4 -59q0 -38 9.5 -57.5t35.5 -19.5q7 0 15.5 2
t18.5 8.5t22 19.5t26 34z" />
    <glyph glyph-name="guillemotleft" unicode="&#xab;" horiz-adv-x="492" 
d="M326 285l90 -225h-96l-74 225l130 226h95zM128 285l90 -225h-96l-75 225l131 226h95z" />
    <glyph glyph-name="logicalnot" unicode="&#xac;" 
d="M509 174v226h-449v73h525v-299h-76z" />
    <glyph glyph-name="registered" unicode="&#xae;" horiz-adv-x="975" 
d="M925 279q0 -98 -32 -180.5t-89.5 -142.5t-138 -93.5t-177.5 -33.5q-98 0 -178.5 33t-139 92.5t-90.5 141t-32 178.5q0 98 32.5 180t91.5 141.5t140.5 92.5t179.5 33t178 -33t136.5 -91.5t87.5 -139.5t31 -178zM850 279q0 81 -25 151t-71.5 121t-112.5 80.5t-149 29.5
t-151 -29.5t-116 -81t-74.5 -122.5t-26.5 -154q0 -82 26 -152.5t73.5 -122.5t114.5 -81.5t150 -29.5q82 0 149 30t114.5 82.5t73 124t25.5 154.5zM740 10q-5 -3 -13 -5q-7 -2 -18.5 -3.5t-29.5 -1.5q-22 0 -38.5 4t-30 13.5t-25.5 25.5t-26 39l-46 77q-15 25 -25 40.5
t-18 24.5t-17 12.5t-21 3.5h-13q0 -70 1 -109.5t3 -61.5t5.5 -32t9.5 -21l7 -13q-7 0 -18 1q-10 0 -24.5 0.5t-34.5 0.5t-34.5 -0.5t-24.5 -0.5q-11 -1 -19 -1l7 13q5 10 8.5 20.5t6 35.5t3.5 72.5t1 133.5q0 83 -0.5 129t-3 70.5t-6 34.5t-9.5 21l-7 13q8 -1 18 -1
q8 -1 19.5 -1h25.5q9 0 22 0.5t27.5 0.5t28 0.5t22.5 0.5q39 0 78.5 -3.5t71 -17.5t51.5 -41.5t20 -76.5q0 -66 -42.5 -105.5t-115.5 -40.5q23 -3 39 -10t29 -19t24.5 -29.5t24.5 -41.5l40 -74q17 -31 31.5 -49t35.5 -28zM563 394q0 30 -8 48.5t-23 28.5t-35 13t-44 3
q-8 0 -14 -0.5t-11 -0.5q-5 -1 -9 -1v-186q4 -1 9 -1h29q8 0 20.5 1t21.5 3q27 5 45.5 27t18.5 65z" />
    <glyph glyph-name="macron" unicode="&#xaf;" horiz-adv-x="429" 
d="M70 657l8 70h280l-8 -70h-280z" />
    <glyph glyph-name="degree" unicode="&#xb0;" horiz-adv-x="353" 
d="M361 625q0 -33 -12 -61.5t-33 -49.5t-49.5 -32.5t-61.5 -11.5q-34 0 -62.5 12t-49.5 32.5t-32.5 49t-11.5 61.5t12 61.5t33 49.5t49 32.5t61 11.5q34 0 63 -12t50 -32.5t32.5 -49t11.5 -61.5zM305 625q0 45 -28 74.5t-73 29.5q-43 0 -71.5 -29.5t-28.5 -74.5t28 -74.5
t74 -29.5q42 0 70.5 29.5t28.5 74.5z" />
    <glyph glyph-name="plusminus" unicode="&#xb1;" 
d="M368 402v-252h-76v252h-244v73h244v252h76v-252h243v-73h-243zM48 0v72h563v-72h-563z" />
    <glyph glyph-name="uni00B2" unicode="&#xb2;" horiz-adv-x="359" 
d="M373 739q0 -35 -12.5 -64t-32 -52.5t-42.5 -42.5t-44 -34l-47 -33q-27 -18 -43.5 -34t-17.5 -24h109q47 0 73 14q8 4 12.5 7.5t7.5 5.5q4 3 6 4l-5 -20q-5 -20 -8 -47l-4 -29h-288q4 44 24.5 75.5t60.5 64.5l62 53q42 34 66.5 68t24.5 79q0 35 -18.5 53t-53.5 18
q-41 0 -65 -17t-44 -42q0 6 2 14q1 7 2.5 16t3.5 20q1 13 2 22t1 14v10q13 5 31 9q15 4 37.5 7t52.5 3q43 0 71.5 -10.5t45.5 -27t23.5 -38t6.5 -42.5z" />
    <glyph glyph-name="uni00B3" unicode="&#xb3;" horiz-adv-x="360" 
d="M375 752q0 -35 -12.5 -57.5t-31.5 -36t-42 -20t-45 -9.5q21 -2 40.5 -8.5t35.5 -20t25.5 -34t9.5 -49.5q0 -60 -40 -96t-128 -36q-69 0 -105.5 26.5t-43.5 61.5q10 -9 27 -16q14 -6 36.5 -10.5t56.5 -4.5q21 0 39.5 4t32 14t21.5 26.5t8 41.5q0 32 -18.5 52.5t-64.5 20.5
q-14 0 -27 -3t-23 -8q0 5 1 10t2 11.5t3 16.5q3 22 3 30v7q8 -4 21 -7t30 -3q27 0 45.5 7t29.5 18.5t15.5 26.5t4.5 31q0 24 -14.5 44t-56.5 20q-39 0 -62.5 -15t-46.5 -44q0 5 2 13q1 7 2.5 16l3.5 21q3 25 3 36v10q12 5 29 9q14 4 35.5 7t50.5 3q19 0 44.5 -3t48.5 -13.5
t39 -32t16 -57.5z" />
    <glyph glyph-name="acute" unicode="&#xb4;" horiz-adv-x="429" 
d="M322 775q-6 -12 -18 -26q-11 -13 -28.5 -30t-46.5 -37q-26 -19 -48 -30.5t-39 -17.5q-19 -8 -35 -11l100 152h115v0z" />
    <glyph glyph-name="uni00B5" unicode="&#xb5;" horiz-adv-x="616" 
d="M563 45q-1 -2 -6.5 -11t-17 -19t-30 -18t-45.5 -8q-30 0 -46 11t-22.5 29t-6 41.5t3.5 49.5q-15 -40 -34 -64.5t-39 -38.5t-39.5 -19t-35.5 -5q-27 0 -44.5 6t-28.5 14q-12 9 -18 21l-13 -116q-8 -67 -8.5 -95.5t0.5 -35.5q-6 0 -15 1q-8 0 -18.5 0.5t-23.5 0.5
q-14 0 -24.5 -0.5t-17.5 -0.5q-8 -1 -14 -1q4 14 9 39q9 41 22 138l53 409q7 54 9.5 96.5t-11.5 69.5l-6 11l132 24q1 -4 1 -14q0 -8 -1 -24t-5 -42l-35 -248q-6 -38 -7 -75.5t9 -61.5q7 -17 25 -30t56 -13q30 0 53 14t38 31t22.5 31t8.5 15q4 32 10.5 80.5t13.5 97t12 88.5
t5 55q0 34 -12 60l-6 12l132 24q2 -12 0 -31t-4 -42q-8 -59 -18 -118t-19 -133q-10 -75 -12.5 -110t-2.5 -43q0 -32 17.5 -42t53.5 -10z" />
    <glyph glyph-name="paragraph" unicode="&#xb6;" horiz-adv-x="440" 
d="M309 64q-11 -84 -22 -138t-36 -86q-14 -20 -41.5 -34t-72.5 -14q-21 0 -36 2t-26 5q-12 3 -21 7q1 5 2 11q1 5 2 13t3 19q2 12 2.5 22t1.5 18q1 9 1 16q17 -33 34.5 -44t40.5 -11q17 0 28.5 6.5t19 21.5t12.5 39.5t10 60.5l52 384q-20 0 -51.5 6.5t-61 25t-50.5 52.5
t-21 90q0 77 38.5 134t110.5 78q42 12 86.5 14t76.5 2h10l-92 -700v0z" />
    <glyph glyph-name="periodcentered" unicode="&#xb7;" horiz-adv-x="252" 
d="M197 286q0 -32 -21 -53.5t-59 -25.5q-38 5 -53 24t-15 46q0 33 21 54t59 25q37 -5 52.5 -23.5t15.5 -46.5z" />
    <glyph glyph-name="cedilla" unicode="&#xb8;" horiz-adv-x="429" 
d="M238 5q-6 -8 -11.5 -16.5t-5.5 -16.5t5.5 -13.5t14.5 -11.5l12 -9q8 -6 20.5 -19t12.5 -36q0 -28 -14.5 -46.5t-36 -29.5t-47 -15.5t-46.5 -4.5h-8t-8 1q4 2 16.5 9t26 18t23.5 25.5t10 31.5q0 11 -4 19.5t-12 21.5l-5 8q-4 7 -7.5 14t-3.5 17q0 16 10.5 30.5t19.5 22.5
h38z" />
    <glyph glyph-name="uni00B9" unicode="&#xb9;" horiz-adv-x="265" 
d="M266 868q-6 -33 -12 -73q-5 -35 -12 -81.5t-14 -103.5t-11 -93.5t-5.5 -59t0 -35.5t5.5 -22l5 -11q-5 0 -15 1q-8 0 -21 0.5t-30 0.5t-30 -0.5t-21 -0.5q-10 -1 -16 -1l8 11q6 9 10 19t8.5 33t11 65t15.5 115l17 137q1 7 -1.5 10t-13.5 3h-75q16 22 39.5 32.5t50.5 17.5
t55 14t52 22z" />
    <glyph glyph-name="ordmasculine" unicode="&#xba;" horiz-adv-x="373" 
d="M385 606q0 -30 -7.5 -69t-27.5 -73.5t-54.5 -58t-89.5 -23.5q-76 0 -109.5 43.5t-33.5 118.5q0 31 7.5 69.5t28 73t55.5 58t89 23.5q75 0 108.5 -43t33.5 -119zM299 617q0 33 -5 52.5t-13 30t-18.5 13.5t-22.5 3q-21 0 -35.5 -11t-24.5 -28.5t-16 -39t-9 -41.5t-4 -37
t-1 -25q0 -33 5 -52.5t13 -29.5t18.5 -13t22.5 -3q31 0 49 23.5t27 54.5t11.5 61t2.5 42z" />
    <glyph glyph-name="guillemotright" unicode="&#xbb;" horiz-adv-x="492" 
d="M315 60h-96l145 226l-89 225h95l75 -225zM116 60h-95l145 226l-90 225h96l75 -225z" />
    <glyph glyph-name="onequarter" unicode="&#xbc;" horiz-adv-x="779" 
d="M736 174q-1 -4 -2 -10q-1 -5 -2 -12.5t-3 -17.5t-2 -17t-1 -12q-1 -6 -1 -10q-5 2 -13 4q-7 2 -17 3t-24 1h-6q-2 -23 -3.5 -48.5t6.5 -44.5l5 -11h-15q-8 0 -20.5 0.5t-30.5 0.5t-30.5 -0.5t-20.5 -0.5h-14l7 11q11 17 17 42t9 51h-211q2 17 6.5 33.5t14 34t26 37.5
t43.5 44l58 53q29 27 47.5 44.5t29.5 31t15 24.5t4 23q0 7 -1.5 12t-3.5 9t-4 7q5 2 13 5q7 2 16.5 4t22.5 2q19 0 30.5 -4.5t17.5 -11.5t8 -15t2 -14q0 -18 -8.5 -33.5t-24.5 -31.5t-40 -35t-55 -43l-59 -47q-29 -23 -46 -39.5t-18 -26.5h126l5 43q24 5 52 18.5t43 27.5
l-11 -89h7q14 0 25 1t18 3q8 2 13 4zM248 728q-6 -33 -12 -73q-5 -35 -12 -81.5t-14 -103.5t-11 -93.5t-5.5 -59t0 -35.5t5.5 -22l5 -11q-5 0 -15 1q-8 0 -21 0.5t-30 0.5t-30 -0.5t-21 -0.5q-10 -1 -16 -1l8 11q6 9 10 19t8.5 33t11 65t15.5 115l17 137q1 7 -1.5 10
t-13.5 3h-75q16 22 39.5 32.5t50.5 17.5t55 14t52 22zM168 0h-77l499 713h76z" />
    <glyph glyph-name="onehalf" unicode="&#xbd;" horiz-adv-x="824" 
d="M785 349q0 -35 -12.5 -64t-32 -52.5t-42.5 -42.5t-44 -34l-47 -33q-27 -18 -43.5 -34t-17.5 -24h109q47 0 73 14q8 4 12.5 7.5t7.5 5.5q4 3 6 4l-5 -20q-5 -20 -8 -47l-4 -29h-288q4 44 24.5 75.5t60.5 64.5l62 53q42 34 66.5 68t24.5 79q0 35 -18.5 53t-53.5 18
q-41 0 -65 -17t-44 -42q0 6 2 14q1 7 2.5 16t3.5 20q1 13 2 22t1 14v10q13 5 31 9q15 4 37.5 7t52.5 3q43 0 71.5 -10.5t45.5 -27t23.5 -38t6.5 -42.5zM248 728q-6 -33 -12 -73q-5 -35 -12 -81.5t-14 -103.5t-11 -93.5t-5.5 -59t0 -35.5t5.5 -22l5 -11q-5 0 -15 1
q-8 0 -21 0.5t-30 0.5t-30 -0.5t-21 -0.5q-10 -1 -16 -1l8 11q6 9 10 19t8.5 33t11 65t15.5 115l17 137q1 7 -1.5 10t-13.5 3h-75q16 22 39.5 32.5t50.5 17.5t55 14t52 22zM168 0h-77l499 713h76z" />
    <glyph glyph-name="threequarters" unicode="&#xbe;" horiz-adv-x="862" 
d="M819 174q-1 -4 -2 -10q-1 -5 -2 -12.5t-3 -17.5t-2 -17t-1 -12q-1 -6 -1 -10q-5 2 -13 4q-7 2 -17 3t-24 1h-6q-2 -23 -3.5 -48.5t6.5 -44.5l5 -11h-15q-8 0 -20.5 0.5t-30.5 0.5t-30.5 -0.5t-20.5 -0.5h-14l7 11q11 17 17 42t9 51h-211q2 17 6.5 33.5t14 34t26 37.5
t43.5 44l58 53q29 27 47.5 44.5t29.5 31t15 24.5t4 23q0 7 -1.5 12t-3.5 9t-4 7q5 2 13 5q7 2 16.5 4t22.5 2q19 0 30.5 -4.5t17.5 -11.5t8 -15t2 -14q0 -18 -8.5 -33.5t-24.5 -31.5t-40 -35t-55 -43l-59 -47q-29 -23 -46 -39.5t-18 -26.5h126l5 43q24 5 52 18.5t43 27.5
l-11 -89h7q14 0 25 1t18 3q8 2 13 4zM357 612q0 -35 -12.5 -57.5t-31.5 -36t-42 -20t-45 -9.5q21 -2 40.5 -8.5t35.5 -20t25.5 -34t9.5 -49.5q0 -60 -40 -96t-128 -36q-69 0 -105.5 26.5t-43.5 61.5q10 -9 27 -16q14 -6 36.5 -10.5t56.5 -4.5q21 0 39.5 4t32 14t21.5 26.5
t8 41.5q0 32 -18.5 52.5t-64.5 20.5q-14 0 -27 -3t-23 -8q0 5 1 10t2 11.5t3 16.5q3 22 3 30v7q8 -4 21 -7t30 -3q27 0 45.5 7t29.5 18.5t15.5 26.5t4.5 31q0 24 -14.5 44t-56.5 20q-39 0 -62.5 -15t-46.5 -44q0 5 2 13q1 7 2.5 16l3.5 21q3 25 3 36v10q12 5 29 9
q14 4 35.5 7t50.5 3q19 0 44.5 -3t48.5 -13.5t39 -32t16 -57.5zM251 0h-77l499 713h76z" />
    <glyph glyph-name="questiondown" unicode="&#xbf;" horiz-adv-x="451" 
d="M372 521q0 -28 -17 -51t-56 -28q-32 5 -44.5 22t-12.5 40q0 29 17.5 51.5t55.5 27.5q32 -5 44.5 -23t12.5 -39zM412 13q-1 -8 -3 -19q-2 -9 -4 -22t-4 -29q-2 -17 -3.5 -29t-1.5 -19q-1 -9 0 -13q-17 -9 -42 -15q-21 -5 -53 -9.5t-77 -4.5q-104 0 -155.5 41.5
t-51.5 119.5q0 39 11.5 71t29 57.5t37 45t35.5 34.5l62 59q29 27 40 46t13 37q1 8 0.5 13.5t-1.5 10.5t-2 9h94q1 -3 1.5 -10t-1.5 -19q-5 -31 -18.5 -57.5t-42.5 -56.5l-71 -75q-13 -14 -25.5 -29.5t-22.5 -34t-16 -40.5t-6 -49q0 -22 5.5 -40.5t19 -32t35.5 -21.5t54 -8
q30 0 52.5 5t41 16t35 28t35.5 40z" />
    <glyph glyph-name="Agrave" unicode="&#xc0;" horiz-adv-x="608" 
d="M571 -1q-10 0 -24 1q-12 0 -30 0.5t-41 0.5q-24 0 -42 -0.5t-31 -0.5q-15 -1 -26 -1q21 14 30 33.5t9 48.5q0 9 -1 20.5t-2.5 28t-5 39t-7.5 55.5l-8 59h-213l-23 -56q-16 -39 -27 -66t-17.5 -46.5t-9.5 -33t-3 -26.5q0 -24 7.5 -37t15.5 -19q-11 0 -25 1q-12 0 -28 0.5
t-35 0.5q-20 0 -36 -0.5t-27 -0.5q-13 -1 -23 -1q14 14 25.5 30.5t25 42.5t31 65.5t42.5 99.5l173 411q4 10 8 21t4 22q0 6 -1 10t-2 6q-2 3 -3 4h206q0 -1 -5 -6.5t-5 -22.5q0 -8 1.5 -19.5t2.5 -17.5l60 -409q9 -63 15.5 -103t12.5 -65.5t13.5 -40.5t18.5 -28zM346 605
q-5 38 -6.5 55.5t-1.5 18.5q-1 -2 -7 -19t-21 -55l-102 -251h174zM448 754q-15 3 -33 11q-15 6 -34 17.5t-40 30.5q-23 20 -36.5 37t-21.5 30q-9 14 -12 26h115z" />
    <glyph glyph-name="Aacute" unicode="&#xc1;" horiz-adv-x="608" 
d="M571 -1q-10 0 -24 1q-12 0 -30 0.5t-41 0.5q-24 0 -42 -0.5t-31 -0.5q-15 -1 -26 -1q21 14 30 33.5t9 48.5q0 9 -1 20.5t-2.5 28t-5 39t-7.5 55.5l-8 59h-213l-23 -56q-16 -39 -27 -66t-17.5 -46.5t-9.5 -33t-3 -26.5q0 -24 7.5 -37t15.5 -19q-11 0 -25 1q-12 0 -28 0.5
t-35 0.5q-20 0 -36 -0.5t-27 -0.5q-13 -1 -23 -1q14 14 25.5 30.5t25 42.5t31 65.5t42.5 99.5l173 411q4 10 8 21t4 22q0 6 -1 10t-2 6q-2 3 -3 4h206q0 -1 -5 -6.5t-5 -22.5q0 -8 1.5 -19.5t2.5 -17.5l60 -409q9 -63 15.5 -103t12.5 -65.5t13.5 -40.5t18.5 -28zM346 605
q-5 38 -6.5 55.5t-1.5 18.5q-1 -2 -7 -19t-21 -55l-102 -251h174zM514 906q-6 -12 -18 -26q-11 -13 -28.5 -30t-46.5 -37q-26 -19 -48 -30.5t-39 -17.5q-19 -8 -35 -11l100 152h115z" />
    <glyph glyph-name="Acircumflex" unicode="&#xc2;" horiz-adv-x="608" 
d="M571 -1q-10 0 -24 1q-12 0 -30 0.5t-41 0.5q-24 0 -42 -0.5t-31 -0.5q-15 -1 -26 -1q21 14 30 33.5t9 48.5q0 9 -1 20.5t-2.5 28t-5 39t-7.5 55.5l-8 59h-213l-23 -56q-16 -39 -27 -66t-17.5 -46.5t-9.5 -33t-3 -26.5q0 -24 7.5 -37t15.5 -19q-11 0 -25 1q-12 0 -28 0.5
t-35 0.5q-20 0 -36 -0.5t-27 -0.5q-13 -1 -23 -1q14 14 25.5 30.5t25 42.5t31 65.5t42.5 99.5l173 411q4 10 8 21t4 22q0 6 -1 10t-2 6q-2 3 -3 4h206q0 -1 -5 -6.5t-5 -22.5q0 -8 1.5 -19.5t2.5 -17.5l60 -409q9 -63 15.5 -103t12.5 -65.5t13.5 -40.5t18.5 -28zM346 605
q-5 38 -6.5 55.5t-1.5 18.5q-1 -2 -7 -19t-21 -55l-102 -251h174zM527 753q-48 2 -89 22.5t-64 52.5q-39 -38 -89.5 -56t-92.5 -19l155 152h67z" />
    <glyph glyph-name="Atilde" unicode="&#xc3;" horiz-adv-x="608" 
d="M571 -1q-10 0 -24 1q-12 0 -30 0.5t-41 0.5q-24 0 -42 -0.5t-31 -0.5q-15 -1 -26 -1q21 14 30 33.5t9 48.5q0 9 -1 20.5t-2.5 28t-5 39t-7.5 55.5l-8 59h-213l-23 -56q-16 -39 -27 -66t-17.5 -46.5t-9.5 -33t-3 -26.5q0 -24 7.5 -37t15.5 -19q-11 0 -25 1q-12 0 -28 0.5
t-35 0.5q-20 0 -36 -0.5t-27 -0.5q-13 -1 -23 -1q14 14 25.5 30.5t25 42.5t31 65.5t42.5 99.5l173 411q4 10 8 21t4 22q0 6 -1 10t-2 6q-2 3 -3 4h206q0 -1 -5 -6.5t-5 -22.5q0 -8 1.5 -19.5t2.5 -17.5l60 -409q9 -63 15.5 -103t12.5 -65.5t13.5 -40.5t18.5 -28zM346 605
q-5 38 -6.5 55.5t-1.5 18.5q-1 -2 -7 -19t-21 -55l-102 -251h174zM549 892q-7 -56 -33.5 -87.5t-68.5 -31.5q-15 0 -28 3t-23 7l-57 21q-12 5 -20 6.5t-21 1.5q-17 0 -30.5 -7.5t-24.5 -16.5q-12 -11 -23 -24q7 55 33.5 87t69.5 32q15 0 27 -3t22 -7l58 -21q12 -5 20 -6.5
t21 -1.5q16 0 30 7.5t25 16.5q12 11 23 24z" />
    <glyph glyph-name="Adieresis" unicode="&#xc4;" horiz-adv-x="608" 
d="M571 -1q-10 0 -24 1q-12 0 -30 0.5t-41 0.5q-24 0 -42 -0.5t-31 -0.5q-15 -1 -26 -1q21 14 30 33.5t9 48.5q0 9 -1 20.5t-2.5 28t-5 39t-7.5 55.5l-8 59h-213l-23 -56q-16 -39 -27 -66t-17.5 -46.5t-9.5 -33t-3 -26.5q0 -24 7.5 -37t15.5 -19q-11 0 -25 1q-12 0 -28 0.5
t-35 0.5q-20 0 -36 -0.5t-27 -0.5q-13 -1 -23 -1q14 14 25.5 30.5t25 42.5t31 65.5t42.5 99.5l173 411q4 10 8 21t4 22q0 6 -1 10t-2 6q-2 3 -3 4h206q0 -1 -5 -6.5t-5 -22.5q0 -8 1.5 -19.5t2.5 -17.5l60 -409q9 -63 15.5 -103t12.5 -65.5t13.5 -40.5t18.5 -28zM346 605
q-5 38 -6.5 55.5t-1.5 18.5q-1 -2 -7 -19t-21 -55l-102 -251h174zM535 828q0 -24 -15 -42.5t-44 -18.5q-17 0 -27.5 6t-16.5 14t-8 17.5t-2 16.5q0 24 15 42.5t44 18.5q16 0 26.5 -6t16.5 -14t8.5 -17.5t2.5 -16.5zM348 828q0 -24 -14.5 -42.5t-43.5 -18.5q-17 0 -27.5 6
t-16.5 14t-8.5 17.5t-2.5 16.5q0 24 15 42.5t44 18.5q16 0 26.5 -6t16.5 -14t8.5 -17.5t2.5 -16.5z" />
    <glyph glyph-name="Aring" unicode="&#xc5;" horiz-adv-x="595" 
d="M571 -1q-10 0 -24 1q-12 0 -30 0.5t-41 0.5q-24 0 -42 -0.5t-31 -0.5q-15 -1 -26 -1q21 14 30 33.5t9 48.5q0 9 -1 21t-3 28.5t-5 40t-7 56.5l-8 56h-213l-22 -54q-17 -41 -28 -68t-18 -46.5t-9.5 -33t-2.5 -26.5q0 -24 7.5 -37t15.5 -19q-11 0 -25 1q-12 0 -28 0.5
t-35 0.5q-20 0 -36 -0.5t-27 -0.5q-13 -1 -23 -1q14 14 25.5 30.5t25 42.5t31 65.5t42.5 99.5l173 411q4 10 8 21t4 22q0 6 -1 10t-2 6q-2 3 -3 4h14q-20 25 -20 61q0 27 9 48t24.5 35.5t36.5 22t44 7.5q46 0 76.5 -29t30.5 -77q0 -41 -24 -68h15q0 -1 -5 -6.5t-5 -22.5
q0 -8 1.5 -19.5t2.5 -17.5l60 -409q9 -63 15.5 -103t12.5 -65.5t13.5 -40.5t18.5 -28zM346 605q-5 38 -6.5 55.5t-1.5 18.5q-1 -1 -6.5 -18.5t-21.5 -55.5l-102 -251h174zM414 779q0 26 -16.5 42t-39.5 16q-27 0 -43.5 -17.5t-16.5 -46.5q0 -27 16.5 -42.5t39.5 -15.5
q26 0 43 17.5t17 46.5z" />
    <glyph glyph-name="AE" unicode="&#xc6;" horiz-adv-x="806" 
d="M549 67q44 0 71.5 5t46 15.5t31.5 26t30 36.5q-3 -11 -7 -28q-4 -14 -8.5 -37t-10.5 -55l-6 -30h-333q-20 0 -33.5 -0.5t-22.5 -0.5h-18l11 17q9 14 15.5 27t12.5 41.5t14 81t20 146.5h-150l-75 -133q-20 -35 -31.5 -57t-18.5 -36.5t-9 -24t-2 -19.5q0 -12 4 -22t15 -21
q-11 0 -24 1q-12 0 -28.5 0.5t-38.5 0.5q-27 0 -46 -0.5t-31 -0.5q-14 -1 -24 -1q17 11 30 22.5t29 32.5t37.5 55t54.5 90l307 514q7 -1 18 -1h56h342q-1 -6 -3 -14q-3 -14 -6 -39q-4 -33 -4.5 -49.5t-0.5 -17.5q-1 1 -9 10.5t-23 20.5q-33 22 -101 22h-120l-34 -267h99
q34 0 61.5 4t46.5 15t30 20q5 4 9 7q-2 -9 -5 -20q-2 -10 -5.5 -25t-5.5 -35q-5 -40 -6 -58q-1 -11 -1 -20q-2 3 -6 7q-3 4 -9 8.5t-15 11.5q-17 11 -43 15t-60 4h-98l-31 -245h112zM371 378l35 286q-1 -2 -11.5 -25.5t-30.5 -58.5l-115 -202h122z" />
    <glyph glyph-name="Ccedilla" unicode="&#xc7;" horiz-adv-x="586" 
d="M602 690q-1 -6 -3 -16q-2 -8 -3.5 -21t-3.5 -30q-5 -34 -6 -52q-1 -11 -2 -20q-11 22 -23.5 40t-31 31t-44.5 20t-65 7q-17 0 -43 -2.5t-54.5 -13.5t-57 -33t-51.5 -61.5t-37 -98.5t-14 -144q0 -49 11 -91.5t35.5 -73.5t63.5 -49t96 -18q28 0 50.5 6.5t42 18.5t37 30
t35.5 41q-2 -9 -4 -20q-2 -10 -4 -24.5t-4 -31.5q-2 -16 -3 -27t-2 -19q-1 -9 -1 -16q-14 -7 -35 -13q-18 -5 -46 -10t-67 -6q-8 -11 -8 -21q0 -8 5.5 -13.5t14.5 -11.5l12 -9q8 -6 20.5 -19t12.5 -36q0 -28 -14.5 -46.5t-36 -29.5t-47 -15.5t-46.5 -4.5h-8t-8 1q4 2 16.5 9
t26 18t23.5 25.5t10 31.5q0 11 -4 19.5t-12 21.5l-5 8q-4 7 -7.5 14t-3.5 17q0 11 5.5 22t12.5 20q-77 3 -130.5 27t-87.5 64t-49 94t-15 117q0 76 18 152t61 136.5t115 98.5t180 38q45 0 79 -5t57 -11q27 -7 47 -15z" />
    <glyph glyph-name="Egrave" unicode="&#xc8;" horiz-adv-x="534" 
d="M382 754q-15 3 -33 11q-15 6 -34 17.5t-40 30.5q-23 20 -36.5 37t-21.5 30q-9 14 -12 26h115zM514 712q-1 -6 -3 -14q-3 -14 -6 -39q-2 -17 -2.5 -29.5t-1.5 -20.5q-1 -10 -1 -17l-8 10q-8 10 -24 21q-33 22 -101 22h-120l-32 -255h98q34 0 62 4t46 15q11 6 18 11t12 9
t8 7q-1 -9 -4 -21q-2 -11 -5 -25.5t-5 -34.5q-3 -19 -4 -33.5t-2 -24.5q-1 -11 -1 -20q-2 3 -6 7t-9.5 8.5t-15.5 11.5q-16 11 -42.5 15t-59.5 4h-98l-34 -256h113q44 0 71.5 5t46 15.5t31.5 26t30 36.5q-3 -11 -7 -28q-4 -14 -8.5 -37t-10.5 -55l-6 -30h-335
q-20 0 -33.5 -0.5t-22.5 -0.5h-18l11 17q6 10 11 18.5t9.5 22t9 35.5t10 57t12.5 87t17 127q4 28 8.5 67.5t9 78.5t7.5 72t3 49q0 23 -2.5 37.5t-8.5 28.5l-7 17q7 -1 18 -1h56h326z" />
    <glyph glyph-name="Eacute" unicode="&#xc9;" horiz-adv-x="534" 
d="M479 906q-6 -12 -18 -26q-11 -13 -28.5 -30t-46.5 -37q-26 -19 -48 -30.5t-39 -17.5q-19 -8 -35 -11l100 152h115zM514 712q-1 -6 -3 -14q-3 -14 -6 -39q-2 -17 -2.5 -29.5t-1.5 -20.5q-1 -10 -1 -17l-8 10q-8 10 -24 21q-33 22 -101 22h-120l-32 -255h98q34 0 62 4
t46 15q11 6 18 11t12 9t8 7q-1 -9 -4 -21q-2 -11 -5 -25.5t-5 -34.5q-3 -19 -4 -33.5t-2 -24.5q-1 -11 -1 -20q-2 3 -6 7t-9.5 8.5t-15.5 11.5q-16 11 -42.5 15t-59.5 4h-98l-34 -256h113q44 0 71.5 5t46 15.5t31.5 26t30 36.5q-3 -11 -7 -28q-4 -14 -8.5 -37t-10.5 -55
l-6 -30h-335q-20 0 -33.5 -0.5t-22.5 -0.5h-18l11 17q6 10 11 18.5t9.5 22t9 35.5t10 57t12.5 87t17 127q4 28 8.5 67.5t9 78.5t7.5 72t3 49q0 23 -2.5 37.5t-8.5 28.5l-7 17q7 -1 18 -1h56h326z" />
    <glyph glyph-name="Ecircumflex" unicode="&#xca;" horiz-adv-x="534" 
d="M514 712q-1 -6 -3 -14q-3 -14 -6 -39q-2 -17 -2.5 -29.5t-1.5 -20.5q-1 -10 -1 -17l-8 10q-8 10 -24 21q-33 22 -101 22h-120l-32 -255h98q34 0 62 4t46 15q11 6 18 11t12 9t8 7q-1 -9 -4 -21q-2 -11 -5 -25.5t-5 -34.5q-3 -19 -4 -33.5t-2 -24.5q-1 -11 -1 -20
q-2 3 -6 7t-9.5 8.5t-15.5 11.5q-16 11 -42.5 15t-59.5 4h-98l-34 -256h113q44 0 71.5 5t46 15.5t31.5 26t30 36.5q-3 -11 -7 -28q-4 -14 -8.5 -37t-10.5 -55l-6 -30h-335q-20 0 -33.5 -0.5t-22.5 -0.5h-18l11 17q6 10 11 18.5t9.5 22t9 35.5t10 57t12.5 87t17 127
q4 28 8.5 67.5t9 78.5t7.5 72t3 49q0 23 -2.5 37.5t-8.5 28.5l-7 17q7 -1 18 -1h56h326zM482 753q-48 2 -89 22.5t-64 52.5q-39 -38 -89.5 -56t-92.5 -19l155 152h67z" />
    <glyph glyph-name="Edieresis" unicode="&#xcb;" horiz-adv-x="534" 
d="M489 828q0 -24 -15 -42.5t-44 -18.5q-17 0 -27.5 6t-16.5 14t-8 17.5t-2 16.5q0 24 15 42.5t44 18.5q16 0 26.5 -6t16.5 -14t8.5 -17.5t2.5 -16.5zM302 828q0 -24 -14.5 -42.5t-43.5 -18.5q-17 0 -27.5 6t-16.5 14t-8.5 17.5t-2.5 16.5q0 24 15 42.5t44 18.5
q16 0 26.5 -6t16.5 -14t8.5 -17.5t2.5 -16.5zM514 712q-1 -6 -3 -14q-3 -14 -6 -39q-2 -17 -2.5 -29.5t-1.5 -20.5q-1 -10 -1 -17l-8 10q-8 10 -24 21q-33 22 -101 22h-120l-32 -255h98q34 0 62 4t46 15q11 6 18 11t12 9t8 7q-1 -9 -4 -21q-2 -11 -5 -25.5t-5 -34.5
q-3 -19 -4 -33.5t-2 -24.5q-1 -11 -1 -20q-2 3 -6 7t-9.5 8.5t-15.5 11.5q-16 11 -42.5 15t-59.5 4h-98l-34 -256h113q44 0 71.5 5t46 15.5t31.5 26t30 36.5q-3 -11 -7 -28q-4 -14 -8.5 -37t-10.5 -55l-6 -30h-335q-20 0 -33.5 -0.5t-22.5 -0.5h-18l11 17q6 10 11 18.5
t9.5 22t9 35.5t10 57t12.5 87t17 127q4 28 8.5 67.5t9 78.5t7.5 72t3 49q0 23 -2.5 37.5t-8.5 28.5l-7 17q7 -1 18 -1h56h326z" />
    <glyph glyph-name="Igrave" unicode="&#xcc;" horiz-adv-x="299" 
d="M278 696q-6 -10 -11 -18.5t-9.5 -22t-9 -35.5t-10 -57t-13 -87t-16.5 -127q-4 -29 -8.5 -68l-9 -78t-7.5 -72t-3 -49q0 -23 2.5 -37.5t8.5 -28.5l7 -17q-8 0 -20 1q-11 0 -27 0.5t-40 0.5t-40.5 -0.5t-27.5 -0.5q-12 -1 -20 -1l11 17q6 10 11 18.5t9.5 22t9 35.5t10 57
t12.5 87t17 127q4 28 8.5 67.5t9 78.5t7.5 72t3 49q0 23 -2.5 37.5t-8.5 28.5l-7 17q7 -1 19 -1q10 -1 26.5 -1h40.5h40.5t27.5 1q12 0 21 1zM282 754q-15 3 -33 11q-15 6 -34 17.5t-40 30.5q-23 20 -36.5 37t-21.5 30q-9 14 -12 26h115z" />
    <glyph glyph-name="Iacute" unicode="&#xcd;" horiz-adv-x="299" 
d="M278 696q-6 -10 -11 -18.5t-9.5 -22t-9 -35.5t-10 -57t-13 -87t-16.5 -127q-4 -29 -8.5 -68l-9 -78t-7.5 -72t-3 -49q0 -23 2.5 -37.5t8.5 -28.5l7 -17q-8 0 -20 1q-11 0 -27 0.5t-40 0.5t-40.5 -0.5t-27.5 -0.5q-12 -1 -20 -1l11 17q6 10 11 18.5t9.5 22t9 35.5t10 57
t12.5 87t17 127q4 28 8.5 67.5t9 78.5t7.5 72t3 49q0 23 -2.5 37.5t-8.5 28.5l-7 17q7 -1 19 -1q10 -1 26.5 -1h40.5h40.5t27.5 1q12 0 21 1zM346 906q-6 -12 -18 -26q-11 -13 -28.5 -30t-46.5 -37q-26 -19 -48 -30.5t-39 -17.5q-19 -8 -35 -11l100 152h115z" />
    <glyph glyph-name="Icircumflex" unicode="&#xce;" horiz-adv-x="299" 
d="M278 696q-6 -10 -11 -18.5t-9.5 -22t-9 -35.5t-10 -57t-13 -87t-16.5 -127q-4 -29 -8.5 -68l-9 -78t-7.5 -72t-3 -49q0 -23 2.5 -37.5t8.5 -28.5l7 -17q-8 0 -20 1q-11 0 -27 0.5t-40 0.5t-40.5 -0.5t-27.5 -0.5q-12 -1 -20 -1l11 17q6 10 11 18.5t9.5 22t9 35.5t10 57
t12.5 87t17 127q4 28 8.5 67.5t9 78.5t7.5 72t3 49q0 23 -2.5 37.5t-8.5 28.5l-7 17q7 -1 19 -1q10 -1 26.5 -1h40.5h40.5t27.5 1q12 0 21 1zM364 753q-48 2 -89 22.5t-64 52.5q-39 -38 -89.5 -56t-92.5 -19l155 152h67z" />
    <glyph glyph-name="Idieresis" unicode="&#xcf;" horiz-adv-x="299" 
d="M278 696q-6 -10 -11 -18.5t-9.5 -22t-9 -35.5t-10 -57t-13 -87t-16.5 -127q-4 -29 -8.5 -68l-9 -78t-7.5 -72t-3 -49q0 -23 2.5 -37.5t8.5 -28.5l7 -17q-8 0 -20 1q-11 0 -27 0.5t-40 0.5t-40.5 -0.5t-27.5 -0.5q-12 -1 -20 -1l11 17q6 10 11 18.5t9.5 22t9 35.5t10 57
t12.5 87t17 127q4 28 8.5 67.5t9 78.5t7.5 72t3 49q0 23 -2.5 37.5t-8.5 28.5l-7 17q7 -1 19 -1q10 -1 26.5 -1h40.5h40.5t27.5 1q12 0 21 1zM369 828q0 -24 -15 -42.5t-44 -18.5q-17 0 -27.5 6t-16.5 14t-8 17.5t-2 16.5q0 24 15 42.5t44 18.5q16 0 26.5 -6t16.5 -14
t8.5 -17.5t2.5 -16.5zM182 828q0 -24 -14.5 -42.5t-43.5 -18.5q-17 0 -27.5 6t-16.5 14t-8.5 17.5t-2.5 16.5q0 24 15 42.5t44 18.5q16 0 26.5 -6t16.5 -14t8.5 -17.5t2.5 -16.5z" />
    <glyph glyph-name="Eth" unicode="&#xd0;" horiz-adv-x="715" 
d="M673 412q0 -71 -11.5 -125t-30.5 -95t-42.5 -69.5t-46.5 -47.5t-44.5 -30t-35.5 -17q-43 -17 -94.5 -23.5t-116.5 -6.5q-31 0 -67 1.5t-61 1.5q-18 0 -32.5 -0.5t-24.5 -0.5q-11 -1 -20 -1l11 17q6 9 10.5 17t8.5 20.5t8.5 31t9.5 48.5t11 74t14 107h-9q-27 0 -45 -2.5
t-29 -4.5q-13 -4 -20 -7q1 4 2 11q1 5 2 14t3 20t2.5 19t1.5 14q1 7 1 12q6 -4 18 -7q11 -3 28.5 -5t44.5 -2h9q4 30 8.5 67.5t8.5 74t6.5 67t2.5 45.5q0 23 -2.5 37.5t-8.5 28.5l-7 17q9 -1 20 -1q10 -1 24 -1h32q26 0 60 1.5t62 1.5q69 0 130.5 -11.5t108 -44t73.5 -91.5
t27 -155zM382 300q-7 3 -19 7q-11 2 -28.5 4.5t-43.5 2.5h-63l-30 -242q17 -5 37 -6.5t40 -1.5q57 0 93.5 9.5t64.5 33.5q36 20 59.5 54t37.5 76t20 89.5t6 94.5q0 118 -50.5 173t-170.5 55q-13 0 -24.5 -0.5t-20.5 -1.5q-11 -1 -20 -1l-34 -270h63q26 0 44.5 2t29.5 5
q13 3 20 7q-1 -5 -2 -12q-1 -6 -2.5 -14.5t-2.5 -18.5q-2 -11 -2 -19t-1 -14q-1 -7 -1 -12z" />
    <glyph glyph-name="Ntilde" unicode="&#xd1;" horiz-adv-x="694" 
d="M585 892q-7 -56 -33.5 -87.5t-68.5 -31.5q-15 0 -28 3t-23 7l-57 21q-12 5 -20 6.5t-21 1.5q-17 0 -30.5 -7.5t-24.5 -16.5q-12 -11 -23 -24q7 55 33.5 87t69.5 32q15 0 27 -3t22 -7l58 -21q12 -5 20 -6.5t21 -1.5q16 0 30 7.5t25 16.5q12 11 23 24zM680 696
q-6 -10 -11 -18.5t-9.5 -22t-9.5 -35.5t-10.5 -57t-12.5 -87t-16 -127l-44 -351q-7 0 -17 1q-8 1 -20.5 1.5t-28.5 0.5q-17 0 -30.5 -0.5t-22.5 -1.5q-11 -1 -19 -1l-193 543q-5 13 -8.5 27.5t-5.5 25.5q-3 13 -5 26l-33 -271q-3 -29 -8 -68t-9.5 -78t-7.5 -72t-3 -49
q0 -23 2.5 -37.5t8.5 -28.5l7 -17q-8 0 -19 1q-10 0 -23.5 0.5t-32.5 0.5q-20 0 -34 -0.5t-23 -0.5q-11 -1 -18 -1l11 17q6 10 11 18.5t9.5 22t9 35.5t10 57t12.5 87t17 127q4 28 8.5 67.5t9 78.5t7.5 72t3 49q0 23 -2.5 37.5t-8.5 28.5l-7 17q7 -1 19 -1q11 -1 28 -1h43
h37.5t25.5 1q11 0 19 1l191 -541q6 -17 10 -31t6 -25q3 -13 4 -24l33 272q3 28 8 67.5t9.5 78t7.5 71.5t3 49q0 23 -2.5 37.5t-8.5 28.5l-7 17q8 -1 19 -1q9 -1 23 -1h33h33t24 1q11 0 19 1z" />
    <glyph glyph-name="Ograve" unicode="&#xd2;" horiz-adv-x="682" 
d="M456 754q-15 3 -33 11q-15 6 -34 17.5t-40 30.5q-23 20 -36.5 37t-21.5 30q-9 14 -12 26h115zM639 430q0 -42 -6 -90.5t-20.5 -97.5t-38.5 -95t-60.5 -81.5t-86 -56.5t-115.5 -21q-72 0 -123 21.5t-83 60.5t-46.5 93t-14.5 119q0 42 6 91t20.5 98t38.5 95t60.5 81.5
t86.5 56.5t116 21q72 0 122.5 -21.5t82.5 -60.5t46.5 -93.5t14.5 -119.5zM520 436q0 52 -6 92.5t-22.5 68t-44.5 42t-72 14.5q-47 0 -81 -20t-57.5 -52t-38 -73t-22 -82.5t-10 -80.5t-2.5 -68q0 -52 6 -92.5t22.5 -68t45 -42t72.5 -14.5q47 0 81 20t57 52t37.5 73t22 82.5
t10 80.5t2.5 68z" />
    <glyph glyph-name="Oacute" unicode="&#xd3;" horiz-adv-x="682" 
d="M535 906q-6 -12 -18 -26q-11 -13 -28.5 -30t-46.5 -37q-26 -19 -48 -30.5t-39 -17.5q-19 -8 -35 -11l100 152h115zM639 430q0 -42 -6 -90.5t-20.5 -97.5t-38.5 -95t-60.5 -81.5t-86 -56.5t-115.5 -21q-72 0 -123 21.5t-83 60.5t-46.5 93t-14.5 119q0 42 6 91t20.5 98
t38.5 95t60.5 81.5t86.5 56.5t116 21q72 0 122.5 -21.5t82.5 -60.5t46.5 -93.5t14.5 -119.5zM520 436q0 52 -6 92.5t-22.5 68t-44.5 42t-72 14.5q-47 0 -81 -20t-57.5 -52t-38 -73t-22 -82.5t-10 -80.5t-2.5 -68q0 -52 6 -92.5t22.5 -68t45 -42t72.5 -14.5q47 0 81 20t57 52
t37.5 73t22 82.5t10 80.5t2.5 68z" />
    <glyph glyph-name="Ocircumflex" unicode="&#xd4;" horiz-adv-x="682" 
d="M639 430q0 -42 -6 -90.5t-20.5 -97.5t-38.5 -95t-60.5 -81.5t-86 -56.5t-115.5 -21q-72 0 -123 21.5t-83 60.5t-46.5 93t-14.5 119q0 42 6 91t20.5 98t38.5 95t60.5 81.5t86.5 56.5t116 21q72 0 122.5 -21.5t82.5 -60.5t46.5 -93.5t14.5 -119.5zM520 436q0 52 -6 92.5
t-22.5 68t-44.5 42t-72 14.5q-47 0 -81 -20t-57.5 -52t-38 -73t-22 -82.5t-10 -80.5t-2.5 -68q0 -52 6 -92.5t22.5 -68t45 -42t72.5 -14.5q47 0 81 20t57 52t37.5 73t22 82.5t10 80.5t2.5 68zM545 753q-48 2 -89 22.5t-64 52.5q-39 -38 -89.5 -56t-92.5 -19l155 152h67z" />
    <glyph glyph-name="Otilde" unicode="&#xd5;" horiz-adv-x="682" 
d="M575 892q-7 -56 -33.5 -87.5t-68.5 -31.5q-15 0 -28 3t-23 7l-57 21q-12 5 -20 6.5t-21 1.5q-17 0 -30.5 -7.5t-24.5 -16.5q-12 -11 -23 -24q7 55 33.5 87t69.5 32q15 0 27 -3t22 -7l58 -21q12 -5 20 -6.5t21 -1.5q16 0 30 7.5t25 16.5q12 11 23 24zM639 430
q0 -42 -6 -90.5t-20.5 -97.5t-38.5 -95t-60.5 -81.5t-86 -56.5t-115.5 -21q-72 0 -123 21.5t-83 60.5t-46.5 93t-14.5 119q0 42 6 91t20.5 98t38.5 95t60.5 81.5t86.5 56.5t116 21q72 0 122.5 -21.5t82.5 -60.5t46.5 -93.5t14.5 -119.5zM520 436q0 52 -6 92.5t-22.5 68
t-44.5 42t-72 14.5q-47 0 -81 -20t-57.5 -52t-38 -73t-22 -82.5t-10 -80.5t-2.5 -68q0 -52 6 -92.5t22.5 -68t45 -42t72.5 -14.5q47 0 81 20t57 52t37.5 73t22 82.5t10 80.5t2.5 68z" />
    <glyph glyph-name="Odieresis" unicode="&#xd6;" horiz-adv-x="682" 
d="M557 828q0 -24 -15 -42.5t-44 -18.5q-17 0 -27.5 6t-16.5 14t-8 17.5t-2 16.5q0 24 15 42.5t44 18.5q16 0 26.5 -6t16.5 -14t8.5 -17.5t2.5 -16.5zM370 828q0 -24 -14.5 -42.5t-43.5 -18.5q-17 0 -27.5 6t-16.5 14t-8.5 17.5t-2.5 16.5q0 24 15 42.5t44 18.5
q16 0 26.5 -6t16.5 -14t8.5 -17.5t2.5 -16.5zM639 430q0 -42 -6 -90.5t-20.5 -97.5t-38.5 -95t-60.5 -81.5t-86 -56.5t-115.5 -21q-72 0 -123 21.5t-83 60.5t-46.5 93t-14.5 119q0 42 6 91t20.5 98t38.5 95t60.5 81.5t86.5 56.5t116 21q72 0 122.5 -21.5t82.5 -60.5
t46.5 -93.5t14.5 -119.5zM520 436q0 52 -6 92.5t-22.5 68t-44.5 42t-72 14.5q-47 0 -81 -20t-57.5 -52t-38 -73t-22 -82.5t-10 -80.5t-2.5 -68q0 -52 6 -92.5t22.5 -68t45 -42t72.5 -14.5q47 0 81 20t57 52t37.5 73t22 82.5t10 80.5t2.5 68z" />
    <glyph glyph-name="multiply" unicode="&#xd7;" 
d="M381 354l196 -195l-52 -52l-196 196l-195 -196l-52 52l196 195l-196 196l52 52l195 -196l197 197l52 -52z" />
    <glyph glyph-name="Oslash" unicode="&#xd8;" horiz-adv-x="682" 
d="M639 430q0 -42 -6 -90.5t-20.5 -97.5t-38.5 -95t-60.5 -81.5t-86 -56.5t-115.5 -21q-45 0 -80 8t-64 23l-50 -84l-44 24l53 88q-44 39 -63 100t-19 135q0 42 6 91t20.5 98t38.5 95t60.5 81.5t86.5 56.5t116 21q44 0 79 -8t64 -23l50 84l45 -24l-54 -88q44 -40 63 -100.5
t19 -135.5zM472 621q-34 32 -97 32q-47 0 -81 -19.5t-58 -51.5t-38 -72.5t-22 -82.5t-10.5 -81.5t-2.5 -69.5q0 -41 4 -75t16 -60zM521 437q0 41 -4 75t-16 60l-289 -480q33 -33 97 -33q47 0 81 19.5t58 52t38 73t22 82.5t10.5 81.5t2.5 69.5z" />
    <glyph glyph-name="Ugrave" unicode="&#xd9;" horiz-adv-x="668" 
d="M455 754q-15 3 -33 11q-15 6 -34 17.5t-40 30.5q-23 20 -36.5 37t-21.5 30q-9 14 -12 26h115zM665 696q-9 -14 -15.5 -29t-13.5 -49t-16.5 -97t-22.5 -173l-5 -40q-4 -34 -8.5 -71.5t-14 -73t-26.5 -67.5t-46.5 -56t-73.5 -38t-108 -14q-56 0 -101 10t-77.5 33.5t-50 61
t-17.5 92.5q0 38 4.5 81t11.5 90l4 33q4 31 8.5 67.5t8.5 70.5t6.5 61.5t2.5 41.5q0 23 -2.5 37.5t-8.5 28.5l-7 17q7 -1 19 -1q11 -1 27.5 -1h40.5h40.5t27.5 1q12 0 21 1l-11 -17q-7 -10 -12.5 -20t-10 -24.5t-9 -36.5t-10 -57.5t-13 -86.5t-16.5 -124l-5 -40
q-5 -38 -7 -71t-2 -45q0 -29 6 -53t21.5 -41.5t43.5 -27t73 -9.5q63 0 99.5 27t51.5 73q7 22 11.5 50t8.5 56l13 96q4 28 9 67.5t9.5 78.5t7.5 72.5t3 49.5q0 23 -2.5 37.5t-8.5 28.5l-7 17q11 -1 23 -1q11 -1 25.5 -1h31.5h32t26 1q12 0 22 1z" />
    <glyph glyph-name="Uacute" unicode="&#xda;" horiz-adv-x="668" 
d="M556 906q-6 -12 -18 -26q-11 -13 -28.5 -30t-46.5 -37q-26 -19 -48 -30.5t-39 -17.5q-19 -8 -35 -11l100 152h115zM665 696q-9 -14 -15.5 -29t-13.5 -49t-16.5 -97t-22.5 -173l-5 -40q-4 -34 -8.5 -71.5t-14 -73t-26.5 -67.5t-46.5 -56t-73.5 -38t-108 -14q-56 0 -101 10
t-77.5 33.5t-50 61t-17.5 92.5q0 38 4.5 81t11.5 90l4 33q4 31 8.5 67.5t8.5 70.5t6.5 61.5t2.5 41.5q0 23 -2.5 37.5t-8.5 28.5l-7 17q7 -1 19 -1q11 -1 27.5 -1h40.5h40.5t27.5 1q12 0 21 1l-11 -17q-7 -10 -12.5 -20t-10 -24.5t-9 -36.5t-10 -57.5t-13 -86.5t-16.5 -124
l-5 -40q-5 -38 -7 -71t-2 -45q0 -29 6 -53t21.5 -41.5t43.5 -27t73 -9.5q63 0 99.5 27t51.5 73q7 22 11.5 50t8.5 56l13 96q4 28 9 67.5t9.5 78.5t7.5 72.5t3 49.5q0 23 -2.5 37.5t-8.5 28.5l-7 17q11 -1 23 -1q11 -1 25.5 -1h31.5h32t26 1q12 0 22 1z" />
    <glyph glyph-name="Ucircumflex" unicode="&#xdb;" horiz-adv-x="668" 
d="M665 696q-9 -14 -15.5 -29t-13.5 -49t-16.5 -97t-22.5 -173l-5 -40q-4 -34 -8.5 -71.5t-14 -73t-26.5 -67.5t-46.5 -56t-73.5 -38t-108 -14q-56 0 -101 10t-77.5 33.5t-50 61t-17.5 92.5q0 38 4.5 81t11.5 90l4 33q4 31 8.5 67.5t8.5 70.5t6.5 61.5t2.5 41.5
q0 23 -2.5 37.5t-8.5 28.5l-7 17q7 -1 19 -1q11 -1 27.5 -1h40.5h40.5t27.5 1q12 0 21 1l-11 -17q-7 -10 -12.5 -20t-10 -24.5t-9 -36.5t-10 -57.5t-13 -86.5t-16.5 -124l-5 -40q-5 -38 -7 -71t-2 -45q0 -29 6 -53t21.5 -41.5t43.5 -27t73 -9.5q63 0 99.5 27t51.5 73
q7 22 11.5 50t8.5 56l13 96q4 28 9 67.5t9.5 78.5t7.5 72.5t3 49.5q0 23 -2.5 37.5t-8.5 28.5l-7 17q11 -1 23 -1q11 -1 25.5 -1h31.5h32t26 1q12 0 22 1zM554 753q-48 2 -89 22.5t-64 52.5q-39 -38 -89.5 -56t-92.5 -19l155 152h67z" />
    <glyph glyph-name="Udieresis" unicode="&#xdc;" horiz-adv-x="668" 
d="M562 828q0 -24 -15 -42.5t-44 -18.5q-17 0 -27.5 6t-16.5 14t-8 17.5t-2 16.5q0 24 15 42.5t44 18.5q16 0 26.5 -6t16.5 -14t8.5 -17.5t2.5 -16.5zM375 828q0 -24 -14.5 -42.5t-43.5 -18.5q-17 0 -27.5 6t-16.5 14t-8.5 17.5t-2.5 16.5q0 24 15 42.5t44 18.5
q16 0 26.5 -6t16.5 -14t8.5 -17.5t2.5 -16.5zM665 696q-9 -14 -15.5 -29t-13.5 -49t-16.5 -97t-22.5 -173l-5 -40q-4 -34 -8.5 -71.5t-14 -73t-26.5 -67.5t-46.5 -56t-73.5 -38t-108 -14q-56 0 -101 10t-77.5 33.5t-50 61t-17.5 92.5q0 38 4.5 81t11.5 90l4 33
q4 31 8.5 67.5t8.5 70.5t6.5 61.5t2.5 41.5q0 23 -2.5 37.5t-8.5 28.5l-7 17q7 -1 19 -1q11 -1 27.5 -1h40.5h40.5t27.5 1q12 0 21 1l-11 -17q-7 -10 -12.5 -20t-10 -24.5t-9 -36.5t-10 -57.5t-13 -86.5t-16.5 -124l-5 -40q-5 -38 -7 -71t-2 -45q0 -29 6 -53t21.5 -41.5
t43.5 -27t73 -9.5q63 0 99.5 27t51.5 73q7 22 11.5 50t8.5 56l13 96q4 28 9 67.5t9.5 78.5t7.5 72.5t3 49.5q0 23 -2.5 37.5t-8.5 28.5l-7 17q11 -1 23 -1q11 -1 25.5 -1h31.5h32t26 1q12 0 22 1z" />
    <glyph glyph-name="Yacute" unicode="&#xdd;" horiz-adv-x="499" 
d="M591 713q-1 -1 -8.5 -7.5t-21.5 -21.5q-17 -20 -39.5 -64.5t-53.5 -102.5t-72.5 -122t-96.5 -123q-2 -21 -5 -48.5t-6 -54.5t-5 -50.5t-2 -36.5q0 -23 2.5 -37.5t8.5 -28.5l7 -17q-7 0 -19 1q-11 0 -27.5 0.5t-39.5 0.5q-24 0 -41 -0.5t-28 -0.5q-12 -1 -20 -1l11 17
q8 13 14 24t12 35t13 67t17 119l-84 252q-18 54 -30 88.5t-21.5 56.5t-18 34t-19.5 21q9 -1 23 -1q12 -1 29.5 -1h42.5h42.5t30.5 1q14 0 25 1q-29 -25 -29 -62q0 -8 1.5 -16.5t5 -21.5t9.5 -32t15 -47l60 -191q20 26 47 68t51 88t40.5 90t16.5 74q0 11 -3.5 25t-17.5 25
q10 -1 23 -1q11 -1 27.5 -1h39.5q51 0 72 0.5t22 1.5zM448 906q-6 -12 -18 -26q-11 -13 -28.5 -30t-46.5 -37q-26 -19 -48 -30.5t-39 -17.5q-19 -8 -35 -11l100 152h115z" />
    <glyph glyph-name="Thorn" unicode="&#xde;" horiz-adv-x="559" 
d="M199 -1q-8 0 -20 1q-11 0 -27 0.5t-40 0.5t-40.5 -0.5t-27.5 -0.5q-12 -1 -20 -1l11 17q6 10 11 18.5t9.5 22t9 35.5t10 57t12.5 87t17 127q4 28 8.5 67.5t9 78.5t7.5 72t3 49q0 23 -2.5 37.5t-8.5 28.5l-7 17q7 -1 19 -1q10 -1 26.5 -1h40.5h40.5t27.5 1q12 0 21 1
l-11 -17q-5 -8 -9 -14.5t-7.5 -15.5t-7 -21t-7.5 -30q13 0 24.5 0.5t20.5 0.5q36 0 79.5 -4t82 -23t64.5 -57.5t26 -107.5q0 -54 -13 -92.5t-35 -65t-50 -43t-57.5 -25t-58.5 -11.5t-52 -3q-29 0 -53 1.5t-35 3.5q-4 -35 -6.5 -64t-2.5 -43q0 -23 2.5 -37.5t8.5 -28.5z
M285 553q-18 0 -31 -1t-18 -2q-5 -35 -12 -83.5t-15 -117.5q-3 -20 -6 -44t-6 -50q8 -1 26 -2.5t46 -1.5q46 0 77 13t49.5 36t26 54.5t7.5 68.5q0 72 -34 101t-110 29z" />
    <glyph glyph-name="germandbls" unicode="&#xdf;" horiz-adv-x="628" 
d="M598 655q0 -29 -10.5 -51t-27 -38t-37 -28t-39.5 -22l-50 -26q-24 -13 -41.5 -26.5t-17.5 -40.5q0 -24 14 -37.5t35 -28.5l60 -46q17 -13 34.5 -26.5t31.5 -31t23 -41t9 -56.5q0 -23 -7.5 -51t-29 -53t-59.5 -42t-99 -17q-39 0 -68 4.5t-49 9.5q-23 6 -38 15q1 5 3 14
q2 8 3 18.5t3 26.5t3.5 29.5t2.5 24.5q1 12 2 22q8 -17 18.5 -35t26.5 -32t39 -23t58 -9q26 0 43.5 7.5t28 19.5t15 26t4.5 27q0 35 -16.5 54.5t-43.5 40.5l-62 46q-39 29 -59.5 56.5t-20.5 71.5q0 28 9 48t23.5 35.5t32.5 27t35 21.5l43 23q39 22 55.5 40.5t16.5 47.5
q0 38 -31.5 55.5t-88.5 17.5q-48 0 -77.5 -16t-43.5 -47q-11 -23 -18.5 -63.5t-12.5 -86.5l-30 -236q-12 -94 -18.5 -148.5t-8.5 -82.5q-4 -33 -3 -44q-5 0 -14 1q-8 0 -19 0.5t-25 0.5q-15 0 -26 -0.5t-19 -0.5q-9 -1 -15 -1q4 13 10 46q5 29 13 83t19 146l20 166
q3 19 6 45t7 54t8.5 54t10.5 44q24 76 85 113.5t158 37.5q42 0 81 -6.5t69 -21.5t48 -40.5t18 -64.5z" />
    <glyph glyph-name="agrave" unicode="&#xe0;" horiz-adv-x="583" 
d="M538 580q-4 -22 -10 -62q-5 -34 -13.5 -89t-19.5 -138q-4 -27 -8.5 -59.5t-8 -62.5t-6 -53t-2.5 -31q0 -12 3 -21t15 -19l13 -10q-8 -13 -20 -23q-11 -8 -26.5 -15t-37.5 -7q-20 0 -31.5 6.5t-17.5 15.5t-7.5 19t-1.5 17q0 16 3 37.5t7 41.5q4 23 10 46
q-27 -66 -53.5 -103t-51.5 -55t-48 -22t-42 -4q-69 0 -105.5 47.5t-36.5 155.5q0 20 2.5 56t12 79t27 88t47.5 81.5t74 59.5t107 23q35 0 59 -7.5t40 -15.5q18 -11 30 -23zM416 486q-8 6 -20 11q-11 5 -27.5 8.5t-40.5 3.5q-54 0 -88 -31.5t-53 -78.5t-26 -101.5t-7 -100.5
q0 -60 15 -93.5t61 -33.5q10 0 24 2.5t32 13.5t40 32.5t48 59.5zM385 623q-15 3 -33 11q-15 6 -34 17.5t-40 30.5q-23 20 -36.5 37t-21.5 30q-9 14 -12 26h115z" />
    <glyph glyph-name="aacute" unicode="&#xe1;" horiz-adv-x="583" 
d="M538 580q-4 -22 -10 -62q-5 -34 -13.5 -89t-19.5 -138q-4 -27 -8.5 -59.5t-8 -62.5t-6 -53t-2.5 -31q0 -12 3 -21t15 -19l13 -10q-8 -13 -20 -23q-11 -8 -26.5 -15t-37.5 -7q-20 0 -31.5 6.5t-17.5 15.5t-7.5 19t-1.5 17q0 16 3 37.5t7 41.5q4 23 10 46
q-27 -66 -53.5 -103t-51.5 -55t-48 -22t-42 -4q-69 0 -105.5 47.5t-36.5 155.5q0 20 2.5 56t12 79t27 88t47.5 81.5t74 59.5t107 23q35 0 59 -7.5t40 -15.5q18 -11 30 -23zM416 486q-8 6 -20 11q-11 5 -27.5 8.5t-40.5 3.5q-54 0 -88 -31.5t-53 -78.5t-26 -101.5t-7 -100.5
q0 -60 15 -93.5t61 -33.5q10 0 24 2.5t32 13.5t40 32.5t48 59.5zM483 775q-6 -12 -18 -26q-11 -13 -28.5 -30t-46.5 -37q-26 -19 -48 -30.5t-39 -17.5q-19 -8 -35 -11l100 152h115z" />
    <glyph glyph-name="acircumflex" unicode="&#xe2;" horiz-adv-x="583" 
d="M538 580q-4 -22 -10 -62q-5 -34 -13.5 -89t-19.5 -138q-4 -27 -8.5 -59.5t-8 -62.5t-6 -53t-2.5 -31q0 -12 3 -21t15 -19l13 -10q-8 -13 -20 -23q-11 -8 -26.5 -15t-37.5 -7q-20 0 -31.5 6.5t-17.5 15.5t-7.5 19t-1.5 17q0 16 3 37.5t7 41.5q4 23 10 46
q-27 -66 -53.5 -103t-51.5 -55t-48 -22t-42 -4q-69 0 -105.5 47.5t-36.5 155.5q0 20 2.5 56t12 79t27 88t47.5 81.5t74 59.5t107 23q35 0 59 -7.5t40 -15.5q18 -11 30 -23zM416 486q-8 6 -20 11q-11 5 -27.5 8.5t-40.5 3.5q-54 0 -88 -31.5t-53 -78.5t-26 -101.5t-7 -100.5
q0 -60 15 -93.5t61 -33.5q10 0 24 2.5t32 13.5t40 32.5t48 59.5zM487 623q-48 2 -89 21.5t-64 53.5q-39 -38 -89.5 -56t-92.5 -19l156 152h66z" />
    <glyph glyph-name="atilde" unicode="&#xe3;" horiz-adv-x="583" 
d="M538 580q-4 -22 -10 -62q-5 -34 -13.5 -89t-19.5 -138q-4 -27 -8.5 -59.5t-8 -62.5t-6 -53t-2.5 -31q0 -12 3 -21t15 -19l13 -10q-8 -13 -20 -23q-11 -8 -26.5 -15t-37.5 -7q-20 0 -31.5 6.5t-17.5 15.5t-7.5 19t-1.5 17q0 16 3 37.5t7 41.5q4 23 10 46
q-27 -66 -53.5 -103t-51.5 -55t-48 -22t-42 -4q-69 0 -105.5 47.5t-36.5 155.5q0 20 2.5 56t12 79t27 88t47.5 81.5t74 59.5t107 23q35 0 59 -7.5t40 -15.5q18 -11 30 -23zM416 486q-8 6 -20 11q-11 5 -27.5 8.5t-40.5 3.5q-54 0 -88 -31.5t-53 -78.5t-26 -101.5t-7 -100.5
q0 -60 15 -93.5t61 -33.5q10 0 24 2.5t32 13.5t40 32.5t48 59.5zM516 761q-7 -55 -33.5 -87t-68.5 -32q-15 0 -28 3t-23 7l-57 21q-12 5 -20 6.5t-21 1.5q-17 0 -30.5 -7.5t-24.5 -16.5q-12 -11 -23 -24q7 55 33.5 87t69.5 32q15 0 27 -3t22 -7l58 -21q12 -5 20 -6.5
t21 -1.5q16 0 30 7.5t25 16.5q12 11 23 24z" />
    <glyph glyph-name="adieresis" unicode="&#xe4;" horiz-adv-x="583" 
d="M538 580q-4 -22 -10 -62q-5 -34 -13.5 -89t-19.5 -138q-4 -27 -8.5 -59.5t-8 -62.5t-6 -53t-2.5 -31q0 -12 3 -21t15 -19l13 -10q-8 -13 -20 -23q-11 -8 -26.5 -15t-37.5 -7q-20 0 -31.5 6.5t-17.5 15.5t-7.5 19t-1.5 17q0 16 3 37.5t7 41.5q4 23 10 46
q-27 -66 -53.5 -103t-51.5 -55t-48 -22t-42 -4q-69 0 -105.5 47.5t-36.5 155.5q0 20 2.5 56t12 79t27 88t47.5 81.5t74 59.5t107 23q35 0 59 -7.5t40 -15.5q18 -11 30 -23zM416 486q-8 6 -20 11q-11 5 -27.5 8.5t-40.5 3.5q-54 0 -88 -31.5t-53 -78.5t-26 -101.5t-7 -100.5
q0 -60 15 -93.5t61 -33.5q10 0 24 2.5t32 13.5t40 32.5t48 59.5zM505 709q0 -24 -15 -42.5t-44 -18.5q-17 0 -27.5 6t-16.5 14t-8 17.5t-2 16.5q0 24 15 42.5t44 18.5q16 0 26.5 -6t16.5 -14t8.5 -17.5t2.5 -16.5zM318 709q0 -24 -14.5 -42.5t-43.5 -18.5q-17 0 -27.5 6
t-16.5 14t-8.5 17.5t-2.5 16.5q0 24 15 42.5t44 18.5q16 0 26.5 -6t16.5 -14t8.5 -17.5t2.5 -16.5z" />
    <glyph glyph-name="aring" unicode="&#xe5;" horiz-adv-x="583" 
d="M538 580q-4 -22 -10 -62q-5 -34 -13.5 -89t-19.5 -138q-4 -27 -8.5 -59.5t-8 -62.5t-6 -53t-2.5 -31q0 -12 3 -21t15 -19l13 -10q-8 -13 -20 -23q-11 -8 -26.5 -15t-37.5 -7q-20 0 -31.5 6.5t-17.5 15.5t-7.5 19t-1.5 17q0 16 3 37.5t7 41.5q4 23 10 46
q-27 -66 -53.5 -103t-51.5 -55t-48 -22t-42 -4q-69 0 -105.5 47.5t-36.5 155.5q0 20 2.5 56t12 79t27 88t47.5 81.5t74 59.5t107 23q35 0 59 -7.5t40 -15.5q18 -11 30 -23zM416 486q-8 6 -20 11q-11 5 -27.5 8.5t-40.5 3.5q-54 0 -88 -31.5t-53 -78.5t-26 -101.5t-7 -100.5
q0 -60 15 -93.5t61 -33.5q10 0 24 2.5t32 13.5t40 32.5t48 59.5zM445 719q0 -54 -33 -82t-78 -28q-44 0 -73 27.5t-29 74.5q0 27 9 47.5t24 34.5t35 21t42 7q45 0 74 -28t29 -74zM395 718q0 26 -16 41.5t-39 15.5q-26 0 -42 -17t-16 -46q0 -26 16 -41.5t38 -15.5
q26 0 42.5 17t16.5 46z" />
    <glyph glyph-name="ae" unicode="&#xe6;" horiz-adv-x="846" 
d="M823 434q0 -57 -21 -94.5t-55 -59t-77.5 -30t-88.5 -8.5q-48 0 -72 3q-14 2 -24 4q-1 -5 -1 -10v-17q0 -30 6 -58.5t20.5 -50.5t39.5 -35t64 -13q42 0 71 9t48.5 20.5t29 23t12.5 17.5q0 -16 -7.5 -40.5t-28.5 -48t-59 -40.5t-98 -17q-49 0 -82.5 12t-55 31t-32.5 41
t-15 43q-33 -60 -81.5 -93.5t-108.5 -33.5q-37 0 -67.5 8.5t-52 31t-33.5 62t-12 101.5q0 20 2.5 56t12 79t27 88t47.5 81.5t74 59.5t107 23q35 0 59 -7.5t40 -15.5q18 -11 30 -23l81 47l-10 -60q13 16 33 29q17 11 43.5 20.5t64.5 9.5q46 0 78.5 -11.5t52.5 -31.5t29.5 -46
t9.5 -56zM715 433q0 15 -3.5 29.5t-13 26.5t-25 19.5t-39.5 7.5q-26 0 -49.5 -9.5t-42 -33t-32.5 -63.5t-21 -100q7 -1 18 -2q9 -1 24 -1.5t36 -0.5q78 0 113 32t35 95zM416 486q-8 6 -20 11q-11 5 -27.5 8.5t-40.5 3.5q-54 0 -88 -31.5t-53 -78.5t-26 -101.5t-7 -100.5
q0 -60 15 -93.5t61 -33.5q10 0 24 3t32 13.5t39.5 32t47.5 58.5z" />
    <glyph glyph-name="ccedilla" unicode="&#xe7;" horiz-adv-x="465" 
d="M462 550q-1 -7 -3 -16q-2 -8 -3.5 -19t-3.5 -26t-3.5 -29t-2.5 -25q-2 -13 -2 -24q-10 21 -19.5 39t-23 31.5t-33.5 21.5t-51 8q-46 0 -77.5 -24t-50.5 -63t-27 -88t-8 -98q0 -26 2.5 -56.5t14 -56.5t35.5 -43t68 -17q36 0 62 9t43 20.5t25.5 22.5t10.5 16q0 -21 -8 -45
t-26 -45t-47.5 -35.5t-73.5 -17.5q-2 -5 -4 -9t-2 -9q0 -8 5.5 -13.5t14.5 -11.5l12 -9q8 -6 20.5 -19t12.5 -36q0 -28 -14.5 -46.5t-36 -29.5t-47 -15.5t-46.5 -4.5h-8t-8 1q4 2 16.5 9t26 18t23.5 25.5t10 31.5q0 11 -4 19.5t-12 21.5l-5 8q-4 7 -7.5 14t-3.5 17
q0 11 4.5 20.5t10.5 17.5q-56 4 -90.5 26.5t-53.5 55.5t-25.5 71.5t-6.5 73.5q0 14 1.5 46t10 72.5t25 83.5t47 78.5t76 58.5t111.5 23q38 0 66.5 -5t46.5 -10q21 -6 36 -14z" />
    <glyph glyph-name="egrave" unicode="&#xe8;" horiz-adv-x="516" 
d="M491 433q0 -57 -21 -94t-55 -58.5t-77.5 -30t-88.5 -8.5q-48 0 -72 3q-14 2 -24 4q-1 -5 -1 -10v-17q0 -30 6 -58.5t20.5 -50.5t39.5 -35t64 -13q42 0 71 9t48.5 20.5t29 23t12.5 17.5q0 -16 -7.5 -40.5t-29 -48t-59.5 -40.5t-98 -17q-26 0 -62 6t-68 28t-54.5 66
t-22.5 120q0 83 17.5 151.5t51.5 117t84.5 75t115.5 26.5q49 0 83.5 -11.5t56 -31.5t31 -46.5t9.5 -56.5zM383 433q0 15 -3.5 29.5t-13 26.5t-25 19.5t-39.5 7.5q-26 0 -49.5 -9.5t-42 -33t-32.5 -63.5t-21 -100q7 -1 18 -2q9 -1 24 -1.5t36 -0.5q78 0 113 32t35 95z
M368 623q-15 3 -33 11q-15 6 -34 17.5t-40 30.5q-23 20 -36.5 37t-21.5 30q-9 14 -12 26h115z" />
    <glyph glyph-name="eacute" unicode="&#xe9;" horiz-adv-x="516" 
d="M473 775q-6 -12 -18 -26q-11 -13 -28.5 -30t-46.5 -37q-26 -19 -48 -30.5t-39 -17.5q-19 -8 -35 -11l100 152h115zM491 433q0 -57 -21 -94t-55 -58.5t-77.5 -30t-88.5 -8.5q-48 0 -72 3q-14 2 -24 4q-1 -5 -1 -10v-17q0 -30 6 -58.5t20.5 -50.5t39.5 -35t64 -13
q42 0 71 9t48.5 20.5t29 23t12.5 17.5q0 -16 -7.5 -40.5t-29 -48t-59.5 -40.5t-98 -17q-26 0 -62 6t-68 28t-54.5 66t-22.5 120q0 83 17.5 151.5t51.5 117t84.5 75t115.5 26.5q49 0 83.5 -11.5t56 -31.5t31 -46.5t9.5 -56.5zM383 433q0 15 -3.5 29.5t-13 26.5t-25 19.5
t-39.5 7.5q-26 0 -49.5 -9.5t-42 -33t-32.5 -63.5t-21 -100q7 -1 18 -2q9 -1 24 -1.5t36 -0.5q78 0 113 32t35 95z" />
    <glyph glyph-name="ecircumflex" unicode="&#xea;" horiz-adv-x="516" 
d="M474 623q-48 2 -89 21.5t-64 53.5q-39 -38 -89.5 -56t-92.5 -19l156 152h66zM491 433q0 -57 -21 -94t-55 -58.5t-77.5 -30t-88.5 -8.5q-48 0 -72 3q-14 2 -24 4q-1 -5 -1 -10v-17q0 -30 6 -58.5t20.5 -50.5t39.5 -35t64 -13q42 0 71 9t48.5 20.5t29 23t12.5 17.5
q0 -16 -7.5 -40.5t-29 -48t-59.5 -40.5t-98 -17q-26 0 -62 6t-68 28t-54.5 66t-22.5 120q0 83 17.5 151.5t51.5 117t84.5 75t115.5 26.5q49 0 83.5 -11.5t56 -31.5t31 -46.5t9.5 -56.5zM383 433q0 15 -3.5 29.5t-13 26.5t-25 19.5t-39.5 7.5q-26 0 -49.5 -9.5t-42 -33
t-32.5 -63.5t-21 -100q7 -1 18 -2q9 -1 24 -1.5t36 -0.5q78 0 113 32t35 95z" />
    <glyph glyph-name="edieresis" unicode="&#xeb;" horiz-adv-x="516" 
d="M479 709q0 -24 -15 -42.5t-44 -18.5q-17 0 -27.5 6t-16.5 14t-8 17.5t-2 16.5q0 24 15 42.5t44 18.5q16 0 26.5 -6t16.5 -14t8.5 -17.5t2.5 -16.5zM292 709q0 -24 -14.5 -42.5t-43.5 -18.5q-17 0 -27.5 6t-16.5 14t-8.5 17.5t-2.5 16.5q0 24 15 42.5t44 18.5
q16 0 26.5 -6t16.5 -14t8.5 -17.5t2.5 -16.5zM491 433q0 -57 -21 -94t-55 -58.5t-77.5 -30t-88.5 -8.5q-48 0 -72 3q-14 2 -24 4q-1 -5 -1 -10v-17q0 -30 6 -58.5t20.5 -50.5t39.5 -35t64 -13q42 0 71 9t48.5 20.5t29 23t12.5 17.5q0 -16 -7.5 -40.5t-29 -48t-59.5 -40.5
t-98 -17q-26 0 -62 6t-68 28t-54.5 66t-22.5 120q0 83 17.5 151.5t51.5 117t84.5 75t115.5 26.5q49 0 83.5 -11.5t56 -31.5t31 -46.5t9.5 -56.5zM383 433q0 15 -3.5 29.5t-13 26.5t-25 19.5t-39.5 7.5q-26 0 -49.5 -9.5t-42 -33t-32.5 -63.5t-21 -100q7 -1 18 -2
q9 -1 24 -1.5t36 -0.5q78 0 113 32t35 95z" />
    <glyph glyph-name="igrave" unicode="&#xec;" horiz-adv-x="282" 
d="M235 575q-5 -27 -10 -67q-5 -34 -12 -85t-16 -120q-5 -35 -10 -71t-8.5 -66t-6 -52t-2.5 -30q0 -12 3 -20.5t15 -18.5l13 -10q-9 -13 -21 -23q-11 -8 -26.5 -15t-38.5 -7q-21 0 -32.5 6.5t-17.5 15.5t-7.5 19t-1.5 17q0 14 4 44.5t10 70.5t13.5 85t13.5 88t10 80t4 60
q0 20 -2 35t-10 27l-7 12zM246 623q-15 3 -33 11q-15 6 -34 17.5t-40 30.5q-23 20 -36.5 37t-21.5 30q-9 14 -12 26h115z" />
    <glyph glyph-name="iacute" unicode="&#xed;" horiz-adv-x="282" 
d="M320 775q-6 -12 -18 -26q-11 -13 -28.5 -30t-46.5 -37q-26 -19 -48 -30.5t-39 -17.5q-19 -8 -35 -11l100 152h115zM235 575q-5 -27 -10 -67q-5 -34 -12 -85t-16 -120q-5 -35 -10 -71t-8.5 -66t-6 -52t-2.5 -30q0 -12 3 -20.5t15 -18.5l13 -10q-9 -13 -21 -23
q-11 -8 -26.5 -15t-38.5 -7q-21 0 -32.5 6.5t-17.5 15.5t-7.5 19t-1.5 17q0 14 4 44.5t10 70.5t13.5 85t13.5 88t10 80t4 60q0 20 -2 35t-10 27l-7 12z" />
    <glyph glyph-name="icircumflex" unicode="&#xee;" horiz-adv-x="282" 
d="M339 623q-48 2 -89 21.5t-64 53.5q-39 -38 -89.5 -56t-92.5 -19l156 152h66zM235 575q-5 -27 -10 -67q-5 -34 -12 -85t-16 -120q-5 -35 -10 -71t-8.5 -66t-6 -52t-2.5 -30q0 -12 3 -20.5t15 -18.5l13 -10q-9 -13 -21 -23q-11 -8 -26.5 -15t-38.5 -7q-21 0 -32.5 6.5
t-17.5 15.5t-7.5 19t-1.5 17q0 14 4 44.5t10 70.5t13.5 85t13.5 88t10 80t4 60q0 20 -2 35t-10 27l-7 12z" />
    <glyph glyph-name="idieresis" unicode="&#xef;" horiz-adv-x="282" 
d="M331 709q0 -24 -15 -42.5t-44 -18.5q-17 0 -27.5 6t-16.5 14t-8 17.5t-2 16.5q0 24 15 42.5t44 18.5q16 0 26.5 -6t16.5 -14t8.5 -17.5t2.5 -16.5zM144 709q0 -24 -14.5 -42.5t-43.5 -18.5q-17 0 -27.5 6t-16.5 14t-8.5 17.5t-2.5 16.5q0 24 15 42.5t44 18.5
q16 0 26.5 -6t16.5 -14t8.5 -17.5t2.5 -16.5zM235 575q-5 -27 -10 -67q-5 -34 -12 -85t-16 -120q-5 -35 -10 -71t-8.5 -66t-6 -52t-2.5 -30q0 -12 3 -20.5t15 -18.5l13 -10q-9 -13 -21 -23q-11 -8 -26.5 -15t-38.5 -7q-21 0 -32.5 6.5t-17.5 15.5t-7.5 19t-1.5 17
q0 14 4 44.5t10 70.5t13.5 85t13.5 88t10 80t4 60q0 20 -2 35t-10 27l-7 12z" />
    <glyph glyph-name="eth" unicode="&#xf0;" horiz-adv-x="553" 
d="M481 709q15 -22 24 -47t13.5 -50t6 -48.5t1.5 -42.5q0 -60 -6.5 -117t-16.5 -106t-22 -89t-24 -66q-18 -39 -38 -68.5t-45.5 -48.5t-57 -28.5t-72.5 -9.5q-43 0 -79.5 11.5t-63.5 37t-42.5 67.5t-15.5 103q0 63 12.5 126.5t40.5 114.5t73 82.5t109 31.5q48 0 75.5 -15
t41.5 -33q17 -21 22 -47q0 8 1 17q0 8 0.5 15.5t0.5 13.5q0 42 -3 80t-19 67l-77 -45l-19 34l73 42q-18 16 -45 25t-67 9q-37 0 -61.5 -6t-40.5 -13q-18 -8 -29 -18q9 27 30 49q18 19 52 34.5t91 15.5q53 0 89.5 -13.5t61.5 -35.5l82 48l19 -34zM415 462q-8 10 -22 19
q-12 8 -32.5 14t-51.5 6q-36 0 -61.5 -16.5t-43 -43t-27.5 -60t-15.5 -67t-7 -63.5t-1.5 -50q0 -80 24 -112.5t71 -32.5q45 0 73 34t45.5 84.5t27 110t16.5 110.5q1 6 1.5 17.5t1.5 22.5q1 13 2 27z" />
    <glyph glyph-name="ntilde" unicode="&#xf1;" horiz-adv-x="595" 
d="M530 462q0 -16 -3.5 -46.5t-8.5 -68t-11.5 -78.5t-11.5 -77.5t-8.5 -65.5t-3.5 -42q0 -12 3 -20.5t16 -18.5l13 -10q-9 -13 -21 -23q-11 -8 -27 -15t-39 -7q-21 0 -32.5 6.5t-17 15.5t-7 19t-1.5 17q0 13 3.5 41.5t9 65t12 78t12 80t9 71t3.5 51.5q0 7 -1 18t-7 20.5
t-18 16.5t-34 7q-41 0 -76 -25.5t-75 -82.5l-17 -120q-11 -80 -17 -132t-10 -83q-4 -36 -6 -55q-6 0 -15 1q-8 0 -18 0.5t-23 0.5q-12 0 -22.5 -0.5t-18.5 -0.5q-10 -1 -17 -1q4 21 10 60q5 33 14 87t21 138q11 72 16 124.5t5 73.5q0 14 -2.5 29.5t-10.5 29.5l-6 10l141 25
l-28 -181q27 64 55.5 101t56 55.5t52 23t44.5 4.5q43 0 66.5 -13t35 -32t14 -39t2.5 -33zM518 761q-7 -55 -33.5 -87t-68.5 -32q-15 0 -28 3t-23 7l-57 21q-12 5 -20 6.5t-21 1.5q-17 0 -30.5 -7.5t-24.5 -16.5q-12 -11 -23 -24q7 55 33.5 87t69.5 32q15 0 27 -3t22 -7
l58 -21q12 -5 20 -6.5t21 -1.5q16 0 30 7.5t25 16.5q12 11 23 24z" />
    <glyph glyph-name="ograve" unicode="&#xf2;" horiz-adv-x="558" 
d="M515 330q0 -24 -4 -59t-15 -73t-30 -75.5t-48.5 -67.5t-70.5 -48.5t-97 -18.5q-59 0 -99 18t-64 51t-34.5 79t-10.5 102q0 24 4 59t15 72.5t30 75t48.5 67.5t70.5 48.5t97 18.5q60 0 100 -18t64 -51t34 -79t10 -101zM405 346q0 57 -9 90t-23.5 50t-32.5 21.5t-36 4.5
q-34 0 -58.5 -17.5t-41 -44.5t-27 -60.5t-16 -66t-7 -59.5t-1.5 -42q0 -57 9 -90t23.5 -50t32.5 -21.5t36 -4.5q34 0 58.5 17.5t41 44.5t27 60.5t16 65.5t7 59.5t1.5 42.5zM382 623q-15 3 -33 11q-15 6 -34 17.5t-40 30.5q-23 20 -36.5 37t-21.5 30q-9 14 -12 26h115z" />
    <glyph glyph-name="oacute" unicode="&#xf3;" horiz-adv-x="558" 
d="M462 775q-6 -12 -18 -26q-11 -13 -28.5 -30t-46.5 -37q-26 -19 -48 -30.5t-39 -17.5q-19 -8 -35 -11l100 152h115zM515 330q0 -24 -4 -59t-15 -73t-30 -75.5t-48.5 -67.5t-70.5 -48.5t-97 -18.5q-59 0 -99 18t-64 51t-34.5 79t-10.5 102q0 24 4 59t15 72.5t30 75
t48.5 67.5t70.5 48.5t97 18.5q60 0 100 -18t64 -51t34 -79t10 -101zM405 346q0 57 -9 90t-23.5 50t-32.5 21.5t-36 4.5q-34 0 -58.5 -17.5t-41 -44.5t-27 -60.5t-16 -66t-7 -59.5t-1.5 -42q0 -57 9 -90t23.5 -50t32.5 -21.5t36 -4.5q34 0 58.5 17.5t41 44.5t27 60.5t16 65.5
t7 59.5t1.5 42.5z" />
    <glyph glyph-name="ocircumflex" unicode="&#xf4;" horiz-adv-x="558" 
d="M474 623q-48 2 -89 21.5t-64 53.5q-39 -38 -89.5 -56t-92.5 -19l156 152h66zM515 330q0 -24 -4 -59t-15 -73t-30 -75.5t-48.5 -67.5t-70.5 -48.5t-97 -18.5q-59 0 -99 18t-64 51t-34.5 79t-10.5 102q0 24 4 59t15 72.5t30 75t48.5 67.5t70.5 48.5t97 18.5q60 0 100 -18
t64 -51t34 -79t10 -101zM405 346q0 57 -9 90t-23.5 50t-32.5 21.5t-36 4.5q-34 0 -58.5 -17.5t-41 -44.5t-27 -60.5t-16 -66t-7 -59.5t-1.5 -42q0 -57 9 -90t23.5 -50t32.5 -21.5t36 -4.5q34 0 58.5 17.5t41 44.5t27 60.5t16 65.5t7 59.5t1.5 42.5z" />
    <glyph glyph-name="otilde" unicode="&#xf5;" horiz-adv-x="558" 
d="M515 330q0 -24 -4 -59t-15 -73t-30 -75.5t-48.5 -67.5t-70.5 -48.5t-97 -18.5q-59 0 -99 18t-64 51t-34.5 79t-10.5 102q0 24 4 59t15 72.5t30 75t48.5 67.5t70.5 48.5t97 18.5q60 0 100 -18t64 -51t34 -79t10 -101zM405 346q0 57 -9 90t-23.5 50t-32.5 21.5t-36 4.5
q-34 0 -58.5 -17.5t-41 -44.5t-27 -60.5t-16 -66t-7 -59.5t-1.5 -42q0 -57 9 -90t23.5 -50t32.5 -21.5t36 -4.5q34 0 58.5 17.5t41 44.5t27 60.5t16 65.5t7 59.5t1.5 42.5zM488 761q-7 -55 -33.5 -87t-68.5 -32q-15 0 -28 3t-23 7l-57 21q-12 5 -20 6.5t-21 1.5
q-17 0 -30.5 -7.5t-24.5 -16.5q-12 -11 -23 -24q7 55 33.5 87t69.5 32q15 0 27 -3t22 -7l58 -21q12 -5 20 -6.5t21 -1.5q16 0 30 7.5t25 16.5q12 11 23 24z" />
    <glyph glyph-name="odieresis" unicode="&#xf6;" horiz-adv-x="558" 
d="M473 709q0 -24 -15 -42.5t-44 -18.5q-17 0 -27.5 6t-16.5 14t-8 17.5t-2 16.5q0 24 15 42.5t44 18.5q16 0 26.5 -6t16.5 -14t8.5 -17.5t2.5 -16.5zM286 709q0 -24 -14.5 -42.5t-43.5 -18.5q-17 0 -27.5 6t-16.5 14t-8.5 17.5t-2.5 16.5q0 24 15 42.5t44 18.5
q16 0 26.5 -6t16.5 -14t8.5 -17.5t2.5 -16.5zM515 330q0 -24 -4 -59t-15 -73t-30 -75.5t-48.5 -67.5t-70.5 -48.5t-97 -18.5q-59 0 -99 18t-64 51t-34.5 79t-10.5 102q0 24 4 59t15 72.5t30 75t48.5 67.5t70.5 48.5t97 18.5q60 0 100 -18t64 -51t34 -79t10 -101zM405 346
q0 57 -9 90t-23.5 50t-32.5 21.5t-36 4.5q-34 0 -58.5 -17.5t-41 -44.5t-27 -60.5t-16 -66t-7 -59.5t-1.5 -42q0 -57 9 -90t23.5 -50t32.5 -21.5t36 -4.5q34 0 58.5 17.5t41 44.5t27 60.5t16 65.5t7 59.5t1.5 42.5z" />
    <glyph glyph-name="divide" unicode="&#xf7;" 
d="M399 569q0 -32 -20 -51t-49 -19q-28 0 -49 18.5t-21 51.5q0 34 20.5 52.5t49.5 18.5t49 -18t20 -53zM48 319v73h564v-73h-564zM399 141q0 -34 -20 -52.5t-49 -18.5q-28 0 -49 18.5t-21 52.5q0 33 20.5 51.5t50.5 18.5q28 0 48 -17.5t20 -52.5z" />
    <glyph glyph-name="oslash" unicode="&#xf8;" horiz-adv-x="558" 
d="M515 330q0 -24 -4 -59t-15 -73t-30 -75.5t-48.5 -67.5t-70.5 -48.5t-97 -18.5q-58 0 -98 18l-42 -78l-40 22l43 79q-39 32 -55 86t-16 123q0 24 4 59t15 72.5t30 75t48.5 67.5t70.5 48.5t97 18.5q61 0 98 -17l42 78l40 -23l-43 -78q39 -32 55 -86t16 -123zM367 493
q-14 13 -31 16t-33 3q-34 0 -58.5 -17t-41.5 -44t-27.5 -60.5t-16 -65.5t-7.5 -60t-2 -44q0 -32 4 -57t10 -42zM407 347q0 32 -3.5 57t-9.5 42l-203 -371q14 -13 30.5 -16t33.5 -3q34 0 58.5 17t41.5 44t27 60.5t15.5 65.5t7.5 60t2 44z" />
    <glyph glyph-name="ugrave" unicode="&#xf9;" horiz-adv-x="592" 
d="M547 575q-3 -21 -9 -60q-5 -33 -13.5 -87.5t-19.5 -137.5q-4 -27 -8.5 -59.5t-8.5 -62t-6.5 -52.5t-2.5 -31q0 -12 3 -21t16 -19l13 -10q-8 -13 -20 -23q-11 -8 -26.5 -15t-38.5 -7q-20 0 -31.5 6.5t-17 15.5t-7 19t-1.5 17q0 16 2.5 37.5t6.5 41.5q4 23 10 46
q-27 -64 -55.5 -101t-56 -55.5t-52.5 -23.5t-46 -5q-43 0 -66 13.5t-34 32.5t-13 39t-2 33q0 17 3 47t8 66t10.5 75.5t10.5 74.5t8 63.5t3 43.5q0 20 -2 35t-9 27l-7 12l145 25q-17 -103 -30 -191q-6 -38 -11 -75.5t-9.5 -71t-7 -59.5t-2.5 -40q0 -10 1 -22t7 -22
t18.5 -16.5t34.5 -6.5q40 0 75 25.5t75 82.5l16 116q11 71 15.5 114.5t4.5 66.5q0 20 -2 35t-10 27l-6 12zM384 623q-15 3 -33 11q-15 6 -34 17.5t-40 30.5q-23 20 -36.5 37t-21.5 30q-9 14 -12 26h115z" />
    <glyph glyph-name="uacute" unicode="&#xfa;" horiz-adv-x="592" 
d="M487 775q-6 -12 -18 -26q-11 -13 -28.5 -30t-46.5 -37q-26 -19 -48 -30.5t-39 -17.5q-19 -8 -35 -11l100 152h115zM547 575q-3 -21 -9 -60q-5 -33 -13.5 -87.5t-19.5 -137.5q-4 -27 -8.5 -59.5t-8.5 -62t-6.5 -52.5t-2.5 -31q0 -12 3 -21t16 -19l13 -10q-8 -13 -20 -23
q-11 -8 -26.5 -15t-38.5 -7q-20 0 -31.5 6.5t-17 15.5t-7 19t-1.5 17q0 16 2.5 37.5t6.5 41.5q4 23 10 46q-27 -64 -55.5 -101t-56 -55.5t-52.5 -23.5t-46 -5q-43 0 -66 13.5t-34 32.5t-13 39t-2 33q0 17 3 47t8 66t10.5 75.5t10.5 74.5t8 63.5t3 43.5q0 20 -2 35t-9 27
l-7 12l145 25q-17 -103 -30 -191q-6 -38 -11 -75.5t-9.5 -71t-7 -59.5t-2.5 -40q0 -10 1 -22t7 -22t18.5 -16.5t34.5 -6.5q40 0 75 25.5t75 82.5l16 116q11 71 15.5 114.5t4.5 66.5q0 20 -2 35t-10 27l-6 12z" />
    <glyph glyph-name="ucircumflex" unicode="&#xfb;" horiz-adv-x="592" 
d="M490 623q-48 2 -89 21.5t-64 53.5q-39 -38 -89.5 -56t-92.5 -19l156 152h66zM547 575q-3 -21 -9 -60q-5 -33 -13.5 -87.5t-19.5 -137.5q-4 -27 -8.5 -59.5t-8.5 -62t-6.5 -52.5t-2.5 -31q0 -12 3 -21t16 -19l13 -10q-8 -13 -20 -23q-11 -8 -26.5 -15t-38.5 -7
q-20 0 -31.5 6.5t-17 15.5t-7 19t-1.5 17q0 16 2.5 37.5t6.5 41.5q4 23 10 46q-27 -64 -55.5 -101t-56 -55.5t-52.5 -23.5t-46 -5q-43 0 -66 13.5t-34 32.5t-13 39t-2 33q0 17 3 47t8 66t10.5 75.5t10.5 74.5t8 63.5t3 43.5q0 20 -2 35t-9 27l-7 12l145 25
q-17 -103 -30 -191q-6 -38 -11 -75.5t-9.5 -71t-7 -59.5t-2.5 -40q0 -10 1 -22t7 -22t18.5 -16.5t34.5 -6.5q40 0 75 25.5t75 82.5l16 116q11 71 15.5 114.5t4.5 66.5q0 20 -2 35t-10 27l-6 12z" />
    <glyph glyph-name="udieresis" unicode="&#xfc;" horiz-adv-x="592" 
d="M492 709q0 -24 -15 -42.5t-44 -18.5q-17 0 -27.5 6t-16.5 14t-8 17.5t-2 16.5q0 24 15 42.5t44 18.5q16 0 26.5 -6t16.5 -14t8.5 -17.5t2.5 -16.5zM305 709q0 -24 -14.5 -42.5t-43.5 -18.5q-17 0 -27.5 6t-16.5 14t-8.5 17.5t-2.5 16.5q0 24 15 42.5t44 18.5
q16 0 26.5 -6t16.5 -14t8.5 -17.5t2.5 -16.5zM547 575q-3 -21 -9 -60q-5 -33 -13.5 -87.5t-19.5 -137.5q-4 -27 -8.5 -59.5t-8.5 -62t-6.5 -52.5t-2.5 -31q0 -12 3 -21t16 -19l13 -10q-8 -13 -20 -23q-11 -8 -26.5 -15t-38.5 -7q-20 0 -31.5 6.5t-17 15.5t-7 19t-1.5 17
q0 16 2.5 37.5t6.5 41.5q4 23 10 46q-27 -64 -55.5 -101t-56 -55.5t-52.5 -23.5t-46 -5q-43 0 -66 13.5t-34 32.5t-13 39t-2 33q0 17 3 47t8 66t10.5 75.5t10.5 74.5t8 63.5t3 43.5q0 20 -2 35t-9 27l-7 12l145 25q-17 -103 -30 -191q-6 -38 -11 -75.5t-9.5 -71t-7 -59.5
t-2.5 -40q0 -10 1 -22t7 -22t18.5 -16.5t34.5 -6.5q40 0 75 25.5t75 82.5l16 116q11 71 15.5 114.5t4.5 66.5q0 20 -2 35t-10 27l-6 12z" />
    <glyph glyph-name="yacute" unicode="&#xfd;" horiz-adv-x="519" 
d="M505 513q0 -46 -22 -111.5t-54 -135t-68 -134.5t-64 -110q-39 -63 -70 -107.5t-60 -73t-59.5 -41.5t-69.5 -13q-23 0 -38.5 2t-25.5 4q-11 3 -18 6q1 6 3 14q3 15 6 38q2 13 2.5 24.5t1.5 19.5q1 10 1 18q18 -33 35 -45t34 -12q13 0 25.5 3.5t27.5 16.5t34.5 37t45.5 65
l-97 475q-6 30 -14.5 51t-17.5 31l-14 16l140 25q2 -16 6 -44q4 -25 10 -65.5t17 -103.5l37 -207q6 -39 7.5 -59t0.5 -23q2 5 14.5 28.5t29 59t35.5 79t35.5 89t27 89t10.5 78.5q0 18 -4.5 29t-9.5 18q-6 8 -13 12q7 6 18 11q9 5 21 8.5t29 3.5q23 0 36 -7t19.5 -17.5t8 -22
t1.5 -19.5zM454 775q-6 -12 -18 -26q-11 -13 -28.5 -30t-46.5 -37q-26 -19 -48 -30.5t-39 -17.5q-19 -8 -35 -11l100 152h115z" />
    <glyph glyph-name="thorn" unicode="&#xfe;" horiz-adv-x="578" 
d="M89 327q8 56 16 114t14 108t10 87t4 52q0 19 -2 34t-9 28l-7 12l146 25q-5 -25 -10 -59q-5 -29 -11 -73.5t-14 -103.5l-3 -22q-3 -20 -6.5 -41.5t-7 -39.5t-6.5 -31t-4 -17q27 63 53 99t50.5 53.5t47.5 22t43 4.5q68 0 105 -47.5t37 -154.5q0 -20 -2.5 -56.5t-12 -79.5
t-27 -87.5t-47.5 -81t-74.5 -60t-106.5 -23.5q-29 0 -50.5 5.5t-35.5 12.5q-17 8 -27 19l-5 -36q-5 -32 -7.5 -54t-3.5 -36.5t-1.5 -23t-0.5 -12.5q0 -20 2 -34t8 -28l6 -15q-6 0 -17 1q-9 0 -25 0.5t-40 0.5t-39.5 -0.5t-25.5 -0.5q-11 -1 -18 -1l12 19q6 10 11 21t9 29.5
t9 46.5t11.5 71.5t15.5 106.5t22 150zM424 372q0 60 -15.5 93.5t-61.5 33.5q-11 0 -25 -3t-32 -14t-40 -32.5t-48 -59.5l-43 -307q9 -7 21 -12q11 -5 27.5 -8t41.5 -3q36 0 63 14.5t46.5 39t32 56t20 66.5t10.5 70t3 66z" />
    <glyph glyph-name="ydieresis" unicode="&#xff;" horiz-adv-x="519" 
d="M505 513q0 -46 -22 -111.5t-54 -135t-68 -134.5t-64 -110q-39 -63 -70 -107.5t-60 -73t-59.5 -41.5t-69.5 -13q-23 0 -38.5 2t-25.5 4q-11 3 -18 6q1 6 3 14q3 15 6 38q2 13 2.5 24.5t1.5 19.5q1 10 1 18q18 -33 35 -45t34 -12q13 0 25.5 3.5t27.5 16.5t34.5 37t45.5 65
l-97 475q-6 30 -14.5 51t-17.5 31l-14 16l140 25q2 -16 6 -44q4 -25 10 -65.5t17 -103.5l37 -207q6 -39 7.5 -59t0.5 -23q2 5 14.5 28.5t29 59t35.5 79t35.5 89t27 89t10.5 78.5q0 18 -4.5 29t-9.5 18q-6 8 -13 12q7 6 18 11q9 5 21 8.5t29 3.5q23 0 36 -7t19.5 -17.5t8 -22
t1.5 -19.5zM457 709q0 -24 -15 -42.5t-44 -18.5q-17 0 -27.5 6t-16.5 14t-8 17.5t-2 16.5q0 24 15 42.5t44 18.5q16 0 26.5 -6t16.5 -14t8.5 -17.5t2.5 -16.5zM270 709q0 -24 -14.5 -42.5t-43.5 -18.5q-17 0 -27.5 6t-16.5 14t-8.5 17.5t-2.5 16.5q0 24 15 42.5t44 18.5
q16 0 26.5 -6t16.5 -14t8.5 -17.5t2.5 -16.5z" />
    <glyph glyph-name="Amacron" unicode="&#x100;" horiz-adv-x="608" 
d="M571 -1q-10 0 -24 1q-12 0 -30 0.5t-41 0.5q-24 0 -42 -0.5t-31 -0.5q-15 -1 -26 -1q21 14 30 33.5t9 48.5q0 9 -1 20.5t-2.5 28t-5 39t-7.5 55.5l-8 59h-213l-23 -56q-16 -39 -27 -66t-17.5 -46.5t-9.5 -33t-3 -26.5q0 -24 7.5 -37t15.5 -19q-11 0 -25 1q-12 0 -28 0.5
t-35 0.5q-20 0 -36 -0.5t-27 -0.5q-13 -1 -23 -1q14 14 25.5 30.5t25 42.5t31 65.5t42.5 99.5l173 411q4 10 8 21t4 22q0 6 -1 10t-2 6q-2 3 -3 4h206q0 -1 -5 -6.5t-5 -22.5q0 -8 1.5 -19.5t2.5 -17.5l60 -409q9 -63 15.5 -103t12.5 -65.5t13.5 -40.5t18.5 -28zM346 605
q-5 38 -6.5 55.5t-1.5 18.5q-1 -2 -7 -19t-21 -55l-102 -251h174zM237 787l8 71h280l-8 -71h-280z" />
    <glyph glyph-name="amacron" unicode="&#x101;" horiz-adv-x="583" 
d="M538 580q-4 -22 -10 -62q-5 -34 -13.5 -89t-19.5 -138q-4 -27 -8.5 -59.5t-8 -62.5t-6 -53t-2.5 -31q0 -12 3 -21t15 -19l13 -10q-8 -13 -20 -23q-11 -8 -26.5 -15t-37.5 -7q-20 0 -31.5 6.5t-17.5 15.5t-7.5 19t-1.5 17q0 16 3 37.5t7 41.5q4 23 10 46
q-27 -66 -53.5 -103t-51.5 -55t-48 -22t-42 -4q-69 0 -105.5 47.5t-36.5 155.5q0 20 2.5 56t12 79t27 88t47.5 81.5t74 59.5t107 23q35 0 59 -7.5t40 -15.5q18 -11 30 -23zM416 486q-8 6 -20 11q-11 5 -27.5 8.5t-40.5 3.5q-54 0 -88 -31.5t-53 -78.5t-26 -101.5t-7 -100.5
q0 -60 15 -93.5t61 -33.5q10 0 24 2.5t32 13.5t40 32.5t48 59.5zM206 657l8 70h280l-8 -70h-280z" />
    <glyph glyph-name="Abreve" unicode="&#x102;" horiz-adv-x="608" 
d="M571 -1q-10 0 -24 1q-12 0 -30 0.5t-41 0.5q-24 0 -42 -0.5t-31 -0.5q-15 -1 -26 -1q21 14 30 33.5t9 48.5q0 9 -1 20.5t-2.5 28t-5 39t-7.5 55.5l-8 59h-213l-23 -56q-16 -39 -27 -66t-17.5 -46.5t-9.5 -33t-3 -26.5q0 -24 7.5 -37t15.5 -19q-11 0 -25 1q-12 0 -28 0.5
t-35 0.5q-20 0 -36 -0.5t-27 -0.5q-13 -1 -23 -1q14 14 25.5 30.5t25 42.5t31 65.5t42.5 99.5l173 411q4 10 8 21t4 22q0 6 -1 10t-2 6q-2 3 -3 4h206q0 -1 -5 -6.5t-5 -22.5q0 -8 1.5 -19.5t2.5 -17.5l60 -409q9 -63 15.5 -103t12.5 -65.5t13.5 -40.5t18.5 -28zM346 605
q-5 38 -6.5 55.5t-1.5 18.5q-1 -2 -7 -19t-21 -55l-102 -251h174zM252 923q17 -35 45 -61t79 -26q50 0 88.5 22.5t70.5 64.5q-5 -36 -18 -66t-34 -52t-49 -34.5t-63 -12.5q-33 0 -57 12.5t-39 34.5t-21 52t-2 66z" />
    <glyph glyph-name="abreve" unicode="&#x103;" horiz-adv-x="583" 
d="M538 580q-4 -22 -10 -62q-5 -34 -13.5 -89t-19.5 -138q-4 -27 -8.5 -59.5t-8 -62.5t-6 -53t-2.5 -31q0 -12 3 -21t15 -19l13 -10q-8 -13 -20 -23q-11 -8 -26.5 -15t-37.5 -7q-20 0 -31.5 6.5t-17.5 15.5t-7.5 19t-1.5 17q0 16 3 37.5t7 41.5q4 23 10 46
q-27 -66 -53.5 -103t-51.5 -55t-48 -22t-42 -4q-69 0 -105.5 47.5t-36.5 155.5q0 20 2.5 56t12 79t27 88t47.5 81.5t74 59.5t107 23q35 0 59 -7.5t40 -15.5q18 -11 30 -23zM416 486q-8 6 -20 11q-11 5 -27.5 8.5t-40.5 3.5q-54 0 -88 -31.5t-53 -78.5t-26 -101.5t-7 -100.5
q0 -60 15 -93.5t61 -33.5q10 0 24 2.5t32 13.5t40 32.5t48 59.5zM224 793q17 -35 45 -61t79 -26q50 0 88.5 22.5t70.5 64.5q-5 -36 -18 -66t-34 -52t-49 -34.5t-63 -12.5q-33 0 -57 12.5t-39 34.5t-21 52t-2 66z" />
    <glyph glyph-name="Aogonek" unicode="&#x104;" horiz-adv-x="595" 
d="M248 -138q0 28 12.5 49.5t32.5 39t43.5 31t46.5 27.5q18 11 25.5 28.5t7.5 43.5q0 9 -1 20.5t-2.5 28t-5 39t-7.5 55.5l-8 59h-213l-23 -56q-16 -39 -27 -66t-17.5 -46.5t-9.5 -33t-3 -26.5q0 -24 7.5 -37t15.5 -19q-11 0 -25 1q-12 0 -28 0.5t-35 0.5q-20 0 -36 -0.5
t-27 -0.5q-13 -1 -23 -1q14 14 25.5 30.5t25 42.5t31 65.5t42.5 99.5l173 411q4 10 8 21t4 22q0 6 -1 10t-2 6q-2 3 -3 4h206q0 -1 -5 -6.5t-5 -22.5q0 -8 1.5 -19.5t2.5 -17.5l60 -409q9 -63 15.5 -103t12.5 -65.5t13.5 -40.5t18.5 -28q-10 0 -22 1q-11 0 -25.5 0.5
t-32.5 0.5q-29 0 -56 -8t-47.5 -23.5t-32.5 -37t-12 -48.5q0 -33 19 -51t58 -24q-19 -10 -42 -15.5t-43 -5.5q-36 0 -61.5 19.5t-25.5 54.5zM346 605q-5 38 -6.5 55.5t-1.5 18.5q-1 -2 -7 -19t-21 -55l-102 -251h174z" />
    <glyph glyph-name="aogonek" unicode="&#x105;" horiz-adv-x="583" 
d="M281 -138q0 25 9.5 45t24.5 36t35 28.5t41 22.5q-11 3 -17.5 10t-9.5 14.5t-4 15.5t-1 14q0 16 3 37.5t7 41.5q4 23 10 46q-27 -66 -53.5 -103t-51.5 -55t-48 -22t-42 -4q-69 0 -105.5 47.5t-36.5 155.5q0 20 2.5 56t12 79t27 88t47.5 81.5t74 59.5t107 23q35 0 59 -7.5
t40 -15.5q18 -11 30 -23l97 47q-4 -22 -10 -62q-5 -34 -13.5 -89t-19.5 -138q-4 -27 -8.5 -59.5t-8 -62.5t-6 -53t-2.5 -31q0 -12 3 -21t15 -19l13 -10q-5 -8 -12 -15q-6 -6 -14.5 -13t-19.5 -13q-14 -8 -28.5 -20t-25.5 -27t-18 -33t-7 -39q0 -54 77 -66q-19 -10 -42 -15.5
t-43 -5.5q-36 0 -61.5 19.5t-25.5 54.5zM416 486q-8 6 -20 11q-11 5 -27.5 8.5t-40.5 3.5q-54 0 -88 -31.5t-53 -78.5t-26 -101.5t-7 -100.5q0 -60 15 -93.5t61 -33.5q10 0 24 2.5t32 13.5t40 32.5t48 59.5z" />
    <glyph glyph-name="Cacute" unicode="&#x106;" horiz-adv-x="586" 
d="M602 690q-1 -6 -3 -16q-2 -8 -3.5 -21t-3.5 -30q-5 -34 -6 -52q-1 -11 -2 -20q-11 22 -23.5 40t-31 31t-44.5 20t-65 7q-17 0 -43 -2.5t-54.5 -13.5t-57 -33t-51.5 -61.5t-37 -98.5t-14 -144q0 -49 11 -91.5t35.5 -73.5t63.5 -49t96 -18q28 0 50.5 6.5t42 18.5t37 30
t35.5 41q-2 -9 -4 -20q-2 -10 -4 -24.5t-4 -31.5q-2 -16 -3 -27t-2 -19q-1 -9 -1 -16q-15 -9 -39 -15q-20 -5 -52 -9.5t-77 -4.5q-83 0 -140.5 23t-93.5 64t-52.5 96t-16.5 120q0 76 18 152t61 136.5t115 98.5t180 38q45 0 79 -5t57 -11q27 -7 47 -15zM542 906
q-6 -12 -18 -26q-11 -13 -28.5 -30t-46.5 -37q-26 -19 -48 -30.5t-39 -17.5q-19 -8 -35 -11l100 152h115z" />
    <glyph glyph-name="cacute" unicode="&#x107;" horiz-adv-x="465" 
d="M451 775q-6 -12 -18 -26q-11 -13 -28.5 -30t-46.5 -37q-26 -19 -48 -30.5t-39 -17.5q-19 -8 -35 -11l100 152h115zM462 550q-1 -7 -3 -16q-2 -8 -3.5 -19t-3.5 -26t-3.5 -29t-2.5 -25q-2 -13 -2 -24q-10 21 -19.5 39t-23 31.5t-33.5 21.5t-51 8q-46 0 -77.5 -24
t-50.5 -63t-27 -88t-8 -98q0 -26 2.5 -56.5t14 -56.5t35.5 -43t68 -17q36 0 62 9t43 20.5t25.5 22.5t10.5 16q0 -23 -9 -48t-29.5 -46.5t-54 -35.5t-83.5 -14q-63 0 -101.5 22t-60 55.5t-28.5 74t-7 76.5q0 14 1.5 46t10 72.5t25 83.5t47 78.5t76 58.5t111.5 23
q38 0 66.5 -5t46.5 -10q21 -6 36 -14z" />
    <glyph glyph-name="Ccircumflex" unicode="&#x108;" horiz-adv-x="586" 
d="M602 690q-1 -6 -3 -16q-2 -8 -3.5 -21t-3.5 -30q-5 -34 -6 -52q-1 -11 -2 -20q-11 22 -23.5 40t-31 31t-44.5 20t-65 7q-17 0 -43 -2.5t-54.5 -13.5t-57 -33t-51.5 -61.5t-37 -98.5t-14 -144q0 -49 11 -91.5t35.5 -73.5t63.5 -49t96 -18q28 0 50.5 6.5t42 18.5t37 30
t35.5 41q-2 -9 -4 -20q-2 -10 -4 -24.5t-4 -31.5q-2 -16 -3 -27t-2 -19q-1 -9 -1 -16q-15 -9 -39 -15q-20 -5 -52 -9.5t-77 -4.5q-83 0 -140.5 23t-93.5 64t-52.5 96t-16.5 120q0 76 18 152t61 136.5t115 98.5t180 38q45 0 79 -5t57 -11q27 -7 47 -15zM553 753
q-48 2 -89 22.5t-64 52.5q-39 -38 -89.5 -56t-92.5 -19l155 152h67z" />
    <glyph glyph-name="ccircumflex" unicode="&#x109;" horiz-adv-x="465" 
d="M463 623q-48 2 -89 21.5t-64 53.5q-39 -38 -89.5 -56t-92.5 -19l156 152h66zM462 550q-1 -7 -3 -16q-2 -8 -3.5 -19t-3.5 -26t-3.5 -29t-2.5 -25q-2 -13 -2 -24q-10 21 -19.5 39t-23 31.5t-33.5 21.5t-51 8q-46 0 -77.5 -24t-50.5 -63t-27 -88t-8 -98q0 -26 2.5 -56.5
t14 -56.5t35.5 -43t68 -17q36 0 62 9t43 20.5t25.5 22.5t10.5 16q0 -23 -9 -48t-29.5 -46.5t-54 -35.5t-83.5 -14q-63 0 -101.5 22t-60 55.5t-28.5 74t-7 76.5q0 14 1.5 46t10 72.5t25 83.5t47 78.5t76 58.5t111.5 23q38 0 66.5 -5t46.5 -10q21 -6 36 -14z" />
    <glyph glyph-name="Cdotaccent" unicode="&#x10a;" horiz-adv-x="586" 
d="M473 831q0 -29 -17.5 -47t-52.5 -18q-20 0 -32.5 5.5t-20 14t-10.5 18.5t-3 19q0 29 17.5 47t51.5 18q20 0 33 -5.5t20.5 -14t10.5 -18.5t3 -19zM602 690q-1 -6 -3 -16q-2 -8 -3.5 -21t-3.5 -30q-5 -34 -6 -52q-1 -11 -2 -20q-11 22 -23.5 40t-31 31t-44.5 20t-65 7
q-17 0 -43 -2.5t-54.5 -13.5t-57 -33t-51.5 -61.5t-37 -98.5t-14 -144q0 -49 11 -91.5t35.5 -73.5t63.5 -49t96 -18q28 0 50.5 6.5t42 18.5t37 30t35.5 41q-2 -9 -4 -20q-2 -10 -4 -24.5t-4 -31.5q-2 -16 -3 -27t-2 -19q-1 -9 -1 -16q-15 -9 -39 -15q-20 -5 -52 -9.5
t-77 -4.5q-83 0 -140.5 23t-93.5 64t-52.5 96t-16.5 120q0 76 18 152t61 136.5t115 98.5t180 38q45 0 79 -5t57 -11q27 -7 47 -15z" />
    <glyph glyph-name="cdotaccent" unicode="&#x10b;" horiz-adv-x="465" 
d="M462 550q-1 -7 -3 -16q-2 -8 -3.5 -19t-3.5 -26t-3.5 -29t-2.5 -25q-2 -13 -2 -24q-10 21 -19.5 39t-23 31.5t-33.5 21.5t-51 8q-46 0 -77.5 -24t-50.5 -63t-27 -88t-8 -98q0 -26 2.5 -56.5t14 -56.5t35.5 -43t68 -17q36 0 62 9t43 20.5t25.5 22.5t10.5 16q0 -23 -9 -48
t-29.5 -46.5t-54 -35.5t-83.5 -14q-63 0 -101.5 22t-60 55.5t-28.5 74t-7 76.5q0 14 1.5 46t10 72.5t25 83.5t47 78.5t76 58.5t111.5 23q38 0 66.5 -5t46.5 -10q21 -6 36 -14zM380 722q0 -29 -17.5 -47t-52.5 -18q-20 0 -32.5 5.5t-20 14t-10.5 18.5t-3 19q0 29 17.5 47
t51.5 18q20 0 33 -5.5t20.5 -14t10.5 -18.5t3 -19z" />
    <glyph glyph-name="Ccaron" unicode="&#x10c;" horiz-adv-x="586" 
d="M602 690q-1 -6 -3 -16q-2 -8 -3.5 -21t-3.5 -30q-5 -34 -6 -52q-1 -11 -2 -20q-11 22 -23.5 40t-31 31t-44.5 20t-65 7q-17 0 -43 -2.5t-54.5 -13.5t-57 -33t-51.5 -61.5t-37 -98.5t-14 -144q0 -49 11 -91.5t35.5 -73.5t63.5 -49t96 -18q28 0 50.5 6.5t42 18.5t37 30
t35.5 41q-2 -9 -4 -20q-2 -10 -4 -24.5t-4 -31.5q-2 -16 -3 -27t-2 -19q-1 -9 -1 -16q-15 -9 -39 -15q-20 -5 -52 -9.5t-77 -4.5q-83 0 -140.5 23t-93.5 64t-52.5 96t-16.5 120q0 76 18 152t61 136.5t115 98.5t180 38q45 0 79 -5t57 -11q27 -7 47 -15zM574 918
q-45 -40 -84.5 -79.5t-78.5 -85.5h-23l-67 76q-7 8 -21 23t-24 23l73 52q5 -12 12 -24.5t14 -23.5l24 -41q32 37 77.5 60.5t97.5 19.5z" />
    <glyph glyph-name="ccaron" unicode="&#x10d;" horiz-adv-x="465" 
d="M475 775q-23 -20 -42 -37.5t-36.5 -35.5t-34.5 -37t-36 -42h-26l-57 63q-8 8 -22 23t-24 23l69 51q6 -12 13 -25t15 -24l21 -29q15 16 31 30t35 24t42 14.5t52 1.5zM462 550q-1 -7 -3 -16q-2 -8 -3.5 -19t-3.5 -26t-3.5 -29t-2.5 -25q-2 -13 -2 -24q-10 21 -19.5 39
t-23 31.5t-33.5 21.5t-51 8q-46 0 -77.5 -24t-50.5 -63t-27 -88t-8 -98q0 -26 2.5 -56.5t14 -56.5t35.5 -43t68 -17q36 0 62 9t43 20.5t25.5 22.5t10.5 16q0 -23 -9 -48t-29.5 -46.5t-54 -35.5t-83.5 -14q-63 0 -101.5 22t-60 55.5t-28.5 74t-7 76.5q0 14 1.5 46t10 72.5
t25 83.5t47 78.5t76 58.5t111.5 23q38 0 66.5 -5t46.5 -10q21 -6 36 -14z" />
    <glyph glyph-name="Dcaron" unicode="&#x10e;" horiz-adv-x="693" 
d="M538 918q-45 -40 -84.5 -79.5t-78.5 -85.5h-23l-67 76q-7 8 -21 23t-24 23l73 52q5 -12 12 -24.5t14 -23.5l24 -41q32 37 77.5 60.5t97.5 19.5zM650 412q0 -71 -11.5 -125t-30.5 -95t-42.5 -69.5t-46.5 -47.5t-44.5 -30t-35.5 -17q-43 -17 -94.5 -23.5t-116.5 -6.5
q-31 0 -66.5 1.5t-60.5 1.5q-18 0 -32.5 -0.5t-24.5 -0.5q-11 -1 -20 -1l11 17q6 10 11 18.5t9.5 22t9 35.5t10 57t12.5 87t17 127q4 28 8.5 67.5t9 78.5t7.5 72t3 49q0 23 -2.5 37.5t-8.5 28.5l-7 17q9 -1 20 -1q10 -1 24 -1h31q27 0 61 1.5t62 1.5q69 0 130 -11.5
t107.5 -44t73.5 -91.5t27 -155zM534 421q0 118 -50.5 173t-170.5 55q-14 0 -25.5 -0.5t-20.5 -1.5q-11 -1 -19 -1l-72 -574q17 -5 37 -6.5t40 -1.5q57 0 93.5 9.5t64.5 33.5q36 20 59.5 54t37.5 76t20 89.5t6 94.5z" />
    <glyph glyph-name="dcaron" unicode="&#x10f;" horiz-adv-x="579" 
d="M583 592q11 28 18 57t11 56.5t5 51t0 40.5l100 12q-2 -68 -34.5 -124t-99.5 -93zM569 787q-5 -24 -13 -79q-8 -47 -20 -133t-31 -227q-9 -68 -15.5 -114.5t-10 -77.5t-5.5 -47.5t-2 -24.5q0 -12 3 -20.5t16 -18.5l13 -10q-8 -13 -20 -23q-11 -8 -27 -15t-38 -7
q-20 0 -31.5 6.5t-17 15.5t-7 19t-1.5 17q0 16 2.5 37.5t6.5 41.5q4 23 10 46q-26 -65 -52.5 -101.5t-51.5 -55t-48.5 -23t-43.5 -4.5q-68 0 -105 47.5t-37 155.5q0 20 2.5 56t12 79t27 88t47.5 81.5t74.5 59.5t106.5 23q29 0 50.5 -5.5t35.5 -11.5q17 -8 28 -17
q2 17 4.5 37t4.5 39.5t3.5 37t1.5 29.5q0 19 -2 34t-10 28l-7 12zM419 486q-9 6 -21 11q-11 5 -27.5 8.5t-40.5 3.5q-54 0 -88.5 -31.5t-54 -78.5t-26.5 -101.5t-7 -100.5q0 -60 15.5 -93.5t61.5 -33.5q10 0 24.5 2.5t32.5 13.5t40 32.5t48 59.5z" />
    <glyph glyph-name="Dcroat" unicode="&#x110;" horiz-adv-x="715" 
d="M673 412q0 -71 -11.5 -125t-30.5 -95t-42.5 -69.5t-46.5 -47.5t-44.5 -30t-35.5 -17q-43 -17 -94.5 -23.5t-116.5 -6.5q-31 0 -67 1.5t-61 1.5q-18 0 -32.5 -0.5t-24.5 -0.5q-11 -1 -20 -1l11 17q6 9 10.5 17t8.5 20.5t8.5 31t9.5 48.5t11 74t14 107h-9q-27 0 -45 -2.5
t-29 -4.5q-13 -4 -20 -7q1 4 2 11q1 5 2 14t3 20t2.5 19t1.5 14q1 7 1 12q6 -4 18 -7q11 -3 28.5 -5t44.5 -2h9q4 30 8.5 67.5t8.5 74t6.5 67t2.5 45.5q0 23 -2.5 37.5t-8.5 28.5l-7 17q9 -1 20 -1q10 -1 24 -1h32q26 0 60 1.5t62 1.5q69 0 130.5 -11.5t108 -44t73.5 -91.5
t27 -155zM382 300q-7 3 -19 7q-11 2 -28.5 4.5t-43.5 2.5h-63l-30 -242q17 -5 37 -6.5t40 -1.5q57 0 93.5 9.5t64.5 33.5q36 20 59.5 54t37.5 76t20 89.5t6 94.5q0 118 -50.5 173t-170.5 55q-13 0 -24.5 -0.5t-20.5 -1.5q-11 -1 -20 -1l-34 -270h63q26 0 44.5 2t29.5 5
q13 3 20 7q-1 -5 -2 -12q-1 -6 -2.5 -14.5t-2.5 -18.5q-2 -11 -2 -19t-1 -14q-1 -7 -1 -12z" />
    <glyph glyph-name="dcroat" unicode="&#x111;" horiz-adv-x="579" 
d="M569 787q-1 -8 -3 -20q-2 -11 -5 -28t-7 -43q22 0 37.5 1.5t24.5 3.5q11 2 17 5q-1 -4 -2 -9t-2.5 -11.5t-2.5 -15.5q-2 -10 -3 -16.5t-1 -11.5q-1 -5 0 -9q-6 2 -16 5q-18 5 -59 6q-8 -50 -18 -120.5t-24 -175.5q-9 -68 -15.5 -114.5t-10 -77.5t-5.5 -47.5t-2 -24.5
q0 -12 3 -20.5t16 -18.5l13 -10q-8 -13 -20 -23q-11 -8 -27 -15t-38 -7q-20 0 -31.5 6.5t-17 15.5t-7 19t-1.5 17q0 16 2.5 37.5t6.5 41.5q4 23 10 46q-26 -65 -52.5 -101.5t-51.5 -55t-48.5 -23t-43.5 -4.5q-68 0 -105 47.5t-37 155.5q0 20 2.5 56t12 79t27 88t47.5 81.5
t74.5 59.5t106.5 23q29 0 50.5 -5.5t35.5 -11.5q17 -8 28 -17q2 22 5.5 48.5t5.5 50.5h-96q-26 0 -42.5 -2t-27.5 -4q-12 -3 -19 -5q0 4 2 9q1 5 2.5 11.5t3.5 16.5l3 36q6 -3 17 -5q10 -2 26 -3.5t41 -1.5h93q-1 16 -3 29.5t-9 24.5l-7 12zM419 486q-9 6 -21 11
q-11 5 -27.5 8.5t-40.5 3.5q-54 0 -88.5 -31.5t-54 -78.5t-26.5 -101.5t-7 -100.5q0 -60 15.5 -93.5t61.5 -33.5q10 0 24.5 2.5t32.5 13.5t40 32.5t48 59.5z" />
    <glyph glyph-name="Emacron" unicode="&#x112;" horiz-adv-x="534" 
d="M186 787l8 71h280l-8 -71h-280zM514 712q-1 -6 -3 -14q-3 -14 -6 -39q-2 -17 -2.5 -29.5t-1.5 -20.5q-1 -10 -1 -17l-8 10q-8 10 -24 21q-33 22 -101 22h-120l-32 -255h98q34 0 62 4t46 15q11 6 18 11t12 9t8 7q-1 -9 -4 -21q-2 -11 -5 -25.5t-5 -34.5q-3 -19 -4 -33.5
t-2 -24.5q-1 -11 -1 -20q-2 3 -6 7t-9.5 8.5t-15.5 11.5q-16 11 -42.5 15t-59.5 4h-98l-34 -256h113q44 0 71.5 5t46 15.5t31.5 26t30 36.5q-3 -11 -7 -28q-4 -14 -8.5 -37t-10.5 -55l-6 -30h-335q-20 0 -33.5 -0.5t-22.5 -0.5h-18l11 17q6 10 11 18.5t9.5 22t9 35.5t10 57
t12.5 87t17 127q4 28 8.5 67.5t9 78.5t7.5 72t3 49q0 23 -2.5 37.5t-8.5 28.5l-7 17q7 -1 18 -1h56h326z" />
    <glyph glyph-name="emacron" unicode="&#x113;" horiz-adv-x="516" 
d="M491 433q0 -57 -21 -94t-55 -58.5t-77.5 -30t-88.5 -8.5q-48 0 -72 3q-14 2 -24 4q-1 -5 -1 -10v-17q0 -30 6 -58.5t20.5 -50.5t39.5 -35t64 -13q42 0 71 9t48.5 20.5t29 23t12.5 17.5q0 -16 -7.5 -40.5t-29 -48t-59.5 -40.5t-98 -17q-26 0 -62 6t-68 28t-54.5 66
t-22.5 120q0 83 17.5 151.5t51.5 117t84.5 75t115.5 26.5q49 0 83.5 -11.5t56 -31.5t31 -46.5t9.5 -56.5zM383 433q0 15 -3.5 29.5t-13 26.5t-25 19.5t-39.5 7.5q-26 0 -49.5 -9.5t-42 -33t-32.5 -63.5t-21 -100q7 -1 18 -2q9 -1 24 -1.5t36 -0.5q78 0 113 32t35 95z
M183 657l8 70h280l-8 -70h-280z" />
    <glyph glyph-name="Ebreve" unicode="&#x114;" horiz-adv-x="534" 
d="M202 923q17 -35 45 -61t79 -26q50 0 88.5 22.5t70.5 64.5q-5 -36 -18 -66t-34 -52t-49 -34.5t-63 -12.5q-33 0 -57 12.5t-39 34.5t-21 52t-2 66zM514 712q-1 -6 -3 -14q-3 -14 -6 -39q-2 -17 -2.5 -29.5t-1.5 -20.5q-1 -10 -1 -17l-8 10q-8 10 -24 21q-33 22 -101 22
h-120l-32 -255h98q34 0 62 4t46 15q11 6 18 11t12 9t8 7q-1 -9 -4 -21q-2 -11 -5 -25.5t-5 -34.5q-3 -19 -4 -33.5t-2 -24.5q-1 -11 -1 -20q-2 3 -6 7t-9.5 8.5t-15.5 11.5q-16 11 -42.5 15t-59.5 4h-98l-34 -256h113q44 0 71.5 5t46 15.5t31.5 26t30 36.5q-3 -11 -7 -28
q-4 -14 -8.5 -37t-10.5 -55l-6 -30h-335q-20 0 -33.5 -0.5t-22.5 -0.5h-18l11 17q6 10 11 18.5t9.5 22t9 35.5t10 57t12.5 87t17 127q4 28 8.5 67.5t9 78.5t7.5 72t3 49q0 23 -2.5 37.5t-8.5 28.5l-7 17q7 -1 18 -1h56h326z" />
    <glyph glyph-name="ebreve" unicode="&#x115;" horiz-adv-x="516" 
d="M491 433q0 -57 -21 -94t-55 -58.5t-77.5 -30t-88.5 -8.5q-48 0 -72 3q-14 2 -24 4q-1 -5 -1 -10v-17q0 -30 6 -58.5t20.5 -50.5t39.5 -35t64 -13q42 0 71 9t48.5 20.5t29 23t12.5 17.5q0 -16 -7.5 -40.5t-29 -48t-59.5 -40.5t-98 -17q-26 0 -62 6t-68 28t-54.5 66
t-22.5 120q0 83 17.5 151.5t51.5 117t84.5 75t115.5 26.5q49 0 83.5 -11.5t56 -31.5t31 -46.5t9.5 -56.5zM383 433q0 15 -3.5 29.5t-13 26.5t-25 19.5t-39.5 7.5q-26 0 -49.5 -9.5t-42 -33t-32.5 -63.5t-21 -100q7 -1 18 -2q9 -1 24 -1.5t36 -0.5q78 0 113 32t35 95z
M198 793q17 -35 45 -61t79 -26q50 0 88.5 22.5t70.5 64.5q-5 -36 -18 -66t-34 -52t-49 -34.5t-63 -12.5q-33 0 -57 12.5t-39 34.5t-21 52t-2 66z" />
    <glyph glyph-name="Edotaccent" unicode="&#x116;" horiz-adv-x="534" 
d="M400 831q0 -29 -17.5 -47t-52.5 -18q-20 0 -32.5 5.5t-20 14t-10.5 18.5t-3 19q0 29 17.5 47t51.5 18q20 0 33 -5.5t20.5 -14t10.5 -18.5t3 -19zM514 712q-1 -6 -3 -14q-3 -14 -6 -39q-2 -17 -2.5 -29.5t-1.5 -20.5q-1 -10 -1 -17l-8 10q-8 10 -24 21q-33 22 -101 22
h-120l-32 -255h98q34 0 62 4t46 15q11 6 18 11t12 9t8 7q-1 -9 -4 -21q-2 -11 -5 -25.5t-5 -34.5q-3 -19 -4 -33.5t-2 -24.5q-1 -11 -1 -20q-2 3 -6 7t-9.5 8.5t-15.5 11.5q-16 11 -42.5 15t-59.5 4h-98l-34 -256h113q44 0 71.5 5t46 15.5t31.5 26t30 36.5q-3 -11 -7 -28
q-4 -14 -8.5 -37t-10.5 -55l-6 -30h-335q-20 0 -33.5 -0.5t-22.5 -0.5h-18l11 17q6 10 11 18.5t9.5 22t9 35.5t10 57t12.5 87t17 127q4 28 8.5 67.5t9 78.5t7.5 72t3 49q0 23 -2.5 37.5t-8.5 28.5l-7 17q7 -1 18 -1h56h326z" />
    <glyph glyph-name="edotaccent" unicode="&#x117;" horiz-adv-x="516" 
d="M491 433q0 -57 -21 -94t-55 -58.5t-77.5 -30t-88.5 -8.5q-48 0 -72 3q-14 2 -24 4q-1 -5 -1 -10v-17q0 -30 6 -58.5t20.5 -50.5t39.5 -35t64 -13q42 0 71 9t48.5 20.5t29 23t12.5 17.5q0 -16 -7.5 -40.5t-29 -48t-59.5 -40.5t-98 -17q-26 0 -62 6t-68 28t-54.5 66
t-22.5 120q0 83 17.5 151.5t51.5 117t84.5 75t115.5 26.5q49 0 83.5 -11.5t56 -31.5t31 -46.5t9.5 -56.5zM383 433q0 15 -3.5 29.5t-13 26.5t-25 19.5t-39.5 7.5q-26 0 -49.5 -9.5t-42 -33t-32.5 -63.5t-21 -100q7 -1 18 -2q9 -1 24 -1.5t36 -0.5q78 0 113 32t35 95z
M400 722q0 -29 -17.5 -47t-52.5 -18q-20 0 -32.5 5.5t-20 14t-10.5 18.5t-3 19q0 29 17.5 47t51.5 18q20 0 33 -5.5t20.5 -14t10.5 -18.5t3 -19z" />
    <glyph glyph-name="Eogonek" unicode="&#x118;" horiz-adv-x="534" 
d="M240 -138q0 27 11 48t28.5 37.5t39.5 29.5t45 23h-266q-20 0 -33.5 -0.5t-22.5 -0.5h-18l11 17q6 10 11 18.5t9.5 22t9 35.5t10 57t12.5 87t17 127q4 28 8.5 67.5t9 78.5t7.5 72t3 49q0 23 -2.5 37.5t-8.5 28.5l-7 17q7 -1 18 -1h56h326q-1 -6 -3 -14q-3 -14 -6 -39
q-4 -33 -4.5 -49.5t-0.5 -17.5q-1 1 -9 10.5t-23 20.5q-33 22 -101 22h-120l-32 -255h98q34 0 62 4t46 15q11 6 18 11t12 9t8 7q-1 -9 -4 -21q-2 -11 -5 -25.5t-5 -34.5q-5 -37 -6 -57t-1 -21q-1 1 -6.5 7.5t-24.5 19.5q-16 11 -42.5 15t-59.5 4h-98l-34 -256h113
q44 0 71.5 5t46 15.5t31.5 26t30 36.5q-3 -11 -7 -28q-4 -14 -8.5 -37t-10.5 -55l-6 -30q-39 -19 -68.5 -50t-29.5 -75q0 -54 77 -66q-19 -10 -42 -15.5t-43 -5.5q-36 0 -61.5 19.5t-25.5 54.5z" />
    <glyph glyph-name="eogonek" unicode="&#x119;" horiz-adv-x="516" 
d="M160 -138q0 46 30.5 76.5t70.5 50.5h-12q-26 0 -62 6t-68 28t-54.5 66t-22.5 120q0 83 17.5 151.5t51.5 117t84.5 75t115.5 26.5q49 0 83.5 -11.5t56 -31.5t31 -46.5t9.5 -56.5q0 -57 -21 -94t-55 -58.5t-77.5 -30t-88.5 -8.5q-48 0 -72 3q-14 2 -24 4q-1 -5 -1 -10v-17
q0 -30 6 -58.5t20.5 -50.5t39.5 -35t64 -13q42 0 71 9t48.5 20.5t29 23t12.5 17.5q0 -12 -4.5 -29t-15 -35t-28.5 -36t-45 -32q-15 -8 -31.5 -20t-31 -28t-23.5 -36t-9 -44q0 -54 77 -66q-19 -10 -42 -15.5t-43 -5.5q-36 0 -61.5 19.5t-25.5 54.5zM383 433q0 15 -3.5 29.5
t-13 26.5t-25 19.5t-39.5 7.5q-26 0 -49.5 -9.5t-42 -33t-32.5 -63.5t-21 -100q7 -1 18 -2q9 -1 24 -1.5t36 -0.5q78 0 113 32t35 95z" />
    <glyph glyph-name="Ecaron" unicode="&#x11a;" horiz-adv-x="534" 
d="M505 918q-45 -40 -84.5 -79.5t-78.5 -85.5h-23l-67 76q-7 8 -21 23t-24 23l73 52q5 -12 12 -24.5t14 -23.5l24 -41q32 37 77.5 60.5t97.5 19.5zM514 712q-1 -6 -3 -14q-3 -14 -6 -39q-2 -17 -2.5 -29.5t-1.5 -20.5q-1 -10 -1 -17l-8 10q-8 10 -24 21q-33 22 -101 22h-120
l-32 -255h98q34 0 62 4t46 15q11 6 18 11t12 9t8 7q-1 -9 -4 -21q-2 -11 -5 -25.5t-5 -34.5q-3 -19 -4 -33.5t-2 -24.5q-1 -11 -1 -20q-2 3 -6 7t-9.5 8.5t-15.5 11.5q-16 11 -42.5 15t-59.5 4h-98l-34 -256h113q44 0 71.5 5t46 15.5t31.5 26t30 36.5q-3 -11 -7 -28
q-4 -14 -8.5 -37t-10.5 -55l-6 -30h-335q-20 0 -33.5 -0.5t-22.5 -0.5h-18l11 17q6 10 11 18.5t9.5 22t9 35.5t10 57t12.5 87t17 127q4 28 8.5 67.5t9 78.5t7.5 72t3 49q0 23 -2.5 37.5t-8.5 28.5l-7 17q7 -1 18 -1h56h326z" />
    <glyph glyph-name="ecaron" unicode="&#x11b;" horiz-adv-x="516" 
d="M485 775q-23 -20 -42 -37.5t-36.5 -35.5t-34.5 -37t-36 -42h-26l-57 63q-8 8 -22 23t-24 23l69 51q6 -12 13 -25t15 -24l21 -29q15 16 31 30t35 24t42 14.5t52 1.5zM491 433q0 -57 -21 -94t-55 -58.5t-77.5 -30t-88.5 -8.5q-48 0 -72 3q-14 2 -24 4q-1 -5 -1 -10v-17
q0 -30 6 -58.5t20.5 -50.5t39.5 -35t64 -13q42 0 71 9t48.5 20.5t29 23t12.5 17.5q0 -16 -7.5 -40.5t-29 -48t-59.5 -40.5t-98 -17q-26 0 -62 6t-68 28t-54.5 66t-22.5 120q0 83 17.5 151.5t51.5 117t84.5 75t115.5 26.5q49 0 83.5 -11.5t56 -31.5t31 -46.5t9.5 -56.5z
M383 433q0 15 -3.5 29.5t-13 26.5t-25 19.5t-39.5 7.5q-26 0 -49.5 -9.5t-42 -33t-32.5 -63.5t-21 -100q7 -1 18 -2q9 -1 24 -1.5t36 -0.5q78 0 113 32t35 95z" />
    <glyph glyph-name="Gcircumflex" unicode="&#x11c;" 
d="M630 690q-1 -6 -3 -16q-2 -8 -3.5 -21t-3.5 -30q-5 -34 -6 -52q-1 -11 -2 -20q-12 23 -24.5 41t-32 31t-48.5 19.5t-73 6.5q-39 0 -86.5 -13t-88.5 -51.5t-68.5 -107t-27.5 -179.5q0 -48 9.5 -90.5t33.5 -74.5t64.5 -51t101.5 -19q37 0 54 3q10 1 16 3q1 6 4 28.5
t6.5 50.5t6.5 56.5t3 46.5t-2.5 34t-7.5 29l-7 17q8 -1 19 -1q10 -1 25 -1h37h38.5t27.5 1q12 0 21 1l-11 -17q-10 -16 -17 -32.5t-13 -44t-12 -71t-15 -112.5l-4 -27q-20 -10 -46 -17q-23 -7 -57 -12t-80 -5q-155 0 -234 80.5t-79 222.5q0 38 5 84t20 93.5t41.5 92t69.5 79
t105 55.5t148 21q53 0 89.5 -5t60.5 -11q27 -7 46 -15zM568 753q-48 2 -89 22.5t-64 52.5q-39 -38 -89.5 -56t-92.5 -19l155 152h67z" />
    <glyph glyph-name="gcircumflex" unicode="&#x11d;" horiz-adv-x="576" 
d="M491 623q-48 2 -89 21.5t-64 53.5q-39 -38 -89.5 -56t-92.5 -19l156 152h66zM544 580q-5 -24 -12 -64q-6 -34 -14 -88t-18 -132l-32 -244q-3 -29 -7.5 -58t-12 -55.5t-20.5 -50.5t-34 -43q-35 -32 -84.5 -45t-107.5 -13q-45 0 -79 3t-57 7q-27 4 -48 11q1 7 4 16
q2 8 4.5 19t4.5 26q4 32 6 55q1 12 1 22q13 -25 25.5 -42.5t29 -28t39.5 -15.5t57 -5q48 0 79 11t49 32t27 51t14 68l4 30q3 23 6.5 46t7.5 41q4 21 8 40q-27 -66 -54 -102.5t-52.5 -54.5t-48.5 -21.5t-41 -3.5q-69 0 -106 47t-37 153q0 20 2.5 56t12 79t27 88t47.5 81.5
t74 59.5t106 23q35 0 59.5 -7.5t40.5 -15.5q18 -11 31 -23zM420 486q-8 6 -20 11q-11 5 -28 8.5t-41 3.5q-54 0 -88 -31.5t-53 -78.5t-26 -101.5t-7 -100.5q0 -60 15.5 -93.5t61.5 -33.5q10 0 24.5 2.5t32.5 13.5t40 32.5t48 59.5z" />
    <glyph glyph-name="Gbreve" unicode="&#x11e;" 
d="M298 923q17 -35 45 -61t79 -26q50 0 88.5 22.5t70.5 64.5q-5 -36 -18 -66t-34 -52t-49 -34.5t-63 -12.5q-33 0 -57 12.5t-39 34.5t-21 52t-2 66zM630 690q-1 -6 -3 -16q-2 -8 -3.5 -21t-3.5 -30q-5 -34 -6 -52q-1 -11 -2 -20q-12 23 -24.5 41t-32 31t-48.5 19.5t-73 6.5
q-39 0 -86.5 -13t-88.5 -51.5t-68.5 -107t-27.5 -179.5q0 -48 9.5 -90.5t33.5 -74.5t64.5 -51t101.5 -19q37 0 54 3q10 1 16 3q1 6 4 28.5t6.5 50.5t6.5 56.5t3 46.5t-2.5 34t-7.5 29l-7 17q8 -1 19 -1q10 -1 25 -1h37h38.5t27.5 1q12 0 21 1l-11 -17q-10 -16 -17 -32.5
t-13 -44t-12 -71t-15 -112.5l-4 -27q-20 -10 -46 -17q-23 -7 -57 -12t-80 -5q-155 0 -234 80.5t-79 222.5q0 38 5 84t20 93.5t41.5 92t69.5 79t105 55.5t148 21q53 0 89.5 -5t60.5 -11q27 -7 46 -15z" />
    <glyph glyph-name="gbreve" unicode="&#x11f;" horiz-adv-x="576" 
d="M544 580q-5 -24 -12 -64q-6 -34 -14 -88t-18 -132l-32 -244q-3 -29 -7.5 -58t-12 -55.5t-20.5 -50.5t-34 -43q-35 -32 -84.5 -45t-107.5 -13q-45 0 -79 3t-57 7q-27 4 -48 11q1 7 4 16q2 8 4.5 19t4.5 26q4 32 6 55q1 12 1 22q13 -25 25.5 -42.5t29 -28t39.5 -15.5t57 -5
q48 0 79 11t49 32t27 51t14 68l4 30q3 23 6.5 46t7.5 41q4 21 8 40q-27 -66 -54 -102.5t-52.5 -54.5t-48.5 -21.5t-41 -3.5q-69 0 -106 47t-37 153q0 20 2.5 56t12 79t27 88t47.5 81.5t74 59.5t106 23q35 0 59.5 -7.5t40.5 -15.5q18 -11 31 -23zM420 486q-8 6 -20 11
q-11 5 -28 8.5t-41 3.5q-54 0 -88 -31.5t-53 -78.5t-26 -101.5t-7 -100.5q0 -60 15.5 -93.5t61.5 -33.5q10 0 24.5 2.5t32.5 13.5t40 32.5t48 59.5zM216 793q17 -35 45 -61t79 -26q50 0 88.5 22.5t70.5 64.5q-5 -36 -18 -66t-34 -52t-49 -34.5t-63 -12.5q-33 0 -57 12.5
t-39 34.5t-21 52t-2 66z" />
    <glyph glyph-name="Gdotaccent" unicode="&#x120;" 
d="M483 831q0 -29 -17.5 -47t-52.5 -18q-20 0 -32.5 5.5t-20 14t-10.5 18.5t-3 19q0 29 17.5 47t51.5 18q20 0 33 -5.5t20.5 -14t10.5 -18.5t3 -19zM630 690q-1 -6 -3 -16q-2 -8 -3.5 -21t-3.5 -30q-5 -34 -6 -52q-1 -11 -2 -20q-12 23 -24.5 41t-32 31t-48.5 19.5t-73 6.5
q-39 0 -86.5 -13t-88.5 -51.5t-68.5 -107t-27.5 -179.5q0 -48 9.5 -90.5t33.5 -74.5t64.5 -51t101.5 -19q37 0 54 3q10 1 16 3q1 6 4 28.5t6.5 50.5t6.5 56.5t3 46.5t-2.5 34t-7.5 29l-7 17q8 -1 19 -1q10 -1 25 -1h37h38.5t27.5 1q12 0 21 1l-11 -17q-10 -16 -17 -32.5
t-13 -44t-12 -71t-15 -112.5l-4 -27q-20 -10 -46 -17q-23 -7 -57 -12t-80 -5q-155 0 -234 80.5t-79 222.5q0 38 5 84t20 93.5t41.5 92t69.5 79t105 55.5t148 21q53 0 89.5 -5t60.5 -11q27 -7 46 -15z" />
    <glyph glyph-name="gdotaccent" unicode="&#x121;" horiz-adv-x="576" 
d="M544 580q-5 -24 -12 -64q-6 -34 -14 -88t-18 -132l-32 -244q-3 -29 -7.5 -58t-12 -55.5t-20.5 -50.5t-34 -43q-35 -32 -84.5 -45t-107.5 -13q-45 0 -79 3t-57 7q-27 4 -48 11q1 7 4 16q2 8 4.5 19t4.5 26q4 32 6 55q1 12 1 22q13 -25 25.5 -42.5t29 -28t39.5 -15.5t57 -5
q48 0 79 11t49 32t27 51t14 68l4 30q3 23 6.5 46t7.5 41q4 21 8 40q-27 -66 -54 -102.5t-52.5 -54.5t-48.5 -21.5t-41 -3.5q-69 0 -106 47t-37 153q0 20 2.5 56t12 79t27 88t47.5 81.5t74 59.5t106 23q35 0 59.5 -7.5t40.5 -15.5q18 -11 31 -23zM420 486q-8 6 -20 11
q-11 5 -28 8.5t-41 3.5q-54 0 -88 -31.5t-53 -78.5t-26 -101.5t-7 -100.5q0 -60 15.5 -93.5t61.5 -33.5q10 0 24.5 2.5t32.5 13.5t40 32.5t48 59.5zM401 722q0 -29 -17.5 -47t-52.5 -18q-20 0 -32.5 5.5t-20 14t-10.5 18.5t-3 19q0 29 17.5 47t51.5 18q20 0 33 -5.5
t20.5 -14t10.5 -18.5t3 -19z" />
    <glyph glyph-name="Gcommaaccent" unicode="&#x122;" 
d="M369 -99q0 -26 -10.5 -47.5t-29.5 -38t-44 -27.5t-53 -16q14 10 25 23q10 11 18 26t8 33q0 13 -5 20.5t-10 11.5q-7 4 -15 6l2 16q3 23 19 38t40 20q22 -5 38.5 -19t16.5 -46zM630 690q-1 -6 -3 -16q-2 -8 -3.5 -21t-3.5 -30q-5 -34 -6 -52q-1 -11 -2 -20
q-12 23 -24.5 41t-32 31t-48.5 19.5t-73 6.5q-39 0 -86.5 -13t-88.5 -51.5t-68.5 -107t-27.5 -179.5q0 -48 9.5 -90.5t33.5 -74.5t64.5 -51t101.5 -19q37 0 54 3q10 1 16 3q1 6 4 28.5t6.5 50.5t6.5 56.5t3 46.5t-2.5 34t-7.5 29l-7 17q8 -1 19 -1q10 -1 25 -1h37h38.5
t27.5 1q12 0 21 1l-11 -17q-10 -16 -17 -32.5t-13 -44t-12 -71t-15 -112.5l-4 -27q-20 -10 -46 -17q-23 -7 -57 -12t-80 -5q-155 0 -234 80.5t-79 222.5q0 38 5 84t20 93.5t41.5 92t69.5 79t105 55.5t148 21q53 0 89.5 -5t60.5 -11q27 -7 46 -15z" />
    <glyph glyph-name="gcommaaccent" unicode="&#x123;" horiz-adv-x="576" 
d="M269 682q0 27 12 49.5t32 39t45 27.5t52 16q-1 0 -9.5 -6.5t-19 -17t-19 -25t-8.5 -32.5q0 -14 4.5 -21.5t10.5 -11.5q7 -4 16 -6l-2 -15q-3 -23 -19 -38t-40 -20q-23 5 -39 18.5t-16 42.5zM544 580q-5 -24 -12 -64q-6 -34 -14 -88t-18 -132l-32 -244q-3 -29 -7.5 -58
t-12 -55.5t-20.5 -50.5t-34 -43q-35 -32 -84.5 -45t-107.5 -13q-45 0 -79 3t-57 7q-27 4 -48 11q1 7 4 16q2 8 4.5 19t4.5 26q4 32 6 55q1 12 1 22q13 -25 25.5 -42.5t29 -28t39.5 -15.5t57 -5q48 0 79 11t49 32t27 51t14 68l4 30q3 23 6.5 46t7.5 41q4 21 8 40
q-27 -66 -54 -102.5t-52.5 -54.5t-48.5 -21.5t-41 -3.5q-69 0 -106 47t-37 153q0 20 2.5 56t12 79t27 88t47.5 81.5t74 59.5t106 23q35 0 59.5 -7.5t40.5 -15.5q18 -11 31 -23zM420 486q-8 6 -20 11q-11 5 -28 8.5t-41 3.5q-54 0 -88 -31.5t-53 -78.5t-26 -101.5t-7 -100.5
q0 -60 15.5 -93.5t61.5 -33.5q10 0 24.5 2.5t32.5 13.5t40 32.5t48 59.5z" />
    <glyph glyph-name="Hcircumflex" unicode="&#x124;" horiz-adv-x="706" 
d="M685 696q-6 -10 -11 -18.5t-9.5 -22t-9 -35.5t-10 -57t-13 -87t-16.5 -127q-4 -29 -8.5 -68l-9 -78t-7.5 -72t-3 -49q0 -23 2.5 -37.5t8.5 -28.5l7 -17q-7 0 -19 1q-11 0 -27.5 0.5t-40.5 0.5t-40.5 -0.5t-27.5 -0.5q-12 -1 -20 -1l11 17q9 14 15.5 27.5t13.5 43.5t15 86
t21 155h-301q-4 -29 -8.5 -65.5t-8 -71.5t-6 -64.5t-2.5 -44.5q0 -23 2.5 -37.5t8.5 -28.5l7 -17q-8 0 -20 1q-11 0 -27 0.5t-40 0.5t-40.5 -0.5t-27.5 -0.5q-12 -1 -20 -1l11 17q6 10 11 18.5t9.5 22t9 35.5t10 57t12.5 87t17 127q4 28 8.5 67.5t9 78.5t7.5 72t3 49
q0 23 -2.5 37.5t-8.5 28.5l-7 17q7 -1 19 -1q10 -1 26.5 -1h40.5h40.5t27.5 1q12 0 21 1l-11 -17q-9 -14 -15.5 -27t-13 -41t-14 -80t-19.5 -143h300q4 30 8 63.5t7.5 65t5.5 57t2 39.5q0 23 -2.5 37.5t-8.5 28.5l-7 17q7 -1 19 -1q10 -1 26.5 -1h40.5h40.5t27.5 1
q12 0 21 1zM570 753q-48 2 -89 22.5t-64 52.5q-39 -38 -89.5 -56t-92.5 -19l155 152h67z" />
    <glyph glyph-name="hcircumflex" unicode="&#x125;" horiz-adv-x="592" 
d="M530 462q0 -16 -3.5 -46.5t-8.5 -68t-11.5 -78.5t-11.5 -77.5t-8.5 -65.5t-3.5 -42q0 -12 3 -20.5t16 -18.5l13 -10q-9 -13 -21 -23q-11 -8 -27 -15t-39 -7q-21 0 -32.5 6.5t-17 15.5t-7 19t-1.5 17q0 13 3.5 41.5t9 65t12 78t12 80t9 71t3.5 51.5q0 7 -1 18t-7 20.5
t-18 16.5t-34 7q-41 0 -76 -25.5t-75 -82.5l-17 -120q-11 -80 -17 -132t-10 -83q-4 -36 -6 -55q-7 0 -15 1q-8 0 -17.5 0.5t-22.5 0.5q-12 0 -23 -0.5t-19 -0.5q-10 -1 -17 -1q4 22 11 65q6 37 15.5 100.5t23.5 163.5q9 64 17 122.5t14.5 105.5t10 81t3.5 51q0 19 -2 34
t-10 28l-7 12l146 25q-5 -26 -10 -61q-5 -30 -11.5 -74.5t-14.5 -103.5l-3 -22q-4 -26 -7.5 -50t-7.5 -42q-4 -21 -8 -39q27 64 55.5 101t56 55.5t52 23t44.5 4.5q43 0 66.5 -13t35 -32t14 -39t2.5 -33zM366 813q-48 2 -89 22.5t-64 52.5q-39 -38 -89.5 -56t-92.5 -19
l155 152h67z" />
    <glyph glyph-name="Hbar" unicode="&#x126;" horiz-adv-x="738" 
d="M700 696q-6 -9 -10.5 -17t-8.5 -19.5t-8.5 -29t-8.5 -44.5q25 0 42 2t28 4q12 3 20 7q-2 -5 -3 -12q-2 -6 -2.5 -14t-2.5 -19t-2 -19.5t-1 -13.5q-1 -7 -1 -11q-7 3 -18 6q-10 2 -27 4t-43 3q-5 -33 -10.5 -75.5t-12.5 -98.5q-4 -29 -8.5 -68l-9 -78t-7.5 -72t-3 -49
q0 -23 2.5 -37.5t8.5 -28.5l7 -17q-7 0 -19 1q-11 0 -27.5 0.5t-40.5 0.5t-40.5 -0.5t-27.5 -0.5q-12 -1 -20 -1l11 17q9 14 15.5 27.5t13.5 43.5t15 86t21 155h-301q-4 -29 -8.5 -65.5t-8 -71.5t-6 -64.5t-2.5 -44.5q0 -23 2.5 -37.5t8.5 -28.5l7 -17q-8 0 -20 1
q-11 0 -27 0.5t-40 0.5t-40.5 -0.5t-27.5 -0.5q-12 -1 -20 -1l11 17q6 10 11 18.5t9.5 22t9 35.5t10 57t12.5 87t17 127q4 31 9 74.5t10 85.5q-25 -1 -41.5 -3t-27.5 -4q-12 -3 -19 -6q1 5 2 11q1 5 2 13.5t3 19.5t2 19t1 14q0 7 1 12q6 -3 17 -6q10 -2 26 -4.5t40 -2.5
q3 27 3 44q0 23 -2.5 37.5t-8.5 28.5l-7 17q7 -1 19 -1q10 -1 26.5 -1h40.5h40.5t27.5 1q12 0 21 1l-11 -17q-6 -9 -10.5 -17t-9 -19.5t-8.5 -29t-9 -44.5h295q3 27 3 44q0 23 -2.5 37.5t-8.5 28.5l-7 17q7 -1 19 -1q10 -1 26.5 -1h40.5h40.5t27.5 1q12 0 21 1zM545 523
h-299l-15 -118h300z" />
    <glyph glyph-name="hbar" unicode="&#x127;" horiz-adv-x="592" 
d="M530 462q0 -16 -3.5 -46.5t-8.5 -68t-11.5 -78.5t-11.5 -77.5t-8.5 -65.5t-3.5 -42q0 -12 3 -20.5t16 -18.5l13 -10q-9 -13 -21 -23q-11 -8 -27 -15t-39 -7q-21 0 -32.5 6.5t-17 15.5t-7 19t-1.5 17q0 13 3.5 41.5t9 65t12 78t12 80t9 71t3.5 51.5q0 7 -1 18t-7 20.5
t-18 16.5t-34 7q-41 0 -76 -25.5t-75 -82.5l-17 -120q-11 -80 -17 -132t-10 -83q-4 -36 -6 -55q-7 0 -15 1q-8 0 -17.5 0.5t-22.5 0.5q-12 0 -23 -0.5t-19 -0.5q-10 -1 -17 -1q4 22 11 65q6 37 15.5 100.5t23.5 163.5q14 101 25.5 183.5t16.5 132.5q-45 -2 -63 -6
q-11 -3 -17 -5q0 4 2 9q1 5 2.5 11.5t3.5 16.5q1 9 1.5 15.5t0.5 11.5v9q5 -3 15 -5q8 -2 22 -3.5t36 -1.5q-1 16 -3 29.5t-9 24.5l-7 12l146 25q-1 -11 -4 -24q-2 -12 -5 -28.5t-6 -38.5h70q25 0 41.5 1.5t27.5 3.5q12 2 19 5q-1 -4 -2 -9t-2 -11.5t-3 -15.5q-3 -20 -3 -28
v-9q-6 2 -17 5q-10 2 -26 4t-41 2h-72l-13 -96l-3 -22q-4 -26 -7.5 -50t-7.5 -42q-4 -21 -8 -39q27 64 55.5 101t56 55.5t52 23t44.5 4.5q43 0 66.5 -13t35 -32t14 -39t2.5 -33z" />
    <glyph glyph-name="Itilde" unicode="&#x128;" horiz-adv-x="299" 
d="M278 696q-6 -10 -11 -18.5t-9.5 -22t-9 -35.5t-10 -57t-13 -87t-16.5 -127q-4 -29 -8.5 -68l-9 -78t-7.5 -72t-3 -49q0 -23 2.5 -37.5t8.5 -28.5l7 -17q-8 0 -20 1q-11 0 -27 0.5t-40 0.5t-40.5 -0.5t-27.5 -0.5q-12 -1 -20 -1l11 17q6 10 11 18.5t9.5 22t9 35.5t10 57
t12.5 87t17 127q4 28 8.5 67.5t9 78.5t7.5 72t3 49q0 23 -2.5 37.5t-8.5 28.5l-7 17q7 -1 19 -1q10 -1 26.5 -1h40.5h40.5t27.5 1q12 0 21 1zM385 892q-7 -56 -33.5 -87.5t-68.5 -31.5q-15 0 -28 3t-23 7l-57 21q-12 5 -20 6.5t-21 1.5q-17 0 -30.5 -7.5t-24.5 -16.5
q-12 -11 -23 -24q7 55 33.5 87t69.5 32q15 0 27 -3t22 -7l58 -21q12 -5 20 -6.5t21 -1.5q16 0 30 7.5t25 16.5q12 11 23 24z" />
    <glyph glyph-name="itilde" unicode="&#x129;" horiz-adv-x="282" 
d="M235 575q-5 -27 -10 -67q-5 -34 -12 -85t-16 -120q-5 -35 -10 -71t-8.5 -66t-6 -52t-2.5 -30q0 -12 3 -20.5t15 -18.5l13 -10q-9 -13 -21 -23q-11 -8 -26.5 -15t-38.5 -7q-21 0 -32.5 6.5t-17.5 15.5t-7.5 19t-1.5 17q0 14 4 44.5t10 70.5t13.5 85t13.5 88t10 80t4 60
q0 20 -2 35t-10 27l-7 12zM359 761q-7 -55 -33.5 -87t-68.5 -32q-15 0 -28 3t-23 7l-57 21q-12 5 -20 6.5t-21 1.5q-17 0 -30.5 -7.5t-24.5 -16.5q-12 -11 -23 -24q7 55 33.5 87t69.5 32q15 0 27 -3t22 -7l58 -21q12 -5 20 -6.5t21 -1.5q16 0 30 7.5t25 16.5q12 11 23 24z
" />
    <glyph glyph-name="Imacron" unicode="&#x12a;" horiz-adv-x="299" 
d="M278 696q-6 -10 -11 -18.5t-9.5 -22t-9 -35.5t-10 -57t-13 -87t-16.5 -127q-4 -29 -8.5 -68l-9 -78t-7.5 -72t-3 -49q0 -23 2.5 -37.5t8.5 -28.5l7 -17q-8 0 -20 1q-11 0 -27 0.5t-40 0.5t-40.5 -0.5t-27.5 -0.5q-12 -1 -20 -1l11 17q6 10 11 18.5t9.5 22t9 35.5t10 57
t12.5 87t17 127q4 28 8.5 67.5t9 78.5t7.5 72t3 49q0 23 -2.5 37.5t-8.5 28.5l-7 17q7 -1 19 -1q10 -1 26.5 -1h40.5h40.5t27.5 1q12 0 21 1zM72 787l8 71h280l-8 -71h-280z" />
    <glyph glyph-name="imacron" unicode="&#x12b;" horiz-adv-x="282" 
d="M235 575q-5 -27 -10 -67q-5 -34 -12 -85t-16 -120q-5 -35 -10 -71t-8.5 -66t-6 -52t-2.5 -30q0 -12 3 -20.5t15 -18.5l13 -10q-9 -13 -21 -23q-11 -8 -26.5 -15t-38.5 -7q-21 0 -32.5 6.5t-17.5 15.5t-7.5 19t-1.5 17q0 14 4 44.5t10 70.5t13.5 85t13.5 88t10 80t4 60
q0 20 -2 35t-10 27l-7 12zM48 657l8 70h280l-8 -70h-280z" />
    <glyph glyph-name="Ibreve" unicode="&#x12c;" horiz-adv-x="299" 
d="M278 696q-6 -10 -11 -18.5t-9.5 -22t-9 -35.5t-10 -57t-13 -87t-16.5 -127q-4 -29 -8.5 -68l-9 -78t-7.5 -72t-3 -49q0 -23 2.5 -37.5t8.5 -28.5l7 -17q-8 0 -20 1q-11 0 -27 0.5t-40 0.5t-40.5 -0.5t-27.5 -0.5q-12 -1 -20 -1l11 17q6 10 11 18.5t9.5 22t9 35.5t10 57
t12.5 87t17 127q4 28 8.5 67.5t9 78.5t7.5 72t3 49q0 23 -2.5 37.5t-8.5 28.5l-7 17q7 -1 19 -1q10 -1 26.5 -1h40.5h40.5t27.5 1q12 0 21 1zM88 923q17 -35 45 -61t79 -26q50 0 88.5 22.5t70.5 64.5q-5 -36 -18 -66t-34 -52t-49 -34.5t-63 -12.5q-33 0 -57 12.5t-39 34.5
t-21 52t-2 66z" />
    <glyph glyph-name="ibreve" unicode="&#x12d;" horiz-adv-x="282" 
d="M235 575q-5 -27 -10 -67q-5 -34 -12 -85t-16 -120q-5 -35 -10 -71t-8.5 -66t-6 -52t-2.5 -30q0 -12 3 -20.5t15 -18.5l13 -10q-9 -13 -21 -23q-11 -8 -26.5 -15t-38.5 -7q-21 0 -32.5 6.5t-17.5 15.5t-7.5 19t-1.5 17q0 14 4 44.5t10 70.5t13.5 85t13.5 88t10 80t4 60
q0 20 -2 35t-10 27l-7 12zM60 793q17 -35 45 -61t79 -26q50 0 88.5 22.5t70.5 64.5q-5 -36 -18 -66t-34 -52t-49 -34.5t-63 -12.5q-33 0 -57 12.5t-39 34.5t-21 52t-2 66z" />
    <glyph glyph-name="Iogonek" unicode="&#x12e;" horiz-adv-x="299" 
d="M-11 -138q0 27 11 48.5t29 38t40.5 29.5t45.5 23h-3q-24 0 -40.5 -0.5t-27.5 -0.5q-12 -1 -20 -1l11 17q6 10 11 18.5t9.5 22t9 35.5t10 57t12.5 87t17 127q4 28 8.5 67.5t9 78.5t7.5 72t3 49q0 23 -2.5 37.5t-8.5 28.5l-7 17q7 -1 19 -1q10 -1 26.5 -1h40.5h40.5t27.5 1
q12 0 21 1l-11 -17q-6 -10 -11 -18.5t-9.5 -22t-9 -35.5t-10 -57t-13 -87t-16.5 -127q-4 -29 -8.5 -68l-9 -78t-7.5 -72t-3 -49q0 -23 2.5 -37.5t8.5 -28.5l7 -17q-23 -3 -44 -14t-36.5 -27t-25 -36t-9.5 -41q0 -60 77 -72q-19 -10 -42 -15.5t-43 -5.5q-36 0 -61.5 19.5
t-25.5 54.5z" />
    <glyph glyph-name="iogonek" unicode="&#x12f;" horiz-adv-x="282" 
d="M-14 -138q0 24 9 43.5t24 35.5t34 29t40 23q-13 3 -20.5 9.5t-11 15t-4.5 16.5t-1 14q0 14 4 45t10 70.5t13.5 85t13.5 88t10 79.5t4 60q0 19 -2 34t-10 28l-7 12l143 25q-5 -27 -10 -67q-5 -34 -12 -85t-16 -120q-5 -35 -10 -71t-8.5 -66t-6 -52t-2.5 -30q0 -12 3 -20.5
t15 -18.5l13 -10q-2 -5 -6 -9q-3 -4 -7.5 -8.5t-9.5 -8.5q-14 -10 -30.5 -23t-31.5 -29.5t-25 -37t-10 -44.5q0 -54 77 -66q-19 -10 -42 -15.5t-43 -5.5q-36 0 -61.5 19.5t-25.5 54.5zM265 722q0 -29 -17.5 -47t-52.5 -18q-20 0 -32.5 5.5t-20 14t-10.5 18.5t-3 19
q0 29 17.5 47t51.5 18q20 0 33 -5.5t20.5 -14t10.5 -18.5t3 -19z" />
    <glyph glyph-name="Idotaccent" unicode="&#x130;" horiz-adv-x="299" 
d="M278 696q-6 -10 -11 -18.5t-9.5 -22t-9 -35.5t-10 -57t-13 -87t-16.5 -127q-4 -29 -8.5 -68l-9 -78t-7.5 -72t-3 -49q0 -23 2.5 -37.5t8.5 -28.5l7 -17q-8 0 -20 1q-11 0 -27 0.5t-40 0.5t-40.5 -0.5t-27.5 -0.5q-12 -1 -20 -1l11 17q6 10 11 18.5t9.5 22t9 35.5t10 57
t12.5 87t17 127q4 28 8.5 67.5t9 78.5t7.5 72t3 49q0 23 -2.5 37.5t-8.5 28.5l-7 17q7 -1 19 -1q10 -1 26.5 -1h40.5h40.5t27.5 1q12 0 21 1zM284 831q0 -29 -17.5 -47t-52.5 -18q-20 0 -32.5 5.5t-20 14t-10.5 18.5t-3 19q0 29 17.5 47t51.5 18q20 0 33 -5.5t20.5 -14
t10.5 -18.5t3 -19z" />
    <glyph glyph-name="dotlessi" unicode="&#x131;" horiz-adv-x="282" 
d="M235 575q-5 -27 -10 -67q-5 -34 -12 -85t-16 -120q-5 -35 -10 -71t-8.5 -66t-6 -52t-2.5 -30q0 -12 3 -20.5t15 -18.5l13 -10q-9 -13 -21 -23q-11 -8 -26.5 -15t-38.5 -7q-21 0 -32.5 6.5t-17.5 15.5t-7.5 19t-1.5 17q0 14 4 44.5t10 70.5t13.5 85t13.5 88t10 80t4 60
q0 20 -2 35t-10 27l-7 12l143 25v0z" />
    <glyph glyph-name="IJ" unicode="&#x132;" horiz-adv-x="590" 
d="M278 696q-6 -10 -11 -18.5t-9.5 -22t-9 -35.5t-10 -57t-13 -87t-16.5 -127q-4 -29 -8.5 -68l-9 -78t-7.5 -72t-3 -49q0 -23 2.5 -37.5t8.5 -28.5l7 -17q-8 0 -20 1q-11 0 -27 0.5t-40 0.5t-40.5 -0.5t-27.5 -0.5q-12 -1 -20 -1l11 17q6 10 11 18.5t9.5 22t9 35.5t10 57
t12.5 87t17 127q4 28 8.5 67.5t9 78.5t7.5 72t3 49q0 23 -2.5 37.5t-8.5 28.5l-7 17q7 -1 19 -1q10 -1 26.5 -1h40.5h40.5t27.5 1q12 0 21 1zM580 696q-9 -14 -16 -28.5t-14 -48.5t-16.5 -96.5t-22.5 -172.5l-48 -382q-4 -34 -11.5 -66.5t-27.5 -58t-56 -41t-97 -15.5h-19
q33 15 52 38t30 53t16.5 68t11.5 84l44 336q4 28 8.5 67t9 77.5t7.5 71t3 48.5q0 23 -2.5 37.5t-8.5 28.5l-7 17q7 -1 19 -1q10 -1 26.5 -1h40.5h40.5t27.5 1q12 0 21 1z" />
    <glyph glyph-name="ij" unicode="&#x133;" horiz-adv-x="571" 
d="M265 722q0 -29 -17.5 -47t-52.5 -18q-20 0 -32.5 5.5t-20 14t-10.5 18.5t-3 19q0 29 17.5 47t51.5 18q20 0 33 -5.5t20.5 -14t10.5 -18.5t3 -19zM235 575q-5 -27 -10 -67q-5 -34 -12 -85t-16 -120q-5 -35 -10 -71t-8.5 -66t-6 -52t-2.5 -30q0 -12 3 -20.5t15 -18.5
l13 -10q-9 -13 -21 -23q-11 -8 -26.5 -15t-38.5 -7q-21 0 -32.5 6.5t-17.5 15.5t-7.5 19t-1.5 17q0 14 4 45t10 70.5t13.5 85t13.5 88t10 79.5t4 60q0 19 -2 34t-10 28l-7 12zM556 722q0 -29 -18 -47t-52 -18q-20 0 -32.5 5.5t-20 14t-10.5 18.5t-3 19q0 29 17.5 47t51.5 18
q20 0 33 -5.5t20.5 -14t10.5 -18.5t3 -19zM528 575q-5 -21 -10 -58q-5 -32 -12 -84t-17 -130l-30 -244q-5 -42 -9 -76t-9.5 -61.5t-14 -48.5t-21.5 -37q-16 -19 -43 -34t-80 -15q-23 0 -39.5 2.5t-27.5 5.5q-13 4 -22 8q0 4 2 10q1 5 2.5 13.5t3.5 19.5q2 13 2 23t1 18
q0 9 1 15q17 -33 33 -45t37 -12q20 0 31 7t17.5 22t10 39t8.5 59l35 270q4 34 8.5 68.5t8 65t5.5 55t2 39.5q0 16 -1 33.5t-9 31.5l-7 15z" />
    <glyph glyph-name="Jcircumflex" unicode="&#x134;" horiz-adv-x="292" 
d="M282 696q-9 -14 -16 -28.5t-14 -48.5t-16.5 -96.5t-22.5 -172.5l-48 -382q-4 -34 -11.5 -66.5t-27.5 -58t-56 -41t-97 -15.5h-19q33 15 52 38t30 53t16.5 68t11.5 84l44 336q4 28 8.5 67t9 77.5t7.5 71t3 48.5q0 23 -2.5 37.5t-8.5 28.5l-7 17q7 -1 19 -1q10 -1 26.5 -1
h40.5h40.5t27.5 1q12 0 21 1zM368 753q-48 2 -89 22.5t-64 52.5q-39 -38 -89.5 -56t-92.5 -19l155 152h67z" />
    <glyph glyph-name="jcircumflex" unicode="&#x135;" horiz-adv-x="288" 
d="M246 575q-5 -21 -10 -58q-5 -32 -12 -84t-17 -130l-30 -244q-5 -42 -9 -76t-9.5 -61.5t-14 -48.5t-21.5 -37q-16 -19 -43 -34t-80 -15q-23 0 -39.5 2.5t-27.5 5.5q-13 4 -22 8q0 4 2 10q1 5 2.5 13.5t3.5 19.5q2 13 2 23t1 18q0 9 1 15q17 -33 33 -45t37 -12q20 0 31 7
t17.5 22t10 39t8.5 59l35 270q4 34 8.5 68.5t8 65t5.5 55t2 39.5q0 16 -1 33.5t-9 31.5l-7 15zM347 623q-48 2 -89 21.5t-64 53.5q-39 -38 -89.5 -56t-92.5 -19l156 152h66z" />
    <glyph glyph-name="Kcommaaccent" unicode="&#x136;" horiz-adv-x="582" 
d="M337 -99q0 -26 -10.5 -47.5t-29.5 -38t-44 -27.5t-53 -16q14 10 25 23q10 11 18 26t8 33q0 13 -5 20.5t-10 11.5q-7 4 -15 6l2 16q3 23 19 38t40 20q22 -5 38.5 -19t16.5 -46zM646 713q-3 -2 -7 -6q-8 -8 -27 -30q-18 -20 -37.5 -53.5t-50 -74.5t-75 -86.5t-111.5 -88.5
l117 -204q27 -46 47 -76.5t35 -49.5t26 -29t20 -16h-21q-11 0 -27.5 0.5t-40.5 0.5h-69l-203 365q18 10 44 29.5t54.5 45t56.5 55t50.5 59.5t36.5 59t14 53q0 11 -3.5 23.5t-17.5 23.5q10 -1 23 -2q11 -1 28 -1h40h43.5t30.5 1q14 1 24 2zM278 696q-6 -10 -11 -18.5
t-9.5 -22t-9 -35.5t-10 -57t-13 -87t-16.5 -127q-4 -29 -8.5 -68l-9 -78t-7.5 -72t-3 -49q0 -23 2.5 -37.5t8.5 -28.5l7 -17q-8 0 -20 1q-11 0 -27 0.5t-40 0.5t-40.5 -0.5t-27.5 -0.5q-12 -1 -20 -1l11 17q6 10 11 18.5t9.5 22t9 35.5t10 57t12.5 87t17 127q4 28 8.5 67.5
t9 78.5t7.5 72t3 49q0 23 -2.5 37.5t-8.5 28.5l-7 17q7 -1 19 -1q10 -1 26.5 -1h40.5h40.5t27.5 1q12 0 21 1z" />
    <glyph glyph-name="kcommaaccent" unicode="&#x137;" horiz-adv-x="536" 
d="M292 -99q0 -26 -10.5 -47.5t-29.5 -38t-44 -27.5t-53 -16q14 10 25 23q10 11 18 26t8 33q0 13 -5 20.5t-10 11.5q-7 4 -15 6l2 16q3 23 19 38t40 20q22 -5 38.5 -19t16.5 -46zM534 515q0 -46 -37.5 -90t-118.5 -91q-16 -9 -27 -15.5t-19 -10.5q-9 -4 -15 -7l67 -130
q18 -36 30 -58t21.5 -35.5t18.5 -21t21 -13.5l13 -8q-8 -13 -20 -23q-11 -8 -26.5 -15t-37.5 -7q-35 0 -49 16.5t-25 41.5q-23 45 -45 90t-39 82q-20 43 -39 83q12 5 30 15q15 8 36 21.5t50 33.5q54 38 78 69.5t24 71.5q0 14 -4 22.5t-9 13.5q-5 6 -12 10q7 5 18 9
q8 4 20.5 7t26.5 3q37 0 53 -17.5t16 -46.5zM265 787q-5 -29 -10 -66q-5 -32 -11.5 -75t-13.5 -97l-39 -283q-11 -80 -17 -131.5t-10 -81.5q-4 -35 -6 -54q-7 0 -15 1q-8 0 -17.5 0.5t-23.5 0.5t-24 -0.5t-18 -0.5q-9 -1 -16 -1q4 23 11 67q6 38 15.5 100.5t23.5 161.5
q20 138 31.5 230.5t11.5 126.5q0 21 -2 36t-9 27l-7 14z" />
    <glyph glyph-name="kgreenlandic" unicode="&#x138;" horiz-adv-x="535" 
d="M534 515q0 -46 -37.5 -90t-119.5 -91q-16 -9 -27 -15.5t-19 -10.5q-9 -4 -15 -7l67 -130q18 -36 30 -58t21.5 -35.5t18.5 -21t21 -13.5l13 -8q-9 -13 -20 -23q-11 -8 -26 -15t-38 -7q-17 0 -28.5 4.5t-20 12t-14 18.5l-11.5 23q-23 45 -45 90t-39 82q-20 43 -38 83
q12 5 29 15q14 8 35.5 21.5t50.5 33.5q54 38 78 69.5t24 71.5q0 14 -3.5 22.5t-8.5 13.5q-5 6 -12 10q8 5 18 9q8 4 20 7t26 3q37 0 53.5 -17.5t16.5 -46.5zM94 328q7 48 11 85.5t4 62.5q0 20 -2 35t-9 27l-7 12l143 25q0 -3 -2.5 -17t-7 -44.5t-11.5 -80.5t-17 -125l-6 -42
q-11 -80 -17 -131.5t-10 -81.5q-4 -35 -6 -54q-6 0 -14 1q-7 0 -17.5 0.5t-23.5 0.5q-14 0 -24 -0.5t-18 -0.5q-9 -1 -16 -1q4 23 11 67q6 38 15.5 100.5t23.5 161.5z" />
    <glyph glyph-name="Lacute" unicode="&#x139;" horiz-adv-x="468" 
d="M347 906q-6 -12 -18 -26q-11 -13 -28.5 -30t-46.5 -37q-26 -19 -48 -30.5t-39 -17.5q-19 -8 -35 -11l100 152h115zM266 67q44 0 71.5 5t46 15.5t32 26t30.5 36.5q-4 -11 -8 -28q-4 -14 -8.5 -37t-10.5 -55l-5 -30h-316q-20 0 -33.5 -0.5t-22.5 -0.5h-18l11 17
q6 10 11 18.5t9.5 22t9 35.5t10 57t12.5 87t17 127q4 28 8.5 67.5t9 78.5t7.5 72t3 49q0 23 -2.5 37.5t-8.5 28.5l-7 17q7 -1 19 -1q10 -1 26.5 -1h40.5h41.5t28.5 1q13 0 21 1l-12 -17q-6 -9 -11 -17.5t-9.5 -22t-9 -34.5t-10 -55t-12 -84t-15.5 -120l-38 -296h92z" />
    <glyph glyph-name="lacute" unicode="&#x13a;" horiz-adv-x="277" 
d="M361 966q-6 -12 -18 -26q-11 -13 -28.5 -30t-46.5 -37q-26 -19 -48 -30.5t-39 -17.5q-19 -8 -35 -11l100 152h115zM266 787q-4 -21 -12 -74q-7 -45 -18.5 -128t-30.5 -220q-9 -70 -16 -119.5t-11 -83t-6 -52.5t-2 -26q0 -12 3 -20.5t15 -18.5l13 -10q-9 -13 -21 -23
q-11 -8 -26.5 -15t-38.5 -7q-21 0 -32.5 6.5t-17.5 15.5t-7.5 19t-1.5 17q0 18 6 65t15.5 109.5t20 133.5t20 136t15.5 117.5t6 78.5q0 19 -2 34t-10 28l-7 12z" />
    <glyph glyph-name="Lcommaaccent" unicode="&#x13b;" horiz-adv-x="468" 
d="M272 -99q0 -26 -10.5 -47.5t-29.5 -38t-44 -27.5t-53 -16q14 10 25 23q10 11 18 26t8 33q0 13 -5 20.5t-10 11.5q-7 4 -15 6l2 16q3 23 19 38t40 20q22 -5 38.5 -19t16.5 -46zM266 67q44 0 71.5 5t46 15.5t32 26t30.5 36.5q-4 -11 -8 -28q-4 -14 -8.5 -37t-10.5 -55
l-5 -30h-316q-20 0 -33.5 -0.5t-22.5 -0.5h-18l11 17q6 10 11 18.5t9.5 22t9 35.5t10 57t12.5 87t17 127q4 28 8.5 67.5t9 78.5t7.5 72t3 49q0 23 -2.5 37.5t-8.5 28.5l-7 17q7 -1 19 -1q10 -1 26.5 -1h40.5h41.5t28.5 1q13 0 21 1l-12 -17q-6 -9 -11 -17.5t-9.5 -22
t-9 -34.5t-10 -55t-12 -84t-15.5 -120l-38 -296h92z" />
    <glyph glyph-name="lcommaaccent" unicode="&#x13c;" horiz-adv-x="277" 
d="M161 -99q0 -26 -10.5 -47.5t-29.5 -38t-44 -27.5t-53 -16q14 10 25 23q10 11 18 26t8 33q0 13 -5 20.5t-10 11.5q-7 4 -15 6l2 16q3 23 19 38t40 20q22 -5 38.5 -19t16.5 -46zM266 787q-4 -21 -12 -74q-7 -45 -18.5 -128t-30.5 -220q-9 -70 -16 -119.5t-11 -83t-6 -52.5
t-2 -26q0 -12 3 -20.5t15 -18.5l13 -10q-9 -13 -21 -23q-11 -8 -26.5 -15t-38.5 -7q-21 0 -32.5 6.5t-17.5 15.5t-7.5 19t-1.5 17q0 18 6 65t15.5 109.5t20 133.5t20 136t15.5 117.5t6 78.5q0 19 -2 34t-10 28l-7 12z" />
    <glyph glyph-name="Lcaron" unicode="&#x13d;" horiz-adv-x="468" 
d="M316 538q11 28 18 57t11 56.5t5 51t0 40.5l100 12q-2 -68 -34.5 -124t-99.5 -93zM266 67q44 0 71.5 5t46 15.5t32 26t30.5 36.5q-4 -11 -8 -28q-4 -14 -8.5 -37t-10.5 -55l-5 -30h-316q-20 0 -33.5 -0.5t-22.5 -0.5h-18l11 17q6 10 11 18.5t9.5 22t9 35.5t10 57t12.5 87
t17 127q4 28 8.5 67.5t9 78.5t7.5 72t3 49q0 23 -2.5 37.5t-8.5 28.5l-7 17q7 -1 19 -1q10 -1 26.5 -1h40.5h41.5t28.5 1q13 0 21 1l-12 -17q-6 -9 -11 -17.5t-9.5 -22t-9 -34.5t-10 -55t-12 -84t-15.5 -120l-38 -296h92z" />
    <glyph glyph-name="lcaron" unicode="&#x13e;" horiz-adv-x="277" 
d="M280 592q11 28 18 57t11 56.5t5 51t0 40.5l100 12q-2 -68 -34.5 -124t-99.5 -93zM266 787q-4 -21 -12 -74q-7 -45 -18.5 -128t-30.5 -220q-9 -70 -16 -119.5t-11 -83t-6 -52.5t-2 -26q0 -12 3 -20.5t15 -18.5l13 -10q-9 -13 -21 -23q-11 -8 -26.5 -15t-38.5 -7
q-21 0 -32.5 6.5t-17.5 15.5t-7.5 19t-1.5 17q0 18 6 65t15.5 109.5t20 133.5t20 136t15.5 117.5t6 78.5q0 19 -2 34t-10 28l-7 12z" />
    <glyph glyph-name="Ldot" unicode="&#x13f;" horiz-adv-x="468" 
d="M266 67q44 0 71.5 5t46 15.5t32 26t30.5 36.5q-4 -11 -8 -28q-4 -14 -8.5 -37t-10.5 -55l-5 -30h-316q-20 0 -33.5 -0.5t-22.5 -0.5h-18l11 17q6 10 11 18.5t9.5 22t9 35.5t10 57t12.5 87t17 127q4 28 8.5 67.5t9 78.5t7.5 72t3 49q0 23 -2.5 37.5t-8.5 28.5l-7 17
q7 -1 19 -1q10 -1 26.5 -1h40.5h41.5t28.5 1q13 0 21 1l-12 -17q-6 -9 -11 -17.5t-9.5 -22t-9 -34.5t-10 -55t-12 -84t-15.5 -120l-38 -296h92zM470 441q0 -29 -17.5 -47t-52.5 -18q-20 0 -32.5 5.5t-20 14t-10.5 18.5t-3 19q0 29 17.5 47t51.5 18q20 0 33 -5.5t20.5 -14
t10.5 -18.5t3 -19z" />
    <glyph glyph-name="ldot" unicode="&#x140;" horiz-adv-x="397" 
d="M266 787q-4 -21 -12 -74q-7 -45 -18.5 -128t-30.5 -220q-9 -70 -16 -119.5t-11 -83t-6 -52.5t-2 -26q0 -12 3 -20.5t15 -18.5l13 -10q-9 -13 -21 -23q-11 -8 -26.5 -15t-38.5 -7q-21 0 -32.5 6.5t-17.5 15.5t-7.5 19t-1.5 17q0 18 6 65t15.5 109.5t20 133.5t20 136
t15.5 117.5t6 78.5q0 19 -2 34t-10 28l-7 12zM425 390q0 -29 -17.5 -47t-52.5 -18q-20 0 -32.5 5.5t-20 14t-10.5 18.5t-3 19q0 29 17.5 47t51.5 18q20 0 33 -5.5t20.5 -14t10.5 -18.5t3 -19z" />
    <glyph glyph-name="Lslash" unicode="&#x141;" horiz-adv-x="480" 
d="M277 67q44 0 71.5 5t46 15.5t32 26t30.5 36.5q-4 -11 -8 -28q-4 -14 -8.5 -37t-10.5 -55l-5 -30h-316q-20 0 -33.5 -0.5t-22.5 -0.5h-18l11 17q8 13 14 25.5t12.5 38.5t14 73.5t18.5 131.5q-20 -9 -31.5 -16t-18.5 -12q-8 -6 -12 -10q-1 4 -3 10q-2 5 -5 13.5t-7 19.5
q-4 10 -7.5 17.5t-5.5 12.5q-3 6 -5 11q8 -1 21 1q11 2 29.5 6t45.5 15l8 3q0 4 1 7q4 28 8.5 67.5t9 78.5t7.5 72t3 49q0 23 -2.5 37.5t-8.5 28.5l-7 17q7 -1 19 -1q10 -1 26.5 -1h40.5h41.5t28.5 1q13 0 21 1l-12 -17q-9 -13 -15.5 -26.5t-13 -42.5t-14.5 -81.5
t-20 -144.5l57 22q26 11 43 19.5t27 15.5q11 8 17 14q1 -5 3 -11q2 -5 4 -13t6 -19t8 -18.5t6 -12.5l5 -10q-8 1 -21 -1q-11 -2 -30 -6.5t-45 -14.5l-88 -35l-34 -264h92z" />
    <glyph glyph-name="lslash" unicode="&#x142;" horiz-adv-x="352" 
d="M303 787q0 6 -5 -26q-2 -14 -5.5 -36.5t-9 -58.5t-12.5 -86t-16 -119q-1 -3 -1 -8l4 2q25 11 41 20.5t25 16.5q11 8 16 14q1 -5 4 -10q2 -5 4.5 -11.5t6.5 -14.5q4 -9 7.5 -15t5.5 -11l4 -8q-8 0 -20 -4q-11 -3 -28 -9.5t-42 -17.5l-37 -18q-7 -50 -13.5 -101t-12 -94
t-9 -72.5t-3.5 -35.5q0 -12 3 -20.5t15 -18.5l13 -10q-9 -13 -21 -23q-11 -8 -26.5 -15t-38.5 -7q-21 0 -32.5 6.5t-17.5 15.5t-7.5 19t-1.5 17q0 9 4 44t10 79.5t12.5 91t11.5 80.5l-1 -1q-47 -23 -66 -37q-11 -8 -16 -13l-3 9q-2 5 -4.5 11t-6.5 14t-7.5 14.5t-5.5 11.5
q-3 5 -5 9q8 0 20 4q11 3 28 9t42 18l35 16q9 57 15.5 100t11 75.5t6.5 57.5t2 47q0 19 -2 34t-10 28l-7 12l146 25v0z" />
    <glyph glyph-name="Nacute" unicode="&#x143;" horiz-adv-x="694" 
d="M560 906q-6 -12 -18 -26q-11 -13 -28.5 -30t-46.5 -37q-26 -19 -48 -30.5t-39 -17.5q-19 -8 -35 -11l100 152h115zM680 696q-6 -10 -11 -18.5t-9.5 -22t-9.5 -35.5t-10.5 -57t-12.5 -87t-16 -127l-44 -351q-7 0 -17 1q-8 1 -20.5 1.5t-28.5 0.5q-17 0 -30.5 -0.5
t-22.5 -1.5q-11 -1 -19 -1l-193 543q-5 13 -8.5 27.5t-5.5 25.5q-3 13 -5 26l-33 -271q-3 -29 -8 -68t-9.5 -78t-7.5 -72t-3 -49q0 -23 2.5 -37.5t8.5 -28.5l7 -17q-8 0 -19 1q-10 0 -23.5 0.5t-32.5 0.5q-20 0 -34 -0.5t-23 -0.5q-11 -1 -18 -1l11 17q6 10 11 18.5t9.5 22
t9 35.5t10 57t12.5 87t17 127q4 28 8.5 67.5t9 78.5t7.5 72t3 49q0 23 -2.5 37.5t-8.5 28.5l-7 17q7 -1 19 -1q11 -1 28 -1h43h37.5t25.5 1q11 0 19 1l191 -541q6 -17 10 -31t6 -25q3 -13 4 -24l33 272q3 28 8 67.5t9.5 78t7.5 71.5t3 49q0 23 -2.5 37.5t-8.5 28.5l-7 17
q8 -1 19 -1q9 -1 23 -1h33h33t24 1q11 0 19 1z" />
    <glyph glyph-name="nacute" unicode="&#x144;" horiz-adv-x="595" 
d="M493 775q-6 -12 -18 -26q-11 -13 -28.5 -30t-46.5 -37q-26 -19 -48 -30.5t-39 -17.5q-19 -8 -35 -11l100 152h115zM530 462q0 -16 -3.5 -46.5t-8.5 -68t-11.5 -78.5t-11.5 -77.5t-8.5 -65.5t-3.5 -42q0 -12 3 -20.5t16 -18.5l13 -10q-9 -13 -21 -23q-11 -8 -27 -15
t-39 -7q-21 0 -32.5 6.5t-17 15.5t-7 19t-1.5 17q0 13 3.5 41.5t9 65t12 78t12 80t9 71t3.5 51.5q0 7 -1 18t-7 20.5t-18 16.5t-34 7q-41 0 -76 -25.5t-75 -82.5l-17 -120q-11 -80 -17 -132t-10 -83q-4 -36 -6 -55q-6 0 -15 1q-8 0 -18 0.5t-23 0.5q-12 0 -22.5 -0.5
t-18.5 -0.5q-10 -1 -17 -1q4 21 10 60q5 33 14 87t21 138q11 72 16 124.5t5 73.5q0 14 -2.5 29.5t-10.5 29.5l-6 10l141 25l-28 -181q27 64 55.5 101t56 55.5t52 23t44.5 4.5q43 0 66.5 -13t35 -32t14 -39t2.5 -33z" />
    <glyph glyph-name="Ncommaaccent" unicode="&#x145;" horiz-adv-x="694" 
d="M358 -99q0 -26 -10.5 -47.5t-29.5 -38t-44 -27.5t-53 -16q14 10 25 23q10 11 18 26t8 33q0 13 -5 20.5t-10 11.5q-7 4 -15 6l2 16q3 23 19 38t40 20q22 -5 38.5 -19t16.5 -46zM680 696q-6 -10 -11 -18.5t-9.5 -22t-9.5 -35.5t-10.5 -57t-12.5 -87t-16 -127l-44 -351
q-7 0 -17 1q-8 1 -20.5 1.5t-28.5 0.5q-17 0 -30.5 -0.5t-22.5 -1.5q-11 -1 -19 -1l-193 543q-5 13 -8.5 27.5t-5.5 25.5q-3 13 -5 26l-33 -271q-3 -29 -8 -68t-9.5 -78t-7.5 -72t-3 -49q0 -23 2.5 -37.5t8.5 -28.5l7 -17q-8 0 -19 1q-10 0 -23.5 0.5t-32.5 0.5
q-20 0 -34 -0.5t-23 -0.5q-11 -1 -18 -1l11 17q6 10 11 18.5t9.5 22t9 35.5t10 57t12.5 87t17 127q4 28 8.5 67.5t9 78.5t7.5 72t3 49q0 23 -2.5 37.5t-8.5 28.5l-7 17q7 -1 19 -1q11 -1 28 -1h43h37.5t25.5 1q11 0 19 1l191 -541q6 -17 10 -31t6 -25q3 -13 4 -24l33 272
q3 28 8 67.5t9.5 78t7.5 71.5t3 49q0 23 -2.5 37.5t-8.5 28.5l-7 17q8 -1 19 -1q9 -1 23 -1h33h33t24 1q11 0 19 1z" />
    <glyph glyph-name="ncommaaccent" unicode="&#x146;" horiz-adv-x="595" 
d="M316 -99q0 -26 -10.5 -47.5t-29.5 -38t-44 -27.5t-53 -16q14 10 25 23q10 11 18 26t8 33q0 13 -5 20.5t-10 11.5q-7 4 -15 6l2 16q3 23 19 38t40 20q22 -5 38.5 -19t16.5 -46zM530 462q0 -16 -3.5 -46.5t-8.5 -68t-11.5 -78.5t-11.5 -77.5t-8.5 -65.5t-3.5 -42
q0 -12 3 -20.5t16 -18.5l13 -10q-9 -13 -21 -23q-11 -8 -27 -15t-39 -7q-21 0 -32.5 6.5t-17 15.5t-7 19t-1.5 17q0 13 3.5 41.5t9 65t12 78t12 80t9 71t3.5 51.5q0 7 -1 18t-7 20.5t-18 16.5t-34 7q-41 0 -76 -25.5t-75 -82.5l-17 -120q-11 -80 -17 -132t-10 -83
q-4 -36 -6 -55q-6 0 -15 1q-8 0 -18 0.5t-23 0.5q-12 0 -22.5 -0.5t-18.5 -0.5q-10 -1 -17 -1q4 21 10 60q5 33 14 87t21 138q11 72 16 124.5t5 73.5q0 14 -2.5 29.5t-10.5 29.5l-6 10l141 25l-28 -181q27 64 55.5 101t56 55.5t52 23t44.5 4.5q43 0 66.5 -13t35 -32t14 -39
t2.5 -33z" />
    <glyph glyph-name="Ncaron" unicode="&#x147;" horiz-adv-x="694" 
d="M580 918q-45 -40 -84.5 -79.5t-78.5 -85.5h-23l-67 76q-7 8 -21 23t-24 23l73 52q5 -12 12 -24.5t14 -23.5l24 -41q32 37 77.5 60.5t97.5 19.5zM680 696q-6 -10 -11 -18.5t-9.5 -22t-9.5 -35.5t-10.5 -57t-12.5 -87t-16 -127l-44 -351q-7 0 -17 1q-8 1 -20.5 1.5
t-28.5 0.5q-17 0 -30.5 -0.5t-22.5 -1.5q-11 -1 -19 -1l-193 543q-5 13 -8.5 27.5t-5.5 25.5q-3 13 -5 26l-33 -271q-3 -29 -8 -68t-9.5 -78t-7.5 -72t-3 -49q0 -23 2.5 -37.5t8.5 -28.5l7 -17q-8 0 -19 1q-10 0 -23.5 0.5t-32.5 0.5q-20 0 -34 -0.5t-23 -0.5q-11 -1 -18 -1
l11 17q6 10 11 18.5t9.5 22t9 35.5t10 57t12.5 87t17 127q4 28 8.5 67.5t9 78.5t7.5 72t3 49q0 23 -2.5 37.5t-8.5 28.5l-7 17q7 -1 19 -1q11 -1 28 -1h43h37.5t25.5 1q11 0 19 1l191 -541q6 -17 10 -31t6 -25q3 -13 4 -24l33 272q3 28 8 67.5t9.5 78t7.5 71.5t3 49
q0 23 -2.5 37.5t-8.5 28.5l-7 17q8 -1 19 -1q9 -1 23 -1h33h33t24 1q11 0 19 1z" />
    <glyph glyph-name="ncaron" unicode="&#x148;" horiz-adv-x="595" 
d="M499 775q-23 -20 -42 -37.5t-36.5 -35.5t-34.5 -37t-36 -42h-26l-57 63q-8 8 -22 23t-24 23l69 51q6 -12 13 -25t15 -24l21 -29q15 16 31 30t35 24t42 14.5t52 1.5zM530 462q0 -16 -3.5 -46.5t-8.5 -68t-11.5 -78.5t-11.5 -77.5t-8.5 -65.5t-3.5 -42q0 -12 3 -20.5
t16 -18.5l13 -10q-9 -13 -21 -23q-11 -8 -27 -15t-39 -7q-21 0 -32.5 6.5t-17 15.5t-7 19t-1.5 17q0 13 3.5 41.5t9 65t12 78t12 80t9 71t3.5 51.5q0 7 -1 18t-7 20.5t-18 16.5t-34 7q-41 0 -76 -25.5t-75 -82.5l-17 -120q-11 -80 -17 -132t-10 -83q-4 -36 -6 -55
q-6 0 -15 1q-8 0 -18 0.5t-23 0.5q-12 0 -22.5 -0.5t-18.5 -0.5q-10 -1 -17 -1q4 21 10 60q5 33 14 87t21 138q11 72 16 124.5t5 73.5q0 14 -2.5 29.5t-10.5 29.5l-6 10l141 25l-28 -181q27 64 55.5 101t56 55.5t52 23t44.5 4.5q43 0 66.5 -13t35 -32t14 -39t2.5 -33z" />
    <glyph glyph-name="napostrophe" unicode="&#x149;" horiz-adv-x="692" 
d="M188 673q0 -38 -12.5 -70.5t-35 -56t-54 -37t-70.5 -13.5q19 12 34 30q13 16 23.5 42t10.5 64q0 24 -6 39.5t-13 25.5q-8 11 -18 18l88 72q15 -9 26 -25q10 -14 18.5 -35.5t8.5 -53.5zM627 462q0 -16 -3.5 -46.5t-8.5 -68t-11.5 -78.5t-11.5 -77.5t-8.5 -65.5t-3.5 -42
q0 -12 3 -20.5t16 -18.5l13 -10q-9 -13 -21 -23q-11 -8 -27 -15t-39 -7q-21 0 -32.5 6.5t-17 15.5t-7 19t-1.5 17q0 13 3.5 41.5t9 65t12 78t12 80t9 71t3.5 51.5q0 7 -1 18t-7 20.5t-18 16.5t-34 7q-41 0 -76 -25.5t-75 -82.5l-17 -120q-11 -80 -17 -132t-10 -83
q-4 -36 -6 -55q-6 0 -15 1q-8 0 -18 0.5t-23 0.5q-12 0 -22.5 -0.5t-18.5 -0.5q-10 -1 -17 -1q4 21 10 60q5 33 14 87t21 138q11 72 16 124.5t5 73.5q0 14 -2.5 29.5t-10.5 29.5l-6 10l141 25l-28 -181q27 64 55.5 101t56 55.5t52 23t44.5 4.5q43 0 66.5 -13t35 -32t14 -39
t2.5 -33z" />
    <glyph glyph-name="Eng" unicode="&#x14a;" horiz-adv-x="684" 
d="M557 -32q-4 -34 -12.5 -66.5t-29 -58t-57.5 -41t-99 -15.5h-20q33 15 52.5 38t30 53t16 68t11.5 84l47 336q3 22 6 47t5 49.5t3.5 46t1.5 38.5q0 13 -3 28t-12 28.5t-26.5 22.5t-45.5 9q-54 0 -100.5 -29.5t-92.5 -81.5l-23 -175q-4 -29 -8.5 -68l-9 -78t-7.5 -72t-3 -49
q0 -23 2.5 -37.5t8.5 -28.5l7 -17q-8 0 -20 1q-11 0 -27 0.5t-40 0.5t-40.5 -0.5t-27.5 -0.5q-12 -1 -20 -1l11 17q6 10 11 18.5t9.5 22t9 35.5t10 57t12.5 87t17 127l8 65q10 72 15.5 124.5t5.5 73.5q0 14 -2.5 29.5t-10.5 29.5l-6 10l143 25l-28 -185q30 60 62 97t65 57.5
t66 27.5t65 7q42 0 69.5 -11.5t44 -30t23.5 -42.5t7 -48q0 -23 -2 -51.5t-5.5 -58t-7 -58.5t-6.5 -51z" />
    <glyph glyph-name="eng" unicode="&#x14b;" horiz-adv-x="595" 
d="M479 59q-12 -84 -23 -137.5t-37 -85.5q-8 -9 -17.5 -18t-23 -16t-32 -11t-45.5 -4q-23 0 -39.5 2.5t-27.5 5.5q-13 4 -21 8q1 4 2 10q1 5 2 13.5t3 19.5q2 13 2.5 23t1.5 18q1 9 1 15q17 -33 33 -45t37 -12q17 0 28 7t18 22t11.5 39t9.5 59l41 286q3 18 6 41t5.5 46
t4.5 45.5t2 39.5q0 8 -1.5 19.5t-7.5 22t-18.5 18t-34.5 7.5q-41 0 -76 -25.5t-75 -82.5l-17 -120q-11 -80 -17 -132t-10 -83q-4 -36 -6 -55q-6 0 -15 1q-8 0 -18 0.5t-23 0.5q-12 0 -22.5 -0.5t-18.5 -0.5q-10 -1 -17 -1q4 21 10 60q5 33 14 87t21 138q11 72 16 124.5
t5 73.5q0 14 -2.5 29.5t-10.5 29.5l-6 10l141 25l-28 -181q27 64 55.5 101t56 55.5t52.5 23t45 4.5q42 0 66 -13t35.5 -32t14 -39t2.5 -33q0 -31 -4.5 -71t-9.5 -77z" />
    <glyph glyph-name="Omacron" unicode="&#x14c;" horiz-adv-x="682" 
d="M250 787l8 71h280l-8 -71h-280zM639 430q0 -42 -6 -90.5t-20.5 -97.5t-38.5 -95t-60.5 -81.5t-86 -56.5t-115.5 -21q-72 0 -123 21.5t-83 60.5t-46.5 93t-14.5 119q0 42 6 91t20.5 98t38.5 95t60.5 81.5t86.5 56.5t116 21q72 0 122.5 -21.5t82.5 -60.5t46.5 -93.5
t14.5 -119.5zM520 436q0 52 -6 92.5t-22.5 68t-44.5 42t-72 14.5q-47 0 -81 -20t-57.5 -52t-38 -73t-22 -82.5t-10 -80.5t-2.5 -68q0 -52 6 -92.5t22.5 -68t45 -42t72.5 -14.5q47 0 81 20t57 52t37.5 73t22 82.5t10 80.5t2.5 68z" />
    <glyph glyph-name="omacron" unicode="&#x14d;" horiz-adv-x="558" 
d="M187 657l8 70h280l-8 -70h-280zM515 330q0 -24 -4 -59t-15 -73t-30 -75.5t-48.5 -67.5t-70.5 -48.5t-97 -18.5q-59 0 -99 18t-64 51t-34.5 79t-10.5 102q0 24 4 59t15 72.5t30 75t48.5 67.5t70.5 48.5t97 18.5q60 0 100 -18t64 -51t34 -79t10 -101zM405 346q0 57 -9 90
t-23.5 50t-32.5 21.5t-36 4.5q-34 0 -58.5 -17.5t-41 -44.5t-27 -60.5t-16 -66t-7 -59.5t-1.5 -42q0 -57 9 -90t23.5 -50t32.5 -21.5t36 -4.5q34 0 58.5 17.5t41 44.5t27 60.5t16 65.5t7 59.5t1.5 42.5z" />
    <glyph glyph-name="Obreve" unicode="&#x14e;" horiz-adv-x="682" 
d="M267 923q17 -35 45 -61t79 -26q50 0 88.5 22.5t70.5 64.5q-5 -36 -18 -66t-34 -52t-49 -34.5t-63 -12.5q-33 0 -57 12.5t-39 34.5t-21 52t-2 66zM639 430q0 -42 -6 -90.5t-20.5 -97.5t-38.5 -95t-60.5 -81.5t-86 -56.5t-115.5 -21q-72 0 -123 21.5t-83 60.5t-46.5 93
t-14.5 119q0 42 6 91t20.5 98t38.5 95t60.5 81.5t86.5 56.5t116 21q72 0 122.5 -21.5t82.5 -60.5t46.5 -93.5t14.5 -119.5zM520 436q0 52 -6 92.5t-22.5 68t-44.5 42t-72 14.5q-47 0 -81 -20t-57.5 -52t-38 -73t-22 -82.5t-10 -80.5t-2.5 -68q0 -52 6 -92.5t22.5 -68t45 -42
t72.5 -14.5q47 0 81 20t57 52t37.5 73t22 82.5t10 80.5t2.5 68z" />
    <glyph glyph-name="obreve" unicode="&#x14f;" horiz-adv-x="558" 
d="M515 330q0 -24 -4 -59t-15 -73t-30 -75.5t-48.5 -67.5t-70.5 -48.5t-97 -18.5q-59 0 -99 18t-64 51t-34.5 79t-10.5 102q0 24 4 59t15 72.5t30 75t48.5 67.5t70.5 48.5t97 18.5q60 0 100 -18t64 -51t34 -79t10 -101zM405 346q0 57 -9 90t-23.5 50t-32.5 21.5t-36 4.5
q-34 0 -58.5 -17.5t-41 -44.5t-27 -60.5t-16 -66t-7 -59.5t-1.5 -42q0 -57 9 -90t23.5 -50t32.5 -21.5t36 -4.5q34 0 58.5 17.5t41 44.5t27 60.5t16 65.5t7 59.5t1.5 42.5zM204 793q17 -35 45 -61t79 -26q50 0 88.5 22.5t70.5 64.5q-5 -36 -18 -66t-34 -52t-49 -34.5
t-63 -12.5q-33 0 -57 12.5t-39 34.5t-21 52t-2 66z" />
    <glyph glyph-name="Ohungarumlaut" unicode="&#x150;" horiz-adv-x="682" 
d="M639 430q0 -42 -6 -90.5t-20.5 -97.5t-38.5 -95t-60.5 -81.5t-86 -56.5t-115.5 -21q-72 0 -123 21.5t-83 60.5t-46.5 93t-14.5 119q0 42 6 91t20.5 98t38.5 95t60.5 81.5t86.5 56.5t116 21q72 0 122.5 -21.5t82.5 -60.5t46.5 -93.5t14.5 -119.5zM520 436q0 52 -6 92.5
t-22.5 68t-44.5 42t-72 14.5q-47 0 -81 -20t-57.5 -52t-38 -73t-22 -82.5t-10 -80.5t-2.5 -68q0 -52 6 -92.5t22.5 -68t45 -42t72.5 -14.5q47 0 81 20t57 52t37.5 73t22 82.5t10 80.5t2.5 68zM453 906q-6 -12 -18 -26q-11 -13 -28.5 -30t-46.5 -37q-26 -19 -48 -30.5
t-39 -17.5q-19 -8 -35 -11l100 152h115zM647 906q-6 -12 -18 -26q-11 -13 -28.5 -30t-46.5 -37q-26 -19 -48 -30.5t-39 -17.5q-19 -8 -35 -11l100 152h115z" />
    <glyph glyph-name="ohungarumlaut" unicode="&#x151;" horiz-adv-x="558" 
d="M395 775q-6 -12 -18 -26q-11 -13 -28.5 -30t-46.5 -37q-26 -19 -48 -30.5t-39 -17.5q-19 -8 -35 -11l100 152h115zM589 775q-6 -12 -18 -26q-11 -13 -28.5 -30t-46.5 -37q-26 -19 -48 -30.5t-39 -17.5q-19 -8 -35 -11l100 152h115zM515 330q0 -24 -4 -59t-15 -73
t-30 -75.5t-48.5 -67.5t-70.5 -48.5t-97 -18.5q-59 0 -99 18t-64 51t-34.5 79t-10.5 102q0 24 4 59t15 72.5t30 75t48.5 67.5t70.5 48.5t97 18.5q60 0 100 -18t64 -51t34 -79t10 -101zM405 346q0 57 -9 90t-23.5 50t-32.5 21.5t-36 4.5q-34 0 -58.5 -17.5t-41 -44.5
t-27 -60.5t-16 -66t-7 -59.5t-1.5 -42q0 -57 9 -90t23.5 -50t32.5 -21.5t36 -4.5q34 0 58.5 17.5t41 44.5t27 60.5t16 65.5t7 59.5t1.5 42.5z" />
    <glyph glyph-name="OE" unicode="&#x152;" horiz-adv-x="906" 
d="M657 67q44 0 71.5 5t46 15.5t32 26t30.5 36.5q-4 -11 -8 -28q-4 -14 -8.5 -37t-10.5 -55l-5 -30h-379q-12 -3 -28 -5q-14 -2 -32.5 -3.5t-41.5 -1.5q-137 0 -208 76t-71 216q0 104 25 186t71.5 138.5t112 86.5t146.5 30q26 0 46 -2t35 -4q17 -3 31 -5h373q-2 -6 -3 -14
q-2 -7 -2.5 -16.5t-2.5 -22.5q-2 -17 -3.5 -29.5t-1.5 -20.5q-1 -10 0 -17l-8 10q-8 10 -24 21q-33 22 -101 22h-120l-33 -255h99q34 0 61.5 4t45.5 15q11 6 18 11t12 9t8 7q-1 -9 -4 -21q-2 -11 -5 -25.5t-5 -34.5q-4 -36 -6 -58q-1 -11 -1 -20q-2 3 -6 7q-3 4 -9 8.5
t-15 11.5q-17 11 -43 15t-60 4h-98l-33 -256h112zM509 636q-8 3 -23 7q-13 3 -33.5 5.5t-51.5 2.5q-42 0 -77.5 -15t-59.5 -41q-29 -28 -48.5 -65.5t-31 -79.5t-16 -86t-4.5 -84q0 -52 10.5 -92.5t28.5 -66.5q21 -30 57 -44.5t82 -14.5q26 0 44 2t30 5q14 3 23 7z" />
    <glyph glyph-name="oe" unicode="&#x153;" horiz-adv-x="862" 
d="M837 433q0 -57 -21 -94t-55 -58.5t-77.5 -30t-88.5 -8.5q-47 0 -71 3q-14 2 -24 4q-1 -5 -1 -10q-1 -5 -1 -9.5v-7.5q0 -30 6 -58.5t21 -50.5t40 -35t63 -13q42 0 71.5 9t48.5 20.5t29 23t12 17.5q0 -16 -7.5 -40.5t-28.5 -48t-58.5 -40.5t-97.5 -17q-27 0 -53.5 4.5
t-49 14.5t-40 27t-26.5 43q-14 -26 -39 -45q-21 -17 -54.5 -31t-84.5 -14q-61 0 -101 18t-64 51t-33.5 79t-9.5 102q0 24 4 59t14.5 72.5t29.5 75t48 67.5t70.5 48.5t97.5 18.5q38 0 67 -8t50 -20.5t34 -29.5t19 -35q17 26 43 46q22 17 56.5 32t83.5 15t83 -11.5t55 -31.5
t30.5 -46.5t9.5 -56.5zM729 433q0 15 -3.5 29.5t-13 26.5t-25 19.5t-39.5 7.5q-26 0 -49 -9.5t-42 -33t-33 -63.5t-21 -100q7 -1 18 -2q9 -1 24 -1.5t36 -0.5q78 0 113 32t35 95zM405 346q0 57 -9 90t-23.5 50t-32.5 21.5t-36 4.5q-34 0 -58.5 -17.5t-41 -44.5t-27 -60.5
t-16 -66t-7 -59.5t-1.5 -42q0 -57 9 -90t23.5 -50t32.5 -21.5t36 -4.5q34 0 58.5 17.5t41 44.5t27 60.5t16 65.5t7 59.5t1.5 42.5z" />
    <glyph glyph-name="Racute" unicode="&#x154;" horiz-adv-x="593" 
d="M579 5q-5 -3 -14 -6q-17 -5 -52 -5q-27 0 -45.5 7t-32.5 20.5t-26 34t-26 48.5l-55 108q-18 35 -30 56.5t-23 33.5t-23.5 16t-31.5 4q-4 0 -7 -0.5t-5 -0.5h-4q-2 -12 -6 -45.5t-8.5 -72t-8 -74t-3.5 -50.5q0 -23 3 -36t8 -27l7 -17q-7 0 -19 1q-11 0 -27.5 0.5
t-39.5 0.5q-21 0 -37 -0.5t-27 -0.5q-13 -1 -22 -1l11 17q6 10 11 18.5t9.5 22t9 35.5t10 57t12.5 87t17 127q4 28 8.5 67.5t9 78.5t7.5 72t3 49q0 23 -3 37.5t-8 28.5l-7 17q9 -1 20 -1q9 -1 22 -1h28q10 0 25 0.5t30.5 1l31 1t27.5 0.5q55 0 100.5 -6.5t78.5 -25.5
t51.5 -52.5t18.5 -87.5q0 -47 -14 -80.5t-35.5 -55.5t-48.5 -34.5t-53.5 -19t-49.5 -8t-36 -0.5q32 -4 53.5 -15.5t37 -30.5t28 -44t27.5 -56l37 -80q20 -42 38.5 -70.5t47.5 -42.5zM434 535q0 68 -35.5 92.5t-102.5 24.5q-10 0 -19 -0.5t-16 -0.5q-9 -1 -16 -1l-33 -263
q7 -1 16 -1q8 -1 17.5 -1h21.5q6 0 20 0.5t26 2.5q62 6 91.5 46t29.5 101zM477 906q-6 -12 -18 -26q-11 -13 -28.5 -30t-46.5 -37q-26 -19 -48 -30.5t-39 -17.5q-19 -8 -35 -11l100 152h115z" />
    <glyph glyph-name="racute" unicode="&#x155;" horiz-adv-x="386" 
d="M422 775q-6 -12 -18 -26q-11 -13 -28.5 -30t-46.5 -37q-26 -19 -48 -30.5t-39 -17.5q-19 -8 -35 -11l100 152h115zM417 563q-1 -5 -3 -14q-2 -8 -4.5 -20.5t-4.5 -31.5q-3 -20 -5 -34t-3 -22q-1 -10 -1 -16q-13 26 -29.5 41.5t-45.5 15.5q-26 0 -47 -15.5t-36 -34.5
q-18 -22 -32 -49l-15 -116q-11 -81 -17.5 -132.5t-9.5 -81.5q-4 -35 -5 -54q-6 0 -15 1q-8 0 -18 0.5t-23 0.5q-12 0 -22.5 -0.5t-18.5 -0.5q-10 -1 -17 -1q4 21 10 60q5 33 13 87.5t20 137.5q10 72 15.5 124.5t5.5 73.5q0 14 -2.5 29.5t-10.5 29.5l-6 10l141 25l-32 -188
q28 86 68 138.5t93 52.5q15 0 25.5 -2.5t17.5 -5.5q8 -4 14 -8z" />
    <glyph glyph-name="Rcommaaccent" unicode="&#x156;" horiz-adv-x="593" 
d="M335 -99q0 -26 -10.5 -47.5t-29.5 -38t-44 -27.5t-53 -16q14 10 25 23q10 11 18 26t8 33q0 13 -5 20.5t-10 11.5q-7 4 -15 6l2 16q3 23 19 38t40 20q22 -5 38.5 -19t16.5 -46zM579 5q-5 -3 -14 -6q-17 -5 -52 -5q-27 0 -45.5 7t-32.5 20.5t-26 34t-26 48.5l-55 108
q-18 35 -30 56.5t-23 33.5t-23.5 16t-31.5 4q-4 0 -7 -0.5t-5 -0.5h-4q-2 -12 -6 -45.5t-8.5 -72t-8 -74t-3.5 -50.5q0 -23 3 -36t8 -27l7 -17q-7 0 -19 1q-11 0 -27.5 0.5t-39.5 0.5q-21 0 -37 -0.5t-27 -0.5q-13 -1 -22 -1l11 17q6 10 11 18.5t9.5 22t9 35.5t10 57
t12.5 87t17 127q4 28 8.5 67.5t9 78.5t7.5 72t3 49q0 23 -3 37.5t-8 28.5l-7 17q9 -1 20 -1q9 -1 22 -1h28q10 0 25 0.5t30.5 1l31 1t27.5 0.5q55 0 100.5 -6.5t78.5 -25.5t51.5 -52.5t18.5 -87.5q0 -47 -14 -80.5t-35.5 -55.5t-48.5 -34.5t-53.5 -19t-49.5 -8t-36 -0.5
q32 -4 53.5 -15.5t37 -30.5t28 -44t27.5 -56l37 -80q20 -42 38.5 -70.5t47.5 -42.5zM434 535q0 68 -35.5 92.5t-102.5 24.5q-10 0 -19 -0.5t-16 -0.5q-9 -1 -16 -1l-33 -263q7 -1 16 -1q8 -1 17.5 -1h21.5q6 0 20 0.5t26 2.5q62 6 91.5 46t29.5 101z" />
    <glyph glyph-name="rcommaaccent" unicode="&#x157;" horiz-adv-x="386" 
d="M151 -99q0 -26 -10.5 -47.5t-29.5 -38t-44 -27.5t-53 -16q14 10 25 23q10 11 18 26t8 33q0 13 -5 20.5t-10 11.5q-7 4 -15 6l2 16q3 23 19 38t40 20q22 -5 38.5 -19t16.5 -46zM417 563q-1 -5 -3 -14q-2 -8 -4.5 -20.5t-4.5 -31.5q-3 -20 -5 -34t-3 -22q-1 -10 -1 -16
q-13 26 -29.5 41.5t-45.5 15.5q-26 0 -47 -15.5t-36 -34.5q-18 -22 -32 -49l-15 -116q-11 -81 -17.5 -132.5t-9.5 -81.5q-4 -35 -5 -54q-6 0 -15 1q-8 0 -18 0.5t-23 0.5q-12 0 -22.5 -0.5t-18.5 -0.5q-10 -1 -17 -1q4 21 10 60q5 33 13 87.5t20 137.5q10 72 15.5 124.5
t5.5 73.5q0 14 -2.5 29.5t-10.5 29.5l-6 10l141 25l-32 -188q28 86 68 138.5t93 52.5q15 0 25.5 -2.5t17.5 -5.5q8 -4 14 -8z" />
    <glyph glyph-name="Rcaron" unicode="&#x158;" horiz-adv-x="593" 
d="M500 918q-45 -40 -84.5 -79.5t-78.5 -85.5h-23l-67 76q-7 8 -21 23t-24 23l73 52q5 -12 12 -24.5t14 -23.5l24 -41q32 37 77.5 60.5t97.5 19.5zM579 5q-5 -3 -14 -6q-17 -5 -52 -5q-27 0 -45.5 7t-32.5 20.5t-26 34t-26 48.5l-55 108q-18 35 -30 56.5t-23 33.5t-23.5 16
t-31.5 4q-4 0 -7 -0.5t-5 -0.5h-4q-2 -12 -6 -45.5t-8.5 -72t-8 -74t-3.5 -50.5q0 -23 3 -36t8 -27l7 -17q-7 0 -19 1q-11 0 -27.5 0.5t-39.5 0.5q-21 0 -37 -0.5t-27 -0.5q-13 -1 -22 -1l11 17q6 10 11 18.5t9.5 22t9 35.5t10 57t12.5 87t17 127q4 28 8.5 67.5t9 78.5
t7.5 72t3 49q0 23 -3 37.5t-8 28.5l-7 17q9 -1 20 -1q9 -1 22 -1h28q10 0 25 0.5t30.5 1l31 1t27.5 0.5q55 0 100.5 -6.5t78.5 -25.5t51.5 -52.5t18.5 -87.5q0 -47 -14 -80.5t-35.5 -55.5t-48.5 -34.5t-53.5 -19t-49.5 -8t-36 -0.5q32 -4 53.5 -15.5t37 -30.5t28 -44
t27.5 -56l37 -80q20 -42 38.5 -70.5t47.5 -42.5zM434 535q0 68 -35.5 92.5t-102.5 24.5q-10 0 -19 -0.5t-16 -0.5q-9 -1 -16 -1l-33 -263q7 -1 16 -1q8 -1 17.5 -1h21.5q6 0 20 0.5t26 2.5q62 6 91.5 46t29.5 101z" />
    <glyph glyph-name="rcaron" unicode="&#x159;" horiz-adv-x="386" 
d="M433 775q-23 -20 -42 -37.5t-36.5 -35.5t-34.5 -37t-36 -42h-26l-57 63q-8 8 -22 23t-24 23l69 51q6 -12 13 -25t15 -24l21 -29q15 16 31 30t35 24t42 14.5t52 1.5zM417 563q-1 -5 -3 -14q-2 -8 -4.5 -20.5t-4.5 -31.5q-3 -20 -5 -34t-3 -22q-1 -10 -1 -16
q-13 26 -29.5 41.5t-45.5 15.5q-26 0 -47 -15.5t-36 -34.5q-18 -22 -32 -49l-15 -116q-11 -81 -17.5 -132.5t-9.5 -81.5q-4 -35 -5 -54q-6 0 -15 1q-8 0 -18 0.5t-23 0.5q-12 0 -22.5 -0.5t-18.5 -0.5q-10 -1 -17 -1q4 21 10 60q5 33 13 87.5t20 137.5q10 72 15.5 124.5
t5.5 73.5q0 14 -2.5 29.5t-10.5 29.5l-6 10l141 25l-32 -188q28 86 68 138.5t93 52.5q15 0 25.5 -2.5t17.5 -5.5q8 -4 14 -8z" />
    <glyph glyph-name="Sacute" unicode="&#x15a;" horiz-adv-x="485" 
d="M475 689q-1 -7 -3 -16q-2 -8 -3.5 -19.5t-3.5 -28.5q-4 -33 -6 -55q-1 -11 -2 -21q-11 23 -24.5 41.5t-32 31.5t-42.5 20t-57 7q-17 0 -37.5 -3.5t-38.5 -14t-30 -30.5t-12 -53q0 -20 6.5 -36t16.5 -29t23 -24t27 -22l60 -49q26 -21 48 -41t37.5 -42.5t24.5 -50.5t9 -65
q0 -41 -13 -77t-42 -62.5t-75.5 -41.5t-112.5 -15q-47 0 -81 4.5t-57 10.5q-26 6 -44 15q1 7 3 16q2 8 4 19t4 27q2 17 4 31.5t3 25.5q1 12 1 23q11 -23 24 -41.5t32 -32t45 -20.5t62 -7q24 0 48 4.5t42.5 17t30.5 34t12 55.5q0 29 -14.5 57t-44.5 52l-75 62
q-22 18 -42.5 35.5t-36.5 39.5t-25.5 48.5t-9.5 62.5q0 22 7.5 54.5t31.5 62.5t68.5 51t118.5 21q42 0 74 -5t54 -11q26 -7 44 -16zM458 906q-6 -12 -18 -26q-11 -13 -28.5 -30t-46.5 -37q-26 -19 -48 -30.5t-39 -17.5q-19 -8 -35 -11l100 152h115z" />
    <glyph glyph-name="sacute" unicode="&#x15b;" horiz-adv-x="419" 
d="M410 775q-6 -12 -18 -26q-11 -13 -28.5 -30t-46.5 -37q-26 -19 -48 -30.5t-39 -17.5q-19 -8 -35 -11l100 152h115zM395 548q-1 -5 -3 -14q-3 -15 -6 -46q-5 -32 -6 -51q-1 -11 -2 -21q-9 21 -20.5 39t-27 31t-36.5 20.5t-50 7.5q-50 0 -69.5 -21t-19.5 -50q0 -16 4 -27.5
t12 -22t19 -20t26 -20.5l49 -38q22 -17 40 -32.5t31.5 -33.5t21 -40.5t7.5 -52.5q0 -23 -7.5 -51t-29 -53t-59.5 -42t-99 -17q-39 0 -68 4.5t-49 9.5q-23 6 -38 15q1 5 3 14q2 8 3 18.5t3 26.5t3.5 29.5t2.5 24.5q1 12 2 22q8 -17 18.5 -35t26.5 -32t39 -23t58 -9
q26 0 43.5 7.5t28 19.5t15 26t4.5 27q0 34 -16 54t-42 40l-54 41q-50 38 -70.5 72t-20.5 82q0 67 45.5 109.5t138.5 42.5q38 0 65.5 -5t46.5 -11q22 -7 37 -15z" />
    <glyph glyph-name="Scircumflex" unicode="&#x15c;" horiz-adv-x="485" 
d="M475 689q-1 -7 -3 -16q-2 -8 -3.5 -19.5t-3.5 -28.5q-4 -33 -6 -55q-1 -11 -2 -21q-11 23 -24.5 41.5t-32 31.5t-42.5 20t-57 7q-17 0 -37.5 -3.5t-38.5 -14t-30 -30.5t-12 -53q0 -20 6.5 -36t16.5 -29t23 -24t27 -22l60 -49q26 -21 48 -41t37.5 -42.5t24.5 -50.5t9 -65
q0 -41 -13 -77t-42 -62.5t-75.5 -41.5t-112.5 -15q-47 0 -81 4.5t-57 10.5q-26 6 -44 15q1 7 3 16q2 8 4 19t4 27q2 17 4 31.5t3 25.5q1 12 1 23q11 -23 24 -41.5t32 -32t45 -20.5t62 -7q24 0 48 4.5t42.5 17t30.5 34t12 55.5q0 29 -14.5 57t-44.5 52l-75 62
q-22 18 -42.5 35.5t-36.5 39.5t-25.5 48.5t-9.5 62.5q0 22 7.5 54.5t31.5 62.5t68.5 51t118.5 21q42 0 74 -5t54 -11q26 -7 44 -16zM462 753q-48 2 -89 22.5t-64 52.5q-39 -38 -89.5 -56t-92.5 -19l155 152h67z" />
    <glyph glyph-name="scircumflex" unicode="&#x15d;" horiz-adv-x="419" 
d="M408 623q-48 2 -89 21.5t-64 53.5q-39 -38 -89.5 -56t-92.5 -19l156 152h66zM395 548q-1 -5 -3 -14q-3 -15 -6 -46q-5 -32 -6 -51q-1 -11 -2 -21q-9 21 -20.5 39t-27 31t-36.5 20.5t-50 7.5q-50 0 -69.5 -21t-19.5 -50q0 -16 4 -27.5t12 -22t19 -20t26 -20.5l49 -38
q22 -17 40 -32.5t31.5 -33.5t21 -40.5t7.5 -52.5q0 -23 -7.5 -51t-29 -53t-59.5 -42t-99 -17q-39 0 -68 4.5t-49 9.5q-23 6 -38 15q1 5 3 14q2 8 3 18.5t3 26.5t3.5 29.5t2.5 24.5q1 12 2 22q8 -17 18.5 -35t26.5 -32t39 -23t58 -9q26 0 43.5 7.5t28 19.5t15 26t4.5 27
q0 34 -16 54t-42 40l-54 41q-50 38 -70.5 72t-20.5 82q0 67 45.5 109.5t138.5 42.5q38 0 65.5 -5t46.5 -11q22 -7 37 -15z" />
    <glyph glyph-name="Scedilla" unicode="&#x15e;" horiz-adv-x="485" 
d="M475 689q-1 -7 -3 -16q-2 -8 -3.5 -19.5t-3.5 -28.5q-4 -33 -6 -55q-1 -11 -2 -21q-11 23 -24.5 41.5t-32 31.5t-42.5 20t-57 7q-17 0 -37.5 -3.5t-38.5 -14t-30 -30.5t-12 -53q0 -20 6.5 -36t16.5 -29t23 -24t27 -22l60 -49q26 -21 48 -41t37.5 -42.5t24.5 -50.5t9 -65
q0 -38 -11 -71.5t-35 -59t-62.5 -42.5t-93.5 -21q-9 -14 -9 -23q0 -8 5.5 -13.5t14.5 -11.5l12 -9q8 -6 20.5 -19t12.5 -36q0 -28 -14.5 -46.5t-36 -29.5t-47 -15.5t-46.5 -4.5h-8t-8 1q4 2 16.5 9t26 18t23.5 25.5t10 31.5q0 11 -4 19.5t-12 21.5l-5 8q-4 7 -7.5 14
t-3.5 17q0 11 5 22t13 19q-47 0 -80.5 4.5t-56.5 10.5q-26 6 -44 15q1 7 3 16q2 8 4 19t4 27q2 17 4 31.5t3 25.5q1 12 1 23q11 -23 24 -41.5t32 -32t45 -20.5t62 -7q24 0 48 4.5t42.5 17t30.5 34t12 55.5q0 29 -14.5 57t-44.5 52l-75 62q-22 18 -42.5 35.5t-36.5 39.5
t-25.5 48.5t-9.5 62.5q0 22 7.5 54.5t31.5 62.5t68.5 51t118.5 21q42 0 74 -5t54 -11q26 -7 44 -16z" />
    <glyph glyph-name="scedilla" unicode="&#x15f;" horiz-adv-x="419" 
d="M395 548q-1 -5 -3 -14q-3 -15 -6 -46q-5 -32 -6 -51q-1 -11 -2 -21q-9 21 -20.5 39t-27 31t-36.5 20.5t-50 7.5q-50 0 -69.5 -21t-19.5 -50q0 -16 4 -27.5t12 -22t19 -20t26 -20.5l49 -38q22 -17 40 -32.5t31.5 -33.5t21 -40.5t7.5 -52.5q0 -21 -6.5 -46.5t-23.5 -49
t-47.5 -41.5t-79.5 -24q-10 -13 -10 -23q0 -8 5.5 -13.5t14.5 -11.5l12 -9q8 -6 20.5 -19t12.5 -36q0 -28 -14.5 -46.5t-36 -29.5t-47 -15.5t-46.5 -4.5h-8t-8 1q4 2 16.5 9t26 18t23.5 25.5t10 31.5q0 11 -4 19.5t-12 21.5l-5 8q-4 7 -7.5 14t-3.5 17q0 11 5 22t13 19
q-38 0 -66 5t-47 10q-22 6 -37 14q1 5 3 14q2 8 3 18.5t3 26.5t3.5 29.5t2.5 24.5q1 12 2 22q8 -17 18.5 -35t26.5 -32t39 -23t58 -9q26 0 43.5 7.5t28 19.5t15 26t4.5 27q0 34 -16 54t-42 40l-54 41q-50 38 -70.5 72t-20.5 82q0 67 45.5 109.5t138.5 42.5q38 0 65.5 -5
t46.5 -11q22 -7 37 -15z" />
    <glyph glyph-name="Scaron" unicode="&#x160;" horiz-adv-x="485" 
d="M475 689q-1 -7 -3 -16q-2 -8 -3.5 -19.5t-3.5 -28.5q-4 -33 -6 -55q-1 -11 -2 -21q-11 23 -24.5 41.5t-32 31.5t-42.5 20t-57 7q-17 0 -37.5 -3.5t-38.5 -14t-30 -30.5t-12 -53q0 -20 6.5 -36t16.5 -29t23 -24t27 -22l60 -49q26 -21 48 -41t37.5 -42.5t24.5 -50.5t9 -65
q0 -41 -13 -77t-42 -62.5t-75.5 -41.5t-112.5 -15q-47 0 -81 4.5t-57 10.5q-26 6 -44 15q1 7 3 16q2 8 4 19t4 27q2 17 4 31.5t3 25.5q1 12 1 23q11 -23 24 -41.5t32 -32t45 -20.5t62 -7q24 0 48 4.5t42.5 17t30.5 34t12 55.5q0 29 -14.5 57t-44.5 52l-75 62
q-22 18 -42.5 35.5t-36.5 39.5t-25.5 48.5t-9.5 62.5q0 22 7.5 54.5t31.5 62.5t68.5 51t118.5 21q42 0 74 -5t54 -11q26 -7 44 -16zM476 918q-45 -40 -84.5 -79.5t-78.5 -85.5h-23l-67 76q-7 8 -21 23t-24 23l73 52q5 -12 12 -24.5t14 -23.5l24 -41q32 37 77.5 60.5
t97.5 19.5z" />
    <glyph glyph-name="scaron" unicode="&#x161;" horiz-adv-x="419" 
d="M417 775q-23 -20 -42 -37.5t-36.5 -35.5t-34.5 -37t-36 -42h-26l-57 63q-8 8 -22 23t-24 23l69 51q6 -12 13 -25t15 -24l21 -29q15 16 31 30t35 24t42 14.5t52 1.5zM395 548q-1 -5 -3 -14q-3 -15 -6 -46q-5 -32 -6 -51q-1 -11 -2 -21q-9 21 -20.5 39t-27 31t-36.5 20.5
t-50 7.5q-50 0 -69.5 -21t-19.5 -50q0 -16 4 -27.5t12 -22t19 -20t26 -20.5l49 -38q22 -17 40 -32.5t31.5 -33.5t21 -40.5t7.5 -52.5q0 -23 -7.5 -51t-29 -53t-59.5 -42t-99 -17q-39 0 -68 4.5t-49 9.5q-23 6 -38 15q1 5 3 14q2 8 3 18.5t3 26.5t3.5 29.5t2.5 24.5
q1 12 2 22q8 -17 18.5 -35t26.5 -32t39 -23t58 -9q26 0 43.5 7.5t28 19.5t15 26t4.5 27q0 34 -16 54t-42 40l-54 41q-50 38 -70.5 72t-20.5 82q0 67 45.5 109.5t138.5 42.5q38 0 65.5 -5t46.5 -11q22 -7 37 -15z" />
    <glyph glyph-name="Tcommaaccent" unicode="&#x162;" horiz-adv-x="515" 
d="M309 -1q-7 1 -18 1h-22.5t-31.5 1q-5 -8 -9.5 -15t-4.5 -14q0 -8 5.5 -13.5t14.5 -11.5l12 -9q8 -6 20.5 -19t12.5 -36q0 -28 -14.5 -46.5t-36 -29.5t-47 -15.5t-46.5 -4.5h-8t-8 1q4 2 16.5 9t26 18t23.5 25.5t10 31.5q0 11 -4 19.5t-12 21.5l-5 8q-4 7 -7.5 14t-3.5 17
q0 14 8.5 27.5t16.5 21.5q-17 -1 -29 -1h-20q-10 0 -16 -1l11 17q9 13 15.5 26.5t13.5 46.5t16.5 96t23.5 176l35 282h-57q-34 0 -61.5 -6.5t-46.5 -17.5q-11 -7 -17.5 -11.5t-11.5 -8.5t-8 -8q2 11 5 24q2 11 4.5 26.5t4.5 33.5l4 37h496q-1 -4 -2 -12.5t-3 -23.5
q-5 -36 -6.5 -59.5t-1.5 -25.5q-1 1 -6.5 8t-24.5 20q-16 11 -41 17.5t-59 6.5h-58l-38 -292q-4 -29 -8.5 -68.5t-9 -78.5t-7.5 -72.5t-3 -49.5q0 -23 2.5 -37.5t8.5 -28.5l7 -17v0z" />
    <glyph glyph-name="tcommaaccent" unicode="&#x163;" horiz-adv-x="379" 
d="M393 574q-1 -5 -2 -11q-1 -5 -1.5 -13.5t-2.5 -19.5t-2.5 -19.5t-1.5 -13.5q-1 -6 -1 -11q-5 2 -17 5q-11 2 -29.5 3.5t-49.5 1.5h-63l-37 -278l-2.5 -20t-2.5 -24t-1.5 -22.5t-0.5 -16.5q0 -12 1.5 -26t8.5 -25.5t22 -19.5t41 -8q20 0 36 4.5t27 10.5q12 7 22 16
q-4 -26 -19 -46q-13 -17 -39 -33t-71 -18q-6 -9 -6 -18q0 -8 5.5 -13.5t14.5 -11.5l12 -9q8 -6 20.5 -19t12.5 -36q0 -28 -14.5 -46.5t-36 -29.5t-47 -15.5t-46.5 -4.5h-8t-8 1q4 2 16.5 9t26 18t23.5 25.5t10 31.5q0 11 -4 19.5t-12 21.5l-5 8q-4 7 -7.5 14t-3.5 17
q0 11 5 21.5t12 18.5q-33 4 -52.5 17t-30 30.5t-13.5 37t-3 36.5q0 25 2.5 55.5t7.5 62.5q19 136 30 201q6 38 11 64h-66q2 1 25.5 23.5t57.5 64.5q17 22 30 41t22 33q11 17 18 31h41l-17 -126h63q31 0 50 1.5t30 3.5q12 3 19 6z" />
    <glyph glyph-name="Tcaron" unicode="&#x164;" horiz-adv-x="515" 
d="M493 918q-45 -40 -84.5 -79.5t-78.5 -85.5h-23l-67 76q-7 8 -21 23t-24 23l73 52q5 -12 12 -24.5t14 -23.5l24 -41q32 37 77.5 60.5t97.5 19.5zM309 -1q-9 0 -21 1q-11 0 -27 0.5t-39 0.5t-40 -0.5t-28 -0.5q-13 -1 -22 -1l11 17q9 13 15.5 26.5t13.5 46.5t16.5 96
t23.5 176l35 282h-57q-34 0 -61.5 -6.5t-46.5 -17.5q-11 -7 -17.5 -11.5t-11.5 -8.5t-8 -8q2 11 5 24q2 11 4.5 26.5t4.5 33.5l4 37h496q-1 -4 -2 -12.5t-3 -23.5q-5 -36 -6.5 -59.5t-1.5 -25.5q-1 1 -6.5 8t-24.5 20q-16 11 -41 17.5t-59 6.5h-58l-38 -292
q-4 -29 -8.5 -68.5t-9 -78.5t-7.5 -72.5t-3 -49.5q0 -23 2.5 -37.5t8.5 -28.5z" />
    <glyph glyph-name="tcaron" unicode="&#x165;" horiz-adv-x="379" 
d="M275 592q11 28 18 57t11 56.5t5 51t0 40.5l100 12q-2 -68 -34.5 -124t-99.5 -93zM393 574q-1 -5 -2 -11q-1 -5 -1.5 -13.5t-2.5 -19.5t-2.5 -19.5t-1.5 -13.5q-1 -6 -1 -11q-5 2 -17 5q-11 2 -29.5 3.5t-49.5 1.5h-63l-37 -278l-2.5 -20t-2.5 -24t-1.5 -22.5t-0.5 -16.5
q0 -12 1.5 -26t8.5 -25.5t22 -19.5t41 -8q20 0 36 4.5t27 10.5q12 7 22 16q-4 -28 -21 -49q-14 -18 -42 -33t-79 -15q-42 0 -67 12.5t-38 31t-17 40t-4 39.5q0 25 2.5 55.5t7.5 62.5q19 136 30 201q6 38 11 64h-66q2 1 25.5 23.5t57.5 64.5q17 22 30 41t22 33q11 17 18 31
h41l-17 -126h63q31 0 50 1.5t30 3.5q12 3 19 6z" />
    <glyph glyph-name="Tbar" unicode="&#x166;" horiz-adv-x="515" 
d="M309 -1q-9 0 -21 1q-11 0 -27 0.5t-39 0.5t-40 -0.5t-28 -0.5q-13 -1 -22 -1l11 17q5 9 10 16.5t9 20t8.5 32t10 51t12 78.5t15.5 114h-27q-27 0 -45 -2.5t-29 -4.5q-13 -3 -20 -6q1 5 2 11q1 5 2 13.5t3 19.5t2 19t1 14q0 7 1 12q7 -4 19 -7q11 -3 28 -5t44 -2h26
l32 253h-57q-34 0 -61.5 -6.5t-46.5 -17.5q-11 -7 -17.5 -11.5t-11.5 -8.5t-8 -8q2 11 5 24q2 11 4.5 26.5t4.5 33.5l4 37h496q-1 -4 -2 -12.5t-3 -23.5q-5 -36 -6.5 -59.5t-1.5 -25.5q-1 1 -6.5 8t-24.5 20q-16 11 -41 17.5t-59 6.5h-58l-33 -253h26q26 0 44.5 2t29.5 5
q13 3 20 7q-1 -5 -2 -12q-1 -6 -2.5 -14.5t-2.5 -18.5q-2 -11 -2.5 -19.5t-1.5 -13.5q-1 -7 -1 -11q-6 3 -18 6q-11 2 -28.5 4.5t-43.5 2.5h-26q-4 -30 -8.5 -66.5t-8 -71.5t-6 -64t-2.5 -44q0 -23 2.5 -37.5t8.5 -28.5l7 -17v0z" />
    <glyph glyph-name="tbar" unicode="&#x167;" horiz-adv-x="379" 
d="M393 574q-1 -5 -2 -11q-1 -5 -1.5 -13.5t-2.5 -19.5t-2.5 -19.5t-1.5 -13.5q-1 -6 -1 -11q-5 2 -17 5q-11 2 -29.5 3.5t-49.5 1.5h-63l-21 -158h54q25 0 41.5 1.5t27.5 3.5q12 2 19 5q-1 -4 -2 -9t-2 -12t-3 -16q-3 -20 -3 -27v-9q-6 2 -17 5q-10 2 -26 4t-41 2h-55
l-9 -68l-2.5 -20t-2.5 -24t-1.5 -22.5t-0.5 -16.5q0 -12 1.5 -26t8.5 -25.5t22 -19.5t41 -8q20 0 36 4.5t27 10.5q12 7 22 16q-4 -28 -21 -49q-14 -18 -42 -33t-79 -15q-42 0 -67 12.5t-38 31t-17 40t-4 39.5q0 25 2.5 55.5t7.5 62.5l7 54q-16 -2 -26 -3t-17 -3
q-8 -2 -12 -4q0 4 2 9q1 5 2.5 11t3.5 16q1 9 1 16t1 12q0 5 1 9q4 -2 11 -4q6 -2 16 -3t25 -2q6 40 10.5 69.5t8.5 49.5q4 23 7 38h-66q2 1 25.5 23.5t57.5 64.5q17 22 30 41t22 33q11 17 18 31h41l-17 -126h63q31 0 50 1.5t30 3.5q12 3 19 6z" />
    <glyph glyph-name="Utilde" unicode="&#x168;" horiz-adv-x="668" 
d="M577 892q-7 -56 -33.5 -87.5t-68.5 -31.5q-15 0 -28 3t-23 7l-57 21q-12 5 -20 6.5t-21 1.5q-17 0 -30.5 -7.5t-24.5 -16.5q-12 -11 -23 -24q7 55 33.5 87t69.5 32q15 0 27 -3t22 -7l58 -21q12 -5 20 -6.5t21 -1.5q16 0 30 7.5t25 16.5q12 11 23 24zM665 696
q-9 -14 -15.5 -29t-13.5 -49t-16.5 -97t-22.5 -173l-5 -40q-4 -34 -8.5 -71.5t-14 -73t-26.5 -67.5t-46.5 -56t-73.5 -38t-108 -14q-56 0 -101 10t-77.5 33.5t-50 61t-17.5 92.5q0 38 4.5 81t11.5 90l4 33q4 31 8.5 67.5t8.5 70.5t6.5 61.5t2.5 41.5q0 23 -2.5 37.5
t-8.5 28.5l-7 17q7 -1 19 -1q11 -1 27.5 -1h40.5h40.5t27.5 1q12 0 21 1l-11 -17q-7 -10 -12.5 -20t-10 -24.5t-9 -36.5t-10 -57.5t-13 -86.5t-16.5 -124l-5 -40q-5 -38 -7 -71t-2 -45q0 -29 6 -53t21.5 -41.5t43.5 -27t73 -9.5q63 0 99.5 27t51.5 73q7 22 11.5 50t8.5 56
l13 96q4 28 9 67.5t9.5 78.5t7.5 72.5t3 49.5q0 23 -2.5 37.5t-8.5 28.5l-7 17q11 -1 23 -1q11 -1 25.5 -1h31.5h32t26 1q12 0 22 1z" />
    <glyph glyph-name="utilde" unicode="&#x169;" horiz-adv-x="592" 
d="M547 575q-3 -21 -9 -60q-5 -33 -13.5 -87.5t-19.5 -137.5q-4 -27 -8.5 -59.5t-8.5 -62t-6.5 -52.5t-2.5 -31q0 -12 3 -21t16 -19l13 -10q-8 -13 -20 -23q-11 -8 -26.5 -15t-38.5 -7q-20 0 -31.5 6.5t-17 15.5t-7 19t-1.5 17q0 16 2.5 37.5t6.5 41.5q4 23 10 46
q-27 -64 -55.5 -101t-56 -55.5t-52.5 -23.5t-46 -5q-43 0 -66 13.5t-34 32.5t-13 39t-2 33q0 17 3 47t8 66t10.5 75.5t10.5 74.5t8 63.5t3 43.5q0 20 -2 35t-9 27l-7 12l145 25q-17 -103 -30 -191q-6 -38 -11 -75.5t-9.5 -71t-7 -59.5t-2.5 -40q0 -10 1 -22t7 -22
t18.5 -16.5t34.5 -6.5q40 0 75 25.5t75 82.5l16 116q11 71 15.5 114.5t4.5 66.5q0 20 -2 35t-10 27l-6 12zM523 761q-7 -55 -33.5 -87t-68.5 -32q-15 0 -28 3t-23 7l-57 21q-12 5 -20 6.5t-21 1.5q-17 0 -30.5 -7.5t-24.5 -16.5q-12 -11 -23 -24q7 55 33.5 87t69.5 32
q15 0 27 -3t22 -7l58 -21q12 -5 20 -6.5t21 -1.5q16 0 30 7.5t25 16.5q12 11 23 24z" />
    <glyph glyph-name="Umacron" unicode="&#x16a;" horiz-adv-x="668" 
d="M266 787l8 71h280l-8 -71h-280zM665 696q-9 -14 -15.5 -29t-13.5 -49t-16.5 -97t-22.5 -173l-5 -40q-4 -34 -8.5 -71.5t-14 -73t-26.5 -67.5t-46.5 -56t-73.5 -38t-108 -14q-56 0 -101 10t-77.5 33.5t-50 61t-17.5 92.5q0 38 4.5 81t11.5 90l4 33q4 31 8.5 67.5t8.5 70.5
t6.5 61.5t2.5 41.5q0 23 -2.5 37.5t-8.5 28.5l-7 17q7 -1 19 -1q11 -1 27.5 -1h40.5h40.5t27.5 1q12 0 21 1l-11 -17q-7 -10 -12.5 -20t-10 -24.5t-9 -36.5t-10 -57.5t-13 -86.5t-16.5 -124l-5 -40q-5 -38 -7 -71t-2 -45q0 -29 6 -53t21.5 -41.5t43.5 -27t73 -9.5
q63 0 99.5 27t51.5 73q7 22 11.5 50t8.5 56l13 96q4 28 9 67.5t9.5 78.5t7.5 72.5t3 49.5q0 23 -2.5 37.5t-8.5 28.5l-7 17q11 -1 23 -1q11 -1 25.5 -1h31.5h32t26 1q12 0 22 1z" />
    <glyph glyph-name="umacron" unicode="&#x16b;" horiz-adv-x="592" 
d="M547 575q-3 -21 -9 -60q-5 -33 -13.5 -87.5t-19.5 -137.5q-4 -27 -8.5 -59.5t-8.5 -62t-6.5 -52.5t-2.5 -31q0 -12 3 -21t16 -19l13 -10q-8 -13 -20 -23q-11 -8 -26.5 -15t-38.5 -7q-20 0 -31.5 6.5t-17 15.5t-7 19t-1.5 17q0 16 2.5 37.5t6.5 41.5q4 23 10 46
q-27 -64 -55.5 -101t-56 -55.5t-52.5 -23.5t-46 -5q-43 0 -66 13.5t-34 32.5t-13 39t-2 33q0 17 3 47t8 66t10.5 75.5t10.5 74.5t8 63.5t3 43.5q0 20 -2 35t-9 27l-7 12l145 25q-17 -103 -30 -191q-6 -38 -11 -75.5t-9.5 -71t-7 -59.5t-2.5 -40q0 -10 1 -22t7 -22
t18.5 -16.5t34.5 -6.5q40 0 75 25.5t75 82.5l16 116q11 71 15.5 114.5t4.5 66.5q0 20 -2 35t-10 27l-6 12zM207 657l8 70h280l-8 -70h-280z" />
    <glyph glyph-name="Ubreve" unicode="&#x16c;" horiz-adv-x="668" 
d="M275 923q17 -35 45 -61t79 -26q50 0 88.5 22.5t70.5 64.5q-5 -36 -18 -66t-34 -52t-49 -34.5t-63 -12.5q-33 0 -57 12.5t-39 34.5t-21 52t-2 66zM665 696q-9 -14 -15.5 -29t-13.5 -49t-16.5 -97t-22.5 -173l-5 -40q-4 -34 -8.5 -71.5t-14 -73t-26.5 -67.5t-46.5 -56
t-73.5 -38t-108 -14q-56 0 -101 10t-77.5 33.5t-50 61t-17.5 92.5q0 38 4.5 81t11.5 90l4 33q4 31 8.5 67.5t8.5 70.5t6.5 61.5t2.5 41.5q0 23 -2.5 37.5t-8.5 28.5l-7 17q7 -1 19 -1q11 -1 27.5 -1h40.5h40.5t27.5 1q12 0 21 1l-11 -17q-7 -10 -12.5 -20t-10 -24.5
t-9 -36.5t-10 -57.5t-13 -86.5t-16.5 -124l-5 -40q-5 -38 -7 -71t-2 -45q0 -29 6 -53t21.5 -41.5t43.5 -27t73 -9.5q63 0 99.5 27t51.5 73q7 22 11.5 50t8.5 56l13 96q4 28 9 67.5t9.5 78.5t7.5 72.5t3 49.5q0 23 -2.5 37.5t-8.5 28.5l-7 17q11 -1 23 -1q11 -1 25.5 -1h31.5
h32t26 1q12 0 22 1z" />
    <glyph glyph-name="ubreve" unicode="&#x16d;" horiz-adv-x="592" 
d="M547 575q-3 -21 -9 -60q-5 -33 -13.5 -87.5t-19.5 -137.5q-4 -27 -8.5 -59.5t-8.5 -62t-6.5 -52.5t-2.5 -31q0 -12 3 -21t16 -19l13 -10q-8 -13 -20 -23q-11 -8 -26.5 -15t-38.5 -7q-20 0 -31.5 6.5t-17 15.5t-7 19t-1.5 17q0 16 2.5 37.5t6.5 41.5q4 23 10 46
q-27 -64 -55.5 -101t-56 -55.5t-52.5 -23.5t-46 -5q-43 0 -66 13.5t-34 32.5t-13 39t-2 33q0 17 3 47t8 66t10.5 75.5t10.5 74.5t8 63.5t3 43.5q0 20 -2 35t-9 27l-7 12l145 25q-17 -103 -30 -191q-6 -38 -11 -75.5t-9.5 -71t-7 -59.5t-2.5 -40q0 -10 1 -22t7 -22
t18.5 -16.5t34.5 -6.5q40 0 75 25.5t75 82.5l16 116q11 71 15.5 114.5t4.5 66.5q0 20 -2 35t-10 27l-6 12zM221 793q17 -35 45 -61t79 -26q50 0 88.5 22.5t70.5 64.5q-5 -36 -18 -66t-34 -52t-49 -34.5t-63 -12.5q-33 0 -57 12.5t-39 34.5t-21 52t-2 66z" />
    <glyph glyph-name="Uring" unicode="&#x16e;" horiz-adv-x="668" 
d="M665 696q-9 -14 -15.5 -29t-13.5 -49t-16.5 -97t-22.5 -173l-5 -40q-4 -34 -8.5 -71.5t-14 -73t-26.5 -67.5t-46.5 -56t-73.5 -38t-108 -14q-56 0 -101 10t-77.5 33.5t-50 61t-17.5 92.5q0 38 4.5 81t11.5 90l4 33q4 31 8.5 67.5t8.5 70.5t6.5 61.5t2.5 41.5
q0 23 -2.5 37.5t-8.5 28.5l-7 17q7 -1 19 -1q11 -1 27.5 -1h40.5h40.5t27.5 1q12 0 21 1l-11 -17q-7 -10 -12.5 -20t-10 -24.5t-9 -36.5t-10 -57.5t-13 -86.5t-16.5 -124l-5 -40q-5 -38 -7 -71t-2 -45q0 -29 6 -53t21.5 -41.5t43.5 -27t73 -9.5q63 0 99.5 27t51.5 73
q7 22 11.5 50t8.5 56l13 96q4 28 9 67.5t9.5 78.5t7.5 72.5t3 49.5q0 23 -2.5 37.5t-8.5 28.5l-7 17q11 -1 23 -1q11 -1 25.5 -1h31.5h32t26 1q12 0 22 1zM507 845q0 -54 -33 -82t-78 -28q-44 0 -73 27.5t-29 74.5q0 27 9 47t24 34t35 21t42 7q45 0 74 -27.5t29 -73.5z
M457 843q0 27 -16 42.5t-39 15.5q-26 0 -42 -17.5t-16 -45.5q0 -27 16 -42.5t38 -15.5q26 0 42.5 17.5t16.5 45.5z" />
    <glyph glyph-name="uring" unicode="&#x16f;" horiz-adv-x="592" 
d="M450 719q0 -54 -33 -82t-78 -28q-44 0 -73 27.5t-29 74.5q0 27 9 47.5t24 34.5t35 21t42 7q45 0 74 -28t29 -74zM400 718q0 26 -16 41.5t-39 15.5q-26 0 -42 -17t-16 -46q0 -26 16 -41.5t38 -15.5q26 0 42.5 17t16.5 46zM547 575q-3 -21 -9 -60q-5 -33 -13.5 -87.5
t-19.5 -137.5q-4 -27 -8.5 -59.5t-8.5 -62t-6.5 -52.5t-2.5 -31q0 -12 3 -21t16 -19l13 -10q-8 -13 -20 -23q-11 -8 -26.5 -15t-38.5 -7q-20 0 -31.5 6.5t-17 15.5t-7 19t-1.5 17q0 16 2.5 37.5t6.5 41.5q4 23 10 46q-27 -64 -55.5 -101t-56 -55.5t-52.5 -23.5t-46 -5
q-43 0 -66 13.5t-34 32.5t-13 39t-2 33q0 17 3 47t8 66t10.5 75.5t10.5 74.5t8 63.5t3 43.5q0 20 -2 35t-9 27l-7 12l145 25q-17 -103 -30 -191q-6 -38 -11 -75.5t-9.5 -71t-7 -59.5t-2.5 -40q0 -10 1 -22t7 -22t18.5 -16.5t34.5 -6.5q40 0 75 25.5t75 82.5l16 116
q11 71 15.5 114.5t4.5 66.5q0 20 -2 35t-10 27l-6 12z" />
    <glyph glyph-name="Uhungarumlaut" unicode="&#x170;" horiz-adv-x="668" 
d="M665 696q-9 -14 -15.5 -29t-13.5 -49t-16.5 -97t-22.5 -173l-5 -40q-4 -34 -8.5 -71.5t-14 -73t-26.5 -67.5t-46.5 -56t-73.5 -38t-108 -14q-56 0 -101 10t-77.5 33.5t-50 61t-17.5 92.5q0 38 4.5 81t11.5 90l4 33q4 31 8.5 67.5t8.5 70.5t6.5 61.5t2.5 41.5
q0 23 -2.5 37.5t-8.5 28.5l-7 17q7 -1 19 -1q11 -1 27.5 -1h40.5h40.5t27.5 1q12 0 21 1l-11 -17q-7 -10 -12.5 -20t-10 -24.5t-9 -36.5t-10 -57.5t-13 -86.5t-16.5 -124l-5 -40q-5 -38 -7 -71t-2 -45q0 -29 6 -53t21.5 -41.5t43.5 -27t73 -9.5q63 0 99.5 27t51.5 73
q7 22 11.5 50t8.5 56l13 96q4 28 9 67.5t9.5 78.5t7.5 72.5t3 49.5q0 23 -2.5 37.5t-8.5 28.5l-7 17q11 -1 23 -1q11 -1 25.5 -1h31.5h32t26 1q12 0 22 1zM469 906q-6 -12 -18 -26q-11 -13 -28.5 -30t-46.5 -37q-26 -19 -48 -30.5t-39 -17.5q-19 -8 -35 -11l100 152h115z
M663 906q-6 -12 -18 -26q-11 -13 -28.5 -30t-46.5 -37q-26 -19 -48 -30.5t-39 -17.5q-19 -8 -35 -11l100 152h115z" />
    <glyph glyph-name="uhungarumlaut" unicode="&#x171;" horiz-adv-x="592" 
d="M547 575q-3 -21 -9 -60q-5 -33 -13.5 -87.5t-19.5 -137.5q-4 -27 -8.5 -59.5t-8.5 -62t-6.5 -52.5t-2.5 -31q0 -12 3 -21t16 -19l13 -10q-8 -13 -20 -23q-11 -8 -26.5 -15t-38.5 -7q-20 0 -31.5 6.5t-17 15.5t-7 19t-1.5 17q0 16 2.5 37.5t6.5 41.5q4 23 10 46
q-27 -64 -55.5 -101t-56 -55.5t-52.5 -23.5t-46 -5q-43 0 -66 13.5t-34 32.5t-13 39t-2 33q0 17 3 47t8 66t10.5 75.5t10.5 74.5t8 63.5t3 43.5q0 20 -2 35t-9 27l-7 12l145 25q-17 -103 -30 -191q-6 -38 -11 -75.5t-9.5 -71t-7 -59.5t-2.5 -40q0 -10 1 -22t7 -22
t18.5 -16.5t34.5 -6.5q40 0 75 25.5t75 82.5l16 116q11 71 15.5 114.5t4.5 66.5q0 20 -2 35t-10 27l-6 12zM424 775q-6 -12 -18 -26q-11 -13 -28.5 -30t-46.5 -37q-26 -19 -48 -30.5t-39 -17.5q-19 -8 -35 -11l100 152h115zM618 775q-6 -12 -18 -26q-11 -13 -28.5 -30
t-46.5 -37q-26 -19 -48 -30.5t-39 -17.5q-19 -8 -35 -11l100 152h115z" />
    <glyph glyph-name="Uogonek" unicode="&#x172;" horiz-adv-x="668" 
d="M242 -138q0 46 30.5 76.5t70.5 50.5q-7 0 -13.5 -0.5t-14.5 -0.5q-56 0 -101 10t-77.5 33.5t-50 61t-17.5 92.5q0 38 4.5 81t11.5 90l4 33q4 31 8.5 67.5t8.5 70.5t6.5 61.5t2.5 41.5q0 23 -2.5 37.5t-8.5 28.5l-7 17q7 -1 19 -1q11 -1 27.5 -1h40.5h40.5t27.5 1
q12 0 21 1l-11 -17q-7 -10 -12.5 -20t-10 -24.5t-9 -36.5t-10 -57.5t-13 -86.5t-16.5 -124l-5 -40q-5 -38 -7 -71t-2 -45q0 -29 6 -53t21.5 -41.5t43.5 -27t73 -9.5q63 0 99.5 27t51.5 73q7 22 11.5 50t8.5 56l13 96q4 28 9 67.5t9.5 78.5t7.5 72.5t3 49.5q0 23 -2.5 37.5
t-8.5 28.5l-7 17q11 -1 23 -1q11 -1 25.5 -1h31.5h32t26 1q12 0 22 1l-11 -17q-9 -14 -15.5 -29t-13.5 -49t-16.5 -97t-22.5 -173l-5 -40q-5 -43 -11 -87t-21.5 -84.5t-45.5 -75t-82 -59.5q-15 -7 -31.5 -19.5t-31 -29t-23.5 -36.5t-9 -42q0 -54 77 -66q-19 -10 -42 -15.5
t-43 -5.5q-36 0 -61.5 19.5t-25.5 54.5z" />
    <glyph glyph-name="uogonek" unicode="&#x173;" horiz-adv-x="592" 
d="M295 -138q0 24 9 44t24 36t34.5 28.5t40.5 22.5q-12 3 -18.5 10t-10 15t-4.5 16t-1 14q0 16 2.5 37.5t6.5 41.5q4 23 10 46q-27 -64 -55.5 -101t-56 -55.5t-52.5 -23.5t-46 -5q-43 0 -66 13.5t-34 32.5t-13 39t-2 33q0 17 3 47t8 66t10.5 75.5t10.5 74.5t8 63.5t3 43.5
q0 20 -2 35t-9 27l-7 12l145 25q-17 -103 -30 -191q-6 -38 -11 -75.5t-9.5 -71t-7 -59.5t-2.5 -40q0 -10 1 -22t7 -22t18.5 -16.5t34.5 -6.5q40 0 75 25.5t75 82.5l16 116q11 71 15.5 114.5t4.5 66.5q0 20 -2 35t-10 27l-6 12l145 25q-3 -21 -9 -60q-5 -33 -13.5 -87.5
t-19.5 -137.5q-4 -27 -8.5 -59.5t-8.5 -62t-6.5 -52.5t-2.5 -31q0 -12 3 -21t16 -19l13 -10q-2 -5 -6 -9q-3 -4 -7.5 -8.5t-10.5 -8.5q-14 -10 -31 -23t-31.5 -29.5t-24.5 -37t-10 -44.5q0 -54 77 -66q-19 -10 -42 -15.5t-43 -5.5q-36 0 -61.5 19.5t-25.5 54.5z" />
    <glyph glyph-name="Wcircumflex" unicode="&#x174;" horiz-adv-x="978" 
d="M954 711q45 0 66.5 1t22.5 1q0 -1 -7.5 -7t-18.5 -23q-14 -20 -32.5 -80.5t-49.5 -151t-79 -206.5t-121 -246q-7 0 -18 1q-9 0 -21.5 0.5t-29.5 0.5t-30 -0.5t-22 -0.5q-11 -1 -19 -1l-63 564q-2 23 -2 39.5v17.5q-1 -3 -4.5 -18.5t-11.5 -38.5l-199 -564q-9 0 -20 1
q-10 0 -23.5 0.5t-30.5 0.5t-31 -0.5t-24 -0.5q-11 -1 -21 -1l-64 477q-8 61 -14 100.5t-12.5 65.5t-14 41.5t-18.5 29.5q10 -1 24 -1q12 -1 29.5 -1h41.5h42.5t32.5 1q16 0 28 1q-19 -13 -29 -31t-11 -46v-24t1.5 -30.5t4.5 -42t7 -57.5l41 -370q3 -21 3 -37v-17
q0 2 4.5 17.5t11.5 36.5l212 601q9 -1 20 -1q9 -1 21 -1h26h26t22 1q11 0 21 1l70 -644q20 41 43 93t45 107.5t42.5 112.5t36 109t25 96t9.5 74q0 16 -4.5 28.5t-18.5 23.5q9 -1 21 -1q11 -1 26.5 -1h37.5zM711 753q-48 2 -89 22.5t-64 52.5q-39 -38 -89.5 -56t-92.5 -19
l155 152h67z" />
    <glyph glyph-name="wcircumflex" unicode="&#x175;" horiz-adv-x="848" 
d="M620 623q-48 2 -89 21.5t-64 53.5q-39 -38 -89.5 -56t-92.5 -19l156 152h66zM821 513q0 -37 -11 -82.5t-29 -93.5t-40.5 -96.5t-45.5 -91.5t-45 -78t-38 -57l-11 -15q-6 0 -14 1q-7 0 -17.5 0.5t-23.5 0.5q-14 0 -24.5 -0.5t-18.5 -0.5q-9 -1 -16 -1l-43 411
q-3 26 -3.5 48.5t-0.5 24.5q-1 -4 -5.5 -25t-13.5 -47l-145 -412q-6 0 -16 1q-8 0 -20.5 0.5t-28.5 0.5q-17 0 -29.5 -0.5t-21.5 -0.5q-11 -1 -18 -1l-62 453q-4 30 -13.5 51t-17.5 32l-12 16l130 25q1 -9 4 -29q2 -17 6.5 -50t10.5 -87l32 -276q2 -22 3 -41.5t1 -21.5
q1 2 5 19.5t14 44.5l152 434q7 -1 17 -1q8 -1 19.5 -1h26.5h27t20 1q10 0 17 1l46 -436q2 -16 2.5 -27.5t1.5 -19.5q1 -10 1 -16q40 77 73 154q13 33 26.5 68.5t23.5 71t16.5 69.5t6.5 64q0 18 -5 29t-10 18q-6 8 -14 12q7 6 17 11q8 5 20.5 8.5t29.5 3.5q23 0 36 -7
t19 -17.5t7.5 -22t1.5 -19.5z" />
    <glyph glyph-name="Ycircumflex" unicode="&#x176;" horiz-adv-x="499" 
d="M591 713q-1 -1 -8.5 -7.5t-21.5 -21.5q-17 -20 -39.5 -64.5t-53.5 -102.5t-72.5 -122t-96.5 -123q-2 -21 -5 -48.5t-6 -54.5t-5 -50.5t-2 -36.5q0 -23 2.5 -37.5t8.5 -28.5l7 -17q-7 0 -19 1q-11 0 -27.5 0.5t-39.5 0.5q-24 0 -41 -0.5t-28 -0.5q-12 -1 -20 -1l11 17
q8 13 14 24t12 35t13 67t17 119l-84 252q-18 54 -30 88.5t-21.5 56.5t-18 34t-19.5 21q9 -1 23 -1q12 -1 29.5 -1h42.5h42.5t30.5 1q14 0 25 1q-29 -25 -29 -62q0 -8 1.5 -16.5t5 -21.5t9.5 -32t15 -47l60 -191q20 26 47 68t51 88t40.5 90t16.5 74q0 11 -3.5 25t-17.5 25
q10 -1 23 -1q11 -1 27.5 -1h39.5q51 0 72 0.5t22 1.5zM468 753q-48 2 -89 22.5t-64 52.5q-39 -38 -89.5 -56t-92.5 -19l155 152h67z" />
    <glyph glyph-name="ycircumflex" unicode="&#x177;" horiz-adv-x="519" 
d="M505 513q0 -46 -22 -111.5t-54 -135t-68 -134.5t-64 -110q-39 -63 -70 -107.5t-60 -73t-59.5 -41.5t-69.5 -13q-23 0 -38.5 2t-25.5 4q-11 3 -18 6q1 6 3 14q3 15 6 38q2 13 2.5 24.5t1.5 19.5q1 10 1 18q18 -33 35 -45t34 -12q13 0 25.5 3.5t27.5 16.5t34.5 37t45.5 65
l-97 475q-6 30 -14.5 51t-17.5 31l-14 16l140 25q2 -16 6 -44q4 -25 10 -65.5t17 -103.5l37 -207q6 -39 7.5 -59t0.5 -23q2 5 14.5 28.5t29 59t35.5 79t35.5 89t27 89t10.5 78.5q0 18 -4.5 29t-9.5 18q-6 8 -13 12q7 6 18 11q9 5 21 8.5t29 3.5q23 0 36 -7t19.5 -17.5t8 -22
t1.5 -19.5zM455 623q-48 2 -89 21.5t-64 53.5q-39 -38 -89.5 -56t-92.5 -19l156 152h66z" />
    </font>
</defs>
</svg>
