<?xml version="1.0" standalone="no"?>
<!DOCTYPE svg PUBLIC "-//W3C//DTD SVG 1.1//EN" "http://www.w3.org/Graphics/SVG/1.1/DTD/svg11.dtd" >
<svg xmlns="http://www.w3.org/2000/svg" xmlns:xlink="http://www.w3.org/1999/xlink" version="1.1">
<metadata>
Created by FontForge 20200427 at Wed Feb 19 20:30:00 2014
 By www
(c) Gerard Unger, 2011. ALL RIGHTS RESERVED. Produced by Tom Grace, 2011. This software is licensed, not sold. Unauthorised use prohibited.
</metadata>
<defs>
<font id="AlverataW07-PELight" horiz-adv-x="623" >
  <font-face 
    font-family="AlverataW07-PELight"
    font-weight="300"
    font-stretch="normal"
    units-per-em="1000"
    panose-1="2 3 3 3 6 5 4 2 0 4"
    ascent="787"
    descent="-213"
    x-height="563"
    cap-height="713"
    bbox="-367 -312 1776 977"
    underline-thickness="39"
    underline-position="-85"
    unicode-range="U+0020-FB04"
  />
<missing-glyph horiz-adv-x="500" 
d="M76 0v713h348v-713h-348zM359 65v583h-218v-583h218z" />
    <glyph glyph-name=".notdef" horiz-adv-x="500" 
d="M76 0v713h348v-713h-348zM359 65v583h-218v-583h218z" />
    <glyph glyph-name="glyph1" horiz-adv-x="0" 
 />
    <glyph glyph-name="glyph1" horiz-adv-x="0" 
 />
    <glyph glyph-name="nonmarkingreturn" horiz-adv-x="333" 
 />
    <glyph glyph-name="space" unicode=" " horiz-adv-x="230" 
 />
    <glyph glyph-name="exclam" unicode="!" horiz-adv-x="317" 
d="M221 696q-5 -12 -8 -31.5t-5.5 -57t-5.5 -99.5t-6 -160l-6 -178h-63l-6 178q-3 98 -6 160t-5.5 99.5t-6 57t-7.5 31.5l-7 19q7 -1 18 -1q9 -1 22.5 -1h30.5h30t21 1q10 0 17 1zM217 52q0 -25 -14.5 -42t-43.5 -22q-32 5 -45.5 22.5t-13.5 40.5q0 25 14.5 42t43.5 22
q32 -5 45.5 -22.5t13.5 -40.5z" />
    <glyph glyph-name="quotedbl" unicode="&#x22;" horiz-adv-x="327" 
d="M265 502h-54l-11 216h77zM115 502h-53l-12 216h77z" />
    <glyph glyph-name="numbersign" unicode="#" horiz-adv-x="652" 
d="M610 453h-117l-38 -201h117l-10 -53h-117l-37 -199h-59l37 199h-178l-37 -199h-59l37 199h-117l11 53h116l38 201h-117l10 53h117l37 200h60l-38 -200h178l37 200h60l-38 -200h117zM256 453l-38 -201h178l38 201h-178z" />
    <glyph glyph-name="dollar" unicode="$" horiz-adv-x="519" 
d="M241 -83v76h-12q-43 0 -75 4.5t-53 10.5q-25 7 -42 16q0 7 1 16q0 8 0.5 18t0.5 24t-0.5 27.5t-0.5 23.5q-1 11 -1 21q16 -23 32.5 -42t36.5 -32.5t44.5 -20.5t57.5 -7h11v275l-29 20q-25 16 -51 34t-47.5 41t-35.5 53.5t-14 72.5q0 29 9 57t30 51.5t55 39.5t83 21v70h42
v-68q37 0 66 -5t49 -10q24 -6 41 -14q-1 -7 -1 -16q-1 -8 -1 -19.5v-25.5v-27t1 -21q0 -11 1 -19q-16 22 -31.5 40t-34 30.5t-40.5 19.5t-50 8v-256l33 -22q28 -19 55 -37t47.5 -41t33 -53.5t12.5 -75.5q0 -43 -13 -74.5t-36.5 -53.5t-57 -34.5t-74.5 -16.5v-79h-42z
M283 299v-244q18 3 35.5 9.5t31 19t22 32t8.5 47.5q0 24 -6 42t-16.5 32.5t-24.5 26t-30 22.5zM147 557q0 -23 7 -40t19.5 -31.5t30 -27t37.5 -26.5v226q-16 -2 -32.5 -8t-30 -17t-22.5 -29.5t-9 -46.5z" />
    <glyph glyph-name="percent" unicode="%" horiz-adv-x="558" 
d="M309 570q0 -35 -11.5 -65t-32 -52t-49.5 -34.5t-63 -12.5q-33 0 -61.5 11t-48.5 31.5t-31.5 48.5t-11.5 63q0 74 42.5 118.5t114.5 44.5q68 0 110 -41t42 -112zM57 0h-68l513 713h66zM558 154q0 -35 -11.5 -65t-32.5 -51.5t-49.5 -34t-62.5 -12.5q-33 0 -61.5 11t-49 31
t-32 48.5t-11.5 63.5q0 73 42.5 117.5t114.5 44.5q33 0 61.5 -11t48.5 -31t31.5 -48t11.5 -63zM245 566q0 22 -5.5 41.5t-16.5 34.5t-28 23.5t-41 8.5t-41 -9t-28 -24t-16 -35t-5 -42t5 -41.5t15.5 -34t27.5 -23t40 -8.5t40.5 8.5t29 23.5t17.5 35t6 42zM493 150
q0 22 -5 41.5t-16 34.5t-28 23.5t-41 8.5q-47 0 -68.5 -32.5t-21.5 -77.5q0 -22 5 -41t15.5 -33.5t27.5 -23t40 -8.5q47 0 69.5 31.5t22.5 76.5z" />
    <glyph glyph-name="ampersand" unicode="&#x26;" horiz-adv-x="755" 
d="M711 -1q-10 0 -25 0.5t-34 0.5h-56l-48 48q-23 -17 -56 -30q-29 -11 -71.5 -20t-101.5 -9q-75 0 -126 16t-81.5 43t-43.5 61.5t-13 72.5q0 73 39 121.5t121 74.5l-25 25q-23 22 -38.5 41.5t-25.5 38.5t-14.5 39.5t-4.5 46.5q0 4 1.5 17.5t7 30.5t17.5 35.5t33 34.5
t52.5 26t77.5 10q39 0 72.5 -9.5t58.5 -28.5t39 -49t14 -70q0 -68 -40 -114t-113 -70l247 -241q9 10 16 27q6 14 11 35.5t5 52.5q0 32 -8.5 52t-19.5 28q7 -1 18 -1q9 -1 21 -1h27h33q6 0 11 1v-5q0 -60 -8.5 -97.5t-22.5 -64.5q-8 -17 -16.5 -28.5t-15.5 -19.5
q-8 -9 -15 -15l12 -12q28 -28 44.5 -44t27.5 -25t18.5 -14t18.5 -11h-20zM397 565q0 32 -10 53t-25.5 33t-34.5 16.5t-37 4.5q-51 0 -77 -26.5t-26 -64.5q0 -24 7 -43.5t19 -37t27.5 -33.5t33.5 -33l28 -27q31 16 50 37t29 42.5t13 42t3 36.5zM242 351q-54 -29 -75 -67.5
t-21 -89.5q0 -33 10.5 -60t34.5 -47t62 -31t94 -11q41 0 71 6t50 14q24 9 40 20z" />
    <glyph glyph-name="quotesingle" unicode="'" horiz-adv-x="177" 
d="M115 502h-53l-12 216h77z" />
    <glyph glyph-name="parenleft" unicode="(" horiz-adv-x="310" 
d="M255 -214q-56 16 -100 74q-19 25 -37 61.5t-32 88t-22.5 120t-8.5 156.5t8.5 156.5t22.5 120t32 88.5t37 62q44 58 100 74q-32 -48 -58 -119q-22 -61 -39.5 -155t-17.5 -227t17.5 -227t39.5 -155q26 -71 58 -118z" />
    <glyph glyph-name="parenright" unicode=")" horiz-adv-x="310" 
d="M255 287q0 -88 -8.5 -156.5t-22.5 -120.5t-32 -88.5t-37 -61.5q-44 -59 -100 -74q31 47 57 118q22 61 40 155.5t18 227.5t-18 227t-40 155q-26 71 -57 118q56 -16 100 -74q19 -25 37 -61.5t32 -88t22.5 -120t8.5 -156.5z" />
    <glyph glyph-name="asterisk" unicode="*" horiz-adv-x="409" 
d="M332 499l-118 98l28 -154h-73l27 154l-117 -98l-36 61l142 54l-142 56l36 60l117 -97l-27 154h73l-28 -154l118 97l35 -60l-141 -56l141 -54z" />
    <glyph glyph-name="plus" unicode="+" horiz-adv-x="646" 
d="M357 322v-256h-69v256h-242v65h242v255h69v-255h242v-65h-242z" />
    <glyph glyph-name="comma" unicode="," horiz-adv-x="232" 
d="M177 16q0 -44 -12 -74.5t-30.5 -49.5t-41 -28t-43.5 -9q1 1 7 6.5t13 17t12.5 30t5.5 44.5q0 27 -5.5 42.5t-11.5 23.5q-8 9 -17 12v19q0 25 15 42.5t44 22.5q36 -6 50 -35t14 -64z" />
    <glyph glyph-name="hyphen" unicode="-" horiz-adv-x="316" 
d="M40 247v69h236v-69h-236z" />
    <glyph glyph-name="period" unicode="." horiz-adv-x="239" 
d="M186 57q0 -27 -18.5 -45.5t-47.5 -23.5q-32 5 -49.5 23.5t-17.5 44.5q0 27 18.5 45.5t47.5 23.5q32 -5 49.5 -23.5t17.5 -44.5z" />
    <glyph glyph-name="slash" unicode="/" horiz-adv-x="316" 
d="M108 -213h-68l167 1000h69z" />
    <glyph glyph-name="zero" unicode="0" horiz-adv-x="631" 
d="M569 328q0 -26 -2.5 -61t-11.5 -73t-26 -75t-45.5 -66t-71 -47t-102.5 -18q-80 0 -129 33.5t-75.5 84.5t-35 111.5t-8.5 115.5q0 26 2.5 61t11.5 73t26 75t45.5 66t71 47t102.5 18q80 0 129 -33.5t75.5 -84.5t35 -111.5t8.5 -115.5zM476 328q0 80 -10 135t-29.5 89
t-48.5 49t-68 15q-54 0 -86 -23t-49 -65q-9 -23 -15 -50t-9 -54t-4.5 -51t-1.5 -40q0 -80 9.5 -135t29 -89t49 -49t68.5 -15q54 0 86 23t49 65q9 23 15 50t9 54t4.5 51t1.5 40z" />
    <glyph glyph-name="one" unicode="1" horiz-adv-x="391" 
d="M289 -1q-6 0 -17 1q-9 0 -23.5 0.5t-34.5 0.5t-34 -0.5t-23 -0.5q-11 -1 -18 -1l9 17q5 9 9 17.5t6.5 22t4.5 34.5t3 56.5t1.5 87.5t0.5 127v203q0 11 -4.5 16t-21.5 5h-115q12 21 39 31.5t60 19t68.5 19t64.5 32.5q-3 -39 -5 -93q-2 -46 -3 -112.5t-1 -153.5
q0 -67 0.5 -113t1.5 -77.5t2.5 -50.5t4.5 -31.5t7 -21t9 -18.5l9 -17v0z" />
    <glyph glyph-name="two" unicode="2" horiz-adv-x="513" 
d="M407 93q20 11 27 17.5t9 8.5q0 -1 -2.5 -21t-4.5 -62l-1 -36h-403q0 30 6 54.5t19 47.5t33 45.5t47 48.5l76 71q36 33 61.5 59t42 51t24.5 52t8 62q0 125 -129 125q-36 0 -61.5 -5.5t-44.5 -16.5t-33.5 -27t-28.5 -36q0 7 1 16q0 8 0.5 18.5t0.5 24.5t-0.5 23.5
t-0.5 16.5q-1 8 -1 14q16 8 41 14q21 5 53.5 10t77.5 5q60 0 101.5 -12.5t67.5 -35.5t37.5 -55t11.5 -71q0 -45 -10.5 -78.5t-31.5 -63t-52 -58t-71 -63.5l-78 -68q-15 -13 -30 -27.5t-27.5 -27.5t-20 -24t-7.5 -18h183q72 0 110 22z" />
    <glyph glyph-name="three" unicode="3" horiz-adv-x="523" 
d="M457 146q0 -47 -12 -81.5t-32.5 -58t-46.5 -38t-53 -22t-54 -10t-48 -2.5q-60 0 -97.5 13.5t-58.5 30.5q-25 19 -35 45q16 -9 40 -16q20 -6 49.5 -10.5t70.5 -4.5q39 0 72.5 7t58.5 24.5t39 47t14 74.5q0 34 -7.5 60.5t-26.5 44.5t-50.5 27.5t-80.5 9.5q-17 0 -30 -1.5
t-21 -3.5q-10 -3 -17 -5v10q0 5 0.5 12.5t0.5 16.5t-0.5 16t-0.5 12v11q8 -3 19 -5q20 -5 48 -5t55 6t48.5 22.5t34.5 44.5t13 72q0 27 -6.5 50t-22 40t-40.5 26.5t-61 9.5q-30 0 -53 -4.5t-42 -14.5t-35 -26.5t-32 -39.5q0 6 1 16q0 8 0.5 19.5t0.5 26.5q0 14 -0.5 24
t-0.5 16q-1 7 -1 11q17 8 42 14q21 5 52 10t72 5q60 0 102 -13t68 -36t37.5 -55t11.5 -69q0 -47 -15 -79.5t-38.5 -53.5t-53 -32.5t-57.5 -15.5q20 -1 50.5 -6.5t59 -23.5t49 -52t20.5 -91z" />
    <glyph glyph-name="four" unicode="4" horiz-adv-x="589" 
d="M544 150q-9 2 -21 5q-11 2 -26.5 4t-37.5 2h-10q0 -37 3 -76.5t19 -68.5l9 -17q-6 0 -16 1q-8 0 -22 0.5t-34 0.5t-34 -0.5t-22 -0.5q-10 -1 -16 -1l9 17q14 26 18 63t4 82h-327q0 27 3 51.5t14 51.5t32 58t58 70l72 75q45 47 74 78t45.5 53.5t22.5 40.5t6 40q0 14 -2 23
t-4 14q-3 6 -6 10q8 -1 17 -1q8 -1 17.5 -1h20.5h23.5t18.5 1q9 0 16 1v-8q0 -47 -9.5 -77.5t-31.5 -59.5t-58 -63t-90 -86l-74 -72q-17 -16 -32 -33t-26.5 -34t-18.5 -33.5t-7 -29.5h246v90q10 1 22 5t23.5 10t21 12.5t15.5 14.5v-132h10q23 0 38.5 1.5t26.5 3.5q12 3 20 6
q-1 -5 -1 -12v-33v-35q0 -6 1 -11z" />
    <glyph glyph-name="five" unicode="5" horiz-adv-x="544" 
d="M477 181q0 -53 -12 -92t-32 -66.5t-46.5 -44.5t-54 -27t-55 -13.5t-50.5 -3.5q-60 0 -94.5 13t-53.5 30q-22 19 -31 44q14 -9 35 -15q18 -5 46 -9.5t66 -4.5q99 0 144 43t45 136q0 46 -11.5 77t-32.5 49.5t-51 26.5t-67 8q-36 0 -61.5 -4.5t-42.5 -9.5q-19 -6 -33 -14
v361h229q45 0 71.5 1.5t40.5 3.5q17 3 23 6q-1 -5 -1 -12v-34v-36q0 -7 1 -11q-6 2 -23 5q-14 2 -40.5 4t-71.5 2h-160v-217q10 3 25 6q13 2 32.5 4t47.5 2q103 0 160.5 -54t57.5 -154z" />
    <glyph glyph-name="six" unicode="6" horiz-adv-x="579" 
d="M520 226q0 -112 -58 -175t-165 -63q-54 0 -97.5 17t-73.5 57t-46.5 104.5t-16.5 159.5q0 91 14.5 156t38 109t53.5 71t60.5 41t58.5 18.5t48 4.5q51 0 81.5 -12.5t47.5 -26.5q19 -18 26 -39q-14 6 -32 11q-15 5 -36.5 8.5t-48.5 3.5q-24 0 -49.5 -3.5t-50 -15.5t-46 -35
t-37.5 -60.5t-25.5 -92.5t-9.5 -132q0 -82 7.5 -137.5t25 -89t44.5 -47.5t66 -14q26 0 49 8.5t40.5 28t28 52.5t10.5 82q0 158 -117 158q-24 0 -41 -6t-28 -13.5t-16 -14.5t-6 -8q0 10 4 27t17.5 33t38.5 27.5t67 11.5q81 0 127.5 -53.5t46.5 -150.5z" />
    <glyph glyph-name="seven" unicode="7" horiz-adv-x="497" 
d="M465 665q0 -32 -6.5 -61.5t-17.5 -59t-26.5 -61t-33.5 -66.5l-77 -151q-21 -42 -33 -80t-18 -72t-7.5 -64t-1.5 -56q0 -17 2 -27.5t5 -17.5q3 -8 7 -12q-6 0 -15 1q-8 0 -18 0.5t-21 0.5q-13 0 -23 -0.5t-18 -0.5q-9 -1 -16 -1q0 41 2.5 81t11 82.5t26 89.5t47.5 103
l82 151q10 18 21 39.5t20 42t15 38.5t6 30h-208q-72 0 -110 -22q-20 -12 -27.5 -18.5t-8.5 -8.5q0 1 1.5 18.5t1.5 50.5q0 17 -0.5 28t-0.5 19q-1 9 -1 15q5 -3 22 -6q14 -2 41 -3.5t72 -1.5h305v0z" />
    <glyph glyph-name="eight" unicode="8" horiz-adv-x="566" 
d="M505 161q0 -10 -1.5 -26.5t-9 -35.5t-21.5 -38.5t-39 -35.5t-62.5 -26t-90.5 -10q-113 0 -167.5 45.5t-54.5 118.5q0 59 25.5 95t56.5 56q36 23 83 32l-23 13q-21 12 -43 26.5t-40 34t-29.5 44.5t-11.5 58t12 62.5t37 51t64 34.5t93 13q53 0 91 -12.5t62 -33.5
t35.5 -49.5t11.5 -60.5q0 -53 -22 -85.5t-48 -49.5q-31 -20 -70 -28l24 -14q22 -13 46.5 -28.5t45 -36.5t33.5 -48.5t13 -65.5zM398 515q0 14 -3.5 32t-15.5 34.5t-35.5 27.5t-62.5 11q-44 0 -68 -11.5t-36 -27t-14.5 -32t-2.5 -26.5q0 -21 6.5 -36.5t18.5 -28.5t30 -25
t41 -26l54 -33q25 10 44 28q17 16 30.5 43t13.5 70zM416 158q0 42 -29 71t-77 57l-55 32q-29 -10 -52 -29q-20 -17 -36 -46.5t-16 -77.5q0 -41 13.5 -65.5t33 -37.5t42.5 -17t43 -4q15 0 37.5 2.5t44 14t36.5 35t15 65.5z" />
    <glyph glyph-name="nine" unicode="9" horiz-adv-x="579" 
d="M513 336q0 -91 -14 -156t-37 -109t-52 -71t-60 -41t-60.5 -18.5t-52.5 -4.5q-53 0 -83.5 13t-47.5 29q-19 18 -27 43q13 -8 31 -14q15 -5 36.5 -9.5t48.5 -4.5q26 0 53 3.5t52 15.5t47 34t38 59.5t25.5 92.5t9.5 132q0 82 -7.5 137t-24.5 88.5t-44 47.5t-66 14
q-26 0 -49 -8.5t-40.5 -28t-28 -52.5t-10.5 -82q0 -158 118 -158q24 0 41 6t28 13t16 13.5t6 8.5q0 -10 -4 -26.5t-17.5 -32.5t-38.5 -27.5t-67 -11.5q-81 0 -128 53.5t-47 150.5q0 112 58 175t165 63q54 0 97 -16.5t73.5 -55.5t46.5 -104t16 -161z" />
    <glyph glyph-name="colon" unicode=":" horiz-adv-x="239" 
d="M186 499q0 -27 -18.5 -45.5t-47.5 -23.5q-32 5 -49.5 23.5t-17.5 44.5q0 27 18.5 45.5t47.5 23.5q32 -5 49.5 -23.5t17.5 -44.5zM186 57q0 -27 -18.5 -45.5t-47.5 -23.5q-32 5 -49.5 23.5t-17.5 44.5q0 27 18.5 45.5t47.5 23.5q32 -5 49.5 -23.5t17.5 -44.5z" />
    <glyph glyph-name="semicolon" unicode=";" horiz-adv-x="239" 
d="M180 16q0 -44 -12 -74.5t-30.5 -49.5t-41 -28t-43.5 -9q1 1 7 6.5t13 17t12.5 30t5.5 44.5q0 27 -5.5 42.5t-11.5 23.5q-8 9 -17 12v19q0 25 15 42.5t44 22.5q36 -6 50 -35t14 -64zM186 499q0 -27 -18.5 -45.5t-47.5 -23.5q-32 5 -49.5 23.5t-17.5 44.5q0 27 18.5 45.5
t47.5 23.5q32 -5 49.5 -23.5t17.5 -44.5z" />
    <glyph glyph-name="less" unicode="&#x3c;" horiz-adv-x="646" 
d="M43 326v61l553 250v-74l-462 -205l462 -204v-77z" />
    <glyph glyph-name="equal" unicode="=" horiz-adv-x="646" 
d="M46 446v65h554v-65h-554zM46 197v65h554v-65h-554z" />
    <glyph glyph-name="greater" unicode="&#x3e;" horiz-adv-x="646" 
d="M50 77v77l462 204l-462 205v74l553 -250v-61z" />
    <glyph glyph-name="question" unicode="?" horiz-adv-x="480" 
d="M428 546q0 -57 -28.5 -106t-75.5 -102l-54 -61q-13 -14 -21 -24t-12.5 -17.5t-6 -14t-1.5 -15.5q0 -16 7 -26l8 -10h-80q-1 4 -2 11t-1 17q1 32 11.5 55.5t35.5 54.5l73 92q29 36 40 69t11 69q0 63 -32 95.5t-97 32.5q-36 0 -61.5 -6t-44.5 -17t-33.5 -27t-28.5 -36
q0 7 1 16q0 8 0.5 18.5t0.5 24.5t-0.5 23.5t-0.5 16.5q-1 8 -1 14q16 8 41 15q21 5 53.5 10t77.5 5q60 0 102 -13t68.5 -36.5t38.5 -56t12 -71.5zM260 52q0 -25 -14.5 -42t-43.5 -22q-32 5 -45.5 22.5t-13.5 40.5q0 25 14.5 42t43.5 22q32 -5 45.5 -22.5t13.5 -40.5z" />
    <glyph glyph-name="at" unicode="@" horiz-adv-x="1060" 
d="M1000 379q0 -52 -9.5 -104t-29.5 -98.5t-52 -84.5t-77 -61q-26 -14 -51.5 -22t-47.5 -12.5t-39 -5.5t-26 -1q-15 0 -27.5 1.5t-22 7.5t-14.5 17t-5 30q0 13 2 29t4.5 30.5t5 26t3.5 15.5q-19 -53 -41.5 -84t-45.5 -47.5t-46 -21.5t-42 -5q-46 0 -76.5 16t-49 44t-26 66
t-7.5 82q0 21 2.5 57t11.5 78.5t26.5 86.5t47.5 79.5t75.5 58t109.5 22.5q32 0 56 -7.5t39 -15.5q18 -11 30 -23l73 47q-4 -21 -9 -59q-5 -32 -13 -87t-19 -138l-32 -253q66 1 112.5 29.5t75 74t41.5 104t13 119.5q0 80 -23.5 145t-69.5 111t-113.5 71t-155.5 25
q-105 0 -184 -33t-132 -92.5t-79.5 -143.5t-26.5 -186q0 -41 5 -87.5t20.5 -92.5t43.5 -88.5t73.5 -75t111 -52t155.5 -19.5q70 0 124 12.5t93.5 31t66 40t43 41t24 33t8.5 15.5q0 -18 -6 -42t-21 -50.5t-41.5 -52t-68 -45.5t-100 -32.5t-137.5 -12.5q-121 0 -210 34
t-147.5 96.5t-87.5 149.5t-29 193q0 65 13 138.5t48 141.5t96.5 124t157.5 88q47 15 95 21t105 6q84 0 161.5 -24.5t137 -74t95 -125.5t35.5 -179zM657 497q-8 7 -21 13q-11 5 -29.5 9.5t-46.5 4.5q-45 0 -76.5 -17t-53.5 -45t-35 -63t-20.5 -71t-9.5 -69.5t-2 -57.5
q0 -70 23.5 -110t79.5 -40q10 0 26 2.5t35.5 12.5t41 30.5t42.5 56.5z" />
    <glyph glyph-name="A" unicode="A" horiz-adv-x="615" 
d="M614 -1q-10 0 -23 1q-11 0 -28 0.5t-37 0.5t-36.5 -0.5t-27.5 -0.5q-14 -1 -24 -1q10 7 21 21t11 42q0 26 -12 71t-29 101l-20 67h-226l-20 -67q-17 -56 -29 -101t-12 -71q0 -28 11 -42t21 -21q-10 0 -22 1q-11 0 -26 0.5t-35 0.5q-21 0 -36 -0.5t-25 -0.5q-11 -1 -20 -1
q14 13 25 32.5t22.5 47.5t23.5 66.5t29 90.5l133 417q3 9 5.5 18t2.5 19t-2.5 14.5t-4.5 6.5h169q0 -1 -3 -5.5t-3 -15.5q0 -10 2 -19t5 -18l124 -417q15 -52 27 -90.5t22.5 -66.5t21.5 -47.5t25 -32.5zM320 605q-5 14 -8.5 27t-6.5 24q-4 12 -7 24l-97 -319h191z" />
    <glyph glyph-name="B" unicode="B" horiz-adv-x="595" 
d="M540 193q0 -38 -9.5 -66.5t-25.5 -49.5t-35.5 -35.5t-38.5 -22.5q-17 -7 -34 -11t-37 -6t-44.5 -2.5t-57.5 -0.5q-26 0 -50.5 1t-50.5 1q-20 0 -35 -0.5t-24 -0.5q-11 -1 -18 -1l9 17q5 9 9 17.5t6.5 22t4.5 34.5t3 56.5t1.5 87.5t0.5 127q0 109 -1 169.5t-3.5 92
t-7.5 45t-13 28.5l-9 17q7 -1 18 -1q9 -1 21 -1h27q22 0 49 1t49 1q54 0 103 -5t86.5 -22.5t59.5 -52t22 -93.5q0 -39 -11.5 -69t-31.5 -51.5t-47 -35t-58 -19.5q25 0 55.5 -8t56.5 -27.5t43.5 -52.5t17.5 -84zM421 532q0 43 -14.5 68.5t-38 38.5t-53 16.5t-60.5 3.5
q-11 0 -21 -0.5t-18 -0.5q-10 -1 -18 -1v-267q6 -1 16 -1q8 -1 19.5 -1h26.5q8 0 26.5 1t31.5 3q20 3 38.5 13t33 27t23 42t8.5 58zM446 198q0 43 -14.5 70t-39.5 41t-58.5 19t-71.5 5q-12 0 -23.5 -0.5t-20.5 -0.5q-11 -1 -20 -1v-276q4 -1 14 -1q8 -1 21.5 -1h34.5
q40 0 67 4t40 11q9 4 21 12t23.5 22.5t19 37.5t7.5 58z" />
    <glyph glyph-name="C" unicode="C" horiz-adv-x="634" 
d="M594 22q-22 -9 -49 -15q-23 -5 -57 -9.5t-76 -4.5q-84 0 -142.5 19.5t-97.5 50.5t-61.5 70t-33.5 78.5t-14 75.5t-3 61q0 88 24 157t70 116.5t113 72.5t152 25q47 0 80 -5t54 -10q25 -6 41 -14q-1 -7 -1 -16q-1 -8 -1 -19.5v-25.5v-27t1 -21q0 -11 1 -19q-16 23 -32 41.5
t-35.5 31t-45.5 19t-63 6.5q-24 0 -53 -3.5t-58 -14.5t-57 -31.5t-49 -54.5t-34 -84t-13 -120q0 -60 11 -114t40 -95.5t79.5 -66t129.5 -24.5q38 0 64.5 7t47 20t36.5 31.5t32 41.5q-1 -10 -1 -21q-1 -10 -1 -23.5v-27.5v-24t1 -18q0 -9 1 -16z" />
    <glyph glyph-name="D" unicode="D" horiz-adv-x="723" 
d="M663 373q0 -92 -20.5 -155.5t-53.5 -105t-75 -65t-85 -34.5t-83.5 -13t-70.5 -2q-32 0 -58.5 1.5t-56.5 1.5q-20 0 -35 -0.5t-25 -0.5q-11 -1 -20 -1l9 17q5 9 9 17.5t6.5 22t4.5 34.5t3 56.5t1.5 87.5t0.5 127q0 109 -1 169.5t-3.5 92t-7.5 45t-13 28.5l-9 17
q9 -1 20 -1q10 -1 25 -1h35q30 0 65 1.5t67 1.5q23 0 59 -2t77.5 -12t83 -31t75.5 -59t55 -96t21 -141zM569 360q0 102 -26.5 161.5t-69 89.5t-95 38t-104.5 8q-16 0 -29 -0.5t-23 -0.5q-11 -1 -21 -1v-598q11 -1 22 -1q10 -1 22.5 -1h24.5q32 0 67 2.5t68 12t63 29
t52.5 53.5t35.5 84.5t13 123.5z" />
    <glyph glyph-name="E" unicode="E" horiz-adv-x="565" 
d="M502 113q-2 -14 -4 -35t-4 -50l-2 -28h-335q-20 0 -35 -0.5t-24 -0.5h-18l9 17l9 18t6.5 21.5t4.5 34.5t3 56.5t1.5 87.5t0.5 127q0 109 -1 169.5t-3.5 92t-7.5 45t-13 28.5l-9 17q7 -1 18 -1h58h326q-1 -5 -1 -12v-36q0 -29 1.5 -42.5t1.5 -15.5q-1 1 -8 7.5t-28 19.5
q-38 22 -110 22h-138v-270h114q35 0 63.5 4t46.5 15q20 11 27 17.5t9 8.5q0 -1 -1.5 -21t-1.5 -53q0 -32 1.5 -51.5t1.5 -21.5q-1 1 -8 7.5t-28 19.5q-18 11 -46.5 15t-63.5 4h-114v-272h128q46 0 74.5 5.5t46.5 16t30 26t26 35.5z" />
    <glyph glyph-name="F" unicode="F" horiz-adv-x="514" 
d="M481 664q0 -29 1.5 -42.5t1.5 -15.5q-1 1 -8 7.5t-28 19.5q-38 22 -110 22h-138v-270h114q35 0 63.5 4t46.5 15q20 11 27 17.5t9 8.5q0 -1 -1.5 -21t-1.5 -53q0 -32 1.5 -51.5t1.5 -21.5q-1 1 -8 7.5t-28 19.5q-18 11 -46.5 15t-63.5 4h-114q0 -67 0.5 -113t1.5 -77.5
t2.5 -51t4.5 -32t7 -21t9 -18.5l9 -17q-7 0 -18 1q-9 0 -23.5 0.5t-34.5 0.5t-34.5 -0.5t-24.5 -0.5q-11 -1 -19 -1l9 17l9 18t6.5 21.5t4.5 34.5t3 56.5t1.5 87.5t0.5 127q0 109 -1 169.5t-3.5 92t-7.5 45t-13 28.5l-9 17q7 -1 18 -1h58h326q-1 -5 -1 -12v-36v0z" />
    <glyph glyph-name="G" unicode="G" horiz-adv-x="700" 
d="M631 314q-7 -13 -12 -26.5t-8 -41.5t-4 -79t-1 -139v-6q-20 -9 -47 -15q-23 -5 -57 -9.5t-77 -4.5q-86 0 -147 19.5t-101.5 50.5t-64 70t-35 78.5t-14.5 75.5t-3 61q0 88 25 157t72.5 116.5t116.5 72.5t157 25q48 0 82.5 -5t56.5 -10q26 -6 42 -14q-1 -7 -2 -16
q-1 -8 -1 -19.5v-25.5v-27t1 -21q1 -11 2 -19q-17 23 -33.5 41.5t-37.5 31t-48 19t-65 6.5q-25 0 -55 -3.5t-60 -14.5t-59 -31.5t-51 -54.5t-35.5 -84t-13.5 -120q0 -62 11.5 -116.5t42 -95.5t83 -64.5t134.5 -23.5q24 0 42 1t30 3q14 2 25 4q0 70 -1 113.5t-4 70.5t-8 42
t-12 28l-10 17q7 -1 18 -1q9 -1 23.5 -1h34.5h34.5t24.5 1q11 0 18 1z" />
    <glyph glyph-name="H" unicode="H" horiz-adv-x="745" 
d="M665 -1q-7 0 -18 1q-9 0 -23.5 0.5t-34.5 0.5t-35 -0.5t-24 -0.5q-11 -1 -18 -1l9 17q7 14 12 27.5t8 44t4 88t1 159.5h-347q0 -68 0.5 -115.5t1.5 -80t2.5 -52t4.5 -32t7 -21t9 -18.5l9 -17q-7 0 -18 1q-9 0 -23.5 0.5t-34.5 0.5t-35 -0.5t-24 -0.5q-11 -1 -18 -1l9 17
l9 18t6.5 21.5t4.5 34.5t3 56.5t1.5 87.5t0.5 127q0 109 -1 169.5t-3.5 92t-7.5 45t-13 28.5l-9 17q7 -1 18 -1q9 -1 23.5 -1h34.5h34.5t24.5 1q11 0 18 1l-9 -17q-7 -14 -12 -26.5t-8 -41t-4 -81.5t-1 -146h347q0 93 -1 145t-4 80.5t-8 42t-12 27.5l-9 17q7 -1 18 -1
q9 -1 23.5 -1h34.5h34.5t24.5 1q11 0 18 1l-9 -17l-9 -18t-6.5 -21.5t-4.5 -34.5t-3 -56.5t-1.5 -87.5t-0.5 -127q0 -109 1 -169.5t3.5 -92t7.5 -45t13 -28.5l9 -17v0z" />
    <glyph glyph-name="I" unicode="I" horiz-adv-x="313" 
d="M233 -1q-7 0 -18 1q-9 0 -23.5 0.5t-34.5 0.5t-35 -0.5t-24 -0.5q-11 -1 -18 -1l9 17l9 18t6.5 21.5t4.5 34.5t3 56.5t1.5 87.5t0.5 127q0 109 -1 169.5t-3.5 92t-7.5 45t-13 28.5l-9 17q7 -1 18 -1q9 -1 23.5 -1h34.5h34.5t24.5 1q11 0 18 1l-9 -17l-9 -18t-6.5 -21.5
t-4.5 -34.5t-3 -56.5t-1.5 -87.5t-0.5 -127q0 -109 1 -169.5t3.5 -92t7.5 -45t13 -28.5l9 -17v0z" />
    <glyph glyph-name="J" unicode="J" horiz-adv-x="319" 
d="M235 696q-5 -9 -9 -17.5t-6.5 -22t-4.5 -35t-3 -57t-1.5 -87.5t-0.5 -127v-393q0 -30 -3 -60.5t-17.5 -55t-44.5 -39.5t-84 -15h-16q29 14 45 34.5t24 49.5t9.5 68t1.5 91v330q0 109 -1 169.5t-3.5 92.5t-7.5 45.5t-13 28.5l-9 17q7 -1 18 -1q9 -1 23.5 -1h34.5h34.5
t24.5 1q11 0 18 1z" />
    <glyph glyph-name="K" unicode="K" horiz-adv-x="615" 
d="M625 713q-17 -11 -55 -47t-113 -112l-171 -174l169 -207q38 -47 65 -77.5t46.5 -50t32.5 -30t24 -16.5h-21q-11 0 -26 0.5t-34 0.5h-65l-279 359q0 -73 0.5 -124t1.5 -85.5t2.5 -56t4.5 -35.5t7 -23t9 -19l9 -17q-6 0 -17 1q-9 0 -23.5 0.5t-34.5 0.5t-35 -0.5t-24 -0.5
q-11 -1 -18 -1l9 17q5 9 9 17.5t6.5 22t4.5 34.5t3 56.5t1.5 87.5t0.5 127q0 109 -1 169.5t-3.5 92t-7.5 45t-13 28.5l-9 17q7 -1 18 -1q9 -1 23.5 -1h34.5h34.5t23.5 1q11 0 18 1l-9 -17q-5 -9 -8.5 -17.5t-6.5 -21.5t-5 -33.5t-3 -54t-1.5 -82t-0.5 -118.5l168 184
q25 27 41.5 45.5t26.5 32t14 23.5t4 21q0 23 -21 38q10 -1 24 -1q11 -1 27.5 -1h36.5h45.5t33.5 1q16 0 27 1z" />
    <glyph glyph-name="L" unicode="L" horiz-adv-x="484" 
d="M454 113q-2 -14 -4 -35t-4 -50l-2 -28h-287q-20 0 -35 -0.5t-24 -0.5h-18l9 17l9 18t6.5 21.5t4.5 34.5t3 56.5t1.5 87.5t0.5 127q0 109 -1 169.5t-3.5 92t-7.5 45t-13 28.5l-9 17q7 -1 18 -1q9 -1 23.5 -1h34.5h34.5t24.5 1q11 0 19 1l-9 -17l-9 -18t-6.5 -21.5
t-4.5 -34.5t-3 -56.5t-1.5 -87.5t-0.5 -127v-294h80q46 0 74.5 5.5t46.5 16t30 26t26 35.5z" />
    <glyph glyph-name="M" unicode="M" horiz-adv-x="822" 
d="M740 -1q-6 0 -17 1q-9 0 -23.5 0.5t-34.5 0.5t-35 -0.5t-24 -0.5q-11 -1 -18 -1l10 17q5 9 9 17t7 21.5t4.5 35t2.5 57t1.5 87.5t0.5 127v319q-3 -12 -6 -23q-3 -10 -6 -21.5t-7 -20.5l-203 -488l-199 484q-4 8 -7.5 19.5t-6.5 22.5q-4 12 -7 24l-1 -326q0 -109 1 -169.5
t4 -92t8 -45t13 -28.5l9 -17q-7 0 -18 1q-9 0 -22 0.5t-30 0.5t-29.5 -0.5t-20.5 -0.5q-10 -1 -15 -1l9 17q5 9 8.5 17.5t6 22t4.5 34.5t3 56.5t1.5 87.5t0.5 127q0 109 -1 169.5t-3.5 92t-7 45t-12.5 28.5l-9 17q12 -1 26 -1q12 -1 28 -1h35h31t25 1q12 1 22 2l154 -375
q3 -8 4.5 -13t3.5 -10l3 -9q0 3 2 7t3.5 10t5.5 14l157 374q10 -1 22 -1q11 -1 25 -1h31h32t26 1q13 1 24 2l-9 -17q-5 -9 -9 -17.5t-6.5 -22t-4.5 -34.5t-3 -56.5t-1.5 -87.5t-0.5 -127q0 -109 1 -169.5t3.5 -92t7.5 -45t13 -28.5l9 -17v0z" />
    <glyph glyph-name="N" unicode="N" horiz-adv-x="735" 
d="M653 696q-5 -9 -8.5 -17t-6 -21.5t-4 -35t-3 -57t-2 -87.5t-0.5 -127l-1 -353q-7 0 -15 1q-7 1 -17 1.5t-22 0.5q-15 0 -25.5 -0.5t-18.5 -1.5q-9 -1 -14 -1l-308 576q-6 11 -11 23t-9 23q-4 12 -7 25v-294q0 -109 1 -169.5t3.5 -92t7.5 -45t13 -28.5l9 -17q-7 0 -17 1
q-9 0 -22 0.5t-30 0.5t-29.5 -0.5t-20.5 -0.5q-10 -1 -16 -1l9 17q5 9 8.5 17t6.5 21.5t5 35t3 57t1.5 87.5t0.5 127q0 109 -1 169.5t-3.5 92t-7.5 45t-13 28.5l-9 17q6 -1 17 -1q9 -1 24 -1h37h30.5t21.5 1q10 0 16 1l307 -575q8 -14 12.5 -27t8.5 -23q4 -11 7 -21v294
q0 109 -1 169.5t-3.5 92t-7.5 45t-13 28.5l-9 17q6 -1 17 -1q8 -1 21.5 -1h30.5h29.5t20.5 1q10 0 16 1z" />
    <glyph glyph-name="O" unicode="O" horiz-adv-x="749" 
d="M689 370q0 -17 -1.5 -51.5t-10.5 -77t-28 -87.5t-54 -82t-89 -60.5t-132 -23.5q-75 0 -133.5 25.5t-98.5 72t-61 110.5t-21 142q0 17 1.5 51.5t10.5 77t28 87.5t54 82t89 60.5t132 23.5q75 0 133.5 -25.5t98.5 -72t61 -110.5t21 -142zM594 358q0 87 -18.5 145t-49 93
t-70.5 49.5t-82 14.5q-41 0 -80.5 -15t-70 -51t-49.5 -95.5t-19 -148.5q0 -87 18.5 -145t49 -93t70.5 -49.5t82 -14.5q41 0 80.5 15t70 51t49.5 95.5t19 148.5z" />
    <glyph glyph-name="P" unicode="P" horiz-adv-x="552" 
d="M517 507q0 -71 -24.5 -113.5t-62 -65.5t-82 -30.5t-83.5 -7.5q-14 0 -26 0.5t-21 1.5q-11 1 -19 2q0 -83 1 -131t3.5 -75.5t7.5 -42t13 -29.5l9 -17q-7 0 -18 1q-9 0 -23.5 0.5t-34.5 0.5t-35 -0.5t-24 -0.5q-11 -1 -18 -1l9 17q5 9 9 17.5t6.5 22t4.5 34.5t3 56.5
t1.5 87.5t0.5 127q0 109 -1 169.5t-3.5 92t-7.5 45t-13 28.5l-9 17q7 -1 17 -1q8 -1 20 -1h27q31 0 60 1t51 1t50.5 -1.5t57.5 -8t56.5 -19.5t49.5 -35.5t35 -57.5t13 -84zM423 509q0 50 -16 79.5t-41 45.5t-54.5 20.5t-56.5 4.5q-13 0 -22.5 -0.5t-17.5 -0.5q-9 -1 -16 -1
v-310q5 -1 14 -2q8 -1 19.5 -1h29.5q58 0 90 17.5t48 43t19.5 54t3.5 50.5z" />
    <glyph glyph-name="Q" unicode="Q" horiz-adv-x="749" 
d="M689 372q0 -60 -11 -121.5t-39.5 -113.5t-78 -89t-127.5 -48q9 -7 23 -17q12 -8 30.5 -19t45.5 -25q29 -16 60.5 -27t48.5 -11q9 0 15 0.5t11 1.5t9 2l-49 -118l-17 22q-8 10 -24 19t-41.5 22t-60 31.5t-77.5 47.5q-25 16 -40.5 29t-24.5 21q-11 10 -17 17
q-62 9 -111 36.5t-83.5 71.5t-52.5 103.5t-18 132.5q0 16 1.5 50.5t10.5 76.5t28 87t54 82t89 60.5t132 23.5q75 0 133.5 -25.5t98.5 -72t61 -110.5t21 -140zM594 360q0 86 -18.5 144t-49 92.5t-70.5 49t-82 14.5q-41 0 -80.5 -15t-70 -51t-49.5 -95t-19 -147
q0 -86 18.5 -144t49 -92.5t70.5 -49t82 -14.5q41 0 80.5 15t70 51t49.5 95t19 147z" />
    <glyph glyph-name="R" unicode="R" horiz-adv-x="600" 
d="M616 3q-4 -2 -12 -4q-14 -3 -44 -3q-25 0 -42.5 6.5t-32.5 19t-29 32t-32 46.5l-75 114q-24 37 -40 60t-29.5 36t-28 17.5t-35.5 4.5q-4 0 -7.5 -0.5t-5.5 -0.5h-5q0 -96 1 -151.5t3.5 -87t7.5 -46.5t13 -30l9 -17q-6 0 -17 1q-9 0 -23.5 0.5t-34.5 0.5t-35 -0.5
t-24 -0.5q-11 -1 -18 -1l9 17q5 9 9 17.5t6.5 22t4.5 34.5t3 56.5t1.5 87.5t0.5 127q0 109 -1 169.5t-3.5 92t-7.5 45t-13 28.5l-9 17q7 -1 18 -1q9 -1 21 -1h27q22 0 52 1t57 1q41 0 86.5 -4t84 -21.5t63.5 -53.5t25 -100q0 -26 -8 -59t-31.5 -62t-67.5 -48.5t-116 -18.5
q33 -4 56 -15t42 -29.5t36.5 -43.5t37.5 -58l46 -74q28 -45 51.5 -77t55.5 -46zM420 525q0 46 -13.5 72.5t-36.5 40t-54 17.5t-66 4q-11 0 -19.5 -0.5t-16.5 -0.5q-9 -1 -16 -1v-271q7 -1 16 -1q8 -1 19 -1h26q4 0 11.5 0.5t16.5 1l18 1t15 1.5q41 5 70.5 39t29.5 98z" />
    <glyph glyph-name="S" unicode="S" horiz-adv-x="519" 
d="M465 175q0 -50 -17 -84.5t-48 -56.5t-74.5 -31.5t-95.5 -9.5q-43 0 -75 4.5t-53 10.5q-25 7 -42 16q0 7 1 16q0 8 0.5 18t0.5 24t-0.5 27.5t-0.5 23.5q-1 11 -1 21q16 -23 32.5 -42t36.5 -32.5t44.5 -20.5t57.5 -7q22 0 48.5 3t49 14t37.5 33t15 61q0 24 -6 42
t-16.5 32.5t-24.5 26t-30 22.5l-91 61q-25 16 -51 34t-47.5 41t-35.5 53.5t-14 72.5q0 32 11.5 63t37 55t67.5 38.5t103 14.5q37 0 66 -5t49 -10q24 -6 41 -14q-1 -7 -1 -16q-1 -8 -1 -19.5v-25.5v-27t1 -21q0 -11 1 -19q-16 23 -32 41.5t-35 31t-41.5 19t-52.5 6.5
q-13 0 -35 -2t-43.5 -11.5t-37 -30.5t-15.5 -59q0 -23 7.5 -40.5t20.5 -32t31 -27.5t39 -27l71 -48q28 -19 55 -37t47.5 -41t33 -53.5t12.5 -75.5z" />
    <glyph glyph-name="T" unicode="T" horiz-adv-x="531" 
d="M518 664q0 -29 1.5 -42.5t1.5 -15.5q-1 1 -8 7.5t-28 19.5q-18 11 -46.5 17.5t-63.5 6.5h-67v-306q0 -109 1 -169.5t3.5 -92t7.5 -45t13 -28.5l9 -17q-7 0 -18 1q-9 0 -23.5 0.5t-34.5 0.5t-35 -0.5t-24 -0.5q-11 -1 -18 -1l9 17l9 18t6.5 21.5t4.5 34.5t3 56.5t1.5 87.5
t0.5 127v296h-67q-35 0 -63.5 -6.5t-46.5 -17.5q-20 -12 -27.5 -18.5t-8.5 -8.5q0 1 1.5 15t1.5 43q0 12 -0.5 21t-0.5 15v12h507q-1 -5 -1 -12v-36v0z" />
    <glyph glyph-name="U" unicode="U" horiz-adv-x="722" 
d="M645 696q-7 -13 -12 -26t-8 -41.5t-4 -81t-1 -145.5v-60q0 -49 -0.5 -85.5t-3.5 -64t-9 -49t-16 -40.5q-26 -50 -79 -81.5t-150 -31.5q-74 0 -129.5 20t-89.5 70q-12 17 -20 35.5t-12.5 43t-6.5 58t-2 81.5v77q0 100 -1 157.5t-3.5 88.5t-7.5 45.5t-13 29.5l-9 17
q7 -1 18 -1q9 -1 24 -1h35h34.5t24.5 1q11 0 18 1l-9 -17q-7 -13 -12 -26t-8 -41.5t-4 -81t-1 -145.5v-139q0 -23 2 -50.5t7 -44.5q30 -118 170 -118q69 0 112.5 29t58.5 92q4 17 6 39.5t2 44.5v106q0 109 -1 169.5t-3.5 92t-7.5 45t-13 28.5l-9 17q5 -1 15 -1q8 -1 21.5 -1
h33.5h34t22 1q10 0 16 1z" />
    <glyph glyph-name="V" unicode="V" horiz-adv-x="608" 
d="M628 713q-14 -14 -25.5 -33t-23.5 -47t-25 -66.5t-31 -90.5l-162 -477q-8 0 -17 1q-8 0 -17 0.5t-20 0.5t-20.5 -0.5t-17.5 -0.5q-9 -1 -17 -1l-159 477q-17 52 -30 90.5t-24.5 66.5t-23 47t-25.5 33q11 -1 24 -1q11 -1 26.5 -1h35.5h41t30 1q14 0 25 1q-10 -7 -21 -21
t-11 -42q0 -26 13.5 -69t30.5 -98l121 -385q6 -21 9 -33l3 -12l3 12q2 6 4 14t6 19l120 385q17 56 30.5 98.5t13.5 68.5q0 28 -11 42t-21 21q10 -1 22 -1q11 -1 26 -1h35h35.5t26.5 1q12 0 21 1z" />
    <glyph glyph-name="W" unicode="W" horiz-adv-x="1016" 
d="M1024 713q-14 -14 -25 -33t-22 -46.5t-22.5 -66.5t-26.5 -91l-134 -477q-7 0 -17 1q-8 0 -19 0.5t-22 0.5q-13 0 -23.5 -0.5t-18.5 -0.5q-10 -1 -17 -1l-160 605q-5 17 -6.5 28.5t-1.5 14.5q-1 -3 -2.5 -14t-6.5 -29l-149 -605q-8 0 -18 1q-8 0 -19 0.5t-23 0.5
q-13 0 -23.5 -0.5t-18.5 -0.5q-10 -1 -18 -1l-135 477q-15 52 -26.5 91t-22.5 66.5t-22 46.5t-25 33q10 -1 23 -1q11 -1 26.5 -1h35.5h41t30 1q14 0 25 1q-10 -7 -21 -21t-11 -42q0 -26 11 -68.5t26 -98.5l102 -385q2 -11 4 -20t4 -16q2 -8 2 -14q1 6 3 14q2 7 3.5 16
t4.5 20l152 615q8 -1 18 -1q8 -1 18.5 -1h21.5h20t18 1q10 0 18 1l163 -615q2 -9 3.5 -17.5t3.5 -15.5q2 -8 3 -16q0 7 2 15q2 7 3.5 15.5t4.5 18.5l98 385q14 57 24.5 99t10.5 68q0 28 -11 42t-21 21q10 -1 22 -1q11 -1 26 -1h35h35.5t26.5 1q12 0 20 1z" />
    <glyph glyph-name="X" unicode="X" 
d="M628 -1q-10 0 -24 1q-12 0 -31.5 0.5t-46.5 0.5q-28 0 -47 -0.5t-30 -0.5q-13 -1 -21 -1q12 11 17.5 23t5.5 24q0 10 -1.5 19.5t-8 23t-19 34.5t-34.5 55l-91 143l-82 -143q-20 -35 -31.5 -56t-17.5 -34.5t-7.5 -22.5t-1.5 -19q0 -12 5.5 -24t17.5 -23q-11 0 -25 1
q-12 0 -28 0.5t-34 0.5q-24 0 -42 -0.5t-29 -0.5q-13 -1 -22 -1q16 11 27.5 21.5t26.5 30t37.5 54t60.5 94.5l111 176l-88 138q-38 60 -60.5 94.5t-37.5 54t-26.5 30t-27.5 21.5q10 -1 24 -1q12 -1 31 -1h47h47t30 1q13 0 21 1q-12 -11 -17.5 -23t-5.5 -24q0 -11 2 -20
t8.5 -22.5t19 -34.5t33.5 -55l62 -98l56 98q20 35 31.5 56t17.5 34.5t7.5 22t1.5 19.5q0 12 -5.5 24t-17.5 23q11 -1 25 -1q12 -1 27.5 -1h34.5h41.5t28.5 1q13 0 23 1q-16 -11 -27.5 -21.5t-26.5 -30t-38 -54t-60 -94.5l-83 -133l115 -181q38 -60 60.5 -94.5t37.5 -54
t26.5 -30t27.5 -21.5z" />
    <glyph glyph-name="Y" unicode="Y" horiz-adv-x="539" 
d="M559 713q-12 -9 -22 -18.5t-23.5 -30.5t-34.5 -57t-55 -97l-103 -184q0 -96 1 -151t3.5 -85.5t7.5 -44.5t13 -29l9 -17q-7 0 -18 1q-9 0 -23.5 0.5t-34.5 0.5t-35 -0.5t-24 -0.5q-11 -1 -18 -1l9 17q7 13 12 27t8 42.5t4 79t1 136.5l-114 211q-33 62 -53 97.5t-33 55
t-23 29t-23 19.5q8 -1 21 -1q11 -1 29.5 -1h46.5h45.5t28.5 1q12 0 18 1q-12 -11 -17.5 -23t-5.5 -24q0 -11 1.5 -20t7 -22.5t16.5 -35t30 -57.5l77 -147l76 148q18 36 28.5 57.5t15 35t5.5 22t1 19.5q0 12 -5.5 24t-17.5 23q11 -1 23 -1q11 -1 25.5 -1h33.5h40t27 1
q11 0 19 1z" />
    <glyph glyph-name="Z" unicode="Z" horiz-adv-x="582" 
d="M547 141q-2 -11 -4 -27q-2 -14 -3.5 -35t-3.5 -50l-2 -29h-494v61l388 594h-219q-35 0 -63.5 -6.5t-46.5 -17.5q-20 -12 -27.5 -18.5t-8.5 -8.5q0 1 1.5 16t1.5 44q0 12 -0.5 21t-0.5 15v12h470v-56l-391 -599h226q46 0 74.5 5.5t46.5 16t30 26.5t26 36z" />
    <glyph glyph-name="bracketleft" unicode="[" horiz-adv-x="332" 
d="M237 -213q-3 2 -9 4q-5 2 -14.5 3.5t-23.5 1.5h-110v982h110q14 0 23.5 1t14.5 3q6 2 9 5q-1 -4 -1 -9v-24v-24q0 -5 1 -9q-3 2 -9 4q-5 2 -14.5 3.5t-23.5 1.5h-36v-886h36q14 0 23.5 1t14.5 3q6 2 9 5q-1 -4 -1 -9v-24v-24q0 -5 1 -9z" />
    <glyph glyph-name="backslash" unicode="\" horiz-adv-x="294" 
d="M198 -212l-168 1000h67l167 -1000h-66z" />
    <glyph glyph-name="bracketright" unicode="]" horiz-adv-x="332" 
d="M142 -204q-15 0 -24 -1.5t-14 -3.5q-6 -2 -9 -4v9q0 5 0.5 10.5t0.5 13.5t-0.5 13.5t-0.5 10.5v9q3 -3 9 -5q5 -2 14 -3t24 -1h36v886h-36q-15 0 -24 -1.5t-14 -3.5q-6 -2 -9 -4v9q0 5 0.5 10.5t0.5 13.5t-0.5 13.5t-0.5 10.5v9q3 -3 9 -5q5 -2 14 -3t24 -1h110v-982
h-110z" />
    <glyph glyph-name="asciicircum" unicode="^" horiz-adv-x="646" 
d="M541 354h-77l-142 322l-143 -322h-74l188 413h61z" />
    <glyph glyph-name="underscore" unicode="_" horiz-adv-x="500" 
d="M0 -104v39h500v-39h-500z" />
    <glyph glyph-name="grave" unicode="`" horiz-adv-x="400" 
d="M291 624q-14 3 -30 10q-14 6 -32.5 17t-41.5 29q-25 20 -40 36t-23 28q-10 14 -15 25h97l85 -145v0z" />
    <glyph glyph-name="a" unicode="a" horiz-adv-x="567" 
d="M389 -8l4 118q-9 -41 -27.5 -65t-42 -36.5t-48 -16.5t-45.5 -4q-54 0 -88 16t-53.5 40t-26.5 52.5t-7 53.5q0 63 23.5 98.5t58.5 53t75.5 21.5t75.5 4q21 0 39 -1t32 -2q16 -1 29 -2v51q0 31 -2.5 59t-16.5 48q-12 17 -37 28t-66 11q-9 0 -28 -1t-41 -7.5t-44.5 -22
t-39.5 -44.5q0 6 1 15q0 7 0.5 17t0.5 22q0 11 -0.5 20.5t-0.5 16.5q-1 8 -1 14q15 7 38 13q20 5 50.5 9.5t74.5 4.5q37 0 64.5 -5t47 -12.5t32 -18t20.5 -20.5q23 -29 26.5 -66t3.5 -85q0 -10 -1 -61t-1 -132q0 -55 5 -86t19 -56l9 -17zM388 265q-9 1 -21 2q-11 1 -28 2
t-41 1q-22 0 -49 -2.5t-51 -13t-40 -33t-16 -62.5q0 -57 32.5 -83t80.5 -26q41 0 66.5 10t40.5 23q18 15 26 34v148z" />
    <glyph glyph-name="b" unicode="b" 
d="M568 293q0 -89 -22.5 -148t-58.5 -94t-81.5 -49t-91.5 -14q-40 0 -68 8.5t-46 19.5q-21 12 -35 29l-75 -58q2 20 4 57q2 32 3.5 85t1.5 134v252q0 65 -1.5 105t-5 64t-8 37t-10.5 24l-9 17l118 25q-1 -33 -2 -68q-1 -30 -1 -68v-76v-23q0 -23 -0.5 -38.5t-1.5 -26.5
q-1 -12 -2 -20q21 57 64 82t103 25q11 0 32.5 -2.5t46.5 -11.5t51 -27t47 -49t34.5 -78t13.5 -113zM479 286q0 43 -8.5 83t-27.5 71t-50.5 50t-76.5 19q-51 0 -80.5 -13.5t-55.5 -45.5v-373q11 -9 28 -16q14 -6 36 -11t52 -5q98 0 140.5 63t42.5 178z" />
    <glyph glyph-name="c" unicode="c" horiz-adv-x="508" 
d="M475 124q0 -24 -10.5 -48.5t-32 -43.5t-55.5 -31t-82 -12q-53 0 -97 18.5t-76 54t-49.5 88t-17.5 120.5q0 19 2 49t10.5 63.5t25 68t45 62t71.5 45t105 17.5q40 0 68.5 -6t47.5 -14q22 -9 36 -19q-1 -5 -1 -13q-1 -7 -1 -16.5v-22.5v-25.5t1 -22.5q0 -12 1 -23
q-20 31 -37 52t-35 34t-38 18t-46 5q-30 0 -60 -9.5t-53.5 -36.5t-38 -74.5t-14.5 -123.5q0 -46 9.5 -87t30 -71.5t52.5 -48.5t78 -18q44 0 74 10.5t50 24.5q23 16 37 36z" />
    <glyph glyph-name="d" unicode="d" horiz-adv-x="626" 
d="M447 -8l4 111q-21 -57 -63 -85t-108 -28q-12 0 -33 2.5t-46 11.5t-51 27t-47 49t-34.5 77.5t-13.5 113.5q0 89 22.5 148t58.5 94t81.5 49t91.5 14q35 0 60 -7t42 -15q19 -10 32 -22q0 55 -2 91.5t-5 60t-7.5 37.5t-10.5 24l-9 17l118 25q-1 -33 -2 -68q-1 -30 -1 -68v-76
v-311q0 -65 1.5 -105t5 -64t8 -37t10.5 -24l9 -17zM443 487q-11 9 -28 16q-14 6 -36.5 11t-51.5 5q-98 0 -140.5 -63t-42.5 -178q0 -43 8.5 -83t27.5 -71t50.5 -50t76.5 -19q51 0 80.5 13.5t55.5 45.5v373z" />
    <glyph glyph-name="e" unicode="e" horiz-adv-x="572" 
d="M144 288q0 -41 7.5 -82.5t27 -75.5t54.5 -55.5t90 -21.5q52 0 86 11t54 25q24 16 36 36q0 -27 -11 -51.5t-34.5 -43t-60 -30t-87.5 -11.5q-65 0 -112.5 21t-78 59.5t-45.5 91.5t-15 117q0 81 21 137.5t55 92.5t78 52t90 16q49 0 85 -13t61 -34.5t40 -50t23 -59.5
t11 -62.5t3 -59.5v-9h-378zM429 352q0 18 -3.5 46.5t-17 56t-40 47t-73.5 19.5q-21 0 -47 -5t-48.5 -24.5t-38 -57t-16.5 -102.5z" />
    <glyph glyph-name="f" unicode="f" horiz-adv-x="315" 
d="M375 684q-27 35 -49.5 43.5t-38.5 8.5q-32 0 -51 -10t-30 -27q-11 -18 -14 -38t-3 -55v-54h35q29 0 47.5 1.5t29.5 3.5q13 3 21 6q-1 -5 -1 -10v-28v-27q0 -5 1 -9q-8 2 -21 5q-11 2 -30 4t-47 2h-35v-229q0 -69 1 -112t3.5 -70t7.5 -42.5t13 -30.5l9 -17q-6 0 -17 1
q-9 0 -23 0.5t-34 0.5t-34.5 -0.5t-23.5 -0.5q-11 -1 -17 -1l9 17q7 14 12 28t8 40.5t4 70t1 116.5v229h-58q16 15 27 26t17.5 21.5t9 20.5t3.5 23l1 16q1 24 6 55t24.5 59t58 47t107.5 19q18 0 31.5 -1t22.5 -3q11 -2 17 -4q-1 -5 -1 -11q-1 -5 -1 -13.5v-18.5v-21.5
t1 -16.5q0 -8 1 -14z" />
    <glyph glyph-name="g" unicode="g" horiz-adv-x="574" 
d="M540 -14q0 -48 -21.5 -85.5t-59 -62.5t-89 -38t-111.5 -13q-58 0 -97.5 8t-65.5 21t-40.5 29t-21 31.5t-8 28.5t-1.5 21q0 39 20 62.5t44 37t45 18.5t23 5q-1 0 -8.5 4t-16.5 13t-16 24t-7 38q0 26 11 44t25 29.5t26.5 17.5t15.5 7q-1 0 -20.5 6t-42.5 24t-42 50.5
t-19 85.5q0 31 9 64t31.5 60t60.5 44.5t97 17.5q20 0 36.5 -3t27.5 -6q13 -4 24 -8h64q29 0 54.5 1.5t43.5 3.5q21 3 38 6q-1 -5 -1 -10v-28v-27q0 -5 1 -9q-12 2 -28 5q-14 2 -33.5 3.5t-44.5 2.5l-36 1q16 -11 28 -28q11 -14 20 -37t9 -55q0 -59 -21.5 -93.5t-52 -53.5
t-65 -24.5t-61.5 -5.5q-28 0 -44 3q-10 1 -17 3q-7 -6 -12 -15q-5 -8 -8.5 -18t-3.5 -24q0 -18 6.5 -28t17 -15.5t24 -6.5t26.5 -1h115q27 0 57 -2.5t55.5 -14.5t42.5 -37.5t17 -70.5zM460 -36q0 28 -9.5 43t-25 22t-36.5 8.5t-43 1.5h-168q-20 -7 -36 -20
q-14 -11 -25 -29.5t-11 -44.5q0 -13 4 -30.5t20.5 -33.5t48.5 -27.5t89 -11.5q89 0 140.5 32t51.5 90zM378 397q0 18 -3.5 41t-15.5 44t-35.5 35.5t-63.5 14.5q-30 0 -51 -11.5t-34 -31t-19 -44t-6 -51.5q0 -18 3.5 -41t15.5 -44t35.5 -35.5t63.5 -14.5q30 0 51 11.5t34 31
t19 44t6 51.5z" />
    <glyph glyph-name="h" unicode="h" horiz-adv-x="625" 
d="M557 -1q-6 0 -17 1q-9 0 -23.5 0.5t-34.5 0.5t-34 -0.5t-23 -0.5q-11 -1 -17 -1l9 17q6 11 11 21t8 34t5 69.5t2 127.5q0 80 -4 125.5t-19 69.5q-11 18 -33.5 33t-68.5 15q-44 0 -70 -11t-40 -25q-17 -16 -23 -35v-169q0 -82 1.5 -128t5 -70.5t8 -35t10.5 -21.5l9 -17
q-6 0 -17 1q-9 0 -23 0.5t-34 0.5t-34.5 -0.5t-23.5 -0.5q-11 -1 -17 -1l9 17q6 11 10.5 21.5t8 35t5 70.5t1.5 128v244q0 65 -1.5 105t-5 64t-8 37t-10.5 24l-9 17l118 25l-2 -60q-1 -26 -1 -56v-56v-92q0 -15 -0.5 -28t-0.5 -23q-1 -11 -1 -21q9 40 28 65t42 38t47.5 17.5
t45.5 4.5q57 0 94.5 -19.5t56.5 -54.5q8 -16 13.5 -33.5t8.5 -41.5t4 -56t1 -76v-24q0 -82 1.5 -128t4.5 -70.5t7.5 -35t10.5 -21.5l9 -17v0z" />
    <glyph glyph-name="i" unicode="i" horiz-adv-x="291" 
d="M207 716q0 -29 -16 -44.5t-44 -15.5q-26 0 -42.5 15t-16.5 42q0 29 16 44.5t44 15.5q26 0 42.5 -15t16.5 -42zM223 -1q-6 0 -17 1q-9 0 -23 0.5t-34 0.5t-34.5 -0.5t-23.5 -0.5q-11 -1 -17 -1l9 17q7 14 12 28t8 40.5t4 70t1 116.5v29q0 65 -1.5 105t-5 64t-8 37
t-10.5 24l-9 17l124 25q-3 -19 -5 -55q-2 -31 -3 -83t-1 -133v-30q0 -69 1 -112t3.5 -70t7.5 -42.5t13 -30.5z" />
    <glyph glyph-name="j" unicode="j" horiz-adv-x="274" 
d="M204 716q0 -29 -16 -44.5t-44 -15.5q-26 0 -42.5 15t-16.5 42q0 29 16 44.5t44 15.5q26 0 42.5 -15t16.5 -42zM195 572q-3 -19 -5 -55q-2 -31 -3 -83t-1 -133v-344q0 -30 -2.5 -60.5t-16.5 -55t-43 -39.5t-83 -15h-16q29 14 45 34.5t24 49.5t9.5 68t1.5 91v270
q0 65 -1.5 105t-5 64t-8 37t-10.5 24l-9 17z" />
    <glyph glyph-name="k" unicode="k" horiz-adv-x="543" 
d="M528 -1q-10 0 -25 0.5t-35 0.5h-59l-226 283q0 -74 1 -119.5t3.5 -73.5t7.5 -43.5t13 -30.5l9 -17q-6 0 -17 1q-9 0 -23 0.5t-34 0.5t-34.5 -0.5t-23.5 -0.5q-11 -1 -17 -1l9 17q7 14 12 28t8 40.5t4 70t1 116.5v218q0 69 -1 112t-3.5 69.5t-7.5 42.5t-13 31l-9 17
l118 26q-1 -33 -2 -68q-1 -30 -1 -68v-76v-277l100 107q26 28 43 46.5t27.5 32t14.5 23t4 20.5q0 23 -21 38q8 -1 19 -1q10 -1 25 -1h35h46.5t34.5 1q16 0 27 1q-9 -6 -23 -17t-35 -30t-49.5 -46.5t-66.5 -65.5l-98 -98l110 -135q38 -47 65.5 -78t47.5 -50.5t34 -29.5
t25 -16h-20z" />
    <glyph glyph-name="l" unicode="l" horiz-adv-x="285" 
d="M217 -1q-6 0 -17 1q-9 0 -23 0.5t-34 0.5t-34.5 -0.5t-23.5 -0.5q-11 -1 -17 -1l9 17q7 14 12 28t8 40.5t4 70t1 116.5v218q0 69 -1 112t-3.5 69.5t-7.5 42.5t-13 31l-9 17l118 26q-1 -33 -2 -68q-1 -30 -1 -68v-76v-304q0 -69 1 -112t3.5 -70t7.5 -42.5t13 -30.5l9 -17
v0z" />
    <glyph glyph-name="m" unicode="m" horiz-adv-x="959" 
d="M891 -1q-6 0 -17 1q-9 0 -23.5 0.5t-34.5 0.5t-34 -0.5t-23 -0.5q-11 -1 -17 -1l9 17q6 11 10.5 21.5t8 35t5 70t1.5 127.5q0 81 -4 126.5t-20 69.5q-11 18 -34 33t-70 15q-37 0 -61.5 -8t-40 -19.5t-22.5 -23t-10 -17.5q5 -26 6.5 -61.5t1.5 -89.5v-24q0 -82 1.5 -128
t5 -70.5t8 -35t10.5 -21.5l9 -17q-6 0 -17 1q-9 0 -23.5 0.5t-34.5 0.5t-34 -0.5t-23 -0.5q-11 -1 -17 -1l9 17q6 11 10.5 21.5t8 35t5 70t1.5 127.5q0 80 -3.5 126t-18.5 70q-11 18 -33 33t-67 15q-43 0 -68.5 -11t-39.5 -25q-16 -16 -22 -35v-172q0 -82 1.5 -128t5 -70.5
t8 -35t10.5 -21.5l9 -17q-6 0 -17 1q-9 0 -23 0.5t-34 0.5t-34.5 -0.5t-23.5 -0.5q-11 -1 -17 -1l9 17q6 11 10.5 21.5t8 35t5 70.5t1.5 128v29q0 65 -1.5 105t-5 64t-8 37t-10.5 24l-9 17l115 25l-4 -122q9 40 27.5 65t41 38.5t47 18t46.5 4.5q62 0 104 -26t58 -85
q10 36 29.5 58t42.5 34t48 16t47 4q58 0 96.5 -19.5t57.5 -54.5q9 -16 14 -33.5t8 -41.5t4 -56t1 -76v-25q0 -82 1.5 -128t5 -70.5t8 -35t10.5 -21.5l9 -17v0z" />
    <glyph glyph-name="n" unicode="n" horiz-adv-x="630" 
d="M562 -1q-6 0 -17 1q-9 0 -23.5 0.5t-34.5 0.5t-34 -0.5t-23 -0.5q-11 -1 -17 -1l9 17q6 11 10.5 21.5t8 35t5 70t1.5 127.5q0 81 -4 126.5t-19 69.5q-11 18 -33.5 33t-68.5 15q-44 0 -70 -11t-40 -25q-17 -16 -23 -35v-172q0 -82 1.5 -128t5 -70.5t8 -35t10.5 -21.5
l9 -17q-6 0 -17 1q-9 0 -23 0.5t-34 0.5t-34.5 -0.5t-23.5 -0.5q-11 -1 -17 -1l9 17q6 11 10.5 21.5t8 35t5 70.5t1.5 128v29q0 65 -1.5 105t-5 64t-8 37t-10.5 24l-9 17l115 25l-4 -122q9 40 27.5 65t42 38.5t48.5 18t47 4.5q57 0 94.5 -19.5t56.5 -54.5q8 -16 13.5 -33.5
t8.5 -41.5t4 -56t1 -76v-24q0 -82 1.5 -128t5 -70.5t8 -35t10.5 -21.5l9 -17v0z" />
    <glyph glyph-name="o" unicode="o" horiz-adv-x="621" 
d="M566 288q0 -23 -3.5 -54.5t-13.5 -65t-28.5 -66t-47.5 -58t-70.5 -41.5t-98.5 -16q-63 0 -110 22t-77.5 61t-46 91.5t-15.5 113.5q0 23 3.5 54.5t13.5 65t28.5 66t47.5 58t70.5 41.5t98.5 16q63 0 110 -22t77.5 -61t46 -91.5t15.5 -113.5zM474 282q0 51 -8.5 94t-28 75
t-51 50t-77.5 18q-85 0 -123.5 -61.5t-38.5 -176.5q0 -51 8.5 -94t28 -75t51 -50t77.5 -18q85 0 123.5 61.5t38.5 176.5z" />
    <glyph glyph-name="p" unicode="p" horiz-adv-x="626" 
d="M571 295q0 -89 -22.5 -148t-58.5 -94t-81.5 -49t-91.5 -14q-35 0 -60 7t-42 15q-19 10 -32 22q0 -70 1 -109.5t4 -62t8 -34t12 -24.5l9 -17q-6 0 -17 1q-9 0 -23 0.5t-34 0.5t-34.5 -0.5t-23.5 -0.5q-11 -1 -17 -1l9 17l9 18t6.5 21.5t4.5 34.5t3 56.5t1.5 87.5t0.5 127
v152q0 65 -1.5 105t-5 64t-8 37t-10.5 24l-9 17l111 25l-4 -110q21 57 63 85t108 28q11 0 32.5 -2.5t46.5 -11.5t51 -27t47 -49t34.5 -78t13.5 -113zM482 288q0 43 -8.5 83t-27.5 71t-50.5 50t-76.5 19q-51 0 -80.5 -13.5t-55.5 -45.5v-373q11 -9 28 -16q14 -6 36 -11t52 -5
q98 0 140.5 63t42.5 178z" />
    <glyph glyph-name="q" unicode="q" horiz-adv-x="618" 
d="M558 -213q-6 0 -17 1q-9 0 -23.5 0.5t-34.5 0.5t-34 -0.5t-23 -0.5q-11 -1 -17 -1l9 17q14 26 19.5 68.5t5.5 116.5v23q0 22 0.5 38t1.5 27q1 12 2 20q-21 -57 -64 -82t-103 -25q-12 0 -33 2.5t-46 11.5t-51 27t-47 49t-34.5 77.5t-13.5 113.5q0 89 22.5 148t58.5 94
t81.5 49t91.5 14q40 0 68 -9t46 -20q21 -12 35 -28l75 58q-3 -20 -5 -57q-2 -32 -3 -85t-1 -134v-152q0 -75 0.5 -127t1.5 -87.5t3 -56.5t4.5 -34.5t6.5 -22t9 -17.5zM443 487q-11 9 -28 16q-14 6 -36.5 11t-51.5 5q-98 0 -140.5 -63t-42.5 -178q0 -43 8.5 -83t27.5 -71
t50.5 -50t76.5 -19q51 0 80.5 13.5t55.5 45.5v373z" />
    <glyph glyph-name="r" unicode="r" horiz-adv-x="400" 
d="M392 438q-19 31 -41 49.5t-60 18.5q-34 0 -54 -10.5t-31 -23.5q-12 -15 -17 -33v-168q0 -82 1.5 -128t5 -70.5t8 -35t10.5 -21.5l9 -17q-6 0 -17 1q-9 0 -23 0.5t-34 0.5t-34.5 -0.5t-23.5 -0.5q-11 -1 -17 -1l9 17q6 11 10.5 21.5t8 35t5 70.5t1.5 128v29q0 65 -1.5 105
t-5 64t-8 37t-10.5 24l-9 17l115 25l-4 -126q10 45 29.5 70.5t40.5 39t40 17t28 3.5q20 0 33 -3t21 -6q10 -4 15 -9q-1 -7 -1 -16q-1 -8 -1 -18.5v-23.5v-28.5t1 -19.5q0 -9 1 -14z" />
    <glyph glyph-name="s" unicode="s" horiz-adv-x="466" 
d="M403 155q0 -25 -8 -53t-29 -52t-58.5 -39.5t-96.5 -15.5q-34 0 -60 4.5t-45 10.5q-22 6 -38 15q0 6 1 14q0 7 0.5 17.5t0.5 24.5q0 13 -0.5 24t-0.5 20q-1 10 -1 19q14 -20 27.5 -37.5t30.5 -30.5t38 -20.5t50 -7.5q34 0 55 8t33 20.5t16 28.5t4 32q0 33 -16 53.5
t-45 37.5l-91 55q-13 7 -29.5 17.5t-31.5 27t-25.5 41t-10.5 59.5q0 40 13.5 68t37 45.5t56 25.5t71.5 8q32 0 57.5 -5t42.5 -10q20 -7 36 -15q-1 -6 -1 -14q-1 -7 -1 -17.5v-24.5v-24t1 -19q0 -10 1 -18q-14 20 -28 37.5t-30.5 30.5t-36 20.5t-44.5 7.5q-11 0 -27.5 -1.5
t-32 -9t-27 -23.5t-11.5 -44q0 -35 21 -55.5t61 -43.5l68 -40q46 -27 74.5 -61t28.5 -91z" />
    <glyph glyph-name="t" unicode="t" horiz-adv-x="367" 
d="M353 73q-2 -24 -16 -42q-12 -16 -37 -28.5t-73 -12.5q-43 0 -67.5 14.5t-37.5 35.5q-6 9 -10 19.5t-6.5 25t-3.5 34t-1 47.5v165t1 105q1 47 2 73h-64q2 1 22.5 21.5t43.5 58.5q13 20 22 38t15 32q7 16 11 28h31v-126h68q31 0 50 1.5t30 3.5q12 3 18 6q-1 -5 -1 -10v-27
v-27q0 -5 1 -9q-6 2 -18 5q-11 2 -30 3.5t-50 1.5h-68v-350q0 -34 3 -50t10 -30q8 -17 25 -26.5t46 -9.5q21 0 36.5 4.5t26.5 10.5q12 6 21 15z" />
    <glyph glyph-name="u" unicode="u" 
d="M440 -8l4 122q-9 -41 -27.5 -65.5t-42 -38t-48.5 -18t-47 -4.5q-57 0 -94.5 19.5t-56.5 54.5q-8 16 -13.5 33.5t-8.5 41.5t-4 56t-1 76v31q0 65 -1.5 105t-4.5 64t-7.5 37t-10.5 24l-9 17l118 25q-1 -33 -2 -68q-1 -30 -1.5 -68t-0.5 -76v-66q0 -81 4 -126.5t19 -69.5
q11 -18 33.5 -33t68.5 -15q44 0 70 10.5t40 24.5q17 16 23 36v179q0 65 -1.5 105t-4 64t-7 37t-10.5 24l-9 17l118 25q-2 -33 -3 -68q-1 -30 -1.5 -68t-0.5 -76v-96q0 -65 1.5 -105t5 -64t8 -37t10.5 -24l9 -17z" />
    <glyph glyph-name="v" unicode="v" horiz-adv-x="520" 
d="M530 565q-26 -23 -48.5 -81t-51.5 -142l-120 -343q-6 0 -14 1q-7 0 -16.5 0.5t-20.5 0.5q-12 0 -21 -0.5t-16 -0.5q-8 -1 -14 -1l-112 340q-18 56 -31.5 95t-24 65t-20 41.5t-20.5 24.5q9 -1 20 -1q10 -1 24.5 -1h34.5h39t27 1q12 0 20 1q-10 -7 -18.5 -19t-8.5 -38
q0 -9 2 -20.5t6.5 -29t12 -43t18.5 -62.5l75 -245q3 -11 5.5 -20.5t4.5 -17.5q3 -10 5 -18q2 7 5 17l4.5 18t6.5 21l76 234q13 39 21.5 66t13.5 46t7 31.5t2 22.5q0 26 -7.5 38t-17.5 19q7 -1 18 -1q9 -1 23.5 -1h34.5h35t24 1q11 0 17 1z" />
    <glyph glyph-name="w" unicode="w" horiz-adv-x="862" 
d="M862 565q-29 -26 -50.5 -84.5t-47.5 -139.5l-109 -342q-7 0 -16 1q-8 0 -17 0.5t-20 0.5t-19.5 -0.5t-14.5 -0.5q-7 -1 -13 -1l-116 430q-4 13 -5.5 24.5t-3.5 20.5q-2 11 -3 20q-1 -9 -3 -20q-2 -9 -3.5 -20.5t-4.5 -22.5l-119 -432q-6 0 -13 1q-7 0 -16 0.5t-21 0.5
t-21.5 -0.5t-16.5 -0.5q-8 -1 -13 -1l-101 340q-17 57 -29.5 95.5t-23 64.5t-20 41.5t-20.5 24.5q9 -1 21 -1q11 -1 25.5 -1h34.5h39t27 1q12 0 20 1q-10 -7 -18.5 -19t-8.5 -38q0 -11 1.5 -22.5t5 -28.5t10 -42t16.5 -62l64 -245q3 -12 4.5 -23t3.5 -19q2 -10 3 -17
q1 8 3 17q2 8 3.5 18t5.5 23l126 459q6 -1 13 -1q6 -1 14.5 -1h19.5h18.5t15.5 1q8 0 14 1l124 -460q6 -26 8 -41q1 -9 2 -16q1 7 3 17q2 8 3.5 19t5.5 23l65 234q11 39 18.5 66.5t12.5 46t7 31t2 22.5q0 26 -8.5 38t-18.5 19q8 -1 19 -1q10 -1 24.5 -1h34.5h35t24 1
q11 0 18 1z" />
    <glyph glyph-name="x" unicode="x" horiz-adv-x="524" 
d="M529 -1q-9 0 -22 1q-11 0 -27.5 0.5t-39.5 0.5t-40 -0.5t-28 -0.5q-13 -1 -21 -1q19 16 19 39q0 10 -2.5 19.5t-9 22t-18 30.5t-28.5 44l-61 94l-56 -93q-16 -27 -26.5 -45t-16.5 -30.5t-8 -21.5t-2 -19q0 -24 19 -40q-11 0 -23 1q-11 0 -24.5 0.5t-28.5 0.5
q-20 0 -35.5 -0.5t-26.5 -0.5q-13 -1 -23 -1q15 9 27 21t26 30t31.5 45t43.5 66l90 138l-69 105q-26 39 -43.5 65.5t-31.5 44.5t-26 30t-27 21q9 -1 22 -1q11 -1 27.5 -1h39.5h40t28 1q12 0 21 1q-19 -16 -19 -39q0 -10 2.5 -19.5t9 -22t18 -30.5t28.5 -44l40 -61l36 61
q16 27 26.5 45t16.5 30.5t8 21.5t2 19q0 23 -19 39q10 -1 22 -1q11 -1 24 -1h29h35t26 1q12 0 22 1q-15 -9 -27 -21t-25.5 -30t-31 -44.5t-43.5 -65.5l-69 -105l91 -139q26 -40 43.5 -66.5t31.5 -44.5t26 -29.5t27 -20.5z" />
    <glyph glyph-name="y" unicode="y" horiz-adv-x="522" 
d="M532 565q-29 -26 -51.5 -85t-50.5 -139l-152 -433q-12 -35 -28.5 -58.5t-37 -37.5t-45 -19.5t-52.5 -5.5q-23 0 -39 1t-26 3q-11 2 -18 4q0 8 1 17q0 8 0.5 17.5t0.5 20.5t-0.5 22.5t-0.5 19.5q-1 10 -1 19q26 -41 43 -56.5t43 -15.5q38 0 60.5 23t41.5 77l12 34
l-134 366q-20 55 -34 94t-25.5 65t-21 42t-20.5 25q9 -1 21 -1q11 -1 25.5 -1h34.5h39t27 1q12 0 21 1q-10 -7 -18.5 -19t-8.5 -38q0 -11 1.5 -22.5t6 -28.5t12.5 -41.5t21 -61.5l79 -228q6 -18 10.5 -35.5t5.5 -21.5q0 2 3.5 16t10.5 34l71 223q12 39 20.5 66t14 46
t7.5 31.5t2 22.5q0 26 -8.5 38t-18.5 19q8 -1 19 -1q10 -1 24.5 -1h34.5h35t25 1q11 0 18 1z" />
    <glyph glyph-name="z" unicode="z" horiz-adv-x="507" 
d="M462 138q-2 -10 -4 -26q-2 -14 -3.5 -34t-3.5 -49l-2 -29h-399v61l305 448h-141q-25 0 -44.5 -2.5t-36 -9t-30.5 -19t-28 -32.5q0 8 1 18q0 8 0.5 19.5t0.5 24.5q0 14 -0.5 24t-0.5 17q-1 8 -1 14h377v-54l-308 -455h141q46 0 74.5 5.5t46.5 16t30 26.5t26 36z" />
    <glyph glyph-name="braceleft" unicode="{" horiz-adv-x="378" 
d="M342 -173q0 -4 -3 -11t-12 -13.5t-25 -11t-43 -4.5q-25 0 -49.5 7.5t-38.5 27.5q-15 21 -19 45t-4 63v209q0 45 -6.5 73t-29.5 45q-21 15 -40 21.5t-23 8.5q2 1 21 7.5t42 22.5q23 17 29.5 45t6.5 73v209q0 39 4 63t19 45q14 20 38.5 27.5t49.5 7.5q27 0 43 -4.5t25 -11
t12 -13.5t3 -11q-5 1 -10 3q-5 1 -12 2t-18 1q-43 0 -59 -24q-9 -13 -10.5 -29.5t-1.5 -33.5v-164q0 -32 -0.5 -55t-3 -41t-8 -32.5t-15.5 -28.5q-12 -18 -26.5 -29t-27.5 -17.5t-23 -9t-13 -2.5q3 0 13 -2.5t23 -9t27.5 -17.5t26.5 -29q10 -14 15.5 -28.5t8 -32.5t3 -41.5
t0.5 -54.5v-164q0 -17 1.5 -33.5t10.5 -29.5q16 -24 59 -24q19 0 30 3q5 1 10 3z" />
    <glyph glyph-name="bar" unicode="|" horiz-adv-x="246" 
d="M90 -213v1000h66v-1000h-66z" />
    <glyph glyph-name="braceright" unicode="}" horiz-adv-x="378" 
d="M266 317q21 -15 39.5 -22t23.5 -8q-2 -1 -21.5 -7.5t-41.5 -22.5q-23 -17 -29.5 -45t-6.5 -73v-209q0 -39 -4 -63t-19 -45q-14 -20 -38.5 -27.5t-49.5 -7.5q-27 0 -43 4.5t-25 11t-12 13.5t-3 11q3 -2 9 -3q9 -3 31 -3q43 0 59 24q9 13 10.5 29.5t1.5 33.5v164
q0 31 0.5 54.5t3 41.5t8 32.5t15.5 28.5q12 18 26 29t27 17t23 8.5t13 3.5q-3 0 -12.5 2.5t-22.5 9t-27.5 17.5t-26.5 29q-10 14 -15.5 28.5t-8 32.5t-3 41t-0.5 55v164q0 17 -1.5 33.5t-10.5 29.5q-16 24 -59 24q-11 0 -18.5 -1t-12.5 -2l-9 -3q0 4 3 11t12 13.5t25 11
t43 4.5q25 0 49.5 -7.5t38.5 -27.5q15 -21 19 -45t4 -63v-209q0 -45 6.5 -73t29.5 -45z" />
    <glyph glyph-name="asciitilde" unicode="~" horiz-adv-x="646" 
d="M618 449q-22 -88 -56.5 -135.5t-100.5 -47.5q-35 0 -62.5 9t-59.5 25l-68 34q-20 10 -34.5 16t-26 9.5t-21 4.5t-19.5 1q-24 0 -43 -9t-33 -25t-24 -36.5t-17 -42.5l-26 7q22 88 56.5 135.5t100.5 47.5q18 0 31.5 -2.5t26.5 -7t25.5 -10.5t28.5 -14l69 -34
q40 -20 65 -25.5t45 -5.5q24 0 42.5 9.5t33 25t24.5 36t17 42.5l26 -7v0z" />
    <glyph glyph-name="uni00A0" unicode="&#xa0;" horiz-adv-x="230" 
 />
    <glyph glyph-name="exclamdown" unicode="&#xa1;" horiz-adv-x="317" 
d="M217 520q0 -25 -14.5 -42t-43.5 -22q-32 5 -45.5 22.5t-13.5 40.5q0 25 14.5 42t43.5 22q32 -5 45.5 -22.5t13.5 -40.5zM232 -144q-6 0 -17 1q-9 0 -23.5 0.5t-34.5 0.5t-34 -0.5t-22 -0.5q-10 -1 -16 -1l9 19q6 12 9.5 31t6.5 56.5t5.5 100t5.5 160.5l6 178h63l6 -178
q3 -98 5.5 -160.5t5.5 -100t6.5 -56.5t9.5 -31z" />
    <glyph glyph-name="cent" unicode="&#xa2;" horiz-adv-x="560" 
d="M296 -11q-53 3 -96 22.5t-74 55t-47.5 86.5t-16.5 117q0 18 1.5 46t9 60t22 65t40.5 61t65 47t96 24v60h41v-58q40 -1 69 -7t48 -13q22 -9 36 -19q-1 -5 -1 -13q-1 -7 -1 -16.5v-22.5v-25.5t1 -22.5q0 -12 1 -23q-13 18 -24.5 36.5t-27.5 34.5t-40 26t-61 12v-469
q45 1 75.5 11.5t50.5 24.5q23 15 37 35q0 -23 -9.5 -45.5t-29 -41t-50.5 -31.5t-74 -16v-56h-41v55zM151 278q0 -42 8 -79.5t25.5 -67.5t45 -50t66.5 -26v465q-29 -4 -55 -18t-46 -42t-32 -72.5t-12 -109.5z" />
    <glyph glyph-name="sterling" unicode="&#xa3;" horiz-adv-x="579" 
d="M459 56q21 0 36 7.5t24.5 16.5t14.5 17.5t6 10.5q0 -60 -24.5 -91.5t-83.5 -31.5q-37 0 -62 4t-51 8l-63 10q-20 3 -41 6t-42 3q-18 0 -35 -4.5t-31 -9.5q-16 -6 -31 -13q32 34 48.5 72.5t16.5 96.5v184h-82v56h82v66q0 33 1.5 59t4.5 46.5t8.5 36.5t14.5 31
q28 48 75.5 65t107.5 17q44 0 76 -5t52 -10q24 -6 40 -14q-1 -7 -1 -16q-1 -8 -1 -19v-25v-27t1 -21q0 -11 1 -19q-22 32 -39.5 51.5t-35.5 30t-38.5 13.5t-47.5 3q-37 0 -63.5 -12t-41.5 -32q-20 -26 -24 -64t-4 -104v-51h179v-56h-179v-119q0 -34 -2.5 -59.5t-9.5 -45
t-19.5 -35t-31.5 -30.5q7 4 29.5 12t58.5 8q17 0 31.5 -1t29.5 -3l87 -10q9 -1 23.5 -2t35.5 -1z" />
    <glyph glyph-name="currency" unicode="&#xa4;" horiz-adv-x="615" 
d="M411 316q0 23 -8 42.5t-22.5 34t-33.5 22.5t-41 8q-45 0 -74 -30.5t-29 -76.5q0 -22 8 -41.5t21.5 -34.5t32.5 -23.5t41 -8.5t41 8.5t33.5 23.5t22.5 34.5t8 41.5zM474 316q0 -53 -28 -95l110 -109l-46 -46l-110 110q-41 -27 -94 -27q-51 0 -92 27l-110 -111l-46 46
l110 110q-28 40 -28 95q0 26 7 49.5t20 43.5l-108 108l46 46l107 -108q42 28 94 28q27 0 51 -7.5t44 -21.5l110 110l46 -46l-110 -110q27 -41 27 -92z" />
    <glyph glyph-name="yen" unicode="&#xa5;" horiz-adv-x="544" 
d="M557 713q-12 -9 -22 -18.5t-23.5 -30.5t-34.5 -57t-55 -97l-103 -184v-44h152v-39h-152v-58h152v-39h-152q0 -45 5 -73.5t20 -56.5l9 -17q-7 0 -18 1q-9 0 -23.5 0.5t-34.5 0.5t-35 -0.5t-24 -0.5q-11 -1 -18 -1l9 17q14 26 19.5 58.5t5.5 71.5h-152v39h152v58h-152v39
h152v19l-114 211q-33 62 -53 97.5t-33 55t-23 29t-23 19.5q8 -1 21 -1q11 -1 29.5 -1h46.5h45.5t28.5 1q12 0 18 1q-12 -11 -17.5 -23t-5.5 -24q0 -11 1.5 -20t7.5 -23t17 -35.5t29 -56.5l77 -147l76 148q18 36 28.5 57.5t15 35t5.5 22t1 19.5q0 12 -5.5 24t-17.5 23
q11 -1 23 -1q11 -1 25.5 -1h33.5h40t27 1q11 0 19 1z" />
    <glyph glyph-name="brokenbar" unicode="&#xa6;" horiz-adv-x="246" 
d="M90 448v339h66v-339h-66zM90 -213v363h66v-363h-66z" />
    <glyph glyph-name="section" unicode="&#xa7;" horiz-adv-x="602" 
d="M503 349q0 -37 -12.5 -64t-32.5 -45t-45 -28.5t-50 -14.5l36 -23q15 -10 29 -22t24.5 -27t17 -33.5t6.5 -42.5q0 -38 -13 -65t-36.5 -44t-56 -25t-71.5 -8q-32 0 -58.5 4.5t-44.5 10.5q-22 6 -38 15q0 6 1 14q0 7 0.5 17.5t0.5 24.5q0 13 -0.5 24t-0.5 19q-1 10 -1 18
q28 -41 61 -68.5t83 -27.5q10 0 27 2t32.5 9.5t27 23.5t11.5 44q0 36 -19 54.5t-45 35.5l-100 64q-16 10 -35 22.5t-35.5 30t-27.5 42t-11 59.5q0 37 12.5 64t32.5 45t45 28.5t50 14.5l-36 23q-30 19 -53.5 48.5t-23.5 76.5q0 38 13 65t36.5 44t56 25t71.5 8q32 0 58 -5
t45 -10q21 -7 38 -15q-1 -6 -1 -14q-1 -7 -1 -17.5v-24.5v-24t1 -19q0 -10 1 -18q-14 20 -29 37.5t-32 30.5t-37.5 20.5t-45.5 7.5q-11 0 -27.5 -2t-32 -9.5t-27 -23.5t-11.5 -44q0 -36 19 -54.5t45 -35.5l100 -64q16 -10 35 -22.5t35.5 -30t27.5 -42t11 -59.5zM430 329
q0 19 -4 34t-13.5 28t-24.5 25t-36 26l-67 43q-12 -3 -26.5 -12.5t-27.5 -25t-22 -36t-9 -46.5q0 -19 4 -34t13.5 -28t24.5 -25t36 -26l67 -43q12 3 26.5 12.5t27.5 25t22 36t9 46.5z" />
    <glyph glyph-name="dieresis" unicode="&#xa8;" horiz-adv-x="400" 
d="M161 704q0 -25 -15 -39t-39 -14q-21 0 -36 14t-15 38t15 38t38 14q22 0 37 -14t15 -37zM346 704q0 -25 -15 -39t-39 -14q-21 0 -36 14t-15 38t15 38t38 14q22 0 37 -14t15 -37z" />
    <glyph glyph-name="copyright" unicode="&#xa9;" horiz-adv-x="975" 
d="M926 280q0 -98 -32 -180.5t-90 -142.5t-138 -94t-177 -34t-178 33t-139 92.5t-90.5 141t-32.5 178.5q0 98 33 180t92 141.5t140.5 92.5t179.5 33t178 -32.5t136.5 -91t87 -139.5t30.5 -178zM854 280q0 82 -25 152t-71.5 121.5t-113 81t-150.5 29.5t-152.5 -29.5
t-117.5 -82t-75.5 -123.5t-26.5 -155q0 -83 26.5 -154t74.5 -123.5t115.5 -82t150.5 -29.5t150.5 30t115 83.5t73.5 125.5t26 156zM657 19q-16 -7 -37 -11q-18 -5 -44 -8t-60 -3q-87 0 -139.5 26.5t-81.5 67t-38.5 87.5t-9.5 88q0 139 71.5 211t202.5 72q37 0 62.5 -3.5
t42.5 -7.5q19 -5 31 -11q-1 -5 -1 -13v-41v-40q0 -9 1 -16q-12 18 -24 31.5t-26.5 23t-34 14.5t-46.5 5q-32 0 -64 -10t-58 -35.5t-42 -68.5t-16 -108q0 -46 8.5 -85t29 -67.5t54.5 -45t85 -16.5q27 0 47 5.5t35.5 15t27.5 23.5t24 32q-1 -7 -1 -17v-44v-38q0 -8 1 -13z" />
    <glyph glyph-name="ordfeminine" unicode="&#xaa;" horiz-adv-x="379" 
d="M250 384l3 77q-6 -26 -18 -42t-27 -24t-31.5 -10.5t-30.5 -2.5q-35 0 -57 10.5t-34.5 26.5t-17.5 35t-5 36q0 42 15.5 65.5t39 35t50 14t48.5 2.5q14 0 26 -0.5t20 -1.5q10 -1 18 -2v28q0 19 -2 36t-11 30q-8 11 -24 17t-43 6q-8 0 -20 -1t-26 -5.5t-28 -14t-25 -26.5v11
q0 5 0.5 12t0.5 15q0 9 -0.5 15.5t-0.5 11.5v10q10 5 27 9q14 3 35.5 6t52.5 3q53 0 78 -11.5t36 -25.5q16 -20 18.5 -45.5t2.5 -56.5q0 -14 -0.5 -43t-0.5 -80q0 -35 3.5 -55.5t12.5 -36.5l5 -11zM249 562q-5 0 -12 1q-6 1 -15 1.5t-23 0.5q-13 0 -29 -1.5t-30 -8
t-23.5 -20t-9.5 -38.5q0 -35 19 -51t47 -16q23 0 38 5.5t23 12.5q10 8 15 19v95z" />
    <glyph glyph-name="guillemotleft" unicode="&#xab;" horiz-adv-x="493" 
d="M353 61l-107 222l107 223h90l-123 -223l123 -222h-90zM157 61l-107 222l107 223h90l-123 -223l123 -222h-90z" />
    <glyph glyph-name="logicalnot" unicode="&#xac;" horiz-adv-x="646" 
d="M503 177v228h-446v65h515v-293h-69z" />
    <glyph glyph-name="registered" unicode="&#xae;" horiz-adv-x="975" 
d="M926 280q0 -98 -32 -180.5t-90 -142.5t-138 -94t-177 -34t-178 33t-139 92.5t-90.5 141t-32.5 178.5q0 98 33 180t92 141.5t140.5 92.5t179.5 33t178 -32.5t136.5 -91t87 -139.5t30.5 -178zM854 280q0 82 -25 152t-71.5 121.5t-113 81t-150.5 29.5t-152.5 -29.5
t-117.5 -82t-75.5 -123.5t-26.5 -155q0 -83 26.5 -154t74.5 -123.5t115.5 -82t150.5 -29.5t150.5 30t115 83.5t73.5 125.5t26 156zM738 8q-5 -2 -12 -4t-17 -3t-27 -1q-21 0 -36 4.5t-27.5 14t-24.5 25t-25 37.5l-50 81q-17 26 -27.5 42.5t-20 25.5t-19 12.5t-22.5 3.5h-14
q0 -71 1 -112t3 -63.5t5.5 -33t9.5 -21.5l7 -13q-6 0 -16 1q-8 0 -21.5 0.5t-31.5 0.5q-19 0 -32 -0.5t-22 -0.5q-11 -1 -17 -1l7 13q5 10 8.5 20.5t6 35.5t3.5 72.5t1 133.5q0 83 -0.5 129t-3 70.5t-6 34.5t-9.5 21l-7 13q7 -1 16 -1q8 -1 18.5 -1h23.5q18 0 46 1t48 1
q36 0 74 -3t68.5 -16.5t50 -41.5t19.5 -77q0 -29 -9 -55t-29 -46t-51 -32t-74 -12q24 -3 41 -10.5t30.5 -20.5t25.5 -31t26 -42l38 -67q19 -32 35 -52.5t39 -31.5zM570 397q0 32 -9 51.5t-25 29.5t-37 13t-46 3q-8 0 -14.5 -0.5t-11.5 -0.5q-6 -1 -11 -1v-194q4 -1 10 -1h31
q8 0 21.5 1t22.5 3q29 5 49 28t20 68z" />
    <glyph glyph-name="macron" unicode="&#xaf;" horiz-adv-x="400" 
d="M63 660v63h274v-63h-274z" />
    <glyph glyph-name="degree" unicode="&#xb0;" horiz-adv-x="436" 
d="M373 600q0 -32 -12 -60.5t-33 -49.5t-49.5 -33t-61.5 -12q-32 0 -60 12t-49 33t-33 49.5t-12 60.5t12 60.5t33 49.5t49 33t60 12q33 0 61.5 -12t49.5 -33t33 -49.5t12 -60.5zM322 600q0 23 -8 42.5t-22.5 34t-33.5 22.5t-41 8q-45 0 -74 -30.5t-29 -76.5q0 -22 8 -41.5
t21.5 -34.5t32.5 -23.5t41 -8.5t41 8.5t33.5 23.5t22.5 34.5t8 41.5z" />
    <glyph glyph-name="plusminus" unicode="&#xb1;" horiz-adv-x="646" 
d="M357 406v-251h-69v251h-242v65h242v251h69v-251h242v-65h-242zM46 0v65h553v-65h-553z" />
    <glyph glyph-name="uni00B2" unicode="&#xb2;" horiz-adv-x="368" 
d="M322 482q-1 -8 -2 -18q-1 -8 -2 -20t-1 -26v-28h-292q0 44 17.5 75t55.5 67l55 51q23 21 39 38t26 33t14.5 33t4.5 38q0 44 -23 63.5t-63 19.5q-24 0 -40.5 -3.5t-29 -11t-22.5 -18.5t-20 -26v12q0 6 0.5 15t0.5 20t-0.5 19t-0.5 13v9q10 6 28 10q15 4 38 7t56 3
q45 0 76 -9.5t49.5 -26.5t26.5 -40.5t8 -50.5q0 -29 -7 -51.5t-21 -42.5t-34.5 -39.5t-48.5 -42.5l-50 -41l-20 -18t-18 -18t-13.5 -16t-5.5 -11h124q23 0 41.5 3.5t29.5 11.5q7 4 11.5 7.5t7.5 5.5q4 3 5 4z" />
    <glyph glyph-name="uni00B3" unicode="&#xb3;" horiz-adv-x="353" 
d="M311 519q0 -47 -18.5 -73.5t-44.5 -40t-55 -17t-50 -3.5q-36 0 -61.5 8.5t-41.5 20t-23 23.5t-7 20q10 -7 26 -12q14 -5 33.5 -8t46.5 -3q24 0 44.5 4t35.5 14t23.5 27t8.5 43q0 18 -4 33.5t-15 26.5t-30 17t-48 6q-20 0 -31 -3t-16 -5v65q4 -2 16.5 -5.5t31.5 -3.5
q38 0 64 18.5t26 64.5q0 74 -80 74q-39 0 -61 -13.5t-42 -43.5v12q0 6 0.5 14t0.5 19t-0.5 19.5t-0.5 13.5v9q11 5 28 9q14 3 35 6t50 3q81 0 116.5 -30t35.5 -81q0 -31 -10 -52t-26 -34.5t-36 -20t-39 -9.5q17 -1 37.5 -5.5t38.5 -16.5t30 -34t12 -56z" />
    <glyph glyph-name="acute" unicode="&#xb4;" horiz-adv-x="400" 
d="M194 769h97q-5 -11 -15 -25q-8 -12 -23.5 -28t-39.5 -36q-23 -18 -42 -29t-33 -17q-17 -7 -29 -10z" />
    <glyph glyph-name="uni00B5" unicode="&#xb5;" horiz-adv-x="638" 
d="M613 18q-7 -8 -17 -13q-8 -5 -21.5 -9t-31.5 -4t-35 4.5t-29.5 19.5t-20.5 42.5t-8 72.5q-13 -47 -34 -75t-44.5 -43t-45 -20t-36.5 -5q-32 0 -54.5 7t-37 15.5t-21.5 16t-8 9.5q0 -1 0.5 -23.5t0.5 -53.5v-37q0 -36 1 -61t3 -42q2 -19 4 -32q-5 0 -12 1q-6 0 -15.5 0.5
t-20.5 0.5q-12 0 -21.5 -0.5t-15.5 -0.5q-8 -1 -13 -1q3 16 6 42q2 22 4 55.5t2 80.5v406q0 52 -2.5 93t-16.5 73l-5 12q6 0 14 1q7 1 17 2.5t24 4.5q15 3 24.5 5t15.5 4t10 3q1 -4 2 -13q1 -8 1.5 -22t0.5 -38q0 -17 -0.5 -41.5t-1.5 -51.5t-1.5 -54t-0.5 -50q0 -48 1 -80
t3 -54.5t6.5 -38t12.5 -28.5q10 -18 33.5 -33t74.5 -15q39 0 65.5 18t43.5 40q19 26 31 58v205q0 64 -3 101t-14 65l-5 12q5 0 13 1q7 1 16.5 2.5t23.5 4.5l25 5t16 4q7 2 11 3q1 -4 2 -13q1 -8 1.5 -22t0.5 -38q0 -31 -1 -59.5t-2 -58t-2 -61.5t-1 -71q0 -49 2 -82.5
t7.5 -57t14 -38.5t21.5 -27q8 -8 15.5 -12.5t13.5 -6.5q7 -3 14 -4z" />
    <glyph glyph-name="paragraph" unicode="&#xb6;" horiz-adv-x="397" 
d="M310 -43q0 -30 -4.5 -60.5t-19.5 -55t-44.5 -39.5t-79.5 -15h-16q28 14 46.5 34.5t30 49.5t16.5 68t5 91v353q-36 0 -74 9.5t-68.5 32t-50 59t-19.5 91.5q0 37 9.5 65.5t24.5 50.5t35 37t41 24q32 14 68 16t87 2h13v-813z" />
    <glyph glyph-name="periodcentered" unicode="&#xb7;" horiz-adv-x="239" 
d="M186 281q0 -27 -18.5 -45.5t-47.5 -23.5q-32 5 -49.5 23.5t-17.5 44.5q0 27 18.5 45.5t47.5 23.5q32 -5 49.5 -23.5t17.5 -44.5z" />
    <glyph glyph-name="cedilla" unicode="&#xb8;" horiz-adv-x="400" 
d="M206 5q-4 -7 -8 -15.5t-4 -14.5q0 -9 6.5 -15t16.5 -13l13 -9q10 -7 25.5 -22t15.5 -43q0 -27 -15 -44.5t-37 -27t-46.5 -12.5t-43.5 -1q5 2 16 8.5t22.5 16.5t20 22.5t8.5 27.5t-5.5 25t-16.5 25l-6 8q-6 8 -10.5 16.5t-4.5 20.5q0 14 6.5 26.5t13.5 20.5h33z" />
    <glyph glyph-name="uni00B9" unicode="&#xb9;" horiz-adv-x="245" 
d="M192 389q-5 0 -14 1q-8 0 -19.5 0.5t-27.5 0.5q-17 0 -27.5 -0.5t-18.5 -0.5q-9 -1 -14 -1l5 11q5 9 8 18t5 30.5t3 62.5t1 114v151q0 7 -3 10t-14 3h-75q11 19 33 28.5t47 16t50.5 13t44.5 21.5q-2 -23 -3 -58q-3 -60 -3 -192q0 -71 0.5 -110t2.5 -60t5 -29.5t8 -18.5
l6 -11v0z" />
    <glyph glyph-name="ordmasculine" unicode="&#xba;" horiz-adv-x="409" 
d="M378 579q0 -29 -7.5 -63.5t-27.5 -64.5t-54 -50t-88 -20q-42 0 -74 14t-53.5 38.5t-32 59t-10.5 75.5q0 30 7.5 64.5t27.5 64t54 49.5t88 20q42 0 74 -14t53.5 -38.5t32 -59t10.5 -75.5zM299 574q0 66 -21 106t-74 40q-51 0 -72.5 -37t-21.5 -109q0 -67 21 -106.5
t74 -39.5q51 0 72.5 36.5t21.5 109.5z" />
    <glyph glyph-name="guillemotright" unicode="&#xbb;" horiz-adv-x="493" 
d="M336 61h-90l123 223l-123 222h90l107 -222zM140 61h-90l123 223l-123 222h90l107 -222z" />
    <glyph glyph-name="onequarter" unicode="&#xbc;" horiz-adv-x="747" 
d="M192 249q-5 0 -14 1q-8 0 -19.5 0.5t-27.5 0.5q-17 0 -27.5 -0.5t-18.5 -0.5q-9 -1 -14 -1l5 11q5 9 8 18t5 30.5t3 62.5t1 114v151q0 7 -3 10t-14 3h-75q11 19 33 28.5t47 16t50.5 13t44.5 21.5q-2 -23 -3 -58q-3 -60 -3 -192q0 -71 0.5 -110t2.5 -60t5 -29.5t8 -18.5z
M171 0h-65l433 713h63zM719 95q-6 1 -14 3q-7 2 -17 3t-24 1h-7q0 -23 2 -48t12 -44l6 -11h-13q-7 0 -18 0.5t-27 0.5q-17 0 -28 -0.5t-18 -0.5h-12l5 11q9 17 12 41.5t3 50.5h-217q0 17 1 34.5t7.5 36.5t20.5 39t40 43l50 47q31 28 50 46.5t29.5 32.5t14.5 25.5t4 25.5
q0 9 -1 15t-3 10t-4 6q6 -1 13 -1h35h35q7 0 13 1v-5q0 -29 -4.5 -49.5t-18 -39.5t-37.5 -40t-62 -51l-54 -42q-23 -19 -38.5 -39t-15.5 -38h142v50q7 1 18.5 5t23 10t21 12t13.5 11v-88h7q28 0 42 3q8 2 13 4q-1 -4 -1 -9v-26v-27q0 -5 1 -9z" />
    <glyph glyph-name="onehalf" unicode="&#xbd;" horiz-adv-x="804" 
d="M192 249q-5 0 -14 1q-8 0 -19.5 0.5t-27.5 0.5q-17 0 -27.5 -0.5t-18.5 -0.5q-9 -1 -14 -1l5 11q5 9 8 18t5 30.5t3 62.5t1 114v151q0 7 -3 10t-14 3h-75q11 19 33 28.5t47 16t50.5 13t44.5 21.5q-2 -23 -3 -58q-3 -60 -3 -192q0 -71 0.5 -110t2.5 -60t5 -29.5t8 -18.5z
M172 0h-65l433 713h63zM758 92q-1 -8 -2 -18q-1 -8 -2 -20t-1 -26v-28h-292q0 44 17.5 75t55.5 67l55 51q23 21 39 38t26 33t14.5 33t4.5 38q0 44 -23 63.5t-63 19.5q-24 0 -40.5 -3.5t-29 -11t-22.5 -18.5t-20 -26v12q0 6 0.5 15t0.5 20t-0.5 19t-0.5 13v9q10 6 28 10
q15 4 38 7t56 3q45 0 76 -9.5t49.5 -26.5t26.5 -40.5t8 -50.5q0 -29 -7 -51.5t-21 -42.5t-34.5 -39.5t-48.5 -42.5l-50 -41l-20 -18t-18 -18t-13.5 -16t-5.5 -11h124q23 0 41.5 3.5t29.5 11.5q7 4 11.5 7.5t7.5 5.5q4 3 5 4z" />
    <glyph glyph-name="threequarters" unicode="&#xbe;" horiz-adv-x="821" 
d="M311 379q0 -47 -18.5 -73.5t-44.5 -40t-55 -17t-50 -3.5q-36 0 -61.5 8.5t-41.5 20t-23 23.5t-7 20q10 -7 26 -12q14 -5 33.5 -8t46.5 -3q24 0 44.5 4t35.5 14t23.5 27t8.5 43q0 18 -4 33.5t-15 26.5t-30 17t-48 6q-20 0 -31 -3t-16 -5v65q4 -2 16.5 -5.5t31.5 -3.5
q38 0 64 18.5t26 64.5q0 74 -80 74q-39 0 -61 -13.5t-42 -43.5v12q0 6 0.5 14t0.5 19t-0.5 19.5t-0.5 13.5v9q11 5 28 9q14 3 35 6t50 3q81 0 116.5 -30t35.5 -81q0 -31 -10 -52t-26 -34.5t-36 -20t-39 -9.5q17 -1 37.5 -5.5t38.5 -16.5t30 -34t12 -56zM245 0h-65l433 713
h63zM793 95q-6 1 -14 3q-7 2 -17 3t-24 1h-7q0 -23 2 -48t12 -44l6 -11h-13q-7 0 -18 0.5t-27 0.5q-17 0 -28 -0.5t-18 -0.5h-12l5 11q9 17 12 41.5t3 50.5h-217q0 17 1 34.5t7.5 36.5t20.5 39t40 43l50 47q31 28 50 46.5t29.5 32.5t14.5 25.5t4 25.5q0 9 -1 15t-3 10t-4 6
q6 -1 13 -1h35h35q7 0 13 1v-5q0 -29 -4.5 -49.5t-18 -39.5t-37.5 -40t-62 -51l-54 -42q-23 -19 -38.5 -39t-15.5 -38h142v50q7 1 18.5 5t23 10t21 12t13.5 11v-88h7q28 0 42 3q8 2 13 4q-1 -4 -1 -9v-26v-27q0 -5 1 -9z" />
    <glyph glyph-name="questiondown" unicode="&#xbf;" horiz-adv-x="483" 
d="M333 520q0 -25 -14.5 -42t-43.5 -22q-32 5 -45.5 22.5t-13.5 40.5q0 25 14.5 42t43.5 22q32 -5 45.5 -22.5t13.5 -40.5zM448 -122q-16 -9 -41 -15q-21 -6 -53.5 -10.5t-77.5 -4.5q-60 0 -102 13t-68.5 36.5t-38.5 56t-12 71.5q0 28 7.5 53.5t21 50.5t32.5 50t42 54l50 61
q24 29 31.5 41.5t7.5 29.5q0 8 -2.5 14.5t-5.5 11.5q-4 5 -7 10h80q1 -4 2 -11t1 -17q-1 -32 -11 -55.5t-34 -54.5l-69 -92q-28 -37 -39 -69.5t-11 -68.5q0 -63 32 -95.5t97 -32.5q36 0 61.5 6t44.5 17t33.5 27t28.5 36q-1 -7 -1 -16q-1 -8 -1 -18.5v-24.5v-24t1 -17
q0 -8 1 -13z" />
    <glyph glyph-name="Agrave" unicode="&#xc0;" horiz-adv-x="615" 
d="M614 -1q-10 0 -23 1q-11 0 -28 0.5t-37 0.5t-36.5 -0.5t-27.5 -0.5q-14 -1 -24 -1q10 7 21 21t11 42q0 26 -12 71t-29 101l-20 67h-226l-20 -67q-17 -56 -29 -101t-12 -71q0 -28 11 -42t21 -21q-10 0 -22 1q-11 0 -26 0.5t-35 0.5q-21 0 -36 -0.5t-25 -0.5q-11 -1 -20 -1
q14 13 25 32.5t22.5 47.5t23.5 66.5t29 90.5l133 417q3 9 5.5 18t2.5 19t-2.5 14.5t-4.5 6.5h169q0 -1 -3 -5.5t-3 -15.5q0 -10 2 -19t5 -18l124 -417q15 -52 27 -90.5t22.5 -66.5t21.5 -47.5t25 -32.5zM320 605q-5 14 -8.5 27t-6.5 24q-4 12 -7 24l-97 -319h191zM352 753
q-14 3 -30 10q-14 6 -32.5 17t-41.5 29q-25 20 -40 36t-23 28q-10 14 -15 25h97z" />
    <glyph glyph-name="Aacute" unicode="&#xc1;" horiz-adv-x="615" 
d="M614 -1q-10 0 -23 1q-11 0 -28 0.5t-37 0.5t-36.5 -0.5t-27.5 -0.5q-14 -1 -24 -1q10 7 21 21t11 42q0 26 -12 71t-29 101l-20 67h-226l-20 -67q-17 -56 -29 -101t-12 -71q0 -28 11 -42t21 -21q-10 0 -22 1q-11 0 -26 0.5t-35 0.5q-21 0 -36 -0.5t-25 -0.5q-11 -1 -20 -1
q14 13 25 32.5t22.5 47.5t23.5 66.5t29 90.5l133 417q3 9 5.5 18t2.5 19t-2.5 14.5t-4.5 6.5h169q0 -1 -3 -5.5t-3 -15.5q0 -10 2 -19t5 -18l124 -417q15 -52 27 -90.5t22.5 -66.5t21.5 -47.5t25 -32.5zM320 605q-5 14 -8.5 27t-6.5 24q-4 12 -7 24l-97 -319h191zM347 898
h97q-5 -11 -15 -25q-8 -12 -23.5 -28t-39.5 -36q-23 -18 -42 -29t-33 -17q-17 -7 -29 -10z" />
    <glyph glyph-name="Acircumflex" unicode="&#xc2;" horiz-adv-x="615" 
d="M614 -1q-10 0 -23 1q-11 0 -28 0.5t-37 0.5t-36.5 -0.5t-27.5 -0.5q-14 -1 -24 -1q10 7 21 21t11 42q0 26 -12 71t-29 101l-20 67h-226l-20 -67q-17 -56 -29 -101t-12 -71q0 -28 11 -42t21 -21q-10 0 -22 1q-11 0 -26 0.5t-35 0.5q-21 0 -36 -0.5t-25 -0.5q-11 -1 -20 -1
q14 13 25 32.5t22.5 47.5t23.5 66.5t29 90.5l133 417q3 9 5.5 18t2.5 19t-2.5 14.5t-4.5 6.5h169q0 -1 -3 -5.5t-3 -15.5q0 -10 2 -19t5 -18l124 -417q15 -52 27 -90.5t22.5 -66.5t21.5 -47.5t25 -32.5zM320 605q-5 14 -8.5 27t-6.5 24q-4 12 -7 24l-97 -319h191zM469 752
q-48 3 -93 23t-69 51q-35 -38 -77.5 -54.5t-84.5 -19.5l137 146h51z" />
    <glyph glyph-name="Atilde" unicode="&#xc3;" horiz-adv-x="615" 
d="M614 -1q-10 0 -23 1q-11 0 -28 0.5t-37 0.5t-36.5 -0.5t-27.5 -0.5q-14 -1 -24 -1q10 7 21 21t11 42q0 26 -12 71t-29 101l-20 67h-226l-20 -67q-17 -56 -29 -101t-12 -71q0 -28 11 -42t21 -21q-10 0 -22 1q-11 0 -26 0.5t-35 0.5q-21 0 -36 -0.5t-25 -0.5q-11 -1 -20 -1
q14 13 25 32.5t22.5 47.5t23.5 66.5t29 90.5l133 417q3 9 5.5 18t2.5 19t-2.5 14.5t-4.5 6.5h169q0 -1 -3 -5.5t-3 -15.5q0 -10 2 -19t5 -18l124 -417q15 -52 27 -90.5t22.5 -66.5t21.5 -47.5t25 -32.5zM320 605q-5 14 -8.5 27t-6.5 24q-4 12 -7 24l-97 -319h191zM393 832
q15 0 28 7t22.5 15t15 15.5t6.5 9.5q0 -55 -25 -81t-60 -26q-15 0 -28 3t-23 7l-58 21q-13 5 -20.5 6.5t-20.5 1.5q-15 0 -28 -7t-22.5 -15.5t-15 -16t-6.5 -9.5q0 56 25 82t60 26q15 0 28 -3t23 -7l58 -21q13 -5 20.5 -6.5t20.5 -1.5z" />
    <glyph glyph-name="Adieresis" unicode="&#xc4;" horiz-adv-x="615" 
d="M614 -1q-10 0 -23 1q-11 0 -28 0.5t-37 0.5t-36.5 -0.5t-27.5 -0.5q-14 -1 -24 -1q10 7 21 21t11 42q0 26 -12 71t-29 101l-20 67h-226l-20 -67q-17 -56 -29 -101t-12 -71q0 -28 11 -42t21 -21q-10 0 -22 1q-11 0 -26 0.5t-35 0.5q-21 0 -36 -0.5t-25 -0.5q-11 -1 -20 -1
q14 13 25 32.5t22.5 47.5t23.5 66.5t29 90.5l133 417q3 9 5.5 18t2.5 19t-2.5 14.5t-4.5 6.5h169q0 -1 -3 -5.5t-3 -15.5q0 -10 2 -19t5 -18l124 -417q15 -52 27 -90.5t22.5 -66.5t21.5 -47.5t25 -32.5zM320 605q-5 14 -8.5 27t-6.5 24q-4 12 -7 24l-97 -319h191zM271 827
q0 -25 -15 -39t-39 -14q-21 0 -36 14t-15 38t15 38t38 14q22 0 37 -14t15 -37zM456 827q0 -25 -15 -39t-39 -14q-21 0 -36 14t-15 38t15 38t38 14q22 0 37 -14t15 -37z" />
    <glyph glyph-name="Aring" unicode="&#xc5;" horiz-adv-x="615" 
d="M614 -1q-10 0 -23 1q-11 0 -28 0.5t-37 0.5t-36.5 -0.5t-27.5 -0.5q-14 -1 -24 -1q10 7 21 21t11 42q0 26 -12 71t-29 101l-20 67h-226l-20 -67q-17 -56 -29 -101t-12 -71q0 -28 11 -42t21 -21q-10 0 -22 1q-11 0 -26 0.5t-35 0.5q-21 0 -36 -0.5t-25 -0.5q-11 -1 -20 -1
q14 13 25 32.5t22.5 47.5t23.5 66.5t29 90.5l133 417q3 9 5.5 18t2.5 19t-2.5 14.5t-4.5 6.5h14q-15 12 -24 31t-9 45q0 48 30 73t74 25q45 0 75 -24.5t30 -73.5q0 -26 -9 -45t-25 -31h13q0 -1 -3 -5.5t-3 -15.5q0 -10 2 -19t5 -18l124 -417q15 -52 27 -90.5t22.5 -66.5
t21.5 -47.5t25 -32.5zM320 605q-9 30 -14.5 49t-7.5 26l-23 -75l-74 -244h191zM368 787q0 29 -16 44t-43 15q-23 0 -40.5 -14.5t-17.5 -44.5q0 -29 16 -44t43 -15q23 0 40.5 14.5t17.5 44.5z" />
    <glyph glyph-name="AE" unicode="&#xc6;" horiz-adv-x="837" 
d="M774 113q-2 -14 -4 -35t-4 -50l-2 -28h-333q-20 0 -35 -0.5t-24 -0.5h-18l9 17q7 14 12 29t8 45.5t4 85t1 146.5h-161l-69 -143q-17 -36 -27 -57.5t-15 -34.5t-6.5 -22t-1.5 -19q0 -12 5.5 -24t17.5 -23q-11 0 -25 1q-12 0 -28 0.5t-34 0.5q-24 0 -41 -0.5t-28 -0.5
q-12 -1 -20 -1q16 11 28 23t25.5 32.5t32.5 54.5t48 90l268 514q5 -1 15 -1h61h321q-1 -5 -1 -12v-36q0 -29 1.5 -42.5t1.5 -15.5q-1 1 -8 7.5t-28 19.5q-38 22 -110 22h-138v-277h114q35 0 63.5 4t46.5 15q20 11 27 17.5t9 8.5q0 -1 -1.5 -21t-1.5 -53q0 -32 1.5 -51.5
t1.5 -21.5q-1 1 -8 7.5t-28 19.5q-18 11 -46.5 15t-63.5 4h-114v-265h128q46 0 74.5 5.5t46.5 16t30 26t26 35.5zM388 665q-1 -1 -9 -22t-25 -56l-101 -210h135v288z" />
    <glyph glyph-name="Ccedilla" unicode="&#xc7;" horiz-adv-x="634" 
d="M594 22q-22 -9 -49 -15q-23 -5 -57 -9.5t-76 -4.5h-7q-5 -10 -5 -18q0 -9 6.5 -15t16.5 -13l13 -9q10 -7 25.5 -22t15.5 -43q0 -27 -15 -44.5t-37 -27t-46.5 -12.5t-43.5 -1q5 2 16 8.5t22.5 16.5t20 22.5t8.5 27.5t-5.5 25t-16.5 25l-6 8q-6 8 -10.5 16.5t-4.5 20.5
q0 20 12 37q-74 5 -126 26t-86.5 52.5t-54 69t-29.5 75t-12.5 72t-2.5 58.5q0 88 24 157t70 116.5t113 72.5t152 25q47 0 80 -5t54 -10q25 -6 41 -14q-1 -7 -1 -16q-1 -8 -1 -19.5v-25.5v-27t1 -21q0 -11 1 -19q-16 23 -32 41.5t-35.5 31t-45.5 19t-63 6.5q-24 0 -53 -3.5
t-58 -14.5t-57 -31.5t-49 -54.5t-34 -84t-13 -120q0 -60 11 -114t40 -95.5t79.5 -66t129.5 -24.5q38 0 64.5 7t47 20t36.5 31.5t32 41.5q-1 -10 -1 -21q-1 -10 -1 -23.5v-27.5v-24t1 -18q0 -9 1 -16z" />
    <glyph glyph-name="Egrave" unicode="&#xc8;" horiz-adv-x="565" 
d="M502 113q-2 -14 -4 -35t-4 -50l-2 -28h-335q-20 0 -35 -0.5t-24 -0.5h-18l9 17l9 18t6.5 21.5t4.5 34.5t3 56.5t1.5 87.5t0.5 127q0 109 -1 169.5t-3.5 92t-7.5 45t-13 28.5l-9 17q7 -1 18 -1h58h326q-1 -5 -1 -12v-36q0 -29 1.5 -42.5t1.5 -15.5q-1 1 -8 7.5t-28 19.5
q-38 22 -110 22h-138v-270h114q35 0 63.5 4t46.5 15q20 11 27 17.5t9 8.5q0 -1 -1.5 -21t-1.5 -53q0 -32 1.5 -51.5t1.5 -21.5q-1 1 -8 7.5t-28 19.5q-18 11 -46.5 15t-63.5 4h-114v-272h128q46 0 74.5 5.5t46.5 16t30 26t26 35.5zM334 753q-14 3 -30 10q-14 6 -32.5 17
t-41.5 29q-25 20 -40 36t-23 28q-10 14 -15 25h97z" />
    <glyph glyph-name="Eacute" unicode="&#xc9;" horiz-adv-x="565" 
d="M502 113q-2 -14 -4 -35t-4 -50l-2 -28h-335q-20 0 -35 -0.5t-24 -0.5h-18l9 17l9 18t6.5 21.5t4.5 34.5t3 56.5t1.5 87.5t0.5 127q0 109 -1 169.5t-3.5 92t-7.5 45t-13 28.5l-9 17q7 -1 18 -1h58h326q-1 -5 -1 -12v-36q0 -29 1.5 -42.5t1.5 -15.5q-1 1 -8 7.5t-28 19.5
q-38 22 -110 22h-138v-270h114q35 0 63.5 4t46.5 15q20 11 27 17.5t9 8.5q0 -1 -1.5 -21t-1.5 -53q0 -32 1.5 -51.5t1.5 -21.5q-1 1 -8 7.5t-28 19.5q-18 11 -46.5 15t-63.5 4h-114v-272h128q46 0 74.5 5.5t46.5 16t30 26t26 35.5zM330 898h97q-5 -11 -15 -25
q-8 -12 -23.5 -28t-39.5 -36q-23 -18 -42 -29t-33 -17q-17 -7 -29 -10z" />
    <glyph glyph-name="Ecircumflex" unicode="&#xca;" horiz-adv-x="565" 
d="M502 113q-2 -14 -4 -35t-4 -50l-2 -28h-335q-20 0 -35 -0.5t-24 -0.5h-18l9 17l9 18t6.5 21.5t4.5 34.5t3 56.5t1.5 87.5t0.5 127q0 109 -1 169.5t-3.5 92t-7.5 45t-13 28.5l-9 17q7 -1 18 -1h58h326q-1 -5 -1 -12v-36q0 -29 1.5 -42.5t1.5 -15.5q-1 1 -8 7.5t-28 19.5
q-38 22 -110 22h-138v-270h114q35 0 63.5 4t46.5 15q20 11 27 17.5t9 8.5q0 -1 -1.5 -21t-1.5 -53q0 -32 1.5 -51.5t1.5 -21.5q-1 1 -8 7.5t-28 19.5q-18 11 -46.5 15t-63.5 4h-114v-272h128q46 0 74.5 5.5t46.5 16t30 26t26 35.5zM451 752q-48 3 -93 23t-69 51
q-35 -38 -77.5 -54.5t-84.5 -19.5l137 146h51z" />
    <glyph glyph-name="Edieresis" unicode="&#xcb;" horiz-adv-x="565" 
d="M502 113q-2 -14 -4 -35t-4 -50l-2 -28h-335q-20 0 -35 -0.5t-24 -0.5h-18l9 17l9 18t6.5 21.5t4.5 34.5t3 56.5t1.5 87.5t0.5 127q0 109 -1 169.5t-3.5 92t-7.5 45t-13 28.5l-9 17q7 -1 18 -1h58h326q-1 -5 -1 -12v-36q0 -29 1.5 -42.5t1.5 -15.5q-1 1 -8 7.5t-28 19.5
q-38 22 -110 22h-138v-270h114q35 0 63.5 4t46.5 15q20 11 27 17.5t9 8.5q0 -1 -1.5 -21t-1.5 -53q0 -32 1.5 -51.5t1.5 -21.5q-1 1 -8 7.5t-28 19.5q-18 11 -46.5 15t-63.5 4h-114v-272h128q46 0 74.5 5.5t46.5 16t30 26t26 35.5zM254 827q0 -25 -15 -39t-39 -14
q-21 0 -36 14t-15 38t15 38t38 14q22 0 37 -14t15 -37zM439 827q0 -25 -15 -39t-39 -14q-21 0 -36 14t-15 38t15 38t38 14q22 0 37 -14t15 -37z" />
    <glyph glyph-name="Igrave" unicode="&#xcc;" horiz-adv-x="313" 
d="M233 -1q-7 0 -18 1q-9 0 -23.5 0.5t-34.5 0.5t-35 -0.5t-24 -0.5q-11 -1 -18 -1l9 17l9 18t6.5 21.5t4.5 34.5t3 56.5t1.5 87.5t0.5 127q0 109 -1 169.5t-3.5 92t-7.5 45t-13 28.5l-9 17q7 -1 18 -1q9 -1 23.5 -1h34.5h34.5t24.5 1q11 0 18 1l-9 -17l-9 -18t-6.5 -21.5
t-4.5 -34.5t-3 -56.5t-1.5 -87.5t-0.5 -127q0 -109 1 -169.5t3.5 -92t7.5 -45t13 -28.5zM204 753q-14 3 -30 10q-14 6 -32.5 17t-41.5 29q-25 20 -40 36t-23 28q-10 14 -15 25h97z" />
    <glyph glyph-name="Iacute" unicode="&#xcd;" horiz-adv-x="313" 
d="M233 -1q-7 0 -18 1q-9 0 -23.5 0.5t-34.5 0.5t-35 -0.5t-24 -0.5q-11 -1 -18 -1l9 17l9 18t6.5 21.5t4.5 34.5t3 56.5t1.5 87.5t0.5 127q0 109 -1 169.5t-3.5 92t-7.5 45t-13 28.5l-9 17q7 -1 18 -1q9 -1 23.5 -1h34.5h34.5t24.5 1q11 0 18 1l-9 -17l-9 -18t-6.5 -21.5
t-4.5 -34.5t-3 -56.5t-1.5 -87.5t-0.5 -127q0 -109 1 -169.5t3.5 -92t7.5 -45t13 -28.5zM198 898h97q-5 -11 -15 -25q-8 -12 -23.5 -28t-39.5 -36q-23 -18 -42 -29t-33 -17q-17 -7 -29 -10z" />
    <glyph glyph-name="Icircumflex" unicode="&#xce;" horiz-adv-x="313" 
d="M233 -1q-7 0 -18 1q-9 0 -23.5 0.5t-34.5 0.5t-35 -0.5t-24 -0.5q-11 -1 -18 -1l9 17l9 18t6.5 21.5t4.5 34.5t3 56.5t1.5 87.5t0.5 127q0 109 -1 169.5t-3.5 92t-7.5 45t-13 28.5l-9 17q7 -1 18 -1q9 -1 23.5 -1h34.5h34.5t24.5 1q11 0 18 1l-9 -17l-9 -18t-6.5 -21.5
t-4.5 -34.5t-3 -56.5t-1.5 -87.5t-0.5 -127q0 -109 1 -169.5t3.5 -92t7.5 -45t13 -28.5zM321 752q-48 3 -93 23t-69 51q-35 -38 -77.5 -54.5t-84.5 -19.5l137 146h51z" />
    <glyph glyph-name="Idieresis" unicode="&#xcf;" horiz-adv-x="313" 
d="M233 -1q-7 0 -18 1q-9 0 -23.5 0.5t-34.5 0.5t-35 -0.5t-24 -0.5q-11 -1 -18 -1l9 17l9 18t6.5 21.5t4.5 34.5t3 56.5t1.5 87.5t0.5 127q0 109 -1 169.5t-3.5 92t-7.5 45t-13 28.5l-9 17q7 -1 18 -1q9 -1 23.5 -1h34.5h34.5t24.5 1q11 0 18 1l-9 -17l-9 -18t-6.5 -21.5
t-4.5 -34.5t-3 -56.5t-1.5 -87.5t-0.5 -127q0 -109 1 -169.5t3.5 -92t7.5 -45t13 -28.5zM119 827q0 -25 -15 -39t-39 -14q-21 0 -36 14t-15 38t15 38t38 14q22 0 37 -14t15 -37zM304 827q0 -25 -15 -39t-39 -14q-21 0 -36 14t-15 38t15 38t38 14q22 0 37 -14t15 -37z" />
    <glyph glyph-name="Eth" unicode="&#xd0;" horiz-adv-x="742" 
d="M682 373q0 -92 -20.5 -155.5t-53.5 -105t-75 -65t-85 -34.5t-83.5 -13t-70.5 -2q-32 0 -58.5 1.5t-56.5 1.5q-20 0 -35 -0.5t-25 -0.5q-11 -1 -20 -1l9 17q7 13 11.5 26t7.5 42.5t4.5 84t1.5 151.5h-15q-29 0 -48 -1.5t-30 -3.5q-13 -3 -20 -5v9q0 5 0.5 11t0.5 15
q0 8 -0.5 14.5t-0.5 11.5v9q7 -3 20 -5q11 -2 30 -3.5t48 -1.5h15q0 70 -0.5 119t-1.5 81.5t-2.5 52.5t-4.5 33t-7 21.5t-9 18.5l-9 17q9 -1 20 -1q10 -1 25 -1h35q30 0 65 1.5t67 1.5q23 0 59 -2t77.5 -12t83 -31t75.5 -59t55 -96t21 -141zM588 360q0 102 -26.5 161.5
t-69 89.5t-95 38t-104.5 8q-16 0 -29 -0.5t-23 -0.5q-11 -1 -21 -1v-285h81q29 0 47.5 1.5t29.5 3.5q13 2 21 5q-1 -4 -1 -9v-26v-26q0 -5 1 -9q-8 2 -21 5q-11 2 -29.5 3.5t-47.5 1.5h-81v-263q11 -1 22 -1q10 -1 22.5 -1h24.5q32 0 67 2.5t68 12t63 29t52.5 53.5
t35.5 84.5t13 123.5z" />
    <glyph glyph-name="Ntilde" unicode="&#xd1;" horiz-adv-x="735" 
d="M653 696q-5 -9 -8.5 -17t-6 -21.5t-4 -35t-3 -57t-2 -87.5t-0.5 -127l-1 -353q-7 0 -15 1q-7 1 -17 1.5t-22 0.5q-15 0 -25.5 -0.5t-18.5 -1.5q-9 -1 -14 -1l-308 576q-6 11 -11 23t-9 23q-4 12 -7 25v-294q0 -109 1 -169.5t3.5 -92t7.5 -45t13 -28.5l9 -17q-7 0 -17 1
q-9 0 -22 0.5t-30 0.5t-29.5 -0.5t-20.5 -0.5q-10 -1 -16 -1l9 17q5 9 8.5 17t6.5 21.5t5 35t3 57t1.5 87.5t0.5 127q0 109 -1 169.5t-3.5 92t-7.5 45t-13 28.5l-9 17q6 -1 17 -1q9 -1 24 -1h37h30.5t21.5 1q10 0 16 1l307 -575q8 -14 12.5 -27t8.5 -23q4 -11 7 -21v294
q0 109 -1 169.5t-3.5 92t-7.5 45t-13 28.5l-9 17q6 -1 17 -1q8 -1 21.5 -1h30.5h29.5t20.5 1q10 0 16 1zM458 832q15 0 28 7t22.5 15t15 15.5t6.5 9.5q0 -55 -25 -81t-60 -26q-15 0 -28 3t-23 7l-58 21q-13 5 -20.5 6.5t-20.5 1.5q-15 0 -28 -7t-22.5 -15.5t-15 -16
t-6.5 -9.5q0 56 25 82t60 26q15 0 28 -3t23 -7l58 -21q13 -5 20.5 -6.5t20.5 -1.5z" />
    <glyph glyph-name="Ograve" unicode="&#xd2;" horiz-adv-x="749" 
d="M689 370q0 -17 -1.5 -51.5t-10.5 -77t-28 -87.5t-54 -82t-89 -60.5t-132 -23.5q-75 0 -133.5 25.5t-98.5 72t-61 110.5t-21 142q0 17 1.5 51.5t10.5 77t28 87.5t54 82t89 60.5t132 23.5q75 0 133.5 -25.5t98.5 -72t61 -110.5t21 -142zM594 358q0 87 -18.5 145t-49 93
t-70.5 49.5t-82 14.5q-41 0 -80.5 -15t-70 -51t-49.5 -95.5t-19 -148.5q0 -87 18.5 -145t49 -93t70.5 -49.5t82 -14.5q41 0 80.5 15t70 51t49.5 95.5t19 148.5zM418 753q-14 3 -30 10q-14 6 -32.5 17t-41.5 29q-25 20 -40 36t-23 28q-10 14 -15 25h97z" />
    <glyph glyph-name="Oacute" unicode="&#xd3;" horiz-adv-x="749" 
d="M689 370q0 -17 -1.5 -51.5t-10.5 -77t-28 -87.5t-54 -82t-89 -60.5t-132 -23.5q-75 0 -133.5 25.5t-98.5 72t-61 110.5t-21 142q0 17 1.5 51.5t10.5 77t28 87.5t54 82t89 60.5t132 23.5q75 0 133.5 -25.5t98.5 -72t61 -110.5t21 -142zM594 358q0 87 -18.5 145t-49 93
t-70.5 49.5t-82 14.5q-41 0 -80.5 -15t-70 -51t-49.5 -95.5t-19 -148.5q0 -87 18.5 -145t49 -93t70.5 -49.5t82 -14.5q41 0 80.5 15t70 51t49.5 95.5t19 148.5zM415 898h97q-5 -11 -15 -25q-8 -12 -23.5 -28t-39.5 -36q-23 -18 -42 -29t-33 -17q-17 -7 -29 -10z" />
    <glyph glyph-name="Ocircumflex" unicode="&#xd4;" horiz-adv-x="749" 
d="M689 370q0 -17 -1.5 -51.5t-10.5 -77t-28 -87.5t-54 -82t-89 -60.5t-132 -23.5q-75 0 -133.5 25.5t-98.5 72t-61 110.5t-21 142q0 17 1.5 51.5t10.5 77t28 87.5t54 82t89 60.5t132 23.5q75 0 133.5 -25.5t98.5 -72t61 -110.5t21 -142zM594 358q0 87 -18.5 145t-49 93
t-70.5 49.5t-82 14.5q-41 0 -80.5 -15t-70 -51t-49.5 -95.5t-19 -148.5q0 -87 18.5 -145t49 -93t70.5 -49.5t82 -14.5q41 0 80.5 15t70 51t49.5 95.5t19 148.5zM535 752q-48 3 -93 23t-69 51q-35 -38 -77.5 -54.5t-84.5 -19.5l137 146h51z" />
    <glyph glyph-name="Otilde" unicode="&#xd5;" horiz-adv-x="749" 
d="M689 370q0 -17 -1.5 -51.5t-10.5 -77t-28 -87.5t-54 -82t-89 -60.5t-132 -23.5q-75 0 -133.5 25.5t-98.5 72t-61 110.5t-21 142q0 17 1.5 51.5t10.5 77t28 87.5t54 82t89 60.5t132 23.5q75 0 133.5 -25.5t98.5 -72t61 -110.5t21 -142zM594 358q0 87 -18.5 145t-49 93
t-70.5 49.5t-82 14.5q-41 0 -80.5 -15t-70 -51t-49.5 -95.5t-19 -148.5q0 -87 18.5 -145t49 -93t70.5 -49.5t82 -14.5q41 0 80.5 15t70 51t49.5 95.5t19 148.5zM467 832q15 0 28 7t22.5 15t15 15.5t6.5 9.5q0 -55 -25 -81t-60 -26q-15 0 -28 3t-23 7l-58 21q-13 5 -20.5 6.5
t-20.5 1.5q-15 0 -28 -7t-22.5 -15.5t-15 -16t-6.5 -9.5q0 56 25 82t60 26q15 0 28 -3t23 -7l58 -21q13 -5 20.5 -6.5t20.5 -1.5z" />
    <glyph glyph-name="Odieresis" unicode="&#xd6;" horiz-adv-x="749" 
d="M689 370q0 -17 -1.5 -51.5t-10.5 -77t-28 -87.5t-54 -82t-89 -60.5t-132 -23.5q-75 0 -133.5 25.5t-98.5 72t-61 110.5t-21 142q0 17 1.5 51.5t10.5 77t28 87.5t54 82t89 60.5t132 23.5q75 0 133.5 -25.5t98.5 -72t61 -110.5t21 -142zM594 358q0 87 -18.5 145t-49 93
t-70.5 49.5t-82 14.5q-41 0 -80.5 -15t-70 -51t-49.5 -95.5t-19 -148.5q0 -87 18.5 -145t49 -93t70.5 -49.5t82 -14.5q41 0 80.5 15t70 51t49.5 95.5t19 148.5zM334 827q0 -25 -15 -39t-39 -14q-21 0 -36 14t-15 38t15 38t38 14q22 0 37 -14t15 -37zM519 827q0 -25 -15 -39
t-39 -14q-21 0 -36 14t-15 38t15 38t38 14q22 0 37 -14t15 -37z" />
    <glyph glyph-name="multiply" unicode="&#xd7;" horiz-adv-x="646" 
d="M368 354l189 -188l-46 -46l-189 189l-189 -190l-46 46l190 189l-189 189l46 46l188 -189l190 190l46 -46z" />
    <glyph glyph-name="Oslash" unicode="&#xd8;" horiz-adv-x="749" 
d="M689 370q0 -17 -1.5 -51.5t-10.5 -77t-28 -87.5t-54 -82t-89 -60.5t-132 -23.5q-36 0 -68 6.5t-61 17.5l-36 -77l-50 21l38 81q-67 45 -102 122t-35 179q0 17 1.5 51.5t10.5 77t28 87.5t54 82t89 60.5t132 23.5q36 0 68 -6.5t61 -17.5l36 77l50 -21l-38 -81
q67 -45 102 -122t35 -179zM594 358q0 92 -20 152t-53 95l-248 -533q23 -13 49 -18.5t53 -5.5q41 0 80.5 15t70 51t49.5 95.5t19 148.5zM476 636q-23 13 -49 18.5t-53 5.5q-41 0 -80.5 -15t-70 -51t-49.5 -95.5t-19 -148.5q0 -92 20 -152t53 -95z" />
    <glyph glyph-name="Ugrave" unicode="&#xd9;" horiz-adv-x="722" 
d="M645 696q-7 -13 -12 -26t-8 -41.5t-4 -81t-1 -145.5v-60q0 -49 -0.5 -85.5t-3.5 -64t-9 -49t-16 -40.5q-26 -50 -79 -81.5t-150 -31.5q-74 0 -129.5 20t-89.5 70q-12 17 -20 35.5t-12.5 43t-6.5 58t-2 81.5v77q0 100 -1 157.5t-3.5 88.5t-7.5 45.5t-13 29.5l-9 17
q7 -1 18 -1q9 -1 24 -1h35h34.5t24.5 1q11 0 18 1l-9 -17q-7 -13 -12 -26t-8 -41.5t-4 -81t-1 -145.5v-139q0 -23 2 -50.5t7 -44.5q30 -118 170 -118q69 0 112.5 29t58.5 92q4 17 6 39.5t2 44.5v106q0 109 -1 169.5t-3.5 92t-7.5 45t-13 28.5l-9 17q5 -1 15 -1q8 -1 21.5 -1
h33.5h34t22 1q10 0 16 1zM414 753q-14 3 -30 10q-14 6 -32.5 17t-41.5 29q-25 20 -40 36t-23 28q-10 14 -15 25h97z" />
    <glyph glyph-name="Uacute" unicode="&#xda;" horiz-adv-x="722" 
d="M645 696q-7 -13 -12 -26t-8 -41.5t-4 -81t-1 -145.5v-60q0 -49 -0.5 -85.5t-3.5 -64t-9 -49t-16 -40.5q-26 -50 -79 -81.5t-150 -31.5q-74 0 -129.5 20t-89.5 70q-12 17 -20 35.5t-12.5 43t-6.5 58t-2 81.5v77q0 100 -1 157.5t-3.5 88.5t-7.5 45.5t-13 29.5l-9 17
q7 -1 18 -1q9 -1 24 -1h35h34.5t24.5 1q11 0 18 1l-9 -17q-7 -13 -12 -26t-8 -41.5t-4 -81t-1 -145.5v-139q0 -23 2 -50.5t7 -44.5q30 -118 170 -118q69 0 112.5 29t58.5 92q4 17 6 39.5t2 44.5v106q0 109 -1 169.5t-3.5 92t-7.5 45t-13 28.5l-9 17q5 -1 15 -1q8 -1 21.5 -1
h33.5h34t22 1q10 0 16 1zM408 898h97q-5 -11 -15 -25q-8 -12 -23.5 -28t-39.5 -36q-23 -18 -42 -29t-33 -17q-17 -7 -29 -10z" />
    <glyph glyph-name="Ucircumflex" unicode="&#xdb;" horiz-adv-x="722" 
d="M645 696q-7 -13 -12 -26t-8 -41.5t-4 -81t-1 -145.5v-60q0 -49 -0.5 -85.5t-3.5 -64t-9 -49t-16 -40.5q-26 -50 -79 -81.5t-150 -31.5q-74 0 -129.5 20t-89.5 70q-12 17 -20 35.5t-12.5 43t-6.5 58t-2 81.5v77q0 100 -1 157.5t-3.5 88.5t-7.5 45.5t-13 29.5l-9 17
q7 -1 18 -1q9 -1 24 -1h35h34.5t24.5 1q11 0 18 1l-9 -17q-7 -13 -12 -26t-8 -41.5t-4 -81t-1 -145.5v-139q0 -23 2 -50.5t7 -44.5q30 -118 170 -118q69 0 112.5 29t58.5 92q4 17 6 39.5t2 44.5v106q0 109 -1 169.5t-3.5 92t-7.5 45t-13 28.5l-9 17q5 -1 15 -1q8 -1 21.5 -1
h33.5h34t22 1q10 0 16 1zM531 752q-48 3 -93 23t-69 51q-35 -38 -77.5 -54.5t-84.5 -19.5l137 146h51z" />
    <glyph glyph-name="Udieresis" unicode="&#xdc;" horiz-adv-x="722" 
d="M645 696q-7 -13 -12 -26t-8 -41.5t-4 -81t-1 -145.5v-60q0 -49 -0.5 -85.5t-3.5 -64t-9 -49t-16 -40.5q-26 -50 -79 -81.5t-150 -31.5q-74 0 -129.5 20t-89.5 70q-12 17 -20 35.5t-12.5 43t-6.5 58t-2 81.5v77q0 100 -1 157.5t-3.5 88.5t-7.5 45.5t-13 29.5l-9 17
q7 -1 18 -1q9 -1 24 -1h35h34.5t24.5 1q11 0 18 1l-9 -17q-7 -13 -12 -26t-8 -41.5t-4 -81t-1 -145.5v-139q0 -23 2 -50.5t7 -44.5q30 -118 170 -118q69 0 112.5 29t58.5 92q4 17 6 39.5t2 44.5v106q0 109 -1 169.5t-3.5 92t-7.5 45t-13 28.5l-9 17q5 -1 15 -1q8 -1 21.5 -1
h33.5h34t22 1q10 0 16 1zM332 827q0 -25 -15 -39t-39 -14q-21 0 -36 14t-15 38t15 38t38 14q22 0 37 -14t15 -37zM517 827q0 -25 -15 -39t-39 -14q-21 0 -36 14t-15 38t15 38t38 14q22 0 37 -14t15 -37z" />
    <glyph glyph-name="Yacute" unicode="&#xdd;" horiz-adv-x="539" 
d="M559 713q-12 -9 -22 -18.5t-23.5 -30.5t-34.5 -57t-55 -97l-103 -184q0 -96 1 -151t3.5 -85.5t7.5 -44.5t13 -29l9 -17q-7 0 -18 1q-9 0 -23.5 0.5t-34.5 0.5t-35 -0.5t-24 -0.5q-11 -1 -18 -1l9 17q7 13 12 27t8 42.5t4 79t1 136.5l-114 211q-33 62 -53 97.5t-33 55
t-23 29t-23 19.5q8 -1 21 -1q11 -1 29.5 -1h46.5h45.5t28.5 1q12 0 18 1q-12 -11 -17.5 -23t-5.5 -24q0 -11 1.5 -20t7 -22.5t16.5 -35t30 -57.5l77 -147l76 148q18 36 28.5 57.5t15 35t5.5 22t1 19.5q0 12 -5.5 24t-17.5 23q11 -1 23 -1q11 -1 25.5 -1h33.5h40t27 1
q11 0 19 1zM320 898h97q-5 -11 -15 -25q-8 -12 -23.5 -28t-39.5 -36q-23 -18 -42 -29t-33 -17q-17 -7 -29 -10z" />
    <glyph glyph-name="Thorn" unicode="&#xde;" horiz-adv-x="552" 
d="M233 -1q-7 0 -18 1q-9 0 -23.5 0.5t-34.5 0.5t-35 -0.5t-24 -0.5q-11 -1 -18 -1l9 17l9 18t6.5 21.5t4.5 34.5t3 56.5t1.5 87.5t0.5 127q0 109 -1 169.5t-3.5 92t-7.5 45t-13 28.5l-9 17q7 -1 18 -1q9 -1 23.5 -1h34.5h34.5t24.5 1q11 0 18 1l-9 -17l-7.5 -15t-6 -16
t-4.5 -22t-3 -33q14 0 27.5 0.5t24.5 0.5q22 0 50.5 -1.5t57.5 -8t56.5 -19.5t49.5 -35.5t35 -57.5t13 -84q0 -71 -24.5 -113.5t-62 -65.5t-82 -30.5t-83.5 -7.5q-23 0 -41 1t-25 2q1 -50 2.5 -79.5t4.5 -47t7.5 -27.5t10.5 -21zM255 557q-23 0 -37.5 -1t-17.5 -1
q-1 -35 -1 -84.5v-119.5v-107q4 0 18.5 -1t44.5 -1q58 0 90 17.5t48 43t19.5 54t3.5 50.5q0 50 -16 79.5t-41 45.5t-54.5 20.5t-56.5 4.5z" />
    <glyph glyph-name="germandbls" unicode="&#xdf;" horiz-adv-x="647" 
d="M607 155q0 -25 -7 -53t-27 -52t-57.5 -39.5t-98.5 -15.5q-34 0 -60 4.5t-45 10.5q-22 6 -38 15q0 6 1 14q0 7 0.5 17.5t0.5 24.5q0 13 -0.5 24t-0.5 20q-1 10 -1 19q14 -20 27.5 -37.5t30.5 -30.5t38 -20.5t50 -7.5q34 0 54.5 8t32 21t15.5 29t4 31q0 33 -16 53t-45 37
l-93 57q-18 11 -34 22t-28 25.5t-19 33.5t-7 46q0 25 7 44t20 34t30.5 27t37.5 25q16 10 31 20t26.5 22.5t18.5 28.5t7 37q0 25 -10 41.5t-27.5 26t-41 13.5t-50.5 4q-36 0 -60.5 -7t-40.5 -20q-16 -12 -25 -27t-13 -34.5t-5 -44.5t-1 -56v-274q0 -98 0.5 -152t1.5 -81
q1 -32 3 -39q-8 0 -16 1q-7 0 -14.5 0.5t-15.5 0.5q-20 0 -34.5 -0.5t-23.5 -0.5q-11 -1 -17 -1l9 17q7 14 12 28t8 40.5t4 70t1 116.5v261q0 30 1.5 60.5t8.5 58.5t21 53t40 43.5t65.5 29t96.5 10.5q32 0 69.5 -5t69.5 -19t53.5 -40t21.5 -68q0 -48 -25.5 -78.5
t-76.5 -61.5q-40 -24 -65.5 -44t-25.5 -45q0 -14 3.5 -23.5t12.5 -18t23.5 -17.5t35.5 -21l69 -40q46 -26 74.5 -60t28.5 -91z" />
    <glyph glyph-name="agrave" unicode="&#xe0;" horiz-adv-x="567" 
d="M389 -8l4 118q-9 -41 -27.5 -65t-42 -36.5t-48 -16.5t-45.5 -4q-54 0 -88 16t-53.5 40t-26.5 52.5t-7 53.5q0 63 23.5 98.5t58.5 53t75.5 21.5t75.5 4q21 0 39 -1t32 -2q16 -1 29 -2v51q0 31 -2.5 59t-16.5 48q-12 17 -37 28t-66 11q-9 0 -28 -1t-41 -7.5t-44.5 -22
t-39.5 -44.5q0 6 1 15q0 7 0.5 17t0.5 22q0 11 -0.5 20.5t-0.5 16.5q-1 8 -1 14q15 7 38 13q20 5 50.5 9.5t74.5 4.5q37 0 64.5 -5t47 -12.5t32 -18t20.5 -20.5q23 -29 26.5 -66t3.5 -85q0 -10 -1 -61t-1 -132q0 -55 5 -86t19 -56l9 -17zM388 265q-9 1 -21 2q-11 1 -28 2
t-41 1q-22 0 -49 -2.5t-51 -13t-40 -33t-16 -62.5q0 -57 32.5 -83t80.5 -26q41 0 66.5 10t40.5 23q18 15 26 34v148zM327 624q-14 3 -30 10q-14 6 -32.5 17t-41.5 29q-25 20 -40 36t-23 28q-10 14 -15 25h97z" />
    <glyph glyph-name="aacute" unicode="&#xe1;" horiz-adv-x="567" 
d="M389 -8l4 118q-9 -41 -27.5 -65t-42 -36.5t-48 -16.5t-45.5 -4q-54 0 -88 16t-53.5 40t-26.5 52.5t-7 53.5q0 63 23.5 98.5t58.5 53t75.5 21.5t75.5 4q21 0 39 -1t32 -2q16 -1 29 -2v51q0 31 -2.5 59t-16.5 48q-12 17 -37 28t-66 11q-9 0 -28 -1t-41 -7.5t-44.5 -22
t-39.5 -44.5q0 6 1 15q0 7 0.5 17t0.5 22q0 11 -0.5 20.5t-0.5 16.5q-1 8 -1 14q15 7 38 13q20 5 50.5 9.5t74.5 4.5q37 0 64.5 -5t47 -12.5t32 -18t20.5 -20.5q23 -29 26.5 -66t3.5 -85q0 -10 -1 -61t-1 -132q0 -55 5 -86t19 -56l9 -17zM388 265q-9 1 -21 2q-11 1 -28 2
t-41 1q-22 0 -49 -2.5t-51 -13t-40 -33t-16 -62.5q0 -57 32.5 -83t80.5 -26q41 0 66.5 10t40.5 23q18 15 26 34v148zM311 769h97q-5 -11 -15 -25q-8 -12 -23.5 -28t-39.5 -36q-23 -18 -42 -29t-33 -17q-17 -7 -29 -10z" />
    <glyph glyph-name="acircumflex" unicode="&#xe2;" horiz-adv-x="567" 
d="M389 -8l4 118q-9 -41 -27.5 -65t-42 -36.5t-48 -16.5t-45.5 -4q-54 0 -88 16t-53.5 40t-26.5 52.5t-7 53.5q0 63 23.5 98.5t58.5 53t75.5 21.5t75.5 4q21 0 39 -1t32 -2q16 -1 29 -2v51q0 31 -2.5 59t-16.5 48q-12 17 -37 28t-66 11q-9 0 -28 -1t-41 -7.5t-44.5 -22
t-39.5 -44.5q0 6 1 15q0 7 0.5 17t0.5 22q0 11 -0.5 20.5t-0.5 16.5q-1 8 -1 14q15 7 38 13q20 5 50.5 9.5t74.5 4.5q37 0 64.5 -5t47 -12.5t32 -18t20.5 -20.5q23 -29 26.5 -66t3.5 -85q0 -10 -1 -61t-1 -132q0 -55 5 -86t19 -56l9 -17zM388 265q-9 1 -21 2q-11 1 -28 2
t-41 1q-22 0 -49 -2.5t-51 -13t-40 -33t-16 -62.5q0 -57 32.5 -83t80.5 -26q41 0 66.5 10t40.5 23q18 15 26 34v148zM439 623q-48 3 -93 23t-69 51q-35 -38 -77.5 -54.5t-84.5 -19.5l137 146h51z" />
    <glyph glyph-name="atilde" unicode="&#xe3;" horiz-adv-x="567" 
d="M389 -8l4 118q-9 -41 -27.5 -65t-42 -36.5t-48 -16.5t-45.5 -4q-54 0 -88 16t-53.5 40t-26.5 52.5t-7 53.5q0 63 23.5 98.5t58.5 53t75.5 21.5t75.5 4q21 0 39 -1t32 -2q16 -1 29 -2v51q0 31 -2.5 59t-16.5 48q-12 17 -37 28t-66 11q-9 0 -28 -1t-41 -7.5t-44.5 -22
t-39.5 -44.5q0 6 1 15q0 7 0.5 17t0.5 22q0 11 -0.5 20.5t-0.5 16.5q-1 8 -1 14q15 7 38 13q20 5 50.5 9.5t74.5 4.5q37 0 64.5 -5t47 -12.5t32 -18t20.5 -20.5q23 -29 26.5 -66t3.5 -85q0 -10 -1 -61t-1 -132q0 -55 5 -86t19 -56l9 -17zM388 265q-9 1 -21 2q-11 1 -28 2
t-41 1q-22 0 -49 -2.5t-51 -13t-40 -33t-16 -62.5q0 -57 32.5 -83t80.5 -26q41 0 66.5 10t40.5 23q18 15 26 34v148zM363 702q15 0 28 7t22.5 15t15 15.5t6.5 9.5q0 -55 -25 -81t-60 -26q-15 0 -28 3t-23 7l-58 21q-13 5 -20.5 6.5t-20.5 1.5q-15 0 -28 -7t-22.5 -15.5
t-15 -16t-6.5 -9.5q0 56 25 82t60 26q15 0 28 -3t23 -7l58 -21q13 -5 20.5 -6.5t20.5 -1.5z" />
    <glyph glyph-name="adieresis" unicode="&#xe4;" horiz-adv-x="567" 
d="M389 -8l4 118q-9 -41 -27.5 -65t-42 -36.5t-48 -16.5t-45.5 -4q-54 0 -88 16t-53.5 40t-26.5 52.5t-7 53.5q0 63 23.5 98.5t58.5 53t75.5 21.5t75.5 4q21 0 39 -1t32 -2q16 -1 29 -2v51q0 31 -2.5 59t-16.5 48q-12 17 -37 28t-66 11q-9 0 -28 -1t-41 -7.5t-44.5 -22
t-39.5 -44.5q0 6 1 15q0 7 0.5 17t0.5 22q0 11 -0.5 20.5t-0.5 16.5q-1 8 -1 14q15 7 38 13q20 5 50.5 9.5t74.5 4.5q37 0 64.5 -5t47 -12.5t32 -18t20.5 -20.5q23 -29 26.5 -66t3.5 -85q0 -10 -1 -61t-1 -132q0 -55 5 -86t19 -56l9 -17zM388 265q-9 1 -21 2q-11 1 -28 2
t-41 1q-22 0 -49 -2.5t-51 -13t-40 -33t-16 -62.5q0 -57 32.5 -83t80.5 -26q41 0 66.5 10t40.5 23q18 15 26 34v148zM234 704q0 -25 -15 -39t-39 -14q-21 0 -36 14t-15 38t15 38t38 14q22 0 37 -14t15 -37zM419 704q0 -25 -15 -39t-39 -14q-21 0 -36 14t-15 38t15 38t38 14
q22 0 37 -14t15 -37z" />
    <glyph glyph-name="aring" unicode="&#xe5;" horiz-adv-x="567" 
d="M389 -8l4 118q-9 -41 -27.5 -65t-42 -36.5t-48 -16.5t-45.5 -4q-54 0 -88 16t-53.5 40t-26.5 52.5t-7 53.5q0 63 23.5 98.5t58.5 53t75.5 21.5t75.5 4q21 0 39 -1t32 -2q16 -1 29 -2v51q0 31 -2.5 59t-16.5 48q-12 17 -37 28t-66 11q-9 0 -28 -1t-41 -7.5t-44.5 -22
t-39.5 -44.5q0 6 1 15q0 7 0.5 17t0.5 22q0 11 -0.5 20.5t-0.5 16.5q-1 8 -1 14q15 7 38 13q20 5 50.5 9.5t74.5 4.5q37 0 64.5 -5t47 -12.5t32 -18t20.5 -20.5q23 -29 26.5 -66t3.5 -85q0 -10 -1 -61t-1 -132q0 -55 5 -86t19 -56l9 -17zM388 265q-9 1 -21 2q-11 1 -28 2
t-41 1q-22 0 -49 -2.5t-51 -13t-40 -33t-16 -62.5q0 -57 32.5 -83t80.5 -26q41 0 66.5 10t40.5 23q18 15 26 34v148zM378 706q0 -48 -30 -73t-74 -25q-45 0 -75 24.5t-30 73.5q0 48 30 73t74 25q45 0 75 -24.5t30 -73.5zM332 706q0 29 -16 44t-43 15q-23 0 -40.5 -14.5
t-17.5 -44.5q0 -29 16 -44t43 -15q23 0 40.5 14.5t17.5 44.5z" />
    <glyph glyph-name="ae" unicode="&#xe6;" horiz-adv-x="892" 
d="M468 288q0 -46 7.5 -88.5t27.5 -75t53.5 -52t86.5 -19.5q52 0 86 11t54 25q24 16 36 36q0 -27 -11 -51.5t-34.5 -43t-60 -30t-87.5 -11.5q-58 0 -94.5 13.5t-58.5 30.5q-26 19 -39 44q-16 -25 -42 -44q-23 -17 -58.5 -30t-88.5 -13q-60 0 -97.5 16t-58 40.5t-27.5 54
t-7 57.5q0 61 25 95t61.5 50.5t76.5 20t70 3.5q21 0 39 -1t32 -2q16 -1 29 -2v51q0 31 -2.5 59t-16.5 48q-12 17 -37 28t-66 11q-9 0 -28 -1t-41 -7.5t-44.5 -22t-39.5 -44.5q0 6 1 15q0 7 0.5 17t0.5 22q0 11 -0.5 20.5t-0.5 16.5q-1 8 -1 14q15 7 38 13q20 5 50.5 9.5
t74.5 4.5q60 0 106 -17t69 -62q27 37 71.5 58t100.5 21q75 0 119 -28t66 -69.5t28 -90.5t6 -91v-9h-374zM749 352q0 18 -2.5 46.5t-15 56t-38.5 47t-74 19.5q-24 0 -50 -6t-48.5 -26t-37 -57.5t-14.5 -99.5zM388 265q-9 1 -21 2q-11 1 -28 2t-41 1q-22 0 -49 -2.5t-51 -13
t-40 -33t-16 -62.5q0 -57 32.5 -83t80.5 -26q41 0 66.5 10t40.5 23q18 15 26 34v148z" />
    <glyph glyph-name="ccedilla" unicode="&#xe7;" horiz-adv-x="508" 
d="M475 124q0 -24 -9.5 -47t-30 -42t-52.5 -31.5t-76 -14.5q-3 -8 -3 -14q0 -9 6.5 -15t16.5 -13l13 -9q10 -7 25.5 -22t15.5 -43q0 -27 -15 -44.5t-37 -27t-46.5 -12.5t-43.5 -1q5 2 16 8.5t22.5 16.5t20 22.5t8.5 27.5t-5.5 25t-16.5 25l-6 8q-6 8 -10.5 16.5t-4.5 20.5
q0 8 2.5 16t6.5 16q-48 4 -88 24t-68.5 55.5t-44.5 85.5t-16 115q0 19 2 49t10.5 63.5t25 68t45 62t71.5 45t105 17.5q40 0 68.5 -6t47.5 -14q22 -9 36 -19q-1 -5 -1 -13q-1 -7 -1 -16.5v-22.5v-25.5t1 -22.5q0 -12 1 -23q-20 31 -37 52t-35 34t-38 18t-46 5q-30 0 -60 -9.5
t-53.5 -36.5t-38 -74.5t-14.5 -123.5q0 -46 9.5 -87t30 -71.5t52.5 -48.5t78 -18q44 0 74 10.5t50 24.5q23 16 37 36z" />
    <glyph glyph-name="egrave" unicode="&#xe8;" horiz-adv-x="572" 
d="M144 288q0 -41 7.5 -82.5t27 -75.5t54.5 -55.5t90 -21.5q52 0 86 11t54 25q24 16 36 36q0 -27 -11 -51.5t-34.5 -43t-60 -30t-87.5 -11.5q-65 0 -112.5 21t-78 59.5t-45.5 91.5t-15 117q0 81 21 137.5t55 92.5t78 52t90 16q49 0 85 -13t61 -34.5t40 -50t23 -59.5
t11 -62.5t3 -59.5v-9h-378zM429 352q0 18 -3.5 46.5t-17 56t-40 47t-73.5 19.5q-21 0 -47 -5t-48.5 -24.5t-38 -57t-16.5 -102.5zM338 624q-14 3 -30 10q-14 6 -32.5 17t-41.5 29q-25 20 -40 36t-23 28q-10 14 -15 25h97z" />
    <glyph glyph-name="eacute" unicode="&#xe9;" horiz-adv-x="572" 
d="M144 288q0 -41 7.5 -82.5t27 -75.5t54.5 -55.5t90 -21.5q52 0 86 11t54 25q24 16 36 36q0 -27 -11 -51.5t-34.5 -43t-60 -30t-87.5 -11.5q-65 0 -112.5 21t-78 59.5t-45.5 91.5t-15 117q0 81 21 137.5t55 92.5t78 52t90 16q49 0 85 -13t61 -34.5t40 -50t23 -59.5
t11 -62.5t3 -59.5v-9h-378zM429 352q0 18 -3.5 46.5t-17 56t-40 47t-73.5 19.5q-21 0 -47 -5t-48.5 -24.5t-38 -57t-16.5 -102.5zM327 769h97q-5 -11 -15 -25q-8 -12 -23.5 -28t-39.5 -36q-23 -18 -42 -29t-33 -17q-17 -7 -29 -10z" />
    <glyph glyph-name="ecircumflex" unicode="&#xea;" horiz-adv-x="572" 
d="M144 288q0 -41 7.5 -82.5t27 -75.5t54.5 -55.5t90 -21.5q52 0 86 11t54 25q24 16 36 36q0 -27 -11 -51.5t-34.5 -43t-60 -30t-87.5 -11.5q-65 0 -112.5 21t-78 59.5t-45.5 91.5t-15 117q0 81 21 137.5t55 92.5t78 52t90 16q49 0 85 -13t61 -34.5t40 -50t23 -59.5
t11 -62.5t3 -59.5v-9h-378zM429 352q0 18 -3.5 46.5t-17 56t-40 47t-73.5 19.5q-21 0 -47 -5t-48.5 -24.5t-38 -57t-16.5 -102.5zM453 623q-48 3 -93 23t-69 51q-35 -38 -77.5 -54.5t-84.5 -19.5l137 146h51z" />
    <glyph glyph-name="edieresis" unicode="&#xeb;" horiz-adv-x="572" 
d="M144 288q0 -41 7.5 -82.5t27 -75.5t54.5 -55.5t90 -21.5q52 0 86 11t54 25q24 16 36 36q0 -27 -11 -51.5t-34.5 -43t-60 -30t-87.5 -11.5q-65 0 -112.5 21t-78 59.5t-45.5 91.5t-15 117q0 81 21 137.5t55 92.5t78 52t90 16q49 0 85 -13t61 -34.5t40 -50t23 -59.5
t11 -62.5t3 -59.5v-9h-378zM429 352q0 18 -3.5 46.5t-17 56t-40 47t-73.5 19.5q-21 0 -47 -5t-48.5 -24.5t-38 -57t-16.5 -102.5zM255 704q0 -25 -15 -39t-39 -14q-21 0 -36 14t-15 38t15 38t38 14q22 0 37 -14t15 -37zM440 704q0 -25 -15 -39t-39 -14q-21 0 -36 14t-15 38
t15 38t38 14q22 0 37 -14t15 -37z" />
    <glyph glyph-name="igrave" unicode="&#xec;" horiz-adv-x="291" 
d="M223 -1q-6 0 -17 1q-9 0 -23 0.5t-34 0.5t-34.5 -0.5t-23.5 -0.5q-11 -1 -17 -1l9 17q7 14 12 28t8 40.5t4 70t1 116.5v29q0 65 -2 105t-5 64t-7.5 37t-10.5 24l-9 17l124 25q-3 -19 -5 -55q-2 -31 -3 -83t-1 -133v-30q0 -69 1 -112t3.5 -70t7.5 -42.5t13 -30.5zM203 623
q-14 3 -30 10q-14 6 -32.5 17t-41.5 29q-25 20 -40 36t-23 28q-10 14 -15 25h97z" />
    <glyph glyph-name="iacute" unicode="&#xed;" horiz-adv-x="291" 
d="M223 -1q-6 0 -17 1q-9 0 -23 0.5t-34 0.5t-34.5 -0.5t-23.5 -0.5q-11 -1 -17 -1l9 17q7 14 12 28t8 40.5t4 70t1 116.5v29q0 65 -2 105t-5 64t-7.5 37t-10.5 24l-9 17l124 25q-3 -19 -5 -55q-2 -31 -3 -83t-1 -133v-30q0 -69 1 -112t3.5 -70t7.5 -42.5t13 -30.5zM166 769
h97q-5 -11 -15 -25q-8 -12 -23.5 -28t-39.5 -36q-23 -18 -42 -29t-33 -17q-17 -7 -29 -10z" />
    <glyph glyph-name="icircumflex" unicode="&#xee;" horiz-adv-x="291" 
d="M223 -1q-6 0 -17 1q-9 0 -23 0.5t-34 0.5t-34.5 -0.5t-23.5 -0.5q-11 -1 -17 -1l9 17q7 14 12 28t8 40.5t4 70t1 116.5v29q0 65 -2 105t-5 64t-7.5 37t-10.5 24l-9 17l124 25q-3 -19 -5 -55q-2 -31 -3 -83t-1 -133v-30q0 -69 1 -112t3.5 -70t7.5 -42.5t13 -30.5zM312 623
q-48 3 -93 23t-69 51q-35 -38 -77.5 -54.5t-84.5 -19.5l137 146h51z" />
    <glyph glyph-name="idieresis" unicode="&#xef;" horiz-adv-x="291" 
d="M223 -1q-6 0 -17 1q-9 0 -23 0.5t-34 0.5t-34.5 -0.5t-23.5 -0.5q-11 -1 -17 -1l9 17q7 14 12 28t8 40.5t4 70t1 116.5v29q0 65 -2 105t-5 64t-7.5 37t-10.5 24l-9 17l124 25q-3 -19 -5 -55q-2 -31 -3 -83t-1 -133v-30q0 -69 1 -112t3.5 -70t7.5 -42.5t13 -30.5zM104 704
q0 -25 -15 -39t-39 -14q-21 0 -36 14t-15 38t15 38t38 14q22 0 37 -14t15 -37zM289 704q0 -25 -15 -39t-39 -14q-21 0 -36 14t-15 38t15 38t38 14q22 0 37 -14t15 -37z" />
    <glyph glyph-name="eth" unicode="&#xf0;" horiz-adv-x="610" 
d="M555 399q0 -99 -13 -168.5t-34.5 -115t-48.5 -71.5t-55.5 -38.5t-55.5 -15.5t-47 -3q-79 0 -127 28t-74.5 70t-35.5 90.5t-9 88.5q0 87 20.5 143.5t54.5 90t76 47t86 13.5q51 0 84.5 -14.5t53 -33t28 -35t9.5 -20.5q-4 76 -17.5 126t-36.5 81l-74 -48l-23 36l67 44
q-28 22 -62.5 29t-75.5 7q-38 0 -64 -5.5t-43 -11.5q-19 -8 -32 -17q6 25 26 45q17 17 52 31.5t96 14.5q41 0 84.5 -9.5t82.5 -41.5l76 49l23 -36l-68 -45q34 -43 55.5 -116t21.5 -189zM468 396q0 7 -0.5 14.5t-0.5 14.5q-1 8 -1 15q-13 17 -33 30q-18 11 -46.5 21t-70.5 10
q-51 0 -84.5 -19t-53 -50.5t-27 -72.5t-7.5 -85q0 -50 9 -92t28.5 -72.5t49.5 -48t72 -17.5q52 0 84.5 21.5t50.5 65.5t24 110t6 155z" />
    <glyph glyph-name="ntilde" unicode="&#xf1;" horiz-adv-x="630" 
d="M562 -1q-6 0 -17 1q-9 0 -23.5 0.5t-34.5 0.5t-34 -0.5t-23 -0.5q-11 -1 -17 -1l9 17q6 11 10.5 21.5t8 35t5 70t1.5 127.5q0 81 -4 126.5t-19 69.5q-11 18 -33.5 33t-68.5 15q-44 0 -70 -11t-40 -25q-17 -16 -23 -35v-172q0 -82 1.5 -128t5 -70.5t8 -35t10.5 -21.5
l9 -17q-6 0 -17 1q-9 0 -23 0.5t-34 0.5t-34.5 -0.5t-23.5 -0.5q-11 -1 -17 -1l9 17q6 11 10.5 21.5t8 35t5 70.5t1.5 128v29q0 65 -1.5 105t-5 64t-8 37t-10.5 24l-9 17l115 25l-4 -122q9 40 27.5 65t42 38.5t48.5 18t47 4.5q57 0 94.5 -19.5t56.5 -54.5q8 -16 13.5 -33.5
t8.5 -41.5t4 -56t1 -76v-24q0 -82 1.5 -128t5 -70.5t8 -35t10.5 -21.5zM405 702q15 0 28 7t22.5 15t15 15.5t6.5 9.5q0 -55 -25 -81t-60 -26q-15 0 -28 3t-23 7l-58 21q-13 5 -20.5 6.5t-20.5 1.5q-15 0 -28 -7t-22.5 -15.5t-15 -16t-6.5 -9.5q0 56 25 82t60 26q15 0 28 -3
t23 -7l58 -21q13 -5 20.5 -6.5t20.5 -1.5z" />
    <glyph glyph-name="ograve" unicode="&#xf2;" horiz-adv-x="621" 
d="M566 288q0 -23 -3.5 -54.5t-13.5 -65t-28.5 -66t-47.5 -58t-70.5 -41.5t-98.5 -16q-63 0 -110 22t-77.5 61t-46 91.5t-15.5 113.5q0 23 3.5 54.5t13.5 65t28.5 66t47.5 58t70.5 41.5t98.5 16q63 0 110 -22t77.5 -61t46 -91.5t15.5 -113.5zM474 282q0 51 -8.5 94t-28 75
t-51 50t-77.5 18q-85 0 -123.5 -61.5t-38.5 -176.5q0 -51 8.5 -94t28 -75t51 -50t77.5 -18q85 0 123.5 61.5t38.5 176.5zM357 624q-14 3 -30 10q-14 6 -32.5 17t-41.5 29q-25 20 -40 36t-23 28q-10 14 -15 25h97z" />
    <glyph glyph-name="oacute" unicode="&#xf3;" horiz-adv-x="621" 
d="M566 288q0 -23 -3.5 -54.5t-13.5 -65t-28.5 -66t-47.5 -58t-70.5 -41.5t-98.5 -16q-63 0 -110 22t-77.5 61t-46 91.5t-15.5 113.5q0 23 3.5 54.5t13.5 65t28.5 66t47.5 58t70.5 41.5t98.5 16q63 0 110 -22t77.5 -61t46 -91.5t15.5 -113.5zM474 282q0 51 -8.5 94t-28 75
t-51 50t-77.5 18q-85 0 -123.5 -61.5t-38.5 -176.5q0 -51 8.5 -94t28 -75t51 -50t77.5 -18q85 0 123.5 61.5t38.5 176.5zM345 769h97q-5 -11 -15 -25q-8 -12 -23.5 -28t-39.5 -36q-23 -18 -42 -29t-33 -17q-17 -7 -29 -10z" />
    <glyph glyph-name="ocircumflex" unicode="&#xf4;" horiz-adv-x="621" 
d="M566 288q0 -23 -3.5 -54.5t-13.5 -65t-28.5 -66t-47.5 -58t-70.5 -41.5t-98.5 -16q-63 0 -110 22t-77.5 61t-46 91.5t-15.5 113.5q0 23 3.5 54.5t13.5 65t28.5 66t47.5 58t70.5 41.5t98.5 16q63 0 110 -22t77.5 -61t46 -91.5t15.5 -113.5zM474 282q0 51 -8.5 94t-28 75
t-51 50t-77.5 18q-85 0 -123.5 -61.5t-38.5 -176.5q0 -51 8.5 -94t28 -75t51 -50t77.5 -18q85 0 123.5 61.5t38.5 176.5zM472 623q-48 3 -93 23t-69 51q-35 -38 -77.5 -54.5t-84.5 -19.5l137 146h51z" />
    <glyph glyph-name="otilde" unicode="&#xf5;" horiz-adv-x="621" 
d="M566 288q0 -23 -3.5 -54.5t-13.5 -65t-28.5 -66t-47.5 -58t-70.5 -41.5t-98.5 -16q-63 0 -110 22t-77.5 61t-46 91.5t-15.5 113.5q0 23 3.5 54.5t13.5 65t28.5 66t47.5 58t70.5 41.5t98.5 16q63 0 110 -22t77.5 -61t46 -91.5t15.5 -113.5zM474 282q0 51 -8.5 94t-28 75
t-51 50t-77.5 18q-85 0 -123.5 -61.5t-38.5 -176.5q0 -51 8.5 -94t28 -75t51 -50t77.5 -18q85 0 123.5 61.5t38.5 176.5zM383 702q15 0 28 7t22.5 15t15 15.5t6.5 9.5q0 -55 -25 -81t-60 -26q-15 0 -28 3t-23 7l-58 21q-13 5 -20.5 6.5t-20.5 1.5q-15 0 -28 -7t-22.5 -15.5
t-15 -16t-6.5 -9.5q0 56 25 82t60 26q15 0 28 -3t23 -7l58 -21q13 -5 20.5 -6.5t20.5 -1.5z" />
    <glyph glyph-name="odieresis" unicode="&#xf6;" horiz-adv-x="621" 
d="M566 288q0 -23 -3.5 -54.5t-13.5 -65t-28.5 -66t-47.5 -58t-70.5 -41.5t-98.5 -16q-63 0 -110 22t-77.5 61t-46 91.5t-15.5 113.5q0 23 3.5 54.5t13.5 65t28.5 66t47.5 58t70.5 41.5t98.5 16q63 0 110 -22t77.5 -61t46 -91.5t15.5 -113.5zM474 282q0 51 -8.5 94t-28 75
t-51 50t-77.5 18q-85 0 -123.5 -61.5t-38.5 -176.5q0 -51 8.5 -94t28 -75t51 -50t77.5 -18q85 0 123.5 61.5t38.5 176.5zM272 704q0 -25 -15 -39t-39 -14q-21 0 -36 14t-15 38t15 38t38 14q22 0 37 -14t15 -37zM457 704q0 -25 -15 -39t-39 -14q-21 0 -36 14t-15 38t15 38
t38 14q22 0 37 -14t15 -37z" />
    <glyph glyph-name="divide" unicode="&#xf7;" horiz-adv-x="646" 
d="M388 566q0 -29 -18.5 -47.5t-46.5 -18.5t-47 18.5t-19 47.5q0 31 18.5 49t47.5 18q28 0 46.5 -18t18.5 -49zM46 323v65h554v-65h-554zM388 145q0 -31 -18.5 -49t-46.5 -18t-47 18t-19 49q0 29 18.5 47.5t47.5 18.5q28 0 46.5 -17.5t18.5 -48.5z" />
    <glyph glyph-name="oslash" unicode="&#xf8;" horiz-adv-x="621" 
d="M566 288q0 -23 -3.5 -54.5t-13.5 -65t-28.5 -66t-47.5 -58t-70.5 -41.5t-98.5 -16q-53 0 -93 15l-33 -71l-47 21l34 73q-56 37 -83 102.5t-27 147.5q0 23 3.5 54.5t13.5 65t28.5 66t47.5 58t70.5 41.5t98.5 16q52 0 93 -15l33 71l47 -21l-34 -73q56 -37 83 -102.5
t27 -147.5zM474 282q0 59 -11 108t-37 81l-189 -411q31 -16 75 -16q85 0 123.5 61.5t38.5 176.5zM147 281q0 -59 11 -108t37 -81l189 411q-31 16 -75 16q-85 0 -123.5 -61.5t-38.5 -176.5z" />
    <glyph glyph-name="ugrave" unicode="&#xf9;" 
d="M440 -8l4 122q-9 -41 -27.5 -65.5t-42 -38t-48.5 -18t-47 -4.5q-57 0 -94.5 19.5t-56.5 54.5q-8 16 -13.5 33.5t-8.5 41.5t-4 56t-1 76v31q0 65 -1.5 105t-4.5 64t-7.5 37t-10.5 24l-9 17l118 25q-1 -33 -2 -68q-1 -30 -1.5 -68t-0.5 -76v-66q0 -81 4 -126.5t19 -69.5
q11 -18 33.5 -33t68.5 -15q44 0 70 10.5t40 24.5q17 16 23 36v179q0 65 -1.5 105t-4 64t-7 37t-10.5 24l-9 17l118 25q-2 -33 -3 -68q-1 -30 -1.5 -68t-0.5 -76v-96q0 -65 1.5 -105t5 -64t8 -37t10.5 -24l9 -17zM359 624q-14 3 -30 10q-14 6 -32.5 17t-41.5 29
q-25 20 -40 36t-23 28q-10 14 -15 25h97z" />
    <glyph glyph-name="uacute" unicode="&#xfa;" 
d="M440 -8l4 122q-9 -41 -27.5 -65.5t-42 -38t-48.5 -18t-47 -4.5q-57 0 -94.5 19.5t-56.5 54.5q-8 16 -13.5 33.5t-8.5 41.5t-4 56t-1 76v31q0 65 -1.5 105t-4.5 64t-7.5 37t-10.5 24l-9 17l118 25q-1 -33 -2 -68q-1 -30 -1.5 -68t-0.5 -76v-66q0 -81 4 -126.5t19 -69.5
q11 -18 33.5 -33t68.5 -15q44 0 70 10.5t40 24.5q17 16 23 36v179q0 65 -1.5 105t-4 64t-7 37t-10.5 24l-9 17l118 25q-2 -33 -3 -68q-1 -30 -1.5 -68t-0.5 -76v-96q0 -65 1.5 -105t5 -64t8 -37t10.5 -24l9 -17zM348 769h97q-5 -11 -15 -25q-8 -12 -23.5 -28t-39.5 -36
q-23 -18 -42 -29t-33 -17q-17 -7 -29 -10z" />
    <glyph glyph-name="ucircumflex" unicode="&#xfb;" 
d="M440 -8l4 122q-9 -41 -27.5 -65.5t-42 -38t-48.5 -18t-47 -4.5q-57 0 -94.5 19.5t-56.5 54.5q-8 16 -13.5 33.5t-8.5 41.5t-4 56t-1 76v31q0 65 -1.5 105t-4.5 64t-7.5 37t-10.5 24l-9 17l118 25q-1 -33 -2 -68q-1 -30 -1.5 -68t-0.5 -76v-66q0 -81 4 -126.5t19 -69.5
q11 -18 33.5 -33t68.5 -15q44 0 70 10.5t40 24.5q17 16 23 36v179q0 65 -1.5 105t-4 64t-7 37t-10.5 24l-9 17l118 25q-2 -33 -3 -68q-1 -30 -1.5 -68t-0.5 -76v-96q0 -65 1.5 -105t5 -64t8 -37t10.5 -24l9 -17zM474 623q-48 3 -93 23t-69 51q-35 -38 -77.5 -54.5
t-84.5 -19.5l137 146h51z" />
    <glyph glyph-name="udieresis" unicode="&#xfc;" 
d="M440 -8l4 122q-9 -41 -27.5 -65.5t-42 -38t-48.5 -18t-47 -4.5q-57 0 -94.5 19.5t-56.5 54.5q-8 16 -13.5 33.5t-8.5 41.5t-4 56t-1 76v31q0 65 -1.5 105t-4.5 64t-7.5 37t-10.5 24l-9 17l118 25q-1 -33 -2 -68q-1 -30 -1.5 -68t-0.5 -76v-66q0 -81 4 -126.5t19 -69.5
q11 -18 33.5 -33t68.5 -15q44 0 70 10.5t40 24.5q17 16 23 36v179q0 65 -1.5 105t-4 64t-7 37t-10.5 24l-9 17l118 25q-2 -33 -3 -68q-1 -30 -1.5 -68t-0.5 -76v-96q0 -65 1.5 -105t5 -64t8 -37t10.5 -24l9 -17zM280 704q0 -25 -15 -39t-39 -14q-21 0 -36 14t-15 38t15 38
t38 14q22 0 37 -14t15 -37zM465 704q0 -25 -15 -39t-39 -14q-21 0 -36 14t-15 38t15 38t38 14q22 0 37 -14t15 -37z" />
    <glyph glyph-name="yacute" unicode="&#xfd;" horiz-adv-x="522" 
d="M532 565q-29 -26 -51.5 -85t-50.5 -139l-152 -433q-12 -35 -28.5 -58.5t-37 -37.5t-45 -19.5t-52.5 -5.5q-23 0 -39 1t-26 3q-11 2 -18 4q0 8 1 17q0 8 0.5 17.5t0.5 20.5t-0.5 22.5t-0.5 19.5q-1 10 -1 19q26 -41 43 -56.5t43 -15.5q38 0 60.5 23t41.5 77l12 34
l-134 366q-20 55 -34 94t-25.5 65t-21 42t-20.5 25q9 -1 21 -1q11 -1 25.5 -1h34.5h39t27 1q12 0 21 1q-10 -7 -18.5 -19t-8.5 -38q0 -11 1.5 -22.5t6 -28.5t12.5 -41.5t21 -61.5l79 -228q6 -18 10.5 -35.5t5.5 -21.5q0 2 3.5 16t10.5 34l71 223q12 39 20.5 66t14 46
t7.5 31.5t2 22.5q0 26 -8.5 38t-18.5 19q8 -1 19 -1q10 -1 24.5 -1h34.5h35t25 1q11 0 18 1zM307 769h97q-5 -11 -15 -25q-8 -12 -23.5 -28t-39.5 -36q-23 -18 -42 -29t-33 -17q-17 -7 -29 -10z" />
    <glyph glyph-name="thorn" unicode="&#xfe;" horiz-adv-x="626" 
d="M571 295q0 -89 -22.5 -148t-58.5 -94t-81.5 -49t-91.5 -14q-35 0 -60 7t-42 15q-19 10 -32 22q0 -70 1 -109.5t4 -62t8 -34t12 -24.5l9 -17q-6 0 -17 1q-9 0 -23 0.5t-34 0.5t-34.5 -0.5t-23.5 -0.5q-11 -1 -17 -1l9 17l9 18t6.5 21.5t4.5 34.5t3 56.5t1.5 87.5t0.5 127
v366q0 65 -1.5 105t-5 64t-8 37t-10.5 24l-9 17l118 25q-1 -33 -2 -68q-1 -30 -1 -68v-76v-23q0 -23 -2.5 -48t-5.5 -40q21 56 63 84t108 28q11 0 32.5 -2.5t46.5 -11.5t51 -27t47 -49t34.5 -78t13.5 -113zM482 288q0 43 -8.5 83t-27.5 71t-50.5 50t-76.5 19
q-51 0 -80.5 -13.5t-55.5 -45.5v-373q11 -9 28 -16q14 -6 36 -11t52 -5q98 0 140.5 63t42.5 178z" />
    <glyph glyph-name="ydieresis" unicode="&#xff;" horiz-adv-x="522" 
d="M532 565q-29 -26 -51.5 -85t-50.5 -139l-152 -433q-12 -35 -28.5 -58.5t-37 -37.5t-45 -19.5t-52.5 -5.5q-23 0 -39 1t-26 3q-11 2 -18 4q0 8 1 17q0 8 0.5 17.5t0.5 20.5t-0.5 22.5t-0.5 19.5q-1 10 -1 19q26 -41 43 -56.5t43 -15.5q38 0 60.5 23t41.5 77l12 34
l-134 366q-20 55 -34 94t-25.5 65t-21 42t-20.5 25q9 -1 21 -1q11 -1 25.5 -1h34.5h39t27 1q12 0 21 1q-10 -7 -18.5 -19t-8.5 -38q0 -11 1.5 -22.5t6 -28.5t12.5 -41.5t21 -61.5l79 -228q6 -18 10.5 -35.5t5.5 -21.5q0 2 3.5 16t10.5 34l71 223q12 39 20.5 66t14 46
t7.5 31.5t2 22.5q0 26 -8.5 38t-18.5 19q8 -1 19 -1q10 -1 24.5 -1h34.5h35t25 1q11 0 18 1zM232 704q0 -25 -15 -39t-39 -14q-21 0 -36 14t-15 38t15 38t38 14q22 0 37 -14t15 -37zM417 704q0 -25 -15 -39t-39 -14q-21 0 -36 14t-15 38t15 38t38 14q22 0 37 -14t15 -37z
" />
    <glyph glyph-name="Amacron" unicode="&#x100;" horiz-adv-x="615" 
d="M614 -1q-10 0 -23 1q-11 0 -28 0.5t-37 0.5t-36.5 -0.5t-27.5 -0.5q-14 -1 -24 -1q10 7 21 21t11 42q0 26 -12 71t-29 101l-20 67h-226l-20 -67q-17 -56 -29 -101t-12 -71q0 -28 11 -42t21 -21q-10 0 -22 1q-11 0 -26 0.5t-35 0.5q-21 0 -36 -0.5t-25 -0.5q-11 -1 -20 -1
q14 13 25 32.5t22.5 47.5t23.5 66.5t29 90.5l133 417q3 9 5.5 18t2.5 19t-2.5 14.5t-4.5 6.5h169q0 -1 -3 -5.5t-3 -15.5q0 -10 2 -19t5 -18l124 -417q15 -52 27 -90.5t22.5 -66.5t21.5 -47.5t25 -32.5zM320 605q-5 14 -8.5 27t-6.5 24q-4 12 -7 24l-97 -319h191zM174 789
v63h274v-63h-274z" />
    <glyph glyph-name="amacron" unicode="&#x101;" horiz-adv-x="567" 
d="M389 -8l4 118q-9 -41 -27.5 -65t-42 -36.5t-48 -16.5t-45.5 -4q-54 0 -88 16t-53.5 40t-26.5 52.5t-7 53.5q0 63 23.5 98.5t58.5 53t75.5 21.5t75.5 4q21 0 39 -1t32 -2q16 -1 29 -2v51q0 31 -2.5 59t-16.5 48q-12 17 -37 28t-66 11q-9 0 -28 -1t-41 -7.5t-44.5 -22
t-39.5 -44.5q0 6 1 15q0 7 0.5 17t0.5 22q0 11 -0.5 20.5t-0.5 16.5q-1 8 -1 14q15 7 38 13q20 5 50.5 9.5t74.5 4.5q37 0 64.5 -5t47 -12.5t32 -18t20.5 -20.5q23 -29 26.5 -66t3.5 -85q0 -10 -1 -61t-1 -132q0 -55 5 -86t19 -56l9 -17zM388 265q-9 1 -21 2q-11 1 -28 2
t-41 1q-22 0 -49 -2.5t-51 -13t-40 -33t-16 -62.5q0 -57 32.5 -83t80.5 -26q41 0 66.5 10t40.5 23q18 15 26 34v148zM146 660v63h274v-63h-274z" />
    <glyph glyph-name="Abreve" unicode="&#x102;" horiz-adv-x="615" 
d="M614 -1q-10 0 -23 1q-11 0 -28 0.5t-37 0.5t-36.5 -0.5t-27.5 -0.5q-14 -1 -24 -1q10 7 21 21t11 42q0 26 -12 71t-29 101l-20 67h-226l-20 -67q-17 -56 -29 -101t-12 -71q0 -28 11 -42t21 -21q-10 0 -22 1q-11 0 -26 0.5t-35 0.5q-21 0 -36 -0.5t-25 -0.5q-11 -1 -20 -1
q14 13 25 32.5t22.5 47.5t23.5 66.5t29 90.5l133 417q3 9 5.5 18t2.5 19t-2.5 14.5t-4.5 6.5h169q0 -1 -3 -5.5t-3 -15.5q0 -10 2 -19t5 -18l124 -417q15 -52 27 -90.5t22.5 -66.5t21.5 -47.5t25 -32.5zM320 605q-5 14 -8.5 27t-6.5 24q-4 12 -7 24l-97 -319h191zM170 914
q26 -37 59.5 -63t80.5 -26t80.5 26t59.5 63q0 -33 -9 -61.5t-26.5 -50t-43.5 -33.5t-61 -12t-61 12t-43.5 33.5t-26.5 50t-9 61.5z" />
    <glyph glyph-name="abreve" unicode="&#x103;" horiz-adv-x="567" 
d="M389 -8l4 118q-9 -41 -27.5 -65t-42 -36.5t-48 -16.5t-45.5 -4q-54 0 -88 16t-53.5 40t-26.5 52.5t-7 53.5q0 63 23.5 98.5t58.5 53t75.5 21.5t75.5 4q21 0 39 -1t32 -2q16 -1 29 -2v51q0 31 -2.5 59t-16.5 48q-12 17 -37 28t-66 11q-9 0 -28 -1t-41 -7.5t-44.5 -22
t-39.5 -44.5q0 6 1 15q0 7 0.5 17t0.5 22q0 11 -0.5 20.5t-0.5 16.5q-1 8 -1 14q15 7 38 13q20 5 50.5 9.5t74.5 4.5q37 0 64.5 -5t47 -12.5t32 -18t20.5 -20.5q23 -29 26.5 -66t3.5 -85q0 -10 -1 -61t-1 -132q0 -55 5 -86t19 -56l9 -17zM388 265q-9 1 -21 2q-11 1 -28 2
t-41 1q-22 0 -49 -2.5t-51 -13t-40 -33t-16 -62.5q0 -57 32.5 -83t80.5 -26q41 0 66.5 10t40.5 23q18 15 26 34v148zM144 785q26 -37 59.5 -63t80.5 -26t80.5 26t59.5 63q0 -33 -9 -61.5t-26.5 -50t-43.5 -33.5t-61 -12t-61 12t-43.5 33.5t-26.5 50t-9 61.5z" />
    <glyph glyph-name="Aogonek" unicode="&#x104;" horiz-adv-x="615" 
d="M335 -131q0 29 12 50.5t29 38t35.5 28t31.5 19.5q10 6 18.5 19.5t8.5 37.5q0 26 -12 71t-29 101l-20 67h-226l-20 -67q-17 -56 -29 -101t-12 -71q0 -28 11 -42t21 -21q-10 0 -22 1q-11 0 -26 0.5t-35 0.5q-21 0 -36 -0.5t-25 -0.5q-11 -1 -20 -1q14 13 25 32.5t22.5 47.5
t23.5 66.5t29 90.5l133 417q3 9 5.5 18t2.5 19t-2.5 14.5t-4.5 6.5h169q0 -1 -3 -5.5t-3 -15.5q0 -10 2 -19t5 -18l124 -417q15 -52 27 -90.5t22.5 -66.5t21.5 -47.5t25 -32.5q-11 0 -23 1q-11 0 -26 0.5t-33 0.5q-23 0 -44.5 -7t-38 -21t-26.5 -35.5t-10 -51.5t21 -50.5
t66 -26.5q-17 -10 -36 -15.5t-39 -5.5q-18 0 -34 4.5t-28.5 14.5t-20 25.5t-7.5 36.5zM320 605q-5 14 -8.5 27t-6.5 24q-4 12 -7 24l-97 -319h191z" />
    <glyph glyph-name="aogonek" unicode="&#x105;" horiz-adv-x="567" 
d="M299 -131q0 24 8.5 43.5t22 35t29 27t30.5 19.5l4 116q-9 -41 -27.5 -65t-42 -36.5t-48 -16.5t-45.5 -4q-54 0 -88 16t-53.5 40t-26.5 52.5t-7 53.5q0 63 23.5 98.5t58.5 53t75.5 21.5t75.5 4q21 0 39 -1t32 -2q16 -1 29 -2v51q0 31 -2.5 59t-16.5 48q-12 17 -37 28
t-66 11q-9 0 -28 -1t-41 -7.5t-44.5 -22t-39.5 -44.5q0 6 1 15q0 7 0.5 17t0.5 22q0 11 -0.5 20.5t-0.5 16.5q-1 8 -1 14q15 7 38 13q20 5 50.5 9.5t74.5 4.5q37 0 64.5 -5t47 -12.5t32 -18t20.5 -20.5q23 -29 26.5 -66t3.5 -85q0 -10 -1 -61t-1 -132q0 -55 5 -86t19 -56
l9 -17q-66 -23 -95 -55.5t-29 -75.5q0 -30 21 -50.5t66 -26.5q-17 -10 -36 -15.5t-39 -5.5q-18 0 -34 4.5t-28.5 14.5t-20 25.5t-7.5 36.5zM388 265q-9 1 -21 2q-11 1 -28 2t-41 1q-22 0 -49 -2.5t-51 -13t-40 -33t-16 -62.5q0 -57 32.5 -83t80.5 -26q41 0 66.5 10t40.5 23
q18 15 26 34v148z" />
    <glyph glyph-name="Cacute" unicode="&#x106;" horiz-adv-x="634" 
d="M594 22q-22 -9 -49 -15q-23 -5 -57 -9.5t-76 -4.5q-84 0 -142.5 19.5t-97.5 50.5t-61.5 70t-33.5 78.5t-14 75.5t-3 61q0 88 24 157t70 116.5t113 72.5t152 25q47 0 80 -5t54 -10q25 -6 41 -14q-1 -7 -1 -16q-1 -8 -1 -19.5v-25.5v-27t1 -21q0 -11 1 -19q-16 23 -32 41.5
t-35.5 31t-45.5 19t-63 6.5q-24 0 -53 -3.5t-58 -14.5t-57 -31.5t-49 -54.5t-34 -84t-13 -120q0 -60 11 -114t40 -95.5t79.5 -66t129.5 -24.5q38 0 64.5 7t47 20t36.5 31.5t32 41.5q-1 -10 -1 -21q-1 -10 -1 -23.5v-27.5v-24t1 -18q0 -9 1 -16zM429 898h97q-5 -11 -15 -25
q-8 -12 -23.5 -28t-39.5 -36q-23 -18 -42 -29t-33 -17q-17 -7 -29 -10z" />
    <glyph glyph-name="cacute" unicode="&#x107;" horiz-adv-x="508" 
d="M475 124q0 -24 -10.5 -48.5t-32 -43.5t-55.5 -31t-82 -12q-53 0 -97 18.5t-76 54t-49.5 88t-17.5 120.5q0 19 2 49t10.5 63.5t25 68t45 62t71.5 45t105 17.5q40 0 68.5 -6t47.5 -14q22 -9 36 -19q-1 -5 -1 -13q-1 -7 -1 -16.5v-22.5v-25.5t1 -22.5q0 -12 1 -23
q-20 31 -37 52t-35 34t-38 18t-46 5q-30 0 -60 -9.5t-53.5 -36.5t-38 -74.5t-14.5 -123.5q0 -46 9.5 -87t30 -71.5t52.5 -48.5t78 -18q44 0 74 10.5t50 24.5q23 16 37 36zM327 769h97q-5 -11 -15 -25q-8 -12 -23.5 -28t-39.5 -36q-23 -18 -42 -29t-33 -17q-17 -7 -29 -10z
" />
    <glyph glyph-name="Ccircumflex" unicode="&#x108;" horiz-adv-x="634" 
d="M594 22q-22 -9 -49 -15q-23 -5 -57 -9.5t-76 -4.5q-84 0 -142.5 19.5t-97.5 50.5t-61.5 70t-33.5 78.5t-14 75.5t-3 61q0 88 24 157t70 116.5t113 72.5t152 25q47 0 80 -5t54 -10q25 -6 41 -14q-1 -7 -1 -16q-1 -8 -1 -19.5v-25.5v-27t1 -21q0 -11 1 -19q-16 23 -32 41.5
t-35.5 31t-45.5 19t-63 6.5q-24 0 -53 -3.5t-58 -14.5t-57 -31.5t-49 -54.5t-34 -84t-13 -120q0 -60 11 -114t40 -95.5t79.5 -66t129.5 -24.5q38 0 64.5 7t47 20t36.5 31.5t32 41.5q-1 -10 -1 -21q-1 -10 -1 -23.5v-27.5v-24t1 -18q0 -9 1 -16zM561 752q-48 3 -93 23t-69 51
q-35 -38 -77.5 -54.5t-84.5 -19.5l137 146h51z" />
    <glyph glyph-name="ccircumflex" unicode="&#x109;" horiz-adv-x="508" 
d="M475 124q0 -24 -10.5 -48.5t-32 -43.5t-55.5 -31t-82 -12q-53 0 -97 18.5t-76 54t-49.5 88t-17.5 120.5q0 19 2 49t10.5 63.5t25 68t45 62t71.5 45t105 17.5q40 0 68.5 -6t47.5 -14q22 -9 36 -19q-1 -5 -1 -13q-1 -7 -1 -16.5v-22.5v-25.5t1 -22.5q0 -12 1 -23
q-20 31 -37 52t-35 34t-38 18t-46 5q-30 0 -60 -9.5t-53.5 -36.5t-38 -74.5t-14.5 -123.5q0 -46 9.5 -87t30 -71.5t52.5 -48.5t78 -18q44 0 74 10.5t50 24.5q23 16 37 36zM463 623q-48 3 -93 23t-69 51q-35 -38 -77.5 -54.5t-84.5 -19.5l137 146h51z" />
    <glyph glyph-name="Cdotaccent" unicode="&#x10a;" horiz-adv-x="634" 
d="M594 22q-22 -9 -49 -15q-23 -5 -57 -9.5t-76 -4.5q-84 0 -142.5 19.5t-97.5 50.5t-61.5 70t-33.5 78.5t-14 75.5t-3 61q0 88 24 157t70 116.5t113 72.5t152 25q47 0 80 -5t54 -10q25 -6 41 -14q-1 -7 -1 -16q-1 -8 -1 -19.5v-25.5v-27t1 -21q0 -11 1 -19q-16 23 -32 41.5
t-35.5 31t-45.5 19t-63 6.5q-24 0 -53 -3.5t-58 -14.5t-57 -31.5t-49 -54.5t-34 -84t-13 -120q0 -60 11 -114t40 -95.5t79.5 -66t129.5 -24.5q38 0 64.5 7t47 20t36.5 31.5t32 41.5q-1 -10 -1 -21q-1 -10 -1 -23.5v-27.5v-24t1 -18q0 -9 1 -16zM453 830q0 -29 -16 -44.5
t-44 -15.5q-26 0 -42.5 15t-16.5 42q0 29 16 44.5t44 15.5q26 0 42.5 -15t16.5 -42z" />
    <glyph glyph-name="cdotaccent" unicode="&#x10b;" horiz-adv-x="508" 
d="M475 124q0 -24 -10.5 -48.5t-32 -43.5t-55.5 -31t-82 -12q-53 0 -97 18.5t-76 54t-49.5 88t-17.5 120.5q0 19 2 49t10.5 63.5t25 68t45 62t71.5 45t105 17.5q40 0 68.5 -6t47.5 -14q22 -9 36 -19q-1 -5 -1 -13q-1 -7 -1 -16.5v-22.5v-25.5t1 -22.5q0 -12 1 -23
q-20 31 -37 52t-35 34t-38 18t-46 5q-30 0 -60 -9.5t-53.5 -36.5t-38 -74.5t-14.5 -123.5q0 -46 9.5 -87t30 -71.5t52.5 -48.5t78 -18q44 0 74 10.5t50 24.5q23 16 37 36zM364 716q0 -29 -16 -44.5t-44 -15.5q-26 0 -42.5 15t-16.5 42q0 29 16 44.5t44 15.5q26 0 42.5 -15
t16.5 -42z" />
    <glyph glyph-name="Ccaron" unicode="&#x10c;" horiz-adv-x="634" 
d="M594 22q-22 -9 -49 -15q-23 -5 -57 -9.5t-76 -4.5q-84 0 -142.5 19.5t-97.5 50.5t-61.5 70t-33.5 78.5t-14 75.5t-3 61q0 88 24 157t70 116.5t113 72.5t152 25q47 0 80 -5t54 -10q25 -6 41 -14q-1 -7 -1 -16q-1 -8 -1 -19.5v-25.5v-27t1 -21q0 -11 1 -19q-16 23 -32 41.5
t-35.5 31t-45.5 19t-63 6.5q-24 0 -53 -3.5t-58 -14.5t-57 -31.5t-49 -54.5t-34 -84t-13 -120q0 -60 11 -114t40 -95.5t79.5 -66t129.5 -24.5q38 0 64.5 7t47 20t36.5 31.5t32 41.5q-1 -10 -1 -21q-1 -10 -1 -23.5v-27.5v-24t1 -18q0 -9 1 -16zM536 913q-41 -38 -74.5 -77
t-65.5 -84h-5l-80 77q-8 8 -24 23t-27 23l61 47q7 -11 15.5 -23t16.5 -23l29 -39q11 14 27.5 28t36 25.5t42.5 17.5t48 5z" />
    <glyph glyph-name="ccaron" unicode="&#x10d;" horiz-adv-x="508" 
d="M475 124q0 -24 -10.5 -48.5t-32 -43.5t-55.5 -31t-82 -12q-53 0 -97 18.5t-76 54t-49.5 88t-17.5 120.5q0 19 2 49t10.5 63.5t25 68t45 62t71.5 45t105 17.5q40 0 68.5 -6t47.5 -14q22 -9 36 -19q-1 -5 -1 -13q-1 -7 -1 -16.5v-22.5v-25.5t1 -22.5q0 -12 1 -23
q-20 31 -37 52t-35 34t-38 18t-46 5q-30 0 -60 -9.5t-53.5 -36.5t-38 -74.5t-14.5 -123.5q0 -46 9.5 -87t30 -71.5t52.5 -48.5t78 -18q44 0 74 10.5t50 24.5q23 16 37 36zM433 769q-20 -19 -36.5 -36t-31.5 -34t-29 -35.5t-30 -40.5h-5l-68 63q-8 8 -24.5 23t-27.5 23l57 47
q7 -11 15.5 -23t18.5 -23l25 -28q23 28 54.5 48.5t81.5 15.5z" />
    <glyph glyph-name="Dcaron" unicode="&#x10e;" horiz-adv-x="723" 
d="M663 373q0 -92 -20.5 -155.5t-53.5 -105t-75 -65t-85 -34.5t-83.5 -13t-70.5 -2q-32 0 -58.5 1.5t-56.5 1.5q-20 0 -35 -0.5t-25 -0.5q-11 -1 -20 -1l9 17q5 9 9 17.5t6.5 22t4.5 34.5t3 56.5t1.5 87.5t0.5 127q0 109 -1 169.5t-3.5 92t-7.5 45t-13 28.5l-9 17
q9 -1 20 -1q10 -1 25 -1h35q30 0 65 1.5t67 1.5q23 0 59 -2t77.5 -12t83 -31t75.5 -59t55 -96t21 -141zM569 360q0 102 -26.5 161.5t-69 89.5t-95 38t-104.5 8q-16 0 -29 -0.5t-23 -0.5q-11 -1 -21 -1v-598q11 -1 22 -1q10 -1 22.5 -1h24.5q32 0 67 2.5t68 12t63 29
t52.5 53.5t35.5 84.5t13 123.5zM472 913q-41 -38 -74.5 -77t-65.5 -84h-5l-80 77q-8 8 -24 23t-27 23l61 47q7 -11 15.5 -23t16.5 -23l29 -39q11 14 27.5 28t36 25.5t42.5 17.5t48 5z" />
    <glyph glyph-name="dcaron" unicode="&#x10f;" horiz-adv-x="626" 
d="M447 -8l4 111q-21 -57 -63 -85t-108 -28q-12 0 -33 2.5t-46 11.5t-51 27t-47 49t-34.5 77.5t-13.5 113.5q0 89 22.5 148t58.5 94t81.5 49t91.5 14q35 0 60 -7t42 -15q19 -10 32 -22q0 55 -2 91.5t-5 60t-7.5 37.5t-10.5 24l-9 17l118 25q-1 -33 -2 -68q-1 -30 -1 -68v-76
v-311q0 -65 1.5 -105t5 -64t8 -37t10.5 -24l9 -17zM443 487q-11 9 -28 16q-14 6 -36.5 11t-51.5 5q-98 0 -140.5 -63t-42.5 -178q0 -43 8.5 -83t27.5 -71t50.5 -50t76.5 -19q51 0 80.5 13.5t55.5 45.5v373zM572 604q7 26 10.5 53.5t3.5 53.5t-2 48.5t-5 38.5l86 11
q2 -29 -1 -58t-14 -55.5t-30 -50t-48 -41.5z" />
    <glyph glyph-name="Dcroat" unicode="&#x110;" horiz-adv-x="742" 
d="M682 373q0 -92 -20.5 -155.5t-53.5 -105t-75 -65t-85 -34.5t-83.5 -13t-70.5 -2q-32 0 -58.5 1.5t-56.5 1.5q-20 0 -35 -0.5t-25 -0.5q-11 -1 -20 -1l9 17q7 13 11.5 26t7.5 42.5t4.5 84t1.5 151.5h-15q-29 0 -48 -1.5t-30 -3.5q-13 -3 -20 -5v9q0 5 0.5 11t0.5 15
q0 8 -0.5 14.5t-0.5 11.5v9q7 -3 20 -5q11 -2 30 -3.5t48 -1.5h15q0 70 -0.5 119t-1.5 81.5t-2.5 52.5t-4.5 33t-7 21.5t-9 18.5l-9 17q9 -1 20 -1q10 -1 25 -1h35q30 0 65 1.5t67 1.5q23 0 59 -2t77.5 -12t83 -31t75.5 -59t55 -96t21 -141zM588 360q0 102 -26.5 161.5
t-69 89.5t-95 38t-104.5 8q-16 0 -29 -0.5t-23 -0.5q-11 -1 -21 -1v-285h81q29 0 47.5 1.5t29.5 3.5q13 2 21 5q-1 -4 -1 -9v-26v-26q0 -5 1 -9q-8 2 -21 5q-11 2 -29.5 3.5t-47.5 1.5h-81v-263q11 -1 22 -1q10 -1 22.5 -1h24.5q32 0 67 2.5t68 12t63 29t52.5 53.5
t35.5 84.5t13 123.5z" />
    <glyph glyph-name="dcroat" unicode="&#x111;" horiz-adv-x="626" 
d="M447 -8l4 111q-21 -57 -63 -85t-108 -28q-12 0 -33 2.5t-46 11.5t-51 27t-47 49t-34.5 77.5t-13.5 113.5q0 89 22.5 148t58.5 94t81.5 49t91.5 14q35 0 60 -7t42 -15q19 -10 32 -22q0 36 -0.5 63.5t-2.5 49.5h-91q-27 0 -45 -1.5t-29 -3.5q-12 -2 -19 -4v9q0 5 0.5 11
t0.5 14t-0.5 14t-0.5 11v9q7 -3 19 -5q11 -2 29 -3t45 -1h85q-3 18 -7 29.5t-9 20.5l-9 17l118 25q-1 -12 -1 -27q0 -13 -0.5 -29.5t-0.5 -35.5q24 0 39.5 1.5t25.5 3.5q11 2 18 4q-1 -4 -1 -9v-25v-25q0 -5 1 -9q-7 2 -18 4q-10 2 -26 3t-40 2q-1 -18 -0.5 -35t0.5 -35
v-311q0 -65 1.5 -105t5 -64t8 -37t10.5 -24l9 -17zM443 487q-11 9 -28 16q-14 6 -36.5 11t-51.5 5q-98 0 -140.5 -63t-42.5 -178q0 -43 8.5 -83t27.5 -71t50.5 -50t76.5 -19q51 0 80.5 13.5t55.5 45.5v373z" />
    <glyph glyph-name="Emacron" unicode="&#x112;" horiz-adv-x="565" 
d="M502 113q-2 -14 -4 -35t-4 -50l-2 -28h-335q-20 0 -35 -0.5t-24 -0.5h-18l9 17l9 18t6.5 21.5t4.5 34.5t3 56.5t1.5 87.5t0.5 127q0 109 -1 169.5t-3.5 92t-7.5 45t-13 28.5l-9 17q7 -1 18 -1h58h326q-1 -5 -1 -12v-36q0 -29 1.5 -42.5t1.5 -15.5q-1 1 -8 7.5t-28 19.5
q-38 22 -110 22h-138v-270h114q35 0 63.5 4t46.5 15q20 11 27 17.5t9 8.5q0 -1 -1.5 -21t-1.5 -53q0 -32 1.5 -51.5t1.5 -21.5q-1 1 -8 7.5t-28 19.5q-18 11 -46.5 15t-63.5 4h-114v-272h128q46 0 74.5 5.5t46.5 16t30 26t26 35.5zM158 789v63h274v-63h-274z" />
    <glyph glyph-name="emacron" unicode="&#x113;" horiz-adv-x="572" 
d="M144 288q0 -41 7.5 -82.5t27 -75.5t54.5 -55.5t90 -21.5q52 0 86 11t54 25q24 16 36 36q0 -27 -11 -51.5t-34.5 -43t-60 -30t-87.5 -11.5q-65 0 -112.5 21t-78 59.5t-45.5 91.5t-15 117q0 81 21 137.5t55 92.5t78 52t90 16q49 0 85 -13t61 -34.5t40 -50t23 -59.5
t11 -62.5t3 -59.5v-9h-378zM429 352q0 18 -3.5 46.5t-17 56t-40 47t-73.5 19.5q-21 0 -47 -5t-48.5 -24.5t-38 -57t-16.5 -102.5zM159 660v63h274v-63h-274z" />
    <glyph glyph-name="Ebreve" unicode="&#x114;" horiz-adv-x="565" 
d="M502 113q-2 -14 -4 -35t-4 -50l-2 -28h-335q-20 0 -35 -0.5t-24 -0.5h-18l9 17l9 18t6.5 21.5t4.5 34.5t3 56.5t1.5 87.5t0.5 127q0 109 -1 169.5t-3.5 92t-7.5 45t-13 28.5l-9 17q7 -1 18 -1h58h326q-1 -5 -1 -12v-36q0 -29 1.5 -42.5t1.5 -15.5q-1 1 -8 7.5t-28 19.5
q-38 22 -110 22h-138v-270h114q35 0 63.5 4t46.5 15q20 11 27 17.5t9 8.5q0 -1 -1.5 -21t-1.5 -53q0 -32 1.5 -51.5t1.5 -21.5q-1 1 -8 7.5t-28 19.5q-18 11 -46.5 15t-63.5 4h-114v-272h128q46 0 74.5 5.5t46.5 16t30 26t26 35.5zM154 914q26 -37 59.5 -63t80.5 -26
t80.5 26t59.5 63q0 -33 -9 -61.5t-26.5 -50t-43.5 -33.5t-61 -12t-61 12t-43.5 33.5t-26.5 50t-9 61.5z" />
    <glyph glyph-name="ebreve" unicode="&#x115;" horiz-adv-x="572" 
d="M144 288q0 -41 7.5 -82.5t27 -75.5t54.5 -55.5t90 -21.5q52 0 86 11t54 25q24 16 36 36q0 -27 -11 -51.5t-34.5 -43t-60 -30t-87.5 -11.5q-65 0 -112.5 21t-78 59.5t-45.5 91.5t-15 117q0 81 21 137.5t55 92.5t78 52t90 16q49 0 85 -13t61 -34.5t40 -50t23 -59.5
t11 -62.5t3 -59.5v-9h-378zM429 352q0 18 -3.5 46.5t-17 56t-40 47t-73.5 19.5q-21 0 -47 -5t-48.5 -24.5t-38 -57t-16.5 -102.5zM159 785q26 -37 59.5 -63t80.5 -26t80.5 26t59.5 63q0 -33 -9 -61.5t-26.5 -50t-43.5 -33.5t-61 -12t-61 12t-43.5 33.5t-26.5 50t-9 61.5z
" />
    <glyph glyph-name="Edotaccent" unicode="&#x116;" horiz-adv-x="565" 
d="M502 113q-2 -14 -4 -35t-4 -50l-2 -28h-335q-20 0 -35 -0.5t-24 -0.5h-18l9 17l9 18t6.5 21.5t4.5 34.5t3 56.5t1.5 87.5t0.5 127q0 109 -1 169.5t-3.5 92t-7.5 45t-13 28.5l-9 17q7 -1 18 -1h58h326q-1 -5 -1 -12v-36q0 -29 1.5 -42.5t1.5 -15.5q-1 1 -8 7.5t-28 19.5
q-38 22 -110 22h-138v-270h114q35 0 63.5 4t46.5 15q20 11 27 17.5t9 8.5q0 -1 -1.5 -21t-1.5 -53q0 -32 1.5 -51.5t1.5 -21.5q-1 1 -8 7.5t-28 19.5q-18 11 -46.5 15t-63.5 4h-114v-272h128q46 0 74.5 5.5t46.5 16t30 26t26 35.5zM354 830q0 -29 -16 -44.5t-44 -15.5
q-26 0 -42.5 15t-16.5 42q0 29 16 44.5t44 15.5q26 0 42.5 -15t16.5 -42z" />
    <glyph glyph-name="edotaccent" unicode="&#x117;" horiz-adv-x="572" 
d="M144 288q0 -41 7.5 -82.5t27 -75.5t54.5 -55.5t90 -21.5q52 0 86 11t54 25q24 16 36 36q0 -27 -11 -51.5t-34.5 -43t-60 -30t-87.5 -11.5q-65 0 -112.5 21t-78 59.5t-45.5 91.5t-15 117q0 81 21 137.5t55 92.5t78 52t90 16q49 0 85 -13t61 -34.5t40 -50t23 -59.5
t11 -62.5t3 -59.5v-9h-378zM429 352q0 18 -3.5 46.5t-17 56t-40 47t-73.5 19.5q-21 0 -47 -5t-48.5 -24.5t-38 -57t-16.5 -102.5zM356 716q0 -29 -16 -44.5t-44 -15.5q-26 0 -42.5 15t-16.5 42q0 29 16 44.5t44 15.5q26 0 42.5 -15t16.5 -42z" />
    <glyph glyph-name="Eogonek" unicode="&#x118;" horiz-adv-x="565" 
d="M335 -131q0 27 10.5 48t26 37t33 27t32.5 19h-280q-20 0 -35 -0.5t-24 -0.5h-18l9 17l9 18t6.5 21.5t4.5 34.5t3 56.5t1.5 87.5t0.5 127q0 109 -1 169.5t-3.5 92t-7.5 45t-13 28.5l-9 17q7 -1 18 -1h58h326q-1 -5 -1 -12v-36q0 -29 1.5 -42.5t1.5 -15.5q-1 1 -8 7.5
t-28 19.5q-38 22 -110 22h-138v-270h114q35 0 63.5 4t46.5 15q20 11 27 17.5t9 8.5q0 -1 -1.5 -21t-1.5 -53q0 -32 1.5 -51.5t1.5 -21.5q-1 1 -8 7.5t-28 19.5q-18 11 -46.5 15t-63.5 4h-114v-272h128q46 0 74.5 5.5t46.5 16t30 26t26 35.5l-3 -27q-2 -14 -4 -35t-4 -50
l-2 -28q-34 -16 -56.5 -44.5t-22.5 -69.5q0 -30 21 -50.5t66 -26.5q-17 -10 -36 -15.5t-39 -5.5q-18 0 -34 4.5t-28.5 14.5t-20 25.5t-7.5 36.5z" />
    <glyph glyph-name="eogonek" unicode="&#x119;" horiz-adv-x="572" 
d="M259 -131q0 23 8 42t20.5 34t28 26.5t29.5 19.5q-9 -1 -18.5 -1.5t-20.5 -0.5q-65 0 -112.5 21t-78 59.5t-45.5 91.5t-15 117q0 81 21 137.5t55 92.5t78 52t90 16q49 0 85 -13t61 -34.5t40 -50t23 -59.5t11 -62.5t3 -59.5v-9h-378q0 -41 7.5 -82.5t27 -75.5t54.5 -55.5
t90 -21.5q52 0 86 11t54 25q24 16 36 36q0 -38 -21.5 -68t-67.5 -55q-12 -6 -25 -17t-23.5 -26t-17.5 -33.5t-7 -39.5q0 -30 21 -50.5t66 -26.5q-17 -10 -36 -15.5t-39 -5.5q-18 0 -34 4.5t-28.5 14.5t-20 25.5t-7.5 36.5zM429 352q0 18 -3.5 46.5t-17 56t-40 47t-73.5 19.5
q-21 0 -47 -5t-48.5 -24.5t-38 -57t-16.5 -102.5z" />
    <glyph glyph-name="Ecaron" unicode="&#x11a;" horiz-adv-x="565" 
d="M502 113q-2 -14 -4 -35t-4 -50l-2 -28h-335q-20 0 -35 -0.5t-24 -0.5h-18l9 17l9 18t6.5 21.5t4.5 34.5t3 56.5t1.5 87.5t0.5 127q0 109 -1 169.5t-3.5 92t-7.5 45t-13 28.5l-9 17q7 -1 18 -1h58h326q-1 -5 -1 -12v-36q0 -29 1.5 -42.5t1.5 -15.5q-1 1 -8 7.5t-28 19.5
q-38 22 -110 22h-138v-270h114q35 0 63.5 4t46.5 15q20 11 27 17.5t9 8.5q0 -1 -1.5 -21t-1.5 -53q0 -32 1.5 -51.5t1.5 -21.5q-1 1 -8 7.5t-28 19.5q-18 11 -46.5 15t-63.5 4h-114v-272h128q46 0 74.5 5.5t46.5 16t30 26t26 35.5zM434 913q-41 -38 -74.5 -77t-65.5 -84h-5
l-80 77q-8 8 -24 23t-27 23l61 47q7 -11 15.5 -23t16.5 -23l29 -39q11 14 27.5 28t36 25.5t42.5 17.5t48 5z" />
    <glyph glyph-name="ecaron" unicode="&#x11b;" horiz-adv-x="572" 
d="M144 288q0 -41 7.5 -82.5t27 -75.5t54.5 -55.5t90 -21.5q52 0 86 11t54 25q24 16 36 36q0 -27 -11 -51.5t-34.5 -43t-60 -30t-87.5 -11.5q-65 0 -112.5 21t-78 59.5t-45.5 91.5t-15 117q0 81 21 137.5t55 92.5t78 52t90 16q49 0 85 -13t61 -34.5t40 -50t23 -59.5
t11 -62.5t3 -59.5v-9h-378zM429 352q0 18 -3.5 46.5t-17 56t-40 47t-73.5 19.5q-21 0 -47 -5t-48.5 -24.5t-38 -57t-16.5 -102.5zM424 769q-20 -19 -36.5 -36t-31.5 -34t-29 -35.5t-30 -40.5h-5l-68 63q-8 8 -24.5 23t-27.5 23l57 47q7 -11 15.5 -23t18.5 -23l25 -28
q23 28 54.5 48.5t81.5 15.5z" />
    <glyph glyph-name="Gcircumflex" unicode="&#x11c;" horiz-adv-x="700" 
d="M631 314q-7 -13 -12 -26.5t-8 -41.5t-4 -79t-1 -139v-6q-20 -9 -47 -15q-23 -5 -57 -9.5t-77 -4.5q-86 0 -147 19.5t-101.5 50.5t-64 70t-35 78.5t-14.5 75.5t-3 61q0 88 25 157t72.5 116.5t116.5 72.5t157 25q48 0 82.5 -5t56.5 -10q26 -6 42 -14q-1 -7 -2 -16
q-1 -8 -1 -19.5v-25.5v-27t1 -21q1 -11 2 -19q-17 23 -33.5 41.5t-37.5 31t-48 19t-65 6.5q-25 0 -55 -3.5t-60 -14.5t-59 -31.5t-51 -54.5t-35.5 -84t-13.5 -120q0 -62 11.5 -116.5t42 -95.5t83 -64.5t134.5 -23.5q24 0 42 1t30 3q14 2 25 4q0 70 -1 113.5t-4 70.5t-8 42
t-12 28l-10 17q7 -1 18 -1q9 -1 23.5 -1h34.5h34.5t24.5 1q11 0 18 1zM553 752q-48 3 -93 23t-69 51q-35 -38 -77.5 -54.5t-84.5 -19.5l137 146h51z" />
    <glyph glyph-name="gcircumflex" unicode="&#x11d;" horiz-adv-x="574" 
d="M540 -14q0 -48 -21.5 -85.5t-59 -62.5t-89 -38t-111.5 -13q-58 0 -97.5 8t-65.5 21t-40.5 29t-21 31.5t-8 28.5t-1.5 21q0 39 20 62.5t44 37t45 18.5t23 5q-1 0 -8.5 4t-16.5 13t-16 24t-7 38q0 26 11 44t25 29.5t26.5 17.5t15.5 7q-1 0 -20.5 6t-42.5 24t-42 50.5
t-19 85.5q0 31 9 64t31.5 60t60.5 44.5t97 17.5q20 0 36.5 -3t27.5 -6q13 -4 24 -8h64q29 0 54.5 1.5t43.5 3.5q21 3 38 6q-1 -5 -1 -10v-28v-27q0 -5 1 -9q-12 2 -28 5q-14 2 -33.5 3.5t-44.5 2.5l-36 1q16 -11 28 -28q11 -14 20 -37t9 -55q0 -59 -21.5 -93.5t-52 -53.5
t-65 -24.5t-61.5 -5.5q-28 0 -44 3q-10 1 -17 3q-7 -6 -12 -15q-5 -8 -8.5 -18t-3.5 -24q0 -18 6.5 -28t17 -15.5t24 -6.5t26.5 -1h115q27 0 57 -2.5t55.5 -14.5t42.5 -37.5t17 -70.5zM460 -36q0 28 -9.5 43t-25 22t-36.5 8.5t-43 1.5h-168q-20 -7 -36 -20
q-14 -11 -25 -29.5t-11 -44.5q0 -13 4 -30.5t20.5 -33.5t48.5 -27.5t89 -11.5q89 0 140.5 32t51.5 90zM378 397q0 18 -3.5 41t-15.5 44t-35.5 35.5t-63.5 14.5q-30 0 -51 -11.5t-34 -31t-19 -44t-6 -51.5q0 -18 3.5 -41t15.5 -44t35.5 -35.5t63.5 -14.5q30 0 51 11.5t34 31
t19 44t6 51.5zM449 623q-48 3 -93 23t-69 51q-35 -38 -77.5 -54.5t-84.5 -19.5l137 146h51z" />
    <glyph glyph-name="Gbreve" unicode="&#x11e;" horiz-adv-x="700" 
d="M631 314q-7 -13 -12 -26.5t-8 -41.5t-4 -79t-1 -139v-6q-20 -9 -47 -15q-23 -5 -57 -9.5t-77 -4.5q-86 0 -147 19.5t-101.5 50.5t-64 70t-35 78.5t-14.5 75.5t-3 61q0 88 25 157t72.5 116.5t116.5 72.5t157 25q48 0 82.5 -5t56.5 -10q26 -6 42 -14q-1 -7 -2 -16
q-1 -8 -1 -19.5v-25.5v-27t1 -21q1 -11 2 -19q-17 23 -33.5 41.5t-37.5 31t-48 19t-65 6.5q-25 0 -55 -3.5t-60 -14.5t-59 -31.5t-51 -54.5t-35.5 -84t-13.5 -120q0 -62 11.5 -116.5t42 -95.5t83 -64.5t134.5 -23.5q24 0 42 1t30 3q14 2 25 4q0 70 -1 113.5t-4 70.5t-8 42
t-12 28l-10 17q7 -1 18 -1q9 -1 23.5 -1h34.5h34.5t24.5 1q11 0 18 1zM257 914q26 -37 59.5 -63t80.5 -26t80.5 26t59.5 63q0 -33 -9 -61.5t-26.5 -50t-43.5 -33.5t-61 -12t-61 12t-43.5 33.5t-26.5 50t-9 61.5z" />
    <glyph glyph-name="gbreve" unicode="&#x11f;" horiz-adv-x="574" 
d="M540 -14q0 -48 -21.5 -85.5t-59 -62.5t-89 -38t-111.5 -13q-58 0 -97.5 8t-65.5 21t-40.5 29t-21 31.5t-8 28.5t-1.5 21q0 39 20 62.5t44 37t45 18.5t23 5q-1 0 -8.5 4t-16.5 13t-16 24t-7 38q0 26 11 44t25 29.5t26.5 17.5t15.5 7q-1 0 -20.5 6t-42.5 24t-42 50.5
t-19 85.5q0 31 9 64t31.5 60t60.5 44.5t97 17.5q20 0 36.5 -3t27.5 -6q13 -4 24 -8h64q29 0 54.5 1.5t43.5 3.5q21 3 38 6q-1 -5 -1 -10v-28v-27q0 -5 1 -9q-12 2 -28 5q-14 2 -33.5 3.5t-44.5 2.5l-36 1q16 -11 28 -28q11 -14 20 -37t9 -55q0 -59 -21.5 -93.5t-52 -53.5
t-65 -24.5t-61.5 -5.5q-28 0 -44 3q-10 1 -17 3q-7 -6 -12 -15q-5 -8 -8.5 -18t-3.5 -24q0 -18 6.5 -28t17 -15.5t24 -6.5t26.5 -1h115q27 0 57 -2.5t55.5 -14.5t42.5 -37.5t17 -70.5zM460 -36q0 28 -9.5 43t-25 22t-36.5 8.5t-43 1.5h-168q-20 -7 -36 -20
q-14 -11 -25 -29.5t-11 -44.5q0 -13 4 -30.5t20.5 -33.5t48.5 -27.5t89 -11.5q89 0 140.5 32t51.5 90zM378 397q0 18 -3.5 41t-15.5 44t-35.5 35.5t-63.5 14.5q-30 0 -51 -11.5t-34 -31t-19 -44t-6 -51.5q0 -18 3.5 -41t15.5 -44t35.5 -35.5t63.5 -14.5q30 0 51 11.5t34 31
t19 44t6 51.5zM147 785q26 -37 59.5 -63t80.5 -26t80.5 26t59.5 63q0 -33 -9 -61.5t-26.5 -50t-43.5 -33.5t-61 -12t-61 12t-43.5 33.5t-26.5 50t-9 61.5z" />
    <glyph glyph-name="Gdotaccent" unicode="&#x120;" horiz-adv-x="700" 
d="M631 314q-7 -13 -12 -26.5t-8 -41.5t-4 -79t-1 -139v-6q-20 -9 -47 -15q-23 -5 -57 -9.5t-77 -4.5q-86 0 -147 19.5t-101.5 50.5t-64 70t-35 78.5t-14.5 75.5t-3 61q0 88 25 157t72.5 116.5t116.5 72.5t157 25q48 0 82.5 -5t56.5 -10q26 -6 42 -14q-1 -7 -2 -16
q-1 -8 -1 -19.5v-25.5v-27t1 -21q1 -11 2 -19q-17 23 -33.5 41.5t-37.5 31t-48 19t-65 6.5q-25 0 -55 -3.5t-60 -14.5t-59 -31.5t-51 -54.5t-35.5 -84t-13.5 -120q0 -62 11.5 -116.5t42 -95.5t83 -64.5t134.5 -23.5q24 0 42 1t30 3q14 2 25 4q0 70 -1 113.5t-4 70.5t-8 42
t-12 28l-10 17q7 -1 18 -1q9 -1 23.5 -1h34.5h34.5t24.5 1q11 0 18 1zM457 830q0 -29 -16 -44.5t-44 -15.5q-26 0 -42.5 15t-16.5 42q0 29 16 44.5t44 15.5q26 0 42.5 -15t16.5 -42z" />
    <glyph glyph-name="gdotaccent" unicode="&#x121;" horiz-adv-x="574" 
d="M540 -14q0 -48 -21.5 -85.5t-59 -62.5t-89 -38t-111.5 -13q-58 0 -97.5 8t-65.5 21t-40.5 29t-21 31.5t-8 28.5t-1.5 21q0 39 20 62.5t44 37t45 18.5t23 5q-1 0 -8.5 4t-16.5 13t-16 24t-7 38q0 26 11 44t25 29.5t26.5 17.5t15.5 7q-1 0 -20.5 6t-42.5 24t-42 50.5
t-19 85.5q0 31 9 64t31.5 60t60.5 44.5t97 17.5q20 0 36.5 -3t27.5 -6q13 -4 24 -8h64q29 0 54.5 1.5t43.5 3.5q21 3 38 6q-1 -5 -1 -10v-28v-27q0 -5 1 -9q-12 2 -28 5q-14 2 -33.5 3.5t-44.5 2.5l-36 1q16 -11 28 -28q11 -14 20 -37t9 -55q0 -59 -21.5 -93.5t-52 -53.5
t-65 -24.5t-61.5 -5.5q-28 0 -44 3q-10 1 -17 3q-7 -6 -12 -15q-5 -8 -8.5 -18t-3.5 -24q0 -18 6.5 -28t17 -15.5t24 -6.5t26.5 -1h115q27 0 57 -2.5t55.5 -14.5t42.5 -37.5t17 -70.5zM460 -36q0 28 -9.5 43t-25 22t-36.5 8.5t-43 1.5h-168q-20 -7 -36 -20
q-14 -11 -25 -29.5t-11 -44.5q0 -13 4 -30.5t20.5 -33.5t48.5 -27.5t89 -11.5q89 0 140.5 32t51.5 90zM378 397q0 18 -3.5 41t-15.5 44t-35.5 35.5t-63.5 14.5q-30 0 -51 -11.5t-34 -31t-19 -44t-6 -51.5q0 -18 3.5 -41t15.5 -44t35.5 -35.5t63.5 -14.5q30 0 51 11.5t34 31
t19 44t6 51.5zM346 716q0 -29 -16 -44.5t-44 -15.5q-26 0 -42.5 15t-16.5 42q0 29 16 44.5t44 15.5q26 0 42.5 -15t16.5 -42z" />
    <glyph glyph-name="Gcommaaccent" unicode="&#x122;" horiz-adv-x="700" 
d="M631 314q-7 -13 -12 -26.5t-8 -41.5t-4 -79t-1 -139v-6q-20 -9 -47 -15q-23 -5 -57 -9.5t-77 -4.5q-86 0 -147 19.5t-101.5 50.5t-64 70t-35 78.5t-14.5 75.5t-3 61q0 88 25 157t72.5 116.5t116.5 72.5t157 25q48 0 82.5 -5t56.5 -10q26 -6 42 -14q-1 -7 -2 -16
q-1 -8 -1 -19.5v-25.5v-27t1 -21q1 -11 2 -19q-17 23 -33.5 41.5t-37.5 31t-48 19t-65 6.5q-25 0 -55 -3.5t-60 -14.5t-59 -31.5t-51 -54.5t-35.5 -84t-13.5 -120q0 -62 11.5 -116.5t42 -95.5t83 -64.5t134.5 -23.5q24 0 42 1t30 3q14 2 25 4q0 70 -1 113.5t-4 70.5t-8 42
t-12 28l-10 17q7 -1 18 -1q9 -1 23.5 -1h34.5h34.5t24.5 1q11 0 18 1zM454 -111q0 -20 -7.5 -40t-22.5 -36.5t-37 -28.5t-50 -16q1 0 8 6t15.5 16.5t15 24.5t6.5 31q0 16 -5.5 25t-12.5 14q-8 5 -17 7v17q0 45 48 53q26 -5 42.5 -21.5t16.5 -51.5z" />
    <glyph glyph-name="gcommaaccent" unicode="&#x123;" horiz-adv-x="574" 
d="M540 -14q0 -48 -21.5 -85.5t-59 -62.5t-89 -38t-111.5 -13q-58 0 -97.5 8t-65.5 21t-40.5 29t-21 31.5t-8 28.5t-1.5 21q0 39 20 62.5t44 37t45 18.5t23 5q-1 0 -8.5 4t-16.5 13t-16 24t-7 38q0 26 11 44t25 29.5t26.5 17.5t15.5 7q-1 0 -20.5 6t-42.5 24t-42 50.5
t-19 85.5q0 31 9 64t31.5 60t60.5 44.5t97 17.5q20 0 36.5 -3t27.5 -6q13 -4 24 -8h64q29 0 54.5 1.5t43.5 3.5q21 3 38 6q-1 -5 -1 -10v-28v-27q0 -5 1 -9q-12 2 -28 5q-14 2 -33.5 3.5t-44.5 2.5l-36 1q16 -11 28 -28q11 -14 20 -37t9 -55q0 -59 -21.5 -93.5t-52 -53.5
t-65 -24.5t-61.5 -5.5q-28 0 -44 3q-10 1 -17 3q-7 -6 -12 -15q-5 -8 -8.5 -18t-3.5 -24q0 -18 6.5 -28t17 -15.5t24 -6.5t26.5 -1h115q27 0 57 -2.5t55.5 -14.5t42.5 -37.5t17 -70.5zM460 -36q0 28 -9.5 43t-25 22t-36.5 8.5t-43 1.5h-168q-20 -7 -36 -20
q-14 -11 -25 -29.5t-11 -44.5q0 -13 4 -30.5t20.5 -33.5t48.5 -27.5t89 -11.5q89 0 140.5 32t51.5 90zM378 397q0 18 -3.5 41t-15.5 44t-35.5 35.5t-63.5 14.5q-30 0 -51 -11.5t-34 -31t-19 -44t-6 -51.5q0 -18 3.5 -41t15.5 -44t35.5 -35.5t63.5 -14.5q30 0 51 11.5t34 31
t19 44t6 51.5zM223 694q0 20 7.5 40t22.5 36.5t36.5 28t50.5 16.5q-1 0 -8 -6t-15.5 -16.5t-15 -25t-6.5 -30.5t5 -25t12 -14q8 -5 18 -7v-17q0 -45 -48 -53q-26 5 -42.5 21.5t-16.5 51.5z" />
    <glyph glyph-name="Hcircumflex" unicode="&#x124;" horiz-adv-x="745" 
d="M665 -1q-7 0 -18 1q-9 0 -23.5 0.5t-34.5 0.5t-35 -0.5t-24 -0.5q-11 -1 -18 -1l9 17q7 14 12 27.5t8 44t4 88t1 159.5h-347q0 -68 0.5 -115.5t1.5 -80t2.5 -52t4.5 -32t7 -21t9 -18.5l9 -17q-7 0 -18 1q-9 0 -23.5 0.5t-34.5 0.5t-35 -0.5t-24 -0.5q-11 -1 -18 -1l9 17
l9 18t6.5 21.5t4.5 34.5t3 56.5t1.5 87.5t0.5 127q0 109 -1 169.5t-3.5 92t-7.5 45t-13 28.5l-9 17q7 -1 18 -1q9 -1 23.5 -1h34.5h34.5t24.5 1q11 0 18 1l-9 -17q-7 -14 -12 -26.5t-8 -41t-4 -81.5t-1 -146h347q0 93 -1 145t-4 80.5t-8 42t-12 27.5l-9 17q7 -1 18 -1
q9 -1 23.5 -1h34.5h34.5t24.5 1q11 0 18 1l-9 -17l-9 -18t-6.5 -21.5t-4.5 -34.5t-3 -56.5t-1.5 -87.5t-0.5 -127q0 -109 1 -169.5t3.5 -92t7.5 -45t13 -28.5zM534 752q-48 3 -93 23t-69 51q-35 -38 -77.5 -54.5t-84.5 -19.5l137 146h51z" />
    <glyph glyph-name="hcircumflex" unicode="&#x125;" horiz-adv-x="625" 
d="M557 -1q-6 0 -17 1q-9 0 -23.5 0.5t-34.5 0.5t-34 -0.5t-23 -0.5q-11 -1 -17 -1l9 17q6 11 11 21t8 34t5 69.5t2 127.5q0 80 -4 125.5t-19 69.5q-11 18 -33.5 33t-68.5 15q-44 0 -70 -11t-40 -25q-17 -16 -23 -35v-169q0 -82 1.5 -128t5 -70.5t8 -35t10.5 -21.5l9 -17
q-6 0 -17 1q-9 0 -23 0.5t-34 0.5t-34.5 -0.5t-23.5 -0.5q-11 -1 -17 -1l9 17q6 11 10.5 21.5t8 35t5 70.5t1.5 128v244q0 65 -1.5 105t-5 64t-8 37t-10.5 24l-9 17l118 25l-2 -60q-1 -26 -1 -56v-56v-92q0 -15 -0.5 -28t-0.5 -23q-1 -11 -1 -21q9 40 28 65t42 38t47.5 17.5
t45.5 4.5q57 0 94.5 -19.5t56.5 -54.5q8 -16 13.5 -33.5t8.5 -41.5t4 -56t1 -76v-24q0 -82 1.5 -128t4.5 -70.5t7.5 -35t10.5 -21.5zM305 812q-48 3 -93 23t-69 51q-35 -38 -77.5 -54.5t-84.5 -19.5l137 146h51z" />
    <glyph glyph-name="Hbar" unicode="&#x126;" horiz-adv-x="763" 
d="M674 -1q-7 0 -18 1q-9 0 -23.5 0.5t-34.5 0.5t-35 -0.5t-24 -0.5q-11 -1 -18 -1l9 17q7 14 12 27.5t8 44t4 88t1 159.5h-347q0 -68 0.5 -115.5t1.5 -80t2.5 -52t4.5 -32t7 -21t9 -18.5l9 -17q-7 0 -18 1q-9 0 -23.5 0.5t-34.5 0.5t-35 -0.5t-24 -0.5q-11 -1 -18 -1l9 17
l9 18t6.5 21.5t4.5 34.5t3 56.5t1.5 87.5t0.5 127q0 52 -0.5 91.5t-0.5 70.5h-4q-29 0 -48 -1.5t-30 -3.5q-13 -3 -20 -5v9q0 5 0.5 11t0.5 15q0 8 -0.5 14.5t-0.5 11.5v9q7 -3 20 -5q11 -2 30 -3.5t48 -1.5h3q-1 32 -3 51.5t-5 32t-6.5 21t-8.5 18.5l-9 17q7 -1 18 -1
q9 -1 23.5 -1h34.5h34.5t24.5 1q11 0 18 1l-9 -17q-5 -9 -8.5 -17.5t-6.5 -21.5t-5 -32.5t-3 -51.5h343q-1 31 -3 50.5t-5 32.5t-6.5 21.5t-8.5 18.5l-9 17q7 -1 18 -1q9 -1 23.5 -1h34.5h34.5t24.5 1q11 0 18 1l-9 -17q-5 -9 -8.5 -17.5t-6.5 -21t-5 -32.5t-3 -52h3
q29 0 47.5 1.5t29.5 3.5q13 2 21 5q-1 -4 -1 -9v-26v-26q0 -5 1 -9q-8 2 -21 5q-11 2 -29.5 3.5t-47.5 1.5h-4q-1 -32 -1 -74.5v-97.5q0 -109 1 -169.5t3.5 -92t7.5 -45t13 -28.5zM555 401v67t-1 55h-346v-122h347z" />
    <glyph glyph-name="hbar" unicode="&#x127;" horiz-adv-x="625" 
d="M557 -1q-6 0 -17 1q-9 0 -23.5 0.5t-34.5 0.5t-34 -0.5t-23 -0.5q-11 -1 -17 -1l9 17q6 11 11 21t8 34t5 69.5t2 127.5q0 80 -4 125.5t-19 69.5q-11 18 -33.5 33t-68.5 15q-44 0 -70 -11t-40 -25q-17 -16 -23 -35v-169q0 -82 1.5 -128t5 -70.5t8 -35t10.5 -21.5l9 -17
q-6 0 -17 1q-9 0 -23 0.5t-34 0.5t-34.5 -0.5t-23.5 -0.5q-11 -1 -17 -1l9 17q6 11 10.5 21.5t8 35t5 70.5t1.5 128v244q0 44 -0.5 75.5t-2.5 54.5q-24 -1 -39.5 -2t-24.5 -3q-11 -2 -17 -4v9q0 5 0.5 11t0.5 14t-0.5 14t-0.5 11v9q5 -2 16 -4q9 -2 23.5 -3.5t36.5 -1.5
q-3 18 -7.5 29t-9.5 21l-9 17l118 25q0 -13 -1 -28q-1 -13 -1.5 -29.5t-0.5 -34.5h70q27 0 44.5 1t28.5 3q12 2 20 5q-1 -4 -1 -9v-25v-25q0 -5 1 -9q-8 2 -20 4q-11 2 -28.5 3.5t-44.5 1.5h-70v-30v-92q0 -15 -0.5 -28t-0.5 -23q-1 -11 -1 -21q9 40 28 65t42 38t47.5 17.5
t45.5 4.5q57 0 94.5 -19.5t56.5 -54.5q8 -16 13.5 -33.5t8.5 -41.5t4 -56t1 -76v-24q0 -82 1.5 -128t4.5 -70.5t7.5 -35t10.5 -21.5l9 -17v0z" />
    <glyph glyph-name="Itilde" unicode="&#x128;" horiz-adv-x="313" 
d="M233 -1q-7 0 -18 1q-9 0 -23.5 0.5t-34.5 0.5t-35 -0.5t-24 -0.5q-11 -1 -18 -1l9 17l9 18t6.5 21.5t4.5 34.5t3 56.5t1.5 87.5t0.5 127q0 109 -1 169.5t-3.5 92t-7.5 45t-13 28.5l-9 17q7 -1 18 -1q9 -1 23.5 -1h34.5h34.5t24.5 1q11 0 18 1l-9 -17l-9 -18t-6.5 -21.5
t-4.5 -34.5t-3 -56.5t-1.5 -87.5t-0.5 -127q0 -109 1 -169.5t3.5 -92t7.5 -45t13 -28.5zM245 832q15 0 28 7t22.5 15t15 15.5t6.5 9.5q0 -55 -25 -81t-60 -26q-15 0 -28 3t-23 7l-58 21q-13 5 -20.5 6.5t-20.5 1.5q-15 0 -28 -7t-22.5 -15.5t-15 -16t-6.5 -9.5q0 56 25 82
t60 26q15 0 28 -3t23 -7l58 -21q13 -5 20.5 -6.5t20.5 -1.5z" />
    <glyph glyph-name="itilde" unicode="&#x129;" horiz-adv-x="291" 
d="M223 -1q-6 0 -17 1q-9 0 -23 0.5t-34 0.5t-34.5 -0.5t-23.5 -0.5q-11 -1 -17 -1l9 17q7 14 12 28t8 40.5t4 70t1 116.5v29q0 65 -2 105t-5 64t-7.5 37t-10.5 24l-9 17l124 25q-3 -19 -5 -55q-2 -31 -3 -83t-1 -133v-30q0 -69 1 -112t3.5 -70t7.5 -42.5t13 -30.5zM227 702
q15 0 28 7t22.5 15t15 15.5t6.5 9.5q0 -55 -25 -81t-60 -26q-15 0 -28 3t-23 7l-58 21q-13 5 -20.5 6.5t-20.5 1.5q-15 0 -28 -7t-22.5 -15.5t-15 -16t-6.5 -9.5q0 56 25 82t60 26q15 0 28 -3t23 -7l58 -21q13 -5 20.5 -6.5t20.5 -1.5z" />
    <glyph glyph-name="Imacron" unicode="&#x12a;" horiz-adv-x="313" 
d="M233 -1q-7 0 -18 1q-9 0 -23.5 0.5t-34.5 0.5t-35 -0.5t-24 -0.5q-11 -1 -18 -1l9 17l9 18t6.5 21.5t4.5 34.5t3 56.5t1.5 87.5t0.5 127q0 109 -1 169.5t-3.5 92t-7.5 45t-13 28.5l-9 17q7 -1 18 -1q9 -1 23.5 -1h34.5h34.5t24.5 1q11 0 18 1l-9 -17l-9 -18t-6.5 -21.5
t-4.5 -34.5t-3 -56.5t-1.5 -87.5t-0.5 -127q0 -109 1 -169.5t3.5 -92t7.5 -45t13 -28.5zM20 789v63h274v-63h-274z" />
    <glyph glyph-name="imacron" unicode="&#x12b;" horiz-adv-x="291" 
d="M223 -1q-6 0 -17 1q-9 0 -23 0.5t-34 0.5t-34.5 -0.5t-23.5 -0.5q-11 -1 -17 -1l9 17q7 14 12 28t8 40.5t4 70t1 116.5v29q0 65 -2 105t-5 64t-7.5 37t-10.5 24l-9 17l124 25q-3 -19 -5 -55q-2 -31 -3 -83t-1 -133v-30q0 -69 1 -112t3.5 -70t7.5 -42.5t13 -30.5zM9 660
v63h274v-63h-274z" />
    <glyph glyph-name="Ibreve" unicode="&#x12c;" horiz-adv-x="313" 
d="M233 -1q-7 0 -18 1q-9 0 -23.5 0.5t-34.5 0.5t-35 -0.5t-24 -0.5q-11 -1 -18 -1l9 17l9 18t6.5 21.5t4.5 34.5t3 56.5t1.5 87.5t0.5 127q0 109 -1 169.5t-3.5 92t-7.5 45t-13 28.5l-9 17q7 -1 18 -1q9 -1 23.5 -1h34.5h34.5t24.5 1q11 0 18 1l-9 -17l-9 -18t-6.5 -21.5
t-4.5 -34.5t-3 -56.5t-1.5 -87.5t-0.5 -127q0 -109 1 -169.5t3.5 -92t7.5 -45t13 -28.5zM17 914q26 -37 59.5 -63t80.5 -26t80.5 26t59.5 63q0 -33 -9 -61.5t-26.5 -50t-43.5 -33.5t-61 -12t-61 12t-43.5 33.5t-26.5 50t-9 61.5z" />
    <glyph glyph-name="ibreve" unicode="&#x12d;" horiz-adv-x="291" 
d="M223 -1q-6 0 -17 1q-9 0 -23 0.5t-34 0.5t-34.5 -0.5t-23.5 -0.5q-11 -1 -17 -1l9 17q7 14 12 28t8 40.5t4 70t1 116.5v29q0 65 -2 105t-5 64t-7.5 37t-10.5 24l-9 17l124 25q-3 -19 -5 -55q-2 -31 -3 -83t-1 -133v-30q0 -69 1 -112t3.5 -70t7.5 -42.5t13 -30.5zM6 785
q26 -37 59.5 -63t80.5 -26t80.5 26t59.5 63q0 -33 -9 -61.5t-26.5 -50t-43.5 -33.5t-61 -12t-61 12t-43.5 33.5t-26.5 50t-9 61.5z" />
    <glyph glyph-name="Iogonek" unicode="&#x12e;" horiz-adv-x="313" 
d="M56 -131q0 27 11 48.5t27 37.5t34 27.5t32 18.5h-3q-20 0 -35 -0.5t-24 -0.5q-11 -1 -18 -1l9 17l9 18t6.5 21.5t4.5 34.5t3 56.5t1.5 87.5t0.5 127q0 109 -1 169.5t-3.5 92t-7.5 45t-13 28.5l-9 17q7 -1 18 -1q9 -1 23.5 -1h34.5h34.5t24.5 1q11 0 18 1l-9 -17l-9 -18
t-6.5 -21.5t-4.5 -34.5t-3 -56.5t-1.5 -87.5t-0.5 -127q0 -109 1 -169.5t3.5 -92t7.5 -45t13 -28.5l9 -17q-44 -5 -71.5 -35.5t-27.5 -77.5q0 -30 21 -50.5t66 -26.5q-17 -10 -36 -15.5t-39 -5.5q-18 0 -34 4.5t-28.5 14.5t-20 25.5t-7.5 36.5z" />
    <glyph glyph-name="iogonek" unicode="&#x12f;" horiz-adv-x="291" 
d="M52 -131q0 27 11 48.5t27 37.5t34 27.5t32 18.5h-7q-20 0 -34.5 -0.5t-23.5 -0.5q-11 -1 -17 -1l9 17q7 14 12 28t8 40.5t4 70t1 116.5v29q0 65 -1.5 105t-5 64t-8 37t-10.5 24l-9 17l124 25q-3 -19 -5 -55q-2 -31 -3 -83t-1 -133v-30q0 -69 1 -112t3.5 -70t7.5 -42.5
t13 -30.5l9 -17q-20 -2 -36.5 -11t-29.5 -24.5t-20 -35.5t-7 -42q0 -30 21 -50.5t66 -26.5q-17 -10 -36 -15.5t-39 -5.5q-18 0 -34 4.5t-28.5 14.5t-20 25.5t-7.5 36.5zM207 716q0 -29 -16 -44.5t-44 -15.5q-26 0 -42.5 15t-16.5 42q0 29 16 44.5t44 15.5q26 0 42.5 -15
t16.5 -42z" />
    <glyph glyph-name="Idotaccent" unicode="&#x130;" horiz-adv-x="313" 
d="M233 -1q-7 0 -18 1q-9 0 -23.5 0.5t-34.5 0.5t-35 -0.5t-24 -0.5q-11 -1 -18 -1l9 17l9 18t6.5 21.5t4.5 34.5t3 56.5t1.5 87.5t0.5 127q0 109 -1 169.5t-3.5 92t-7.5 45t-13 28.5l-9 17q7 -1 18 -1q9 -1 23.5 -1h34.5h34.5t24.5 1q11 0 18 1l-9 -17l-9 -18t-6.5 -21.5
t-4.5 -34.5t-3 -56.5t-1.5 -87.5t-0.5 -127q0 -109 1 -169.5t3.5 -92t7.5 -45t13 -28.5zM216 830q0 -29 -16 -44.5t-44 -15.5q-26 0 -42.5 15t-16.5 42q0 29 16 44.5t44 15.5q26 0 42.5 -15t16.5 -42z" />
    <glyph glyph-name="dotlessi" unicode="&#x131;" horiz-adv-x="291" 
d="M223 -1q-6 0 -17 1q-9 0 -23 0.5t-34 0.5t-34.5 -0.5t-23.5 -0.5q-11 -1 -17 -1l9 17q7 14 12 28t8 40.5t4 70t1 116.5v29q0 65 -2 105t-5 64t-7.5 37t-10.5 24l-9 17l124 25q-3 -19 -5 -55q-2 -31 -3 -83t-1 -133v-30q0 -69 1 -112t3.5 -70t7.5 -42.5t13 -30.5l9 -17v0z
" />
    <glyph glyph-name="IJ" unicode="&#x132;" horiz-adv-x="632" 
d="M233 -1q-7 0 -18 1q-9 0 -23.5 0.5t-34.5 0.5t-35 -0.5t-24 -0.5q-11 -1 -18 -1l9 17l9 18t6.5 21.5t4.5 34.5t3 56.5t1.5 87.5t0.5 127q0 109 -1 169.5t-3.5 92t-7.5 45t-13 28.5l-9 17q7 -1 18 -1q9 -1 23.5 -1h34.5h34.5t24.5 1q11 0 18 1l-9 -17l-9 -18t-6.5 -21.5
t-4.5 -34.5t-3 -56.5t-1.5 -87.5t-0.5 -127q0 -109 1 -169.5t3.5 -92t7.5 -45t13 -28.5zM548 696q-5 -9 -9 -17.5t-6.5 -22t-4.5 -35t-3 -57t-1.5 -87.5t-0.5 -127v-393q0 -30 -3 -60.5t-17.5 -55t-44.5 -39.5t-84 -15h-16q29 14 45 34.5t24 49.5t9.5 68t1.5 91v330
q0 109 -1 169.5t-3.5 92.5t-7.5 45.5t-13 28.5l-9 17q7 -1 18 -1q9 -1 23.5 -1h34.5h34.5t24.5 1q11 0 18 1z" />
    <glyph glyph-name="ij" unicode="&#x133;" horiz-adv-x="565" 
d="M207 716q0 -29 -16 -44.5t-44 -15.5q-26 0 -42.5 15t-16.5 42q0 29 16 44.5t44 15.5q26 0 42.5 -15t16.5 -42zM223 -1q-6 0 -17 1q-9 0 -23 0.5t-34 0.5t-34.5 -0.5t-23.5 -0.5q-11 -1 -17 -1l9 17q7 14 12 28t8 40.5t4 70t1 116.5v29q0 65 -1.5 105t-5 64t-8 37
t-10.5 24l-9 17l124 25q-3 -19 -5 -55q-2 -31 -3 -83t-1 -133v-30q0 -69 1 -112t3.5 -70t7.5 -42.5t13 -30.5zM495 716q0 -29 -16 -44.5t-44 -15.5q-26 0 -42.5 15t-16.5 42q0 29 16 44.5t44 15.5q26 0 42.5 -15t16.5 -42zM486 572q-3 -19 -5 -55q-2 -31 -3 -83t-1 -133
v-344q0 -30 -2.5 -60.5t-16.5 -55t-43 -39.5t-83 -15h-16q29 14 45 34.5t24 49.5t9.5 68t1.5 91v270q0 65 -1.5 105t-5 64t-8 37t-10.5 24l-9 17z" />
    <glyph glyph-name="Jcircumflex" unicode="&#x134;" horiz-adv-x="319" 
d="M235 696q-5 -9 -9 -17.5t-6.5 -22t-4.5 -35t-3 -57t-1.5 -87.5t-0.5 -127v-393q0 -30 -3 -60.5t-17.5 -55t-44.5 -39.5t-84 -15h-16q29 14 45 34.5t24 49.5t9.5 68t1.5 91v330q0 109 -1 169.5t-3.5 92.5t-7.5 45.5t-13 28.5l-9 17q7 -1 18 -1q9 -1 23.5 -1h34.5h34.5
t24.5 1q11 0 18 1zM335 752q-48 3 -93 23t-69 51q-35 -38 -77.5 -54.5t-84.5 -19.5l137 146h51z" />
    <glyph glyph-name="jcircumflex" unicode="&#x135;" horiz-adv-x="274" 
d="M195 572q-3 -19 -5 -55q-2 -31 -3 -83t-1 -133v-344q0 -30 -2.5 -60.5t-16.5 -55t-43 -39.5t-83 -15h-16q29 14 45 34.5t24 49.5t9.5 68t1.5 91v270q0 65 -1.5 105t-5 64t-8 37t-10.5 24l-9 17zM303 623q-48 3 -93 23t-69 51q-35 -38 -77.5 -54.5t-84.5 -19.5l137 146h51
z" />
    <glyph glyph-name="Kcommaaccent" unicode="&#x136;" horiz-adv-x="615" 
d="M625 713q-17 -11 -55 -47t-113 -112l-171 -174l169 -207q38 -47 65 -77.5t46.5 -50t32.5 -30t24 -16.5h-21q-11 0 -26 0.5t-34 0.5h-65l-279 359q0 -73 0.5 -124t1.5 -85.5t2.5 -56t4.5 -35.5t7 -23t9 -19l9 -17q-6 0 -17 1q-9 0 -23.5 0.5t-34.5 0.5t-35 -0.5t-24 -0.5
q-11 -1 -18 -1l9 17q5 9 9 17.5t6.5 22t4.5 34.5t3 56.5t1.5 87.5t0.5 127q0 109 -1 169.5t-3.5 92t-7.5 45t-13 28.5l-9 17q7 -1 18 -1q9 -1 23.5 -1h34.5h34.5t23.5 1q11 0 18 1l-9 -17q-5 -9 -8.5 -17.5t-6.5 -21.5t-5 -33.5t-3 -54t-1.5 -82t-0.5 -118.5l168 184
q25 27 41.5 45.5t26.5 32t14 23.5t4 21q0 23 -21 38q10 -1 24 -1q11 -1 27.5 -1h36.5h45.5t33.5 1q16 0 27 1zM387 -111q0 -20 -7.5 -40t-22.5 -36.5t-37 -28.5t-50 -16q1 0 8 6t15.5 16.5t15 24.5t6.5 31q0 16 -5.5 25t-12.5 14q-8 5 -17 7v17q0 45 48 53q26 -5 42.5 -21.5
t16.5 -51.5z" />
    <glyph glyph-name="kcommaaccent" unicode="&#x137;" horiz-adv-x="543" 
d="M528 -1q-10 0 -25 0.5t-35 0.5h-59l-226 283q0 -74 1 -119.5t3.5 -73.5t7.5 -43.5t13 -30.5l9 -17q-6 0 -17 1q-9 0 -23 0.5t-34 0.5t-34.5 -0.5t-23.5 -0.5q-11 -1 -17 -1l9 17q7 14 12 28t8 40.5t4 70t1 116.5v218q0 69 -1 112t-3.5 69.5t-7.5 42.5t-13 31l-9 17
l118 26q-1 -33 -2 -68q-1 -30 -1 -68v-76v-277l100 107q26 28 43 46.5t27.5 32t14.5 23t4 20.5q0 23 -21 38q8 -1 19 -1q10 -1 25 -1h35h46.5t34.5 1q16 0 27 1q-9 -6 -23 -17t-35 -30t-49.5 -46.5t-66.5 -65.5l-98 -98l110 -135q38 -47 65.5 -78t47.5 -50.5t34 -29.5
t25 -16h-20zM345 -111q0 -20 -7.5 -40t-22.5 -36.5t-37 -28.5t-50 -16q1 0 8 6t15.5 16.5t15 24.5t6.5 31q0 16 -5.5 25t-12.5 14q-8 5 -17 7v17q0 45 48 53q26 -5 42.5 -21.5t16.5 -51.5z" />
    <glyph glyph-name="kgreenlandic" unicode="&#x138;" horiz-adv-x="549" 
d="M534 -1q-10 0 -25 0.5t-35 0.5h-59l-226 278q0 -82 1.5 -129t5 -73t8 -37.5t10.5 -22.5l9 -17q-6 0 -17 1q-9 0 -23 0.5t-34 0.5t-34.5 -0.5t-23.5 -0.5q-11 -1 -17 -1l9 17q6 11 10.5 21.5t8 35t5 70.5t1.5 128v29q0 65 -1.5 105t-5 64t-8 37t-10.5 24l-9 17l119 25
l-4 -122v-157l100 110q26 28 43 47t27.5 32.5t14.5 23.5t4 21q0 23 -21 38q8 -1 19 -1q10 -1 25 -1h35h46.5t34.5 1q16 0 27 1q-9 -6 -23 -17.5t-35 -31t-49.5 -47t-66.5 -65.5l-98 -101l110 -132q38 -47 65.5 -78t47.5 -50t34 -28.5t25 -15.5h-20z" />
    <glyph glyph-name="Lacute" unicode="&#x139;" horiz-adv-x="484" 
d="M454 113q-2 -14 -4 -35t-4 -50l-2 -28h-287q-20 0 -35 -0.5t-24 -0.5h-18l9 17l9 18t6.5 21.5t4.5 34.5t3 56.5t1.5 87.5t0.5 127q0 109 -1 169.5t-3.5 92t-7.5 45t-13 28.5l-9 17q7 -1 18 -1q9 -1 23.5 -1h34.5h34.5t24.5 1q11 0 19 1l-9 -17l-9 -18t-6.5 -21.5
t-4.5 -34.5t-3 -56.5t-1.5 -87.5t-0.5 -127v-294h80q46 0 74.5 5.5t46.5 16t30 26t26 35.5zM189 898h97q-5 -11 -15 -25q-8 -12 -23.5 -28t-39.5 -36q-23 -18 -42 -29t-33 -17q-17 -7 -29 -10z" />
    <glyph glyph-name="lacute" unicode="&#x13a;" horiz-adv-x="285" 
d="M217 -1q-6 0 -17 1q-9 0 -23 0.5t-34 0.5t-34.5 -0.5t-23.5 -0.5q-11 -1 -17 -1l9 17q7 14 12 28t8 40.5t4 70t1 116.5v218q0 69 -1 112t-3.5 69.5t-7.5 42.5t-13 31l-9 17l118 26q-1 -33 -2 -68q-1 -30 -1 -68v-76v-304q0 -69 1 -112t3.5 -70t7.5 -42.5t13 -30.5z
M161 958h97q-5 -11 -15 -25q-8 -12 -23.5 -28t-39.5 -36q-23 -18 -42 -29t-33 -17q-17 -7 -29 -10z" />
    <glyph glyph-name="Lcommaaccent" unicode="&#x13b;" horiz-adv-x="484" 
d="M454 113q-2 -14 -4 -35t-4 -50l-2 -28h-287q-20 0 -35 -0.5t-24 -0.5h-18l9 17l9 18t6.5 21.5t4.5 34.5t3 56.5t1.5 87.5t0.5 127q0 109 -1 169.5t-3.5 92t-7.5 45t-13 28.5l-9 17q7 -1 18 -1q9 -1 23.5 -1h34.5h34.5t24.5 1q11 0 19 1l-9 -17l-9 -18t-6.5 -21.5
t-4.5 -34.5t-3 -56.5t-1.5 -87.5t-0.5 -127v-294h80q46 0 74.5 5.5t46.5 16t30 26t26 35.5zM317 -111q0 -20 -7.5 -40t-22.5 -36.5t-37 -28.5t-50 -16q1 0 8 6t15.5 16.5t15 24.5t6.5 31q0 16 -5.5 25t-12.5 14q-8 5 -17 7v17q0 45 48 53q26 -5 42.5 -21.5t16.5 -51.5z" />
    <glyph glyph-name="lcommaaccent" unicode="&#x13c;" horiz-adv-x="285" 
d="M217 -1q-6 0 -17 1q-9 0 -23 0.5t-34 0.5t-34.5 -0.5t-23.5 -0.5q-11 -1 -17 -1l9 17q7 14 12 28t8 40.5t4 70t1 116.5v218q0 69 -1 112t-3.5 69.5t-7.5 42.5t-13 31l-9 17l118 26q-1 -33 -2 -68q-1 -30 -1 -68v-76v-304q0 -69 1 -112t3.5 -70t7.5 -42.5t13 -30.5z
M195 -111q0 -20 -7.5 -40t-22.5 -36.5t-37 -28.5t-50 -16q1 0 8 6t15.5 16.5t15 24.5t6.5 31q0 16 -5.5 25t-12.5 14q-8 5 -17 7v17q0 45 48 53q26 -5 42.5 -21.5t16.5 -51.5z" />
    <glyph glyph-name="Lcaron" unicode="&#x13d;" horiz-adv-x="484" 
d="M454 113q-2 -14 -4 -35t-4 -50l-2 -28h-287q-20 0 -35 -0.5t-24 -0.5h-18l9 17l9 18t6.5 21.5t4.5 34.5t3 56.5t1.5 87.5t0.5 127q0 109 -1 169.5t-3.5 92t-7.5 45t-13 28.5l-9 17q7 -1 18 -1q9 -1 23.5 -1h34.5h34.5t24.5 1q11 0 19 1l-9 -17l-9 -18t-6.5 -21.5
t-4.5 -34.5t-3 -56.5t-1.5 -87.5t-0.5 -127v-294h80q46 0 74.5 5.5t46.5 16t30 26t26 35.5zM274 544q7 26 10.5 53.5t3.5 53.5t-2 48.5t-5 38.5l86 11q2 -29 -1 -58t-14 -55.5t-30 -50t-48 -41.5z" />
    <glyph glyph-name="lcaron" unicode="&#x13e;" horiz-adv-x="285" 
d="M217 -1q-6 0 -17 1q-9 0 -23 0.5t-34 0.5t-34.5 -0.5t-23.5 -0.5q-11 -1 -17 -1l9 17q7 14 12 28t8 40.5t4 70t1 116.5v218q0 69 -1 112t-3.5 69.5t-7.5 42.5t-13 31l-9 17l118 26q-1 -33 -2 -68q-1 -30 -1 -68v-76v-304q0 -69 1 -112t3.5 -70t7.5 -42.5t13 -30.5z
M231 604q7 26 10.5 53.5t3.5 53.5t-2 48.5t-5 38.5l86 11q2 -29 -1 -58t-14 -55.5t-30 -50t-48 -41.5z" />
    <glyph glyph-name="Ldot" unicode="&#x13f;" horiz-adv-x="484" 
d="M454 113q-2 -14 -4 -35t-4 -50l-2 -28h-287q-20 0 -35 -0.5t-24 -0.5h-18l9 17l9 18t6.5 21.5t4.5 34.5t3 56.5t1.5 87.5t0.5 127q0 109 -1 169.5t-3.5 92t-7.5 45t-13 28.5l-9 17q7 -1 18 -1q9 -1 23.5 -1h34.5h34.5t24.5 1q11 0 19 1l-9 -17l-9 -18t-6.5 -21.5
t-4.5 -34.5t-3 -56.5t-1.5 -87.5t-0.5 -127v-294h80q46 0 74.5 5.5t46.5 16t30 26t26 35.5zM461 434q0 -29 -16 -44.5t-44 -15.5q-26 0 -42.5 15t-16.5 42q0 29 16 44.5t44 15.5q26 0 42.5 -15t16.5 -42z" />
    <glyph glyph-name="ldot" unicode="&#x140;" horiz-adv-x="392" 
d="M217 -1q-6 0 -17 1q-9 0 -23 0.5t-34 0.5t-34.5 -0.5t-23.5 -0.5q-11 -1 -17 -1l9 17q7 14 12 28t8 40.5t4 70t1 116.5v218q0 69 -1 112t-3.5 69.5t-7.5 42.5t-13 31l-9 17l118 26q-1 -33 -2 -68q-1 -30 -1 -68v-76v-304q0 -69 1 -112t3.5 -70t7.5 -42.5t13 -30.5z
M402 389q0 -29 -16 -44.5t-44 -15.5q-26 0 -42.5 15t-16.5 42q0 29 16 44.5t44 15.5q26 0 42.5 -15t16.5 -42z" />
    <glyph glyph-name="Lslash" unicode="&#x141;" horiz-adv-x="490" 
d="M460 113q-2 -14 -4 -35t-4 -50l-2 -28h-287q-20 0 -35 -0.5t-24 -0.5h-18l9 17q7 13 11.5 25t7.5 38.5t4.5 74.5t1.5 134q-21 -11 -34.5 -19.5t-21.5 -13.5q-9 -6 -13 -11q-1 4 -3 8l-5 10l-7 14q-4 7 -6.5 13t-4.5 10q-3 4 -5 8q7 0 20 4q11 3 28.5 10t43.5 20l8 4v16
q0 109 -1 169.5t-3.5 92t-7.5 45t-13 28.5l-9 17q7 -1 18 -1q9 -1 23.5 -1h34.5h34.5t24.5 1q11 0 19 1l-9 -17q-7 -14 -12 -27t-8 -43t-4 -85.5t-1 -153.5l70 35q26 13 42.5 22.5t25.5 16.5q11 8 16 14q2 -5 4 -9q3 -9 10 -23q4 -8 7.5 -13.5t5.5 -9.5q3 -4 4 -8
q-9 -1 -21 -5q-11 -4 -28 -10.5t-43 -19.5l-93 -46v-274h80q46 0 74.5 5.5t46.5 16t30 26t26 35.5z" />
    <glyph glyph-name="lslash" unicode="&#x142;" horiz-adv-x="362" 
d="M255 -1q-6 0 -17 1q-9 0 -23 0.5t-34 0.5t-34.5 -0.5t-23.5 -0.5q-11 -1 -17 -1l9 17q7 14 12 28t8 40.5t4 70t1 116.5v87l-15 -8q-45 -26 -62 -40q-11 -8 -15 -14q-1 4 -4 8q-2 4 -5 9t-7 13q-5 7 -8 12.5t-5 9.5q-3 4 -4 7q8 2 19 6q10 4 26 11.5t40 21.5l40 23v72
q0 69 -1 112t-3.5 69.5t-7.5 42.5t-13 31l-9 17l118 26q-1 -33 -2 -68q-1 -30 -1 -68v-76v-118l22 13q23 13 38 23t24 17q10 8 15 14q1 -4 4 -8q2 -4 4.5 -9.5t7.5 -12.5q4 -8 7.5 -13t5.5 -9q3 -4 4 -7q-8 -2 -19 -6q-10 -4 -26.5 -11.5t-39.5 -21.5l-47 -27v-128
q0 -69 1 -112t3.5 -70t7.5 -42.5t13 -30.5l9 -17v0z" />
    <glyph glyph-name="Nacute" unicode="&#x143;" horiz-adv-x="735" 
d="M653 696q-5 -9 -8.5 -17t-6 -21.5t-4 -35t-3 -57t-2 -87.5t-0.5 -127l-1 -353q-7 0 -15 1q-7 1 -17 1.5t-22 0.5q-15 0 -25.5 -0.5t-18.5 -1.5q-9 -1 -14 -1l-308 576q-6 11 -11 23t-9 23q-4 12 -7 25v-294q0 -109 1 -169.5t3.5 -92t7.5 -45t13 -28.5l9 -17q-7 0 -17 1
q-9 0 -22 0.5t-30 0.5t-29.5 -0.5t-20.5 -0.5q-10 -1 -16 -1l9 17q5 9 8.5 17t6.5 21.5t5 35t3 57t1.5 87.5t0.5 127q0 109 -1 169.5t-3.5 92t-7.5 45t-13 28.5l-9 17q6 -1 17 -1q9 -1 24 -1h37h30.5t21.5 1q10 0 16 1l307 -575q8 -14 12.5 -27t8.5 -23q4 -11 7 -21v294
q0 109 -1 169.5t-3.5 92t-7.5 45t-13 28.5l-9 17q6 -1 17 -1q8 -1 21.5 -1h30.5h29.5t20.5 1q10 0 16 1zM404 898h97q-5 -11 -15 -25q-8 -12 -23.5 -28t-39.5 -36q-23 -18 -42 -29t-33 -17q-17 -7 -29 -10z" />
    <glyph glyph-name="nacute" unicode="&#x144;" horiz-adv-x="630" 
d="M562 -1q-6 0 -17 1q-9 0 -23.5 0.5t-34.5 0.5t-34 -0.5t-23 -0.5q-11 -1 -17 -1l9 17q6 11 10.5 21.5t8 35t5 70t1.5 127.5q0 81 -4 126.5t-19 69.5q-11 18 -33.5 33t-68.5 15q-44 0 -70 -11t-40 -25q-17 -16 -23 -35v-172q0 -82 1.5 -128t5 -70.5t8 -35t10.5 -21.5
l9 -17q-6 0 -17 1q-9 0 -23 0.5t-34 0.5t-34.5 -0.5t-23.5 -0.5q-11 -1 -17 -1l9 17q6 11 10.5 21.5t8 35t5 70.5t1.5 128v29q0 65 -1.5 105t-5 64t-8 37t-10.5 24l-9 17l115 25l-4 -122q9 40 27.5 65t42 38.5t48.5 18t47 4.5q57 0 94.5 -19.5t56.5 -54.5q8 -16 13.5 -33.5
t8.5 -41.5t4 -56t1 -76v-24q0 -82 1.5 -128t5 -70.5t8 -35t10.5 -21.5zM351 769h97q-5 -11 -15 -25q-8 -12 -23.5 -28t-39.5 -36q-23 -18 -42 -29t-33 -17q-17 -7 -29 -10z" />
    <glyph glyph-name="Ncommaaccent" unicode="&#x145;" horiz-adv-x="735" 
d="M653 696q-5 -9 -8.5 -17t-6 -21.5t-4 -35t-3 -57t-2 -87.5t-0.5 -127l-1 -353q-7 0 -15 1q-7 1 -17 1.5t-22 0.5q-15 0 -25.5 -0.5t-18.5 -1.5q-9 -1 -14 -1l-308 576q-6 11 -11 23t-9 23q-4 12 -7 25v-294q0 -109 1 -169.5t3.5 -92t7.5 -45t13 -28.5l9 -17q-7 0 -17 1
q-9 0 -22 0.5t-30 0.5t-29.5 -0.5t-20.5 -0.5q-10 -1 -16 -1l9 17q5 9 8.5 17t6.5 21.5t5 35t3 57t1.5 87.5t0.5 127q0 109 -1 169.5t-3.5 92t-7.5 45t-13 28.5l-9 17q6 -1 17 -1q9 -1 24 -1h37h30.5t21.5 1q10 0 16 1l307 -575q8 -14 12.5 -27t8.5 -23q4 -11 7 -21v294
q0 109 -1 169.5t-3.5 92t-7.5 45t-13 28.5l-9 17q6 -1 17 -1q8 -1 21.5 -1h30.5h29.5t20.5 1q10 0 16 1zM419 -111q0 -20 -7.5 -40t-22.5 -36.5t-37 -28.5t-50 -16q1 0 8 6t15.5 16.5t15 24.5t6.5 31q0 16 -5.5 25t-12.5 14q-8 5 -17 7v17q0 45 48 53q26 -5 42.5 -21.5
t16.5 -51.5z" />
    <glyph glyph-name="ncommaaccent" unicode="&#x146;" horiz-adv-x="630" 
d="M562 -1q-6 0 -17 1q-9 0 -23.5 0.5t-34.5 0.5t-34 -0.5t-23 -0.5q-11 -1 -17 -1l9 17q6 11 10.5 21.5t8 35t5 70t1.5 127.5q0 81 -4 126.5t-19 69.5q-11 18 -33.5 33t-68.5 15q-44 0 -70 -11t-40 -25q-17 -16 -23 -35v-172q0 -82 1.5 -128t5 -70.5t8 -35t10.5 -21.5
l9 -17q-6 0 -17 1q-9 0 -23 0.5t-34 0.5t-34.5 -0.5t-23.5 -0.5q-11 -1 -17 -1l9 17q6 11 10.5 21.5t8 35t5 70.5t1.5 128v29q0 65 -1.5 105t-5 64t-8 37t-10.5 24l-9 17l115 25l-4 -122q9 40 27.5 65t42 38.5t48.5 18t47 4.5q57 0 94.5 -19.5t56.5 -54.5q8 -16 13.5 -33.5
t8.5 -41.5t4 -56t1 -76v-24q0 -82 1.5 -128t5 -70.5t8 -35t10.5 -21.5zM373 -111q0 -20 -7.5 -40t-22.5 -36.5t-37 -28.5t-50 -16q1 0 8 6t15.5 16.5t15 24.5t6.5 31q0 16 -5.5 25t-12.5 14q-8 5 -17 7v17q0 45 48 53q26 -5 42.5 -21.5t16.5 -51.5z" />
    <glyph glyph-name="Ncaron" unicode="&#x147;" horiz-adv-x="735" 
d="M653 696q-5 -9 -8.5 -17t-6 -21.5t-4 -35t-3 -57t-2 -87.5t-0.5 -127l-1 -353q-7 0 -15 1q-7 1 -17 1.5t-22 0.5q-15 0 -25.5 -0.5t-18.5 -1.5q-9 -1 -14 -1l-308 576q-6 11 -11 23t-9 23q-4 12 -7 25v-294q0 -109 1 -169.5t3.5 -92t7.5 -45t13 -28.5l9 -17q-7 0 -17 1
q-9 0 -22 0.5t-30 0.5t-29.5 -0.5t-20.5 -0.5q-10 -1 -16 -1l9 17q5 9 8.5 17t6.5 21.5t5 35t3 57t1.5 87.5t0.5 127q0 109 -1 169.5t-3.5 92t-7.5 45t-13 28.5l-9 17q6 -1 17 -1q9 -1 24 -1h37h30.5t21.5 1q10 0 16 1l307 -575q8 -14 12.5 -27t8.5 -23q4 -11 7 -21v294
q0 109 -1 169.5t-3.5 92t-7.5 45t-13 28.5l-9 17q6 -1 17 -1q8 -1 21.5 -1h30.5h29.5t20.5 1q10 0 16 1zM511 913q-41 -38 -74.5 -77t-65.5 -84h-5l-80 77q-8 8 -24 23t-27 23l61 47q7 -11 15.5 -23t16.5 -23l29 -39q11 14 27.5 28t36 25.5t42.5 17.5t48 5z" />
    <glyph glyph-name="ncaron" unicode="&#x148;" horiz-adv-x="630" 
d="M562 -1q-6 0 -17 1q-9 0 -23.5 0.5t-34.5 0.5t-34 -0.5t-23 -0.5q-11 -1 -17 -1l9 17q6 11 10.5 21.5t8 35t5 70t1.5 127.5q0 81 -4 126.5t-19 69.5q-11 18 -33.5 33t-68.5 15q-44 0 -70 -11t-40 -25q-17 -16 -23 -35v-172q0 -82 1.5 -128t5 -70.5t8 -35t10.5 -21.5
l9 -17q-6 0 -17 1q-9 0 -23 0.5t-34 0.5t-34.5 -0.5t-23.5 -0.5q-11 -1 -17 -1l9 17q6 11 10.5 21.5t8 35t5 70.5t1.5 128v29q0 65 -1.5 105t-5 64t-8 37t-10.5 24l-9 17l115 25l-4 -122q9 40 27.5 65t42 38.5t48.5 18t47 4.5q57 0 94.5 -19.5t56.5 -54.5q8 -16 13.5 -33.5
t8.5 -41.5t4 -56t1 -76v-24q0 -82 1.5 -128t5 -70.5t8 -35t10.5 -21.5zM434 769q-20 -19 -36.5 -36t-31.5 -34t-29 -35.5t-30 -40.5h-5l-68 63q-8 8 -24.5 23t-27.5 23l57 47q7 -11 15.5 -23t18.5 -23l25 -28q23 28 54.5 48.5t81.5 15.5z" />
    <glyph glyph-name="napostrophe" unicode="&#x149;" horiz-adv-x="717" 
d="M649 -1q-6 0 -17 1q-9 0 -23.5 0.5t-34.5 0.5t-34 -0.5t-23 -0.5q-11 -1 -17 -1l9 17q6 11 10.5 21.5t8 35t5 70t1.5 127.5q0 81 -4 126.5t-19 69.5q-11 18 -33.5 33t-68.5 15q-44 0 -70 -11t-40 -25q-17 -16 -23 -35v-172q0 -82 1.5 -128t5 -70.5t8 -35t10.5 -21.5
l9 -17q-6 0 -17 1q-9 0 -23 0.5t-34 0.5t-34.5 -0.5t-23.5 -0.5q-11 -1 -17 -1l9 17q6 11 10.5 21.5t8 35t5 70.5t1.5 128v29q0 65 -1.5 105t-5 64t-8 37t-10.5 24l-9 17l115 25l-4 -122q9 40 27.5 65t42 38.5t48.5 18t47 4.5q57 0 94.5 -19.5t56.5 -54.5q8 -16 13.5 -33.5
t8.5 -41.5t4 -56t1 -76v-24q0 -82 1.5 -128t5 -70.5t8 -35t10.5 -21.5zM138 627q0 -42 -13.5 -70.5t-33.5 -45.5t-43.5 -24.5t-42.5 -7.5q1 0 9 5.5t17 18t16 34t7 54.5q0 24 -6.5 41.5t-14.5 28.5q-10 13 -21 21l63 64q17 -10 31 -27q12 -14 22 -37t10 -55z" />
    <glyph glyph-name="Eng" unicode="&#x14a;" horiz-adv-x="727" 
d="M199 351q0 -109 1 -169.5t3.5 -92t7.5 -45t13 -28.5l9 -17q-7 0 -18 1q-9 0 -23.5 0.5t-34.5 0.5t-35 -0.5t-24 -0.5q-11 -1 -18 -1l9 17l9 18t6.5 21.5t4.5 34.5t3 56.5t1.5 87.5t0.5 127v81q0 65 -1.5 105t-5 64t-8 37t-10.5 24l-9 17l124 25l-5 -124q12 37 34 62
t50 40t60 21t64 6q69 0 111.5 -18t66.5 -50q23 -29 31.5 -71t8.5 -103v-520q0 -30 -4 -60.5t-19 -55t-45.5 -39.5t-84.5 -15h-16q29 14 44.5 34.5t23 49.5t9 68t1.5 91v431q0 45 -5 80.5t-22 60t-48.5 37.5t-84.5 13q-52 0 -85.5 -11.5t-53 -25.5t-27.5 -26.5t-9 -15.5v-222
v0z" />
    <glyph glyph-name="eng" unicode="&#x14b;" horiz-adv-x="626" 
d="M528 -43q0 -30 -2.5 -60.5t-16.5 -55t-43 -39.5t-83 -15h-16q29 14 45 34.5t24 49.5t9.5 68t1.5 91v240q0 81 -4 126.5t-19 69.5q-11 18 -33.5 33t-68.5 15q-44 0 -70 -11t-40 -25q-17 -16 -23 -35v-172q0 -82 1.5 -128t5 -70.5t8 -35t10.5 -21.5l9 -17q-6 0 -17 1
q-9 0 -23 0.5t-34 0.5t-34.5 -0.5t-23.5 -0.5q-11 -1 -17 -1l9 17q6 11 10.5 21.5t8 35t5 70.5t1.5 128v29q0 65 -1.5 105t-5 64t-8 37t-10.5 24l-9 17l115 25l-4 -122q9 40 27.5 65t42 38.5t48.5 18t47 4.5q57 0 94.5 -19.5t56.5 -54.5q8 -16 13.5 -33.5t8.5 -41.5t4 -56
t1 -76v-338v0z" />
    <glyph glyph-name="Omacron" unicode="&#x14c;" horiz-adv-x="749" 
d="M689 370q0 -17 -1.5 -51.5t-10.5 -77t-28 -87.5t-54 -82t-89 -60.5t-132 -23.5q-75 0 -133.5 25.5t-98.5 72t-61 110.5t-21 142q0 17 1.5 51.5t10.5 77t28 87.5t54 82t89 60.5t132 23.5q75 0 133.5 -25.5t98.5 -72t61 -110.5t21 -142zM594 358q0 87 -18.5 145t-49 93
t-70.5 49.5t-82 14.5q-41 0 -80.5 -15t-70 -51t-49.5 -95.5t-19 -148.5q0 -87 18.5 -145t49 -93t70.5 -49.5t82 -14.5q41 0 80.5 15t70 51t49.5 95.5t19 148.5zM247 789v63h274v-63h-274z" />
    <glyph glyph-name="omacron" unicode="&#x14d;" horiz-adv-x="621" 
d="M566 288q0 -23 -3.5 -54.5t-13.5 -65t-28.5 -66t-47.5 -58t-70.5 -41.5t-98.5 -16q-63 0 -110 22t-77.5 61t-46 91.5t-15.5 113.5q0 23 3.5 54.5t13.5 65t28.5 66t47.5 58t70.5 41.5t98.5 16q63 0 110 -22t77.5 -61t46 -91.5t15.5 -113.5zM474 282q0 51 -8.5 94t-28 75
t-51 50t-77.5 18q-85 0 -123.5 -61.5t-38.5 -176.5q0 -51 8.5 -94t28 -75t51 -50t77.5 -18q85 0 123.5 61.5t38.5 176.5zM173 660v63h274v-63h-274z" />
    <glyph glyph-name="Obreve" unicode="&#x14e;" horiz-adv-x="749" 
d="M689 370q0 -17 -1.5 -51.5t-10.5 -77t-28 -87.5t-54 -82t-89 -60.5t-132 -23.5q-75 0 -133.5 25.5t-98.5 72t-61 110.5t-21 142q0 17 1.5 51.5t10.5 77t28 87.5t54 82t89 60.5t132 23.5q75 0 133.5 -25.5t98.5 -72t61 -110.5t21 -142zM594 358q0 87 -18.5 145t-49 93
t-70.5 49.5t-82 14.5q-41 0 -80.5 -15t-70 -51t-49.5 -95.5t-19 -148.5q0 -87 18.5 -145t49 -93t70.5 -49.5t82 -14.5q41 0 80.5 15t70 51t49.5 95.5t19 148.5zM241 914q26 -37 59.5 -63t80.5 -26t80.5 26t59.5 63q0 -33 -9 -61.5t-26.5 -50t-43.5 -33.5t-61 -12t-61 12
t-43.5 33.5t-26.5 50t-9 61.5z" />
    <glyph glyph-name="obreve" unicode="&#x14f;" horiz-adv-x="621" 
d="M566 288q0 -23 -3.5 -54.5t-13.5 -65t-28.5 -66t-47.5 -58t-70.5 -41.5t-98.5 -16q-63 0 -110 22t-77.5 61t-46 91.5t-15.5 113.5q0 23 3.5 54.5t13.5 65t28.5 66t47.5 58t70.5 41.5t98.5 16q63 0 110 -22t77.5 -61t46 -91.5t15.5 -113.5zM474 282q0 51 -8.5 94t-28 75
t-51 50t-77.5 18q-85 0 -123.5 -61.5t-38.5 -176.5q0 -51 8.5 -94t28 -75t51 -50t77.5 -18q85 0 123.5 61.5t38.5 176.5zM170 785q26 -37 59.5 -63t80.5 -26t80.5 26t59.5 63q0 -33 -9 -61.5t-26.5 -50t-43.5 -33.5t-61 -12t-61 12t-43.5 33.5t-26.5 50t-9 61.5z" />
    <glyph glyph-name="Ohungarumlaut" unicode="&#x150;" horiz-adv-x="749" 
d="M689 370q0 -17 -1.5 -51.5t-10.5 -77t-28 -87.5t-54 -82t-89 -60.5t-132 -23.5q-75 0 -133.5 25.5t-98.5 72t-61 110.5t-21 142q0 17 1.5 51.5t10.5 77t28 87.5t54 82t89 60.5t132 23.5q75 0 133.5 -25.5t98.5 -72t61 -110.5t21 -142zM594 358q0 87 -18.5 145t-49 93
t-70.5 49.5t-82 14.5q-41 0 -80.5 -15t-70 -51t-49.5 -95.5t-19 -148.5q0 -87 18.5 -145t49 -93t70.5 -49.5t82 -14.5q41 0 80.5 15t70 51t49.5 95.5t19 148.5zM334 898h97q-5 -11 -15 -25q-8 -12 -23.5 -28t-39.5 -36q-23 -18 -42 -29t-33 -17q-17 -7 -29 -10zM503 898h97
q-5 -11 -15 -25q-8 -12 -23.5 -28t-39.5 -36q-23 -18 -42 -29t-33 -17q-17 -7 -29 -10z" />
    <glyph glyph-name="ohungarumlaut" unicode="&#x151;" horiz-adv-x="621" 
d="M566 288q0 -23 -3.5 -54.5t-13.5 -65t-28.5 -66t-47.5 -58t-70.5 -41.5t-98.5 -16q-63 0 -110 22t-77.5 61t-46 91.5t-15.5 113.5q0 23 3.5 54.5t13.5 65t28.5 66t47.5 58t70.5 41.5t98.5 16q63 0 110 -22t77.5 -61t46 -91.5t15.5 -113.5zM474 282q0 51 -8.5 94t-28 75
t-51 50t-77.5 18q-85 0 -123.5 -61.5t-38.5 -176.5q0 -51 8.5 -94t28 -75t51 -50t77.5 -18q85 0 123.5 61.5t38.5 176.5zM290 769h97q-5 -11 -15 -25q-8 -12 -23.5 -28t-39.5 -36q-23 -18 -42 -29t-33 -17q-17 -7 -29 -10zM459 769h97q-5 -11 -15 -25q-8 -12 -23.5 -28
t-39.5 -36q-23 -18 -42 -29t-33 -17q-17 -7 -29 -10z" />
    <glyph glyph-name="OE" unicode="&#x152;" horiz-adv-x="965" 
d="M902 113q-2 -14 -4 -35t-4 -50l-2 -28h-381q-15 -3 -33 -5q-16 -2 -38 -3.5t-49 -1.5q-97 0 -161 30.5t-101.5 80t-53 111.5t-15.5 126q0 38 4.5 81.5t17.5 86t37 82t61.5 69t91.5 47.5t128 18q22 0 42 -1.5t36 -3.5q18 -3 34 -5h370q-1 -5 -1 -12v-36q0 -29 1.5 -42.5
t1.5 -15.5q-1 1 -8 7.5t-28 19.5q-38 22 -110 22h-138v-270h114q35 0 63.5 4t46.5 15q20 11 27 17.5t9 8.5q0 -1 -1.5 -21t-1.5 -53q0 -32 1.5 -51.5t1.5 -21.5q-1 1 -8 7.5t-28 19.5q-18 11 -46.5 15t-63.5 4h-114v-272h128q46 0 74.5 5.5t46.5 16t30 26t26 35.5zM515 649
q-14 3 -32 7q-16 2 -38 4.5t-50 2.5q-42 0 -81 -10.5t-65 -31.5q-40 -32 -66.5 -97t-26.5 -172q0 -96 19 -152.5t53 -91.5q31 -32 73 -45.5t95 -13.5q29 0 51 2t37 4q18 3 31 7v587z" />
    <glyph glyph-name="oe" unicode="&#x153;" horiz-adv-x="985" 
d="M557 288q0 -41 6.5 -82.5t26 -75.5t54.5 -55.5t92 -21.5q52 0 86 11t54 25q24 16 36 36q0 -27 -12 -51.5t-36.5 -43t-61.5 -30t-88 -11.5q-61 0 -99.5 17t-61.5 37q-26 24 -40 54q-17 -31 -45 -55q-24 -21 -64 -38t-100 -17q-63 0 -110 22t-77.5 61t-46 91.5t-15.5 113.5
q0 23 3.5 54.5t13.5 65t28.5 66t47.5 58t70.5 41.5t98.5 16t95 -17t62 -37q28 -24 45 -53q17 29 43 53q23 20 59.5 37t90.5 17q49 0 85 -13t61 -34.5t40 -50t23 -59.5t11 -62.5t3 -59.5v-9h-378zM842 352q0 18 -3.5 46.5t-17 56t-40 47t-73.5 19.5q-21 0 -47 -5t-48.5 -24.5
t-38 -57t-16.5 -102.5zM474 282q0 51 -8.5 94t-28 75t-51 50t-77.5 18q-85 0 -123.5 -61.5t-38.5 -176.5q0 -51 8.5 -94t28 -75t51 -50t77.5 -18q85 0 123.5 61.5t38.5 176.5z" />
    <glyph glyph-name="Racute" unicode="&#x154;" horiz-adv-x="600" 
d="M616 3q-4 -2 -12 -4q-14 -3 -44 -3q-25 0 -42.5 6.5t-32.5 19t-29 32t-32 46.5l-75 114q-24 37 -40 60t-29.5 36t-28 17.5t-35.5 4.5q-4 0 -7.5 -0.5t-5.5 -0.5h-5q0 -96 1 -151.5t3.5 -87t7.5 -46.5t13 -30l9 -17q-6 0 -17 1q-9 0 -23.5 0.5t-34.5 0.5t-35 -0.5
t-24 -0.5q-11 -1 -18 -1l9 17q5 9 9 17.5t6.5 22t4.5 34.5t3 56.5t1.5 87.5t0.5 127q0 109 -1 169.5t-3.5 92t-7.5 45t-13 28.5l-9 17q7 -1 18 -1q9 -1 21 -1h27q22 0 52 1t57 1q41 0 86.5 -4t84 -21.5t63.5 -53.5t25 -100q0 -26 -8 -59t-31.5 -62t-67.5 -48.5t-116 -18.5
q33 -4 56 -15t42 -29.5t36.5 -43.5t37.5 -58l46 -74q28 -45 51.5 -77t55.5 -46zM420 525q0 46 -13.5 72.5t-36.5 40t-54 17.5t-66 4q-11 0 -19.5 -0.5t-16.5 -0.5q-9 -1 -16 -1v-271q7 -1 16 -1q8 -1 19 -1h26q4 0 11.5 0.5t16.5 1l18 1t15 1.5q41 5 70.5 39t29.5 98z
M314 898h97q-5 -11 -15 -25q-8 -12 -23.5 -28t-39.5 -36q-23 -18 -42 -29t-33 -17q-17 -7 -29 -10z" />
    <glyph glyph-name="racute" unicode="&#x155;" horiz-adv-x="400" 
d="M392 438q-19 31 -41 49.5t-60 18.5q-34 0 -54 -10.5t-31 -23.5q-12 -15 -17 -33v-168q0 -82 1.5 -128t5 -70.5t8 -35t10.5 -21.5l9 -17q-6 0 -17 1q-9 0 -23 0.5t-34 0.5t-34.5 -0.5t-23.5 -0.5q-11 -1 -17 -1l9 17q6 11 10.5 21.5t8 35t5 70.5t1.5 128v29q0 65 -1.5 105
t-5 64t-8 37t-10.5 24l-9 17l115 25l-4 -126q10 45 29.5 70.5t40.5 39t40 17t28 3.5q20 0 33 -3t21 -6q10 -4 15 -9q-1 -7 -1 -16q-1 -8 -1 -18.5v-23.5v-28.5t1 -19.5q0 -9 1 -14zM260 769h97q-5 -11 -15 -25q-8 -12 -23.5 -28t-39.5 -36q-23 -18 -42 -29t-33 -17
q-17 -7 -29 -10z" />
    <glyph glyph-name="Rcommaaccent" unicode="&#x156;" horiz-adv-x="600" 
d="M616 3q-4 -2 -12 -4q-14 -3 -44 -3q-25 0 -42.5 6.5t-32.5 19t-29 32t-32 46.5l-75 114q-24 37 -40 60t-29.5 36t-28 17.5t-35.5 4.5q-4 0 -7.5 -0.5t-5.5 -0.5h-5q0 -96 1 -151.5t3.5 -87t7.5 -46.5t13 -30l9 -17q-6 0 -17 1q-9 0 -23.5 0.5t-34.5 0.5t-35 -0.5
t-24 -0.5q-11 -1 -18 -1l9 17q5 9 9 17.5t6.5 22t4.5 34.5t3 56.5t1.5 87.5t0.5 127q0 109 -1 169.5t-3.5 92t-7.5 45t-13 28.5l-9 17q7 -1 18 -1q9 -1 21 -1h27q22 0 52 1t57 1q41 0 86.5 -4t84 -21.5t63.5 -53.5t25 -100q0 -26 -8 -59t-31.5 -62t-67.5 -48.5t-116 -18.5
q33 -4 56 -15t42 -29.5t36.5 -43.5t37.5 -58l46 -74q28 -45 51.5 -77t55.5 -46zM420 525q0 46 -13.5 72.5t-36.5 40t-54 17.5t-66 4q-11 0 -19.5 -0.5t-16.5 -0.5q-9 -1 -16 -1v-271q7 -1 16 -1q8 -1 19 -1h26q4 0 11.5 0.5t16.5 1l18 1t15 1.5q41 5 70.5 39t29.5 98z
M380 -111q0 -20 -7.5 -40t-22.5 -36.5t-37 -28.5t-50 -16q1 0 8 6t15.5 16.5t15 24.5t6.5 31q0 16 -5.5 25t-12.5 14q-8 5 -17 7v17q0 45 48 53q26 -5 42.5 -21.5t16.5 -51.5z" />
    <glyph glyph-name="rcommaaccent" unicode="&#x157;" horiz-adv-x="400" 
d="M392 438q-19 31 -41 49.5t-60 18.5q-34 0 -54 -10.5t-31 -23.5q-12 -15 -17 -33v-168q0 -82 1.5 -128t5 -70.5t8 -35t10.5 -21.5l9 -17q-6 0 -17 1q-9 0 -23 0.5t-34 0.5t-34.5 -0.5t-23.5 -0.5q-11 -1 -17 -1l9 17q6 11 10.5 21.5t8 35t5 70.5t1.5 128v29q0 65 -1.5 105
t-5 64t-8 37t-10.5 24l-9 17l115 25l-4 -126q10 45 29.5 70.5t40.5 39t40 17t28 3.5q20 0 33 -3t21 -6q10 -4 15 -9q-1 -7 -1 -16q-1 -8 -1 -18.5v-23.5v-28.5t1 -19.5q0 -9 1 -14zM206 -111q0 -20 -7.5 -40t-22.5 -36.5t-37 -28.5t-50 -16q1 0 8 6t15.5 16.5t15 24.5
t6.5 31q0 16 -5.5 25t-12.5 14q-8 5 -17 7v17q0 45 48 53q26 -5 42.5 -21.5t16.5 -51.5z" />
    <glyph glyph-name="Rcaron" unicode="&#x158;" horiz-adv-x="600" 
d="M616 3q-4 -2 -12 -4q-14 -3 -44 -3q-25 0 -42.5 6.5t-32.5 19t-29 32t-32 46.5l-75 114q-24 37 -40 60t-29.5 36t-28 17.5t-35.5 4.5q-4 0 -7.5 -0.5t-5.5 -0.5h-5q0 -96 1 -151.5t3.5 -87t7.5 -46.5t13 -30l9 -17q-6 0 -17 1q-9 0 -23.5 0.5t-34.5 0.5t-35 -0.5
t-24 -0.5q-11 -1 -18 -1l9 17q5 9 9 17.5t6.5 22t4.5 34.5t3 56.5t1.5 87.5t0.5 127q0 109 -1 169.5t-3.5 92t-7.5 45t-13 28.5l-9 17q7 -1 18 -1q9 -1 21 -1h27q22 0 52 1t57 1q41 0 86.5 -4t84 -21.5t63.5 -53.5t25 -100q0 -26 -8 -59t-31.5 -62t-67.5 -48.5t-116 -18.5
q33 -4 56 -15t42 -29.5t36.5 -43.5t37.5 -58l46 -74q28 -45 51.5 -77t55.5 -46zM420 525q0 46 -13.5 72.5t-36.5 40t-54 17.5t-66 4q-11 0 -19.5 -0.5t-16.5 -0.5q-9 -1 -16 -1v-271q7 -1 16 -1q8 -1 19 -1h26q4 0 11.5 0.5t16.5 1l18 1t15 1.5q41 5 70.5 39t29.5 98z
M429 913q-41 -38 -74.5 -77t-65.5 -84h-5l-80 77q-8 8 -24 23t-27 23l61 47q7 -11 15.5 -23t16.5 -23l29 -39q11 14 27.5 28t36 25.5t42.5 17.5t48 5z" />
    <glyph glyph-name="rcaron" unicode="&#x159;" horiz-adv-x="400" 
d="M392 438q-19 31 -41 49.5t-60 18.5q-34 0 -54 -10.5t-31 -23.5q-12 -15 -17 -33v-168q0 -82 1.5 -128t5 -70.5t8 -35t10.5 -21.5l9 -17q-6 0 -17 1q-9 0 -23 0.5t-34 0.5t-34.5 -0.5t-23.5 -0.5q-11 -1 -17 -1l9 17q6 11 10.5 21.5t8 35t5 70.5t1.5 128v29q0 65 -1.5 105
t-5 64t-8 37t-10.5 24l-9 17l115 25l-4 -126q10 45 29.5 70.5t40.5 39t40 17t28 3.5q20 0 33 -3t21 -6q10 -4 15 -9q-1 -7 -1 -16q-1 -8 -1 -18.5v-23.5v-28.5t1 -19.5q0 -9 1 -14zM364 769q-20 -19 -36.5 -36t-31.5 -34t-29 -35.5t-30 -40.5h-5l-68 63q-8 8 -24.5 23
t-27.5 23l57 47q7 -11 15.5 -23t18.5 -23l25 -28q23 28 54.5 48.5t81.5 15.5z" />
    <glyph glyph-name="Sacute" unicode="&#x15a;" horiz-adv-x="519" 
d="M465 175q0 -50 -17 -84.5t-48 -56.5t-74.5 -31.5t-95.5 -9.5q-43 0 -75 4.5t-53 10.5q-25 7 -42 16q0 7 1 16q0 8 0.5 18t0.5 24t-0.5 27.5t-0.5 23.5q-1 11 -1 21q16 -23 32.5 -42t36.5 -32.5t44.5 -20.5t57.5 -7q22 0 48.5 3t49 14t37.5 33t15 61q0 24 -6 42
t-16.5 32.5t-24.5 26t-30 22.5l-91 61q-25 16 -51 34t-47.5 41t-35.5 53.5t-14 72.5q0 32 11.5 63t37 55t67.5 38.5t103 14.5q37 0 66 -5t49 -10q24 -6 41 -14q-1 -7 -1 -16q-1 -8 -1 -19.5v-25.5v-27t1 -21q0 -11 1 -19q-16 23 -32 41.5t-35 31t-41.5 19t-52.5 6.5
q-13 0 -35 -2t-43.5 -11.5t-37 -30.5t-15.5 -59q0 -23 7.5 -40.5t20.5 -32t31 -27.5t39 -27l71 -48q28 -19 55 -37t47.5 -41t33 -53.5t12.5 -75.5zM294 898h97q-5 -11 -15 -25q-8 -12 -23.5 -28t-39.5 -36q-23 -18 -42 -29t-33 -17q-17 -7 -29 -10z" />
    <glyph glyph-name="sacute" unicode="&#x15b;" horiz-adv-x="466" 
d="M403 155q0 -25 -8 -53t-29 -52t-58.5 -39.5t-96.5 -15.5q-34 0 -60 4.5t-45 10.5q-22 6 -38 15q0 6 1 14q0 7 0.5 17.5t0.5 24.5q0 13 -0.5 24t-0.5 20q-1 10 -1 19q14 -20 27.5 -37.5t30.5 -30.5t38 -20.5t50 -7.5q34 0 55 8t33 20.5t16 28.5t4 32q0 33 -16 53.5
t-45 37.5l-91 55q-13 7 -29.5 17.5t-31.5 27t-25.5 41t-10.5 59.5q0 40 13.5 68t37 45.5t56 25.5t71.5 8q32 0 57.5 -5t42.5 -10q20 -7 36 -15q-1 -6 -1 -14q-1 -7 -1 -17.5v-24.5v-24t1 -19q0 -10 1 -18q-14 20 -28 37.5t-30.5 30.5t-36 20.5t-44.5 7.5q-11 0 -27.5 -1.5
t-32 -9t-27 -23.5t-11.5 -44q0 -35 21 -55.5t61 -43.5l68 -40q46 -27 74.5 -61t28.5 -91zM272 769h97q-5 -11 -15 -25q-8 -12 -23.5 -28t-39.5 -36q-23 -18 -42 -29t-33 -17q-17 -7 -29 -10z" />
    <glyph glyph-name="Scircumflex" unicode="&#x15c;" horiz-adv-x="519" 
d="M465 175q0 -50 -17 -84.5t-48 -56.5t-74.5 -31.5t-95.5 -9.5q-43 0 -75 4.5t-53 10.5q-25 7 -42 16q0 7 1 16q0 8 0.5 18t0.5 24t-0.5 27.5t-0.5 23.5q-1 11 -1 21q16 -23 32.5 -42t36.5 -32.5t44.5 -20.5t57.5 -7q22 0 48.5 3t49 14t37.5 33t15 61q0 24 -6 42
t-16.5 32.5t-24.5 26t-30 22.5l-91 61q-25 16 -51 34t-47.5 41t-35.5 53.5t-14 72.5q0 32 11.5 63t37 55t67.5 38.5t103 14.5q37 0 66 -5t49 -10q24 -6 41 -14q-1 -7 -1 -16q-1 -8 -1 -19.5v-25.5v-27t1 -21q0 -11 1 -19q-16 23 -32 41.5t-35 31t-41.5 19t-52.5 6.5
q-13 0 -35 -2t-43.5 -11.5t-37 -30.5t-15.5 -59q0 -23 7.5 -40.5t20.5 -32t31 -27.5t39 -27l71 -48q28 -19 55 -37t47.5 -41t33 -53.5t12.5 -75.5zM431 752q-48 3 -93 23t-69 51q-35 -38 -77.5 -54.5t-84.5 -19.5l137 146h51z" />
    <glyph glyph-name="scircumflex" unicode="&#x15d;" horiz-adv-x="466" 
d="M403 155q0 -25 -8 -53t-29 -52t-58.5 -39.5t-96.5 -15.5q-34 0 -60 4.5t-45 10.5q-22 6 -38 15q0 6 1 14q0 7 0.5 17.5t0.5 24.5q0 13 -0.5 24t-0.5 20q-1 10 -1 19q14 -20 27.5 -37.5t30.5 -30.5t38 -20.5t50 -7.5q34 0 55 8t33 20.5t16 28.5t4 32q0 33 -16 53.5
t-45 37.5l-91 55q-13 7 -29.5 17.5t-31.5 27t-25.5 41t-10.5 59.5q0 40 13.5 68t37 45.5t56 25.5t71.5 8q32 0 57.5 -5t42.5 -10q20 -7 36 -15q-1 -6 -1 -14q-1 -7 -1 -17.5v-24.5v-24t1 -19q0 -10 1 -18q-14 20 -28 37.5t-30.5 30.5t-36 20.5t-44.5 7.5q-11 0 -27.5 -1.5
t-32 -9t-27 -23.5t-11.5 -44q0 -35 21 -55.5t61 -43.5l68 -40q46 -27 74.5 -61t28.5 -91zM406 623q-48 3 -93 23t-69 51q-35 -38 -77.5 -54.5t-84.5 -19.5l137 146h51z" />
    <glyph glyph-name="Scedilla" unicode="&#x15e;" horiz-adv-x="519" 
d="M465 175q0 -46 -14.5 -79t-41.5 -55t-65 -33t-84 -14q-6 -11 -6 -19q0 -9 6.5 -15t16.5 -13l13 -9q10 -7 25.5 -22t15.5 -43q0 -27 -15 -44.5t-37 -27t-46.5 -12.5t-43.5 -1q5 2 16 8.5t22.5 16.5t20 22.5t8.5 27.5t-5.5 25t-16.5 25l-6 8q-6 8 -10.5 16.5t-4.5 20.5
q0 9 3 18t8 17q-42 0 -72.5 5t-50.5 11q-24 7 -41 15q0 7 1 16q0 8 0.5 18t0.5 24t-0.5 27.5t-0.5 23.5q-1 11 -1 21q16 -23 32.5 -42t36.5 -32.5t44.5 -20.5t57.5 -7q22 0 48.5 3t49 14t37.5 33t15 61q0 24 -6 42t-16.5 32.5t-24.5 26t-30 22.5l-91 61q-25 16 -51 34
t-47.5 41t-35.5 53.5t-14 72.5q0 32 11.5 63t37 55t67.5 38.5t103 14.5q37 0 66 -5t49 -10q24 -6 41 -14q-1 -7 -1 -16q-1 -8 -1 -19.5v-25.5v-27t1 -21q0 -11 1 -19q-16 23 -32 41.5t-35 31t-41.5 19t-52.5 6.5q-13 0 -35 -2t-43.5 -11.5t-37 -30.5t-15.5 -59
q0 -23 7.5 -40.5t20.5 -32t31 -27.5t39 -27l71 -48q28 -19 55 -37t47.5 -41t33 -53.5t12.5 -75.5z" />
    <glyph glyph-name="scedilla" unicode="&#x15f;" horiz-adv-x="466" 
d="M403 155q0 -23 -6.5 -49t-24.5 -49t-49 -39.5t-80 -20.5q-7 -14 -7 -22q0 -9 6.5 -15t16.5 -13l13 -9q10 -7 25.5 -22t15.5 -43q0 -27 -15 -44.5t-37 -27t-46.5 -12.5t-43.5 -1q5 2 16 8.5t22.5 16.5t20 22.5t8.5 27.5t-5.5 25t-16.5 25l-6 8q-6 8 -10.5 16.5t-4.5 20.5
q0 20 12 37q-33 0 -58.5 5t-43.5 10q-21 6 -37 15q0 6 1 14q0 7 0.5 17.5t0.5 24.5q0 13 -0.5 24t-0.5 20q-1 10 -1 19q14 -20 27.5 -37.5t30.5 -30.5t38 -20.5t50 -7.5q34 0 55 8t33 20.5t16 28.5t4 32q0 33 -16 53.5t-45 37.5l-91 55q-13 7 -29.5 17.5t-31.5 27t-25.5 41
t-10.5 59.5q0 40 13.5 68t37 45.5t56 25.5t71.5 8q32 0 57.5 -5t42.5 -10q20 -7 36 -15q-1 -6 -1 -14q-1 -7 -1 -17.5v-24.5v-24t1 -19q0 -10 1 -18q-14 20 -28 37.5t-30.5 30.5t-36 20.5t-44.5 7.5q-11 0 -27.5 -1.5t-32 -9t-27 -23.5t-11.5 -44q0 -35 21 -55.5t61 -43.5
l68 -40q46 -27 74.5 -61t28.5 -91z" />
    <glyph glyph-name="Scaron" unicode="&#x160;" horiz-adv-x="519" 
d="M465 175q0 -50 -17 -84.5t-48 -56.5t-74.5 -31.5t-95.5 -9.5q-43 0 -75 4.5t-53 10.5q-25 7 -42 16q0 7 1 16q0 8 0.5 18t0.5 24t-0.5 27.5t-0.5 23.5q-1 11 -1 21q16 -23 32.5 -42t36.5 -32.5t44.5 -20.5t57.5 -7q22 0 48.5 3t49 14t37.5 33t15 61q0 24 -6 42
t-16.5 32.5t-24.5 26t-30 22.5l-91 61q-25 16 -51 34t-47.5 41t-35.5 53.5t-14 72.5q0 32 11.5 63t37 55t67.5 38.5t103 14.5q37 0 66 -5t49 -10q24 -6 41 -14q-1 -7 -1 -16q-1 -8 -1 -19.5v-25.5v-27t1 -21q0 -11 1 -19q-16 23 -32 41.5t-35 31t-41.5 19t-52.5 6.5
q-13 0 -35 -2t-43.5 -11.5t-37 -30.5t-15.5 -59q0 -23 7.5 -40.5t20.5 -32t31 -27.5t39 -27l71 -48q28 -19 55 -37t47.5 -41t33 -53.5t12.5 -75.5zM404 913q-41 -38 -74.5 -77t-65.5 -84h-5l-80 77q-8 8 -24 23t-27 23l61 47q7 -11 15.5 -23t16.5 -23l29 -39q11 14 27.5 28
t36 25.5t42.5 17.5t48 5z" />
    <glyph glyph-name="scaron" unicode="&#x161;" horiz-adv-x="466" 
d="M403 155q0 -25 -8 -53t-29 -52t-58.5 -39.5t-96.5 -15.5q-34 0 -60 4.5t-45 10.5q-22 6 -38 15q0 6 1 14q0 7 0.5 17.5t0.5 24.5q0 13 -0.5 24t-0.5 20q-1 10 -1 19q14 -20 27.5 -37.5t30.5 -30.5t38 -20.5t50 -7.5q34 0 55 8t33 20.5t16 28.5t4 32q0 33 -16 53.5
t-45 37.5l-91 55q-13 7 -29.5 17.5t-31.5 27t-25.5 41t-10.5 59.5q0 40 13.5 68t37 45.5t56 25.5t71.5 8q32 0 57.5 -5t42.5 -10q20 -7 36 -15q-1 -6 -1 -14q-1 -7 -1 -17.5v-24.5v-24t1 -19q0 -10 1 -18q-14 20 -28 37.5t-30.5 30.5t-36 20.5t-44.5 7.5q-11 0 -27.5 -1.5
t-32 -9t-27 -23.5t-11.5 -44q0 -35 21 -55.5t61 -43.5l68 -40q46 -27 74.5 -61t28.5 -91zM366 769q-20 -19 -36.5 -36t-31.5 -34t-29 -35.5t-30 -40.5h-5l-68 63q-8 8 -24.5 23t-27.5 23l57 47q7 -11 15.5 -23t18.5 -23l25 -28q23 28 54.5 48.5t81.5 15.5z" />
    <glyph glyph-name="Tcommaaccent" unicode="&#x162;" horiz-adv-x="531" 
d="M518 664q0 -29 1.5 -42.5t1.5 -15.5q-1 1 -8 7.5t-28 19.5q-18 11 -46.5 17.5t-63.5 6.5h-67v-306q0 -109 1 -169.5t3.5 -92t7.5 -45t13 -28.5l9 -17q-6 1 -15 1h-18.5t-25.5 1q-3 -6 -6 -13.5t-3 -12.5q0 -9 6.5 -15t16.5 -13l13 -9q10 -7 25.5 -22t15.5 -43
q0 -27 -15 -44.5t-37 -27t-46.5 -12.5t-43.5 -1q5 2 16 8.5t22.5 16.5t20 22.5t8.5 27.5t-5.5 25t-16.5 25l-6 8q-6 8 -10.5 16.5t-4.5 20.5t5 23.5t11 19.5q-16 -1 -26.5 -1h-18.5q-9 0 -15 -1l9 17l9 18t6.5 21.5t4.5 34.5t3 56.5t1.5 87.5t0.5 127v296h-67
q-35 0 -63.5 -6.5t-46.5 -17.5q-19 -11 -27 -18t-9 -9q0 2 1.5 16.5t1.5 41.5q0 12 -0.5 21t-0.5 15v12h507q-1 -5 -1 -12v-36v0z" />
    <glyph glyph-name="tcommaaccent" unicode="&#x163;" horiz-adv-x="367" 
d="M353 73q-2 -22 -15 -40q-11 -15 -35.5 -28.5t-69.5 -14.5q-4 -7 -4 -15q0 -9 6.5 -15t16.5 -13l13 -9q10 -7 25.5 -22t15.5 -43q0 -27 -15 -44.5t-37 -27t-46.5 -12.5t-43.5 -1q5 2 16 8.5t22.5 16.5t20 22.5t8.5 27.5t-5.5 25t-16.5 25l-6 8q-6 8 -10.5 16.5t-4.5 20.5
q0 17 10 34q-29 5 -47 18t-29 30q-6 9 -10 19.5t-6.5 25t-3.5 34t-1 47.5v165t1 105q1 47 2 73h-64q2 1 22.5 21.5t43.5 58.5q13 20 22 38t15 32q7 16 11 28h31v-126h68q31 0 50 1.5t30 3.5q12 3 18 6q-1 -5 -1 -10v-27v-27q0 -5 1 -9q-6 2 -18 5q-11 2 -30 3.5t-50 1.5h-68
v-350q0 -34 3 -50t10 -30q8 -17 25 -26.5t46 -9.5q21 0 36.5 4.5t26.5 10.5q12 6 21 15z" />
    <glyph glyph-name="Tcaron" unicode="&#x164;" horiz-adv-x="531" 
d="M518 664q0 -29 1.5 -42.5t1.5 -15.5q-1 1 -8 7.5t-28 19.5q-18 11 -46.5 17.5t-63.5 6.5h-67v-306q0 -109 1 -169.5t3.5 -92t7.5 -45t13 -28.5l9 -17q-7 0 -18 1q-9 0 -23.5 0.5t-34.5 0.5t-35 -0.5t-24 -0.5q-11 -1 -18 -1l9 17l9 18t6.5 21.5t4.5 34.5t3 56.5t1.5 87.5
t0.5 127v296h-67q-35 0 -63.5 -6.5t-46.5 -17.5q-20 -12 -27.5 -18.5t-8.5 -8.5q0 1 1.5 15t1.5 43q0 12 -0.5 21t-0.5 15v12h507q-1 -5 -1 -12v-36zM404 913q-41 -38 -74.5 -77t-65.5 -84h-5l-80 77q-8 8 -24 23t-27 23l61 47q7 -11 15.5 -23t16.5 -23l29 -39
q11 14 27.5 28t36 25.5t42.5 17.5t48 5z" />
    <glyph glyph-name="tcaron" unicode="&#x165;" horiz-adv-x="367" 
d="M353 73q-2 -24 -16 -42q-12 -16 -37 -28.5t-73 -12.5q-43 0 -67.5 14.5t-37.5 35.5q-6 9 -10 19.5t-6.5 25t-3.5 34t-1 47.5v165t1 105q1 47 2 73h-64q2 1 22.5 21.5t43.5 58.5q13 20 22 38t15 32q7 16 11 28h31v-126h68q31 0 50 1.5t30 3.5q12 3 18 6q-1 -5 -1 -10v-27
v-27q0 -5 1 -9q-6 2 -18 5q-11 2 -30 3.5t-50 1.5h-68v-350q0 -34 3 -50t10 -30q8 -17 25 -26.5t46 -9.5q21 0 36.5 4.5t26.5 10.5q12 6 21 15zM231 604q7 26 10.5 53.5t3.5 53.5t-2 48.5t-5 38.5l86 11q2 -29 -1 -58t-14 -55.5t-30 -50t-48 -41.5z" />
    <glyph glyph-name="Tbar" unicode="&#x166;" horiz-adv-x="531" 
d="M518 664q0 -29 1.5 -42.5t1.5 -15.5q-1 1 -8 7.5t-28 19.5q-18 11 -46.5 17.5t-63.5 6.5h-67v-267h27q29 0 47.5 1.5t29.5 3.5q13 2 21 5q-1 -4 -1 -9v-26v-26q0 -5 1 -9q-8 2 -21 5q-11 2 -29.5 3.5t-47.5 1.5h-27q0 -70 0.5 -118.5t1.5 -81t2.5 -52.5t4.5 -32.5t7 -21
t9 -18.5l9 -17q-7 0 -18 1q-9 0 -23.5 0.5t-34.5 0.5t-35 -0.5t-24 -0.5q-11 -1 -18 -1l9 17q5 9 8.5 17.5t6 21t4.5 33t3 53.5t2 81t1 118h-31q-29 0 -48 -1.5t-30 -3.5q-13 -3 -20 -5v9q0 5 0.5 11t0.5 15q0 8 -0.5 14.5t-0.5 11.5v9q7 -3 20 -5q11 -2 30 -3.5t48 -1.5h31
v267h-67q-35 0 -63.5 -6.5t-46.5 -17.5q-19 -11 -27 -18t-9 -9q0 2 1.5 16.5t1.5 41.5q0 12 -0.5 21t-0.5 15v12h507q-1 -5 -1 -12v-36v0z" />
    <glyph glyph-name="tbar" unicode="&#x167;" horiz-adv-x="367" 
d="M353 73q-2 -24 -16 -42q-12 -16 -37 -28.5t-73 -12.5q-43 0 -67.5 14.5t-37.5 35.5q-6 9 -10 19.5t-6.5 25t-3.5 34t-1 47.5v117q-17 -1 -28 -2t-18 -3q-8 -2 -13 -3v9q0 5 0.5 11t0.5 14t-0.5 14t-0.5 11v9q5 -2 13 -4q7 -2 18 -3t28 -2q0 48 0.5 81.5t1.5 54.5
q1 25 1 39h-64q2 1 22.5 21.5t43.5 58.5q13 20 22 38t15 32q7 16 11 28h31v-126h68q31 0 50 1.5t30 3.5q12 3 18 6q-1 -5 -1 -10v-27v-27q0 -5 1 -9q-6 2 -18 5q-11 2 -30 3.5t-50 1.5h-68v-175h42q27 0 44.5 1t28.5 3q12 2 20 5q-1 -4 -1 -9v-25v-25q0 -5 1 -9q-8 2 -20 4
q-11 2 -28.5 3.5t-44.5 1.5h-42v-125q0 -34 3 -50t10 -30q8 -17 25 -26.5t46 -9.5q21 0 36.5 4.5t26.5 10.5q12 6 21 15z" />
    <glyph glyph-name="Utilde" unicode="&#x168;" horiz-adv-x="722" 
d="M645 696q-7 -13 -12 -26t-8 -41.5t-4 -81t-1 -145.5v-60q0 -49 -0.5 -85.5t-3.5 -64t-9 -49t-16 -40.5q-26 -50 -79 -81.5t-150 -31.5q-74 0 -129.5 20t-89.5 70q-12 17 -20 35.5t-12.5 43t-6.5 58t-2 81.5v77q0 100 -1 157.5t-3.5 88.5t-7.5 45.5t-13 29.5l-9 17
q7 -1 18 -1q9 -1 24 -1h35h34.5t24.5 1q11 0 18 1l-9 -17q-7 -13 -12 -26t-8 -41.5t-4 -81t-1 -145.5v-139q0 -23 2 -50.5t7 -44.5q30 -118 170 -118q69 0 112.5 29t58.5 92q4 17 6 39.5t2 44.5v106q0 109 -1 169.5t-3.5 92t-7.5 45t-13 28.5l-9 17q5 -1 15 -1q8 -1 21.5 -1
h33.5h34t22 1q10 0 16 1zM462 832q15 0 28 7t22.5 15t15 15.5t6.5 9.5q0 -55 -25 -81t-60 -26q-15 0 -28 3t-23 7l-58 21q-13 5 -20.5 6.5t-20.5 1.5q-15 0 -28 -7t-22.5 -15.5t-15 -16t-6.5 -9.5q0 56 25 82t60 26q15 0 28 -3t23 -7l58 -21q13 -5 20.5 -6.5t20.5 -1.5z" />
    <glyph glyph-name="utilde" unicode="&#x169;" 
d="M440 -8l4 122q-9 -41 -27.5 -65.5t-42 -38t-48.5 -18t-47 -4.5q-57 0 -94.5 19.5t-56.5 54.5q-8 16 -13.5 33.5t-8.5 41.5t-4 56t-1 76v31q0 65 -1.5 105t-4.5 64t-7.5 37t-10.5 24l-9 17l118 25q-1 -33 -2 -68q-1 -30 -1.5 -68t-0.5 -76v-66q0 -81 4 -126.5t19 -69.5
q11 -18 33.5 -33t68.5 -15q44 0 70 10.5t40 24.5q17 16 23 36v179q0 65 -1.5 105t-4 64t-7 37t-10.5 24l-9 17l118 25q-2 -33 -3 -68q-1 -30 -1.5 -68t-0.5 -76v-96q0 -65 1.5 -105t5 -64t8 -37t10.5 -24l9 -17zM407 702q15 0 28 7t22.5 15t15 15.5t6.5 9.5q0 -55 -25 -81
t-60 -26q-15 0 -28 3t-23 7l-58 21q-13 5 -20.5 6.5t-20.5 1.5q-15 0 -28 -7t-22.5 -15.5t-15 -16t-6.5 -9.5q0 56 25 82t60 26q15 0 28 -3t23 -7l58 -21q13 -5 20.5 -6.5t20.5 -1.5z" />
    <glyph glyph-name="Umacron" unicode="&#x16a;" horiz-adv-x="722" 
d="M645 696q-7 -13 -12 -26t-8 -41.5t-4 -81t-1 -145.5v-60q0 -49 -0.5 -85.5t-3.5 -64t-9 -49t-16 -40.5q-26 -50 -79 -81.5t-150 -31.5q-74 0 -129.5 20t-89.5 70q-12 17 -20 35.5t-12.5 43t-6.5 58t-2 81.5v77q0 100 -1 157.5t-3.5 88.5t-7.5 45.5t-13 29.5l-9 17
q7 -1 18 -1q9 -1 24 -1h35h34.5t24.5 1q11 0 18 1l-9 -17q-7 -13 -12 -26t-8 -41.5t-4 -81t-1 -145.5v-139q0 -23 2 -50.5t7 -44.5q30 -118 170 -118q69 0 112.5 29t58.5 92q4 17 6 39.5t2 44.5v106q0 109 -1 169.5t-3.5 92t-7.5 45t-13 28.5l-9 17q5 -1 15 -1q8 -1 21.5 -1
h33.5h34t22 1q10 0 16 1zM234 789v63h274v-63h-274z" />
    <glyph glyph-name="umacron" unicode="&#x16b;" 
d="M440 -8l4 122q-9 -41 -27.5 -65.5t-42 -38t-48.5 -18t-47 -4.5q-57 0 -94.5 19.5t-56.5 54.5q-8 16 -13.5 33.5t-8.5 41.5t-4 56t-1 76v31q0 65 -1.5 105t-4.5 64t-7.5 37t-10.5 24l-9 17l118 25q-1 -33 -2 -68q-1 -30 -1.5 -68t-0.5 -76v-66q0 -81 4 -126.5t19 -69.5
q11 -18 33.5 -33t68.5 -15q44 0 70 10.5t40 24.5q17 16 23 36v179q0 65 -1.5 105t-4 64t-7 37t-10.5 24l-9 17l118 25q-2 -33 -3 -68q-1 -30 -1.5 -68t-0.5 -76v-96q0 -65 1.5 -105t5 -64t8 -37t10.5 -24l9 -17zM183 660v63h274v-63h-274z" />
    <glyph glyph-name="Ubreve" unicode="&#x16c;" horiz-adv-x="722" 
d="M645 696q-7 -13 -12 -26t-8 -41.5t-4 -81t-1 -145.5v-60q0 -49 -0.5 -85.5t-3.5 -64t-9 -49t-16 -40.5q-26 -50 -79 -81.5t-150 -31.5q-74 0 -129.5 20t-89.5 70q-12 17 -20 35.5t-12.5 43t-6.5 58t-2 81.5v77q0 100 -1 157.5t-3.5 88.5t-7.5 45.5t-13 29.5l-9 17
q7 -1 18 -1q9 -1 24 -1h35h34.5t24.5 1q11 0 18 1l-9 -17q-7 -13 -12 -26t-8 -41.5t-4 -81t-1 -145.5v-139q0 -23 2 -50.5t7 -44.5q30 -118 170 -118q69 0 112.5 29t58.5 92q4 17 6 39.5t2 44.5v106q0 109 -1 169.5t-3.5 92t-7.5 45t-13 28.5l-9 17q5 -1 15 -1q8 -1 21.5 -1
h33.5h34t22 1q10 0 16 1zM231 914q26 -37 59.5 -63t80.5 -26t80.5 26t59.5 63q0 -33 -9 -61.5t-26.5 -50t-43.5 -33.5t-61 -12t-61 12t-43.5 33.5t-26.5 50t-9 61.5z" />
    <glyph glyph-name="ubreve" unicode="&#x16d;" 
d="M440 -8l4 122q-9 -41 -27.5 -65.5t-42 -38t-48.5 -18t-47 -4.5q-57 0 -94.5 19.5t-56.5 54.5q-8 16 -13.5 33.5t-8.5 41.5t-4 56t-1 76v31q0 65 -1.5 105t-4.5 64t-7.5 37t-10.5 24l-9 17l118 25q-1 -33 -2 -68q-1 -30 -1.5 -68t-0.5 -76v-66q0 -81 4 -126.5t19 -69.5
q11 -18 33.5 -33t68.5 -15q44 0 70 10.5t40 24.5q17 16 23 36v179q0 65 -1.5 105t-4 64t-7 37t-10.5 24l-9 17l118 25q-2 -33 -3 -68q-1 -30 -1.5 -68t-0.5 -76v-96q0 -65 1.5 -105t5 -64t8 -37t10.5 -24l9 -17zM175 785q26 -37 59.5 -63t80.5 -26t80.5 26t59.5 63
q0 -33 -9 -61.5t-26.5 -50t-43.5 -33.5t-61 -12t-61 12t-43.5 33.5t-26.5 50t-9 61.5z" />
    <glyph glyph-name="Uring" unicode="&#x16e;" horiz-adv-x="722" 
d="M645 696q-7 -13 -12 -26t-8 -41.5t-4 -81t-1 -145.5v-60q0 -49 -0.5 -85.5t-3.5 -64t-9 -49t-16 -40.5q-26 -50 -79 -81.5t-150 -31.5q-74 0 -129.5 20t-89.5 70q-12 17 -20 35.5t-12.5 43t-6.5 58t-2 81.5v77q0 100 -1 157.5t-3.5 88.5t-7.5 45.5t-13 29.5l-9 17
q7 -1 18 -1q9 -1 24 -1h35h34.5t24.5 1q11 0 18 1l-9 -17q-7 -13 -12 -26t-8 -41.5t-4 -81t-1 -145.5v-139q0 -23 2 -50.5t7 -44.5q30 -118 170 -118q69 0 112.5 29t58.5 92q4 17 6 39.5t2 44.5v106q0 109 -1 169.5t-3.5 92t-7.5 45t-13 28.5l-9 17q5 -1 15 -1q8 -1 21.5 -1
h33.5h34t22 1q10 0 16 1zM475 835q0 -48 -30 -73t-74 -25q-45 0 -75 24.5t-30 73.5q0 48 30 73t74 25q45 0 75 -24.5t30 -73.5zM429 835q0 29 -16 44t-43 15q-23 0 -40.5 -14.5t-17.5 -44.5q0 -29 16 -44t43 -15q23 0 40.5 14.5t17.5 44.5z" />
    <glyph glyph-name="uring" unicode="&#x16f;" 
d="M440 -8l4 122q-9 -41 -27.5 -65.5t-42 -38t-48.5 -18t-47 -4.5q-57 0 -94.5 19.5t-56.5 54.5q-8 16 -13.5 33.5t-8.5 41.5t-4 56t-1 76v31q0 65 -1.5 105t-4.5 64t-7.5 37t-10.5 24l-9 17l118 25q-1 -33 -2 -68q-1 -30 -1.5 -68t-0.5 -76v-66q0 -81 4 -126.5t19 -69.5
q11 -18 33.5 -33t68.5 -15q44 0 70 10.5t40 24.5q17 16 23 36v179q0 65 -1.5 105t-4 64t-7 37t-10.5 24l-9 17l118 25q-2 -33 -3 -68q-1 -30 -1.5 -68t-0.5 -76v-96q0 -65 1.5 -105t5 -64t8 -37t10.5 -24l9 -17zM419 706q0 -48 -30 -73t-74 -25q-45 0 -75 24.5t-30 73.5
q0 48 30 73t74 25q45 0 75 -24.5t30 -73.5zM373 706q0 29 -16 44t-43 15q-23 0 -40.5 -14.5t-17.5 -44.5q0 -29 16 -44t43 -15q23 0 40.5 14.5t17.5 44.5z" />
    <glyph glyph-name="Uhungarumlaut" unicode="&#x170;" horiz-adv-x="722" 
d="M645 696q-7 -13 -12 -26t-8 -41.5t-4 -81t-1 -145.5v-60q0 -49 -0.5 -85.5t-3.5 -64t-9 -49t-16 -40.5q-26 -50 -79 -81.5t-150 -31.5q-74 0 -129.5 20t-89.5 70q-12 17 -20 35.5t-12.5 43t-6.5 58t-2 81.5v77q0 100 -1 157.5t-3.5 88.5t-7.5 45.5t-13 29.5l-9 17
q7 -1 18 -1q9 -1 24 -1h35h34.5t24.5 1q11 0 18 1l-9 -17q-7 -13 -12 -26t-8 -41.5t-4 -81t-1 -145.5v-139q0 -23 2 -50.5t7 -44.5q30 -118 170 -118q69 0 112.5 29t58.5 92q4 17 6 39.5t2 44.5v106q0 109 -1 169.5t-3.5 92t-7.5 45t-13 28.5l-9 17q5 -1 15 -1q8 -1 21.5 -1
h33.5h34t22 1q10 0 16 1zM330 898h97q-5 -11 -15 -25q-8 -12 -23.5 -28t-39.5 -36q-23 -18 -42 -29t-33 -17q-17 -7 -29 -10zM499 898h97q-5 -11 -15 -25q-8 -12 -23.5 -28t-39.5 -36q-23 -18 -42 -29t-33 -17q-17 -7 -29 -10z" />
    <glyph glyph-name="uhungarumlaut" unicode="&#x171;" 
d="M440 -8l4 122q-9 -41 -27.5 -65.5t-42 -38t-48.5 -18t-47 -4.5q-57 0 -94.5 19.5t-56.5 54.5q-8 16 -13.5 33.5t-8.5 41.5t-4 56t-1 76v31q0 65 -1.5 105t-4.5 64t-7.5 37t-10.5 24l-9 17l118 25q-1 -33 -2 -68q-1 -30 -1.5 -68t-0.5 -76v-66q0 -81 4 -126.5t19 -69.5
q11 -18 33.5 -33t68.5 -15q44 0 70 10.5t40 24.5q17 16 23 36v179q0 65 -1.5 105t-4 64t-7 37t-10.5 24l-9 17l118 25q-2 -33 -3 -68q-1 -30 -1.5 -68t-0.5 -76v-96q0 -65 1.5 -105t5 -64t8 -37t10.5 -24l9 -17zM280 769h97q-5 -11 -15 -25q-8 -12 -23.5 -28t-39.5 -36
q-23 -18 -42 -29t-33 -17q-17 -7 -29 -10zM449 769h97q-5 -11 -15 -25q-8 -12 -23.5 -28t-39.5 -36q-23 -18 -42 -29t-33 -17q-17 -7 -29 -10z" />
    <glyph glyph-name="Uogonek" unicode="&#x172;" horiz-adv-x="722" 
d="M325 -131q0 24 8.5 43.5t21.5 34.5t29 26.5t30 19.5q-24 -3 -52 -3q-74 0 -129.5 20t-89.5 70q-12 17 -20 35.5t-12.5 43t-6.5 58t-2 81.5v77q0 100 -1 157.5t-3.5 88.5t-7.5 45.5t-13 29.5l-9 17q7 -1 18 -1q9 -1 24 -1h35h34.5t24.5 1q11 0 18 1l-9 -17q-7 -13 -12 -26
t-8 -41.5t-4 -81t-1 -145.5v-139q0 -23 2 -50.5t7 -44.5q30 -118 170 -118q69 0 112.5 29t58.5 92q4 17 6 39.5t2 44.5v106q0 109 -1 169.5t-3.5 92t-7.5 45t-13 28.5l-9 17q5 -1 15 -1q8 -1 21.5 -1h33.5h34t22 1q10 0 16 1l-9 -17q-7 -13 -12 -26t-8 -41.5t-4 -81
t-1 -145.5v-60q0 -49 -0.5 -85.5t-3.5 -64t-9 -49t-16 -40.5q-17 -33 -45 -56.5t-70 -44.5q-12 -6 -25 -17t-23.5 -25.5t-17.5 -33t-7 -40.5q0 -30 21 -50.5t66 -26.5q-17 -10 -36 -15.5t-39 -5.5q-18 0 -34 4.5t-28.5 14.5t-20 25.5t-7.5 36.5z" />
    <glyph glyph-name="uogonek" unicode="&#x173;" 
d="M350 -131q0 24 8.5 43.5t22 35t29 27t30.5 19.5l4 120q-9 -41 -27.5 -65.5t-42 -38t-48.5 -18t-47 -4.5q-57 0 -94.5 19.5t-56.5 54.5q-8 16 -13.5 33.5t-8.5 41.5t-4 56t-1 76v31q0 65 -1.5 105t-4.5 64t-7.5 37t-10.5 24l-9 17l118 25q-1 -33 -2 -68q-1 -30 -1.5 -68
t-0.5 -76v-66q0 -81 4 -126.5t19 -69.5q11 -18 33.5 -33t68.5 -15q44 0 70 10.5t40 24.5q17 16 23 36v179q0 65 -1.5 105t-4 64t-7 37t-10.5 24l-9 17l118 25q-2 -33 -3 -68q-1 -30 -1.5 -68t-0.5 -76v-96q0 -65 1.5 -105t5 -64t8 -37t10.5 -24l9 -17q-65 -19 -96 -53.5
t-31 -77.5q0 -30 21 -50.5t66 -26.5q-17 -10 -36 -15.5t-39 -5.5q-18 0 -34 4.5t-28.5 14.5t-20 25.5t-7.5 36.5z" />
    <glyph glyph-name="Wcircumflex" unicode="&#x174;" horiz-adv-x="1016" 
d="M1024 713q-14 -14 -25 -33t-22 -46.5t-22.5 -66.5t-26.5 -91l-134 -477q-7 0 -17 1q-8 0 -19 0.5t-22 0.5q-13 0 -23.5 -0.5t-18.5 -0.5q-10 -1 -17 -1l-160 605q-5 17 -6.5 28.5t-1.5 14.5q-1 -3 -2.5 -14t-6.5 -29l-149 -605q-8 0 -18 1q-8 0 -19 0.5t-23 0.5
q-13 0 -23.5 -0.5t-18.5 -0.5q-10 -1 -18 -1l-135 477q-15 52 -26.5 91t-22.5 66.5t-22 46.5t-25 33q10 -1 23 -1q11 -1 26.5 -1h35.5h41t30 1q14 0 25 1q-10 -7 -21 -21t-11 -42q0 -26 11 -68.5t26 -98.5l102 -385q2 -11 4 -20t4 -16q2 -8 2 -14q1 6 3 14q2 7 3.5 16
t4.5 20l152 615q8 -1 18 -1q8 -1 18.5 -1h21.5h20t18 1q10 0 18 1l163 -615q2 -9 3.5 -17.5t3.5 -15.5q2 -8 3 -16q0 7 2 15q2 7 3.5 15.5t4.5 18.5l98 385q14 57 24.5 99t10.5 68q0 28 -11 42t-21 21q10 -1 22 -1q11 -1 26 -1h35h35.5t26.5 1q12 0 20 1zM684 752
q-48 3 -93 23t-69 51q-35 -38 -77.5 -54.5t-84.5 -19.5l137 146h51z" />
    <glyph glyph-name="wcircumflex" unicode="&#x175;" horiz-adv-x="862" 
d="M862 565q-29 -26 -50.5 -84.5t-47.5 -139.5l-109 -342q-7 0 -16 1q-8 0 -17 0.5t-20 0.5t-19.5 -0.5t-14.5 -0.5q-7 -1 -13 -1l-116 430q-4 13 -5.5 24.5t-3.5 20.5q-2 11 -3 20q-1 -9 -3 -20q-2 -9 -3.5 -20.5t-4.5 -22.5l-119 -432q-6 0 -13 1q-7 0 -16 0.5t-21 0.5
t-21.5 -0.5t-16.5 -0.5q-8 -1 -13 -1l-101 340q-17 57 -29.5 95.5t-23 64.5t-20 41.5t-20.5 24.5q9 -1 21 -1q11 -1 25.5 -1h34.5h39t27 1q12 0 20 1q-10 -7 -18.5 -19t-8.5 -38q0 -11 1.5 -22.5t5 -28.5t10 -42t16.5 -62l64 -245q3 -12 4.5 -23t3.5 -19q2 -10 3 -17
q1 8 3 17q2 8 3.5 18t5.5 23l126 459q6 -1 13 -1q6 -1 14.5 -1h19.5h18.5t15.5 1q8 0 14 1l124 -460q6 -26 8 -41q1 -9 2 -16q1 7 3 17q2 8 3.5 19t5.5 23l65 234q11 39 18.5 66.5t12.5 46t7 31t2 22.5q0 26 -8.5 38t-18.5 19q8 -1 19 -1q10 -1 24.5 -1h34.5h35t24 1
q11 0 18 1zM603 623q-48 3 -93 23t-69 51q-35 -38 -77.5 -54.5t-84.5 -19.5l137 146h51z" />
    <glyph glyph-name="Ycircumflex" unicode="&#x176;" horiz-adv-x="539" 
d="M559 713q-12 -9 -22 -18.5t-23.5 -30.5t-34.5 -57t-55 -97l-103 -184q0 -96 1 -151t3.5 -85.5t7.5 -44.5t13 -29l9 -17q-7 0 -18 1q-9 0 -23.5 0.5t-34.5 0.5t-35 -0.5t-24 -0.5q-11 -1 -18 -1l9 17q7 13 12 27t8 42.5t4 79t1 136.5l-114 211q-33 62 -53 97.5t-33 55
t-23 29t-23 19.5q8 -1 21 -1q11 -1 29.5 -1h46.5h45.5t28.5 1q12 0 18 1q-12 -11 -17.5 -23t-5.5 -24q0 -11 1.5 -20t7 -22.5t16.5 -35t30 -57.5l77 -147l76 148q18 36 28.5 57.5t15 35t5.5 22t1 19.5q0 12 -5.5 24t-17.5 23q11 -1 23 -1q11 -1 25.5 -1h33.5h40t27 1
q11 0 19 1zM441 752q-48 3 -93 23t-69 51q-35 -38 -77.5 -54.5t-84.5 -19.5l137 146h51z" />
    <glyph glyph-name="ycircumflex" unicode="&#x177;" horiz-adv-x="522" 
d="M532 565q-29 -26 -51.5 -85t-50.5 -139l-152 -433q-12 -35 -28.5 -58.5t-37 -37.5t-45 -19.5t-52.5 -5.5q-23 0 -39 1t-26 3q-11 2 -18 4q0 8 1 17q0 8 0.5 17.5t0.5 20.5t-0.5 22.5t-0.5 19.5q-1 10 -1 19q26 -41 43 -56.5t43 -15.5q38 0 60.5 23t41.5 77l12 34
l-134 366q-20 55 -34 94t-25.5 65t-21 42t-20.5 25q9 -1 21 -1q11 -1 25.5 -1h34.5h39t27 1q12 0 21 1q-10 -7 -18.5 -19t-8.5 -38q0 -11 1.5 -22.5t6 -28.5t12.5 -41.5t21 -61.5l79 -228q6 -18 10.5 -35.5t5.5 -21.5q0 2 3.5 16t10.5 34l71 223q12 39 20.5 66t14 46
t7.5 31.5t2 22.5q0 26 -8.5 38t-18.5 19q8 -1 19 -1q10 -1 24.5 -1h34.5h35t25 1q11 0 18 1zM436 623q-48 3 -93 23t-69 51q-35 -38 -77.5 -54.5t-84.5 -19.5l137 146h51z" />
    <glyph glyph-name="Ydieresis" unicode="&#x178;" horiz-adv-x="539" 
d="M559 713q-12 -9 -22 -18.5t-23.5 -30.5t-34.5 -57t-55 -97l-103 -184q0 -96 1 -151t3.5 -85.5t7.5 -44.5t13 -29l9 -17q-7 0 -18 1q-9 0 -23.5 0.5t-34.5 0.5t-35 -0.5t-24 -0.5q-11 -1 -18 -1l9 17q7 13 12 27t8 42.5t4 79t1 136.5l-114 211q-33 62 -53 97.5t-33 55
t-23 29t-23 19.5q8 -1 21 -1q11 -1 29.5 -1h46.5h45.5t28.5 1q12 0 18 1q-12 -11 -17.5 -23t-5.5 -24q0 -11 1.5 -20t7 -22.5t16.5 -35t30 -57.5l77 -147l76 148q18 36 28.5 57.5t15 35t5.5 22t1 19.5q0 12 -5.5 24t-17.5 23q11 -1 23 -1q11 -1 25.5 -1h33.5h40t27 1
q11 0 19 1zM245 827q0 -25 -15 -39t-39 -14q-21 0 -36 14t-15 38t15 38t38 14q22 0 37 -14t15 -37zM430 827q0 -25 -15 -39t-39 -14q-21 0 -36 14t-15 38t15 38t38 14q22 0 37 -14t15 -37z" />
    <glyph glyph-name="Zacute" unicode="&#x179;" horiz-adv-x="582" 
d="M547 141q-2 -11 -4 -27q-2 -14 -3.5 -35t-3.5 -50l-2 -29h-494v61l388 594h-219q-35 0 -63.5 -6.5t-46.5 -17.5q-20 -12 -27.5 -18.5t-8.5 -8.5q0 1 1.5 16t1.5 44q0 12 -0.5 21t-0.5 15v12h470v-56l-391 -599h226q46 0 74.5 5.5t46.5 16t30 26.5t26 36zM325 898h97
q-5 -11 -15 -25q-8 -12 -23.5 -28t-39.5 -36q-23 -18 -42 -29t-33 -17q-17 -7 -29 -10z" />
    <glyph glyph-name="zacute" unicode="&#x17a;" horiz-adv-x="507" 
d="M462 138q-2 -10 -4 -26q-2 -14 -3.5 -34t-3.5 -49l-2 -29h-399v61l305 448h-141q-25 0 -44.5 -2.5t-36 -9t-30.5 -19t-28 -32.5q0 8 1 18q0 8 0.5 19.5t0.5 24.5q0 14 -0.5 24t-0.5 17q-1 8 -1 14h377v-54l-308 -455h141q46 0 74.5 5.5t46.5 16t30 26.5t26 36zM287 769
h97q-5 -11 -15 -25q-8 -12 -23.5 -28t-39.5 -36q-23 -18 -42 -29t-33 -17q-17 -7 -29 -10z" />
    <glyph glyph-name="Zdotaccent" unicode="&#x17b;" horiz-adv-x="582" 
d="M547 141q-2 -11 -4 -27q-2 -14 -3.5 -35t-3.5 -50l-2 -29h-494v61l388 594h-219q-35 0 -63.5 -6.5t-46.5 -17.5q-20 -12 -27.5 -18.5t-8.5 -8.5q0 1 1.5 16t1.5 44q0 12 -0.5 21t-0.5 15v12h470v-56l-391 -599h226q46 0 74.5 5.5t46.5 16t30 26.5t26 36zM357 830
q0 -29 -16 -44.5t-44 -15.5q-26 0 -42.5 15t-16.5 42q0 29 16 44.5t44 15.5q26 0 42.5 -15t16.5 -42z" />
    <glyph glyph-name="zdotaccent" unicode="&#x17c;" horiz-adv-x="507" 
d="M462 138q-2 -10 -4 -26q-2 -14 -3.5 -34t-3.5 -49l-2 -29h-399v61l305 448h-141q-25 0 -44.5 -2.5t-36 -9t-30.5 -19t-28 -32.5q0 8 1 18q0 8 0.5 19.5t0.5 24.5q0 14 -0.5 24t-0.5 17q-1 8 -1 14h377v-54l-308 -455h141q46 0 74.5 5.5t46.5 16t30 26.5t26 36zM328 716
q0 -29 -16 -44.5t-44 -15.5q-26 0 -42.5 15t-16.5 42q0 29 16 44.5t44 15.5q26 0 42.5 -15t16.5 -42z" />
    <glyph glyph-name="Zcaron" unicode="&#x17d;" horiz-adv-x="582" 
d="M547 141q-2 -11 -4 -27q-2 -14 -3.5 -35t-3.5 -50l-2 -29h-494v61l388 594h-219q-35 0 -63.5 -6.5t-46.5 -17.5q-20 -12 -27.5 -18.5t-8.5 -8.5q0 1 1.5 16t1.5 44q0 12 -0.5 21t-0.5 15v12h470v-56l-391 -599h226q46 0 74.5 5.5t46.5 16t30 26.5t26 36zM437 913
q-41 -38 -74.5 -77t-65.5 -84h-5l-80 77q-8 8 -24 23t-27 23l61 47q7 -11 15.5 -23t16.5 -23l29 -39q11 14 27.5 28t36 25.5t42.5 17.5t48 5z" />
    <glyph glyph-name="zcaron" unicode="&#x17e;" horiz-adv-x="507" 
d="M462 138q-2 -10 -4 -26q-2 -14 -3.5 -34t-3.5 -49l-2 -29h-399v61l305 448h-141q-25 0 -44.5 -2.5t-36 -9t-30.5 -19t-28 -32.5q0 8 1 18q0 8 0.5 19.5t0.5 24.5q0 14 -0.5 24t-0.5 17q-1 8 -1 14h377v-54l-308 -455h141q46 0 74.5 5.5t46.5 16t30 26.5t26 36zM386 769
q-20 -19 -36.5 -36t-31.5 -34t-29 -35.5t-30 -40.5h-5l-68 63q-8 8 -24.5 23t-27.5 23l57 47q7 -11 15.5 -23t18.5 -23l25 -28q23 28 54.5 48.5t81.5 15.5z" />
    <glyph glyph-name="florin" unicode="&#x192;" horiz-adv-x="454" 
d="M445 710q-1 -5 -2 -11q-1 -5 -2.5 -13.5t-2.5 -18.5q-2 -12 -3 -21.5t-1 -16.5q-1 -8 0 -14q-20 35 -43 45.5t-43 10.5q-26 0 -42 -7t-28 -22q-15 -19 -18.5 -44t-8.5 -58l-7 -56h28q29 0 48 1.5t30 3.5q13 3 21 6l-2 -10t-2 -12t-2 -16q-3 -18 -3 -27v-9q-8 2 -21 5
q-11 2 -29.5 4t-46.5 2h-27l-33 -268q-8 -61 -14 -115.5t-20.5 -96t-42 -65.5t-76.5 -24q-22 0 -37 2t-24 4q-11 3 -17 6q1 4 2 9t2 11.5t3 16.5q2 11 2 20t1 16q0 8 1 14q17 -33 33 -43.5t30 -10.5q18 0 29 7.5t17.5 23.5t10 42t8.5 62l47 389h-57l13 11q27 23 39.5 37
t14.5 34l2 16q3 28 9.5 61.5t25 61.5t55 47t99.5 19q23 0 39 -1.5t26 -3.5q11 -2 19 -4z" />
    <glyph glyph-name="Scommaaccent" unicode="&#x218;" horiz-adv-x="519" 
d="M465 175q0 -50 -17 -84.5t-48 -56.5t-74.5 -31.5t-95.5 -9.5q-43 0 -75 4.5t-53 10.5q-25 7 -42 16q0 7 1 16q0 8 0.5 18t0.5 24t-0.5 27.5t-0.5 23.5q-1 11 -1 21q16 -23 32.5 -42t36.5 -32.5t44.5 -20.5t57.5 -7q22 0 48.5 3t49 14t37.5 33t15 61q0 24 -6 42
t-16.5 32.5t-24.5 26t-30 22.5l-91 61q-25 16 -51 34t-47.5 41t-35.5 53.5t-14 72.5q0 32 11.5 63t37 55t67.5 38.5t103 14.5q37 0 66 -5t49 -10q24 -6 41 -14q-1 -7 -1 -16q-1 -8 -1 -19.5v-25.5v-27t1 -21q0 -11 1 -19q-16 23 -32 41.5t-35 31t-41.5 19t-52.5 6.5
q-13 0 -35 -2t-43.5 -11.5t-37 -30.5t-15.5 -59q0 -23 7.5 -40.5t20.5 -32t31 -27.5t39 -27l71 -48q28 -19 55 -37t47.5 -41t33 -53.5t12.5 -75.5zM317 -111q0 -20 -7.5 -40t-22.5 -36.5t-37 -28.5t-50 -16q1 0 8 6t15.5 16.5t15 24.5t6.5 31q0 16 -5.5 25t-12.5 14
q-8 5 -17 7v17q0 45 48 53q26 -5 42.5 -21.5t16.5 -51.5z" />
    <glyph glyph-name="scommaaccent" unicode="&#x219;" horiz-adv-x="466" 
d="M403 155q0 -25 -8 -53t-29 -52t-58.5 -39.5t-96.5 -15.5q-34 0 -60 4.5t-45 10.5q-22 6 -38 15q0 6 1 14q0 7 0.5 17.5t0.5 24.5q0 13 -0.5 24t-0.5 20q-1 10 -1 19q14 -20 27.5 -37.5t30.5 -30.5t38 -20.5t50 -7.5q34 0 55 8t33 20.5t16 28.5t4 32q0 33 -16 53.5
t-45 37.5l-91 55q-13 7 -29.5 17.5t-31.5 27t-25.5 41t-10.5 59.5q0 40 13.5 68t37 45.5t56 25.5t71.5 8q32 0 57.5 -5t42.5 -10q20 -7 36 -15q-1 -6 -1 -14q-1 -7 -1 -17.5v-24.5v-24t1 -19q0 -10 1 -18q-14 20 -28 37.5t-30.5 30.5t-36 20.5t-44.5 7.5q-11 0 -27.5 -1.5
t-32 -9t-27 -23.5t-11.5 -44q0 -35 21 -55.5t61 -43.5l68 -40q46 -27 74.5 -61t28.5 -91zM285 -111q0 -20 -7.5 -40t-22.5 -36.5t-37 -28.5t-50 -16q1 0 8 6t15.5 16.5t15 24.5t6.5 31q0 16 -5.5 25t-12.5 14q-8 5 -17 7v17q0 45 48 53q26 -5 42.5 -21.5t16.5 -51.5z" />
    <glyph glyph-name="uni021A" unicode="&#x21a;" horiz-adv-x="531" 
d="M518 664q0 -29 1.5 -42.5t1.5 -15.5q-1 1 -8 7.5t-28 19.5q-18 11 -46.5 17.5t-63.5 6.5h-67v-306q0 -109 1 -169.5t3.5 -92t7.5 -45t13 -28.5l9 -17q-7 0 -18 1q-9 0 -23.5 0.5t-34.5 0.5t-35 -0.5t-24 -0.5q-11 -1 -18 -1l9 17l9 18t6.5 21.5t4.5 34.5t3 56.5t1.5 87.5
t0.5 127v296h-67q-35 0 -63.5 -6.5t-46.5 -17.5q-20 -12 -27.5 -18.5t-8.5 -8.5q0 1 1.5 15t1.5 43q0 12 -0.5 21t-0.5 15v12h507q-1 -5 -1 -12v-36zM323 -111q0 -20 -7.5 -40t-22.5 -36.5t-37 -28.5t-50 -16q1 0 8 6t15.5 16.5t15 24.5t6.5 31q0 16 -5.5 25t-12.5 14
q-8 5 -17 7v17q0 45 48 53q26 -5 42.5 -21.5t16.5 -51.5z" />
    <glyph glyph-name="uni021B" unicode="&#x21b;" horiz-adv-x="367" 
d="M353 73q-2 -24 -16 -42q-12 -16 -37 -28.5t-73 -12.5q-43 0 -67.5 14.5t-37.5 35.5q-6 9 -10 19.5t-6.5 25t-3.5 34t-1 47.5v165t1 105q1 47 2 73h-64q2 1 22.5 21.5t43.5 58.5q13 20 22 38t15 32q7 16 11 28h31v-126h68q31 0 50 1.5t30 3.5q12 3 18 6q-1 -5 -1 -10v-27
v-27q0 -5 1 -9q-6 2 -18 5q-11 2 -30 3.5t-50 1.5h-68v-350q0 -34 3 -50t10 -30q8 -17 25 -26.5t46 -9.5q21 0 36.5 4.5t26.5 10.5q12 6 21 15zM273 -111q0 -20 -7.5 -40t-22.5 -36.5t-37 -28.5t-50 -16q1 0 8 6t15.5 16.5t15 24.5t6.5 31q0 16 -5.5 25t-12.5 14q-8 5 -17 7
v17q0 45 48 53q26 -5 42.5 -21.5t16.5 -51.5z" />
    <glyph glyph-name="uni0237" unicode="&#x237;" horiz-adv-x="274" 
d="M195 572q-3 -19 -5 -55q-2 -31 -3 -83t-1 -133v-344q0 -30 -2.5 -60.5t-16.5 -55t-43 -39.5t-83 -15h-16q29 14 45 34.5t24 49.5t9.5 68t1.5 91v270q0 65 -1.5 105t-5 64t-8 37t-10.5 24l-9 17l124 25v0z" />
    <glyph glyph-name="circumflex" unicode="&#x2c6;" horiz-adv-x="400" 
d="M362 623q-48 3 -93 23t-69 51q-35 -38 -77.5 -54.5t-84.5 -19.5l137 146h51z" />
    <glyph glyph-name="caron" unicode="&#x2c7;" horiz-adv-x="400" 
d="M326 769q-20 -19 -36.5 -36t-31.5 -34t-29 -35.5t-30 -40.5h-5l-68 63q-8 8 -24.5 23t-27.5 23l57 47q7 -11 15.5 -23t18.5 -23l25 -28q23 28 54.5 48.5t81.5 15.5z" />
    <glyph glyph-name="uni02C9" unicode="&#x2c9;" horiz-adv-x="400" 
d="M63 660v63h274v-63h-274z" />
    <glyph glyph-name="breve" unicode="&#x2d8;" horiz-adv-x="400" 
d="M60 785q26 -37 59.5 -63t80.5 -26t80.5 26t59.5 63q0 -33 -9 -61.5t-26.5 -50t-43.5 -33.5t-61 -12t-61 12t-43.5 33.5t-26.5 50t-9 61.5z" />
    <glyph glyph-name="dotaccent" unicode="&#x2d9;" horiz-adv-x="400" 
d="M259 716q0 -29 -16 -44.5t-44 -15.5q-26 0 -42.5 15t-16.5 42q0 29 16 44.5t44 15.5q26 0 42.5 -15t16.5 -42z" />
    <glyph glyph-name="ring" unicode="&#x2da;" horiz-adv-x="400" 
d="M304 706q0 -48 -30 -73t-74 -25q-45 0 -75 24.5t-30 73.5q0 48 30 73t74 25q45 0 75 -24.5t30 -73.5zM258 706q0 29 -16 44t-43 15q-23 0 -40.5 -14.5t-17.5 -44.5q0 -29 16 -44t43 -15q23 0 40.5 14.5t17.5 44.5z" />
    <glyph glyph-name="ogonek" unicode="&#x2db;" horiz-adv-x="400" 
d="M126 -131q0 31 14.5 55t34 40.5t39.5 27.5t32 17h33q-11 -8 -24.5 -20t-24.5 -27t-18.5 -34t-7.5 -42q0 -30 21 -50.5t66 -26.5q-17 -10 -36 -15.5t-39 -5.5q-18 0 -34 4.5t-28.5 14.5t-20 25.5t-7.5 36.5z" />
    <glyph glyph-name="tilde" unicode="&#x2dc;" horiz-adv-x="400" 
d="M281 702q15 0 28 7t22.5 15t15 15.5t6.5 9.5q0 -55 -25 -81t-60 -26q-15 0 -28 3t-23 7l-58 21q-13 5 -20.5 6.5t-20.5 1.5q-15 0 -28 -7t-22.5 -15.5t-15 -16t-6.5 -9.5q0 56 25 82t60 26q15 0 28 -3t23 -7l58 -21q13 -5 20.5 -6.5t20.5 -1.5z" />
    <glyph glyph-name="hungarumlaut" unicode="&#x2dd;" horiz-adv-x="400" 
d="M109 769h97q-5 -11 -15 -25q-8 -12 -23.5 -28t-39.5 -36q-23 -18 -42 -29t-33 -17q-17 -7 -29 -10zM278 769h97q-5 -11 -15 -25q-8 -12 -23.5 -28t-39.5 -36q-23 -18 -42 -29t-33 -17q-17 -7 -29 -10z" />
    <glyph glyph-name="uni0374" unicode="&#x374;" horiz-adv-x="228" 
d="M178 824q-2 -23 -14.5 -60t-33.5 -78q-17 -32 -38 -60t-42 -45l42 243h86v0z" />
    <glyph glyph-name="uni0375" unicode="&#x375;" horiz-adv-x="228" 
d="M50 -172q2 23 14.5 60t33.5 78q17 32 38 60t42 45l-42 -243h-86z" />
    <glyph glyph-name="uni037A" unicode="&#x37a;" horiz-adv-x="227" 
d="M177 -231q-12 -16 -26.5 -25t-37.5 -9q-29 0 -46 17t-17 60v32t0.5 34t0.5 32v25h70q-1 -11 -1 -25q-1 -12 -1 -29v-38q0 -18 1.5 -31t7.5 -21.5t17.5 -13.5t31.5 -8z" />
    <glyph glyph-name="uni037E" unicode="&#x37e;" horiz-adv-x="239" 
d="M180 16q0 -44 -12 -74.5t-30.5 -49.5t-41 -28t-43.5 -9q1 1 7 6.5t13 17t12.5 30t5.5 44.5q0 27 -5.5 42.5t-11.5 23.5q-8 9 -17 12v19q0 25 15 42.5t44 22.5q36 -6 50 -35t14 -64zM186 499q0 -27 -18.5 -45.5t-47.5 -23.5q-32 5 -49.5 23.5t-17.5 44.5q0 27 18.5 45.5
t47.5 23.5q32 -5 49.5 -23.5t17.5 -44.5z" />
    <glyph glyph-name="tonos" unicode="&#x384;" horiz-adv-x="241" 
d="M191 825q-2 -12 -8 -28q-5 -14 -15.5 -33t-29.5 -44q-18 -23 -34 -38.5t-28 -24.5q-14 -11 -26 -17l46 185h95v0z" />
    <glyph glyph-name="dieresistonos" unicode="&#x385;" horiz-adv-x="465" 
d="M415 691q0 -23 -14 -36.5t-37 -13.5q-20 0 -34.5 13t-14.5 36t14 36.5t37 13.5q20 0 34.5 -13t14.5 -36zM297 804q0 -26 -8.5 -53t-22.5 -52.5t-33 -46.5t-40 -33l9 185h95zM150 691q0 -23 -14 -36.5t-37 -13.5q-20 0 -34.5 13t-14.5 36t14 36.5t37 13.5q20 0 34.5 -13
t14.5 -36z" />
    <glyph glyph-name="Alphatonos" unicode="&#x386;" horiz-adv-x="615" 
d="M614 -1q-10 0 -23 1q-11 0 -28 0.5t-37 0.5t-36.5 -0.5t-27.5 -0.5q-14 -1 -24 -1q10 7 21 21t11 42q0 26 -12 71t-29 101l-20 67h-226l-20 -67q-17 -56 -29 -101t-12 -71q0 -28 11 -42t21 -21q-10 0 -22 1q-11 0 -26 0.5t-35 0.5q-21 0 -36 -0.5t-25 -0.5q-11 -1 -20 -1
q14 13 25 32.5t22.5 47.5t23.5 66.5t29 90.5l133 417q3 9 5.5 18t2.5 19t-2.5 14.5t-4.5 6.5h169q0 -1 -3 -5.5t-3 -15.5q0 -10 2 -19t5 -18l124 -417q15 -52 27 -90.5t22.5 -66.5t21.5 -47.5t25 -32.5zM320 605q-5 14 -8.5 27t-6.5 24q-4 12 -7 24l-97 -319h191zM164 712
q-2 -12 -8 -28q-5 -14 -15.5 -33t-29.5 -44q-18 -23 -34 -38.5t-28 -24.5q-14 -11 -26 -17l46 185h95z" />
    <glyph glyph-name="anoteleia" unicode="&#x387;" horiz-adv-x="239" 
d="M186 397q0 -27 -18.5 -45.5t-47.5 -23.5q-32 5 -49.5 23.5t-17.5 44.5q0 27 18.5 45.5t47.5 23.5q32 -5 49.5 -23.5t17.5 -44.5z" />
    <glyph glyph-name="Epsilontonos" unicode="&#x388;" horiz-adv-x="565" 
d="M502 113q-2 -14 -4 -35t-4 -50l-2 -28h-335q-20 0 -35 -0.5t-24 -0.5h-18l9 17l9 18t6.5 21.5t4.5 34.5t3 56.5t1.5 87.5t0.5 127q0 109 -1 169.5t-3.5 92t-7.5 45t-13 28.5l-9 17q7 -1 18 -1h58h326q-1 -5 -1 -12v-36q0 -29 1.5 -42.5t1.5 -15.5q-1 1 -8 7.5t-28 19.5
q-38 22 -110 22h-138v-270h114q35 0 63.5 4t46.5 15q20 11 27 17.5t9 8.5q0 -1 -1.5 -21t-1.5 -53q0 -32 1.5 -51.5t1.5 -21.5q-1 1 -8 7.5t-28 19.5q-18 11 -46.5 15t-63.5 4h-114v-272h128q46 0 74.5 5.5t46.5 16t30 26t26 35.5zM19 712q-2 -12 -8 -28q-5 -14 -15.5 -33
t-29.5 -44q-18 -23 -34 -38.5t-28 -24.5q-14 -11 -26 -17l46 185h95z" />
    <glyph glyph-name="Etatonos" unicode="&#x389;" horiz-adv-x="745" 
d="M665 -1q-7 0 -18 1q-9 0 -23.5 0.5t-34.5 0.5t-35 -0.5t-24 -0.5q-11 -1 -18 -1l9 17q7 14 12 27.5t8 44.5t4 88.5t1 160.5h-347q0 -103 1 -160.5t3.5 -88.5t7.5 -44t13 -28l9 -17q-7 0 -18 1q-9 0 -23.5 0.5t-34.5 0.5t-35 -0.5t-24 -0.5q-11 -1 -18 -1l9 17l9 18
t6.5 21.5t4.5 34.5t3 56.5t1.5 87.5t0.5 127q0 109 -1 169.5t-3.5 92t-7.5 45t-13 28.5l-9 17q7 -1 18 -1q9 -1 23.5 -1h34.5h34.5t24.5 1q11 0 18 1l-9 -17q-7 -14 -12 -26.5t-8 -41t-4 -81.5t-1 -147h347q0 93 -1 145.5t-4 81t-8 42t-12 27.5l-9 17q7 -1 18 -1
q9 -1 23.5 -1h34.5h34.5t24.5 1q11 0 18 1l-9 -17l-9 -18t-6.5 -21.5t-4.5 -34.5t-3 -56.5t-1.5 -87.5t-0.5 -127q0 -109 1 -169.5t3.5 -92t7.5 -45t13 -28.5zM19 712q-2 -12 -8 -28q-5 -14 -15.5 -33t-29.5 -44q-18 -23 -34 -38.5t-28 -24.5q-14 -11 -26 -17l46 185h95z
" />
    <glyph glyph-name="Iotatonos" unicode="&#x38a;" horiz-adv-x="313" 
d="M233 -1q-7 0 -18 1q-9 0 -23.5 0.5t-34.5 0.5t-35 -0.5t-24 -0.5q-11 -1 -18 -1l9 17l9 18t6.5 21.5t4.5 34.5t3 56.5t1.5 87.5t0.5 127q0 109 -1 169.5t-3.5 92t-7.5 45t-13 28.5l-9 17q7 -1 18 -1q9 -1 23.5 -1h34.5h34.5t24.5 1q11 0 18 1l-9 -17l-9 -18t-6.5 -21.5
t-4.5 -34.5t-3 -56.5t-1.5 -87.5t-0.5 -127q0 -109 1 -169.5t3.5 -92t7.5 -45t13 -28.5zM19 712q-2 -12 -8 -28q-5 -14 -15.5 -33t-29.5 -44q-18 -23 -34 -38.5t-28 -24.5q-14 -11 -26 -17l46 185h95z" />
    </font>
</defs>
</svg>
