<?xml version="1.0" standalone="no"?>
<!DOCTYPE svg PUBLIC "-//W3C//DTD SVG 1.1//EN" "http://www.w3.org/Graphics/SVG/1.1/DTD/svg11.dtd" >
<svg xmlns="http://www.w3.org/2000/svg" xmlns:xlink="http://www.w3.org/1999/xlink" version="1.1">
<metadata>
Created by FontForge 20200427 at Thu Feb 13 18:59:19 2014
 By www
(c) Gerard Unger, 2011. ALL RIGHTS RESERVED. Produced by Tom Grace, 2011. This software is licensed, not sold. Unauthorised use prohibited.
</metadata>
<defs>
<font id="AlverataW06-PERegular" horiz-adv-x="648" >
  <font-face 
    font-family="AlverataW06-PERegular"
    font-weight="400"
    font-stretch="normal"
    units-per-em="1000"
    panose-1="2 3 5 3 6 5 4 2 0 4"
    ascent="787"
    descent="-213"
    x-height="564"
    cap-height="713"
    bbox="-366 -312 1828 985"
    underline-thickness="50"
    underline-position="-90"
    unicode-range="U+0020-FB04"
  />
<missing-glyph horiz-adv-x="500" 
d="M76 0v713h348v-713h-348zM359 65v583h-218v-583h218z" />
    <glyph glyph-name=".notdef" horiz-adv-x="500" 
d="M76 0v713h348v-713h-348zM359 65v583h-218v-583h218z" />
    <glyph glyph-name="glyph1" horiz-adv-x="0" 
 />
    <glyph glyph-name="glyph1" horiz-adv-x="0" 
 />
    <glyph glyph-name="nonmarkingreturn" horiz-adv-x="333" 
 />
    <glyph glyph-name="space" unicode=" " horiz-adv-x="230" 
 />
    <glyph glyph-name="exclam" unicode="!" horiz-adv-x="322" 
d="M231 696q-5 -12 -8 -31.5t-6 -57t-6 -100t-7 -160.5l-7 -172h-73l-6 172q-4 98 -7 160.5t-6 100t-6.5 57t-7.5 31.5l-7 19q8 -1 19 -1q10 -1 24.5 -1h34.5h34.5t23.5 1q11 0 18 1zM225 56q0 -26 -16 -44.5t-47 -23.5q-35 5 -50 23.5t-15 43.5q0 27 16 45t48 23
q35 -5 49.5 -23t14.5 -44z" />
    <glyph glyph-name="quotedbl" unicode="&#x22;" horiz-adv-x="328" 
d="M268 500h-58l-11 220h81zM117 500h-57l-12 220h81z" />
    <glyph glyph-name="numbersign" unicode="#" horiz-adv-x="643" 
d="M605 452h-116l-38 -199h117l-11 -55h-116l-37 -198h-62l37 198h-174l-37 -198h-62l37 198h-116l11 55h116l37 199h-116l11 55h116l37 199h63l-38 -199h173l37 199h63l-37 -199h116zM254 452l-38 -199h173l38 199h-173z" />
    <glyph glyph-name="dollar" unicode="$" horiz-adv-x="523" 
d="M242 -80v73h-12q-45 0 -77 4.5t-54 10.5q-26 7 -43 16q0 6 1 16q0 8 0.5 19.5t0.5 25.5q0 16 -0.5 29.5t-0.5 24.5q-1 12 -1 22q16 -23 32.5 -41.5t36.5 -32t45.5 -21t58.5 -7.5h13v260l-35 23q-26 16 -52 34t-47 41.5t-34.5 53.5t-13.5 72q0 32 10 61t32 52.5t56.5 39.5
t83.5 21v68h44v-66q38 0 68 -5t50 -10q24 -6 41 -14q-1 -7 -1 -17q-1 -8 -1 -20v-27v-29t1 -22q0 -11 1 -20q-16 22 -32 40t-34.5 31t-41 20t-51.5 7v-242l37 -24q29 -19 56 -37t47.5 -41.5t32.5 -54t12 -74.5q0 -45 -13.5 -77.5t-37.5 -54.5t-58 -35t-76 -17v-76h-44z
M286 291v-227q17 3 33 10t28.5 18.5t20 29t7.5 43.5q0 23 -6 40.5t-16.5 31.5t-25 25t-30.5 22zM155 555q0 -21 6.5 -37t18 -29.5t27.5 -25t35 -24.5v211q-15 -3 -30.5 -8.5t-28 -16.5t-20.5 -28t-8 -42z" />
    <glyph glyph-name="percent" unicode="%" horiz-adv-x="586" 
d="M318 569q0 -35 -11.5 -65t-32.5 -52t-50 -34.5t-65 -12.5q-34 0 -62.5 11t-49.5 31.5t-32.5 49t-11.5 63.5q0 74 43 118.5t117 44.5q70 0 112.5 -41.5t42.5 -112.5zM72 0h-75l517 713h73zM582 154q0 -35 -11.5 -65t-32.5 -52t-50.5 -34t-64.5 -12t-63.5 11t-49.5 31
t-32.5 49t-11.5 64q0 73 43 117.5t117 44.5q34 0 63 -11t49.5 -31t32 -48.5t11.5 -63.5zM248 565q0 44 -21 74.5t-67 30.5q-45 0 -65.5 -31.5t-20.5 -75.5q0 -43 20 -73t65 -30t67 30.5t22 74.5zM511 150q0 44 -21 74.5t-66 30.5t-66 -31t-21 -75q0 -43 20 -73t65 -30t67 30
t22 74z" />
    <glyph glyph-name="ampersand" unicode="&#x26;" horiz-adv-x="763" 
d="M742 -1h-20q-10 0 -25 0.5t-34 0.5h-73l-45 45q-22 -16 -55 -28q-28 -11 -70.5 -19.5t-100.5 -8.5q-74 0 -125 15.5t-82.5 41.5t-45.5 61t-14 74t12 70t33.5 54.5t51.5 40.5t66 28l-30 30q-21 21 -36.5 39.5t-25.5 37.5t-14.5 39.5t-4.5 45.5q0 7 2 21.5t8.5 32t19.5 36
t35 33.5t54 24.5t77 9.5q42 0 77 -9.5t60.5 -29t40 -49.5t14.5 -70q0 -37 -12 -66t-32.5 -51.5t-48.5 -38.5t-60 -27l238 -233q8 10 15 26q6 14 11 35t5 50q0 32 -8.5 51.5t-19.5 27.5q8 -1 19 -1q9 -1 21.5 -1h29.5h22.5t15.5 1q7 0 12 1v-6q0 -60 -9.5 -97.5t-23.5 -64.5
q-8 -17 -16.5 -28.5t-15.5 -19.5q-8 -9 -16 -15l14 -15q28 -28 44.5 -44t27.5 -25t18.5 -14t18.5 -11zM402 561q0 31 -9 51.5t-24 32.5t-33.5 17t-37.5 5q-51 0 -75.5 -26t-24.5 -61q0 -23 6.5 -41t17.5 -34.5t26.5 -32l32.5 -32.5l32 -32q27 15 44.5 34t27.5 39.5t13.5 41
t3.5 38.5zM242 346q-48 -26 -67.5 -62t-19.5 -87q0 -67 45 -106.5t148 -39.5q38 0 67 5.5t48 12.5q22 8 37 19z" />
    <glyph glyph-name="quotesingle" unicode="'" horiz-adv-x="178" 
d="M118 500h-58l-12 220h82z" />
    <glyph glyph-name="parenleft" unicode="(" horiz-adv-x="311" 
d="M258 -214q-58 16 -103 74q-19 25 -37.5 61.5t-32.5 88t-23 120t-9 156.5t9 156.5t23 120t32.5 88.5t37.5 62q45 58 103 74q-32 -46 -57 -117q-22 -61 -39.5 -155.5t-17.5 -228.5t17.5 -228t39.5 -155q25 -71 57 -117z" />
    <glyph glyph-name="parenright" unicode=")" horiz-adv-x="311" 
d="M258 287q0 -88 -9 -156.5t-23.5 -120.5t-33 -88.5t-37.5 -61.5q-45 -59 -102 -74q31 46 57 117q21 61 39 155.5t18 228.5q0 133 -18 227.5t-39 155.5q-26 71 -57 117q57 -16 102 -74q19 -25 37.5 -61.5t33 -88t23.5 -120t9 -156.5z" />
    <glyph glyph-name="asterisk" unicode="*" horiz-adv-x="417" 
d="M336 491l-117 97l29 -153h-77l28 153l-116 -97l-37 63l141 53l-141 55l37 62l116 -97l-28 153h77l-29 -153l117 97l36 -62l-140 -55l140 -53z" />
    <glyph glyph-name="plus" unicode="+" 
d="M360 320v-256h-73v256h-242v69h242v255h73v-255h243v-69h-243z" />
    <glyph glyph-name="comma" unicode="," horiz-adv-x="243" 
d="M189 22q0 -47 -13.5 -79t-34 -52t-45.5 -28.5t-48 -8.5q1 1 7.5 6.5t14 17.5t14 31t6.5 46t-6 43.5t-13 24.5q-8 10 -18 13v19q0 28 17 47.5t49 24.5q37 -6 53.5 -34.5t16.5 -70.5z" />
    <glyph glyph-name="hyphen" unicode="-" horiz-adv-x="319" 
d="M39 245v75h241v-75h-241z" />
    <glyph glyph-name="period" unicode="." horiz-adv-x="249" 
d="M197 62q0 -30 -20 -49.5t-52 -24.5q-35 5 -54 24.5t-19 48.5q0 30 20 49.5t52 24.5q36 -5 54.5 -24.5t18.5 -48.5z" />
    <glyph glyph-name="slash" unicode="/" horiz-adv-x="313" 
d="M110 -213h-72l165 1000h73z" />
    <glyph glyph-name="zero" unicode="0" horiz-adv-x="637" 
d="M578 329q0 -30 -3 -66.5t-13 -74.5t-28 -74t-47 -64t-71.5 -45t-101.5 -17q-80 0 -130 32t-78 82t-37.5 111t-9.5 120q0 29 3.5 66t13 74.5t27.5 73.5t47.5 64t72 45t101.5 17q80 0 129.5 -32t77.5 -81.5t37.5 -111t9.5 -119.5zM471 329q0 78 -9 131.5t-27.5 87t-46.5 48
t-65 14.5q-51 0 -81.5 -22t-46.5 -64q-8 -22 -13.5 -48t-8.5 -52t-4.5 -49.5t-1.5 -41.5q0 -78 9 -132t27.5 -87t46 -47.5t65.5 -14.5q51 0 81 21.5t46 62.5q9 22 14.5 48t8.5 52t4.5 50.5t1.5 42.5z" />
    <glyph glyph-name="one" unicode="1" horiz-adv-x="401" 
d="M301 -1q-8 0 -19 1q-10 0 -25.5 0.5t-37.5 0.5q-21 0 -36.5 -0.5t-25.5 -0.5q-12 -1 -20 -1l9 17q5 9 9 17.5t6.5 22t4.5 34.5t3 56.5t1.5 87.5t0.5 127v196q0 11 -4.5 16t-21.5 5h-115q14 25 43.5 37t65 21t72 19.5t65.5 32.5q-3 -40 -5 -94q-2 -46 -3 -112.5t-1 -153.5
q0 -67 0.5 -113t1.5 -77.5t2.5 -50.5t4.5 -31.5t7 -21t9 -18.5z" />
    <glyph glyph-name="two" unicode="2" horiz-adv-x="518" 
d="M415 101q20 11 27 17.5t9 8.5q0 -1 -2.5 -23.5t-4.5 -64.5l-1 -39h-414q0 31 6 56t19 48.5t33 46t47 48.5l79 73q34 32 58.5 57.5t40.5 49.5t23 49.5t7 58.5q0 58 -30.5 90t-96.5 32q-35 0 -60 -5.5t-44 -16.5t-33.5 -27t-28.5 -37q0 7 1 17q0 8 0.5 20t0.5 26
q0 15 -0.5 25.5t-0.5 18.5q-1 8 -1 14q16 8 42 14q22 5 54.5 10t78.5 5q63 0 106 -13t70 -36t38.5 -56t11.5 -72q0 -44 -10.5 -77.5t-31 -62.5t-51 -57.5t-71.5 -62.5l-76 -64q-16 -14 -31 -27.5t-27 -26t-19 -23t-7 -16.5h179q72 0 110 22z" />
    <glyph glyph-name="three" unicode="3" horiz-adv-x="529" 
d="M465 145q0 -48 -12.5 -82t-33.5 -57.5t-47.5 -37.5t-54.5 -21.5t-55.5 -10t-48.5 -2.5q-58 0 -96 13.5t-60 30.5t-31 33t-9 21q16 -9 40 -16q20 -6 49.5 -11t71.5 -5q38 0 71 7t57 23.5t38 45t14 71.5q0 32 -7.5 57.5t-25.5 43t-48.5 26.5t-76.5 9q-33 0 -50.5 -4.5
t-21.5 -6.5q0 5 1 11q0 5 0.5 13.5t0.5 19.5t-0.5 19t-0.5 13q-1 6 -1 11q3 -2 22.5 -6.5t48.5 -4.5t55.5 6.5t46.5 22.5t32 43t12 67q0 56 -29.5 89t-98.5 33q-59 0 -94 -20t-67 -66q0 8 1 18q0 8 0.5 20t0.5 28t-0.5 26t-0.5 17q-1 7 -1 12q17 8 43 14q22 5 53.5 10
t73.5 5q61 0 104 -13t70 -36t39 -54.5t12 -69.5q0 -47 -15 -79.5t-39 -53.5t-54 -32.5t-59 -15.5q22 -1 53 -7t59.5 -24.5t48.5 -52.5t20 -90z" />
    <glyph glyph-name="four" unicode="4" horiz-adv-x="601" 
d="M557 149q-9 2 -21 5q-11 2 -26.5 4t-37.5 2h-10q0 -36 3 -75.5t19 -68.5l9 -17q-7 0 -18 1q-10 0 -25 0.5t-37 0.5q-23 0 -38 -0.5t-24 -0.5q-11 -1 -17 -1l9 17q14 26 18 63t4 81h-326q0 27 2.5 52t13 53t32 59t58.5 70l72 74q46 47 74.5 77.5t45 53t22.5 40.5t6 40
q0 14 -2 23t-4 14q-3 6 -6 10q8 -1 18 -1q8 -1 19.5 -1h25.5h26.5t20.5 1q10 0 18 1v-8q0 -47 -9 -78.5t-31 -60.5t-58 -62.5t-91 -84.5l-75 -71q-33 -31 -58 -64.5t-25 -60.5h231v84q11 2 25.5 7t28.5 12t25.5 14.5t17.5 15.5v-133h10q23 0 38.5 1.5t26.5 3.5q12 3 20 6
q-1 -6 -1 -13v-36v-38q0 -7 1 -11z" />
    <glyph glyph-name="five" unicode="5" horiz-adv-x="551" 
d="M486 181q0 -79 -26 -127.5t-64.5 -75t-83 -35.5t-80.5 -9q-59 0 -95.5 13.5t-56.5 30t-27.5 32t-7.5 20.5q14 -9 35 -15q18 -6 46 -10.5t68 -4.5q99 0 141.5 43.5t42.5 128.5q0 44 -11 74t-32 48.5t-51 26.5t-67 8q-35 0 -60 -4t-42 -9q-19 -6 -32 -13v362h240
q45 0 71.5 1.5t40.5 3.5q17 3 23 6q-1 -6 -1 -13v-37v-39q0 -7 1 -12q-6 2 -23 5q-14 2 -40.5 4t-71.5 2h-163v-205q9 2 24 5q13 2 32.5 4t46.5 2q106 0 164.5 -54.5t58.5 -156.5z" />
    <glyph glyph-name="six" unicode="6" horiz-adv-x="591" 
d="M532 228q0 -55 -14.5 -99t-43.5 -75.5t-72 -48.5t-100 -17q-59 0 -104 19t-75.5 60.5t-46 106t-15.5 155.5t15 155.5t39.5 108.5t55 70.5t61.5 40.5t59.5 18t48.5 4q54 0 86 -13.5t49 -29.5q20 -19 28 -43q-14 7 -32 12q-16 5 -37.5 9t-50.5 4q-39 0 -77.5 -10.5
t-69 -45.5t-50 -100.5t-19.5 -176.5q0 -81 7.5 -135t23.5 -86.5t42 -46t64 -13.5q26 0 48.5 9t39 28.5t26 51t9.5 77.5q0 75 -27 115t-84 40q-23 0 -39 -5.5t-26 -12.5t-15 -13.5t-6 -7.5q0 13 5 30t19 32.5t39 26.5t65 11q85 0 129.5 -55t44.5 -150z" />
    <glyph glyph-name="seven" unicode="7" horiz-adv-x="505" 
d="M475 665q0 -32 -6 -61.5t-17 -59t-26 -61t-33 -66.5l-76 -151q-22 -43 -34 -81.5t-18 -72t-7.5 -63t-1.5 -54.5q0 -17 2 -28t5 -18q3 -8 7 -12q-7 0 -17 1q-8 0 -19 0.5t-25 0.5q-15 0 -27 -0.5t-20 -0.5q-10 -1 -17 -1q0 41 2.5 80.5t11.5 81.5t27 89.5t49 103.5l80 148
q10 18 21 38.5t20 40.5t14.5 37.5t5.5 29.5l-206 1q-72 0 -110 -22q-20 -12 -27.5 -18.5t-8.5 -8.5q0 2 1.5 20t1.5 53q0 17 -0.5 29t-0.5 20q-1 10 -1 16q5 -3 22 -6q14 -2 41 -3.5t72 -1.5h315z" />
    <glyph glyph-name="eight" unicode="8" horiz-adv-x="578" 
d="M518 165q0 -19 -6.5 -48.5t-30 -58t-69.5 -49t-125 -20.5q-61 0 -104.5 12.5t-71 34.5t-40.5 52.5t-13 65.5q0 38 11.5 66.5t29 48.5t38.5 32.5t39.5 20t31.5 10t15 2.5l-25 15q-20 11 -41.5 25.5t-39.5 34t-29.5 45.5t-11.5 60q0 35 12.5 65t38.5 52.5t66 35t95 12.5
q54 0 93.5 -12.5t64.5 -33.5t37 -49.5t12 -61.5q0 -51 -21 -82.5t-46.5 -48.5t-47.5 -23.5t-25 -6.5l26 -15q24 -14 48.5 -30t44 -37t32 -48.5t12.5 -65.5zM401 518q0 14 -3.5 32t-15.5 33.5t-35 26.5t-61 11q-41 0 -64 -10.5t-34.5 -25.5t-14.5 -31t-3 -27q0 -20 6 -35
t18 -27.5t29.5 -24.5t39.5 -25l56 -33q23 9 41 27q15 15 28 41t13 68zM417 159q0 41 -27 68.5t-75 54.5l-58 34q-28 -9 -49 -28q-18 -17 -33 -45.5t-15 -73.5q0 -38 12 -62t30.5 -37t41.5 -17.5t45 -4.5q15 0 37 2.5t42.5 13.5t34.5 33.5t14 61.5z" />
    <glyph glyph-name="nine" unicode="9" horiz-adv-x="591" 
d="M526 334q0 -91 -14.5 -156t-38 -109t-54 -70.5t-61.5 -40.5t-61 -18t-53 -4q-56 0 -89 14.5t-50 31.5q-20 20 -27 46q13 -9 31 -15q15 -5 37 -9.5t51 -4.5q41 0 81 10t71.5 44.5t51 100.5t19.5 177q0 80 -7 134t-23.5 86.5t-42.5 46t-63 13.5q-26 0 -48.5 -9t-39 -28.5
t-26 -51.5t-9.5 -78q0 -75 27.5 -115t84.5 -40q23 0 39 5.5t26 12.5t15 13t6 7q0 -12 -5 -29t-19 -32.5t-39 -26.5t-65 -11q-85 0 -130 55.5t-45 150.5q0 55 14.5 99t43.5 75t72 48t100 17q59 0 104 -18.5t75 -59t45.5 -105t15.5 -156.5z" />
    <glyph glyph-name="colon" unicode=":" horiz-adv-x="249" 
d="M197 497q0 -30 -20 -49.5t-52 -24.5q-35 5 -54 24.5t-19 48.5q0 30 20 49.5t52 24.5q36 -5 54.5 -24.5t18.5 -48.5zM197 62q0 -30 -20 -49.5t-52 -24.5q-35 5 -54 24.5t-19 48.5q0 30 20 49.5t52 24.5q36 -5 54.5 -24.5t18.5 -48.5z" />
    <glyph glyph-name="semicolon" unicode=";" horiz-adv-x="249" 
d="M192 22q0 -47 -13.5 -79t-34 -52t-45.5 -28.5t-48 -8.5q1 1 7.5 6.5t14 17.5t14 31t6.5 46t-6 43.5t-13 24.5q-8 10 -18 13v19q0 28 17 47.5t49 24.5q37 -6 53.5 -34.5t16.5 -70.5zM197 497q0 -30 -20 -49.5t-52 -24.5q-35 5 -54 24.5t-19 48.5q0 30 20 49.5t52 24.5
q36 -5 54.5 -24.5t18.5 -48.5z" />
    <glyph glyph-name="less" unicode="&#x3c;" 
d="M42 323v67l558 249v-78l-463 -203l463 -202v-82z" />
    <glyph glyph-name="equal" unicode="=" 
d="M45 444v69h558v-69h-558zM45 194v69h558v-69h-558z" />
    <glyph glyph-name="greater" unicode="&#x3e;" 
d="M48 74v82l463 202l-463 203v78l558 -249v-67z" />
    <glyph glyph-name="question" unicode="?" horiz-adv-x="486" 
d="M436 546q0 -57 -28 -105.5t-76 -101.5l-51 -57q-13 -14 -21 -23.5t-13 -17.5t-7 -15t-2 -16q0 -15 7 -25l8 -10h-90q-1 4 -2 11t-1 18q1 32 11 55.5t35 53.5l71 89q27 34 38 65.5t11 67.5q0 60 -30.5 91.5t-95.5 31.5q-35 0 -60 -6t-44 -17t-33.5 -27t-28.5 -37q0 7 1 17
q0 8 0.5 20t0.5 27t-0.5 25.5t-0.5 18.5q-1 8 -1 14q16 8 42 15q21 5 54 10t79 5q117 0 172 -47.5t55 -129.5zM269 56q0 -26 -16 -44.5t-47 -23.5q-35 5 -50 23.5t-15 43.5q0 27 16 45t48 23q35 -5 49.5 -23t14.5 -44z" />
    <glyph glyph-name="at" unicode="@" horiz-adv-x="1058" 
d="M1001 379q0 -54 -10 -106.5t-31 -99t-53 -83.5t-75 -59q-26 -14 -52 -22t-48.5 -12.5t-40.5 -5.5t-28 -1q-16 0 -29 2t-22.5 8t-14.5 17t-5 30q0 14 2 31t5 32t5.5 26.5t3.5 15.5q-19 -55 -42 -87t-46.5 -49t-47 -22t-42.5 -5q-44 0 -74 15t-49 43t-27 66.5t-8 85.5
q0 22 2.5 58.5t12 79t27 85.5t48 78.5t75.5 57.5t109 22q33 0 56.5 -7.5t39.5 -15.5q18 -11 30 -23l85 47q-4 -21 -9 -60q-5 -33 -13 -87.5t-19 -137.5l-32 -250q58 1 102 27t73 70.5t43.5 103t14.5 124.5q0 79 -23 143.5t-68.5 110t-113 70t-155.5 24.5q-101 0 -179 -31.5
t-131.5 -90t-81.5 -142t-28 -188.5q0 -46 6.5 -94t23 -94t45.5 -86.5t74 -71t108.5 -48.5t148.5 -18q71 0 125 12t93.5 30t66 39.5t43 40t24 32t8.5 15.5q0 -27 -14.5 -67t-55 -77t-113.5 -63.5t-191 -26.5q-126 0 -216.5 36.5t-148 100t-84.5 149.5t-27 186q0 70 14.5 144
t50.5 141.5t97 122t154 84.5q47 15 95.5 21.5t105.5 6.5q84 0 162 -24.5t138 -74t95.5 -125.5t35.5 -179zM649 493q-8 7 -20 12q-11 5 -28 8.5t-43 3.5q-43 0 -73 -16.5t-51 -43.5t-33.5 -61t-19.5 -69t-9 -67.5t-2 -56.5q0 -68 22 -105.5t75 -37.5q10 0 25.5 2.5t33.5 12.5
t38 30t40 54z" />
    <glyph glyph-name="A" unicode="A" horiz-adv-x="629" 
d="M629 -1q-11 0 -26 1q-13 0 -30.5 0.5t-40.5 0.5q-21 0 -38 -0.5t-30 -0.5q-15 -1 -27 -1q10 7 21 21t11 42q0 26 -12 69.5t-27 97.5l-18 63h-223l-18 -63q-16 -54 -27.5 -97.5t-11.5 -69.5q0 -28 11.5 -42t21.5 -21q-11 0 -24 1q-12 0 -28.5 0.5t-36.5 0.5
q-22 0 -37.5 -0.5t-26.5 -0.5q-12 -1 -21 -1q14 13 25 32.5t22 47.5t23 66.5t29 90.5l130 417q3 9 5.5 18t2.5 19t-2.5 14.5t-4.5 6.5h189q0 -1 -3 -5.5t-3 -15.5q0 -10 2 -19t5 -18l122 -417q15 -52 27 -90.5t22.5 -66.5t21.5 -47.5t25 -32.5zM323 602q-8 30 -13.5 49
t-7.5 26q-2 -5 -7 -24t-15 -51l-72 -244h186z" />
    <glyph glyph-name="B" unicode="B" horiz-adv-x="605" 
d="M553 194q0 -38 -10 -67.5t-26 -50.5t-36 -35t-40 -22q-17 -7 -34.5 -11t-38 -6t-45.5 -2.5t-58 -0.5q-26 0 -54.5 1t-54.5 1q-21 0 -36 -0.5t-25 -0.5q-11 -1 -19 -1l9 17q5 9 9 17.5t6.5 22t4.5 34.5t3 56.5t1.5 87.5t0.5 127q0 109 -1 169.5t-3.5 92t-7.5 45t-13 28.5
l-9 17q8 -1 19 -1q9 -1 21.5 -1h28.5q23 0 52.5 1t51.5 1q55 0 105.5 -4.5t89 -22t61.5 -52t23 -94.5q0 -40 -12.5 -70t-33.5 -51.5t-48 -34t-57 -18.5q27 0 58 -8.5t57 -28t43.5 -52.5t17.5 -83zM421 530q0 42 -13.5 66t-36 37t-51.5 16.5t-59 3.5q-11 0 -20 -0.5t-17 -0.5
q-9 -1 -17 -1v-258q6 -1 15 -1q8 -1 19 -1h25q9 0 27 1.5t31 3.5q39 5 68 38t29 96zM445 199q0 42 -13.5 68t-37.5 40t-56 19t-69 5q-12 0 -23 -0.5t-20 -0.5q-11 -1 -19 -1v-268q5 -1 14 -1q8 -1 20.5 -1h32.5q38 0 63.5 4t39.5 11q9 4 21 12t22.5 22t17.5 36t7 55z" />
    <glyph glyph-name="C" unicode="C" horiz-adv-x="632" 
d="M593 22q-21 -9 -48 -15q-23 -5 -57.5 -9.5t-77.5 -4.5q-81 0 -138.5 18t-96.5 47.5t-62.5 67t-36 77t-16 77.5t-3.5 67q0 180 94 276t266 96q48 0 81 -5t54 -10q25 -6 41 -14q-1 -7 -1 -17q-1 -8 -1 -20v-28v-28.5t1 -21.5q0 -11 1 -20q-16 23 -32 41.5t-35.5 31
t-45.5 19t-62 6.5q-38 0 -82.5 -11t-82.5 -43t-63 -91t-25 -156q0 -60 11 -113.5t39 -93t76.5 -63t122.5 -23.5q37 0 64 7t47 20t36 31.5t32 41.5q-1 -10 -1 -22q-1 -11 -1 -24.5v-29.5v-25.5t1 -19.5q0 -10 1 -16z" />
    <glyph glyph-name="D" unicode="D" horiz-adv-x="727" 
d="M671 372q0 -92 -20.5 -155.5t-53.5 -105t-75 -64.5t-85.5 -34t-85 -13t-72.5 -2q-32 0 -62 1.5t-59 1.5q-21 0 -36 -0.5t-26 -0.5q-12 -1 -20 -1l9 17q5 9 9 17.5t6.5 22t4.5 34.5t3 56.5t1.5 87.5t0.5 127q0 109 -1 169.5t-3.5 92t-7.5 45t-13 28.5l-9 17q8 -1 20 -1
q11 -1 26 -1h36q30 0 67 1.5t69 1.5q25 0 63 -2t80 -12.5t84 -31.5t75 -59t54 -96t21 -141zM562 360q0 96 -24.5 153.5t-64 88t-90.5 40t-103 9.5q-15 0 -27.5 -0.5t-21.5 -1.5q-11 -1 -20 -1v-584q10 -1 21 -2q9 -1 21 -1h24q49 0 100 8.5t92 39t67 90t26 161.5z" />
    <glyph glyph-name="E" unicode="E" horiz-adv-x="566" 
d="M509 147q-1 -11 -3 -28q-2 -14 -4 -36.5t-4 -52.5l-2 -30h-343q-20 0 -35 -0.5t-24 -0.5h-18l9 17q5 9 9 17.5t6.5 22t4.5 35t3 56.5t1.5 87t0.5 127q0 109 -1 169.5t-3.5 92t-7.5 45t-13 28.5l-9 17q7 -1 18 -1h58h334q-1 -6 -1 -13v-39q0 -30 1.5 -44.5t1.5 -16.5
q-1 1 -8 7.5t-28 19.5q-38 22 -110 22h-132v-259h108q35 0 63.5 4t46.5 15q20 11 27 17.5t9 8.5q0 -1 -1.5 -21.5t-1.5 -56.5q0 -35 1.5 -55t1.5 -22q-1 1 -8 7.5t-28 19.5q-18 11 -46.5 15t-63.5 4h-108v-261h122q46 0 74.5 5.5t46.5 16t30 26t26 35.5z" />
    <glyph glyph-name="F" unicode="F" horiz-adv-x="516" 
d="M485 660q0 -30 1.5 -44.5t1.5 -16.5q-1 1 -8 7.5t-28 19.5q-38 22 -110 22h-132v-262h108q35 0 63.5 4t46.5 15q20 11 27 17.5t9 8.5q0 -1 -1.5 -21t-1.5 -56q0 -35 1.5 -55t1.5 -22q-1 1 -8 7.5t-28 19.5q-18 11 -46.5 15t-63.5 4h-108q0 -97 1 -151.5t3.5 -84t7.5 -43
t13 -28.5l9 -17q-8 0 -19 1q-10 0 -26 0.5t-38 0.5q-23 0 -38.5 -0.5t-26.5 -0.5q-12 -1 -20 -1l9 17q5 9 9 17.5t6.5 22t4.5 35t3 56.5t1.5 87t0.5 127q0 109 -1 169.5t-3.5 92t-7.5 45t-13 28.5l-9 17q7 -1 18 -1h58h334q-1 -6 -1 -13v-39z" />
    <glyph glyph-name="G" unicode="G" horiz-adv-x="701" 
d="M635 314q-7 -13 -12 -26.5t-8 -41.5t-4 -79t-1 -139v-6q-21 -9 -49 -15q-24 -5 -58 -9.5t-79 -4.5q-81 0 -140 17.5t-99.5 46.5t-65.5 66.5t-39 76.5t-18.5 77.5t-4.5 69.5q0 89 25 158.5t73 117t117.5 72t158.5 24.5q49 0 83.5 -5t57.5 -10q26 -6 43 -14q-1 -7 -2 -17
q-1 -8 -1 -20v-28v-28.5t1 -21.5q1 -11 2 -20q-17 24 -33.5 42t-37.5 30.5t-48.5 19t-64.5 6.5q-39 0 -85.5 -10t-86.5 -41.5t-67 -91t-27 -159.5q0 -62 11.5 -115t41 -92.5t79.5 -62t128 -22.5q43 0 66 3q13 2 22 4q0 67 -1 109.5t-4 68.5t-8 41.5t-12 28.5l-10 17
q8 -1 19 -1q10 -1 25.5 -1h37.5h38t26 1q11 0 20 1z" />
    <glyph glyph-name="H" unicode="H" horiz-adv-x="749" 
d="M673 -1q-8 0 -19 1q-10 0 -26 0.5t-38 0.5q-23 0 -38 -0.5t-26 -0.5q-12 -1 -20 -1l9 17q7 14 12 27t8 43.5t4 87t1 156.5h-331q0 -67 0.5 -113.5t1.5 -78t2.5 -51t4.5 -32t7 -21t9 -18.5l9 -17q-8 0 -19 1q-10 0 -26 0.5t-38 0.5q-23 0 -38 -0.5t-26 -0.5q-12 -1 -20 -1
l9 17q5 9 9 17.5t6.5 22t4.5 35t3 56.5t1.5 87t0.5 127q0 109 -1 169.5t-3.5 92t-7.5 45t-13 28.5l-9 17q8 -1 19 -1q10 -1 25.5 -1h38.5h38t26 1q11 0 20 1l-9 -17q-5 -9 -8.5 -17t-6.5 -20t-5 -30.5t-3 -47.5t-1.5 -72.5t-0.5 -104.5h331q0 92 -1 143.5t-4 80t-8 41.5
t-12 27l-9 17q8 -1 19 -1q10 -1 25.5 -1h38.5h38t26 1q11 0 20 1l-9 -17l-9 -18t-6.5 -21.5t-4.5 -35t-3 -56.5t-1.5 -87t-0.5 -127q0 -109 1 -169.5t3.5 -92t7.5 -45t13 -28.5z" />
    <glyph glyph-name="I" unicode="I" horiz-adv-x="319" 
d="M243 -1q-8 0 -19 1q-10 0 -26 0.5t-38 0.5q-23 0 -38 -0.5t-26 -0.5q-12 -1 -20 -1l9 17q5 9 9 17.5t6.5 22t4.5 35t3 56.5t1.5 87t0.5 127q0 109 -1 169.5t-3.5 92t-7.5 45t-13 28.5l-9 17q8 -1 19 -1q10 -1 25.5 -1h38.5h38t26 1q11 0 20 1l-9 -17l-9 -18t-6.5 -21.5
t-4.5 -35t-3 -56.5t-1.5 -87t-0.5 -127q0 -109 1 -169.5t3.5 -92t7.5 -45t13 -28.5z" />
    <glyph glyph-name="J" unicode="J" horiz-adv-x="323" 
d="M244 696q-5 -9 -9 -17.5t-6.5 -22t-4.5 -35t-3 -57t-1.5 -87.5t-0.5 -127v-388q0 -32 -3.5 -63.5t-19 -56t-47.5 -40t-89 -15.5h-20q29 14 45 34.5t24 49.5t9.5 68t1.5 91v330q0 109 -1 169.5t-3.5 92.5t-7.5 45.5t-13 28.5l-9 17q8 -1 19 -1q10 -1 25.5 -1h38.5h38t26 1
q11 0 20 1z" />
    <glyph glyph-name="K" unicode="K" horiz-adv-x="629" 
d="M642 713q-17 -11 -55 -46.5t-112 -112.5l-167 -172l167 -209q37 -47 64 -78t45.5 -50.5t31.5 -29.5t24 -16h-22q-11 0 -28 0.5t-39 0.5h-72l-271 357q0 -108 1 -169.5t3.5 -94.5t7.5 -47.5t13 -29.5l9 -17q-8 0 -19 1q-10 0 -25.5 0.5t-37.5 0.5q-23 0 -38 -0.5t-26 -0.5
q-12 -1 -20 -1l9 17q5 9 9 17.5t6.5 22t4.5 34.5t3 56.5t1.5 87.5t0.5 127q0 109 -1 169.5t-3.5 92t-7.5 45t-13 28.5l-9 17q8 -1 19 -1q10 -1 25.5 -1h38.5h38.5t25.5 1q11 0 19 1l-9 -17q-5 -9 -8.5 -17.5t-6.5 -21.5t-5 -33.5t-3 -54t-1.5 -83t-0.5 -119.5l166 186
q24 27 40 45.5t25.5 32t13.5 23.5t4 21q0 24 -21 38q11 -1 25 -1q12 -1 29.5 -1h40.5h48.5t34.5 1q16 0 28 1z" />
    <glyph glyph-name="L" unicode="L" horiz-adv-x="491" 
d="M465 147q-1 -11 -3 -28q-2 -14 -4 -36.5t-4 -52.5l-2 -30h-299q-20 0 -35 -0.5t-24 -0.5h-18l9 17q5 9 9 17.5t6.5 22t4.5 35t3 56.5t1.5 87t0.5 127q0 109 -1 169.5t-3.5 92t-7.5 45t-13 28.5l-9 17q8 -1 19 -1q10 -1 25.5 -1h38.5h38.5t26.5 1q12 0 20 1l-9 -17
q-8 -14 -12.5 -28t-7.5 -46t-4 -93t-1 -169v-296h78q46 0 74.5 5.5t46.5 16t30 26t26 35.5z" />
    <glyph glyph-name="M" unicode="M" horiz-adv-x="831" 
d="M753 -1q-7 0 -18 1q-10 0 -25 0.5t-37 0.5q-23 0 -38.5 -0.5t-26.5 -0.5q-12 -1 -20 -1l9 17q5 10 9 18.5t7 22t4.5 34.5t2.5 56t1.5 87t0.5 127v299q-1 -5 -7 -27.5t-16 -45.5l-196 -468l-193 464q-5 11 -9.5 23.5t-7.5 23.5t-5.5 18.5t-2.5 9.5v-307q0 -73 0.5 -123
t1.5 -84t2.5 -54.5t4.5 -33.5t6.5 -21.5t9.5 -18.5l9 -17q-8 0 -19 1q-9 0 -22.5 0.5t-31.5 0.5q-19 0 -32 -0.5t-21 -0.5q-10 -1 -17 -1l9 17q5 9 8.5 17.5t6 22t4.5 34.5t3 56.5t1.5 87.5t0.5 127q0 109 -1 169.5t-3.5 92t-7 45t-12.5 28.5l-9 17q11 -1 26 -1
q13 -1 30.5 -1h38.5h35.5t26.5 1q13 1 23 2l148 -358q6 -17 9 -24.5t3 -9.5q0 1 2 9.5t10 25.5l150 355q11 -1 25 -1q11 -1 27 -1h35h36.5t27.5 1q13 1 24 2l-9 -17q-5 -9 -9 -17.5t-6.5 -22t-4.5 -34.5t-3 -56.5t-1.5 -87.5t-0.5 -127q0 -109 1 -169.5t3.5 -92t7.5 -45
t13 -28.5z" />
    <glyph glyph-name="N" unicode="N" horiz-adv-x="739" 
d="M661 696q-5 -9 -8.5 -17t-6 -21.5t-4.5 -35t-3 -57t-1.5 -87.5t-0.5 -127l-1 -353q-7 0 -16 1q-8 1 -19.5 1.5t-25.5 0.5q-17 0 -29.5 -0.5t-20.5 -1.5q-10 -1 -17 -1l-296 563q-11 22 -18 43t-8 26v-279q0 -109 1 -169.5t3.5 -92t7.5 -45t13 -28.5l9 -17q-8 0 -19 1
q-9 0 -23 0.5t-32 0.5q-19 0 -32.5 -0.5t-21.5 -0.5q-11 -1 -17 -1l9 17q5 9 8.5 17t6.5 21.5t5 35t3.5 57t2 87.5t0.5 127q0 109 -1 169.5t-3.5 92t-7.5 45t-13 28.5l-9 17q7 -1 18 -1q10 -1 26.5 -1h40.5h33t24 1q11 0 19 1l294 -559q16 -32 23 -51q4 -11 6 -20v278
q0 109 -1 169.5t-3.5 92t-7.5 45t-13 28.5l-9 17q7 -1 18 -1q9 -1 22 -1h32h32.5t22.5 1q11 0 17 1z" />
    <glyph glyph-name="O" unicode="O" horiz-adv-x="749" 
d="M692 369q0 -22 -2.5 -58.5t-13 -79t-30.5 -85.5t-55.5 -78.5t-88.5 -57.5t-128 -22q-77 0 -136 25.5t-99 71.5t-61 110.5t-21 143.5q0 22 2.5 58.5t12.5 79t30.5 85.5t56 78.5t88.5 57.5t128 22q76 0 135.5 -25.5t99.5 -71.5t61 -110.5t21 -143.5zM582 358
q0 84 -17 140.5t-45.5 91t-66 49t-79.5 14.5q-40 0 -77.5 -15t-66 -50.5t-46 -93.5t-17.5 -144q0 -84 17 -140.5t45.5 -91t66 -49t79.5 -14.5q40 0 77.5 15t66.5 50.5t46 93.5t17 144z" />
    <glyph glyph-name="P" unicode="P" horiz-adv-x="568" 
d="M533 505q0 -71 -25 -114.5t-63 -67t-83.5 -31t-85.5 -7.5q-14 0 -26.5 0.5t-21.5 1.5q-11 1 -19 2q0 -81 1 -128t3.5 -74t7.5 -41.5t13 -29.5l9 -17q-8 0 -19 1q-10 0 -26 0.5t-38 0.5q-23 0 -38 -0.5t-26 -0.5q-12 -1 -20 -1l9 17q5 9 9 17.5t6.5 22t4.5 34.5t3 56.5
t1.5 87.5t0.5 127q0 109 -1 169.5t-3.5 92t-7.5 45t-13 28.5l-9 17q7 -1 18 -1q9 -1 21.5 -1h28.5q32 0 64.5 1t54.5 1q23 0 52.5 -1.5t59.5 -8t58.5 -19.5t50.5 -36t35.5 -58t13.5 -85zM425 506q0 49 -15.5 78t-39.5 44.5t-53 20t-55 4.5q-12 0 -21.5 -0.5t-16.5 -0.5
q-8 -1 -15 -1v-303q5 -1 13 -2q7 -1 18.5 -1h28.5q56 0 87.5 17t46.5 41.5t18.5 52.5t3.5 50z" />
    <glyph glyph-name="Q" unicode="Q" horiz-adv-x="749" 
d="M692 371q0 -60 -11 -120.5t-39 -112t-77 -88t-125 -48.5q2 -1 24 -16.5t71 -41.5q29 -15 59.5 -25.5t47.5 -10.5q9 0 15 0.5t11 1.5l8 2l-52 -125l-17 22q-8 10 -24 19t-40.5 21t-58 30t-75.5 46q-51 33 -69 51l-20 20q-125 19 -194 108t-69 237q0 21 2.5 57t12.5 78.5
t30.5 85.5t56 78.5t88.5 57.5t128 22q76 0 135.5 -25.5t99.5 -71.5t61 -110t21 -142zM582 359q0 84 -17 140t-45.5 90.5t-66 49t-79.5 14.5q-40 0 -77.5 -15t-66 -50.5t-46 -93t-17.5 -142.5q0 -83 17 -139.5t45.5 -91t66 -49t79.5 -14.5q40 0 77.5 15t66.5 50.5t46 93
t17 142.5z" />
    <glyph glyph-name="R" unicode="R" horiz-adv-x="610" 
d="M626 4q-5 -2 -13 -4t-19.5 -3t-29.5 -1q-26 0 -44.5 6t-34 18.5t-30 32.5t-32.5 47l-72 111q-23 36 -38.5 58.5t-28 35.5t-26.5 17.5t-34 4.5q-4 0 -7 -0.5t-5 -0.5h-5q0 -95 1 -150t3.5 -85.5t7.5 -45t13 -29.5l9 -17q-8 0 -19 1q-10 0 -25.5 0.5t-37.5 0.5t-37.5 -0.5
t-25.5 -0.5q-12 -1 -20 -1l9 17q5 9 8.5 17.5t6.5 22t5 34.5t3 56.5t1.5 87.5t0.5 127q0 109 -1 169.5t-3.5 92t-7.5 45t-13 28.5l-9 17q9 -1 20 -1q9 -1 21.5 -1h28.5q22 0 55 1t60 1q43 0 90.5 -4t86.5 -22t64.5 -54t25.5 -100q0 -30 -9.5 -64t-34.5 -62t-67.5 -46
t-108.5 -17q32 -4 55 -15t41.5 -28.5t35 -42.5t36.5 -57l48 -79q26 -44 48.5 -74t53.5 -44zM420 522q0 44 -12.5 70t-34.5 39.5t-52 17.5t-64 4q-11 0 -19.5 -0.5t-15.5 -0.5q-8 -1 -15 -1v-264q6 -1 15 -1q8 -1 18.5 -1h24.5q9 0 28 1t32 3q39 6 67 38.5t28 94.5z" />
    <glyph glyph-name="S" unicode="S" horiz-adv-x="523" 
d="M472 180q0 -52 -17.5 -87.5t-49.5 -57.5t-76.5 -32t-97.5 -10q-45 0 -77 4.5t-54 10.5q-26 7 -43 16q0 6 1 16q0 8 0.5 19.5t0.5 25.5q0 16 -0.5 29.5t-0.5 24.5q-1 12 -1 22q16 -23 32.5 -41.5t36.5 -32t45.5 -21t58.5 -7.5q22 0 47.5 3t47.5 14t36 32t14 57
q0 23 -6 40.5t-16.5 31.5t-24.5 25t-30 22l-90 58q-26 16 -52 34t-47 41.5t-34.5 53.5t-13.5 72q0 35 12 67t39 56t70 38.5t104 14.5q38 0 68 -5t50 -10q24 -6 42 -14q-1 -7 -1 -17q-1 -8 -1 -20v-27v-29t1 -22q0 -11 1 -20q-16 23 -32 41t-35 31t-42 19.5t-53 6.5
q-15 0 -36.5 -2t-41.5 -12t-34.5 -29.5t-14.5 -54.5q0 -23 7 -39.5t20 -30t30.5 -26t38.5 -26.5l71 -46q29 -19 56 -37t47.5 -41.5t32.5 -54t12 -74.5z" />
    <glyph glyph-name="T" unicode="T" horiz-adv-x="541" 
d="M528 660q0 -30 1.5 -44.5t1.5 -16.5q-1 1 -8 7.5t-28 19.5q-18 11 -46.5 17.5t-63.5 6.5h-65v-299q0 -109 1 -169.5t3.5 -92t7.5 -45t13 -28.5l9 -17q-8 0 -19 1q-10 0 -26 0.5t-38 0.5q-23 0 -38 -0.5t-26 -0.5q-12 -1 -20 -1l9 17q5 9 9 17.5t6.5 22t4.5 35t3 56.5
t1.5 87t0.5 127v289h-65q-35 0 -63.5 -6.5t-46.5 -17.5q-20 -12 -27.5 -18.5t-8.5 -8.5q0 1 1.5 16t1.5 45q0 14 -0.5 23t-0.5 16v13h517q-1 -6 -1 -13v-39z" />
    <glyph glyph-name="U" unicode="U" horiz-adv-x="726" 
d="M653 696q-7 -13 -12 -26t-8 -41.5t-4 -81t-1 -145.5v-63q0 -48 -1 -84t-4 -64.5t-9.5 -50.5t-18.5 -41q-28 -49 -81 -79t-149 -30q-75 0 -131.5 20t-91.5 68q-13 18 -21.5 36.5t-13.5 43.5t-7 58.5t-2 80.5v78q0 100 -1 157.5t-3.5 88.5t-7.5 45.5t-13 29.5l-9 17
q8 -1 20 -1q11 -1 26.5 -1h37.5h38t27 1q12 0 20 1l-9 -17q-7 -13 -12 -26t-8 -41.5t-4 -81t-1 -145.5v-139q0 -23 2 -49.5t6 -43.5q29 -113 163 -113q136 0 164 115q4 17 6 39.5t2 44.5v105q0 109 -1 169.5t-3.5 92t-7.5 45t-13 28.5l-9 17q6 -1 17 -1q9 -1 23 -1h36h37
t24 1q11 0 17 1z" />
    <glyph glyph-name="V" unicode="V" horiz-adv-x="621" 
d="M640 713q-14 -14 -25.5 -33t-23 -47t-25 -66.5t-30.5 -90.5l-158 -477q-8 0 -19 1q-9 0 -20.5 0.5t-25.5 0.5t-25.5 -0.5t-20.5 -0.5q-11 -1 -20 -1l-156 477q-17 52 -30 90.5t-24 66.5t-22.5 47t-25.5 33q11 -1 25 -1q12 -1 29.5 -1h39.5h44.5t32.5 1q15 0 26 1
q-10 -7 -21 -21t-11 -42q0 -26 12.5 -69t29.5 -98l117 -378q5 -19 8 -31.5t4 -15.5q0 2 3 14.5t10 32.5l115 378q17 56 29.5 98.5t12.5 68.5q0 28 -11 42t-21 21q10 -1 23 -1q11 -1 28 -1h38h38.5t27.5 1q13 0 22 1z" />
    <glyph glyph-name="W" unicode="W" horiz-adv-x="1031" 
d="M1039 713q-14 -14 -25 -33t-22 -46.5t-22.5 -66.5t-26.5 -91l-132 -477q-8 0 -18 1q-9 0 -21 0.5t-26 0.5q-16 0 -28.5 -0.5t-21.5 -0.5q-11 -1 -20 -1l-152 585q-5 19 -6.5 31.5t-1.5 15.5q-1 -3 -3 -15.5t-7 -32.5l-141 -584q-8 0 -19 1q-9 0 -21.5 0.5t-27.5 0.5
t-28 -0.5t-22 -0.5q-11 -1 -20 -1l-133 477q-14 52 -25.5 91t-22.5 66.5t-22 46.5t-25 33q11 -1 25 -1q12 -1 29 -1h39h44.5t32.5 1q15 0 26 1q-10 -7 -21 -21t-11 -42q0 -26 11 -68.5t25 -98.5l97 -378q5 -19 7 -31t3 -15q0 2 2.5 14t7.5 32l147 608q9 -1 20 -1q9 -1 20 -1
h24h23.5t20.5 1q11 0 19 1l157 -607l10 -52q0 2 2.5 17t7.5 35l94 377q14 57 24 99t10 68q0 28 -11 42t-21 21q10 -1 24 -1q12 -1 28.5 -1h38.5h37.5t26.5 1q12 0 21 1z" />
    <glyph glyph-name="X" unicode="X" horiz-adv-x="635" 
d="M643 -1q-10 0 -26 1q-14 0 -35 0.5t-50 0.5t-49 -0.5t-32 -0.5q-14 -1 -23 -1q22 21 22 46q0 10 -1.5 19.5t-8 22.5t-19 33.5t-33.5 53.5l-87 137l-78 -136q-20 -34 -31 -54.5t-17 -34t-7.5 -22.5t-1.5 -19q0 -26 23 -46q-12 0 -27 1q-13 0 -29.5 0.5t-36.5 0.5
q-26 0 -44.5 -0.5t-30.5 -0.5q-14 -1 -23 -1q15 11 27 21.5t27 30t37 53t58 90.5l114 179l-92 145q-36 57 -58.5 90.5t-37.5 53t-26.5 30t-27.5 21.5q10 -1 26 -1q14 -1 35 -1h50h48.5t32.5 1q15 0 24 1q-23 -20 -23 -46q0 -11 2 -20t8.5 -22t18.5 -33.5t33 -53.5l59 -94
l53 93q19 34 30.5 54.5t17.5 34t7.5 22t1.5 19.5q0 25 -22 46q12 -1 26 -1q12 -1 29 -1h37h43.5t30.5 1q14 0 24 1q-15 -11 -27 -21.5t-27 -30t-37 -53t-58 -90.5l-87 -138l119 -186q36 -57 58 -90.5t37 -53t26.5 -30t27.5 -21.5z" />
    <glyph glyph-name="Y" unicode="Y" horiz-adv-x="559" 
d="M578 713q-12 -9 -22 -18.5t-23.5 -30.5t-34 -57t-54.5 -97l-107 -192q0 -92 1 -145.5t3.5 -83.5t7.5 -44t13 -29l9 -17q-8 0 -19 1q-10 0 -26 0.5t-38 0.5q-23 0 -38.5 -0.5t-26.5 -0.5q-12 -1 -20 -1l9 17q7 13 12 27t8 42.5t4 77t1 131.5l-117 218q-33 62 -53 97.5
t-33 55t-22.5 29t-22.5 19.5q9 -1 23 -1q12 -1 32 -1h49h48.5t30.5 1q13 0 20 1q-12 -11 -17.5 -23t-5.5 -24q0 -11 1.5 -20t7 -22.5t16.5 -35t29 -57.5l75 -146l74 147q18 36 28 57.5t15 35t6 22t1 19.5q0 12 -5.5 24t-17.5 23q11 -1 24 -1q11 -1 27.5 -1h36.5h42t28 1
q12 0 21 1z" />
    <glyph glyph-name="Z" unicode="Z" horiz-adv-x="589" 
d="M554 149q-2 -13 -4 -31q-2 -15 -4 -37.5t-4 -51.5l-2 -29h-501v69l381 578h-212q-35 0 -63.5 -6.5t-46.5 -17.5q-20 -12 -27.5 -18.5t-8.5 -8.5q0 2 1.5 17.5t1.5 46.5q0 14 -0.5 23t-0.5 16q-1 7 -1 13h478v-65l-383 -582h219q46 0 74.5 5.5t46.5 16t30 26.5t26 36z" />
    <glyph glyph-name="bracketleft" unicode="[" horiz-adv-x="333" 
d="M241 -213q-3 2 -9 4q-5 2 -14.5 3.5t-23.5 1.5h-115v982h115q14 0 23.5 1t14.5 3q6 2 9 5q-1 -4 -1 -9v-26v-25q0 -5 1 -10q-3 2 -9 4q-5 2 -14.5 3.5t-23.5 1.5h-36v-878h36q14 0 23.5 1t14.5 3q6 2 9 5q-1 -5 -1 -10v-25v-26q0 -5 1 -9z" />
    <glyph glyph-name="backslash" unicode="\" horiz-adv-x="294" 
d="M195 -212l-166 1000h71l165 -1000h-70z" />
    <glyph glyph-name="bracketright" unicode="]" horiz-adv-x="333" 
d="M138 -204q-15 0 -24 -1.5t-14 -3.5q-6 -2 -9 -4v9q0 5 0.5 11.5t0.5 14.5t-0.5 14t-0.5 11v10q3 -3 9 -5q5 -2 14 -3t24 -1h36v878h-36q-15 0 -24 -1.5t-14 -3.5q-6 -2 -9 -4v10q0 5 0.5 11t0.5 14t-0.5 14.5t-0.5 11.5v9q3 -3 9 -5q5 -2 14 -3t24 -1h116v-982h-116z" />
    <glyph glyph-name="asciicircum" unicode="^" 
d="M545 349h-81l-141 323l-141 -323h-79l188 418h67z" />
    <glyph glyph-name="underscore" unicode="_" horiz-adv-x="500" 
d="M0 -110v41h500v-41h-500z" />
    <glyph glyph-name="grave" unicode="`" horiz-adv-x="414" 
d="M302 624q-14 3 -32 10q-15 6 -35 17t-43 30q-25 20 -40.5 36.5t-23.5 28.5q-11 14 -15 26h106z" />
    <glyph glyph-name="a" unicode="a" horiz-adv-x="574" 
d="M387 -8l4 118q-9 -41 -28 -65t-42 -36.5t-48 -16.5t-46 -4q-53 0 -87 16t-53.5 40t-27 53t-7.5 55q0 63 24 99t59 53.5t76 21.5t75 4q21 0 39 -1t32 -2q16 -1 28 -2v47q0 30 -2.5 57t-16.5 47q-12 17 -36.5 27.5t-66.5 10.5q-11 0 -29.5 -1.5t-40.5 -8.5t-44 -22t-39 -42
q0 7 1 16q0 8 0.5 17.5t0.5 22.5t-0.5 23t-0.5 17q-1 8 -1 14q15 8 40 14q20 5 52.5 9.5t77.5 4.5q39 0 67.5 -5t48.5 -13t33 -18.5t21 -21.5q23 -29 27 -67t4 -86q0 -16 -1 -64t-1 -127q0 -55 5 -86t19 -56l9 -17zM385 265q-8 1 -19 2q-10 1 -25.5 2t-38.5 1
q-21 0 -47 -2.5t-48.5 -13t-38 -32t-15.5 -60.5q0 -56 31 -81t77 -25q38 0 62 9.5t38 21.5q16 13 24 31v147z" />
    <glyph glyph-name="b" unicode="b" horiz-adv-x="629" 
d="M577 294q0 -89 -22 -148t-58 -94t-81.5 -49.5t-91.5 -14.5q-40 0 -68.5 8.5t-46.5 19.5q-21 12 -35 28l-88 -57q2 20 4 57q2 32 3.5 85t1.5 134v252q0 65 -1.5 105t-5 64t-8 37t-10.5 24l-9 17l132 25q-1 -32 -2 -67q-1 -30 -1 -67.5v-75.5v-24q0 -23 -0.5 -39t-1.5 -27
q-1 -12 -2 -21q40 110 167 110q12 0 33.5 -2.5t46.5 -11.5t50.5 -27t46.5 -49.5t34 -78t13 -113.5zM473 286q0 42 -8 81.5t-26 69.5t-48 48.5t-73 18.5q-47 0 -75 -12.5t-53 -42.5v-367q11 -9 27 -15q14 -6 34 -10.5t49 -4.5q93 0 133 61t40 173z" />
    <glyph glyph-name="c" unicode="c" horiz-adv-x="511" 
d="M479 129q0 -25 -10.5 -50t-32.5 -45t-57 -32.5t-84 -12.5q-55 0 -100 18.5t-76.5 54.5t-49 88.5t-17.5 120.5q0 22 3 53.5t12 65.5t26.5 67.5t47 60t72 43t102.5 16.5q42 0 71 -6t48 -14q22 -9 36 -19q-1 -6 -1 -14q-1 -7 -1 -17.5v-24.5v-27t1 -24q0 -12 1 -24
q-20 32 -37 53t-35 33.5t-37.5 17.5t-44.5 5q-31 0 -60 -10.5t-51 -37t-35.5 -72.5t-13.5 -116q0 -45 9 -85t28.5 -70t51.5 -47.5t77 -17.5q43 0 73 10.5t49 23.5q22 15 35 35z" />
    <glyph glyph-name="d" unicode="d" horiz-adv-x="632" 
d="M443 -8l4 113q-20 -57 -61.5 -86t-109.5 -29q-12 0 -33.5 2.5t-46 11.5t-50.5 27t-46.5 49.5t-34 78t-13.5 113.5q0 89 22 148t58 94t81.5 49.5t92.5 14.5q35 0 59.5 -7t41.5 -15q19 -10 32 -21q0 55 -2 90.5t-5 59t-7.5 37t-10.5 23.5l-9 17l133 25q-1 -33 -2 -68
q-1 -30 -1 -68v-76v-311q0 -65 1.5 -105t5 -64t8 -37t10.5 -24l9 -17zM439 484q-10 8 -26 15q-14 5 -34.5 10t-48.5 5q-93 0 -133.5 -61.5t-40.5 -172.5q0 -42 8 -81.5t26 -69.5t47.5 -48.5t73.5 -18.5q47 0 75 12.5t53 42.5v367z" />
    <glyph glyph-name="e" unicode="e" horiz-adv-x="576" 
d="M155 283q0 -40 7.5 -80t27.5 -72t53.5 -52t86.5 -20q52 0 85.5 10.5t53.5 24.5q23 16 36 36q0 -27 -11 -52.5t-35 -45t-61.5 -31.5t-90.5 -12q-123 0 -189 75.5t-66 214.5q0 80 20.5 136.5t54.5 92.5t79 53t94 17q51 0 88 -13.5t62.5 -35.5t40.5 -51.5t23.5 -61t11 -63.5
t2.5 -60v-10h-373zM423 352q0 20 -3 48.5t-15.5 54.5t-38 44.5t-69.5 18.5q-22 0 -46.5 -6t-45.5 -25.5t-34.5 -56t-14.5 -98.5z" />
    <glyph glyph-name="f" unicode="f" horiz-adv-x="322" 
d="M379 678q-24 31 -46 41t-41 10q-30 0 -48 -9.5t-29 -25.5q-11 -17 -13.5 -36.5t-2.5 -54.5v-51h33q29 0 47.5 1.5t29.5 3.5q13 3 21 6q-1 -4 -1 -10v-31v-30q0 -6 1 -10q-8 2 -21 5q-11 2 -30 4t-47 2h-33v-221q0 -70 1 -113t3.5 -70t7.5 -42.5t13 -30.5l10 -17
q-8 0 -19 1q-10 0 -25.5 0.5t-37.5 0.5q-23 0 -38.5 -0.5t-25.5 -0.5q-11 -1 -19 -1l9 17q7 13 12 27t8 40t4 70t1 118v223h-59q17 15 28 27t17.5 23t9 22t3.5 24l1 16q2 27 8 58.5t26.5 59t59.5 45.5t107 18q20 0 34 -1t23 -3q11 -2 18 -4q-1 -6 -1 -13q-1 -6 -1 -14.5
v-18.5v-22t1 -18q0 -9 1 -15z" />
    <glyph glyph-name="g" unicode="g" horiz-adv-x="578" 
d="M547 -13q0 -50 -23 -87.5t-62.5 -62.5t-91.5 -37.5t-110 -12.5q-81 0 -128.5 16t-71.5 37.5t-30.5 44.5t-6.5 38q0 38 19 61.5t43 36t45 17.5t25 5q-1 0 -9 4t-17.5 13t-17 24t-7.5 39q0 27 12 45.5t27 30.5t28.5 18t16.5 7q-7 1 -28.5 8.5t-44 26.5t-40.5 51t-18 82
q0 33 10 66t33.5 60t63 44t98.5 17q20 0 37 -2.5t29 -5.5q14 -4 25 -8h66q29 0 54.5 1.5t43.5 3.5q21 3 38 6q-1 -5 -1 -11v-31v-29q0 -6 1 -10q-11 2 -27 5q-27 4 -77 6l-33 1q1 -1 10 -7.5t19 -21t18 -36t8 -52.5q0 -54 -19.5 -88.5t-50 -54t-67 -26.5t-69.5 -7
q-14 0 -25 0.5t-19 1.5q-10 1 -18 3q-7 -5 -11 -13q-5 -7 -8 -17t-3 -23q0 -17 6.5 -27t16.5 -15t22.5 -6.5t25.5 -1.5h120q28 0 58.5 -2.5t56 -15t42 -38t16.5 -71.5zM458 -37q0 26 -9 40.5t-24 21t-34.5 8t-40.5 1.5h-173q-19 -7 -33 -19q-13 -11 -23 -27.5t-10 -41.5
q0 -13 4.5 -30t20.5 -32.5t48 -26t86 -10.5q86 0 137 30t51 86zM376 397q0 19 -4 42t-16 42.5t-34.5 33t-59.5 13.5q-30 0 -50 -11t-32.5 -30t-18 -43t-5.5 -50q0 -19 4 -42t16 -42.5t34.5 -33t59.5 -13.5q30 0 50 11t32.5 30t18 43t5.5 50z" />
    <glyph glyph-name="h" unicode="h" horiz-adv-x="633" 
d="M569 -1q-8 0 -19 1q-10 0 -25.5 0.5t-37.5 0.5q-23 0 -38 -0.5t-25 -0.5q-11 -1 -19 -1l9 17q6 11 11 21t8 34t5 69.5t2 127.5q0 41 -1 71.5t-3 53.5t-6.5 39t-11.5 28q-11 17 -32 31.5t-65 14.5q-42 0 -66 -10.5t-38 -23.5q-16 -15 -22 -33v-168q0 -82 1.5 -128t5 -70.5
t8 -35t10.5 -21.5l9 -17q-7 0 -18 1q-10 0 -25.5 0.5t-37.5 0.5q-23 0 -38 -0.5t-25 -0.5q-11 -1 -19 -1l9 17q6 11 10.5 21.5t8 35t5 70.5t1.5 128v244q0 65 -1.5 105t-5 64t-8 37t-10.5 24l-9 17l132 25l-2 -60q-1 -26 -1 -56.5v-57.5v-87q0 -16 -0.5 -29t-1.5 -24
q-1 -12 -1 -23q9 40 27.5 65.5t41.5 39t48 18.5t48 5q57 0 95 -19.5t57 -54.5q8 -16 13.5 -33.5t8.5 -41.5t4 -56t1 -76v-26q0 -82 1.5 -128t4.5 -70.5t7.5 -35t10.5 -21.5z" />
    <glyph glyph-name="i" unicode="i" horiz-adv-x="297" 
d="M217 715q0 -32 -18.5 -47t-48.5 -15q-29 0 -47.5 15t-18.5 44q0 32 18 47.5t49 15.5q29 0 47.5 -15t18.5 -45zM233 -1q-7 0 -18 1q-10 0 -25.5 0.5t-37.5 0.5q-23 0 -38.5 -0.5t-25.5 -0.5q-11 -1 -19 -1l9 17q7 13 12 27t8 40t4 70t1 118v31q0 65 -1.5 105t-5 64t-8 37
t-10.5 24l-9 17l139 25q-3 -19 -5 -55q-2 -31 -3 -83t-1 -133v-32q0 -69 1 -112t3.5 -70t7.5 -42.5t13 -30.5z" />
    <glyph glyph-name="j" unicode="j" horiz-adv-x="282" 
d="M214 715q0 -32 -18 -47t-49 -15q-29 0 -47.5 15t-18.5 44q0 32 18.5 47.5t48.5 15.5q29 0 47.5 -15t18.5 -45zM205 574q-3 -19 -5 -55q-2 -31 -3 -83t-1 -133v-341q0 -32 -2.5 -63.5t-17.5 -56t-46.5 -40t-88.5 -15.5h-20q29 14 45 34.5t24 49.5t9.5 68t1.5 91v272
q0 65 -1.5 105t-5 64t-8 37t-10.5 24l-9 17z" />
    <glyph glyph-name="k" unicode="k" horiz-adv-x="559" 
d="M567 -1h-21q-11 0 -27 0.5t-39 0.5h-67l-220 282q0 -75 1 -120t4 -72.5t7.5 -43t12.5 -30.5l9 -17q-7 0 -18 1q-10 0 -25.5 0.5t-37.5 0.5q-23 0 -38 -0.5t-25 -0.5q-11 -1 -19 -1l9 17q7 13 12 27t8 40t4 70t1 118v221q0 69 -1 111.5t-4 68.5t-8 41.5t-12 30.5l-9 17
l132 26q-1 -32 -2 -67q-1 -30 -1 -67.5v-75.5v-280l101 110q25 27 41.5 45.5t26.5 31.5t14 23t4 21q0 23 -21 39q8 -1 20 -1q11 -1 27 -1h39h50t35 1q17 0 28 1q-17 -11 -57.5 -47.5t-115.5 -112.5l-96 -96l110 -138q37 -48 64 -79t46.5 -50t33 -29t24.5 -16z" />
    <glyph glyph-name="l" unicode="l" horiz-adv-x="291" 
d="M227 -1q-7 0 -18 1q-10 0 -25.5 0.5t-37.5 0.5q-23 0 -38 -0.5t-25 -0.5q-11 -1 -19 -1l9 17q7 13 12 27t8 40t4 70t1 118v221q0 69 -1 111.5t-4 68.5t-8 41.5t-12 30.5l-9 17l132 26q-1 -32 -2 -67q-1 -30 -1 -67.5v-75.5v-306q0 -71 1 -114t4 -69.5t7.5 -41.5t12.5 -30
z" />
    <glyph glyph-name="m" unicode="m" horiz-adv-x="969" 
d="M905 -1q-8 0 -19 1q-10 0 -25.5 0.5t-37.5 0.5q-23 0 -38 -0.5t-25 -0.5q-11 -1 -18 -1l9 17q6 11 10.5 21.5t8 35t5 70t1.5 127.5t-4 125.5t-19 66.5q-11 17 -32.5 31.5t-66.5 14.5q-35 0 -58.5 -8t-37.5 -18.5t-21 -21.5t-10 -17q4 -25 5.5 -60t1.5 -86v-26
q0 -82 1.5 -128t5 -70.5t8 -35t10.5 -21.5l9 -17q-8 0 -19 1q-10 0 -25.5 0.5t-37.5 0.5q-23 0 -38 -0.5t-25 -0.5q-11 -1 -18 -1l9 17q6 11 10.5 21.5t8 35t5 70t1.5 127.5t-4 125.5t-17 66.5q-11 17 -31.5 31.5t-64.5 14.5q-41 0 -65 -10.5t-37 -22.5q-15 -15 -21 -33
v-171q0 -82 1.5 -128t5 -70.5t8 -35t10.5 -21.5l9 -17q-7 0 -18 1q-10 0 -25.5 0.5t-37.5 0.5q-23 0 -38.5 -0.5t-25.5 -0.5q-11 -1 -19 -1l9 17q6 11 10.5 21.5t8 35t5 70.5t1.5 128v31q0 65 -1.5 105t-5 64t-8 37t-10.5 24l-9 17l130 25l-4 -125q9 40 26.5 65.5t40.5 39.5
t48 19t49 5q63 0 105.5 -27t57.5 -87q10 36 29 58.5t42 35t48.5 17t48.5 4.5q59 0 97 -19.5t57 -54.5q9 -16 14 -33.5t8 -41.5t4 -56t1 -76v-27q0 -82 1.5 -128t5 -70.5t8 -35t10.5 -21.5z" />
    <glyph glyph-name="n" unicode="n" horiz-adv-x="637" 
d="M574 -1q-8 0 -19 1q-10 0 -26 0.5t-38 0.5q-23 0 -38 -0.5t-25 -0.5q-11 -1 -18 -1l9 17q6 11 10.5 21.5t8 35t5 70t1.5 127.5t-4 125.5t-18 66.5q-11 17 -32 31.5t-65 14.5q-42 0 -66 -10.5t-38 -22.5q-16 -15 -22 -33v-171q0 -82 1.5 -128t5 -70.5t8 -35t10.5 -21.5
l9 -17q-7 0 -18 1q-10 0 -25.5 0.5t-37.5 0.5q-23 0 -38.5 -0.5t-25.5 -0.5q-11 -1 -19 -1l9 17q6 11 10.5 21.5t8 35t5 70.5t1.5 128v31q0 65 -1.5 105t-5 64t-8 37t-10.5 24l-9 17l130 25l-4 -125q9 40 27 65.5t41 39.5t48.5 19t49.5 5q57 0 94.5 -19.5t57.5 -54.5
q8 -16 13.5 -33.5t8.5 -41.5t4 -56t1 -76v-26q0 -82 1.5 -128t5 -70.5t8 -35t10.5 -21.5z" />
    <glyph glyph-name="o" unicode="o" horiz-adv-x="626" 
d="M574 289q0 -27 -4 -59.5t-15 -66t-30.5 -65.5t-49 -56.5t-71 -39.5t-97.5 -15q-64 0 -112 22t-79.5 60.5t-47.5 91t-16 114.5q0 27 4 59.5t15 66.5t30.5 65.5t49 56.5t71 40t97.5 15q64 0 112 -22t79.5 -60.5t47.5 -91.5t16 -115zM468 283q0 51 -8 93.5t-26.5 73
t-48.5 47.5t-73 17q-81 0 -117.5 -59.5t-36.5 -173.5q0 -51 8 -93.5t26.5 -72.5t48 -47t73.5 -17q81 0 117.5 59.5t36.5 172.5z" />
    <glyph glyph-name="p" unicode="p" horiz-adv-x="632" 
d="M580 296q0 -90 -22 -149t-58 -94t-81.5 -49t-91.5 -14q-35 0 -60 6.5t-42 14.5q-19 10 -32 22q0 -69 1.5 -108.5t4.5 -62t7.5 -34t11.5 -24.5l9 -17q-7 0 -18 1q-10 0 -25.5 0.5t-37.5 0.5q-23 0 -38 -0.5t-25 -0.5q-11 -1 -19 -1l9 17q5 9 8.5 17.5t6.5 21.5t5 33.5
t3 54.5t1.5 84.5t0.5 122.5v165q0 65 -1.5 105t-5 64t-8 37t-10.5 24l-9 17l125 25l-4 -113q20 57 61.5 86.5t110.5 29.5q12 0 33 -2.5t46 -11.5t50.5 -27t46.5 -49.5t34 -78t13 -113.5zM476 288q0 42 -8 81t-26 69.5t-48 49t-73 18.5q-47 0 -75 -13t-53 -42v-367
q11 -9 27 -16q14 -6 34 -10.5t49 -4.5q93 0 133 61.5t40 173.5z" />
    <glyph glyph-name="q" unicode="q" horiz-adv-x="625" 
d="M569 -213q-8 0 -19 1q-10 0 -26 0.5t-38 0.5q-23 0 -38 -0.5t-25 -0.5q-11 -1 -18 -1l9 17q7 13 12 29t8 38.5t4 52t1 68.5v21q0 22 0.5 38.5t1.5 27.5q1 12 3 21q-21 -57 -63 -83.5t-105 -26.5q-12 0 -33.5 2.5t-46 11.5t-50.5 27t-46.5 49.5t-34 78t-13.5 113.5
q0 89 22 148t58 94t81.5 49.5t92.5 14.5q40 0 68 -8.5t46 -19.5q21 -12 35 -28l89 57q-3 -20 -5 -57q-2 -32 -3 -85t-1 -134v-165q0 -109 1 -169.5t4 -92.5t7.5 -45.5t12.5 -26.5zM439 484q-10 8 -26 15q-14 5 -34.5 10t-48.5 5q-93 0 -133.5 -61.5t-40.5 -172.5
q0 -42 8 -81.5t26 -69.5t47.5 -48.5t73.5 -18.5q47 0 75 12.5t53 42.5v367z" />
    <glyph glyph-name="r" unicode="r" horiz-adv-x="409" 
d="M402 430q-20 32 -43 49.5t-60 17.5q-33 0 -52.5 -10t-30.5 -22q-12 -14 -17 -31v-163q0 -82 1.5 -128t5 -70.5t8 -35t10.5 -21.5l10 -17q-8 0 -19 1q-10 0 -25.5 0.5t-37.5 0.5q-23 0 -38.5 -0.5t-25.5 -0.5q-11 -1 -19 -1l9 17q6 11 10.5 21.5t8 35t5 70.5t1.5 128v31
q0 65 -1.5 105t-5 64t-8 37t-10.5 24l-9 17l129 25l-4 -133q10 46 29 73.5t40 41.5t40 18t30 4q20 0 33 -3t21 -6q10 -4 15 -9q-1 -7 -1 -17q-1 -8 -1 -20v-26v-31.5t1 -20.5q0 -10 1 -15z" />
    <glyph glyph-name="s" unicode="s" horiz-adv-x="469" 
d="M410 158q0 -27 -8.5 -56t-31 -53t-60.5 -39t-97 -15q-35 0 -63 4.5t-47 10.5q-23 6 -39 15q0 5 1 14q0 8 0.5 19t0.5 26q0 14 -0.5 26.5t-0.5 21.5q-1 11 -1 19q14 -21 28.5 -39t31.5 -30.5t38.5 -19.5t49.5 -7q32 0 52.5 7.5t32 19.5t16 27t4.5 30q0 32 -15.5 50.5
t-44.5 35.5l-89 53q-15 8 -32.5 19t-32.5 28t-25 41.5t-10 59.5q0 40 13.5 68.5t37.5 47t57.5 27t74.5 8.5q35 0 61.5 -5t44.5 -11q21 -7 36 -15q-1 -6 -1 -15q-1 -8 -1 -18.5v-25.5v-26.5t1 -20.5q0 -11 1 -18q-14 21 -28 38.5t-30.5 30t-36.5 20t-45 7.5q-12 0 -28.5 -1.5
t-31.5 -9t-25.5 -22t-10.5 -40.5q0 -34 20.5 -53t58.5 -41l69 -39q23 -14 42.5 -28.5t33.5 -33t21.5 -41t7.5 -51.5z" />
    <glyph glyph-name="t" unicode="t" horiz-adv-x="374" 
d="M362 80q0 -3 -3 -17.5t-16 -30.5t-39.5 -29t-74.5 -13q-45 0 -70.5 15t-39.5 36q-12 19 -17.5 47t-5.5 83v158t1 102q1 45 2 72h-64q2 1 22.5 22t46.5 62q14 21 23.5 39t16.5 32q8 16 13 30h38v-125h66q31 0 50 1.5t30 3.5q12 3 18 6q-1 -4 -1 -10v-31v-30q0 -6 1 -10
q-6 2 -18 5q-11 2 -30 3.5t-50 1.5h-66v-337q0 -34 3 -50t10 -30q8 -17 24.5 -26.5t45.5 -9.5q21 0 36.5 4.5t26.5 10.5q12 6 21 15z" />
    <glyph glyph-name="u" unicode="u" horiz-adv-x="631" 
d="M437 -8l4 125q-9 -41 -27 -66t-41 -39t-48.5 -19t-49.5 -5q-57 0 -95 19.5t-57 54.5q-8 16 -13.5 33.5t-8.5 41.5t-4 55.5t-1 75.5v34q0 65 -1.5 105t-4 64t-7 37t-10.5 24l-9 17l132 25q-1 -31 -2 -66q-1 -30 -1.5 -68t-0.5 -78v-66q0 -82 4 -126t18 -67
q11 -17 32 -31.5t65 -14.5q41 0 65.5 10t38.5 23q16 15 22 34v178q0 65 -1.5 105t-4 64t-7 37t-10.5 24l-9 17l133 25q-2 -33 -3 -68q-1 -30 -1.5 -68t-0.5 -76v-98q0 -65 1.5 -105t5 -64t8 -37t10.5 -24l9 -17z" />
    <glyph glyph-name="v" unicode="v" horiz-adv-x="533" 
d="M543 567q-26 -23 -48 -81t-51 -144l-117 -343q-6 0 -16 1q-8 0 -20 0.5t-26 0.5t-25.5 -0.5t-19.5 -0.5q-10 -1 -17 -1l-110 340q-18 56 -30.5 94.5t-23 65t-20 42.5t-21.5 26q9 -1 22 -1q11 -1 27 -1h38h43t29 1q13 0 21 1q-10 -7 -18.5 -19.5t-8.5 -38.5q0 -10 2 -22
t6.5 -30t11.5 -43.5t18 -61.5l71 -238q3 -11 5.5 -21l4.5 -18q3 -10 5 -19q2 8 5 18q2 8 4.5 18.5t6.5 21.5l72 228q12 38 20 65t13.5 46.5t7.5 32.5t2 23q0 26 -8 38.5t-18 19.5q8 -1 20 -1q10 -1 25.5 -1h36.5h37t25 1q11 0 19 1z" />
    <glyph glyph-name="w" unicode="w" horiz-adv-x="879" 
d="M879 567q-29 -26 -50 -84t-47 -142l-105 -342q-7 0 -16 1q-8 0 -19 0.5t-24 0.5q-14 0 -24.5 -0.5t-18.5 -0.5q-9 -1 -16 -1l-111 421q-6 23 -8.5 41.5t-3.5 25.5q-1 -5 -2.5 -22.5t-8.5 -42.5l-114 -423q-5 0 -14 1q-8 0 -19 0.5t-25 0.5q-15 0 -26.5 -0.5t-19.5 -0.5
q-10 -1 -16 -1l-98 340q-17 56 -29 95t-22.5 65t-20 42t-20.5 26q10 -1 23 -1q11 -1 27 -1h38h42.5t28.5 1q13 0 22 1q-10 -7 -19 -19.5t-9 -38.5q0 -11 1.5 -23.5t5 -30t10 -42.5t15.5 -61l59 -231q7 -26 9 -43.5t3 -22.5q0 4 2.5 20.5t10.5 44.5l120 448q6 -1 15 -1
q8 -1 18 -1h23h22.5t17.5 1q8 0 15 1l118 -449q7 -26 8.5 -41.5t2.5 -20.5q0 3 2.5 19t10.5 45l60 222q10 38 17 65t11.5 46t6.5 32t2 23q0 26 -8.5 38.5t-18.5 19.5q9 -1 22 -1q11 -1 27.5 -1h37.5h36.5t24.5 1q11 0 18 1z" />
    <glyph glyph-name="x" unicode="x" horiz-adv-x="538" 
d="M545 -1q-10 0 -24 1q-12 0 -30.5 0.5t-43.5 0.5q-26 0 -43.5 -0.5t-29.5 -0.5q-14 -1 -23 -1q19 16 19 39q0 10 -2.5 19.5t-9 22t-17.5 30t-28 43.5l-57 87l-51 -85q-16 -27 -26.5 -45t-16.5 -30.5t-8 -21.5t-2 -19q0 -24 19 -40q-11 0 -24 1q-11 0 -26 0.5t-32 0.5
q-22 0 -38.5 -0.5t-28.5 -0.5q-14 -1 -24 -1q15 9 27 21t26 30t31.5 45t43.5 66l91 139l-70 106q-26 39 -43.5 65.5t-31.5 44.5t-26.5 30t-27.5 21q10 -1 24 -1q12 -1 30 -1h44h43t30 1q14 0 23 1q-19 -16 -19 -39q0 -10 2.5 -19.5t9 -22t17.5 -30t28 -43.5l36 -55l33 55
q16 26 26 43.5t16 30.5t8 22t2 19q0 23 -19 39q10 -1 23 -1q11 -1 26 -1h32h38t28 1q13 0 23 1q-15 -9 -27 -21t-26 -30t-31.5 -44.5t-43.5 -65.5l-70 -107l92 -139q26 -40 44 -66.5t32 -44.5t26 -29.5t27 -20.5z" />
    <glyph glyph-name="y" unicode="y" horiz-adv-x="535" 
d="M545 567q-29 -26 -51 -84.5t-51 -141.5l-149 -427q-13 -37 -30 -61.5t-38 -39t-46 -20.5t-55 -6q-25 0 -41.5 1t-26.5 3q-12 2 -19 5q0 7 1 17q0 8 0.5 18.5t0.5 22.5q0 13 -0.5 25t-0.5 21q-1 11 -1 19q13 -20 23 -34t19.5 -22.5t20 -12t24.5 -3.5q38 0 59.5 22.5
t38.5 70.5l11 31l-136 368q-20 55 -34.5 94t-25.5 65t-21 42.5t-21 26.5q10 -1 23 -1q11 -1 27.5 -1h38.5h43.5t29.5 1q13 0 22 1q-10 -7 -19 -19.5t-9 -38.5q0 -11 2 -23.5t6.5 -30t12.5 -42t20 -60.5l73 -215q7 -20 11 -37.5t5 -21.5q0 2 3.5 16.5t10.5 36.5l66 210
q12 38 20 65t13 46.5t7.5 32.5t2.5 23q0 26 -9 38.5t-19 19.5q9 -1 21 -1q11 -1 26 -1h37h38t26 1q11 0 20 1z" />
    <glyph glyph-name="z" unicode="z" horiz-adv-x="511" 
d="M469 145q-2 -12 -4 -29q-2 -14 -3.5 -35.5t-3.5 -50.5l-2 -30h-408v68l298 436h-135q-25 0 -44.5 -2.5t-36 -9t-30.5 -19t-28 -32.5q0 8 1 19q0 9 0.5 20.5t0.5 25.5q0 15 -0.5 25.5t-0.5 18.5q-1 8 -1 14h386v-61l-302 -442h136q46 0 74.5 5.5t46.5 16t30 26.5t26 36z
" />
    <glyph glyph-name="braceleft" unicode="{" horiz-adv-x="383" 
d="M347 -171q0 -4 -3 -11t-12.5 -14t-26.5 -12t-45 -5q-26 0 -50.5 7.5t-39.5 27.5q-15 22 -19 46.5t-4 63.5v207q0 45 -6.5 73t-29.5 45q-21 15 -40 21.5t-23 8.5q2 1 21 7.5t42 22.5q23 17 29.5 45t6.5 73v207q0 39 4 63.5t19 46.5q15 20 39.5 27.5t50.5 7.5q28 0 45 -5
t26.5 -12t12.5 -14t3 -11q-5 1 -10 3q-5 1 -12 2t-18 1q-43 0 -59 -24q-9 -13 -10.5 -29.5t-1.5 -33.5v-162q0 -32 -0.5 -55t-3 -41t-8 -32.5t-15.5 -28.5q-12 -18 -27 -29t-28.5 -17.5t-23.5 -9t-14 -2.5q3 0 13.5 -2.5t24 -9t28.5 -17.5t27 -29q10 -14 15.5 -28.5t8 -32.5
t3 -41.5t0.5 -54.5v-162q0 -17 1.5 -33.5t10.5 -29.5q16 -24 59 -24q19 0 30 3q5 1 10 3z" />
    <glyph glyph-name="bar" unicode="|" horiz-adv-x="249" 
d="M89 -213v1000h71v-1000h-71z" />
    <glyph glyph-name="braceright" unicode="}" horiz-adv-x="383" 
d="M272 317q21 -15 39.5 -22t23.5 -8q-2 -1 -21.5 -7.5t-41.5 -22.5q-23 -17 -29.5 -45t-6.5 -73v-207q0 -39 -3.5 -63.5t-19.5 -46.5q-15 -20 -39.5 -27.5t-50.5 -7.5q-28 0 -45 5t-26.5 12t-12.5 14t-3 11q3 -2 9 -3q9 -3 31 -3q43 0 59 24q9 13 10.5 29.5t1.5 33.5v162
q0 31 0.5 54.5t3 41.5t8 32.5t15.5 28.5q12 18 26.5 29t28 17t24 8.5t13.5 3.5q-3 0 -13 2.5t-23.5 9t-28.5 17.5t-27 29q-10 14 -15.5 28.5t-8 32.5t-3 41t-0.5 55v162q0 17 -1.5 33.5t-10.5 29.5q-16 24 -59 24q-11 0 -18.5 -1t-12.5 -2l-9 -3q0 4 3 11t12.5 14t26.5 12
t45 5q26 0 50.5 -7.5t39.5 -27.5q16 -22 19.5 -46.5t3.5 -63.5v-207q0 -45 6.5 -73t29.5 -45z" />
    <glyph glyph-name="asciitilde" unicode="~" 
d="M621 452q-22 -92 -57.5 -140t-101.5 -48q-35 0 -63.5 9t-60.5 25l-65 33q-20 9 -34.5 15t-26.5 9.5t-22 5t-20 1.5q-47 0 -75 -33t-42 -80l-26 8q21 91 57 139.5t102 48.5q35 0 59 -9.5t56 -25.5l66 -32q38 -19 64 -25.5t47 -6.5q46 0 74 33t42 80z" />
    <glyph glyph-name="uni00A0" unicode="&#xa0;" horiz-adv-x="230" 
 />
    <glyph glyph-name="exclamdown" unicode="&#xa1;" horiz-adv-x="322" 
d="M225 517q0 -27 -16 -45t-48 -23q-35 5 -49.5 23t-14.5 44t16 44.5t47 23.5q35 -5 50 -23t15 -44zM242 -143q-8 0 -19 1q-10 0 -25.5 0.5t-37.5 0.5q-23 0 -38.5 -0.5t-24.5 -0.5q-11 -1 -17 -1l9 19q6 12 9.5 31t6.5 57t6 100.5t7 160.5l6 172h73l7 -172q4 -98 7 -160.5
t6 -100.5t6.5 -57t9.5 -31z" />
    <glyph glyph-name="cent" unicode="&#xa2;" horiz-adv-x="556" 
d="M296 -11q-111 5 -174.5 77.5t-63.5 204.5q0 21 2.5 51t10.5 62t23.5 64.5t42 59t65.5 44.5t94 23v59h43v-57q40 -1 68.5 -7t47.5 -13q22 -9 36 -19q-1 -6 -1 -14q-1 -7 -1 -17.5v-24.5v-27t1 -24q0 -12 1 -24q-14 20 -26 39t-28.5 34t-39.5 25t-58 11v-456q45 0 75 11
t50 24q23 15 37 34q0 -23 -9 -46t-28.5 -42.5t-50.5 -33t-74 -17.5v-56h-43v55zM162 280q0 -40 7.5 -76t23.5 -64.5t41.5 -48.5t61.5 -27v449q-27 -5 -51.5 -19.5t-43 -42t-29 -69.5t-10.5 -102z" />
    <glyph glyph-name="sterling" unicode="&#xa3;" horiz-adv-x="581" 
d="M464 65q21 0 35.5 7t24.5 16t14.5 17t5.5 10q0 -60 -24.5 -95t-88.5 -35q-36 0 -62.5 4t-50.5 8l-65 10q-20 3 -41 6t-42 3q-18 0 -35.5 -4.5t-31.5 -9.5q-17 -6 -31 -14q32 35 47.5 76.5t15.5 103.5v171h-80v62h80v64q0 65 7 105t29 71q29 45 75.5 61.5t108.5 16.5
q45 0 77 -5t53 -10q24 -6 40 -14q-1 -6 -1 -16q-1 -8 -1 -20v-27v-29t1 -22q0 -11 1 -20q-21 31 -38.5 50.5t-35.5 30t-38 14t-47 3.5q-35 0 -60.5 -11t-40.5 -30q-10 -13 -16 -28t-9 -34t-3.5 -43.5t-0.5 -55.5v-51h176v-62h-176v-109q0 -34 -3 -59.5t-11 -45.5t-21 -36
t-34 -31q5 3 29.5 12.5t63.5 9.5q17 0 31.5 -1t29.5 -2l85 -10q10 -1 24 -1.5t34 -0.5z" />
    <glyph glyph-name="currency" unicode="&#xa4;" horiz-adv-x="617" 
d="M411 321q0 22 -8 41.5t-22 34t-33 22.5t-41 8t-41 -8t-32.5 -22.5t-21.5 -34t-8 -41.5t8 -41.5t21.5 -34t32.5 -23t41 -8.5t41 8.5t33 23t22 34t8 41.5zM479 321q0 -54 -28 -96l111 -110l-49 -49l-111 111q-42 -27 -95 -27q-52 0 -93 27l-111 -112l-49 49l111 111
q-28 40 -28 96q0 26 7 50t20 44l-109 109l49 49l108 -109q20 13 44.5 20t50.5 7q52 0 96 -28l110 110l49 -49l-110 -110q27 -41 27 -93z" />
    <glyph glyph-name="yen" unicode="&#xa5;" horiz-adv-x="562" 
d="M577 713q-12 -9 -22 -18.5t-24 -30.5t-35 -57t-55 -97l-104 -186v-39h151v-43h-152v-58h152v-43h-152q0 -22 1.5 -39t4.5 -32t7.5 -28t11.5 -26l9 -17q-8 0 -20 1q-11 0 -26.5 0.5t-37.5 0.5t-37.5 -0.5t-26.5 -0.5q-12 -1 -20 -1l9 17q13 24 18.5 55.5t6.5 69.5h-152v43
h152v58h-152v43h151v17l-114 210q-34 62 -54 97.5t-33.5 55t-23.5 29t-23 19.5q9 -1 23 -1q12 -1 32 -1h49h48.5t30.5 1q13 0 21 1q-12 -11 -17.5 -23t-5.5 -24q0 -11 1.5 -20t7 -23t16 -35.5t28.5 -55.5l76 -145l74 146q18 35 28 56t14.5 34.5t5.5 22.5t1 20q0 12 -5.5 24
t-17.5 23q11 -1 24 -1q11 -1 27.5 -1h36.5h42.5t28.5 1q13 0 21 1z" />
    <glyph glyph-name="brokenbar" unicode="&#xa6;" horiz-adv-x="249" 
d="M89 448v339h71v-339h-71zM89 -213v363h71v-363h-71z" />
    <glyph glyph-name="section" unicode="&#xa7;" horiz-adv-x="603" 
d="M511 350q0 -40 -14.5 -68t-36 -46t-46.5 -28t-47 -13l36 -22q16 -10 30 -22t25 -27.5t17.5 -35t6.5 -43.5q0 -39 -13.5 -66t-38 -44.5t-58.5 -25.5t-75 -8q-34 0 -60.5 4.5t-45.5 10.5q-22 7 -39 16q0 5 1 14q0 8 0.5 19t0.5 26q0 14 -0.5 26t-0.5 20q-1 10 -1 18
q29 -43 62.5 -69.5t83.5 -26.5q12 0 28 2t31 9.5t25.5 22t10.5 40.5q0 17 -5 29.5t-13 22t-19.5 18t-24.5 16.5l-100 62q-19 11 -39.5 24t-37 31t-27.5 42.5t-11 59.5q0 40 14.5 68t36 46t47 28t47.5 13l-36 22q-32 20 -56 49.5t-24 78.5q0 76 51 110t134 34q34 0 61 -5
t46 -11q22 -7 38 -15q-1 -6 -1 -15q-1 -8 -1 -18.5v-25.5v-26t1 -20q0 -10 1 -18q-29 43 -62.5 69.5t-82.5 26.5q-12 0 -28.5 -2t-31.5 -9.5t-25.5 -22t-10.5 -40.5q0 -34 18 -51.5t45 -34.5l99 -62q19 -11 39.5 -24.5t37 -31.5t27.5 -42.5t11 -58.5zM427 326q0 37 -18 60.5
t-59 49.5l-69 44q-10 -3 -24 -12t-26.5 -24t-21.5 -35.5t-9 -46.5q0 -19 4.5 -33.5t14 -27.5t24 -25t34.5 -25l69 -43q10 3 24 12t26.5 24t21.5 35.5t9 46.5z" />
    <glyph glyph-name="dieresis" unicode="&#xa8;" horiz-adv-x="414" 
d="M168 705q0 -26 -15.5 -40.5t-42.5 -14.5q-24 0 -39.5 14.5t-15.5 39.5q0 26 15.5 40t41.5 14q25 0 40.5 -14t15.5 -39zM358 705q0 -26 -15.5 -40.5t-42.5 -14.5q-24 0 -40 14.5t-16 39.5q0 26 16 40t42 14q25 0 40.5 -14t15.5 -39z" />
    <glyph glyph-name="copyright" unicode="&#xa9;" horiz-adv-x="971" 
d="M924 279q0 -97 -32 -179.5t-90 -142.5t-138 -94t-177 -34q-98 0 -178.5 33t-139 92.5t-90.5 141t-32 178.5q0 98 32.5 180t91.5 141.5t140.5 92.5t179.5 33t178 -33t136.5 -91.5t87.5 -139.5t31 -178zM851 279q0 82 -25 152t-71.5 121.5t-113 81t-150.5 29.5t-152 -29.5
t-116.5 -81.5t-75 -123.5t-26.5 -154.5t26 -153.5t74 -122.5t115.5 -81.5t150.5 -29.5q82 0 149.5 30t115 82.5t73.5 124.5t26 155zM656 19q-16 -7 -37 -11q-18 -5 -44 -8t-61 -3q-84 0 -136.5 25t-82.5 64t-40.5 86.5t-10.5 92.5q0 140 72 212t203 72q37 0 63 -3.5t43 -7.5
q19 -5 31 -11q-1 -5 -1 -13v-43v-42q0 -9 1 -16q-12 18 -24 31.5t-26.5 23t-33.5 14.5t-46 5q-33 0 -64.5 -11.5t-56 -37t-39 -67.5t-14.5 -102q0 -46 8.5 -84.5t28.5 -66.5t53 -43.5t81 -15.5q27 0 46.5 5.5t35 15t27.5 23.5t24 32q-1 -7 -1 -17v-46v-40q0 -8 1 -13z" />
    <glyph glyph-name="ordfeminine" unicode="&#xaa;" horiz-adv-x="385" 
d="M250 384l3 77q-6 -26 -18 -42t-27 -24t-31.5 -10.5t-31.5 -2.5q-35 0 -57 10.5t-34.5 26.5t-17.5 35.5t-5 36.5q0 42 16 65.5t39 35.5t50 14.5t49 2.5q14 0 26 -0.5t20 -1.5q10 -1 18 -2v26q0 18 -2 34.5t-11 29.5q-8 10 -24 16t-44 6q-8 0 -20.5 -1t-26.5 -5.5t-28 -14
t-25 -25.5q0 5 1 11q0 5 0.5 12t0.5 16t-0.5 16.5t-0.5 12.5q-1 6 -1 10q10 5 28 9q14 3 37 6t55 3q55 0 81.5 -12t37.5 -26q16 -20 18.5 -46t2.5 -57q0 -17 -0.5 -44.5t-0.5 -77.5q0 -35 4 -55.5t13 -36.5l5 -11zM249 562q-5 0 -11 1t-14.5 1.5t-21.5 0.5q-12 0 -27.5 -1.5
t-29 -8t-22.5 -20t-9 -37.5q0 -34 18.5 -49.5t44.5 -15.5q22 0 36 5t22 12q10 7 14 17v95z" />
    <glyph glyph-name="guillemotleft" unicode="&#xab;" horiz-adv-x="493" 
d="M349 61l-104 223l104 224h95l-120 -224l120 -223h-95zM152 61l-105 223l105 224h95l-120 -224l120 -223h-95z" />
    <glyph glyph-name="logicalnot" unicode="&#xac;" 
d="M503 175v227h-447v69h520v-296h-73z" />
    <glyph glyph-name="registered" unicode="&#xae;" horiz-adv-x="975" 
d="M926 279q0 -97 -32 -179.5t-90 -142.5t-138 -94t-177 -34q-98 0 -178.5 33t-139 92.5t-90.5 141t-32 178.5q0 98 32.5 180t91.5 141.5t140.5 92.5t179.5 33t178 -33t136.5 -91.5t87.5 -139.5t31 -178zM853 279q0 82 -25 152t-71.5 121.5t-113.5 81t-150 29.5
q-84 0 -152 -29.5t-116.5 -81.5t-75 -123.5t-26.5 -154.5t26 -153.5t74 -122.5t115.5 -81.5t150.5 -29.5q82 0 149.5 30t115 82.5t73.5 124.5t26 155zM739 9q-4 -3 -12 -5q-7 -2 -18 -3t-28 -1q-21 0 -37 4t-29 14t-25 25t-25 38l-48 79q-16 25 -26.5 41.5t-19.5 25.5
t-18 12.5t-22 3.5h-13q0 -71 1 -111t3 -62t5.5 -32.5t9.5 -21.5l7 -13q-6 0 -17 1q-9 0 -22.5 0.5t-33.5 0.5t-34 -0.5t-23 -0.5q-11 -1 -18 -1l7 13q5 10 8.5 20.5t6 35.5t3.5 72.5t1 133.5q0 83 -0.5 129t-3 70.5t-6 34.5t-9.5 21l-7 13q7 -1 17 -1q8 -1 19 -1h25
q9 0 21.5 0.5t26 0.5t26.5 0.5t23 0.5q38 0 76.5 -3.5t69.5 -17t50.5 -41t19.5 -76.5q0 -31 -10 -57.5t-30 -46t-50 -31t-70 -11.5q23 -3 39.5 -10.5t30 -20t25 -30t25.5 -41.5l39 -70q18 -32 33.5 -51.5t36.5 -29.5zM567 395q0 31 -8.5 50t-24 29.5t-36.5 13.5t-45 3
q-8 0 -14 -0.5t-11 -0.5q-5 -1 -10 -1v-190q4 -1 10 -1h29q8 0 21 1t22 3q28 5 47.5 27t19.5 66z" />
    <glyph glyph-name="macron" unicode="&#xaf;" horiz-adv-x="414" 
d="M66 657v69h283v-69h-283z" />
    <glyph glyph-name="degree" unicode="&#xb0;" horiz-adv-x="434" 
d="M372 600q0 -32 -12 -60.5t-33 -49.5t-49.5 -33t-61.5 -12q-32 0 -60 12t-49 33t-33.5 49.5t-12.5 60.5t12.5 60.5t33.5 49.5t49 33t60 12q33 0 61.5 -12t49.5 -33t33 -49.5t12 -60.5zM319 600q0 22 -8 41.5t-22 33.5t-32.5 22t-40.5 8t-40.5 -8t-32 -22t-21.5 -33.5
t-8 -41.5q0 -21 8 -40.5t21.5 -34t32 -23t40.5 -8.5t40.5 8.5t32.5 23t22 34t8 40.5z" />
    <glyph glyph-name="plusminus" unicode="&#xb1;" 
d="M360 404v-252h-73v252h-242v69h242v251h73v-251h243v-69h-243zM45 0v69h558v-69h-558z" />
    <glyph glyph-name="uni00B2" unicode="&#xb2;" horiz-adv-x="368" 
d="M324 486q-1 -8 -2 -19q-1 -9 -2 -21t-1 -26v-30h-296q0 45 17.5 76.5t55.5 67.5l56 52q22 21 37 37.5t24.5 32t13.5 31.5t4 36q0 44 -22.5 62.5t-60.5 18.5q-47 0 -69 -15t-42 -45v13q0 6 0.5 15t0.5 21t-0.5 20.5t-0.5 13.5v10q11 6 29 10q15 4 38 7t56 3q47 0 78.5 -10
t50 -27t26.5 -40.5t8 -51.5q0 -29 -7 -51.5t-20.5 -42.5t-34.5 -39t-48 -41l-48 -39q-20 -17 -37.5 -35t-18.5 -26h120q23 0 41.5 3.5t29.5 11.5q7 4 11.5 7.5t7.5 5.5q4 3 5 4z" />
    <glyph glyph-name="uni00B3" unicode="&#xb3;" horiz-adv-x="356" 
d="M315 519q0 -47 -18.5 -73.5t-45.5 -40t-56 -17t-50 -3.5q-36 0 -61.5 8t-42 20t-24.5 25t-8 24q10 -7 26 -12q14 -5 34 -8.5t47 -3.5q46 0 77.5 17.5t31.5 67.5q0 18 -4 32.5t-14.5 25t-28.5 16.5t-46 6q-20 0 -31.5 -3t-17.5 -6v7q0 4 0.5 10.5t0.5 16.5t-0.5 16.5
t-0.5 11.5v8q5 -3 18 -6.5t32 -3.5q39 0 63 19t24 61q0 38 -21 55t-58 17q-38 0 -60 -13.5t-42 -43.5v12q0 6 0.5 15t0.5 20q0 12 -0.5 20.5t-0.5 13.5v10q11 5 28 9q14 3 36 6t51 3q81 0 118 -30t37 -81q0 -31 -10.5 -52t-26.5 -34.5t-36 -20t-39 -9.5q18 -1 38.5 -6
t38 -17t29.5 -33.5t12 -55.5z" />
    <glyph glyph-name="acute" unicode="&#xb4;" horiz-adv-x="414" 
d="M196 772h106q-4 -12 -15 -26q-9 -12 -24.5 -28.5t-40.5 -36.5q-23 -19 -42.5 -30t-34.5 -17q-18 -7 -32 -10z" />
    <glyph glyph-name="uni00B5" unicode="&#xb5;" horiz-adv-x="645" 
d="M621 20q-8 -8 -19 -14q-10 -5 -24.5 -9.5t-34.5 -4.5t-37.5 5t-31 20t-21 42t-7.5 71q-12 -45 -31.5 -73t-41.5 -43t-43.5 -20.5t-37.5 -5.5q-30 0 -51.5 6.5t-35 15t-20.5 15.5l-8 8q0 -1 1 -22.5t1 -53.5v-36q0 -36 1 -61.5t3 -41.5q2 -19 4 -31q-6 0 -14 1
q-7 0 -17 0.5t-23 0.5q-14 0 -24 -0.5t-17 -0.5q-8 -1 -14 -1q3 17 6 44q2 23 4.5 61t2.5 95v391q0 51 -3 91t-16 70l-5 11q3 0 18.5 1.5t41.5 6.5q32 6 42.5 9t12.5 4q1 -4 2 -14q1 -8 1.5 -23t0.5 -40q0 -17 -0.5 -42.5t-1.5 -54.5t-1.5 -57.5t-0.5 -50.5q0 -44 1 -74
t3 -51t6.5 -35.5t12.5 -27.5q10 -17 32 -31t70 -14q37 0 62 16.5t41 36.5q18 23 30 53v107q0 41 0.5 74.5t0.5 35.5q0 60 -3 96.5t-14 62.5l-5 12q6 0 15 1q8 1 18.5 2.5t25.5 4.5q17 3 27.5 5t17.5 4q8 2 13 4q1 -4 2 -14q1 -8 2 -23t1 -40q0 -57 -3 -119t-3 -132
q0 -47 2 -79.5t7 -55t13 -38t21 -27.5q14 -14 27.5 -18t15.5 -5z" />
    <glyph glyph-name="paragraph" unicode="&#xb6;" horiz-adv-x="413" 
d="M318 -40q0 -31 -4.5 -62t-20.5 -55.5t-47 -40t-84 -15.5h-17q28 14 46.5 34.5t30 50.5t16 70t4.5 93v340q-38 1 -75.5 11.5t-67.5 34t-48.5 60t-18.5 90.5q0 37 9.5 66.5t25 52t36 38t41.5 24.5q32 14 70 16t92 2h12v-810z" />
    <glyph glyph-name="periodcentered" unicode="&#xb7;" horiz-adv-x="249" 
d="M197 282q0 -30 -20 -49.5t-52 -24.5q-35 5 -54 24.5t-19 48.5q0 30 20 49.5t52 24.5q36 -5 54.5 -24.5t18.5 -48.5z" />
    <glyph glyph-name="cedilla" unicode="&#xb8;" horiz-adv-x="414" 
d="M215 5q-5 -7 -9 -15.5t-4 -14.5q0 -9 6.5 -15t17.5 -13l12 -9q5 -3 12.5 -8.5t14 -13t11 -18.5t4.5 -25q0 -27 -15 -44.5t-37.5 -27t-47.5 -12.5t-45 -1q4 1 15 7.5t22.5 16.5t20 23t8.5 28t-5.5 25t-16.5 25l-6 8q-6 8 -10.5 16.5t-4.5 20.5q0 14 7 26.5t14 20.5h36z
" />
    <glyph glyph-name="uni00B9" unicode="&#xb9;" horiz-adv-x="252" 
d="M200 389q-6 0 -15 1q-8 0 -20.5 0.5t-29.5 0.5t-29 -0.5t-20 -0.5q-9 -1 -15 -1l5 11q5 9 8 18t5 30.5t3 62.5t1 114v147q0 7 -3 10t-14 3h-75q12 21 35.5 31.5t50 17t52.5 13t45 21.5q-2 -24 -3 -59q-3 -60 -3 -191q0 -71 0.5 -110t2.5 -60t5 -29.5t8 -18.5z" />
    <glyph glyph-name="ordmasculine" unicode="&#xba;" horiz-adv-x="414" 
d="M385 580q0 -32 -8.5 -67t-29 -64.5t-55.5 -48.5t-88 -19q-44 0 -76.5 13.5t-54 38.5t-32.5 59.5t-11 75.5q0 33 8.5 68t29 64t55 48t87.5 19q43 0 76 -13.5t55 -38.5t33 -59t11 -76zM297 574q0 66 -19.5 104.5t-70.5 38.5q-49 0 -69.5 -35t-20.5 -107q0 -67 19.5 -105
t70.5 -38q49 0 69.5 35t20.5 107z" />
    <glyph glyph-name="guillemotright" unicode="&#xbb;" horiz-adv-x="493" 
d="M341 61h-95l121 224l-121 223h95l105 -223zM144 61h-95l121 224l-121 223h95l105 -223z" />
    <glyph glyph-name="onequarter" unicode="&#xbc;" horiz-adv-x="762" 
d="M734 94q-6 1 -14 3q-7 2 -17 3t-24 1h-7q0 -23 2 -47.5t12 -43.5l6 -11h-14q-8 0 -19.5 0.5t-28.5 0.5t-28.5 -0.5t-19.5 -0.5h-14l5 11q9 17 12 41t3 50h-216q0 17 1 35t7.5 36.5t20.5 39t40 43.5l49 47q30 28 49.5 46.5t30 32.5t14.5 25.5t4 25.5q0 9 -1 15t-3 10t-4 6
q6 -1 14 -1h38h38q8 0 14 1v-5q0 -29 -4.5 -49.5t-18 -40t-37 -40.5t-62.5 -50l-54 -41q-23 -19 -38 -38t-15 -37h133v47q8 1 21 5.5t25.5 11t23 13.5t14.5 12v-89h7q28 0 42 3q8 2 13 4q-1 -4 -1 -9v-28v-28q0 -5 1 -10zM200 249q-6 0 -15 1q-8 0 -20.5 0.5t-29.5 0.5
t-29 -0.5t-20 -0.5q-9 -1 -15 -1l5 11q5 9 8 18t5 30.5t3 62.5t1 114v147q0 7 -3 10t-14 3h-75q12 21 35.5 31.5t50 17t52.5 13t45 21.5q-2 -24 -3 -59q-3 -60 -3 -191q0 -71 0.5 -110t2.5 -60t5 -29.5t8 -18.5zM179 0h-71l437 713h70z" />
    <glyph glyph-name="onehalf" unicode="&#xbd;" horiz-adv-x="816" 
d="M771 96q-1 -8 -2 -19q-1 -9 -2 -21t-1 -26v-30h-296q0 45 17.5 76.5t55.5 67.5l56 52q22 21 37 37.5t24.5 32t13.5 31.5t4 36q0 44 -22.5 62.5t-60.5 18.5q-47 0 -69 -15t-42 -45v13q0 6 0.5 15t0.5 21t-0.5 20.5t-0.5 13.5v10q11 6 29 10q15 4 38 7t56 3q47 0 78.5 -10
t50 -27t26.5 -40.5t8 -51.5q0 -29 -7 -51.5t-20.5 -42.5t-34.5 -39t-48 -41l-48 -39q-20 -17 -37.5 -35t-18.5 -26h120q23 0 41.5 3.5t29.5 11.5q7 4 11.5 7.5t7.5 5.5q4 3 5 4zM200 249q-6 0 -15 1q-8 0 -20.5 0.5t-29.5 0.5t-29 -0.5t-20 -0.5q-9 -1 -15 -1l5 11q5 9 8 18
t5 30.5t3 62.5t1 114v147q0 7 -3 10t-14 3h-75q12 21 35.5 31.5t50 17t52.5 13t45 21.5q-2 -24 -3 -59q-3 -60 -3 -191q0 -71 0.5 -110t2.5 -60t5 -29.5t8 -18.5zM180 0h-71l437 713h70z" />
    <glyph glyph-name="threequarters" unicode="&#xbe;" horiz-adv-x="833" 
d="M805 94q-6 1 -14 3q-7 2 -17 3t-24 1h-7q0 -23 2 -47.5t12 -43.5l6 -11h-14q-8 0 -19.5 0.5t-28.5 0.5t-28.5 -0.5t-19.5 -0.5h-14l5 11q9 17 12 41t3 50h-216q0 17 1 35t7.5 36.5t20.5 39t40 43.5l49 47q30 28 49.5 46.5t30 32.5t14.5 25.5t4 25.5q0 9 -1 15t-3 10t-4 6
q6 -1 14 -1h38h38q8 0 14 1v-5q0 -29 -4.5 -49.5t-18 -40t-37 -40.5t-62.5 -50l-54 -41q-23 -19 -38 -38t-15 -37h133v47q8 1 21 5.5t25.5 11t23 13.5t14.5 12v-89h7q28 0 42 3q8 2 13 4q-1 -4 -1 -9v-28v-28q0 -5 1 -10zM315 379q0 -47 -18.5 -73.5t-45.5 -40t-56 -17
t-50 -3.5q-36 0 -61.5 8t-42 20t-24.5 25t-8 24q10 -7 26 -12q14 -5 34 -8.5t47 -3.5q46 0 77.5 17.5t31.5 67.5q0 18 -4 32.5t-14.5 25t-28.5 16.5t-46 6q-20 0 -31.5 -3t-17.5 -6v7q0 4 0.5 10.5t0.5 16.5t-0.5 16.5t-0.5 11.5v8q5 -3 18 -6.5t32 -3.5q39 0 63 19t24 61
q0 38 -21 55t-58 17q-38 0 -60 -13.5t-42 -43.5v12q0 6 0.5 15t0.5 20q0 12 -0.5 20.5t-0.5 13.5v10q11 5 28 9q14 3 36 6t51 3q81 0 118 -30t37 -81q0 -31 -10.5 -52t-26.5 -34.5t-36 -20t-39 -9.5q18 -1 38.5 -6t38 -17t29.5 -33.5t12 -55.5zM251 0h-71l437 713h70z" />
    <glyph glyph-name="questiondown" unicode="&#xbf;" horiz-adv-x="489" 
d="M341 517q0 -27 -16 -45t-47 -23q-35 5 -50 23t-15 44t16 44.5t48 23.5q35 -5 49.5 -23t14.5 -44zM454 -121q-16 -9 -41 -15q-21 -6 -54 -10.5t-79 -4.5q-117 0 -172 47t-55 130q0 28 7 53.5t20.5 50t32.5 49.5t43 54l47 57q12 14 20 24t12.5 17.5t6.5 14.5t2 16
q0 8 -2.5 14t-4.5 11q-4 5 -7 10h90q1 -4 2 -11t1 -18q-1 -32 -11 -55t-34 -54l-67 -89q-26 -35 -37.5 -66t-11.5 -67q0 -60 31 -91.5t96 -31.5q35 0 60 6t44 17t33 27t28 37q-1 -7 -1 -17q-1 -8 -1 -20v-26v-26.5t1 -18.5q0 -9 1 -14z" />
    <glyph glyph-name="Agrave" unicode="&#xc0;" horiz-adv-x="629" 
d="M629 -1q-11 0 -26 1q-13 0 -30.5 0.5t-40.5 0.5q-21 0 -38 -0.5t-30 -0.5q-15 -1 -27 -1q10 7 21 21t11 42q0 26 -12 69.5t-27 97.5l-18 63h-223l-18 -63q-16 -54 -27.5 -97.5t-11.5 -69.5q0 -28 11.5 -42t21.5 -21q-11 0 -24 1q-12 0 -28.5 0.5t-36.5 0.5
q-22 0 -37.5 -0.5t-26.5 -0.5q-12 -1 -21 -1q14 13 25 32.5t22 47.5t23 66.5t29 90.5l130 417q3 9 5.5 18t2.5 19t-2.5 14.5t-4.5 6.5h189q0 -1 -3 -5.5t-3 -15.5q0 -10 2 -19t5 -18l122 -417q15 -52 27 -90.5t22.5 -66.5t21.5 -47.5t25 -32.5zM323 602q-8 30 -13.5 49
t-7.5 26q-2 -5 -7 -24t-15 -51l-72 -244h186zM363 753q-14 4 -32 11q-15 6 -35 17t-43 30q-25 20 -40.5 36.5t-23.5 28.5q-11 14 -15 26h106z" />
    <glyph glyph-name="Aacute" unicode="&#xc1;" horiz-adv-x="629" 
d="M629 -1q-11 0 -26 1q-13 0 -30.5 0.5t-40.5 0.5q-21 0 -38 -0.5t-30 -0.5q-15 -1 -27 -1q10 7 21 21t11 42q0 26 -12 69.5t-27 97.5l-18 63h-223l-18 -63q-16 -54 -27.5 -97.5t-11.5 -69.5q0 -28 11.5 -42t21.5 -21q-11 0 -24 1q-12 0 -28.5 0.5t-36.5 0.5
q-22 0 -37.5 -0.5t-26.5 -0.5q-12 -1 -21 -1q14 13 25 32.5t22 47.5t23 66.5t29 90.5l130 417q3 9 5.5 18t2.5 19t-2.5 14.5t-4.5 6.5h189q0 -1 -3 -5.5t-3 -15.5q0 -10 2 -19t5 -18l122 -417q15 -52 27 -90.5t22.5 -66.5t21.5 -47.5t25 -32.5zM323 602q-8 30 -13.5 49
t-7.5 26q-2 -5 -7 -24t-15 -51l-72 -244h186zM349 902h106q-4 -12 -15 -26q-9 -12 -24.5 -28.5t-40.5 -36.5q-23 -19 -42.5 -30t-34.5 -17q-18 -7 -32 -11z" />
    <glyph glyph-name="Acircumflex" unicode="&#xc2;" horiz-adv-x="629" 
d="M629 -1q-11 0 -26 1q-13 0 -30.5 0.5t-40.5 0.5q-21 0 -38 -0.5t-30 -0.5q-15 -1 -27 -1q10 7 21 21t11 42q0 26 -12 69.5t-27 97.5l-18 63h-223l-18 -63q-16 -54 -27.5 -97.5t-11.5 -69.5q0 -28 11.5 -42t21.5 -21q-11 0 -24 1q-12 0 -28.5 0.5t-36.5 0.5
q-22 0 -37.5 -0.5t-26.5 -0.5q-12 -1 -21 -1q14 13 25 32.5t22 47.5t23 66.5t29 90.5l130 417q3 9 5.5 18t2.5 19t-2.5 14.5t-4.5 6.5h189q0 -1 -3 -5.5t-3 -15.5q0 -10 2 -19t5 -18l122 -417q15 -52 27 -90.5t22.5 -66.5t21.5 -47.5t25 -32.5zM323 602q-8 30 -13.5 49
t-7.5 26q-2 -5 -7 -24t-15 -51l-72 -244h186zM479 752q-47 3 -93 23t-72 52q-35 -38 -79 -55.5t-86 -19.5l136 150h59z" />
    <glyph glyph-name="Atilde" unicode="&#xc3;" horiz-adv-x="629" 
d="M629 -1q-11 0 -26 1q-13 0 -30.5 0.5t-40.5 0.5q-21 0 -38 -0.5t-30 -0.5q-15 -1 -27 -1q10 7 21 21t11 42q0 26 -12 69.5t-27 97.5l-18 63h-223l-18 -63q-16 -54 -27.5 -97.5t-11.5 -69.5q0 -28 11.5 -42t21.5 -21q-11 0 -24 1q-12 0 -28.5 0.5t-36.5 0.5
q-22 0 -37.5 -0.5t-26.5 -0.5q-12 -1 -21 -1q14 13 25 32.5t22 47.5t23 66.5t29 90.5l130 417q3 9 5.5 18t2.5 19t-2.5 14.5t-4.5 6.5h189q0 -1 -3 -5.5t-3 -15.5q0 -10 2 -19t5 -18l122 -417q15 -52 27 -90.5t22.5 -66.5t21.5 -47.5t25 -32.5zM323 602q-8 30 -13.5 49
t-7.5 26q-2 -5 -7 -24t-15 -51l-72 -244h186zM401 838q15 0 28 7t22.5 15t15 15.5t6.5 9.5q0 -55 -23.5 -84t-62.5 -29q-15 0 -28 3.5t-23 6.5l-59 21q-13 5 -20.5 6.5t-20.5 1.5q-15 0 -28 -7t-22.5 -15.5t-15 -16t-6.5 -9.5q0 56 24 85t62 29q15 0 28 -3t23 -7l59 -21
q13 -5 20.5 -6.5t20.5 -1.5z" />
    <glyph glyph-name="Adieresis" unicode="&#xc4;" horiz-adv-x="629" 
d="M629 -1q-11 0 -26 1q-13 0 -30.5 0.5t-40.5 0.5q-21 0 -38 -0.5t-30 -0.5q-15 -1 -27 -1q10 7 21 21t11 42q0 26 -12 69.5t-27 97.5l-18 63h-223l-18 -63q-16 -54 -27.5 -97.5t-11.5 -69.5q0 -28 11.5 -42t21.5 -21q-11 0 -24 1q-12 0 -28.5 0.5t-36.5 0.5
q-22 0 -37.5 -0.5t-26.5 -0.5q-12 -1 -21 -1q14 13 25 32.5t22 47.5t23 66.5t29 90.5l130 417q3 9 5.5 18t2.5 19t-2.5 14.5t-4.5 6.5h189q0 -1 -3 -5.5t-3 -15.5q0 -10 2 -19t5 -18l122 -417q15 -52 27 -90.5t22.5 -66.5t21.5 -47.5t25 -32.5zM323 602q-8 30 -13.5 49
t-7.5 26q-2 -5 -7 -24t-15 -51l-72 -244h186zM279 827q0 -26 -16 -40.5t-43 -14.5q-24 0 -39.5 14.5t-15.5 39.5q0 26 16 40t42 14q24 0 40 -14.5t16 -38.5zM468 827q0 -26 -15.5 -40.5t-42.5 -14.5q-24 0 -39.5 14.5t-15.5 39.5q0 26 15.5 40t41.5 14q25 0 40.5 -14.5
t15.5 -38.5z" />
    <glyph glyph-name="Aring" unicode="&#xc5;" horiz-adv-x="629" 
d="M629 -1q-11 0 -26 1q-13 0 -30.5 0.5t-40.5 0.5q-21 0 -38 -0.5t-30 -0.5q-15 -1 -27 -1q10 7 21 21t11 42q0 26 -12 69.5t-27 97.5l-18 63h-223l-18 -63q-16 -54 -27.5 -97.5t-11.5 -69.5q0 -28 11.5 -42t21.5 -21q-11 0 -24 1q-12 0 -28.5 0.5t-36.5 0.5
q-22 0 -37.5 -0.5t-26.5 -0.5q-12 -1 -21 -1q14 13 25 32.5t22 47.5t23 66.5t29 90.5l130 417q3 9 5.5 18t2.5 19t-2.5 14.5t-4.5 6.5h18q-30 25 -30 72q0 50 31 76t76 26q46 0 77 -26t31 -76q0 -23 -8.5 -41.5t-22.5 -30.5h17q0 -1 -3 -5.5t-3 -15.5q0 -10 2 -19t5 -18
l122 -417q15 -52 27 -90.5t22.5 -66.5t21.5 -47.5t25 -32.5zM323 602q-8 30 -13.5 49.5t-7.5 24.5q-6 -18 -10 -34q-4 -14 -7.5 -26t-4.5 -14l-72 -244h186zM374 783q0 29 -16 44t-42 15q-23 0 -40.5 -15t-17.5 -44t16 -43.5t43 -14.5q23 0 40 14.5t17 43.5z" />
    <glyph glyph-name="AE" unicode="&#xc6;" horiz-adv-x="842" 
d="M785 147q-1 -11 -3 -28q-2 -14 -4 -36.5t-4 -52.5l-2 -30h-342q-20 0 -35 -0.5t-24 -0.5h-18l9 17q7 14 12 28.5t8 44.5t4 83.5t1 144.5h-161l-67 -141q-17 -35 -26.5 -56t-14.5 -34t-6.5 -22t-1.5 -19q0 -26 23 -46q-12 0 -26 1q-12 0 -28.5 0.5t-36.5 0.5
q-26 0 -43 -0.5t-28 -0.5q-13 -1 -21 -1q15 11 27 23t25.5 32t31.5 53t46 87l267 519q4 -1 15 -1h61h339q-1 -6 -1 -13v-39q0 -30 1.5 -44.5t1.5 -16.5q-1 1 -8 7.5t-28 19.5q-38 22 -110 22h-133v-268h109q35 0 63.5 4t46.5 15q20 11 27 17.5t9 8.5q0 -1 -1.5 -21.5
t-1.5 -56.5q0 -35 1.5 -54.5t1.5 -21.5q-1 1 -8 7.5t-28 19.5q-18 11 -46.5 15t-63.5 4h-109v-253h123q46 0 74.5 5.5t46.5 16t30 26t26 35.5zM387 664q-1 -1 -9 -22.5t-24 -56.5l-99 -206h132v285z" />
    <glyph glyph-name="Ccedilla" unicode="&#xc7;" horiz-adv-x="632" 
d="M593 22q-21 -9 -48 -15q-23 -5 -57.5 -9.5t-77.5 -4.5q-4 0 -7.5 0.5t-7.5 0.5q-6 -11 -6 -19q0 -9 6.5 -15t17.5 -13l12 -9q5 -3 12.5 -8.5t14 -13t11 -18.5t4.5 -25q0 -27 -15 -44.5t-37.5 -27t-47.5 -12.5t-45 -1q4 1 15 7.5t22.5 16.5t20 23t8.5 28t-5.5 25t-16.5 25
l-6 8q-6 8 -10.5 16.5t-4.5 20.5q0 10 4 19.5t9 17.5q-69 6 -118 26.5t-82.5 50.5t-53.5 66t-30.5 73t-13.5 72.5t-3 63.5q0 180 94 276t266 96q48 0 81 -5t54 -10q25 -6 41 -14q-1 -7 -1 -17q-1 -8 -1 -20v-28v-28.5t1 -21.5q0 -11 1 -20q-16 23 -32 41.5t-35.5 31
t-45.5 19t-62 6.5q-38 0 -82.5 -11t-82.5 -43t-63 -91t-25 -156q0 -60 11 -113.5t39 -93t76.5 -63t122.5 -23.5q37 0 64 7t47 20t36 31.5t32 41.5q-1 -10 -1 -22q-1 -11 -1 -24.5v-29.5v-25.5t1 -19.5q0 -10 1 -16z" />
    <glyph glyph-name="Egrave" unicode="&#xc8;" horiz-adv-x="566" 
d="M338 753q-14 4 -32 11q-15 6 -35 17t-43 30q-25 20 -40.5 36.5t-23.5 28.5q-11 14 -15 26h106zM509 147q-1 -11 -3 -28q-2 -14 -4 -36.5t-4 -52.5l-2 -30h-343q-20 0 -35 -0.5t-24 -0.5h-18l9 17q5 9 9 17.5t6.5 22t4.5 35t3 56.5t1.5 87t0.5 127q0 109 -1 169.5t-3.5 92
t-7.5 45t-13 28.5l-9 17q7 -1 18 -1h58h334q-1 -6 -1 -13v-39q0 -30 1.5 -44.5t1.5 -16.5q-1 1 -8 7.5t-28 19.5q-38 22 -110 22h-132v-259h108q35 0 63.5 4t46.5 15q20 11 27 17.5t9 8.5q0 -1 -1.5 -21.5t-1.5 -56.5q0 -35 1.5 -55t1.5 -22q-1 1 -8 7.5t-28 19.5
q-18 11 -46.5 15t-63.5 4h-108v-261h122q46 0 74.5 5.5t46.5 16t30 26t26 35.5z" />
    <glyph glyph-name="Eacute" unicode="&#xc9;" horiz-adv-x="566" 
d="M324 902h106q-4 -12 -15 -26q-9 -12 -24.5 -28.5t-40.5 -36.5q-23 -19 -42.5 -30t-34.5 -17q-18 -7 -32 -11zM509 147q-1 -11 -3 -28q-2 -14 -4 -36.5t-4 -52.5l-2 -30h-343q-20 0 -35 -0.5t-24 -0.5h-18l9 17q5 9 9 17.5t6.5 22t4.5 35t3 56.5t1.5 87t0.5 127
q0 109 -1 169.5t-3.5 92t-7.5 45t-13 28.5l-9 17q7 -1 18 -1h58h334q-1 -6 -1 -13v-39q0 -30 1.5 -44.5t1.5 -16.5q-1 1 -8 7.5t-28 19.5q-38 22 -110 22h-132v-259h108q35 0 63.5 4t46.5 15q20 11 27 17.5t9 8.5q0 -1 -1.5 -21.5t-1.5 -56.5q0 -35 1.5 -55t1.5 -22
q-1 1 -8 7.5t-28 19.5q-18 11 -46.5 15t-63.5 4h-108v-261h122q46 0 74.5 5.5t46.5 16t30 26t26 35.5z" />
    <glyph glyph-name="Ecircumflex" unicode="&#xca;" horiz-adv-x="566" 
d="M509 147q-1 -11 -3 -28q-2 -14 -4 -36.5t-4 -52.5l-2 -30h-343q-20 0 -35 -0.5t-24 -0.5h-18l9 17q5 9 9 17.5t6.5 22t4.5 35t3 56.5t1.5 87t0.5 127q0 109 -1 169.5t-3.5 92t-7.5 45t-13 28.5l-9 17q7 -1 18 -1h58h334q-1 -6 -1 -13v-39q0 -30 1.5 -44.5t1.5 -16.5
q-1 1 -8 7.5t-28 19.5q-38 22 -110 22h-132v-259h108q35 0 63.5 4t46.5 15q20 11 27 17.5t9 8.5q0 -1 -1.5 -21.5t-1.5 -56.5q0 -35 1.5 -55t1.5 -22q-1 1 -8 7.5t-28 19.5q-18 11 -46.5 15t-63.5 4h-108v-261h122q46 0 74.5 5.5t46.5 16t30 26t26 35.5zM453 752
q-47 3 -93 23t-72 52q-35 -38 -79 -55.5t-86 -19.5l136 150h59z" />
    <glyph glyph-name="Edieresis" unicode="&#xcb;" horiz-adv-x="566" 
d="M255 827q0 -26 -16 -40.5t-43 -14.5q-24 0 -39.5 14.5t-15.5 39.5q0 26 16 40t42 14q24 0 40 -14.5t16 -38.5zM444 827q0 -26 -15.5 -40.5t-42.5 -14.5q-24 0 -39.5 14.5t-15.5 39.5q0 26 15.5 40t41.5 14q25 0 40.5 -14.5t15.5 -38.5zM509 147q-1 -11 -3 -28
q-2 -14 -4 -36.5t-4 -52.5l-2 -30h-343q-20 0 -35 -0.5t-24 -0.5h-18l9 17q5 9 9 17.5t6.5 22t4.5 35t3 56.5t1.5 87t0.5 127q0 109 -1 169.5t-3.5 92t-7.5 45t-13 28.5l-9 17q7 -1 18 -1h58h334q-1 -6 -1 -13v-39q0 -30 1.5 -44.5t1.5 -16.5q-1 1 -8 7.5t-28 19.5
q-38 22 -110 22h-132v-259h108q35 0 63.5 4t46.5 15q20 11 27 17.5t9 8.5q0 -1 -1.5 -21.5t-1.5 -56.5q0 -35 1.5 -55t1.5 -22q-1 1 -8 7.5t-28 19.5q-18 11 -46.5 15t-63.5 4h-108v-261h122q46 0 74.5 5.5t46.5 16t30 26t26 35.5z" />
    <glyph glyph-name="Igrave" unicode="&#xcc;" horiz-adv-x="319" 
d="M243 -1q-8 0 -19 1q-10 0 -26 0.5t-38 0.5q-23 0 -38 -0.5t-26 -0.5q-12 -1 -20 -1l9 17q5 9 9 17.5t6.5 22t4.5 35t3 56.5t1.5 87t0.5 127q0 109 -1 169.5t-3.5 92t-7.5 45t-13 28.5l-9 17q8 -1 19 -1q10 -1 25.5 -1h38.5h38t26 1q11 0 20 1l-9 -17l-9 -18t-6.5 -21.5
t-4.5 -35t-3 -56.5t-1.5 -87t-0.5 -127q0 -109 1 -169.5t3.5 -92t7.5 -45t13 -28.5zM211 753q-14 4 -32 11q-15 6 -35 17t-43 30q-25 20 -40.5 36.5t-23.5 28.5q-11 14 -15 26h106z" />
    <glyph glyph-name="Iacute" unicode="&#xcd;" horiz-adv-x="319" 
d="M243 -1q-8 0 -19 1q-10 0 -26 0.5t-38 0.5q-23 0 -38 -0.5t-26 -0.5q-12 -1 -20 -1l9 17q5 9 9 17.5t6.5 22t4.5 35t3 56.5t1.5 87t0.5 127q0 109 -1 169.5t-3.5 92t-7.5 45t-13 28.5l-9 17q8 -1 19 -1q10 -1 25.5 -1h38.5h38t26 1q11 0 20 1l-9 -17l-9 -18t-6.5 -21.5
t-4.5 -35t-3 -56.5t-1.5 -87t-0.5 -127q0 -109 1 -169.5t3.5 -92t7.5 -45t13 -28.5zM196 902h106q-4 -12 -15 -26q-9 -12 -24.5 -28.5t-40.5 -36.5q-23 -19 -42.5 -30t-34.5 -17q-18 -7 -32 -11z" />
    <glyph glyph-name="Icircumflex" unicode="&#xce;" horiz-adv-x="319" 
d="M243 -1q-8 0 -19 1q-10 0 -26 0.5t-38 0.5q-23 0 -38 -0.5t-26 -0.5q-12 -1 -20 -1l9 17q5 9 9 17.5t6.5 22t4.5 35t3 56.5t1.5 87t0.5 127q0 109 -1 169.5t-3.5 92t-7.5 45t-13 28.5l-9 17q8 -1 19 -1q10 -1 25.5 -1h38.5h38t26 1q11 0 20 1l-9 -17l-9 -18t-6.5 -21.5
t-4.5 -35t-3 -56.5t-1.5 -87t-0.5 -127q0 -109 1 -169.5t3.5 -92t7.5 -45t13 -28.5zM327 752q-47 3 -93 23t-72 52q-35 -38 -79 -55.5t-86 -19.5l136 150h59z" />
    <glyph glyph-name="Idieresis" unicode="&#xcf;" horiz-adv-x="319" 
d="M243 -1q-8 0 -19 1q-10 0 -26 0.5t-38 0.5q-23 0 -38 -0.5t-26 -0.5q-12 -1 -20 -1l9 17q5 9 9 17.5t6.5 22t4.5 35t3 56.5t1.5 87t0.5 127q0 109 -1 169.5t-3.5 92t-7.5 45t-13 28.5l-9 17q8 -1 19 -1q10 -1 25.5 -1h38.5h38t26 1q11 0 20 1l-9 -17l-9 -18t-6.5 -21.5
t-4.5 -35t-3 -56.5t-1.5 -87t-0.5 -127q0 -109 1 -169.5t3.5 -92t7.5 -45t13 -28.5zM124 827q0 -26 -16 -40.5t-43 -14.5q-24 0 -39.5 14.5t-15.5 39.5q0 26 16 40t42 14q24 0 40 -14.5t16 -38.5zM313 827q0 -26 -15.5 -40.5t-42.5 -14.5q-24 0 -39.5 14.5t-15.5 39.5
q0 26 15.5 40t41.5 14q25 0 40.5 -14.5t15.5 -38.5z" />
    <glyph glyph-name="Eth" unicode="&#xd0;" horiz-adv-x="748" 
d="M691 372q0 -92 -20.5 -155.5t-53.5 -105t-75 -64.5t-85.5 -34t-85 -13t-72.5 -2q-32 0 -61.5 1.5t-58.5 1.5q-21 0 -36.5 -0.5t-26.5 -0.5q-12 -1 -20 -1l9 17q7 13 11.5 26t7.5 42t4.5 83t1.5 149h-13q-29 0 -48 -2t-30 -4q-13 -3 -20 -6v10q0 5 0.5 12.5t0.5 18.5
q0 10 -0.5 17.5t-0.5 12.5v11q7 -3 20 -6q11 -2 30 -4t48 -2h13q0 103 -1 161t-4 88.5t-8 44t-12 28.5l-9 17q8 -1 20 -1q11 -1 26 -1h36q30 0 67 1.5t69 1.5q25 0 63 -2t80 -12.5t84 -31.5t75 -59t54 -96t21 -141zM582 360q0 96 -24 153.5t-64 88t-90.5 40t-102.5 9.5
q-15 0 -28 -0.5t-22 -1.5q-11 -1 -20 -1v-274h73q29 0 47.5 2t29.5 4q13 3 21 6q-1 -5 -1 -11v-30v-31q0 -6 1 -10q-8 3 -21 6q-11 2 -29.5 4t-47.5 2h-73v-252q10 -1 21 -2q10 -1 21.5 -1h24.5q49 0 99.5 8.5t91.5 39t67 90t26 161.5z" />
    <glyph glyph-name="Ntilde" unicode="&#xd1;" horiz-adv-x="739" 
d="M460 838q15 0 28 7t22.5 15t15 15.5t6.5 9.5q0 -55 -23.5 -84t-62.5 -29q-15 0 -28 3.5t-23 6.5l-59 21q-13 5 -20.5 6.5t-20.5 1.5q-15 0 -28 -7t-22.5 -15.5t-15 -16t-6.5 -9.5q0 56 24 85t62 29q15 0 28 -3t23 -7l59 -21q13 -5 20.5 -6.5t20.5 -1.5zM661 696
q-5 -9 -8.5 -17t-6 -21.5t-4.5 -35t-3 -57t-1.5 -87.5t-0.5 -127l-1 -353q-7 0 -16 1q-8 1 -19.5 1.5t-25.5 0.5q-17 0 -29.5 -0.5t-20.5 -1.5q-10 -1 -17 -1l-296 563q-11 22 -18 43t-8 26v-279q0 -109 1 -169.5t3.5 -92t7.5 -45t13 -28.5l9 -17q-8 0 -19 1q-9 0 -23 0.5
t-32 0.5q-19 0 -32.5 -0.5t-21.5 -0.5q-11 -1 -17 -1l9 17q5 9 8.5 17t6.5 21.5t5 35t3.5 57t2 87.5t0.5 127q0 109 -1 169.5t-3.5 92t-7.5 45t-13 28.5l-9 17q7 -1 18 -1q10 -1 26.5 -1h40.5h33t24 1q11 0 19 1l294 -559q16 -32 23 -51q4 -11 6 -20v278q0 109 -1 169.5
t-3.5 92t-7.5 45t-13 28.5l-9 17q7 -1 18 -1q9 -1 22 -1h32h32.5t22.5 1q11 0 17 1z" />
    <glyph glyph-name="Ograve" unicode="&#xd2;" horiz-adv-x="749" 
d="M422 753q-14 4 -32 11q-15 6 -35 17t-43 30q-25 20 -40.5 36.5t-23.5 28.5q-11 14 -15 26h106zM692 369q0 -22 -2.5 -58.5t-13 -79t-30.5 -85.5t-55.5 -78.5t-88.5 -57.5t-128 -22q-77 0 -136 25.5t-99 71.5t-61 110.5t-21 143.5q0 22 2.5 58.5t12.5 79t30.5 85.5
t56 78.5t88.5 57.5t128 22q76 0 135.5 -25.5t99.5 -71.5t61 -110.5t21 -143.5zM582 358q0 84 -17 140.5t-45.5 91t-66 49t-79.5 14.5q-40 0 -77.5 -15t-66 -50.5t-46 -93.5t-17.5 -144q0 -84 17 -140.5t45.5 -91t66 -49t79.5 -14.5q40 0 77.5 15t66.5 50.5t46 93.5t17 144z
" />
    <glyph glyph-name="Oacute" unicode="&#xd3;" horiz-adv-x="749" 
d="M409 902h106q-4 -12 -15 -26q-9 -12 -24.5 -28.5t-40.5 -36.5q-23 -19 -42.5 -30t-34.5 -17q-18 -7 -32 -11zM692 369q0 -22 -2.5 -58.5t-13 -79t-30.5 -85.5t-55.5 -78.5t-88.5 -57.5t-128 -22q-77 0 -136 25.5t-99 71.5t-61 110.5t-21 143.5q0 22 2.5 58.5t12.5 79
t30.5 85.5t56 78.5t88.5 57.5t128 22q76 0 135.5 -25.5t99.5 -71.5t61 -110.5t21 -143.5zM582 358q0 84 -17 140.5t-45.5 91t-66 49t-79.5 14.5q-40 0 -77.5 -15t-66 -50.5t-46 -93.5t-17.5 -144q0 -84 17 -140.5t45.5 -91t66 -49t79.5 -14.5q40 0 77.5 15t66.5 50.5
t46 93.5t17 144z" />
    <glyph glyph-name="Ocircumflex" unicode="&#xd4;" horiz-adv-x="749" 
d="M692 369q0 -22 -2.5 -58.5t-13 -79t-30.5 -85.5t-55.5 -78.5t-88.5 -57.5t-128 -22q-77 0 -136 25.5t-99 71.5t-61 110.5t-21 143.5q0 22 2.5 58.5t12.5 79t30.5 85.5t56 78.5t88.5 57.5t128 22q76 0 135.5 -25.5t99.5 -71.5t61 -110.5t21 -143.5zM582 358
q0 84 -17 140.5t-45.5 91t-66 49t-79.5 14.5q-40 0 -77.5 -15t-66 -50.5t-46 -93.5t-17.5 -144q0 -84 17 -140.5t45.5 -91t66 -49t79.5 -14.5q40 0 77.5 15t66.5 50.5t46 93.5t17 144zM538 752q-47 3 -93 23t-72 52q-35 -38 -79 -55.5t-86 -19.5l136 150h59z" />
    <glyph glyph-name="Otilde" unicode="&#xd5;" horiz-adv-x="749" 
d="M466 838q15 0 28 7t22.5 15t15 15.5t6.5 9.5q0 -55 -23.5 -84t-62.5 -29q-15 0 -28 3.5t-23 6.5l-59 21q-13 5 -20.5 6.5t-20.5 1.5q-15 0 -28 -7t-22.5 -15.5t-15 -16t-6.5 -9.5q0 56 24 85t62 29q15 0 28 -3t23 -7l59 -21q13 -5 20.5 -6.5t20.5 -1.5zM692 369
q0 -22 -2.5 -58.5t-13 -79t-30.5 -85.5t-55.5 -78.5t-88.5 -57.5t-128 -22q-77 0 -136 25.5t-99 71.5t-61 110.5t-21 143.5q0 22 2.5 58.5t12.5 79t30.5 85.5t56 78.5t88.5 57.5t128 22q76 0 135.5 -25.5t99.5 -71.5t61 -110.5t21 -143.5zM582 358q0 84 -17 140.5t-45.5 91
t-66 49t-79.5 14.5q-40 0 -77.5 -15t-66 -50.5t-46 -93.5t-17.5 -144q0 -84 17 -140.5t45.5 -91t66 -49t79.5 -14.5q40 0 77.5 15t66.5 50.5t46 93.5t17 144z" />
    <glyph glyph-name="Odieresis" unicode="&#xd6;" horiz-adv-x="749" 
d="M336 827q0 -26 -16 -40.5t-43 -14.5q-24 0 -39.5 14.5t-15.5 39.5q0 26 16 40t42 14q24 0 40 -14.5t16 -38.5zM525 827q0 -26 -15.5 -40.5t-42.5 -14.5q-24 0 -39.5 14.5t-15.5 39.5q0 26 15.5 40t41.5 14q25 0 40.5 -14.5t15.5 -38.5zM692 369q0 -22 -2.5 -58.5t-13 -79
t-30.5 -85.5t-55.5 -78.5t-88.5 -57.5t-128 -22q-77 0 -136 25.5t-99 71.5t-61 110.5t-21 143.5q0 22 2.5 58.5t12.5 79t30.5 85.5t56 78.5t88.5 57.5t128 22q76 0 135.5 -25.5t99.5 -71.5t61 -110.5t21 -143.5zM582 358q0 84 -17 140.5t-45.5 91t-66 49t-79.5 14.5
q-40 0 -77.5 -15t-66 -50.5t-46 -93.5t-17.5 -144q0 -84 17 -140.5t45.5 -91t66 -49t79.5 -14.5q40 0 77.5 15t66.5 50.5t46 93.5t17 144z" />
    <glyph glyph-name="multiply" unicode="&#xd7;" 
d="M372 354l193 -191l-49 -49l-193 192l-192 -193l-49 49l193 192l-192 192l49 49l191 -192l193 193l49 -49z" />
    <glyph glyph-name="Oslash" unicode="&#xd8;" horiz-adv-x="749" 
d="M692 369q0 -22 -2.5 -58.5t-13 -79t-30.5 -85.5t-55.5 -78.5t-88.5 -57.5t-128 -22q-37 0 -69.5 6.5t-61.5 17.5l-36 -78l-52 23l39 80q-68 45 -102.5 122t-34.5 180q0 22 2.5 58.5t12.5 79t30.5 85.5t56 78.5t88.5 57.5t128 22q37 0 69.5 -6.5t61.5 -17.5l36 78l52 -23
l-38 -80q67 -45 101.5 -122t34.5 -180zM583 358q0 86 -18 143t-47 91l-242 -513q22 -13 47 -18.5t52 -5.5q40 0 78 15t66.5 50.5t46 93.5t17.5 144zM473 629q-22 13 -47 18.5t-52 5.5q-40 0 -77.5 -15t-66.5 -50.5t-46.5 -93.5t-17.5 -144t18 -143t48 -91z" />
    <glyph glyph-name="Ugrave" unicode="&#xd9;" horiz-adv-x="726" 
d="M420 753q-14 4 -32 11q-15 6 -35 17t-43 30q-25 20 -40.5 36.5t-23.5 28.5q-11 14 -15 26h106zM653 696q-7 -13 -12 -26t-8 -41.5t-4 -81t-1 -145.5v-63q0 -48 -1 -84t-4 -64.5t-9.5 -50.5t-18.5 -41q-28 -49 -81 -79t-149 -30q-75 0 -131.5 20t-91.5 68
q-13 18 -21.5 36.5t-13.5 43.5t-7 58.5t-2 80.5v78q0 100 -1 157.5t-3.5 88.5t-7.5 45.5t-13 29.5l-9 17q8 -1 20 -1q11 -1 26.5 -1h37.5h38t27 1q12 0 20 1l-9 -17q-7 -13 -12 -26t-8 -41.5t-4 -81t-1 -145.5v-139q0 -23 2 -49.5t6 -43.5q29 -113 163 -113q136 0 164 115
q4 17 6 39.5t2 44.5v105q0 109 -1 169.5t-3.5 92t-7.5 45t-13 28.5l-9 17q6 -1 17 -1q9 -1 23 -1h36h37t24 1q11 0 17 1z" />
    <glyph glyph-name="Uacute" unicode="&#xda;" horiz-adv-x="726" 
d="M404 902h106q-4 -12 -15 -26q-9 -12 -24.5 -28.5t-40.5 -36.5q-23 -19 -42.5 -30t-34.5 -17q-18 -7 -32 -11zM653 696q-7 -13 -12 -26t-8 -41.5t-4 -81t-1 -145.5v-63q0 -48 -1 -84t-4 -64.5t-9.5 -50.5t-18.5 -41q-28 -49 -81 -79t-149 -30q-75 0 -131.5 20t-91.5 68
q-13 18 -21.5 36.5t-13.5 43.5t-7 58.5t-2 80.5v78q0 100 -1 157.5t-3.5 88.5t-7.5 45.5t-13 29.5l-9 17q8 -1 20 -1q11 -1 26.5 -1h37.5h38t27 1q12 0 20 1l-9 -17q-7 -13 -12 -26t-8 -41.5t-4 -81t-1 -145.5v-139q0 -23 2 -49.5t6 -43.5q29 -113 163 -113q136 0 164 115
q4 17 6 39.5t2 44.5v105q0 109 -1 169.5t-3.5 92t-7.5 45t-13 28.5l-9 17q6 -1 17 -1q9 -1 23 -1h36h37t24 1q11 0 17 1z" />
    <glyph glyph-name="Ucircumflex" unicode="&#xdb;" horiz-adv-x="726" 
d="M653 696q-7 -13 -12 -26t-8 -41.5t-4 -81t-1 -145.5v-63q0 -48 -1 -84t-4 -64.5t-9.5 -50.5t-18.5 -41q-28 -49 -81 -79t-149 -30q-75 0 -131.5 20t-91.5 68q-13 18 -21.5 36.5t-13.5 43.5t-7 58.5t-2 80.5v78q0 100 -1 157.5t-3.5 88.5t-7.5 45.5t-13 29.5l-9 17
q8 -1 20 -1q11 -1 26.5 -1h37.5h38t27 1q12 0 20 1l-9 -17q-7 -13 -12 -26t-8 -41.5t-4 -81t-1 -145.5v-139q0 -23 2 -49.5t6 -43.5q29 -113 163 -113q136 0 164 115q4 17 6 39.5t2 44.5v105q0 109 -1 169.5t-3.5 92t-7.5 45t-13 28.5l-9 17q6 -1 17 -1q9 -1 23 -1h36h37
t24 1q11 0 17 1zM535 752q-47 3 -93 23t-72 52q-35 -38 -79 -55.5t-86 -19.5l136 150h59z" />
    <glyph glyph-name="Udieresis" unicode="&#xdc;" horiz-adv-x="726" 
d="M337 827q0 -26 -16 -40.5t-43 -14.5q-24 0 -39.5 14.5t-15.5 39.5q0 26 16 40t42 14q24 0 40 -14.5t16 -38.5zM526 827q0 -26 -15.5 -40.5t-42.5 -14.5q-24 0 -39.5 14.5t-15.5 39.5q0 26 15.5 40t41.5 14q25 0 40.5 -14.5t15.5 -38.5zM653 696q-7 -13 -12 -26t-8 -41.5
t-4 -81t-1 -145.5v-63q0 -48 -1 -84t-4 -64.5t-9.5 -50.5t-18.5 -41q-28 -49 -81 -79t-149 -30q-75 0 -131.5 20t-91.5 68q-13 18 -21.5 36.5t-13.5 43.5t-7 58.5t-2 80.5v78q0 100 -1 157.5t-3.5 88.5t-7.5 45.5t-13 29.5l-9 17q8 -1 20 -1q11 -1 26.5 -1h37.5h38t27 1
q12 0 20 1l-9 -17q-7 -13 -12 -26t-8 -41.5t-4 -81t-1 -145.5v-139q0 -23 2 -49.5t6 -43.5q29 -113 163 -113q136 0 164 115q4 17 6 39.5t2 44.5v105q0 109 -1 169.5t-3.5 92t-7.5 45t-13 28.5l-9 17q6 -1 17 -1q9 -1 23 -1h36h37t24 1q11 0 17 1z" />
    <glyph glyph-name="Yacute" unicode="&#xdd;" horiz-adv-x="559" 
d="M578 713q-12 -9 -22 -18.5t-23.5 -30.5t-34 -57t-54.5 -97l-107 -192q0 -92 1 -145.5t3.5 -83.5t7.5 -44t13 -29l9 -17q-8 0 -19 1q-10 0 -26 0.5t-38 0.5q-23 0 -38.5 -0.5t-26.5 -0.5q-12 -1 -20 -1l9 17q7 13 12 27t8 42.5t4 77t1 131.5l-117 218q-33 62 -53 97.5
t-33 55t-22.5 29t-22.5 19.5q9 -1 23 -1q12 -1 32 -1h49h48.5t30.5 1q13 0 20 1q-12 -11 -17.5 -23t-5.5 -24q0 -11 1.5 -20t7 -22.5t16.5 -35t29 -57.5l75 -146l74 147q18 36 28 57.5t15 35t6 22t1 19.5q0 12 -5.5 24t-17.5 23q11 -1 24 -1q11 -1 27.5 -1h36.5h42t28 1
q12 0 21 1zM326 902h106q-4 -12 -15 -26q-9 -12 -24.5 -28.5t-40.5 -36.5q-23 -19 -42.5 -30t-34.5 -17q-18 -7 -32 -11z" />
    <glyph glyph-name="Thorn" unicode="&#xde;" horiz-adv-x="568" 
d="M243 -1q-8 0 -19 1q-10 0 -26 0.5t-38 0.5q-23 0 -38 -0.5t-26 -0.5q-12 -1 -20 -1l9 17q5 9 9 17.5t6.5 22t4.5 35t3 56.5t1.5 87t0.5 127q0 109 -1 169.5t-3.5 92t-7.5 45t-13 28.5l-9 17q8 -1 19 -1q10 -1 25.5 -1h38.5h38t26 1q11 0 20 1l-9 -17q-4 -8 -7.5 -14.5
t-6 -15.5t-4.5 -22t-3 -32q14 1 27 1.5t24 0.5q35 0 81.5 -4.5t88.5 -24.5t71 -62t29 -117q0 -72 -25 -115.5t-63.5 -67t-84 -31t-85.5 -7.5q-23 0 -42 1.5t-25 2.5q1 -50 2.5 -79t4.5 -46t7.5 -27t10.5 -21zM263 553q-23 0 -37 -0.5t-16 -0.5q-1 -35 -1 -83.5v-117.5v-104
q3 0 17 -0.5t43 -0.5q56 0 87.5 17t46.5 41.5t18.5 52.5t3.5 50q0 49 -15.5 78t-39.5 44t-52.5 19.5t-54.5 4.5z" />
    <glyph glyph-name="germandbls" unicode="&#xdf;" horiz-adv-x="662" 
d="M624 158q0 -27 -7.5 -56t-29 -52.5t-59.5 -39t-99 -15.5q-35 0 -63 4.5t-47 10.5q-23 6 -39 15q0 5 1 14q0 8 0.5 19t0.5 26q0 14 -0.5 26.5t-0.5 21.5q-1 11 -1 19q14 -21 28.5 -39t31.5 -30.5t38.5 -19.5t49.5 -7q32 0 52 7.5t31.5 19.5t15.5 27t4 30q0 32 -15.5 50
t-43.5 35l-91 55q-19 11 -36 22.5t-29.5 26t-19.5 34t-7 47.5q0 27 8 46t21.5 34t30.5 27t36 24q17 10 32.5 20t27 22.5t18.5 27.5t7 36q0 24 -9.5 39.5t-27 25t-41 13.5t-51.5 4q-38 0 -63.5 -8t-40.5 -23q-29 -24 -34.5 -59.5t-5.5 -94.5v-305q0 -86 -0.5 -134t-1 -71
t-2 -28.5t-3.5 -5.5q-9 0 -26 1t-31 1h-65q2 3 6.5 14.5t4.5 31.5q6 12 10.5 28t7 43t3.5 69t1 106v19.5v46v59v59v46.5t1 20q2 46 10 90t33.5 78t73 55t127.5 21q35 0 75 -5t73.5 -19.5t56 -41t22.5 -69.5q0 -25 -7 -44.5t-21 -36t-34.5 -31t-46.5 -29.5
q-38 -23 -62.5 -41.5t-24.5 -42.5q0 -14 3.5 -23t12 -17.5t22.5 -16.5l35 -20l69 -39q47 -26 76 -60.5t29 -92.5z" />
    <glyph glyph-name="agrave" unicode="&#xe0;" horiz-adv-x="574" 
d="M387 -8l4 118q-9 -41 -28 -65t-42 -36.5t-48 -16.5t-46 -4q-53 0 -87 16t-53.5 40t-27 53t-7.5 55q0 63 24 99t59 53.5t76 21.5t75 4q21 0 39 -1t32 -2q16 -1 28 -2v47q0 30 -2.5 57t-16.5 47q-12 17 -36.5 27.5t-66.5 10.5q-11 0 -29.5 -1.5t-40.5 -8.5t-44 -22t-39 -42
q0 7 1 16q0 8 0.5 17.5t0.5 22.5t-0.5 23t-0.5 17q-1 8 -1 14q15 8 40 14q20 5 52.5 9.5t77.5 4.5q39 0 67.5 -5t48.5 -13t33 -18.5t21 -21.5q23 -29 27 -67t4 -86q0 -16 -1 -64t-1 -127q0 -55 5 -86t19 -56l9 -17zM385 265q-8 1 -19 2q-10 1 -25.5 2t-38.5 1
q-21 0 -47 -2.5t-48.5 -13t-38 -32t-15.5 -60.5q0 -56 31 -81t77 -25q38 0 62 9.5t38 21.5q16 13 24 31v147zM334 624q-14 3 -32 10q-15 6 -35 17t-43 30q-25 20 -40.5 36.5t-23.5 28.5q-11 14 -15 26h106z" />
    <glyph glyph-name="aacute" unicode="&#xe1;" horiz-adv-x="574" 
d="M387 -8l4 118q-9 -41 -28 -65t-42 -36.5t-48 -16.5t-46 -4q-53 0 -87 16t-53.5 40t-27 53t-7.5 55q0 63 24 99t59 53.5t76 21.5t75 4q21 0 39 -1t32 -2q16 -1 28 -2v47q0 30 -2.5 57t-16.5 47q-12 17 -36.5 27.5t-66.5 10.5q-11 0 -29.5 -1.5t-40.5 -8.5t-44 -22t-39 -42
q0 7 1 16q0 8 0.5 17.5t0.5 22.5t-0.5 23t-0.5 17q-1 8 -1 14q15 8 40 14q20 5 52.5 9.5t77.5 4.5q39 0 67.5 -5t48.5 -13t33 -18.5t21 -21.5q23 -29 27 -67t4 -86q0 -16 -1 -64t-1 -127q0 -55 5 -86t19 -56l9 -17zM385 265q-8 1 -19 2q-10 1 -25.5 2t-38.5 1
q-21 0 -47 -2.5t-48.5 -13t-38 -32t-15.5 -60.5q0 -56 31 -81t77 -25q38 0 62 9.5t38 21.5q16 13 24 31v147zM310 772h106q-4 -12 -15 -26q-9 -12 -24.5 -28.5t-40.5 -36.5q-23 -19 -42.5 -30t-34.5 -17q-18 -7 -32 -10z" />
    <glyph glyph-name="acircumflex" unicode="&#xe2;" horiz-adv-x="574" 
d="M387 -8l4 118q-9 -41 -28 -65t-42 -36.5t-48 -16.5t-46 -4q-53 0 -87 16t-53.5 40t-27 53t-7.5 55q0 63 24 99t59 53.5t76 21.5t75 4q21 0 39 -1t32 -2q16 -1 28 -2v47q0 30 -2.5 57t-16.5 47q-12 17 -36.5 27.5t-66.5 10.5q-11 0 -29.5 -1.5t-40.5 -8.5t-44 -22t-39 -42
q0 7 1 16q0 8 0.5 17.5t0.5 22.5t-0.5 23t-0.5 17q-1 8 -1 14q15 8 40 14q20 5 52.5 9.5t77.5 4.5q39 0 67.5 -5t48.5 -13t33 -18.5t21 -21.5q23 -29 27 -67t4 -86q0 -16 -1 -64t-1 -127q0 -55 5 -86t19 -56l9 -17zM385 265q-8 1 -19 2q-10 1 -25.5 2t-38.5 1
q-21 0 -47 -2.5t-48.5 -13t-38 -32t-15.5 -60.5q0 -56 31 -81t77 -25q38 0 62 9.5t38 21.5q16 13 24 31v147zM446 623q-47 2 -93 22t-72 52q-35 -38 -79 -55t-86 -19l136 149h59z" />
    <glyph glyph-name="atilde" unicode="&#xe3;" horiz-adv-x="574" 
d="M387 -8l4 118q-9 -41 -28 -65t-42 -36.5t-48 -16.5t-46 -4q-53 0 -87 16t-53.5 40t-27 53t-7.5 55q0 63 24 99t59 53.5t76 21.5t75 4q21 0 39 -1t32 -2q16 -1 28 -2v47q0 30 -2.5 57t-16.5 47q-12 17 -36.5 27.5t-66.5 10.5q-11 0 -29.5 -1.5t-40.5 -8.5t-44 -22t-39 -42
q0 7 1 16q0 8 0.5 17.5t0.5 22.5t-0.5 23t-0.5 17q-1 8 -1 14q15 8 40 14q20 5 52.5 9.5t77.5 4.5q39 0 67.5 -5t48.5 -13t33 -18.5t21 -21.5q23 -29 27 -67t4 -86q0 -16 -1 -64t-1 -127q0 -55 5 -86t19 -56l9 -17zM385 265q-8 1 -19 2q-10 1 -25.5 2t-38.5 1
q-21 0 -47 -2.5t-48.5 -13t-38 -32t-15.5 -60.5q0 -56 31 -81t77 -25q38 0 62 9.5t38 21.5q16 13 24 31v147zM368 707q15 0 28 7t22.5 15t15 15.5t6.5 9.5q0 -54 -23.5 -83t-62.5 -29q-15 0 -28 3t-23 7l-59 21q-13 5 -20.5 6.5t-20.5 1.5q-15 0 -28 -7t-22.5 -15.5t-15 -16
t-6.5 -9.5q0 56 24 84.5t62 28.5q15 0 28 -3t23 -7l59 -21q13 -4 20.5 -6t20.5 -2z" />
    <glyph glyph-name="adieresis" unicode="&#xe4;" horiz-adv-x="574" 
d="M387 -8l4 118q-9 -41 -28 -65t-42 -36.5t-48 -16.5t-46 -4q-53 0 -87 16t-53.5 40t-27 53t-7.5 55q0 63 24 99t59 53.5t76 21.5t75 4q21 0 39 -1t32 -2q16 -1 28 -2v47q0 30 -2.5 57t-16.5 47q-12 17 -36.5 27.5t-66.5 10.5q-11 0 -29.5 -1.5t-40.5 -8.5t-44 -22t-39 -42
q0 7 1 16q0 8 0.5 17.5t0.5 22.5t-0.5 23t-0.5 17q-1 8 -1 14q15 8 40 14q20 5 52.5 9.5t77.5 4.5q39 0 67.5 -5t48.5 -13t33 -18.5t21 -21.5q23 -29 27 -67t4 -86q0 -16 -1 -64t-1 -127q0 -55 5 -86t19 -56l9 -17zM385 265q-8 1 -19 2q-10 1 -25.5 2t-38.5 1
q-21 0 -47 -2.5t-48.5 -13t-38 -32t-15.5 -60.5q0 -56 31 -81t77 -25q38 0 62 9.5t38 21.5q16 13 24 31v147zM239 705q0 -26 -15.5 -40.5t-42.5 -14.5q-24 0 -39.5 14.5t-15.5 39.5q0 26 15.5 40t41.5 14q25 0 40.5 -14t15.5 -39zM429 705q0 -26 -15.5 -40.5t-42.5 -14.5
q-24 0 -40 14.5t-16 39.5q0 26 16 40t42 14q25 0 40.5 -14t15.5 -39z" />
    <glyph glyph-name="aring" unicode="&#xe5;" horiz-adv-x="574" 
d="M387 -8l4 118q-9 -41 -28 -65t-42 -36.5t-48 -16.5t-46 -4q-53 0 -87 16t-53.5 40t-27 53t-7.5 55q0 63 24 99t59 53.5t76 21.5t75 4q21 0 39 -1t32 -2q16 -1 28 -2v47q0 30 -2.5 57t-16.5 47q-12 17 -36.5 27.5t-66.5 10.5q-11 0 -29.5 -1.5t-40.5 -8.5t-44 -22t-39 -42
q0 7 1 16q0 8 0.5 17.5t0.5 22.5t-0.5 23t-0.5 17q-1 8 -1 14q15 8 40 14q20 5 52.5 9.5t77.5 4.5q39 0 67.5 -5t48.5 -13t33 -18.5t21 -21.5q23 -29 27 -67t4 -86q0 -16 -1 -64t-1 -127q0 -55 5 -86t19 -56l9 -17zM385 265q-8 1 -19 2q-10 1 -25.5 2t-38.5 1
q-21 0 -47 -2.5t-48.5 -13t-38 -32t-15.5 -60.5q0 -56 31 -81t77 -25q38 0 62 9.5t38 21.5q16 13 24 31v147zM384 708q0 -49 -30.5 -74.5t-75.5 -25.5t-75.5 25t-30.5 75q0 48 30 73.5t75 25.5t76 -25t31 -74zM335 708q0 29 -16 43.5t-42 14.5q-23 0 -40 -14.5t-17 -43.5
t16 -43.5t42 -14.5q23 0 40 14.5t17 43.5z" />
    <glyph glyph-name="ae" unicode="&#xe6;" horiz-adv-x="895" 
d="M478 283q0 -43 7.5 -83t26.5 -71.5t52.5 -50.5t85.5 -19t85.5 10.5t53.5 24.5q23 16 36 36q0 -27 -11 -52.5t-35 -45t-61.5 -31.5t-89.5 -12q-57 0 -94 13t-59 29q-26 18 -39 43q-17 -24 -43 -42q-23 -16 -59 -29t-89 -13q-61 0 -99 16t-59 40.5t-28 54.5t-7 58
q0 61 24.5 95.5t60.5 51t76.5 20.5t72.5 4q21 0 39 -1t32 -2q16 -1 28 -2v47q0 30 -2.5 57t-16.5 47q-12 17 -36.5 27.5t-66.5 10.5q-11 0 -29.5 -1.5t-40.5 -8.5t-44 -22t-39 -42q0 7 1 16q0 8 0.5 17.5t0.5 22.5t-0.5 23t-0.5 17q-1 8 -1 14q15 8 40 14q20 5 52.5 9.5
t77.5 4.5q64 0 108.5 -18.5t64.5 -58.5q24 33 68.5 55t103.5 22q78 0 122.5 -29t67 -72t28 -92.5t5.5 -91.5v-10h-370zM743 352q0 20 -2.5 48.5t-14 54.5t-36.5 44.5t-70 18.5q-24 0 -49 -6.5t-45.5 -26.5t-33.5 -56.5t-13 -96.5zM385 265q-8 1 -19 2q-10 1 -25.5 2t-38.5 1
q-21 0 -47 -2.5t-48.5 -13t-38 -32t-15.5 -60.5q0 -56 31 -81t77 -25q38 0 62 9.5t38 20.5q16 13 24 31v148z" />
    <glyph glyph-name="ccedilla" unicode="&#xe7;" horiz-adv-x="511" 
d="M479 129q0 -23 -9.5 -47t-29 -43.5t-50.5 -32.5t-74 -16q-2 -5 -3 -8.5t-1 -6.5q0 -9 6.5 -15t17.5 -13l12 -9q5 -3 12.5 -8.5t14 -13t11 -18.5t4.5 -25q0 -27 -15 -44.5t-37.5 -27t-47.5 -12.5t-45 -1q4 1 15 7.5t22.5 16.5t20 23t8.5 28t-5.5 25t-16.5 25l-6 8
q-6 8 -10.5 16.5t-4.5 20.5q0 8 2.5 16t6.5 16q-103 6 -164 78t-61 203q0 22 3 53.5t12 65.5t26.5 67.5t47 60t72 43t102.5 16.5q42 0 71 -6t48 -14q22 -9 36 -19q-1 -6 -1 -14q-1 -7 -1 -17.5v-24.5v-27t1 -24q0 -12 1 -24q-20 32 -37 53t-35 33.5t-37.5 17.5t-44.5 5
q-31 0 -60 -10.5t-51 -37t-35.5 -72.5t-13.5 -116q0 -45 9 -85t28.5 -70t51.5 -47.5t77 -17.5q43 0 73 10.5t49 23.5q22 15 35 35z" />
    <glyph glyph-name="egrave" unicode="&#xe8;" horiz-adv-x="576" 
d="M155 283q0 -40 7.5 -80t27.5 -72t53.5 -52t86.5 -20q52 0 85.5 10.5t53.5 24.5q23 16 36 36q0 -27 -11 -52.5t-35 -45t-61.5 -31.5t-90.5 -12q-123 0 -189 75.5t-66 214.5q0 80 20.5 136.5t54.5 92.5t79 53t94 17q51 0 88 -13.5t62.5 -35.5t40.5 -51.5t23.5 -61t11 -63.5
t2.5 -60v-10h-373zM423 352q0 20 -3 48.5t-15.5 54.5t-38 44.5t-69.5 18.5q-22 0 -46.5 -6t-45.5 -25.5t-34.5 -56t-14.5 -98.5zM343 624q-14 3 -32 10q-15 6 -35 17t-43 30q-25 20 -40.5 36.5t-23.5 28.5q-11 14 -15 26h106z" />
    <glyph glyph-name="eacute" unicode="&#xe9;" horiz-adv-x="576" 
d="M323 772h106q-4 -12 -15 -26q-9 -12 -24.5 -28.5t-40.5 -36.5q-23 -19 -42.5 -30t-34.5 -17q-18 -7 -32 -10zM155 283q0 -40 7.5 -80t27.5 -72t53.5 -52t86.5 -20q52 0 85.5 10.5t53.5 24.5q23 16 36 36q0 -27 -11 -52.5t-35 -45t-61.5 -31.5t-90.5 -12q-123 0 -189 75.5
t-66 214.5q0 80 20.5 136.5t54.5 92.5t79 53t94 17q51 0 88 -13.5t62.5 -35.5t40.5 -51.5t23.5 -61t11 -63.5t2.5 -60v-10h-373zM423 352q0 20 -3 48.5t-15.5 54.5t-38 44.5t-69.5 18.5q-22 0 -46.5 -6t-45.5 -25.5t-34.5 -56t-14.5 -98.5z" />
    <glyph glyph-name="ecircumflex" unicode="&#xea;" horiz-adv-x="576" 
d="M457 623q-47 2 -93 22t-72 52q-35 -38 -79 -55t-86 -19l136 149h59zM155 283q0 -40 7.5 -80t27.5 -72t53.5 -52t86.5 -20q52 0 85.5 10.5t53.5 24.5q23 16 36 36q0 -27 -11 -52.5t-35 -45t-61.5 -31.5t-90.5 -12q-123 0 -189 75.5t-66 214.5q0 80 20.5 136.5t54.5 92.5
t79 53t94 17q51 0 88 -13.5t62.5 -35.5t40.5 -51.5t23.5 -61t11 -63.5t2.5 -60v-10h-373zM423 352q0 20 -3 48.5t-15.5 54.5t-38 44.5t-69.5 18.5q-22 0 -46.5 -6t-45.5 -25.5t-34.5 -56t-14.5 -98.5z" />
    <glyph glyph-name="edieresis" unicode="&#xeb;" horiz-adv-x="576" 
d="M256 705q0 -26 -15.5 -40.5t-42.5 -14.5q-24 0 -39.5 14.5t-15.5 39.5q0 26 15.5 40t41.5 14q25 0 40.5 -14t15.5 -39zM446 705q0 -26 -15.5 -40.5t-42.5 -14.5q-24 0 -40 14.5t-16 39.5q0 26 16 40t42 14q25 0 40.5 -14t15.5 -39zM155 283q0 -40 7.5 -80t27.5 -72
t53.5 -52t86.5 -20q52 0 85.5 10.5t53.5 24.5q23 16 36 36q0 -27 -11 -52.5t-35 -45t-61.5 -31.5t-90.5 -12q-123 0 -189 75.5t-66 214.5q0 80 20.5 136.5t54.5 92.5t79 53t94 17q51 0 88 -13.5t62.5 -35.5t40.5 -51.5t23.5 -61t11 -63.5t2.5 -60v-10h-373zM423 352
q0 20 -3 48.5t-15.5 54.5t-38 44.5t-69.5 18.5q-22 0 -46.5 -6t-45.5 -25.5t-34.5 -56t-14.5 -98.5z" />
    <glyph glyph-name="igrave" unicode="&#xec;" horiz-adv-x="297" 
d="M233 -1q-7 0 -18 1q-10 0 -25.5 0.5t-37.5 0.5q-23 0 -38.5 -0.5t-25.5 -0.5q-11 -1 -19 -1l9 17q7 13 12 27t8 40t4 70t1 118v31q0 65 -1.5 105t-5 64t-8 37t-10.5 24l-9 17l139 25q-3 -19 -5 -55q-2 -31 -3 -83t-1 -133v-32q0 -69 1 -112t3.5 -70t7.5 -42.5t13 -30.5z
M209 624q-14 3 -32 10q-15 6 -35 17t-43 30q-25 20 -40.5 36.5t-23.5 28.5q-11 14 -15 26h106z" />
    <glyph glyph-name="iacute" unicode="&#xed;" horiz-adv-x="297" 
d="M166 772h106q-4 -12 -15 -26q-9 -12 -24.5 -28.5t-40.5 -36.5q-23 -19 -42.5 -30t-34.5 -17q-18 -7 -32 -10zM233 -1q-7 0 -18 1q-10 0 -25.5 0.5t-37.5 0.5q-23 0 -38.5 -0.5t-25.5 -0.5q-11 -1 -19 -1l9 17q7 13 12 27t8 40t4 70t1 118v31q0 65 -1.5 105t-5 64t-8 37
t-10.5 24l-9 17l139 25q-3 -19 -5 -55q-2 -31 -3 -83t-1 -133v-32q0 -69 1 -112t3.5 -70t7.5 -42.5t13 -30.5z" />
    <glyph glyph-name="icircumflex" unicode="&#xee;" horiz-adv-x="297" 
d="M318 623q-47 2 -93 22t-72 52q-35 -38 -79 -55t-86 -19l136 149h59zM233 -1q-7 0 -18 1q-10 0 -25.5 0.5t-37.5 0.5q-23 0 -38.5 -0.5t-25.5 -0.5q-11 -1 -19 -1l9 17q7 13 12 27t8 40t4 70t1 118v31q0 65 -1.5 105t-5 64t-8 37t-10.5 24l-9 17l139 25q-3 -19 -5 -55
q-2 -31 -3 -83t-1 -133v-32q0 -69 1 -112t3.5 -70t7.5 -42.5t13 -30.5z" />
    <glyph glyph-name="idieresis" unicode="&#xef;" horiz-adv-x="297" 
d="M108 705q0 -26 -15.5 -40.5t-42.5 -14.5q-24 0 -39.5 14.5t-15.5 39.5q0 26 15.5 40t41.5 14q25 0 40.5 -14t15.5 -39zM298 705q0 -26 -15.5 -40.5t-42.5 -14.5q-24 0 -40 14.5t-16 39.5q0 26 16 40t42 14q25 0 40.5 -14t15.5 -39zM233 -1q-7 0 -18 1q-10 0 -25.5 0.5
t-37.5 0.5q-23 0 -38.5 -0.5t-25.5 -0.5q-11 -1 -19 -1l9 17q7 13 12 27t8 40t4 70t1 118v31q0 65 -1.5 105t-5 64t-8 37t-10.5 24l-9 17l139 25q-3 -19 -5 -55q-2 -31 -3 -83t-1 -133v-32q0 -69 1 -112t3.5 -70t7.5 -42.5t13 -30.5z" />
    <glyph glyph-name="eth" unicode="&#xf0;" horiz-adv-x="616" 
d="M564 398q0 -95 -12.5 -162t-33 -112.5t-47 -72.5t-55.5 -41.5t-58 -18.5t-54 -4q-77 0 -126 26.5t-77 68t-38.5 90.5t-10.5 94q0 83 20 139t53 90t75.5 48.5t87.5 14.5q51 0 84 -14.5t52.5 -33t27.5 -35t9 -20.5q-3 73 -16 122t-35 80l-73 -47l-23 36l66 44
q-26 21 -60 28t-75 7q-38 0 -65 -5.5t-44 -11.5q-20 -8 -32 -17q7 27 28 48q18 18 54 33t99 15q42 0 85.5 -9.5t82.5 -40.5l75 48l23 -36l-67 -44q36 -43 58 -116.5t22 -190.5zM462 398q0 7 -0.5 15t-0.5 14q-1 7 -1 14q-12 16 -31 28q-17 11 -44 19.5t-66 8.5
q-48 0 -79.5 -17.5t-50 -48t-26 -71t-7.5 -86.5q0 -50 9 -91t27 -70.5t46.5 -45.5t67.5 -16q49 0 79.5 20.5t47.5 63.5t23 108t6 155z" />
    <glyph glyph-name="ntilde" unicode="&#xf1;" horiz-adv-x="637" 
d="M574 -1q-8 0 -19 1q-10 0 -26 0.5t-38 0.5q-23 0 -38 -0.5t-25 -0.5q-11 -1 -18 -1l9 17q6 11 10.5 21.5t8 35t5 70t1.5 127.5t-4 125.5t-18 66.5q-11 17 -32 31.5t-65 14.5q-42 0 -66 -10.5t-38 -22.5q-16 -15 -22 -33v-171q0 -82 1.5 -128t5 -70.5t8 -35t10.5 -21.5
l9 -17q-7 0 -18 1q-10 0 -25.5 0.5t-37.5 0.5q-23 0 -38.5 -0.5t-25.5 -0.5q-11 -1 -19 -1l9 17q6 11 10.5 21.5t8 35t5 70.5t1.5 128v31q0 65 -1.5 105t-5 64t-8 37t-10.5 24l-9 17l130 25l-4 -125q9 40 27 65.5t41 39.5t48.5 19t49.5 5q57 0 94.5 -19.5t57.5 -54.5
q8 -16 13.5 -33.5t8.5 -41.5t4 -56t1 -76v-26q0 -82 1.5 -128t5 -70.5t8 -35t10.5 -21.5zM409 707q15 0 28 7t22.5 15t15 15.5t6.5 9.5q0 -54 -23.5 -83t-62.5 -29q-15 0 -28 3t-23 7l-59 21q-13 5 -20.5 6.5t-20.5 1.5q-15 0 -28 -7t-22.5 -15.5t-15 -16t-6.5 -9.5
q0 56 24 84.5t62 28.5q15 0 28 -3t23 -7l59 -21q13 -4 20.5 -6t20.5 -2z" />
    <glyph glyph-name="ograve" unicode="&#xf2;" horiz-adv-x="626" 
d="M574 289q0 -27 -4 -59.5t-15 -66t-30.5 -65.5t-49 -56.5t-71 -39.5t-97.5 -15q-64 0 -112 22t-79.5 60.5t-47.5 91t-16 114.5q0 27 4 59.5t15 66.5t30.5 65.5t49 56.5t71 40t97.5 15q64 0 112 -22t79.5 -60.5t47.5 -91.5t16 -115zM468 283q0 51 -8 93.5t-26.5 73
t-48.5 47.5t-73 17q-81 0 -117.5 -59.5t-36.5 -173.5q0 -51 8 -93.5t26.5 -72.5t48 -47t73.5 -17q81 0 117.5 59.5t36.5 172.5zM363 624q-14 3 -32 10q-15 6 -35 17t-43 30q-25 20 -40.5 36.5t-23.5 28.5q-11 14 -15 26h106z" />
    <glyph glyph-name="oacute" unicode="&#xf3;" horiz-adv-x="626" 
d="M342 772h106q-4 -12 -15 -26q-9 -12 -24.5 -28.5t-40.5 -36.5q-23 -19 -42.5 -30t-34.5 -17q-18 -7 -32 -10zM574 289q0 -27 -4 -59.5t-15 -66t-30.5 -65.5t-49 -56.5t-71 -39.5t-97.5 -15q-64 0 -112 22t-79.5 60.5t-47.5 91t-16 114.5q0 27 4 59.5t15 66.5t30.5 65.5
t49 56.5t71 40t97.5 15q64 0 112 -22t79.5 -60.5t47.5 -91.5t16 -115zM468 283q0 51 -8 93.5t-26.5 73t-48.5 47.5t-73 17q-81 0 -117.5 -59.5t-36.5 -173.5q0 -51 8 -93.5t26.5 -72.5t48 -47t73.5 -17q81 0 117.5 59.5t36.5 172.5z" />
    <glyph glyph-name="ocircumflex" unicode="&#xf4;" horiz-adv-x="626" 
d="M477 623q-47 2 -93 22t-72 52q-35 -38 -79 -55t-86 -19l136 149h59zM574 289q0 -27 -4 -59.5t-15 -66t-30.5 -65.5t-49 -56.5t-71 -39.5t-97.5 -15q-64 0 -112 22t-79.5 60.5t-47.5 91t-16 114.5q0 27 4 59.5t15 66.5t30.5 65.5t49 56.5t71 40t97.5 15q64 0 112 -22
t79.5 -60.5t47.5 -91.5t16 -115zM468 283q0 51 -8 93.5t-26.5 73t-48.5 47.5t-73 17q-81 0 -117.5 -59.5t-36.5 -173.5q0 -51 8 -93.5t26.5 -72.5t48 -47t73.5 -17q81 0 117.5 59.5t36.5 172.5z" />
    <glyph glyph-name="otilde" unicode="&#xf5;" horiz-adv-x="626" 
d="M574 289q0 -27 -4 -59.5t-15 -66t-30.5 -65.5t-49 -56.5t-71 -39.5t-97.5 -15q-64 0 -112 22t-79.5 60.5t-47.5 91t-16 114.5q0 27 4 59.5t15 66.5t30.5 65.5t49 56.5t71 40t97.5 15q64 0 112 -22t79.5 -60.5t47.5 -91.5t16 -115zM468 283q0 51 -8 93.5t-26.5 73
t-48.5 47.5t-73 17q-81 0 -117.5 -59.5t-36.5 -173.5q0 -51 8 -93.5t26.5 -72.5t48 -47t73.5 -17q81 0 117.5 59.5t36.5 172.5zM386 707q15 0 28 7t22.5 15t15 15.5t6.5 9.5q0 -54 -23.5 -83t-62.5 -29q-15 0 -28 3t-23 7l-59 21q-13 5 -20.5 6.5t-20.5 1.5q-15 0 -28 -7
t-22.5 -15.5t-15 -16t-6.5 -9.5q0 56 24 84.5t62 28.5q15 0 28 -3t23 -7l59 -21q13 -4 20.5 -6t20.5 -2z" />
    <glyph glyph-name="odieresis" unicode="&#xf6;" horiz-adv-x="626" 
d="M274 705q0 -26 -15.5 -40.5t-42.5 -14.5q-24 0 -39.5 14.5t-15.5 39.5q0 26 15.5 40t41.5 14q25 0 40.5 -14t15.5 -39zM464 705q0 -26 -15.5 -40.5t-42.5 -14.5q-24 0 -40 14.5t-16 39.5q0 26 16 40t42 14q25 0 40.5 -14t15.5 -39zM574 289q0 -27 -4 -59.5t-15 -66
t-30.5 -65.5t-49 -56.5t-71 -39.5t-97.5 -15q-64 0 -112 22t-79.5 60.5t-47.5 91t-16 114.5q0 27 4 59.5t15 66.5t30.5 65.5t49 56.5t71 40t97.5 15q64 0 112 -22t79.5 -60.5t47.5 -91.5t16 -115zM468 283q0 51 -8 93.5t-26.5 73t-48.5 47.5t-73 17q-81 0 -117.5 -59.5
t-36.5 -173.5q0 -51 8 -93.5t26.5 -72.5t48 -47t73.5 -17q81 0 117.5 59.5t36.5 172.5z" />
    <glyph glyph-name="divide" unicode="&#xf7;" 
d="M391 568q0 -32 -19 -50t-48 -18q-28 0 -48 18t-20 50t19.5 50t48.5 18q28 0 47.5 -18t19.5 -50zM45 321v69h559v-69h-559zM391 143q0 -32 -19 -50.5t-48 -18.5q-28 0 -48 18.5t-20 50.5q0 31 19.5 49.5t48.5 18.5q28 0 47.5 -18t19.5 -50z" />
    <glyph glyph-name="oslash" unicode="&#xf8;" horiz-adv-x="626" 
d="M574 289q0 -27 -4 -59.5t-15 -66t-30.5 -65.5t-49 -56.5t-71 -39.5t-97.5 -15q-53 0 -95 15l-33 -71l-48 22l34 72q-57 37 -85 102t-28 148q0 27 4 59.5t15 66.5t30.5 65.5t49 56.5t71 40t97.5 15q53 0 95 -15l33 71l48 -22l-34 -72q57 -37 85 -102t28 -149zM468 283
q0 55 -10 101t-33 76l-183 -393q29 -16 72 -16q81 0 117.5 59.5t36.5 172.5zM158 281q0 -55 10 -100.5t33 -76.5l183 394q-29 16 -72 16q-81 0 -117.5 -59.5t-36.5 -173.5z" />
    <glyph glyph-name="ugrave" unicode="&#xf9;" horiz-adv-x="631" 
d="M437 -8l4 125q-9 -41 -27 -66t-41 -39t-48.5 -19t-49.5 -5q-57 0 -95 19.5t-57 54.5q-8 16 -13.5 33.5t-8.5 41.5t-4 55.5t-1 75.5v34q0 65 -1.5 105t-4 64t-7 37t-10.5 24l-9 17l132 25q-1 -31 -2 -66q-1 -30 -1.5 -68t-0.5 -78v-66q0 -82 4 -126t18 -67
q11 -17 32 -31.5t65 -14.5q41 0 65.5 10t38.5 23q16 15 22 34v178q0 65 -1.5 105t-4 64t-7 37t-10.5 24l-9 17l133 25q-2 -33 -3 -68q-1 -30 -1.5 -68t-0.5 -76v-98q0 -65 1.5 -105t5 -64t8 -37t10.5 -24l9 -17zM366 624q-14 3 -32 10q-15 6 -35 17t-43 30
q-25 20 -40.5 36.5t-23.5 28.5q-11 14 -15 26h106z" />
    <glyph glyph-name="uacute" unicode="&#xfa;" horiz-adv-x="631" 
d="M346 772h106q-4 -12 -15 -26q-9 -12 -24.5 -28.5t-40.5 -36.5q-23 -19 -42.5 -30t-34.5 -17q-18 -7 -32 -10zM437 -8l4 125q-9 -41 -27 -66t-41 -39t-48.5 -19t-49.5 -5q-57 0 -95 19.5t-57 54.5q-8 16 -13.5 33.5t-8.5 41.5t-4 55.5t-1 75.5v34q0 65 -1.5 105t-4 64
t-7 37t-10.5 24l-9 17l132 25q-1 -31 -2 -66q-1 -30 -1.5 -68t-0.5 -78v-66q0 -82 4 -126t18 -67q11 -17 32 -31.5t65 -14.5q41 0 65.5 10t38.5 23q16 15 22 34v178q0 65 -1.5 105t-4 64t-7 37t-10.5 24l-9 17l133 25q-2 -33 -3 -68q-1 -30 -1.5 -68t-0.5 -76v-98
q0 -65 1.5 -105t5 -64t8 -37t10.5 -24l9 -17z" />
    <glyph glyph-name="ucircumflex" unicode="&#xfb;" horiz-adv-x="631" 
d="M480 623q-47 2 -93 22t-72 52q-35 -38 -79 -55t-86 -19l136 149h59zM437 -8l4 125q-9 -41 -27 -66t-41 -39t-48.5 -19t-49.5 -5q-57 0 -95 19.5t-57 54.5q-8 16 -13.5 33.5t-8.5 41.5t-4 55.5t-1 75.5v34q0 65 -1.5 105t-4 64t-7 37t-10.5 24l-9 17l132 25q-1 -31 -2 -66
q-1 -30 -1.5 -68t-0.5 -78v-66q0 -82 4 -126t18 -67q11 -17 32 -31.5t65 -14.5q41 0 65.5 10t38.5 23q16 15 22 34v178q0 65 -1.5 105t-4 64t-7 37t-10.5 24l-9 17l133 25q-2 -33 -3 -68q-1 -30 -1.5 -68t-0.5 -76v-98q0 -65 1.5 -105t5 -64t8 -37t10.5 -24l9 -17z" />
    <glyph glyph-name="udieresis" unicode="&#xfc;" horiz-adv-x="631" 
d="M283 705q0 -26 -15.5 -40.5t-42.5 -14.5q-24 0 -39.5 14.5t-15.5 39.5q0 26 15.5 40t41.5 14q25 0 40.5 -14t15.5 -39zM473 705q0 -26 -15.5 -40.5t-42.5 -14.5q-24 0 -40 14.5t-16 39.5q0 26 16 40t42 14q25 0 40.5 -14t15.5 -39zM437 -8l4 125q-9 -41 -27 -66t-41 -39
t-48.5 -19t-49.5 -5q-57 0 -95 19.5t-57 54.5q-8 16 -13.5 33.5t-8.5 41.5t-4 55.5t-1 75.5v34q0 65 -1.5 105t-4 64t-7 37t-10.5 24l-9 17l132 25q-1 -31 -2 -66q-1 -30 -1.5 -68t-0.5 -78v-66q0 -82 4 -126t18 -67q11 -17 32 -31.5t65 -14.5q41 0 65.5 10t38.5 23
q16 15 22 34v178q0 65 -1.5 105t-4 64t-7 37t-10.5 24l-9 17l133 25q-2 -33 -3 -68q-1 -30 -1.5 -68t-0.5 -76v-98q0 -65 1.5 -105t5 -64t8 -37t10.5 -24l9 -17z" />
    <glyph glyph-name="yacute" unicode="&#xfd;" horiz-adv-x="535" 
d="M545 567q-29 -26 -51 -84.5t-51 -141.5l-149 -427q-13 -37 -30 -61.5t-38 -39t-46 -20.5t-55 -6q-25 0 -41.5 1t-26.5 3q-12 2 -19 5q0 7 1 17q0 8 0.5 18.5t0.5 22.5q0 13 -0.5 25t-0.5 21q-1 11 -1 19q13 -20 23 -34t19.5 -22.5t20 -12t24.5 -3.5q38 0 59.5 22.5
t38.5 70.5l11 31l-136 368q-20 55 -34.5 94t-25.5 65t-21 42.5t-21 26.5q10 -1 23 -1q11 -1 27.5 -1h38.5h43.5t29.5 1q13 0 22 1q-10 -7 -19 -19.5t-9 -38.5q0 -11 2 -23.5t6.5 -30t12.5 -42t20 -60.5l73 -215q7 -20 11 -37.5t5 -21.5q0 2 3.5 16.5t10.5 36.5l66 210
q12 38 20 65t13 46.5t7.5 32.5t2.5 23q0 26 -9 38.5t-19 19.5q9 -1 21 -1q11 -1 26 -1h37h38t26 1q11 0 20 1zM308 772h106q-4 -12 -15 -26q-9 -12 -24.5 -28.5t-40.5 -36.5q-23 -19 -42.5 -30t-34.5 -17q-18 -7 -32 -10z" />
    <glyph glyph-name="thorn" unicode="&#xfe;" horiz-adv-x="632" 
d="M580 296q0 -90 -22 -149t-58 -94t-81.5 -49t-91.5 -14q-35 0 -60 6.5t-42 14.5q-19 10 -32 22q0 -69 1.5 -108.5t4.5 -62t7.5 -34t11.5 -24.5l9 -17q-7 0 -18 1q-10 0 -25.5 0.5t-37.5 0.5q-23 0 -38 -0.5t-25 -0.5q-11 -1 -19 -1l9 17q5 9 8.5 17.5t6.5 21.5t5 33.5
t3 54.5t1.5 84.5t0.5 122.5v377q0 65 -1.5 105t-5 64t-8 37t-10.5 24l-9 17l132 25q-1 -32 -2 -67q-1 -30 -1 -67.5v-75.5v-24q0 -26 -2.5 -52t-5.5 -39q20 57 61.5 86.5t110.5 29.5q12 0 33 -2.5t46 -11.5t50.5 -27t46.5 -49.5t34 -78t13 -113.5zM476 288q0 42 -8 81
t-26 69.5t-48 49t-73 18.5q-47 0 -75 -13t-53 -42v-367q11 -9 27 -16q14 -6 34 -10.5t49 -4.5q93 0 133 61.5t40 173.5z" />
    <glyph glyph-name="ydieresis" unicode="&#xff;" horiz-adv-x="535" 
d="M545 567q-29 -26 -51 -84.5t-51 -141.5l-149 -427q-13 -37 -30 -61.5t-38 -39t-46 -20.5t-55 -6q-25 0 -41.5 1t-26.5 3q-12 2 -19 5q0 7 1 17q0 8 0.5 18.5t0.5 22.5q0 13 -0.5 25t-0.5 21q-1 11 -1 19q13 -20 23 -34t19.5 -22.5t20 -12t24.5 -3.5q38 0 59.5 22.5
t38.5 70.5l11 31l-136 368q-20 55 -34.5 94t-25.5 65t-21 42.5t-21 26.5q10 -1 23 -1q11 -1 27.5 -1h38.5h43.5t29.5 1q13 0 22 1q-10 -7 -19 -19.5t-9 -38.5q0 -11 2 -23.5t6.5 -30t12.5 -42t20 -60.5l73 -215q7 -20 11 -37.5t5 -21.5q0 2 3.5 16.5t10.5 36.5l66 210
q12 38 20 65t13 46.5t7.5 32.5t2.5 23q0 26 -9 38.5t-19 19.5q9 -1 21 -1q11 -1 26 -1h37h38t26 1q11 0 20 1zM239 705q0 -26 -15.5 -40.5t-42.5 -14.5q-24 0 -39.5 14.5t-15.5 39.5q0 26 15.5 40t41.5 14q25 0 40.5 -14t15.5 -39zM429 705q0 -26 -15.5 -40.5t-42.5 -14.5
q-24 0 -40 14.5t-16 39.5q0 26 16 40t42 14q25 0 40.5 -14t15.5 -39z" />
    <glyph glyph-name="Amacron" unicode="&#x100;" horiz-adv-x="629" 
d="M629 -1q-11 0 -26 1q-13 0 -30.5 0.5t-40.5 0.5q-21 0 -38 -0.5t-30 -0.5q-15 -1 -27 -1q10 7 21 21t11 42q0 26 -12 69.5t-27 97.5l-18 63h-223l-18 -63q-16 -54 -27.5 -97.5t-11.5 -69.5q0 -28 11.5 -42t21.5 -21q-11 0 -24 1q-12 0 -28.5 0.5t-36.5 0.5
q-22 0 -37.5 -0.5t-26.5 -0.5q-12 -1 -21 -1q14 13 25 32.5t22 47.5t23 66.5t29 90.5l130 417q3 9 5.5 18t2.5 19t-2.5 14.5t-4.5 6.5h189q0 -1 -3 -5.5t-3 -15.5q0 -10 2 -19t5 -18l122 -417q15 -52 27 -90.5t22.5 -66.5t21.5 -47.5t25 -32.5zM323 602q-8 30 -13.5 49
t-7.5 26q-2 -5 -7 -24t-15 -51l-72 -244h186zM176 787v69h283v-69h-283z" />
    <glyph glyph-name="amacron" unicode="&#x101;" horiz-adv-x="574" 
d="M387 -8l4 118q-9 -41 -28 -65t-42 -36.5t-48 -16.5t-46 -4q-53 0 -87 16t-53.5 40t-27 53t-7.5 55q0 63 24 99t59 53.5t76 21.5t75 4q21 0 39 -1t32 -2q16 -1 28 -2v47q0 30 -2.5 57t-16.5 47q-12 17 -36.5 27.5t-66.5 10.5q-11 0 -29.5 -1.5t-40.5 -8.5t-44 -22t-39 -42
q0 7 1 16q0 8 0.5 17.5t0.5 22.5t-0.5 23t-0.5 17q-1 8 -1 14q15 8 40 14q20 5 52.5 9.5t77.5 4.5q39 0 67.5 -5t48.5 -13t33 -18.5t21 -21.5q23 -29 27 -67t4 -86q0 -16 -1 -64t-1 -127q0 -55 5 -86t19 -56l9 -17zM385 265q-8 1 -19 2q-10 1 -25.5 2t-38.5 1
q-21 0 -47 -2.5t-48.5 -13t-38 -32t-15.5 -60.5q0 -56 31 -81t77 -25q38 0 62 9.5t38 21.5q16 13 24 31v147zM147 657v69h283v-69h-283z" />
    <glyph glyph-name="Abreve" unicode="&#x102;" horiz-adv-x="629" 
d="M629 -1q-11 0 -26 1q-13 0 -30.5 0.5t-40.5 0.5q-21 0 -38 -0.5t-30 -0.5q-15 -1 -27 -1q10 7 21 21t11 42q0 26 -12 69.5t-27 97.5l-18 63h-223l-18 -63q-16 -54 -27.5 -97.5t-11.5 -69.5q0 -28 11.5 -42t21.5 -21q-11 0 -24 1q-12 0 -28.5 0.5t-36.5 0.5
q-22 0 -37.5 -0.5t-26.5 -0.5q-12 -1 -21 -1q14 13 25 32.5t22 47.5t23 66.5t29 90.5l130 417q3 9 5.5 18t2.5 19t-2.5 14.5t-4.5 6.5h189q0 -1 -3 -5.5t-3 -15.5q0 -10 2 -19t5 -18l122 -417q15 -52 27 -90.5t22.5 -66.5t21.5 -47.5t25 -32.5zM323 602q-8 30 -13.5 49
t-7.5 26q-2 -5 -7 -24t-15 -51l-72 -244h186zM171 919q26 -37 61.5 -63t83.5 -26q49 0 84 26t61 63q0 -35 -9.5 -64.5t-27.5 -51t-45 -34t-63 -12.5t-63 12.5t-45 34t-27.5 51t-9.5 64.5z" />
    <glyph glyph-name="abreve" unicode="&#x103;" horiz-adv-x="574" 
d="M387 -8l4 118q-9 -41 -28 -65t-42 -36.5t-48 -16.5t-46 -4q-53 0 -87 16t-53.5 40t-27 53t-7.5 55q0 63 24 99t59 53.5t76 21.5t75 4q21 0 39 -1t32 -2q16 -1 28 -2v47q0 30 -2.5 57t-16.5 47q-12 17 -36.5 27.5t-66.5 10.5q-11 0 -29.5 -1.5t-40.5 -8.5t-44 -22t-39 -42
q0 7 1 16q0 8 0.5 17.5t0.5 22.5t-0.5 23t-0.5 17q-1 8 -1 14q15 8 40 14q20 5 52.5 9.5t77.5 4.5q39 0 67.5 -5t48.5 -13t33 -18.5t21 -21.5q23 -29 27 -67t4 -86q0 -16 -1 -64t-1 -127q0 -55 5 -86t19 -56l9 -17zM385 265q-8 1 -19 2q-10 1 -25.5 2t-38.5 1
q-21 0 -47 -2.5t-48.5 -13t-38 -32t-15.5 -60.5q0 -56 31 -81t77 -25q38 0 62 9.5t38 21.5q16 13 24 31v147zM143 789q26 -37 61.5 -62.5t83.5 -25.5q49 0 84 25.5t61 62.5q0 -35 -9.5 -64t-27.5 -51t-45 -34t-63 -12t-63 12t-45 34t-27.5 51t-9.5 64z" />
    <glyph glyph-name="Aogonek" unicode="&#x104;" horiz-adv-x="629" 
d="M333 -131q0 27 11 48.5t27 37.5t35 27.5t34 18.5q10 8 19.5 21.5t9.5 39.5t-12 69.5t-27 97.5l-18 63h-223l-18 -63q-16 -54 -27.5 -97.5t-11.5 -69.5q0 -28 11.5 -42t21.5 -21q-11 0 -24 1q-12 0 -28.5 0.5t-36.5 0.5q-22 0 -37.5 -0.5t-26.5 -0.5q-12 -1 -21 -1
q14 13 25 32.5t22 47.5t23 66.5t29 90.5l130 417q3 9 5.5 18t2.5 19t-2.5 14.5t-4.5 6.5h189q0 -1 -3 -5.5t-3 -15.5q0 -10 2 -19t5 -18l122 -417q15 -52 27 -90.5t22.5 -66.5t21.5 -47.5t25 -32.5q-11 0 -25 1q-12 0 -28 0.5t-35 0.5q-52 0 -87.5 -28t-35.5 -80
q0 -72 87 -84q-17 -10 -38 -15.5t-41 -5.5q-37 0 -65 19t-28 62zM323 602q-8 30 -13.5 49t-7.5 26l-22 -75l-72 -244h186z" />
    <glyph glyph-name="aogonek" unicode="&#x105;" horiz-adv-x="574" 
d="M298 -131q0 23 8.5 42t21 34.5t28.5 27t31 19.5l4 118q-9 -41 -28 -65t-42 -36.5t-48 -16.5t-46 -4q-53 0 -87 16t-53.5 40t-27 53t-7.5 55q0 63 24 99t59 53.5t76 21.5t75 4q21 0 39 -1t32 -2q16 -1 28 -2v47q0 30 -2.5 57t-16.5 47q-12 17 -36.5 27.5t-66.5 10.5
q-11 0 -29.5 -1.5t-40.5 -8.5t-44 -22t-39 -42q0 7 1 16q0 8 0.5 17.5t0.5 22.5t-0.5 23t-0.5 17q-1 8 -1 14q15 8 40 14q20 5 52.5 9.5t77.5 4.5q39 0 67.5 -5t48.5 -13t33 -18.5t21 -21.5q23 -29 27 -67t4 -86q0 -16 -1 -64t-1 -127q0 -55 5 -86t19 -56l9 -17
q-65 -19 -97 -53.5t-32 -76.5q0 -32 21 -52t66 -26q-17 -10 -38 -15.5t-41 -5.5q-37 0 -65 19t-28 62zM385 265q-8 1 -19 2q-10 1 -25.5 2t-38.5 1q-21 0 -47 -2.5t-48.5 -13t-38 -32t-15.5 -60.5q0 -56 31 -81t77 -25q38 0 62 9.5t38 21.5q16 13 24 31v147z" />
    <glyph glyph-name="Cacute" unicode="&#x106;" horiz-adv-x="632" 
d="M593 22q-21 -9 -48 -15q-23 -5 -57.5 -9.5t-77.5 -4.5q-81 0 -138.5 18t-96.5 47.5t-62.5 67t-36 77t-16 77.5t-3.5 67q0 180 94 276t266 96q48 0 81 -5t54 -10q25 -6 41 -14q-1 -7 -1 -17q-1 -8 -1 -20v-28v-28.5t1 -21.5q0 -11 1 -20q-16 23 -32 41.5t-35.5 31
t-45.5 19t-62 6.5q-38 0 -82.5 -11t-82.5 -43t-63 -91t-25 -156q0 -60 11 -113.5t39 -93t76.5 -63t122.5 -23.5q37 0 64 7t47 20t36 31.5t32 41.5q-1 -10 -1 -22q-1 -11 -1 -24.5v-29.5v-25.5t1 -19.5q0 -10 1 -16zM423 902h106q-4 -12 -15 -26q-9 -12 -24.5 -28.5
t-40.5 -36.5q-23 -19 -42.5 -30t-34.5 -17q-18 -7 -32 -11z" />
    <glyph glyph-name="cacute" unicode="&#x107;" horiz-adv-x="511" 
d="M322 772h106q-4 -12 -15 -26q-9 -12 -24.5 -28.5t-40.5 -36.5q-23 -19 -42.5 -30t-34.5 -17q-18 -7 -32 -10zM479 129q0 -25 -10.5 -50t-32.5 -45t-57 -32.5t-84 -12.5q-55 0 -100 18.5t-76.5 54.5t-49 88.5t-17.5 120.5q0 22 3 53.5t12 65.5t26.5 67.5t47 60t72 43
t102.5 16.5q42 0 71 -6t48 -14q22 -9 36 -19q-1 -6 -1 -14q-1 -7 -1 -17.5v-24.5v-27t1 -24q0 -12 1 -24q-20 32 -37 53t-35 33.5t-37.5 17.5t-44.5 5q-31 0 -60 -10.5t-51 -37t-35.5 -72.5t-13.5 -116q0 -45 9 -85t28.5 -70t51.5 -47.5t77 -17.5q43 0 73 10.5t49 23.5
q22 15 35 35z" />
    <glyph glyph-name="Ccircumflex" unicode="&#x108;" horiz-adv-x="632" 
d="M593 22q-21 -9 -48 -15q-23 -5 -57.5 -9.5t-77.5 -4.5q-81 0 -138.5 18t-96.5 47.5t-62.5 67t-36 77t-16 77.5t-3.5 67q0 180 94 276t266 96q48 0 81 -5t54 -10q25 -6 41 -14q-1 -7 -1 -17q-1 -8 -1 -20v-28v-28.5t1 -21.5q0 -11 1 -20q-16 23 -32 41.5t-35.5 31
t-45.5 19t-62 6.5q-38 0 -82.5 -11t-82.5 -43t-63 -91t-25 -156q0 -60 11 -113.5t39 -93t76.5 -63t122.5 -23.5q37 0 64 7t47 20t36 31.5t32 41.5q-1 -10 -1 -22q-1 -11 -1 -24.5v-29.5v-25.5t1 -19.5q0 -10 1 -16zM560 752q-47 3 -93 23t-72 52q-35 -38 -79 -55.5
t-86 -19.5l136 150h59z" />
    <glyph glyph-name="ccircumflex" unicode="&#x109;" horiz-adv-x="511" 
d="M466 623q-47 2 -93 22t-72 52q-35 -38 -79 -55t-86 -19l136 149h59zM479 129q0 -25 -10.5 -50t-32.5 -45t-57 -32.5t-84 -12.5q-55 0 -100 18.5t-76.5 54.5t-49 88.5t-17.5 120.5q0 22 3 53.5t12 65.5t26.5 67.5t47 60t72 43t102.5 16.5q42 0 71 -6t48 -14q22 -9 36 -19
q-1 -6 -1 -14q-1 -7 -1 -17.5v-24.5v-27t1 -24q0 -12 1 -24q-20 32 -37 53t-35 33.5t-37.5 17.5t-44.5 5q-31 0 -60 -10.5t-51 -37t-35.5 -72.5t-13.5 -116q0 -45 9 -85t28.5 -70t51.5 -47.5t77 -17.5q43 0 73 10.5t49 23.5q22 15 35 35z" />
    <glyph glyph-name="Cdotaccent" unicode="&#x10a;" horiz-adv-x="632" 
d="M459 831q0 -32 -18.5 -47.5t-48.5 -15.5q-29 0 -47.5 15t-18.5 45q0 32 18 47t49 15q29 0 47.5 -15t18.5 -44zM593 22q-21 -9 -48 -15q-23 -5 -57.5 -9.5t-77.5 -4.5q-81 0 -138.5 18t-96.5 47.5t-62.5 67t-36 77t-16 77.5t-3.5 67q0 180 94 276t266 96q48 0 81 -5
t54 -10q25 -6 41 -14q-1 -7 -1 -17q-1 -8 -1 -20v-28v-28.5t1 -21.5q0 -11 1 -20q-16 23 -32 41.5t-35.5 31t-45.5 19t-62 6.5q-38 0 -82.5 -11t-82.5 -43t-63 -91t-25 -156q0 -60 11 -113.5t39 -93t76.5 -63t122.5 -23.5q37 0 64 7t47 20t36 31.5t32 41.5q-1 -10 -1 -22
q-1 -11 -1 -24.5v-29.5v-25.5t1 -19.5q0 -10 1 -16z" />
    <glyph glyph-name="cdotaccent" unicode="&#x10b;" horiz-adv-x="511" 
d="M479 129q0 -25 -10.5 -50t-32.5 -45t-57 -32.5t-84 -12.5q-55 0 -100 18.5t-76.5 54.5t-49 88.5t-17.5 120.5q0 22 3 53.5t12 65.5t26.5 67.5t47 60t72 43t102.5 16.5q42 0 71 -6t48 -14q22 -9 36 -19q-1 -6 -1 -14q-1 -7 -1 -17.5v-24.5v-27t1 -24q0 -12 1 -24
q-20 32 -37 53t-35 33.5t-37.5 17.5t-44.5 5q-31 0 -60 -10.5t-51 -37t-35.5 -72.5t-13.5 -116q0 -45 9 -85t28.5 -70t51.5 -47.5t77 -17.5q43 0 73 10.5t49 23.5q22 15 35 35zM369 715q0 -32 -18 -47t-48 -15q-29 0 -47.5 15t-18.5 44q0 32 18 47.5t49 15.5q29 0 47 -15
t18 -45z" />
    <glyph glyph-name="Ccaron" unicode="&#x10c;" horiz-adv-x="632" 
d="M593 22q-21 -9 -48 -15q-23 -5 -57.5 -9.5t-77.5 -4.5q-81 0 -138.5 18t-96.5 47.5t-62.5 67t-36 77t-16 77.5t-3.5 67q0 180 94 276t266 96q48 0 81 -5t54 -10q25 -6 41 -14q-1 -7 -1 -17q-1 -8 -1 -20v-28v-28.5t1 -21.5q0 -11 1 -20q-16 23 -32 41.5t-35.5 31
t-45.5 19t-62 6.5q-38 0 -82.5 -11t-82.5 -43t-63 -91t-25 -156q0 -60 11 -113.5t39 -93t76.5 -63t122.5 -23.5q37 0 64 7t47 20t36 31.5t32 41.5q-1 -10 -1 -22q-1 -11 -1 -24.5v-29.5v-25.5t1 -19.5q0 -10 1 -16zM537 915q-41 -38 -74.5 -77.5t-65.5 -85.5h-14l-79 77
q-8 8 -24.5 23t-27.5 23l65 50q7 -11 16 -23.5t17 -23.5l29 -39q12 15 29 29.5t37 25t43 16.5t49 5z" />
    <glyph glyph-name="ccaron" unicode="&#x10d;" horiz-adv-x="511" 
d="M438 772q-20 -20 -36.5 -37t-31.5 -34.5t-29.5 -36.5t-29.5 -41h-16l-67 63q-9 8 -25 23t-27 23l62 50q15 -26 34 -47l25 -29q24 30 56.5 50.5t84.5 15.5zM479 129q0 -25 -10.5 -50t-32.5 -45t-57 -32.5t-84 -12.5q-55 0 -100 18.5t-76.5 54.5t-49 88.5t-17.5 120.5
q0 22 3 53.5t12 65.5t26.5 67.5t47 60t72 43t102.5 16.5q42 0 71 -6t48 -14q22 -9 36 -19q-1 -6 -1 -14q-1 -7 -1 -17.5v-24.5v-27t1 -24q0 -12 1 -24q-20 32 -37 53t-35 33.5t-37.5 17.5t-44.5 5q-31 0 -60 -10.5t-51 -37t-35.5 -72.5t-13.5 -116q0 -45 9 -85t28.5 -70
t51.5 -47.5t77 -17.5q43 0 73 10.5t49 23.5q22 15 35 35z" />
    <glyph glyph-name="Dcaron" unicode="&#x10e;" horiz-adv-x="727" 
d="M478 915q-41 -38 -74.5 -77.5t-65.5 -85.5h-14l-79 77q-8 8 -24.5 23t-27.5 23l65 50q7 -11 16 -23.5t17 -23.5l29 -39q12 15 29 29.5t37 25t43 16.5t49 5zM671 372q0 -92 -20.5 -155.5t-53.5 -105t-75 -64.5t-85.5 -34t-85 -13t-72.5 -2q-32 0 -62 1.5t-59 1.5
q-21 0 -36 -0.5t-26 -0.5q-12 -1 -20 -1l9 17q5 9 9 17.5t6.5 22t4.5 34.5t3 56.5t1.5 87.5t0.5 127q0 109 -1 169.5t-3.5 92t-7.5 45t-13 28.5l-9 17q8 -1 20 -1q11 -1 26 -1h36q30 0 67 1.5t69 1.5q25 0 63 -2t80 -12.5t84 -31.5t75 -59t54 -96t21 -141zM562 360
q0 96 -24.5 153.5t-64 88t-90.5 40t-103 9.5q-15 0 -27.5 -0.5t-21.5 -1.5q-11 -1 -20 -1v-584q10 -1 21 -2q9 -1 21 -1h24q49 0 100 8.5t92 39t67 90t26 161.5z" />
    <glyph glyph-name="dcaron" unicode="&#x10f;" horiz-adv-x="632" 
d="M582 598q7 27 10 55.5t3 55t-2 49.5t-5 40l92 11q6 -63 -16 -118.5t-82 -92.5zM443 -8l4 113q-20 -57 -61.5 -86t-109.5 -29q-12 0 -33.5 2.5t-46 11.5t-50.5 27t-46.5 49.5t-34 78t-13.5 113.5q0 89 22 148t58 94t81.5 49.5t92.5 14.5q35 0 59.5 -7t41.5 -15
q19 -10 32 -21q0 55 -2 90.5t-5 59t-7.5 37t-10.5 23.5l-9 17l133 25q-1 -33 -2 -68q-1 -30 -1 -68v-76v-311q0 -65 1.5 -105t5 -64t8 -37t10.5 -24l9 -17zM439 484q-10 8 -26 15q-14 5 -34.5 10t-48.5 5q-93 0 -133.5 -61.5t-40.5 -172.5q0 -42 8 -81.5t26 -69.5
t47.5 -48.5t73.5 -18.5q47 0 75 12.5t53 42.5v367z" />
    <glyph glyph-name="Dcroat" unicode="&#x110;" horiz-adv-x="748" 
d="M691 372q0 -92 -20.5 -155.5t-53.5 -105t-75 -64.5t-85.5 -34t-85 -13t-72.5 -2q-32 0 -61.5 1.5t-58.5 1.5q-21 0 -36.5 -0.5t-26.5 -0.5q-12 -1 -20 -1l9 17q7 13 11.5 26t7.5 42t4.5 83t1.5 149h-13q-29 0 -48 -2t-30 -4q-13 -3 -20 -6v10q0 5 0.5 12.5t0.5 18.5
q0 10 -0.5 17.5t-0.5 12.5v11q7 -3 20 -6q11 -2 30 -4t48 -2h13q0 103 -1 161t-4 88.5t-8 44t-12 28.5l-9 17q8 -1 20 -1q11 -1 26 -1h36q30 0 67 1.5t69 1.5q25 0 63 -2t80 -12.5t84 -31.5t75 -59t54 -96t21 -141zM582 360q0 96 -24 153.5t-64 88t-90.5 40t-102.5 9.5
q-15 0 -28 -0.5t-22 -1.5q-11 -1 -20 -1v-274h73q29 0 47.5 2t29.5 4q13 3 21 6q-1 -5 -1 -11v-30v-31q0 -6 1 -10q-8 3 -21 6q-11 2 -29.5 4t-47.5 2h-73v-252q10 -1 21 -2q10 -1 21.5 -1h24.5q49 0 99.5 8.5t91.5 39t67 90t26 161.5z" />
    <glyph glyph-name="dcroat" unicode="&#x111;" horiz-adv-x="634" 
d="M443 -8l4 113q-20 -57 -61.5 -86t-109.5 -29q-12 0 -33.5 2.5t-46 11.5t-50.5 27t-46.5 49.5t-34 78t-13.5 113.5q0 89 22 148t58 94t81.5 49.5t92.5 14.5q35 0 59.5 -7t41.5 -15q19 -10 32 -21q0 35 -0.5 61t-2.5 47h-89q-27 0 -45 -1.5t-29 -3.5q-13 -2 -20 -4q0 4 1 9
q0 5 0.5 11.5t0.5 15.5q0 8 -0.5 14.5t-0.5 11.5q-1 5 -1 10q7 -3 20 -5q11 -2 29 -3.5t45 -1.5h83q-3 17 -7 28.5t-9 20.5l-9 17l133 25q-1 -12 -1 -26q0 -12 -0.5 -29t-0.5 -36q24 0 39.5 1.5t25.5 3.5q11 2 18 5q-1 -5 -1 -10v-26v-27q0 -5 1 -9q-7 2 -18 4q-10 2 -26 3
t-40 2v-68v-311q0 -65 1.5 -105t5 -64t8 -37t10.5 -24l9 -17zM439 484q-10 8 -26 15q-14 5 -34.5 10t-48.5 5q-93 0 -133.5 -61.5t-40.5 -172.5q0 -42 8 -81.5t26 -69.5t47.5 -48.5t73.5 -18.5q47 0 75 12.5t53 42.5v367z" />
    <glyph glyph-name="Emacron" unicode="&#x112;" horiz-adv-x="566" 
d="M153 787v69h283v-69h-283zM509 147q-1 -11 -3 -28q-2 -14 -4 -36.5t-4 -52.5l-2 -30h-343q-20 0 -35 -0.5t-24 -0.5h-18l9 17q5 9 9 17.5t6.5 22t4.5 35t3 56.5t1.5 87t0.5 127q0 109 -1 169.5t-3.5 92t-7.5 45t-13 28.5l-9 17q7 -1 18 -1h58h334q-1 -6 -1 -13v-39
q0 -30 1.5 -44.5t1.5 -16.5q-1 1 -8 7.5t-28 19.5q-38 22 -110 22h-132v-259h108q35 0 63.5 4t46.5 15q20 11 27 17.5t9 8.5q0 -1 -1.5 -21.5t-1.5 -56.5q0 -35 1.5 -55t1.5 -22q-1 1 -8 7.5t-28 19.5q-18 11 -46.5 15t-63.5 4h-108v-261h122q46 0 74.5 5.5t46.5 16t30 26
t26 35.5z" />
    <glyph glyph-name="emacron" unicode="&#x113;" horiz-adv-x="576" 
d="M155 283q0 -40 7.5 -80t27.5 -72t53.5 -52t86.5 -20q52 0 85.5 10.5t53.5 24.5q23 16 36 36q0 -27 -11 -52.5t-35 -45t-61.5 -31.5t-90.5 -12q-123 0 -189 75.5t-66 214.5q0 80 20.5 136.5t54.5 92.5t79 53t94 17q51 0 88 -13.5t62.5 -35.5t40.5 -51.5t23.5 -61t11 -63.5
t2.5 -60v-10h-373zM423 352q0 20 -3 48.5t-15.5 54.5t-38 44.5t-69.5 18.5q-22 0 -46.5 -6t-45.5 -25.5t-34.5 -56t-14.5 -98.5zM155 657v69h283v-69h-283z" />
    <glyph glyph-name="Ebreve" unicode="&#x114;" horiz-adv-x="566" 
d="M149 919q26 -37 61.5 -63t83.5 -26q49 0 84 26t61 63q0 -35 -9.5 -64.5t-27.5 -51t-45 -34t-63 -12.5t-63 12.5t-45 34t-27.5 51t-9.5 64.5zM509 147q-1 -11 -3 -28q-2 -14 -4 -36.5t-4 -52.5l-2 -30h-343q-20 0 -35 -0.5t-24 -0.5h-18l9 17q5 9 9 17.5t6.5 22t4.5 35
t3 56.5t1.5 87t0.5 127q0 109 -1 169.5t-3.5 92t-7.5 45t-13 28.5l-9 17q7 -1 18 -1h58h334q-1 -6 -1 -13v-39q0 -30 1.5 -44.5t1.5 -16.5q-1 1 -8 7.5t-28 19.5q-38 22 -110 22h-132v-259h108q35 0 63.5 4t46.5 15q20 11 27 17.5t9 8.5q0 -1 -1.5 -21.5t-1.5 -56.5
q0 -35 1.5 -55t1.5 -22q-1 1 -8 7.5t-28 19.5q-18 11 -46.5 15t-63.5 4h-108v-261h122q46 0 74.5 5.5t46.5 16t30 26t26 35.5z" />
    <glyph glyph-name="ebreve" unicode="&#x115;" horiz-adv-x="576" 
d="M155 283q0 -40 7.5 -80t27.5 -72t53.5 -52t86.5 -20q52 0 85.5 10.5t53.5 24.5q23 16 36 36q0 -27 -11 -52.5t-35 -45t-61.5 -31.5t-90.5 -12q-123 0 -189 75.5t-66 214.5q0 80 20.5 136.5t54.5 92.5t79 53t94 17q51 0 88 -13.5t62.5 -35.5t40.5 -51.5t23.5 -61t11 -63.5
t2.5 -60v-10h-373zM423 352q0 20 -3 48.5t-15.5 54.5t-38 44.5t-69.5 18.5q-22 0 -46.5 -6t-45.5 -25.5t-34.5 -56t-14.5 -98.5zM154 789q26 -37 61.5 -62.5t83.5 -25.5q49 0 84 25.5t61 62.5q0 -35 -9.5 -64t-27.5 -51t-45 -34t-63 -12t-63 12t-45 34t-27.5 51t-9.5 64z
" />
    <glyph glyph-name="Edotaccent" unicode="&#x116;" horiz-adv-x="566" 
d="M363 831q0 -32 -18.5 -47.5t-48.5 -15.5q-29 0 -47.5 15t-18.5 45q0 32 18 47t49 15q29 0 47.5 -15t18.5 -44zM509 147q-1 -11 -3 -28q-2 -14 -4 -36.5t-4 -52.5l-2 -30h-343q-20 0 -35 -0.5t-24 -0.5h-18l9 17q5 9 9 17.5t6.5 22t4.5 35t3 56.5t1.5 87t0.5 127
q0 109 -1 169.5t-3.5 92t-7.5 45t-13 28.5l-9 17q7 -1 18 -1h58h334q-1 -6 -1 -13v-39q0 -30 1.5 -44.5t1.5 -16.5q-1 1 -8 7.5t-28 19.5q-38 22 -110 22h-132v-259h108q35 0 63.5 4t46.5 15q20 11 27 17.5t9 8.5q0 -1 -1.5 -21.5t-1.5 -56.5q0 -35 1.5 -55t1.5 -22
q-1 1 -8 7.5t-28 19.5q-18 11 -46.5 15t-63.5 4h-108v-261h122q46 0 74.5 5.5t46.5 16t30 26t26 35.5z" />
    <glyph glyph-name="edotaccent" unicode="&#x117;" horiz-adv-x="576" 
d="M155 283q0 -40 7.5 -80t27.5 -72t53.5 -52t86.5 -20q52 0 85.5 10.5t53.5 24.5q23 16 36 36q0 -27 -11 -52.5t-35 -45t-61.5 -31.5t-90.5 -12q-123 0 -189 75.5t-66 214.5q0 80 20.5 136.5t54.5 92.5t79 53t94 17q51 0 88 -13.5t62.5 -35.5t40.5 -51.5t23.5 -61t11 -63.5
t2.5 -60v-10h-373zM423 352q0 20 -3 48.5t-15.5 54.5t-38 44.5t-69.5 18.5q-22 0 -46.5 -6t-45.5 -25.5t-34.5 -56t-14.5 -98.5zM364 715q0 -32 -18 -47t-48 -15q-29 0 -47.5 15t-18.5 44q0 32 18 47.5t49 15.5q29 0 47 -15t18 -45z" />
    <glyph glyph-name="Eogonek" unicode="&#x118;" horiz-adv-x="566" 
d="M324 -131q0 27 10.5 48t26 37t34 27t33.5 19h-275q-20 0 -35 -0.5t-24 -0.5h-18l9 17q5 9 9 17.5t6.5 22t4.5 35t3 56.5t1.5 87t0.5 127q0 109 -1 169.5t-3.5 92t-7.5 45t-13 28.5l-9 17q7 -1 18 -1h58h334q-1 -6 -1 -13v-39q0 -30 1.5 -44.5t1.5 -16.5q-1 1 -8 7.5
t-28 19.5q-38 22 -110 22h-132v-259h108q35 0 63.5 4t46.5 15q20 11 27 17.5t9 8.5q0 -1 -1.5 -21.5t-1.5 -56.5q0 -35 1.5 -55t1.5 -22q-1 1 -8 7.5t-28 19.5q-18 11 -46.5 15t-63.5 4h-108v-261h122q46 0 74.5 5.5t46.5 16t30 26t26 35.5q-1 -11 -3 -28q-2 -14 -4 -36.5
t-4 -52.5l-2 -30q-40 -17 -63.5 -45.5t-23.5 -67.5q0 -32 21 -52t66 -26q-17 -10 -38 -15.5t-41 -5.5q-37 0 -65 19t-28 62z" />
    <glyph glyph-name="eogonek" unicode="&#x119;" horiz-adv-x="576" 
d="M253 -131q0 22 8 41t20 34t27 26.5t30 19.5q-8 -1 -15.5 -1h-15.5q-123 0 -189 75.5t-66 214.5q0 80 20.5 136.5t54.5 92.5t79 53t94 17q51 0 88 -13.5t62.5 -35.5t40.5 -51.5t23.5 -61t11 -63.5t2.5 -60v-10h-373q0 -40 7.5 -80t27.5 -72t53.5 -52t86.5 -20
q52 0 85.5 10.5t53.5 24.5q23 16 36 36q0 -38 -21.5 -70.5t-69.5 -57.5q-13 -7 -26.5 -18t-24.5 -25.5t-18 -32.5t-7 -39q0 -32 21 -52t66 -26q-17 -10 -38 -15.5t-41 -5.5q-37 0 -65 19t-28 62zM423 352q0 20 -3 48.5t-15.5 54.5t-38 44.5t-69.5 18.5q-22 0 -46.5 -6
t-45.5 -25.5t-34.5 -56t-14.5 -98.5z" />
    <glyph glyph-name="Ecaron" unicode="&#x11a;" horiz-adv-x="566" 
d="M438 915q-41 -38 -74.5 -77.5t-65.5 -85.5h-14l-79 77q-8 8 -24.5 23t-27.5 23l65 50q7 -11 16 -23.5t17 -23.5l29 -39q12 15 29 29.5t37 25t43 16.5t49 5zM509 147q-1 -11 -3 -28q-2 -14 -4 -36.5t-4 -52.5l-2 -30h-343q-20 0 -35 -0.5t-24 -0.5h-18l9 17q5 9 9 17.5
t6.5 22t4.5 35t3 56.5t1.5 87t0.5 127q0 109 -1 169.5t-3.5 92t-7.5 45t-13 28.5l-9 17q7 -1 18 -1h58h334q-1 -6 -1 -13v-39q0 -30 1.5 -44.5t1.5 -16.5q-1 1 -8 7.5t-28 19.5q-38 22 -110 22h-132v-259h108q35 0 63.5 4t46.5 15q20 11 27 17.5t9 8.5q0 -1 -1.5 -21.5
t-1.5 -56.5q0 -35 1.5 -55t1.5 -22q-1 1 -8 7.5t-28 19.5q-18 11 -46.5 15t-63.5 4h-108v-261h122q46 0 74.5 5.5t46.5 16t30 26t26 35.5z" />
    <glyph glyph-name="ecaron" unicode="&#x11b;" horiz-adv-x="576" 
d="M432 772q-20 -20 -36.5 -37t-31.5 -34.5t-29.5 -36.5t-29.5 -41h-16l-67 63q-9 8 -25 23t-27 23l62 50q15 -26 34 -47l25 -29q24 30 56.5 50.5t84.5 15.5zM155 283q0 -40 7.5 -80t27.5 -72t53.5 -52t86.5 -20q52 0 85.5 10.5t53.5 24.5q23 16 36 36q0 -27 -11 -52.5
t-35 -45t-61.5 -31.5t-90.5 -12q-123 0 -189 75.5t-66 214.5q0 80 20.5 136.5t54.5 92.5t79 53t94 17q51 0 88 -13.5t62.5 -35.5t40.5 -51.5t23.5 -61t11 -63.5t2.5 -60v-10h-373zM423 352q0 20 -3 48.5t-15.5 54.5t-38 44.5t-69.5 18.5q-22 0 -46.5 -6t-45.5 -25.5
t-34.5 -56t-14.5 -98.5z" />
    <glyph glyph-name="Gcircumflex" unicode="&#x11c;" horiz-adv-x="701" 
d="M635 314q-7 -13 -12 -26.5t-8 -41.5t-4 -79t-1 -139v-6q-21 -9 -49 -15q-24 -5 -58 -9.5t-79 -4.5q-81 0 -140 17.5t-99.5 46.5t-65.5 66.5t-39 76.5t-18.5 77.5t-4.5 69.5q0 89 25 158.5t73 117t117.5 72t158.5 24.5q49 0 83.5 -5t57.5 -10q26 -6 43 -14q-1 -7 -2 -17
q-1 -8 -1 -20v-28v-28.5t1 -21.5q1 -11 2 -20q-17 24 -33.5 42t-37.5 30.5t-48.5 19t-64.5 6.5q-39 0 -85.5 -10t-86.5 -41.5t-67 -91t-27 -159.5q0 -62 11.5 -115t41 -92.5t79.5 -62t128 -22.5q43 0 66 3q13 2 22 4q0 67 -1 109.5t-4 68.5t-8 41.5t-12 28.5l-10 17
q8 -1 19 -1q10 -1 25.5 -1h37.5h38t26 1q11 0 20 1zM557 752q-47 3 -93 23t-72 52q-35 -38 -79 -55.5t-86 -19.5l136 150h59z" />
    <glyph glyph-name="gcircumflex" unicode="&#x11d;" horiz-adv-x="578" 
d="M453 623q-47 2 -93 22t-72 52q-35 -38 -79 -55t-86 -19l136 149h59zM547 -13q0 -50 -23 -87.5t-62.5 -62.5t-91.5 -37.5t-110 -12.5q-81 0 -128.5 16t-71.5 37.5t-30.5 44.5t-6.5 38q0 38 19 61.5t43 36t45 17.5t25 5q-1 0 -9 4t-17.5 13t-17 24t-7.5 39q0 27 12 45.5
t27 30.5t28.5 18t16.5 7q-7 1 -28.5 8.5t-44 26.5t-40.5 51t-18 82q0 33 10 66t33.5 60t63 44t98.5 17q20 0 37 -2.5t29 -5.5q14 -4 25 -8h66q29 0 54.5 1.5t43.5 3.5q21 3 38 6q-1 -5 -1 -11v-31v-29q0 -6 1 -10q-11 2 -27 5q-27 4 -77 6l-33 1q1 -1 10 -7.5t19 -21t18 -36
t8 -52.5q0 -54 -19.5 -88.5t-50 -54t-67 -26.5t-69.5 -7q-14 0 -25 0.5t-19 1.5q-10 1 -18 3q-7 -5 -11 -13q-5 -7 -8 -17t-3 -23q0 -17 6.5 -27t16.5 -15t22.5 -6.5t25.5 -1.5h120q28 0 58.5 -2.5t56 -15t42 -38t16.5 -71.5zM458 -37q0 26 -9 40.5t-24 21t-34.5 8
t-40.5 1.5h-173q-19 -7 -33 -19q-13 -11 -23 -27.5t-10 -41.5q0 -13 4.5 -30t20.5 -32.5t48 -26t86 -10.5q86 0 137 30t51 86zM376 397q0 19 -4 42t-16 42.5t-34.5 33t-59.5 13.5q-30 0 -50 -11t-32.5 -30t-18 -43t-5.5 -50q0 -19 4 -42t16 -42.5t34.5 -33t59.5 -13.5
q30 0 50 11t32.5 30t18 43t5.5 50z" />
    <glyph glyph-name="Gbreve" unicode="&#x11e;" horiz-adv-x="701" 
d="M251 919q26 -37 61.5 -63t83.5 -26q49 0 84 26t61 63q0 -35 -9.5 -64.5t-27.5 -51t-45 -34t-63 -12.5t-63 12.5t-45 34t-27.5 51t-9.5 64.5zM635 314q-7 -13 -12 -26.5t-8 -41.5t-4 -79t-1 -139v-6q-21 -9 -49 -15q-24 -5 -58 -9.5t-79 -4.5q-81 0 -140 17.5t-99.5 46.5
t-65.5 66.5t-39 76.5t-18.5 77.5t-4.5 69.5q0 89 25 158.5t73 117t117.5 72t158.5 24.5q49 0 83.5 -5t57.5 -10q26 -6 43 -14q-1 -7 -2 -17q-1 -8 -1 -20v-28v-28.5t1 -21.5q1 -11 2 -20q-17 24 -33.5 42t-37.5 30.5t-48.5 19t-64.5 6.5q-39 0 -85.5 -10t-86.5 -41.5
t-67 -91t-27 -159.5q0 -62 11.5 -115t41 -92.5t79.5 -62t128 -22.5q43 0 66 3q13 2 22 4q0 67 -1 109.5t-4 68.5t-8 41.5t-12 28.5l-10 17q8 -1 19 -1q10 -1 25.5 -1h37.5h38t26 1q11 0 20 1z" />
    <glyph glyph-name="gbreve" unicode="&#x11f;" horiz-adv-x="578" 
d="M547 -13q0 -50 -23 -87.5t-62.5 -62.5t-91.5 -37.5t-110 -12.5q-81 0 -128.5 16t-71.5 37.5t-30.5 44.5t-6.5 38q0 38 19 61.5t43 36t45 17.5t25 5q-1 0 -9 4t-17.5 13t-17 24t-7.5 39q0 27 12 45.5t27 30.5t28.5 18t16.5 7q-7 1 -28.5 8.5t-44 26.5t-40.5 51t-18 82
q0 33 10 66t33.5 60t63 44t98.5 17q20 0 37 -2.5t29 -5.5q14 -4 25 -8h66q29 0 54.5 1.5t43.5 3.5q21 3 38 6q-1 -5 -1 -11v-31v-29q0 -6 1 -10q-11 2 -27 5q-27 4 -77 6l-33 1q1 -1 10 -7.5t19 -21t18 -36t8 -52.5q0 -54 -19.5 -88.5t-50 -54t-67 -26.5t-69.5 -7
q-14 0 -25 0.5t-19 1.5q-10 1 -18 3q-7 -5 -11 -13q-5 -7 -8 -17t-3 -23q0 -17 6.5 -27t16.5 -15t22.5 -6.5t25.5 -1.5h120q28 0 58.5 -2.5t56 -15t42 -38t16.5 -71.5zM458 -37q0 26 -9 40.5t-24 21t-34.5 8t-40.5 1.5h-173q-19 -7 -33 -19q-13 -11 -23 -27.5t-10 -41.5
q0 -13 4.5 -30t20.5 -32.5t48 -26t86 -10.5q86 0 137 30t51 86zM376 397q0 19 -4 42t-16 42.5t-34.5 33t-59.5 13.5q-30 0 -50 -11t-32.5 -30t-18 -43t-5.5 -50q0 -19 4 -42t16 -42.5t34.5 -33t59.5 -13.5q30 0 50 11t32.5 30t18 43t5.5 50zM142 789q26 -37 61.5 -62.5
t83.5 -25.5q49 0 84 25.5t61 62.5q0 -35 -9.5 -64t-27.5 -51t-45 -34t-63 -12t-63 12t-45 34t-27.5 51t-9.5 64z" />
    <glyph glyph-name="Gdotaccent" unicode="&#x120;" horiz-adv-x="701" 
d="M466 831q0 -32 -18.5 -47.5t-48.5 -15.5q-29 0 -47.5 15t-18.5 45q0 32 18 47t49 15q29 0 47.5 -15t18.5 -44zM635 314q-7 -13 -12 -26.5t-8 -41.5t-4 -79t-1 -139v-6q-21 -9 -49 -15q-24 -5 -58 -9.5t-79 -4.5q-81 0 -140 17.5t-99.5 46.5t-65.5 66.5t-39 76.5
t-18.5 77.5t-4.5 69.5q0 89 25 158.5t73 117t117.5 72t158.5 24.5q49 0 83.5 -5t57.5 -10q26 -6 43 -14q-1 -7 -2 -17q-1 -8 -1 -20v-28v-28.5t1 -21.5q1 -11 2 -20q-17 24 -33.5 42t-37.5 30.5t-48.5 19t-64.5 6.5q-39 0 -85.5 -10t-86.5 -41.5t-67 -91t-27 -159.5
q0 -62 11.5 -115t41 -92.5t79.5 -62t128 -22.5q43 0 66 3q13 2 22 4q0 67 -1 109.5t-4 68.5t-8 41.5t-12 28.5l-10 17q8 -1 19 -1q10 -1 25.5 -1h37.5h38t26 1q11 0 20 1z" />
    <glyph glyph-name="gdotaccent" unicode="&#x121;" horiz-adv-x="578" 
d="M547 -13q0 -50 -23 -87.5t-62.5 -62.5t-91.5 -37.5t-110 -12.5q-81 0 -128.5 16t-71.5 37.5t-30.5 44.5t-6.5 38q0 38 19 61.5t43 36t45 17.5t25 5q-1 0 -9 4t-17.5 13t-17 24t-7.5 39q0 27 12 45.5t27 30.5t28.5 18t16.5 7q-7 1 -28.5 8.5t-44 26.5t-40.5 51t-18 82
q0 33 10 66t33.5 60t63 44t98.5 17q20 0 37 -2.5t29 -5.5q14 -4 25 -8h66q29 0 54.5 1.5t43.5 3.5q21 3 38 6q-1 -5 -1 -11v-31v-29q0 -6 1 -10q-11 2 -27 5q-27 4 -77 6l-33 1q1 -1 10 -7.5t19 -21t18 -36t8 -52.5q0 -54 -19.5 -88.5t-50 -54t-67 -26.5t-69.5 -7
q-14 0 -25 0.5t-19 1.5q-10 1 -18 3q-7 -5 -11 -13q-5 -7 -8 -17t-3 -23q0 -17 6.5 -27t16.5 -15t22.5 -6.5t25.5 -1.5h120q28 0 58.5 -2.5t56 -15t42 -38t16.5 -71.5zM458 -37q0 26 -9 40.5t-24 21t-34.5 8t-40.5 1.5h-173q-19 -7 -33 -19q-13 -11 -23 -27.5t-10 -41.5
q0 -13 4.5 -30t20.5 -32.5t48 -26t86 -10.5q86 0 137 30t51 86zM376 397q0 19 -4 42t-16 42.5t-34.5 33t-59.5 13.5q-30 0 -50 -11t-32.5 -30t-18 -43t-5.5 -50q0 -19 4 -42t16 -42.5t34.5 -33t59.5 -13.5q30 0 50 11t32.5 30t18 43t5.5 50zM355 715q0 -32 -18 -47t-48 -15
q-29 0 -47.5 15t-18.5 44q0 32 18 47.5t49 15.5q29 0 47 -15t18 -45z" />
    <glyph glyph-name="Gcommaaccent" unicode="&#x122;" horiz-adv-x="701" 
d="M456 -110q0 -22 -8.5 -42t-24 -36.5t-37.5 -28t-50 -15.5q1 0 8 6t15.5 16.5t15 24.5t6.5 31q0 16 -5.5 25t-12.5 14q-8 5 -18 7v17q0 47 50 55q26 -5 43.5 -22t17.5 -52zM635 314q-7 -13 -12 -26.5t-8 -41.5t-4 -79t-1 -139v-6q-21 -9 -49 -15q-24 -5 -58 -9.5t-79 -4.5
q-81 0 -140 17.5t-99.5 46.5t-65.5 66.5t-39 76.5t-18.5 77.5t-4.5 69.5q0 89 25 158.5t73 117t117.5 72t158.5 24.5q49 0 83.5 -5t57.5 -10q26 -6 43 -14q-1 -7 -2 -17q-1 -8 -1 -20v-28v-28.5t1 -21.5q1 -11 2 -20q-17 24 -33.5 42t-37.5 30.5t-48.5 19t-64.5 6.5
q-39 0 -85.5 -10t-86.5 -41.5t-67 -91t-27 -159.5q0 -62 11.5 -115t41 -92.5t79.5 -62t128 -22.5q43 0 66 3q13 2 22 4q0 67 -1 109.5t-4 68.5t-8 41.5t-12 28.5l-10 17q8 -1 19 -1q10 -1 25.5 -1h37.5h38t26 1q11 0 20 1z" />
    <glyph glyph-name="gcommaaccent" unicode="&#x123;" horiz-adv-x="578" 
d="M222 695q0 22 8.5 42t24 36.5t38 28t49.5 15.5q-1 0 -8 -6t-15 -16.5t-14.5 -25t-6.5 -30.5t5 -25t12 -14q8 -5 18 -7v-17q0 -47 -49 -55q-26 5 -44 22t-18 52zM547 -13q0 -50 -23 -87.5t-62.5 -62.5t-91.5 -37.5t-110 -12.5q-81 0 -128.5 16t-71.5 37.5t-30.5 44.5
t-6.5 38q0 38 19 61.5t43 36t45 17.5t25 5q-1 0 -9 4t-17.5 13t-17 24t-7.5 39q0 27 12 45.5t27 30.5t28.5 18t16.5 7q-7 1 -28.5 8.5t-44 26.5t-40.5 51t-18 82q0 33 10 66t33.5 60t63 44t98.5 17q20 0 37 -2.5t29 -5.5q14 -4 25 -8h66q29 0 54.5 1.5t43.5 3.5q21 3 38 6
q-1 -5 -1 -11v-31v-29q0 -6 1 -10q-11 2 -27 5q-27 4 -77 6l-33 1q1 -1 10 -7.5t19 -21t18 -36t8 -52.5q0 -54 -19.5 -88.5t-50 -54t-67 -26.5t-69.5 -7q-14 0 -25 0.5t-19 1.5q-10 1 -18 3q-7 -5 -11 -13q-5 -7 -8 -17t-3 -23q0 -17 6.5 -27t16.5 -15t22.5 -6.5t25.5 -1.5
h120q28 0 58.5 -2.5t56 -15t42 -38t16.5 -71.5zM458 -37q0 26 -9 40.5t-24 21t-34.5 8t-40.5 1.5h-173q-19 -7 -33 -19q-13 -11 -23 -27.5t-10 -41.5q0 -13 4.5 -30t20.5 -32.5t48 -26t86 -10.5q86 0 137 30t51 86zM376 397q0 19 -4 42t-16 42.5t-34.5 33t-59.5 13.5
q-30 0 -50 -11t-32.5 -30t-18 -43t-5.5 -50q0 -19 4 -42t16 -42.5t34.5 -33t59.5 -13.5q30 0 50 11t32.5 30t18 43t5.5 50z" />
    <glyph glyph-name="Hcircumflex" unicode="&#x124;" horiz-adv-x="749" 
d="M673 -1q-8 0 -19 1q-10 0 -26 0.5t-38 0.5q-23 0 -38 -0.5t-26 -0.5q-12 -1 -20 -1l9 17q7 14 12 27t8 43.5t4 87t1 156.5h-331q0 -67 0.5 -113.5t1.5 -78t2.5 -51t4.5 -32t7 -21t9 -18.5l9 -17q-8 0 -19 1q-10 0 -26 0.5t-38 0.5q-23 0 -38 -0.5t-26 -0.5q-12 -1 -20 -1
l9 17q5 9 9 17.5t6.5 22t4.5 35t3 56.5t1.5 87t0.5 127q0 109 -1 169.5t-3.5 92t-7.5 45t-13 28.5l-9 17q8 -1 19 -1q10 -1 25.5 -1h38.5h38t26 1q11 0 20 1l-9 -17q-5 -9 -8.5 -17t-6.5 -20t-5 -30.5t-3 -47.5t-1.5 -72.5t-0.5 -104.5h331q0 92 -1 143.5t-4 80t-8 41.5
t-12 27l-9 17q8 -1 19 -1q10 -1 25.5 -1h38.5h38t26 1q11 0 20 1l-9 -17l-9 -18t-6.5 -21.5t-4.5 -35t-3 -56.5t-1.5 -87t-0.5 -127q0 -109 1 -169.5t3.5 -92t7.5 -45t13 -28.5zM538 752q-47 3 -93 23t-72 52q-35 -38 -79 -55.5t-86 -19.5l136 150h59z" />
    <glyph glyph-name="hcircumflex" unicode="&#x125;" horiz-adv-x="633" 
d="M569 -1q-8 0 -19 1q-10 0 -25.5 0.5t-37.5 0.5q-23 0 -38 -0.5t-25 -0.5q-11 -1 -19 -1l9 17q6 11 11 21t8 34t5 69.5t2 127.5q0 41 -1 71.5t-3 53.5t-6.5 39t-11.5 28q-11 17 -32 31.5t-65 14.5q-42 0 -66 -10.5t-38 -23.5q-16 -15 -22 -33v-168q0 -82 1.5 -128t5 -70.5
t8 -35t10.5 -21.5l9 -17q-7 0 -18 1q-10 0 -25.5 0.5t-37.5 0.5q-23 0 -38 -0.5t-25 -0.5q-11 -1 -19 -1l9 17q6 11 10.5 21.5t8 35t5 70.5t1.5 128v244q0 65 -1.5 105t-5 64t-8 37t-10.5 24l-9 17l132 25l-2 -60q-1 -26 -1 -56.5v-57.5v-87q0 -16 -0.5 -29t-1.5 -24
q-1 -12 -1 -23q9 40 27.5 65.5t41.5 39t48 18.5t48 5q57 0 95 -19.5t57 -54.5q8 -16 13.5 -33.5t8.5 -41.5t4 -56t1 -76v-26q0 -82 1.5 -128t4.5 -70.5t7.5 -35t10.5 -21.5zM311 812q-47 3 -93 23t-72 52q-35 -38 -79 -55.5t-86 -19.5l136 150h59z" />
    <glyph glyph-name="Hbar" unicode="&#x126;" horiz-adv-x="769" 
d="M682 -1q-8 0 -19 1q-10 0 -26 0.5t-38 0.5q-23 0 -38 -0.5t-26 -0.5q-12 -1 -20 -1l9 17q7 14 12 27t8 43.5t4 87t1 156.5h-331q0 -67 0.5 -113.5t1.5 -78t2.5 -51t4.5 -32t7 -21t9 -18.5l9 -17q-8 0 -19 1q-10 0 -26 0.5t-38 0.5q-23 0 -38 -0.5t-26 -0.5q-12 -1 -20 -1
l9 17q5 9 9 17.5t6.5 22t4.5 35t3 56.5t1.5 87t0.5 127v90.5t-1 70.5h-1q-29 0 -48 -2t-30 -4q-13 -3 -20 -6v10q0 5 0.5 12.5t0.5 18.5q0 10 -0.5 17.5t-0.5 12.5v11q7 -3 20 -6q11 -2 30 -4t48 -2q-1 29 -3 47t-5 30t-6.5 20.5t-8.5 18.5l-9 17q8 -1 19 -1q10 -1 25.5 -1
h38.5h38t26 1q11 0 20 1l-9 -17q-5 -9 -8.5 -17t-6.5 -20t-5 -30.5t-3 -48.5h327q-1 29 -3 47t-5 30t-6.5 20.5t-8.5 18.5l-9 17q8 -1 19 -1q10 -1 25.5 -1h38.5h38t26 1q11 0 20 1l-9 -17q-5 -9 -8.5 -17t-6.5 -20t-5 -30.5t-3 -48.5h2q29 0 47.5 2t29.5 4q13 3 21 6
q-1 -5 -1 -11v-30v-31q0 -6 1 -10q-8 3 -21 6q-11 2 -29.5 4t-47.5 2h-3q-1 -32 -1 -74v-97q0 -109 1 -169.5t3.5 -92t7.5 -45t13 -28.5zM549 404v64.5t-1 53.5h-330v-118h331z" />
    <glyph glyph-name="hbar" unicode="&#x127;" horiz-adv-x="633" 
d="M569 -1q-8 0 -19 1q-10 0 -25.5 0.5t-37.5 0.5q-23 0 -38 -0.5t-25 -0.5q-11 -1 -19 -1l9 17q6 11 11 21t8 34t5 69.5t2 127.5q0 41 -1 71.5t-3 53.5t-6.5 39t-11.5 28q-11 17 -32 31.5t-65 14.5q-42 0 -66 -10.5t-38 -23.5q-16 -15 -22 -33v-168q0 -82 1.5 -128t5 -70.5
t8 -35t10.5 -21.5l9 -17q-7 0 -18 1q-10 0 -25.5 0.5t-37.5 0.5q-23 0 -38 -0.5t-25 -0.5q-11 -1 -19 -1l9 17q6 11 10.5 21.5t8 35t5 70.5t1.5 128v244q0 42 -0.5 73.5t-2.5 54.5q-24 -1 -39.5 -2t-25.5 -3q-11 -2 -18 -4v9q0 5 0.5 11.5t0.5 15.5q0 8 -0.5 14.5t-0.5 11.5
v10q6 -3 17 -5q9 -2 23.5 -3.5t36.5 -1.5q-3 18 -7 28.5t-9 20.5l-9 17l132 25q0 -13 -1 -28q-1 -13 -1.5 -29t-0.5 -34h69q27 0 45 1.5t29 3.5q12 2 20 5q-1 -5 -1 -10v-26v-27q0 -5 1 -9q-8 2 -20 4q-11 2 -29 3.5t-45 1.5h-69v-30v-87q0 -16 -0.5 -29t-1.5 -24
q-1 -12 -1 -23q9 40 27.5 65.5t41.5 39t48 18.5t48 5q57 0 95 -19.5t57 -54.5q8 -16 13.5 -33.5t8.5 -41.5t4 -56t1 -76v-26q0 -82 1.5 -128t4.5 -70.5t7.5 -35t10.5 -21.5z" />
    <glyph glyph-name="Itilde" unicode="&#x128;" horiz-adv-x="319" 
d="M243 -1q-8 0 -19 1q-10 0 -26 0.5t-38 0.5q-23 0 -38 -0.5t-26 -0.5q-12 -1 -20 -1l9 17q5 9 9 17.5t6.5 22t4.5 35t3 56.5t1.5 87t0.5 127q0 109 -1 169.5t-3.5 92t-7.5 45t-13 28.5l-9 17q8 -1 19 -1q10 -1 25.5 -1h38.5h38t26 1q11 0 20 1l-9 -17l-9 -18t-6.5 -21.5
t-4.5 -35t-3 -56.5t-1.5 -87t-0.5 -127q0 -109 1 -169.5t3.5 -92t7.5 -45t13 -28.5zM249 838q15 0 28 7t22.5 15t15 15.5t6.5 9.5q0 -55 -23.5 -84t-62.5 -29q-15 0 -28 3.5t-23 6.5l-59 21q-13 5 -20.5 6.5t-20.5 1.5q-15 0 -28 -7t-22.5 -15.5t-15 -16t-6.5 -9.5
q0 56 24 85t62 29q15 0 28 -3t23 -7l59 -21q13 -5 20.5 -6.5t20.5 -1.5z" />
    <glyph glyph-name="itilde" unicode="&#x129;" horiz-adv-x="297" 
d="M233 -1q-7 0 -18 1q-10 0 -25.5 0.5t-37.5 0.5q-23 0 -38.5 -0.5t-25.5 -0.5q-11 -1 -19 -1l9 17q7 13 12 27t8 40t4 70t1 118v31q0 65 -1.5 105t-5 64t-8 37t-10.5 24l-9 17l139 25q-3 -19 -5 -55q-2 -31 -3 -83t-1 -133v-32q0 -69 1 -112t3.5 -70t7.5 -42.5t13 -30.5z
M232 707q15 0 28 7t22.5 15t15 15.5t6.5 9.5q0 -54 -23.5 -83t-62.5 -29q-15 0 -28 3t-23 7l-59 21q-13 5 -20.5 6.5t-20.5 1.5q-15 0 -28 -7t-22.5 -15.5t-15 -16t-6.5 -9.5q0 56 24 84.5t62 28.5q15 0 28 -3t23 -7l59 -21q13 -4 20.5 -6t20.5 -2z" />
    <glyph glyph-name="Imacron" unicode="&#x12a;" horiz-adv-x="319" 
d="M243 -1q-8 0 -19 1q-10 0 -26 0.5t-38 0.5q-23 0 -38 -0.5t-26 -0.5q-12 -1 -20 -1l9 17q5 9 9 17.5t6.5 22t4.5 35t3 56.5t1.5 87t0.5 127q0 109 -1 169.5t-3.5 92t-7.5 45t-13 28.5l-9 17q8 -1 19 -1q10 -1 25.5 -1h38.5h38t26 1q11 0 20 1l-9 -17l-9 -18t-6.5 -21.5
t-4.5 -35t-3 -56.5t-1.5 -87t-0.5 -127q0 -109 1 -169.5t3.5 -92t7.5 -45t13 -28.5zM19 787v69h283v-69h-283z" />
    <glyph glyph-name="imacron" unicode="&#x12b;" horiz-adv-x="297" 
d="M233 -1q-7 0 -18 1q-10 0 -25.5 0.5t-37.5 0.5q-23 0 -38.5 -0.5t-25.5 -0.5q-11 -1 -19 -1l9 17q7 13 12 27t8 40t4 70t1 118v31q0 65 -1.5 105t-5 64t-8 37t-10.5 24l-9 17l139 25q-3 -19 -5 -55q-2 -31 -3 -83t-1 -133v-32q0 -69 1 -112t3.5 -70t7.5 -42.5t13 -30.5z
M8 657v69h283v-69h-283z" />
    <glyph glyph-name="Ibreve" unicode="&#x12c;" horiz-adv-x="319" 
d="M243 -1q-8 0 -19 1q-10 0 -26 0.5t-38 0.5q-23 0 -38 -0.5t-26 -0.5q-12 -1 -20 -1l9 17q5 9 9 17.5t6.5 22t4.5 35t3 56.5t1.5 87t0.5 127q0 109 -1 169.5t-3.5 92t-7.5 45t-13 28.5l-9 17q8 -1 19 -1q10 -1 25.5 -1h38.5h38t26 1q11 0 20 1l-9 -17l-9 -18t-6.5 -21.5
t-4.5 -35t-3 -56.5t-1.5 -87t-0.5 -127q0 -109 1 -169.5t3.5 -92t7.5 -45t13 -28.5zM15 919q26 -37 61.5 -63t83.5 -26q49 0 84 26t61 63q0 -35 -9.5 -64.5t-27.5 -51t-45 -34t-63 -12.5t-63 12.5t-45 34t-27.5 51t-9.5 64.5z" />
    <glyph glyph-name="ibreve" unicode="&#x12d;" horiz-adv-x="297" 
d="M233 -1q-7 0 -18 1q-10 0 -25.5 0.5t-37.5 0.5q-23 0 -38.5 -0.5t-25.5 -0.5q-11 -1 -19 -1l9 17q7 13 12 27t8 40t4 70t1 118v31q0 65 -1.5 105t-5 64t-8 37t-10.5 24l-9 17l139 25q-3 -19 -5 -55q-2 -31 -3 -83t-1 -133v-32q0 -69 1 -112t3.5 -70t7.5 -42.5t13 -30.5z
M4 789q26 -37 61.5 -62.5t83.5 -25.5q49 0 84 25.5t61 62.5q0 -35 -9.5 -64t-27.5 -51t-45 -34t-63 -12t-63 12t-45 34t-27.5 51t-9.5 64z" />
    <glyph glyph-name="Iogonek" unicode="&#x12e;" horiz-adv-x="319" 
d="M46 -131q0 27 11 48t27 37.5t34.5 27.5t33.5 19q-20 0 -34.5 -0.5t-23.5 -0.5q-11 -1 -18 -1l9 17q5 9 9 17.5t6.5 22t4.5 35t3 56.5t1.5 87t0.5 127q0 109 -1 169.5t-3.5 92t-7.5 45t-13 28.5l-9 17q8 -1 19 -1q10 -1 25.5 -1h38.5h38t26 1q11 0 20 1l-9 -17l-9 -18
t-6.5 -21.5t-4.5 -35t-3 -56.5t-1.5 -87t-0.5 -127q0 -109 1 -169.5t3.5 -92t7.5 -45t13 -28.5l9 -17q-22 -1 -42.5 -9.5t-36 -23t-24.5 -34.5t-9 -45q0 -32 21 -52t66 -26q-17 -10 -38 -15.5t-41 -5.5q-37 0 -65 19t-28 62z" />
    <glyph glyph-name="iogonek" unicode="&#x12f;" horiz-adv-x="297" 
d="M49 -131q0 27 11 48t27 37.5t34.5 27.5t33.5 19h-3q-23 0 -38.5 -0.5t-25.5 -0.5q-11 -1 -19 -1l9 17q7 13 12 27t8 40t4 70t1 118v31q0 65 -1.5 105t-5 64t-8 37t-10.5 24l-9 17l139 25q-3 -19 -5 -55q-2 -31 -3 -83t-1 -133v-32q0 -69 1 -112t3.5 -70t7.5 -42.5
t13 -30.5l9 -17q-41 -4 -70 -35.5t-29 -76.5q0 -32 21 -52t66 -26q-17 -10 -38 -15.5t-41 -5.5q-37 0 -65 19t-28 62zM217 715q0 -32 -18.5 -47t-48.5 -15q-29 0 -47.5 15t-18.5 44q0 32 18 47.5t49 15.5q29 0 47.5 -15t18.5 -45z" />
    <glyph glyph-name="Idotaccent" unicode="&#x130;" horiz-adv-x="319" 
d="M243 -1q-8 0 -19 1q-10 0 -26 0.5t-38 0.5q-23 0 -38 -0.5t-26 -0.5q-12 -1 -20 -1l9 17q5 9 9 17.5t6.5 22t4.5 35t3 56.5t1.5 87t0.5 127q0 109 -1 169.5t-3.5 92t-7.5 45t-13 28.5l-9 17q8 -1 19 -1q10 -1 25.5 -1h38.5h38t26 1q11 0 20 1l-9 -17l-9 -18t-6.5 -21.5
t-4.5 -35t-3 -56.5t-1.5 -87t-0.5 -127q0 -109 1 -169.5t3.5 -92t7.5 -45t13 -28.5zM229 831q0 -32 -18.5 -47.5t-48.5 -15.5q-29 0 -47.5 15t-18.5 45q0 32 18 47t49 15q29 0 47.5 -15t18.5 -44z" />
    <glyph glyph-name="dotlessi" unicode="&#x131;" horiz-adv-x="297" 
d="M233 -1q-7 0 -18 1q-10 0 -25.5 0.5t-37.5 0.5q-23 0 -38.5 -0.5t-25.5 -0.5q-11 -1 -19 -1l9 17q7 13 12 27t8 40t4 70t1 118v31q0 65 -1.5 105t-5 64t-8 37t-10.5 24l-9 17l139 25q-3 -19 -5 -55q-2 -31 -3 -83t-1 -133v-32q0 -69 1 -112t3.5 -70t7.5 -42.5t13 -30.5z
" />
    <glyph glyph-name="IJ" unicode="&#x132;" horiz-adv-x="642" 
d="M243 -1q-8 0 -19 1q-10 0 -26 0.5t-38 0.5q-23 0 -38 -0.5t-26 -0.5q-12 -1 -20 -1l9 17q5 9 9 17.5t6.5 22t4.5 35t3 56.5t1.5 87t0.5 127q0 109 -1 169.5t-3.5 92t-7.5 45t-13 28.5l-9 17q8 -1 19 -1q10 -1 25.5 -1h38.5h38t26 1q11 0 20 1l-9 -17l-9 -18t-6.5 -21.5
t-4.5 -35t-3 -56.5t-1.5 -87t-0.5 -127q0 -109 1 -169.5t3.5 -92t7.5 -45t13 -28.5zM562 696q-5 -9 -9 -17.5t-6.5 -22t-4.5 -35t-3 -57t-1.5 -87.5t-0.5 -127v-388q0 -32 -3.5 -63.5t-19 -56t-47.5 -40t-89 -15.5h-20q29 14 45 34.5t24 49.5t9.5 68t1.5 91v330
q0 109 -1 169.5t-3.5 92.5t-7.5 45.5t-13 28.5l-9 17q8 -1 19 -1q10 -1 25.5 -1h38.5h38t26 1q11 0 20 1z" />
    <glyph glyph-name="ij" unicode="&#x133;" horiz-adv-x="578" 
d="M217 715q0 -32 -18.5 -47t-48.5 -15q-29 0 -47.5 15t-18.5 44q0 32 18 47.5t49 15.5q29 0 47.5 -15t18.5 -45zM233 -1q-7 0 -18 1q-10 0 -25.5 0.5t-37.5 0.5q-23 0 -38.5 -0.5t-25.5 -0.5q-11 -1 -19 -1l9 17q7 13 12 27t8 40t4 70t1 118v31q0 65 -1.5 105t-5 64t-8 37
t-10.5 24l-9 17l139 25q-3 -19 -5 -55q-2 -31 -3 -83t-1 -133v-32q0 -69 1 -112t3.5 -70t7.5 -42.5t13 -30.5zM510 715q0 -32 -18 -47t-49 -15q-29 0 -47.5 15t-18.5 44q0 32 18.5 47.5t48.5 15.5q29 0 47.5 -15t18.5 -45zM501 574q-3 -19 -5 -55q-2 -31 -3 -83t-1 -133
v-341q0 -32 -2.5 -63.5t-17.5 -56t-46.5 -40t-88.5 -15.5h-20q29 14 45 34.5t24 49.5t9.5 68t1.5 91v272q0 65 -1.5 105t-5 64t-8 37t-10.5 24l-9 17z" />
    <glyph glyph-name="Jcircumflex" unicode="&#x134;" horiz-adv-x="323" 
d="M244 696q-5 -9 -9 -17.5t-6.5 -22t-4.5 -35t-3 -57t-1.5 -87.5t-0.5 -127v-388q0 -32 -3.5 -63.5t-19 -56t-47.5 -40t-89 -15.5h-20q29 14 45 34.5t24 49.5t9.5 68t1.5 91v330q0 109 -1 169.5t-3.5 92.5t-7.5 45.5t-13 28.5l-9 17q8 -1 19 -1q10 -1 25.5 -1h38.5h38t26 1
q11 0 20 1zM339 752q-47 3 -93 23t-72 52q-35 -38 -79 -55.5t-86 -19.5l136 150h59z" />
    <glyph glyph-name="jcircumflex" unicode="&#x135;" horiz-adv-x="282" 
d="M205 574q-3 -19 -5 -55q-2 -31 -3 -83t-1 -133v-341q0 -32 -2.5 -63.5t-17.5 -56t-46.5 -40t-88.5 -15.5h-20q29 14 45 34.5t24 49.5t9.5 68t1.5 91v272q0 65 -1.5 105t-5 64t-8 37t-10.5 24l-9 17zM309 623q-47 2 -93 22t-72 52q-35 -38 -79 -55t-86 -19l136 149h59z
" />
    <glyph glyph-name="Kcommaaccent" unicode="&#x136;" horiz-adv-x="629" 
d="M394 -110q0 -22 -8.5 -42t-24 -36.5t-37.5 -28t-50 -15.5q1 0 8 6t15.5 16.5t15 24.5t6.5 31q0 16 -5.5 25t-12.5 14q-8 5 -18 7v17q0 47 50 55q26 -5 43.5 -22t17.5 -52zM642 713q-17 -11 -55 -46.5t-112 -112.5l-167 -172l167 -209q37 -47 64 -78t45.5 -50.5
t31.5 -29.5t24 -16h-22q-11 0 -28 0.5t-39 0.5h-72l-271 357q0 -108 1 -169.5t3.5 -94.5t7.5 -47.5t13 -29.5l9 -17q-8 0 -19 1q-10 0 -25.5 0.5t-37.5 0.5q-23 0 -38 -0.5t-26 -0.5q-12 -1 -20 -1l9 17q5 9 9 17.5t6.5 22t4.5 34.5t3 56.5t1.5 87.5t0.5 127q0 109 -1 169.5
t-3.5 92t-7.5 45t-13 28.5l-9 17q8 -1 19 -1q10 -1 25.5 -1h38.5h38.5t25.5 1q11 0 19 1l-9 -17q-5 -9 -8.5 -17.5t-6.5 -21.5t-5 -33.5t-3 -54t-1.5 -83t-0.5 -119.5l166 186q24 27 40 45.5t25.5 32t13.5 23.5t4 21q0 24 -21 38q11 -1 25 -1q12 -1 29.5 -1h40.5h48.5
t34.5 1q16 0 28 1z" />
    <glyph glyph-name="kcommaaccent" unicode="&#x137;" horiz-adv-x="559" 
d="M353 -110q0 -22 -8.5 -42t-24 -36.5t-37.5 -28t-50 -15.5q1 0 8 6t15.5 16.5t15 24.5t6.5 31q0 16 -5.5 25t-12.5 14q-8 5 -18 7v17q0 47 50 55q26 -5 43.5 -22t17.5 -52zM567 -1h-21q-11 0 -27 0.5t-39 0.5h-67l-220 282q0 -75 1 -120t4 -72.5t7.5 -43t12.5 -30.5l9 -17
q-7 0 -18 1q-10 0 -25.5 0.5t-37.5 0.5q-23 0 -38 -0.5t-25 -0.5q-11 -1 -19 -1l9 17q7 13 12 27t8 40t4 70t1 118v221q0 69 -1 111.5t-4 68.5t-8 41.5t-12 30.5l-9 17l132 26q-1 -32 -2 -67q-1 -30 -1 -67.5v-75.5v-280l101 110q25 27 41.5 45.5t26.5 31.5t14 23t4 21
q0 23 -21 39q8 -1 20 -1q11 -1 27 -1h39h50t35 1q17 0 28 1q-17 -11 -57.5 -47.5t-115.5 -112.5l-96 -96l110 -138q37 -48 64 -79t46.5 -50t33 -29t24.5 -16z" />
    <glyph glyph-name="kgreenlandic" unicode="&#x138;" horiz-adv-x="564" 
d="M572 -1h-21q-11 0 -27 0.5t-39 0.5h-67l-219 278q0 -81 1.5 -128t4.5 -73t8 -38t11 -23l9 -17q-8 0 -19 1q-10 0 -25.5 0.5t-37.5 0.5q-23 0 -38 -0.5t-25 -0.5q-11 -1 -19 -1l9 17q6 11 10.5 21.5t8 35t5 70.5t1.5 128v31q0 65 -1.5 105t-5 64t-8 37t-10.5 24l-9 17
l134 25q-1 -33 -2 -61q-1 -24 -1.5 -47t-0.5 -32v-142l100 113q25 27 41.5 46t26.5 32.5t14 23.5t4 21q0 23 -21 39q8 -1 20 -1q11 -1 27 -1h39h50t35 1q17 0 29 1q-18 -11 -58.5 -48t-115.5 -113l-95 -100l109 -135q37 -48 64 -78.5t46.5 -49.5t33 -28.5t24.5 -15.5z" />
    <glyph glyph-name="Lacute" unicode="&#x139;" horiz-adv-x="491" 
d="M189 902h106q-4 -12 -15 -26q-9 -12 -24.5 -28.5t-40.5 -36.5q-23 -19 -42.5 -30t-34.5 -17q-18 -7 -32 -11zM465 147q-1 -11 -3 -28q-2 -14 -4 -36.5t-4 -52.5l-2 -30h-299q-20 0 -35 -0.5t-24 -0.5h-18l9 17q5 9 9 17.5t6.5 22t4.5 35t3 56.5t1.5 87t0.5 127
q0 109 -1 169.5t-3.5 92t-7.5 45t-13 28.5l-9 17q8 -1 19 -1q10 -1 25.5 -1h38.5h38.5t26.5 1q12 0 20 1l-9 -17q-8 -14 -12.5 -28t-7.5 -46t-4 -93t-1 -169v-296h78q46 0 74.5 5.5t46.5 16t30 26t26 35.5z" />
    <glyph glyph-name="lacute" unicode="&#x13a;" horiz-adv-x="291" 
d="M161 962h106q-4 -12 -15 -26q-9 -12 -24.5 -28.5t-40.5 -36.5q-23 -19 -42.5 -30t-34.5 -17q-18 -7 -32 -11zM227 -1q-7 0 -18 1q-10 0 -25.5 0.5t-37.5 0.5q-23 0 -38 -0.5t-25 -0.5q-11 -1 -19 -1l9 17q7 13 12 27t8 40t4 70t1 118v221q0 69 -1 111.5t-4 68.5t-8 41.5
t-12 30.5l-9 17l132 26q-1 -32 -2 -67q-1 -30 -1 -67.5v-75.5v-306q0 -71 1 -114t4 -69.5t7.5 -41.5t12.5 -30z" />
    <glyph glyph-name="Lcommaaccent" unicode="&#x13b;" horiz-adv-x="491" 
d="M320 -110q0 -22 -8.5 -42t-24 -36.5t-37.5 -28t-50 -15.5q1 0 8 6t15.5 16.5t15 24.5t6.5 31q0 16 -5.5 25t-12.5 14q-8 5 -18 7v17q0 47 50 55q26 -5 43.5 -22t17.5 -52zM465 147q-1 -11 -3 -28q-2 -14 -4 -36.5t-4 -52.5l-2 -30h-299q-20 0 -35 -0.5t-24 -0.5h-18l9 17
q5 9 9 17.5t6.5 22t4.5 35t3 56.5t1.5 87t0.5 127q0 109 -1 169.5t-3.5 92t-7.5 45t-13 28.5l-9 17q8 -1 19 -1q10 -1 25.5 -1h38.5h38.5t26.5 1q12 0 20 1l-9 -17q-8 -14 -12.5 -28t-7.5 -46t-4 -93t-1 -169v-296h78q46 0 74.5 5.5t46.5 16t30 26t26 35.5z" />
    <glyph glyph-name="lcommaaccent" unicode="&#x13c;" horiz-adv-x="291" 
d="M201 -110q0 -22 -8.5 -42t-24 -36.5t-37.5 -28t-50 -15.5q1 0 8 6t15.5 16.5t15 24.5t6.5 31q0 16 -5.5 25t-12.5 14q-8 5 -18 7v17q0 47 50 55q26 -5 43.5 -22t17.5 -52zM227 -1q-7 0 -18 1q-10 0 -25.5 0.5t-37.5 0.5q-23 0 -38 -0.5t-25 -0.5q-11 -1 -19 -1l9 17
q7 13 12 27t8 40t4 70t1 118v221q0 69 -1 111.5t-4 68.5t-8 41.5t-12 30.5l-9 17l132 26q-1 -32 -2 -67q-1 -30 -1 -67.5v-75.5v-306q0 -71 1 -114t4 -69.5t7.5 -41.5t12.5 -30z" />
    <glyph glyph-name="Lcaron" unicode="&#x13d;" horiz-adv-x="491" 
d="M465 147q-1 -11 -3 -28q-2 -14 -4 -36.5t-4 -52.5l-2 -30h-299q-20 0 -35 -0.5t-24 -0.5h-18l9 17q5 9 9 17.5t6.5 22t4.5 35t3 56.5t1.5 87t0.5 127q0 109 -1 169.5t-3.5 92t-7.5 45t-13 28.5l-9 17q8 -1 19 -1q10 -1 25.5 -1h38.5h38.5t26.5 1q12 0 20 1l-9 -17
q-8 -14 -12.5 -28t-7.5 -46t-4 -93t-1 -169v-296h78q46 0 74.5 5.5t46.5 16t30 26t26 35.5zM284 540q7 27 10 55.5t3 55t-2 49.5t-5 40l92 11q6 -63 -16 -118.5t-82 -92.5z" />
    <glyph glyph-name="lcaron" unicode="&#x13e;" horiz-adv-x="291" 
d="M240 598q7 27 10 55.5t3 55t-2 49.5t-5 40l92 11q6 -63 -16 -118.5t-82 -92.5zM227 -1q-7 0 -18 1q-10 0 -25.5 0.5t-37.5 0.5q-23 0 -38 -0.5t-25 -0.5q-11 -1 -19 -1l9 17q7 13 12 27t8 40t4 70t1 118v221q0 69 -1 111.5t-4 68.5t-8 41.5t-12 30.5l-9 17l132 26
q-1 -32 -2 -67q-1 -30 -1 -67.5v-75.5v-306q0 -71 1 -114t4 -69.5t7.5 -41.5t12.5 -30z" />
    <glyph glyph-name="Ldot" unicode="&#x13f;" horiz-adv-x="491" 
d="M465 147q-1 -11 -3 -28q-2 -14 -4 -36.5t-4 -52.5l-2 -30h-299q-20 0 -35 -0.5t-24 -0.5h-18l9 17q5 9 9 17.5t6.5 22t4.5 35t3 56.5t1.5 87t0.5 127q0 109 -1 169.5t-3.5 92t-7.5 45t-13 28.5l-9 17q8 -1 19 -1q10 -1 25.5 -1h38.5h38.5t26.5 1q12 0 20 1l-9 -17
q-8 -14 -12.5 -28t-7.5 -46t-4 -93t-1 -169v-296h78q46 0 74.5 5.5t46.5 16t30 26t26 35.5zM475 434q0 -32 -18 -47t-48 -15q-29 0 -47.5 15t-18.5 44q0 32 18 47.5t49 15.5q29 0 47 -15t18 -45z" />
    <glyph glyph-name="ldot" unicode="&#x140;" horiz-adv-x="405" 
d="M227 -1q-7 0 -18 1q-10 0 -25.5 0.5t-37.5 0.5q-23 0 -38 -0.5t-25 -0.5q-11 -1 -19 -1l9 17q7 13 12 27t8 40t4 70t1 118v221q0 69 -1 111.5t-4 68.5t-8 41.5t-12 30.5l-9 17l132 26q-1 -32 -2 -67q-1 -30 -1 -67.5v-75.5v-306q0 -71 1 -114t4 -69.5t7.5 -41.5t12.5 -30
zM418 390q0 -32 -18 -47t-48 -15q-29 0 -47.5 15t-18.5 44q0 32 18 47.5t49 15.5q29 0 47 -15t18 -45z" />
    <glyph glyph-name="Lslash" unicode="&#x141;" horiz-adv-x="498" 
d="M472 147q-1 -11 -3 -28q-2 -14 -4 -36.5t-4 -52.5l-2 -30h-299q-20 0 -35 -0.5t-24 -0.5h-18l9 17q7 13 11.5 25t7.5 38t4.5 73t1.5 131q-21 -11 -33.5 -18.5t-20.5 -13.5q-9 -7 -12 -12q-1 4 -4 9q-2 5 -5 11.5t-8 16.5l-7.5 15t-5.5 12q-3 5 -5 9q8 -1 21 3
q11 3 28.5 9.5t43.5 19.5l8 4v13q0 109 -1 169.5t-3.5 92t-7.5 45t-13 28.5l-9 17q8 -1 19 -1q10 -1 25.5 -1h38.5h38.5t26.5 1q12 0 20 1l-9 -17q-5 -9 -8.5 -17.5t-6.5 -21t-5 -31t-3 -49t-1.5 -74.5t-0.5 -107l64 31q26 13 42.5 23t25.5 17q11 8 16 14q1 -5 4 -10
q2 -5 4.5 -11.5t7.5 -15.5t8.5 -15.5t5.5 -11.5q3 -5 5 -9q-8 0 -21 -4q-11 -3 -28.5 -9.5t-43.5 -18.5l-90 -44v-268h78q46 0 74.5 5.5t46.5 16t30 26t26 35.5z" />
    <glyph glyph-name="lslash" unicode="&#x142;" horiz-adv-x="369" 
d="M265 -1q-7 0 -18 1q-10 0 -25.5 0.5t-37.5 0.5q-23 0 -38 -0.5t-25 -0.5q-11 -1 -19 -1l9 17q7 13 12 27.5t8 41t4 70.5t1 118v79l-12 -6q-45 -26 -62 -40q-11 -8 -15 -14q-1 4 -4 9q-2 5 -5.5 10t-7.5 13q-5 7 -8 13l-5 10q-3 4 -5 8q7 1 19 5q11 4 27 11.5t40 21.5
l38 22v77q0 69 -1 111.5t-4 68.5t-8 41.5t-12 30.5l-9 17l132 26q-1 -32 -2 -67q-1 -30 -1 -67.5v-75.5v-115l18 10q23 13 38 23t24 17q10 8 15 14q1 -4 4 -9q2 -5 5 -10.5t8 -12.5q4 -8 7.5 -13.5t5.5 -9.5q3 -4 5 -8q-7 -2 -19 -6q-11 -4 -27.5 -11t-39.5 -21l-44 -25
v-129q0 -71 1 -114t4 -69.5t7.5 -41.5t12.5 -30z" />
    <glyph glyph-name="Nacute" unicode="&#x143;" horiz-adv-x="739" 
d="M405 902h106q-4 -12 -15 -26q-9 -12 -24.5 -28.5t-40.5 -36.5q-23 -19 -42.5 -30t-34.5 -17q-18 -7 -32 -11zM661 696q-5 -9 -8.5 -17t-6 -21.5t-4.5 -35t-3 -57t-1.5 -87.5t-0.5 -127l-1 -353q-7 0 -16 1q-8 1 -19.5 1.5t-25.5 0.5q-17 0 -29.5 -0.5t-20.5 -1.5
q-10 -1 -17 -1l-296 563q-11 22 -18 43t-8 26v-279q0 -109 1 -169.5t3.5 -92t7.5 -45t13 -28.5l9 -17q-8 0 -19 1q-9 0 -23 0.5t-32 0.5q-19 0 -32.5 -0.5t-21.5 -0.5q-11 -1 -17 -1l9 17q5 9 8.5 17t6.5 21.5t5 35t3.5 57t2 87.5t0.5 127q0 109 -1 169.5t-3.5 92t-7.5 45
t-13 28.5l-9 17q7 -1 18 -1q10 -1 26.5 -1h40.5h33t24 1q11 0 19 1l294 -559q16 -32 23 -51q4 -11 6 -20v278q0 109 -1 169.5t-3.5 92t-7.5 45t-13 28.5l-9 17q7 -1 18 -1q9 -1 22 -1h32h32.5t22.5 1q11 0 17 1z" />
    <glyph glyph-name="nacute" unicode="&#x144;" horiz-adv-x="637" 
d="M351 772h106q-4 -12 -15 -26q-9 -12 -24.5 -28.5t-40.5 -36.5q-23 -19 -42.5 -30t-34.5 -17q-18 -7 -32 -10zM574 -1q-8 0 -19 1q-10 0 -26 0.5t-38 0.5q-23 0 -38 -0.5t-25 -0.5q-11 -1 -18 -1l9 17q6 11 10.5 21.5t8 35t5 70t1.5 127.5t-4 125.5t-18 66.5
q-11 17 -32 31.5t-65 14.5q-42 0 -66 -10.5t-38 -22.5q-16 -15 -22 -33v-171q0 -82 1.5 -128t5 -70.5t8 -35t10.5 -21.5l9 -17q-7 0 -18 1q-10 0 -25.5 0.5t-37.5 0.5q-23 0 -38.5 -0.5t-25.5 -0.5q-11 -1 -19 -1l9 17q6 11 10.5 21.5t8 35t5 70.5t1.5 128v31q0 65 -1.5 105
t-5 64t-8 37t-10.5 24l-9 17l130 25l-4 -125q9 40 27 65.5t41 39.5t48.5 19t49.5 5q57 0 94.5 -19.5t57.5 -54.5q8 -16 13.5 -33.5t8.5 -41.5t4 -56t1 -76v-26q0 -82 1.5 -128t5 -70.5t8 -35t10.5 -21.5z" />
    <glyph glyph-name="Ncommaaccent" unicode="&#x145;" horiz-adv-x="739" 
d="M424 -110q0 -22 -8.5 -42t-24 -36.5t-37.5 -28t-50 -15.5q1 0 8 6t15.5 16.5t15 24.5t6.5 31q0 16 -5.5 25t-12.5 14q-8 5 -18 7v17q0 47 50 55q26 -5 43.5 -22t17.5 -52zM661 696q-5 -9 -8.5 -17t-6 -21.5t-4.5 -35t-3 -57t-1.5 -87.5t-0.5 -127l-1 -353q-7 0 -16 1
q-8 1 -19.5 1.5t-25.5 0.5q-17 0 -29.5 -0.5t-20.5 -1.5q-10 -1 -17 -1l-296 563q-11 22 -18 43t-8 26v-279q0 -109 1 -169.5t3.5 -92t7.5 -45t13 -28.5l9 -17q-8 0 -19 1q-9 0 -23 0.5t-32 0.5q-19 0 -32.5 -0.5t-21.5 -0.5q-11 -1 -17 -1l9 17q5 9 8.5 17t6.5 21.5t5 35
t3.5 57t2 87.5t0.5 127q0 109 -1 169.5t-3.5 92t-7.5 45t-13 28.5l-9 17q7 -1 18 -1q10 -1 26.5 -1h40.5h33t24 1q11 0 19 1l294 -559q16 -32 23 -51q4 -11 6 -20v278q0 109 -1 169.5t-3.5 92t-7.5 45t-13 28.5l-9 17q7 -1 18 -1q9 -1 22 -1h32h32.5t22.5 1q11 0 17 1z" />
    <glyph glyph-name="ncommaaccent" unicode="&#x146;" horiz-adv-x="637" 
d="M378 -110q0 -22 -8.5 -42t-24 -36.5t-37.5 -28t-50 -15.5q1 0 8 6t15.5 16.5t15 24.5t6.5 31q0 16 -5.5 25t-12.5 14q-8 5 -18 7v17q0 47 50 55q26 -5 43.5 -22t17.5 -52zM574 -1q-8 0 -19 1q-10 0 -26 0.5t-38 0.5q-23 0 -38 -0.5t-25 -0.5q-11 -1 -18 -1l9 17
q6 11 10.5 21.5t8 35t5 70t1.5 127.5t-4 125.5t-18 66.5q-11 17 -32 31.5t-65 14.5q-42 0 -66 -10.5t-38 -22.5q-16 -15 -22 -33v-171q0 -82 1.5 -128t5 -70.5t8 -35t10.5 -21.5l9 -17q-7 0 -18 1q-10 0 -25.5 0.5t-37.5 0.5q-23 0 -38.5 -0.5t-25.5 -0.5q-11 -1 -19 -1
l9 17q6 11 10.5 21.5t8 35t5 70.5t1.5 128v31q0 65 -1.5 105t-5 64t-8 37t-10.5 24l-9 17l130 25l-4 -125q9 40 27 65.5t41 39.5t48.5 19t49.5 5q57 0 94.5 -19.5t57.5 -54.5q8 -16 13.5 -33.5t8.5 -41.5t4 -56t1 -76v-26q0 -82 1.5 -128t5 -70.5t8 -35t10.5 -21.5z" />
    <glyph glyph-name="Ncaron" unicode="&#x147;" horiz-adv-x="739" 
d="M517 915q-41 -38 -74.5 -77.5t-65.5 -85.5h-14l-79 77q-8 8 -24.5 23t-27.5 23l65 50q7 -11 16 -23.5t17 -23.5l29 -39q12 15 29 29.5t37 25t43 16.5t49 5zM661 696q-5 -9 -8.5 -17t-6 -21.5t-4.5 -35t-3 -57t-1.5 -87.5t-0.5 -127l-1 -353q-7 0 -16 1q-8 1 -19.5 1.5
t-25.5 0.5q-17 0 -29.5 -0.5t-20.5 -1.5q-10 -1 -17 -1l-296 563q-11 22 -18 43t-8 26v-279q0 -109 1 -169.5t3.5 -92t7.5 -45t13 -28.5l9 -17q-8 0 -19 1q-9 0 -23 0.5t-32 0.5q-19 0 -32.5 -0.5t-21.5 -0.5q-11 -1 -17 -1l9 17q5 9 8.5 17t6.5 21.5t5 35t3.5 57t2 87.5
t0.5 127q0 109 -1 169.5t-3.5 92t-7.5 45t-13 28.5l-9 17q7 -1 18 -1q10 -1 26.5 -1h40.5h33t24 1q11 0 19 1l294 -559q16 -32 23 -51q4 -11 6 -20v278q0 109 -1 169.5t-3.5 92t-7.5 45t-13 28.5l-9 17q7 -1 18 -1q9 -1 22 -1h32h32.5t22.5 1q11 0 17 1z" />
    <glyph glyph-name="ncaron" unicode="&#x148;" horiz-adv-x="637" 
d="M445 772q-20 -20 -36.5 -37t-31.5 -34.5t-29.5 -36.5t-29.5 -41h-16l-67 63q-9 8 -25 23t-27 23l62 50q15 -26 34 -47l25 -29q24 30 56.5 50.5t84.5 15.5zM574 -1q-8 0 -19 1q-10 0 -26 0.5t-38 0.5q-23 0 -38 -0.5t-25 -0.5q-11 -1 -18 -1l9 17q6 11 10.5 21.5t8 35
t5 70t1.5 127.5t-4 125.5t-18 66.5q-11 17 -32 31.5t-65 14.5q-42 0 -66 -10.5t-38 -22.5q-16 -15 -22 -33v-171q0 -82 1.5 -128t5 -70.5t8 -35t10.5 -21.5l9 -17q-7 0 -18 1q-10 0 -25.5 0.5t-37.5 0.5q-23 0 -38.5 -0.5t-25.5 -0.5q-11 -1 -19 -1l9 17q6 11 10.5 21.5
t8 35t5 70.5t1.5 128v31q0 65 -1.5 105t-5 64t-8 37t-10.5 24l-9 17l130 25l-4 -125q9 40 27 65.5t41 39.5t48.5 19t49.5 5q57 0 94.5 -19.5t57.5 -54.5q8 -16 13.5 -33.5t8.5 -41.5t4 -56t1 -76v-26q0 -82 1.5 -128t5 -70.5t8 -35t10.5 -21.5z" />
    <glyph glyph-name="napostrophe" unicode="&#x149;" horiz-adv-x="738" 
d="M675 -1q-8 0 -19 1q-10 0 -26 0.5t-38 0.5q-23 0 -38 -0.5t-25 -0.5q-11 -1 -18 -1l9 17q6 11 10.5 21.5t8 35t5 70t1.5 127.5t-4 125.5t-18 66.5q-11 17 -32 31.5t-65 14.5q-42 0 -66 -10.5t-38 -22.5q-16 -15 -22 -33v-171q0 -82 1.5 -128t5 -70.5t8 -35t10.5 -21.5
l9 -17q-7 0 -18 1q-10 0 -25.5 0.5t-37.5 0.5q-23 0 -38.5 -0.5t-25.5 -0.5q-11 -1 -19 -1l9 17q6 11 10.5 21.5t8 35t5 70.5t1.5 128v31q0 65 -1.5 105t-5 64t-8 37t-10.5 24l-9 17l130 25l-4 -125q9 40 27 65.5t41 39.5t48.5 19t49.5 5q57 0 94.5 -19.5t57.5 -54.5
q8 -16 13.5 -33.5t8.5 -41.5t4 -56t1 -76v-26q0 -82 1.5 -128t5 -70.5t8 -35t10.5 -21.5zM148 623q0 -44 -14.5 -73.5t-36 -47.5t-47 -25.5t-46.5 -7.5q1 0 9 5.5t17.5 19t17 35.5t7.5 56q0 25 -7.5 43t-15.5 29q-10 13 -22 22l72 69q18 -10 33 -28q12 -15 22.5 -39
t10.5 -58z" />
    <glyph glyph-name="Eng" unicode="&#x14a;" horiz-adv-x="732" 
d="M209 351q0 -109 1 -169.5t3.5 -92t7.5 -45t13 -28.5l9 -17q-8 0 -19 1q-10 0 -26 0.5t-38 0.5q-23 0 -38 -0.5t-26 -0.5q-12 -1 -20 -1l9 17q5 9 9 17.5t6.5 22t4.5 35t3 56.5t1.5 87t0.5 127v81q0 65 -1.5 105t-5 64t-8 37t-10.5 24l-9 17l138 25l-5 -126q11 37 33 62.5
t50 40.5t60 21.5t65 6.5q69 0 111.5 -18t65.5 -50q23 -30 31.5 -72t8.5 -106v-511q0 -32 -4 -63.5t-20.5 -56t-49 -40t-90.5 -15.5h-20q29 14 44.5 34.5t23 49.5t9 68t1.5 91v422q0 46 -5 82t-21 60.5t-46 37t-81 12.5q-49 0 -80.5 -11t-50.5 -24.5t-26.5 -26t-8.5 -14.5
v-217z" />
    <glyph glyph-name="eng" unicode="&#x14b;" horiz-adv-x="634" 
d="M540 -38q0 -32 -3 -63.5t-18 -56t-46.5 -40t-88.5 -15.5h-20q29 14 45 34.5t24 49.5t9.5 68t1.5 91v242q0 40 -1 70.5t-3 53.5t-6.5 39t-11.5 27q-11 17 -32 31.5t-65 14.5q-42 0 -66 -10.5t-38 -22.5q-16 -15 -22 -33v-171q0 -82 1.5 -128t5 -70.5t8 -35t10.5 -21.5
l9 -17q-7 0 -18 1q-10 0 -25.5 0.5t-37.5 0.5q-23 0 -38.5 -0.5t-25.5 -0.5q-11 -1 -19 -1l9 17q6 11 10.5 21.5t8 35t5 70.5t1.5 128v31q0 65 -1.5 105t-5 64t-8 37t-10.5 24l-9 17l130 25l-4 -125q9 40 27 65.5t41 39.5t48.5 19t49.5 5q57 0 94.5 -19.5t57.5 -54.5
q8 -16 13.5 -33.5t8.5 -41.5t4 -56t1 -76v-335z" />
    <glyph glyph-name="Omacron" unicode="&#x14c;" horiz-adv-x="749" 
d="M241 787v69h283v-69h-283zM692 369q0 -22 -2.5 -58.5t-13 -79t-30.5 -85.5t-55.5 -78.5t-88.5 -57.5t-128 -22q-77 0 -136 25.5t-99 71.5t-61 110.5t-21 143.5q0 22 2.5 58.5t12.5 79t30.5 85.5t56 78.5t88.5 57.5t128 22q76 0 135.5 -25.5t99.5 -71.5t61 -110.5
t21 -143.5zM582 358q0 84 -17 140.5t-45.5 91t-66 49t-79.5 14.5q-40 0 -77.5 -15t-66 -50.5t-46 -93.5t-17.5 -144q0 -84 17 -140.5t45.5 -91t66 -49t79.5 -14.5q40 0 77.5 15t66.5 50.5t46 93.5t17 144z" />
    <glyph glyph-name="omacron" unicode="&#x14d;" horiz-adv-x="626" 
d="M171 657v69h283v-69h-283zM574 289q0 -27 -4 -59.5t-15 -66t-30.5 -65.5t-49 -56.5t-71 -39.5t-97.5 -15q-64 0 -112 22t-79.5 60.5t-47.5 91t-16 114.5q0 27 4 59.5t15 66.5t30.5 65.5t49 56.5t71 40t97.5 15q64 0 112 -22t79.5 -60.5t47.5 -91.5t16 -115zM468 283
q0 51 -8 93.5t-26.5 73t-48.5 47.5t-73 17q-81 0 -117.5 -59.5t-36.5 -173.5q0 -51 8 -93.5t26.5 -72.5t48 -47t73.5 -17q81 0 117.5 59.5t36.5 172.5z" />
    <glyph glyph-name="Obreve" unicode="&#x14e;" horiz-adv-x="749" 
d="M235 919q26 -37 61.5 -63t83.5 -26q49 0 84 26t61 63q0 -35 -9.5 -64.5t-27.5 -51t-45 -34t-63 -12.5t-63 12.5t-45 34t-27.5 51t-9.5 64.5zM692 369q0 -22 -2.5 -58.5t-13 -79t-30.5 -85.5t-55.5 -78.5t-88.5 -57.5t-128 -22q-77 0 -136 25.5t-99 71.5t-61 110.5
t-21 143.5q0 22 2.5 58.5t12.5 79t30.5 85.5t56 78.5t88.5 57.5t128 22q76 0 135.5 -25.5t99.5 -71.5t61 -110.5t21 -143.5zM582 358q0 84 -17 140.5t-45.5 91t-66 49t-79.5 14.5q-40 0 -77.5 -15t-66 -50.5t-46 -93.5t-17.5 -144q0 -84 17 -140.5t45.5 -91t66 -49
t79.5 -14.5q40 0 77.5 15t66.5 50.5t46 93.5t17 144z" />
    <glyph glyph-name="obreve" unicode="&#x14f;" horiz-adv-x="626" 
d="M574 289q0 -27 -4 -59.5t-15 -66t-30.5 -65.5t-49 -56.5t-71 -39.5t-97.5 -15q-64 0 -112 22t-79.5 60.5t-47.5 91t-16 114.5q0 27 4 59.5t15 66.5t30.5 65.5t49 56.5t71 40t97.5 15q64 0 112 -22t79.5 -60.5t47.5 -91.5t16 -115zM468 283q0 51 -8 93.5t-26.5 73
t-48.5 47.5t-73 17q-81 0 -117.5 -59.5t-36.5 -173.5q0 -51 8 -93.5t26.5 -72.5t48 -47t73.5 -17q81 0 117.5 59.5t36.5 172.5zM167 789q26 -37 61.5 -62.5t83.5 -25.5q49 0 84 25.5t61 62.5q0 -35 -9.5 -64t-27.5 -51t-45 -34t-63 -12t-63 12t-45 34t-27.5 51t-9.5 64z" />
    <glyph glyph-name="Ohungarumlaut" unicode="&#x150;" horiz-adv-x="749" 
d="M692 369q0 -22 -2.5 -58.5t-13 -79t-30.5 -85.5t-55.5 -78.5t-88.5 -57.5t-128 -22q-77 0 -136 25.5t-99 71.5t-61 110.5t-21 143.5q0 22 2.5 58.5t12.5 79t30.5 85.5t56 78.5t88.5 57.5t128 22q76 0 135.5 -25.5t99.5 -71.5t61 -110.5t21 -143.5zM582 358
q0 84 -17 140.5t-45.5 91t-66 49t-79.5 14.5q-40 0 -77.5 -15t-66 -50.5t-46 -93.5t-17.5 -144q0 -84 17 -140.5t45.5 -91t66 -49t79.5 -14.5q40 0 77.5 15t66.5 50.5t46 93.5t17 144zM328 902h106q-4 -12 -15 -26q-9 -12 -24.5 -28.5t-40.5 -36.5q-23 -19 -42.5 -30
t-34.5 -17q-18 -7 -32 -11zM504 902h107q-4 -12 -15 -26q-9 -12 -24.5 -28.5t-40.5 -36.5q-23 -19 -43 -30t-35 -17q-18 -7 -32 -11z" />
    <glyph glyph-name="ohungarumlaut" unicode="&#x151;" horiz-adv-x="626" 
d="M281 772h106q-4 -12 -15 -26q-9 -12 -24.5 -28.5t-40.5 -36.5q-23 -19 -42.5 -30t-34.5 -17q-18 -7 -32 -10zM457 772h107q-4 -12 -15 -26q-9 -12 -24.5 -28.5t-40.5 -36.5q-23 -19 -43 -30t-35 -17q-18 -7 -32 -10zM574 289q0 -27 -4 -59.5t-15 -66t-30.5 -65.5
t-49 -56.5t-71 -39.5t-97.5 -15q-64 0 -112 22t-79.5 60.5t-47.5 91t-16 114.5q0 27 4 59.5t15 66.5t30.5 65.5t49 56.5t71 40t97.5 15q64 0 112 -22t79.5 -60.5t47.5 -91.5t16 -115zM468 283q0 51 -8 93.5t-26.5 73t-48.5 47.5t-73 17q-81 0 -117.5 -59.5t-36.5 -173.5
q0 -51 8 -93.5t26.5 -72.5t48 -47t73.5 -17q81 0 117.5 59.5t36.5 172.5z" />
    <glyph glyph-name="OE" unicode="&#x152;" horiz-adv-x="967" 
d="M910 147q-1 -11 -3 -28q-2 -14 -4 -36.5t-4 -52.5l-2 -30h-389q-15 -3 -33 -5q-16 -2 -38 -3.5t-48 -1.5q-96 0 -159.5 29.5t-102 78.5t-54.5 112t-16 129q0 41 5.5 85t19.5 86.5t38 81t62 67.5t91 46t125 17q22 0 42.5 -1.5t35.5 -3.5q18 -3 33 -5h378q-1 -6 -1 -13v-39
q0 -30 1.5 -44.5t1.5 -16.5q-1 1 -8 7.5t-28 19.5q-38 22 -110 22h-133v-259h109q35 0 63.5 4t46.5 15q20 11 27 17.5t9 8.5q0 -1 -1.5 -21.5t-1.5 -56.5q0 -35 1.5 -55t1.5 -22q-1 1 -8 7.5t-28 19.5q-18 11 -46.5 15t-63.5 4h-109v-261h123q46 0 74.5 5.5t46.5 16t30 26
t26 35.5zM512 642q-13 3 -31 7q-15 2 -36.5 4.5t-48.5 2.5q-42 0 -79.5 -10.5t-62.5 -32.5q-38 -32 -62 -95t-24 -166q0 -93 17.5 -148.5t49.5 -89.5q29 -32 69.5 -45t91.5 -13q28 0 49.5 2t36.5 4q18 3 30 7v573z" />
    <glyph glyph-name="oe" unicode="&#x153;" horiz-adv-x="983" 
d="M563 283q0 -38 6 -77.5t25 -72t53.5 -53.5t90.5 -21q52 0 85.5 10.5t53.5 24.5q23 16 36 36q0 -27 -12 -52.5t-36.5 -45t-62.5 -31.5t-90 -12q-60 0 -98 15.5t-61 35.5q-26 22 -41 51q-17 -29 -45 -52q-24 -20 -63.5 -36t-97.5 -16q-64 0 -111.5 22t-79 60.5t-47.5 91
t-16 114.5q0 27 4 59.5t15 66.5t30 65.5t48.5 56.5t71 40t97.5 15t94 -16t62 -35q28 -23 45 -51q17 28 43 51q23 19 58.5 35t88.5 16q76 0 121.5 -29t68.5 -71.5t30 -92.5t7 -92v-10h-373zM831 352q0 20 -3.5 48.5t-16 54.5t-38 44.5t-69.5 18.5q-22 0 -46 -6t-45 -25.5
t-35 -56t-15 -98.5zM467 283q0 51 -8 93t-26 73t-47.5 48t-73.5 17q-81 0 -117.5 -59.5t-36.5 -172.5q0 -51 8 -93t26.5 -73t48 -48t73.5 -17q81 0 117 59t36 173z" />
    <glyph glyph-name="Racute" unicode="&#x154;" horiz-adv-x="610" 
d="M626 4q-5 -2 -13 -4t-19.5 -3t-29.5 -1q-26 0 -44.5 6t-34 18.5t-30 32.5t-32.5 47l-72 111q-23 36 -38.5 58.5t-28 35.5t-26.5 17.5t-34 4.5q-4 0 -7 -0.5t-5 -0.5h-5q0 -95 1 -150t3.5 -85.5t7.5 -45t13 -29.5l9 -17q-8 0 -19 1q-10 0 -25.5 0.5t-37.5 0.5t-37.5 -0.5
t-25.5 -0.5q-12 -1 -20 -1l9 17q5 9 8.5 17.5t6.5 22t5 34.5t3 56.5t1.5 87.5t0.5 127q0 109 -1 169.5t-3.5 92t-7.5 45t-13 28.5l-9 17q9 -1 20 -1q9 -1 21.5 -1h28.5q22 0 55 1t60 1q43 0 90.5 -4t86.5 -22t64.5 -54t25.5 -100q0 -30 -9.5 -64t-34.5 -62t-67.5 -46
t-108.5 -17q32 -4 55 -15t41.5 -28.5t35 -42.5t36.5 -57l48 -79q26 -44 48.5 -74t53.5 -44zM420 522q0 44 -12.5 70t-34.5 39.5t-52 17.5t-64 4q-11 0 -19.5 -0.5t-15.5 -0.5q-8 -1 -15 -1v-264q6 -1 15 -1q8 -1 18.5 -1h24.5q9 0 28 1t32 3q39 6 67 38.5t28 94.5zM317 902
h106q-4 -12 -15 -26q-9 -12 -24.5 -28.5t-40.5 -36.5q-23 -19 -42.5 -30t-34.5 -17q-18 -7 -32 -11z" />
    <glyph glyph-name="racute" unicode="&#x155;" horiz-adv-x="409" 
d="M262 772h106q-4 -12 -15 -26q-9 -12 -24.5 -28.5t-40.5 -36.5q-23 -19 -42.5 -30t-34.5 -17q-18 -7 -32 -10zM402 430q-20 32 -43 49.5t-60 17.5q-33 0 -52.5 -10t-30.5 -22q-12 -14 -17 -31v-163q0 -82 1.5 -128t5 -70.5t8 -35t10.5 -21.5l10 -17q-8 0 -19 1
q-10 0 -25.5 0.5t-37.5 0.5q-23 0 -38.5 -0.5t-25.5 -0.5q-11 -1 -19 -1l9 17q6 11 10.5 21.5t8 35t5 70.5t1.5 128v31q0 65 -1.5 105t-5 64t-8 37t-10.5 24l-9 17l129 25l-4 -133q10 46 29 73.5t40 41.5t40 18t30 4q20 0 33 -3t21 -6q10 -4 15 -9q-1 -7 -1 -17
q-1 -8 -1 -20v-26v-31.5t1 -20.5q0 -10 1 -15z" />
    <glyph glyph-name="Rcommaaccent" unicode="&#x156;" horiz-adv-x="610" 
d="M385 -110q0 -22 -8.5 -42t-24 -36.5t-37.5 -28t-50 -15.5q1 0 8 6t15.5 16.5t15 24.5t6.5 31q0 16 -5.5 25t-12.5 14q-8 5 -18 7v17q0 47 50 55q26 -5 43.5 -22t17.5 -52zM626 4q-5 -2 -13 -4t-19.5 -3t-29.5 -1q-26 0 -44.5 6t-34 18.5t-30 32.5t-32.5 47l-72 111
q-23 36 -38.5 58.5t-28 35.5t-26.5 17.5t-34 4.5q-4 0 -7 -0.5t-5 -0.5h-5q0 -95 1 -150t3.5 -85.5t7.5 -45t13 -29.5l9 -17q-8 0 -19 1q-10 0 -25.5 0.5t-37.5 0.5t-37.5 -0.5t-25.5 -0.5q-12 -1 -20 -1l9 17q5 9 8.5 17.5t6.5 22t5 34.5t3 56.5t1.5 87.5t0.5 127
q0 109 -1 169.5t-3.5 92t-7.5 45t-13 28.5l-9 17q9 -1 20 -1q9 -1 21.5 -1h28.5q22 0 55 1t60 1q43 0 90.5 -4t86.5 -22t64.5 -54t25.5 -100q0 -30 -9.5 -64t-34.5 -62t-67.5 -46t-108.5 -17q32 -4 55 -15t41.5 -28.5t35 -42.5t36.5 -57l48 -79q26 -44 48.5 -74t53.5 -44z
M420 522q0 44 -12.5 70t-34.5 39.5t-52 17.5t-64 4q-11 0 -19.5 -0.5t-15.5 -0.5q-8 -1 -15 -1v-264q6 -1 15 -1q8 -1 18.5 -1h24.5q9 0 28 1t32 3q39 6 67 38.5t28 94.5z" />
    <glyph glyph-name="rcommaaccent" unicode="&#x157;" horiz-adv-x="409" 
d="M210 -110q0 -22 -8.5 -42t-24 -36.5t-37.5 -28t-50 -15.5q1 0 8 6t15.5 16.5t15 24.5t6.5 31q0 16 -5.5 25t-12.5 14q-8 5 -18 7v17q0 47 50 55q26 -5 43.5 -22t17.5 -52zM402 430q-20 32 -43 49.5t-60 17.5q-33 0 -52.5 -10t-30.5 -22q-12 -14 -17 -31v-163
q0 -82 1.5 -128t5 -70.5t8 -35t10.5 -21.5l10 -17q-8 0 -19 1q-10 0 -25.5 0.5t-37.5 0.5q-23 0 -38.5 -0.5t-25.5 -0.5q-11 -1 -19 -1l9 17q6 11 10.5 21.5t8 35t5 70.5t1.5 128v31q0 65 -1.5 105t-5 64t-8 37t-10.5 24l-9 17l129 25l-4 -133q10 46 29 73.5t40 41.5t40 18
t30 4q20 0 33 -3t21 -6q10 -4 15 -9q-1 -7 -1 -17q-1 -8 -1 -20v-26v-31.5t1 -20.5q0 -10 1 -15z" />
    <glyph glyph-name="Rcaron" unicode="&#x158;" horiz-adv-x="610" 
d="M439 915q-41 -38 -74.5 -77.5t-65.5 -85.5h-14l-79 77q-8 8 -24.5 23t-27.5 23l65 50q7 -11 16 -23.5t17 -23.5l29 -39q12 15 29 29.5t37 25t43 16.5t49 5zM626 4q-5 -2 -13 -4t-19.5 -3t-29.5 -1q-26 0 -44.5 6t-34 18.5t-30 32.5t-32.5 47l-72 111q-23 36 -38.5 58.5
t-28 35.5t-26.5 17.5t-34 4.5q-4 0 -7 -0.5t-5 -0.5h-5q0 -95 1 -150t3.5 -85.5t7.5 -45t13 -29.5l9 -17q-8 0 -19 1q-10 0 -25.5 0.5t-37.5 0.5t-37.5 -0.5t-25.5 -0.5q-12 -1 -20 -1l9 17q5 9 8.5 17.5t6.5 22t5 34.5t3 56.5t1.5 87.5t0.5 127q0 109 -1 169.5t-3.5 92
t-7.5 45t-13 28.5l-9 17q9 -1 20 -1q9 -1 21.5 -1h28.5q22 0 55 1t60 1q43 0 90.5 -4t86.5 -22t64.5 -54t25.5 -100q0 -30 -9.5 -64t-34.5 -62t-67.5 -46t-108.5 -17q32 -4 55 -15t41.5 -28.5t35 -42.5t36.5 -57l48 -79q26 -44 48.5 -74t53.5 -44zM420 522q0 44 -12.5 70
t-34.5 39.5t-52 17.5t-64 4q-11 0 -19.5 -0.5t-15.5 -0.5q-8 -1 -15 -1v-264q6 -1 15 -1q8 -1 18.5 -1h24.5q9 0 28 1t32 3q39 6 67 38.5t28 94.5z" />
    <glyph glyph-name="rcaron" unicode="&#x159;" horiz-adv-x="409" 
d="M374 772q-20 -20 -36.5 -37t-31.5 -34.5t-29.5 -36.5t-29.5 -41h-16l-67 63q-9 8 -25 23t-27 23l62 50q15 -26 34 -47l25 -29q24 30 56.5 50.5t84.5 15.5zM402 430q-20 32 -43 49.5t-60 17.5q-33 0 -52.5 -10t-30.5 -22q-12 -14 -17 -31v-163q0 -82 1.5 -128t5 -70.5
t8 -35t10.5 -21.5l10 -17q-8 0 -19 1q-10 0 -25.5 0.5t-37.5 0.5q-23 0 -38.5 -0.5t-25.5 -0.5q-11 -1 -19 -1l9 17q6 11 10.5 21.5t8 35t5 70.5t1.5 128v31q0 65 -1.5 105t-5 64t-8 37t-10.5 24l-9 17l129 25l-4 -133q10 46 29 73.5t40 41.5t40 18t30 4q20 0 33 -3t21 -6
q10 -4 15 -9q-1 -7 -1 -17q-1 -8 -1 -20v-26v-31.5t1 -20.5q0 -10 1 -15z" />
    <glyph glyph-name="Sacute" unicode="&#x15a;" horiz-adv-x="523" 
d="M472 180q0 -52 -17.5 -87.5t-49.5 -57.5t-76.5 -32t-97.5 -10q-45 0 -77 4.5t-54 10.5q-26 7 -43 16q0 6 1 16q0 8 0.5 19.5t0.5 25.5q0 16 -0.5 29.5t-0.5 24.5q-1 12 -1 22q16 -23 32.5 -41.5t36.5 -32t45.5 -21t58.5 -7.5q22 0 47.5 3t47.5 14t36 32t14 57
q0 23 -6 40.5t-16.5 31.5t-24.5 25t-30 22l-90 58q-26 16 -52 34t-47 41.5t-34.5 53.5t-13.5 72q0 35 12 67t39 56t70 38.5t104 14.5q38 0 68 -5t50 -10q24 -6 42 -14q-1 -7 -1 -17q-1 -8 -1 -20v-27v-29t1 -22q0 -11 1 -20q-16 23 -32 41t-35 31t-42 19.5t-53 6.5
q-15 0 -36.5 -2t-41.5 -12t-34.5 -29.5t-14.5 -54.5q0 -23 7 -39.5t20 -30t30.5 -26t38.5 -26.5l71 -46q29 -19 56 -37t47.5 -41.5t32.5 -54t12 -74.5zM294 902h106q-4 -12 -15 -26q-9 -12 -24.5 -28.5t-40.5 -36.5q-23 -19 -42.5 -30t-34.5 -17q-18 -7 -32 -11z" />
    <glyph glyph-name="sacute" unicode="&#x15b;" horiz-adv-x="469" 
d="M270 772h106q-4 -12 -15 -26q-9 -12 -24.5 -28.5t-40.5 -36.5q-23 -19 -42.5 -30t-34.5 -17q-18 -7 -32 -10zM410 158q0 -27 -8.5 -56t-31 -53t-60.5 -39t-97 -15q-35 0 -63 4.5t-47 10.5q-23 6 -39 15q0 5 1 14q0 8 0.5 19t0.5 26q0 14 -0.5 26.5t-0.5 21.5q-1 11 -1 19
q14 -21 28.5 -39t31.5 -30.5t38.5 -19.5t49.5 -7q32 0 52.5 7.5t32 19.5t16 27t4.5 30q0 32 -15.5 50.5t-44.5 35.5l-89 53q-15 8 -32.5 19t-32.5 28t-25 41.5t-10 59.5q0 40 13.5 68.5t37.5 47t57.5 27t74.5 8.5q35 0 61.5 -5t44.5 -11q21 -7 36 -15q-1 -6 -1 -15
q-1 -8 -1 -18.5v-25.5v-26.5t1 -20.5q0 -11 1 -18q-14 21 -28 38.5t-30.5 30t-36.5 20t-45 7.5q-12 0 -28.5 -1.5t-31.5 -9t-25.5 -22t-10.5 -40.5q0 -34 20.5 -53t58.5 -41l69 -39q23 -14 42.5 -28.5t33.5 -33t21.5 -41t7.5 -51.5z" />
    <glyph glyph-name="Scircumflex" unicode="&#x15c;" horiz-adv-x="523" 
d="M472 180q0 -52 -17.5 -87.5t-49.5 -57.5t-76.5 -32t-97.5 -10q-45 0 -77 4.5t-54 10.5q-26 7 -43 16q0 6 1 16q0 8 0.5 19.5t0.5 25.5q0 16 -0.5 29.5t-0.5 24.5q-1 12 -1 22q16 -23 32.5 -41.5t36.5 -32t45.5 -21t58.5 -7.5q22 0 47.5 3t47.5 14t36 32t14 57
q0 23 -6 40.5t-16.5 31.5t-24.5 25t-30 22l-90 58q-26 16 -52 34t-47 41.5t-34.5 53.5t-13.5 72q0 35 12 67t39 56t70 38.5t104 14.5q38 0 68 -5t50 -10q24 -6 42 -14q-1 -7 -1 -17q-1 -8 -1 -20v-27v-29t1 -22q0 -11 1 -20q-16 23 -32 41t-35 31t-42 19.5t-53 6.5
q-15 0 -36.5 -2t-41.5 -12t-34.5 -29.5t-14.5 -54.5q0 -23 7 -39.5t20 -30t30.5 -26t38.5 -26.5l71 -46q29 -19 56 -37t47.5 -41.5t32.5 -54t12 -74.5zM435 752q-47 3 -93 23t-72 52q-35 -38 -79 -55.5t-86 -19.5l136 150h59z" />
    <glyph glyph-name="scircumflex" unicode="&#x15d;" horiz-adv-x="469" 
d="M409 623q-47 2 -93 22t-72 52q-35 -38 -79 -55t-86 -19l136 149h59zM410 158q0 -27 -8.5 -56t-31 -53t-60.5 -39t-97 -15q-35 0 -63 4.5t-47 10.5q-23 6 -39 15q0 5 1 14q0 8 0.5 19t0.5 26q0 14 -0.5 26.5t-0.5 21.5q-1 11 -1 19q14 -21 28.5 -39t31.5 -30.5t38.5 -19.5
t49.5 -7q32 0 52.5 7.5t32 19.5t16 27t4.5 30q0 32 -15.5 50.5t-44.5 35.5l-89 53q-15 8 -32.5 19t-32.5 28t-25 41.5t-10 59.5q0 40 13.5 68.5t37.5 47t57.5 27t74.5 8.5q35 0 61.5 -5t44.5 -11q21 -7 36 -15q-1 -6 -1 -15q-1 -8 -1 -18.5v-25.5v-26.5t1 -20.5q0 -11 1 -18
q-14 21 -28 38.5t-30.5 30t-36.5 20t-45 7.5q-12 0 -28.5 -1.5t-31.5 -9t-25.5 -22t-10.5 -40.5q0 -34 20.5 -53t58.5 -41l69 -39q23 -14 42.5 -28.5t33.5 -33t21.5 -41t7.5 -51.5z" />
    <glyph glyph-name="Scedilla" unicode="&#x15e;" horiz-adv-x="523" 
d="M472 180q0 -48 -15 -82t-42.5 -56t-66 -33.5t-85.5 -14.5l-4 -10t-2 -9q0 -9 6.5 -15t17.5 -13l12 -9q5 -3 12.5 -8.5t14 -13t11 -18.5t4.5 -25q0 -27 -15 -44.5t-37.5 -27t-47.5 -12.5t-45 -1q4 1 15 7.5t22.5 16.5t20 23t8.5 28t-5.5 25t-16.5 25l-6 8q-6 8 -10.5 16.5
t-4.5 20.5q0 18 12 35q-43 0 -74 5t-52 11q-25 7 -42 15q0 6 1 16q0 8 0.5 19.5t0.5 25.5q0 16 -0.5 29.5t-0.5 24.5q-1 12 -1 22q16 -23 32.5 -41.5t36.5 -32t45.5 -21t58.5 -7.5q22 0 47.5 3t47.5 14t36 32t14 57q0 23 -6 40.5t-16.5 31.5t-24.5 25t-30 22l-90 58
q-26 16 -52 34t-47 41.5t-34.5 53.5t-13.5 72q0 35 12 67t39 56t70 38.5t104 14.5q38 0 68 -5t50 -10q24 -6 42 -14q-1 -7 -1 -17q-1 -8 -1 -20v-27v-29t1 -22q0 -11 1 -20q-16 23 -32 41t-35 31t-42 19.5t-53 6.5q-15 0 -36.5 -2t-41.5 -12t-34.5 -29.5t-14.5 -54.5
q0 -23 7 -39.5t20 -30t30.5 -26t38.5 -26.5l71 -46q29 -19 56 -37t47.5 -41.5t32.5 -54t12 -74.5z" />
    <glyph glyph-name="scedilla" unicode="&#x15f;" horiz-adv-x="469" 
d="M410 158q0 -25 -7.5 -51.5t-25.5 -49t-49 -39t-78 -21.5q-8 -11 -8 -22q0 -9 6.5 -15t17.5 -13l12 -9q5 -3 12.5 -8.5t14 -13t11 -18.5t4.5 -25q0 -27 -15 -44.5t-37.5 -27t-47.5 -12.5t-45 -1q4 1 15 7.5t22.5 16.5t20 23t8.5 28t-5.5 25t-16.5 25l-6 8q-6 8 -10.5 16.5
t-4.5 20.5q0 10 4 19.5t9 17.5q-35 0 -62 5t-46 10q-22 6 -39 15q0 5 1 14q0 8 0.5 19t0.5 26q0 14 -0.5 26.5t-0.5 21.5q-1 11 -1 19q14 -21 28.5 -39t31.5 -30.5t38.5 -19.5t49.5 -7q32 0 52.5 7.5t32 19.5t16 27t4.5 30q0 32 -15.5 50.5t-44.5 35.5l-89 53
q-15 8 -32.5 19t-32.5 28t-25 41.5t-10 59.5q0 40 13.5 68.5t37.5 47t57.5 27t74.5 8.5q35 0 61.5 -5t44.5 -11q21 -7 36 -15q-1 -6 -1 -15q-1 -8 -1 -18.5v-25.5v-26.5t1 -20.5q0 -11 1 -18q-14 21 -28 38.5t-30.5 30t-36.5 20t-45 7.5q-12 0 -28.5 -1.5t-31.5 -9
t-25.5 -22t-10.5 -40.5q0 -34 20.5 -53t58.5 -41l69 -39q23 -14 42.5 -28.5t33.5 -33t21.5 -41t7.5 -51.5z" />
    <glyph glyph-name="Scaron" unicode="&#x160;" horiz-adv-x="523" 
d="M472 180q0 -52 -17.5 -87.5t-49.5 -57.5t-76.5 -32t-97.5 -10q-45 0 -77 4.5t-54 10.5q-26 7 -43 16q0 6 1 16q0 8 0.5 19.5t0.5 25.5q0 16 -0.5 29.5t-0.5 24.5q-1 12 -1 22q16 -23 32.5 -41.5t36.5 -32t45.5 -21t58.5 -7.5q22 0 47.5 3t47.5 14t36 32t14 57
q0 23 -6 40.5t-16.5 31.5t-24.5 25t-30 22l-90 58q-26 16 -52 34t-47 41.5t-34.5 53.5t-13.5 72q0 35 12 67t39 56t70 38.5t104 14.5q38 0 68 -5t50 -10q24 -6 42 -14q-1 -7 -1 -17q-1 -8 -1 -20v-27v-29t1 -22q0 -11 1 -20q-16 23 -32 41t-35 31t-42 19.5t-53 6.5
q-15 0 -36.5 -2t-41.5 -12t-34.5 -29.5t-14.5 -54.5q0 -23 7 -39.5t20 -30t30.5 -26t38.5 -26.5l71 -46q29 -19 56 -37t47.5 -41.5t32.5 -54t12 -74.5zM410 915q-41 -38 -74.5 -77.5t-65.5 -85.5h-14l-79 77q-8 8 -24.5 23t-27.5 23l65 50q7 -11 16 -23.5t17 -23.5l29 -39
q12 15 29 29.5t37 25t43 16.5t49 5z" />
    <glyph glyph-name="scaron" unicode="&#x161;" horiz-adv-x="469" 
d="M373 772q-20 -20 -36.5 -37t-31.5 -34.5t-29.5 -36.5t-29.5 -41h-16l-67 63q-9 8 -25 23t-27 23l62 50q15 -26 34 -47l25 -29q24 30 56.5 50.5t84.5 15.5zM410 158q0 -27 -8.5 -56t-31 -53t-60.5 -39t-97 -15q-35 0 -63 4.5t-47 10.5q-23 6 -39 15q0 5 1 14q0 8 0.5 19
t0.5 26q0 14 -0.5 26.5t-0.5 21.5q-1 11 -1 19q14 -21 28.5 -39t31.5 -30.5t38.5 -19.5t49.5 -7q32 0 52.5 7.5t32 19.5t16 27t4.5 30q0 32 -15.5 50.5t-44.5 35.5l-89 53q-15 8 -32.5 19t-32.5 28t-25 41.5t-10 59.5q0 40 13.5 68.5t37.5 47t57.5 27t74.5 8.5q35 0 61.5 -5
t44.5 -11q21 -7 36 -15q-1 -6 -1 -15q-1 -8 -1 -18.5v-25.5v-26.5t1 -20.5q0 -11 1 -18q-14 21 -28 38.5t-30.5 30t-36.5 20t-45 7.5q-12 0 -28.5 -1.5t-31.5 -9t-25.5 -22t-10.5 -40.5q0 -34 20.5 -53t58.5 -41l69 -39q23 -14 42.5 -28.5t33.5 -33t21.5 -41t7.5 -51.5z" />
    <glyph glyph-name="Tcommaaccent" unicode="&#x162;" horiz-adv-x="541" 
d="M528 660q0 -30 1.5 -44.5t1.5 -16.5q-1 1 -8 7.5t-28 19.5q-18 11 -46.5 17.5t-63.5 6.5h-65v-299q0 -109 1 -169.5t3.5 -92t7.5 -45t13 -28.5l9 -17q-7 1 -17 1h-22t-31 1q-4 -6 -7 -13.5t-3 -12.5q0 -9 6.5 -15t17.5 -13l12 -9q5 -3 12.5 -8.5t14 -13t11 -18.5t4.5 -25
q0 -27 -15 -44.5t-37.5 -27t-47.5 -12.5t-45 -1q4 1 15 7.5t22.5 16.5t20 23t8.5 28t-5.5 25t-16.5 25l-6 8q-6 8 -10.5 16.5t-4.5 20.5t5.5 23.5t11.5 19.5q-16 -1 -26.5 -1h-18.5q-9 0 -15 -1l9 17q5 9 9 17.5t6.5 22t4.5 35t3 56.5t1.5 87t0.5 127v289h-65
q-35 0 -63.5 -6.5t-46.5 -17.5q-19 -11 -27 -18t-9 -9q0 2 1.5 17t1.5 44q0 14 -0.5 23t-0.5 16v13h517q-1 -6 -1 -13v-39z" />
    <glyph glyph-name="tcommaaccent" unicode="&#x163;" horiz-adv-x="374" 
d="M362 80q0 -3 -2.5 -16.5t-14 -28.5t-34.5 -28t-64 -16q-5 -10 -5 -16q0 -9 6.5 -15t17.5 -13l12 -9q5 -3 12.5 -8.5t14 -13t11 -18.5t4.5 -25q0 -27 -15 -44.5t-37.5 -27t-47.5 -12.5t-45 -1q4 1 15 7.5t22.5 16.5t20 23t8.5 28t-5.5 25t-16.5 25l-6 8q-6 8 -10.5 16.5
t-4.5 20.5q0 18 10 33q-35 4 -56 17.5t-33 32.5t-17.5 47t-5.5 83v158t1 102q1 45 2 72h-64q2 1 22.5 22t46.5 62q14 21 23.5 39t16.5 32q8 16 13 30h38v-125h66q31 0 50 1.5t30 3.5q12 3 18 6q-1 -4 -1 -10v-31v-30q0 -6 1 -10q-6 2 -18 5q-11 2 -30 3.5t-50 1.5h-66v-337
q0 -34 3 -50t10 -30q8 -17 24.5 -26.5t45.5 -9.5q21 0 36.5 4.5t26.5 10.5q12 6 21 15z" />
    <glyph glyph-name="Tcaron" unicode="&#x164;" horiz-adv-x="541" 
d="M413 915q-41 -38 -74.5 -77.5t-65.5 -85.5h-14l-79 77q-8 8 -24.5 23t-27.5 23l65 50q7 -11 16 -23.5t17 -23.5l29 -39q12 15 29 29.5t37 25t43 16.5t49 5zM528 660q0 -30 1.5 -44.5t1.5 -16.5q-1 1 -8 7.5t-28 19.5q-18 11 -46.5 17.5t-63.5 6.5h-65v-299
q0 -109 1 -169.5t3.5 -92t7.5 -45t13 -28.5l9 -17q-8 0 -19 1q-10 0 -26 0.5t-38 0.5q-23 0 -38 -0.5t-26 -0.5q-12 -1 -20 -1l9 17q5 9 9 17.5t6.5 22t4.5 35t3 56.5t1.5 87t0.5 127v289h-65q-35 0 -63.5 -6.5t-46.5 -17.5q-20 -12 -27.5 -18.5t-8.5 -8.5q0 1 1.5 16
t1.5 45q0 14 -0.5 23t-0.5 16v13h517q-1 -6 -1 -13v-39z" />
    <glyph glyph-name="tcaron" unicode="&#x165;" horiz-adv-x="374" 
d="M241 598q7 27 10 55.5t3 55t-2 49.5t-5 40l92 11q6 -63 -16 -118.5t-82 -92.5zM362 80q0 -3 -3 -17.5t-16 -30.5t-39.5 -29t-74.5 -13q-45 0 -70.5 15t-39.5 36q-12 19 -17.5 47t-5.5 83v158t1 102q1 45 2 72h-64q2 1 22.5 22t46.5 62q14 21 23.5 39t16.5 32q8 16 13 30
h38v-125h66q31 0 50 1.5t30 3.5q12 3 18 6q-1 -4 -1 -10v-31v-30q0 -6 1 -10q-6 2 -18 5q-11 2 -30 3.5t-50 1.5h-66v-337q0 -34 3 -50t10 -30q8 -17 24.5 -26.5t45.5 -9.5q21 0 36.5 4.5t26.5 10.5q12 6 21 15z" />
    <glyph glyph-name="Tbar" unicode="&#x166;" horiz-adv-x="541" 
d="M528 660q0 -30 1.5 -44.5t1.5 -16.5q-1 1 -8 7.5t-28 19.5q-18 11 -46.5 17.5t-63.5 6.5h-65v-259h28q29 0 47.5 2t29.5 4q13 3 21 6q-1 -5 -1 -11v-30v-31q0 -6 1 -10q-8 3 -21 6q-11 2 -29.5 4t-47.5 2h-28q0 -68 0.5 -115t1.5 -79t2.5 -51.5t4.5 -32t7 -21t9 -18.5
l9 -17q-8 0 -19 1q-10 0 -26 0.5t-38 0.5q-23 0 -38 -0.5t-26 -0.5q-12 -1 -20 -1l9 17q5 9 8.5 17t6 21t4.5 32.5t3 52t2 79.5t1 115h-31q-29 0 -48 -2t-30 -4q-13 -3 -20 -6v10q0 5 0.5 12.5t0.5 18.5q0 10 -0.5 17.5t-0.5 12.5v11q7 -3 20 -6q11 -2 30 -4t48 -2h31v259
h-65q-35 0 -63.5 -6.5t-46.5 -17.5q-19 -11 -27 -18t-9 -9q0 2 1.5 17t1.5 44q0 14 -0.5 23t-0.5 16v13h517q-1 -6 -1 -13v-39z" />
    <glyph glyph-name="tbar" unicode="&#x167;" horiz-adv-x="374" 
d="M362 80q0 -3 -3 -17.5t-16 -30.5t-39.5 -29t-74.5 -13q-45 0 -70.5 15t-39.5 36q-12 19 -17.5 47t-5.5 83v112q-32 -3 -46 -6l-12 -3v9q0 5 0.5 11.5t0.5 15.5q0 8 -0.5 15t-0.5 12v10q5 -2 13 -4q7 -2 17.5 -3t27.5 -2q0 45 0.5 76t1.5 51q1 23 1 38h-64q2 1 22.5 22
t46.5 62q14 21 23.5 39t16.5 32q8 16 13 30h38v-125h66q31 0 50 1.5t30 3.5q12 3 18 6q-1 -4 -1 -10v-31v-30q0 -6 1 -10q-6 2 -18 5q-11 2 -30 3.5t-50 1.5h-66v-166h40q27 0 45 1.5t29 3.5q12 2 20 5q-1 -5 -1 -10v-27v-27q0 -5 1 -9l-20 5q-11 2 -29 3.5t-45 1.5h-40
v-118q0 -34 3 -50t10 -30q8 -17 24.5 -26.5t45.5 -9.5q21 0 36.5 4.5t26.5 10.5q12 6 21 15z" />
    <glyph glyph-name="Utilde" unicode="&#x168;" horiz-adv-x="726" 
d="M465 838q15 0 28 7t22.5 15t15 15.5t6.5 9.5q0 -55 -23.5 -84t-62.5 -29q-15 0 -28 3.5t-23 6.5l-59 21q-13 5 -20.5 6.5t-20.5 1.5q-15 0 -28 -7t-22.5 -15.5t-15 -16t-6.5 -9.5q0 56 24 85t62 29q15 0 28 -3t23 -7l59 -21q13 -5 20.5 -6.5t20.5 -1.5zM653 696
q-7 -13 -12 -26t-8 -41.5t-4 -81t-1 -145.5v-63q0 -48 -1 -84t-4 -64.5t-9.5 -50.5t-18.5 -41q-28 -49 -81 -79t-149 -30q-75 0 -131.5 20t-91.5 68q-13 18 -21.5 36.5t-13.5 43.5t-7 58.5t-2 80.5v78q0 100 -1 157.5t-3.5 88.5t-7.5 45.5t-13 29.5l-9 17q8 -1 20 -1
q11 -1 26.5 -1h37.5h38t27 1q12 0 20 1l-9 -17q-7 -13 -12 -26t-8 -41.5t-4 -81t-1 -145.5v-139q0 -23 2 -49.5t6 -43.5q29 -113 163 -113q136 0 164 115q4 17 6 39.5t2 44.5v105q0 109 -1 169.5t-3.5 92t-7.5 45t-13 28.5l-9 17q6 -1 17 -1q9 -1 23 -1h36h37t24 1
q11 0 17 1z" />
    <glyph glyph-name="utilde" unicode="&#x169;" horiz-adv-x="631" 
d="M437 -8l4 125q-9 -41 -27 -66t-41 -39t-48.5 -19t-49.5 -5q-57 0 -95 19.5t-57 54.5q-8 16 -13.5 33.5t-8.5 41.5t-4 55.5t-1 75.5v34q0 65 -1.5 105t-4 64t-7 37t-10.5 24l-9 17l132 25q-1 -31 -2 -66q-1 -30 -1.5 -68t-0.5 -78v-66q0 -82 4 -126t18 -67
q11 -17 32 -31.5t65 -14.5q41 0 65.5 10t38.5 23q16 15 22 34v178q0 65 -1.5 105t-4 64t-7 37t-10.5 24l-9 17l133 25q-2 -33 -3 -68q-1 -30 -1.5 -68t-0.5 -76v-98q0 -65 1.5 -105t5 -64t8 -37t10.5 -24l9 -17zM411 707q15 0 28 7t22.5 15t15 15.5t6.5 9.5q0 -54 -23.5 -83
t-62.5 -29q-15 0 -28 3t-23 7l-59 21q-13 5 -20.5 6.5t-20.5 1.5q-15 0 -28 -7t-22.5 -15.5t-15 -16t-6.5 -9.5q0 56 24 84.5t62 28.5q15 0 28 -3t23 -7l59 -21q13 -4 20.5 -6t20.5 -2z" />
    <glyph glyph-name="Umacron" unicode="&#x16a;" horiz-adv-x="726" 
d="M232 787v69h283v-69h-283zM653 696q-7 -13 -12 -26t-8 -41.5t-4 -81t-1 -145.5v-63q0 -48 -1 -84t-4 -64.5t-9.5 -50.5t-18.5 -41q-28 -49 -81 -79t-149 -30q-75 0 -131.5 20t-91.5 68q-13 18 -21.5 36.5t-13.5 43.5t-7 58.5t-2 80.5v78q0 100 -1 157.5t-3.5 88.5
t-7.5 45.5t-13 29.5l-9 17q8 -1 20 -1q11 -1 26.5 -1h37.5h38t27 1q12 0 20 1l-9 -17q-7 -13 -12 -26t-8 -41.5t-4 -81t-1 -145.5v-139q0 -23 2 -49.5t6 -43.5q29 -113 163 -113q136 0 164 115q4 17 6 39.5t2 44.5v105q0 109 -1 169.5t-3.5 92t-7.5 45t-13 28.5l-9 17
q6 -1 17 -1q9 -1 23 -1h36h37t24 1q11 0 17 1z" />
    <glyph glyph-name="umacron" unicode="&#x16b;" horiz-adv-x="631" 
d="M437 -8l4 125q-9 -41 -27 -66t-41 -39t-48.5 -19t-49.5 -5q-57 0 -95 19.5t-57 54.5q-8 16 -13.5 33.5t-8.5 41.5t-4 55.5t-1 75.5v34q0 65 -1.5 105t-4 64t-7 37t-10.5 24l-9 17l132 25q-1 -31 -2 -66q-1 -30 -1.5 -68t-0.5 -78v-66q0 -82 4 -126t18 -67
q11 -17 32 -31.5t65 -14.5q41 0 65.5 10t38.5 23q16 15 22 34v178q0 65 -1.5 105t-4 64t-7 37t-10.5 24l-9 17l133 25q-2 -33 -3 -68q-1 -30 -1.5 -68t-0.5 -76v-98q0 -65 1.5 -105t5 -64t8 -37t10.5 -24l9 -17zM182 657v69h283v-69h-283z" />
    <glyph glyph-name="Ubreve" unicode="&#x16c;" horiz-adv-x="726" 
d="M228 919q26 -37 61.5 -63t83.5 -26q49 0 84 26t61 63q0 -35 -9.5 -64.5t-27.5 -51t-45 -34t-63 -12.5t-63 12.5t-45 34t-27.5 51t-9.5 64.5zM653 696q-7 -13 -12 -26t-8 -41.5t-4 -81t-1 -145.5v-63q0 -48 -1 -84t-4 -64.5t-9.5 -50.5t-18.5 -41q-28 -49 -81 -79
t-149 -30q-75 0 -131.5 20t-91.5 68q-13 18 -21.5 36.5t-13.5 43.5t-7 58.5t-2 80.5v78q0 100 -1 157.5t-3.5 88.5t-7.5 45.5t-13 29.5l-9 17q8 -1 20 -1q11 -1 26.5 -1h37.5h38t27 1q12 0 20 1l-9 -17q-7 -13 -12 -26t-8 -41.5t-4 -81t-1 -145.5v-139q0 -23 2 -49.5
t6 -43.5q29 -113 163 -113q136 0 164 115q4 17 6 39.5t2 44.5v105q0 109 -1 169.5t-3.5 92t-7.5 45t-13 28.5l-9 17q6 -1 17 -1q9 -1 23 -1h36h37t24 1q11 0 17 1z" />
    <glyph glyph-name="ubreve" unicode="&#x16d;" horiz-adv-x="631" 
d="M437 -8l4 125q-9 -41 -27 -66t-41 -39t-48.5 -19t-49.5 -5q-57 0 -95 19.5t-57 54.5q-8 16 -13.5 33.5t-8.5 41.5t-4 55.5t-1 75.5v34q0 65 -1.5 105t-4 64t-7 37t-10.5 24l-9 17l132 25q-1 -31 -2 -66q-1 -30 -1.5 -68t-0.5 -78v-66q0 -82 4 -126t18 -67
q11 -17 32 -31.5t65 -14.5q41 0 65.5 10t38.5 23q16 15 22 34v178q0 65 -1.5 105t-4 64t-7 37t-10.5 24l-9 17l133 25q-2 -33 -3 -68q-1 -30 -1.5 -68t-0.5 -76v-98q0 -65 1.5 -105t5 -64t8 -37t10.5 -24l9 -17zM173 789q26 -37 61.5 -62.5t83.5 -25.5q49 0 84 25.5t61 62.5
q0 -35 -9.5 -64t-27.5 -51t-45 -34t-63 -12t-63 12t-45 34t-27.5 51t-9.5 64z" />
    <glyph glyph-name="Uring" unicode="&#x16e;" horiz-adv-x="726" 
d="M653 696q-7 -13 -12 -26t-8 -41.5t-4 -81t-1 -145.5v-63q0 -48 -1 -84t-4 -64.5t-9.5 -50.5t-18.5 -41q-28 -49 -81 -79t-149 -30q-75 0 -131.5 20t-91.5 68q-13 18 -21.5 36.5t-13.5 43.5t-7 58.5t-2 80.5v78q0 100 -1 157.5t-3.5 88.5t-7.5 45.5t-13 29.5l-9 17
q8 -1 20 -1q11 -1 26.5 -1h37.5h38t27 1q12 0 20 1l-9 -17q-7 -13 -12 -26t-8 -41.5t-4 -81t-1 -145.5v-139q0 -23 2 -49.5t6 -43.5q29 -113 163 -113q136 0 164 115q4 17 6 39.5t2 44.5v105q0 109 -1 169.5t-3.5 92t-7.5 45t-13 28.5l-9 17q6 -1 17 -1q9 -1 23 -1h36h37
t24 1q11 0 17 1zM479 838q0 -49 -30.5 -74.5t-75.5 -25.5t-75.5 25t-30.5 74t30 74.5t75 25.5t76 -25t31 -74zM430 837q0 29 -16 43.5t-42 14.5q-23 0 -40 -14.5t-17 -43.5q0 -28 16 -42.5t42 -14.5q23 0 40 14t17 43z" />
    <glyph glyph-name="uring" unicode="&#x16f;" horiz-adv-x="631" 
d="M425 708q0 -49 -30.5 -74.5t-75.5 -25.5t-75.5 25t-30.5 75q0 48 30 73.5t75 25.5t76 -25t31 -74zM376 708q0 29 -16 43.5t-42 14.5q-23 0 -40 -14.5t-17 -43.5t16 -43.5t42 -14.5q23 0 40 14.5t17 43.5zM437 -8l4 125q-9 -41 -27 -66t-41 -39t-48.5 -19t-49.5 -5
q-57 0 -95 19.5t-57 54.5q-8 16 -13.5 33.5t-8.5 41.5t-4 55.5t-1 75.5v34q0 65 -1.5 105t-4 64t-7 37t-10.5 24l-9 17l132 25q-1 -31 -2 -66q-1 -30 -1.5 -68t-0.5 -78v-66q0 -82 4 -126t18 -67q11 -17 32 -31.5t65 -14.5q41 0 65.5 10t38.5 23q16 15 22 34v178
q0 65 -1.5 105t-4 64t-7 37t-10.5 24l-9 17l133 25q-2 -33 -3 -68q-1 -30 -1.5 -68t-0.5 -76v-98q0 -65 1.5 -105t5 -64t8 -37t10.5 -24l9 -17z" />
    <glyph glyph-name="Uhungarumlaut" unicode="&#x170;" horiz-adv-x="726" 
d="M653 696q-7 -13 -12 -26t-8 -41.5t-4 -81t-1 -145.5v-63q0 -48 -1 -84t-4 -64.5t-9.5 -50.5t-18.5 -41q-28 -49 -81 -79t-149 -30q-75 0 -131.5 20t-91.5 68q-13 18 -21.5 36.5t-13.5 43.5t-7 58.5t-2 80.5v78q0 100 -1 157.5t-3.5 88.5t-7.5 45.5t-13 29.5l-9 17
q8 -1 20 -1q11 -1 26.5 -1h37.5h38t27 1q12 0 20 1l-9 -17q-7 -13 -12 -26t-8 -41.5t-4 -81t-1 -145.5v-139q0 -23 2 -49.5t6 -43.5q29 -113 163 -113q136 0 164 115q4 17 6 39.5t2 44.5v105q0 109 -1 169.5t-3.5 92t-7.5 45t-13 28.5l-9 17q6 -1 17 -1q9 -1 23 -1h36h37
t24 1q11 0 17 1zM325 902h106q-4 -12 -15 -26q-9 -12 -24.5 -28.5t-40.5 -36.5q-23 -19 -42.5 -30t-34.5 -17q-18 -7 -32 -11zM501 902h107q-4 -12 -15 -26q-9 -12 -24.5 -28.5t-40.5 -36.5q-23 -19 -43 -30t-35 -17q-18 -7 -32 -11z" />
    <glyph glyph-name="uhungarumlaut" unicode="&#x171;" horiz-adv-x="631" 
d="M437 -8l4 125q-9 -41 -27 -66t-41 -39t-48.5 -19t-49.5 -5q-57 0 -95 19.5t-57 54.5q-8 16 -13.5 33.5t-8.5 41.5t-4 55.5t-1 75.5v34q0 65 -1.5 105t-4 64t-7 37t-10.5 24l-9 17l132 25q-1 -31 -2 -66q-1 -30 -1.5 -68t-0.5 -78v-66q0 -82 4 -126t18 -67
q11 -17 32 -31.5t65 -14.5q41 0 65.5 10t38.5 23q16 15 22 34v178q0 65 -1.5 105t-4 64t-7 37t-10.5 24l-9 17l133 25q-2 -33 -3 -68q-1 -30 -1.5 -68t-0.5 -76v-98q0 -65 1.5 -105t5 -64t8 -37t10.5 -24l9 -17zM276 772h106q-4 -12 -15 -26q-9 -12 -24.5 -28.5t-40.5 -36.5
q-23 -19 -42.5 -30t-34.5 -17q-18 -7 -32 -10zM452 772h107q-4 -12 -15 -26q-9 -12 -24.5 -28.5t-40.5 -36.5q-23 -19 -43 -30t-35 -17q-18 -7 -32 -10z" />
    <glyph glyph-name="Uogonek" unicode="&#x172;" horiz-adv-x="726" 
d="M325 -131q0 24 8.5 43t21.5 34.5t29 27t31 19.5q-23 -3 -50 -3q-75 0 -131.5 20t-91.5 68q-13 18 -21.5 36.5t-13.5 43.5t-7 58.5t-2 80.5v78q0 100 -1 157.5t-3.5 88.5t-7.5 45.5t-13 29.5l-9 17q8 -1 20 -1q11 -1 26.5 -1h37.5h38t27 1q12 0 20 1l-9 -17
q-7 -13 -12 -26t-8 -41.5t-4 -81t-1 -145.5v-139q0 -23 2 -49.5t6 -43.5q29 -113 163 -113q136 0 164 115q4 17 6 39.5t2 44.5v105q0 109 -1 169.5t-3.5 92t-7.5 45t-13 28.5l-9 17q6 -1 17 -1q9 -1 23 -1h36h37t24 1q11 0 17 1l-9 -17q-7 -13 -12 -26t-8 -41.5t-4 -81
t-1 -145.5v-63q0 -48 -1 -84t-4.5 -64t-10 -50.5t-17.5 -41.5q-18 -31 -44.5 -52.5t-64.5 -41.5q-13 -7 -26.5 -18t-24.5 -26t-18 -33.5t-7 -40.5q0 -32 21 -52t66 -26q-17 -10 -38 -15.5t-41 -5.5q-37 0 -65 19t-28 62z" />
    <glyph glyph-name="uogonek" unicode="&#x173;" horiz-adv-x="631" 
d="M346 -131q0 24 8.5 43t22 34.5t29.5 27t31 19.5l4 124q-9 -41 -27 -66t-41 -39t-48.5 -19t-49.5 -5q-57 0 -95 19.5t-57 54.5q-8 16 -13.5 33.5t-8.5 41.5t-4 55.5t-1 75.5v34q0 65 -1.5 105t-4 64t-7 37t-10.5 24l-9 17l132 25q-1 -31 -2 -66q-1 -30 -1.5 -68t-0.5 -78
v-66q0 -82 4 -126t18 -67q11 -17 32 -31.5t65 -14.5q41 0 65.5 10t38.5 23q16 15 22 34v178q0 65 -1.5 105t-4 64t-7 37t-10.5 24l-9 17l133 25q-2 -33 -3 -68q-1 -30 -1.5 -68t-0.5 -76v-98q0 -65 1.5 -105t5 -64t8 -37t10.5 -24l9 -17q-72 -21 -104 -54.5t-32 -75.5
q0 -32 21 -52t66 -26q-17 -10 -38 -15.5t-41 -5.5q-37 0 -65 19t-28 62z" />
    <glyph glyph-name="Wcircumflex" unicode="&#x174;" horiz-adv-x="1031" 
d="M1039 713q-14 -14 -25 -33t-22 -46.5t-22.5 -66.5t-26.5 -91l-132 -477q-8 0 -18 1q-9 0 -21 0.5t-26 0.5q-16 0 -28.5 -0.5t-21.5 -0.5q-11 -1 -20 -1l-152 585q-5 19 -6.5 31.5t-1.5 15.5q-1 -3 -3 -15.5t-7 -32.5l-141 -584q-8 0 -19 1q-9 0 -21.5 0.5t-27.5 0.5
t-28 -0.5t-22 -0.5q-11 -1 -20 -1l-133 477q-14 52 -25.5 91t-22.5 66.5t-22 46.5t-25 33q11 -1 25 -1q12 -1 29 -1h39h44.5t32.5 1q15 0 26 1q-10 -7 -21 -21t-11 -42q0 -26 11 -68.5t25 -98.5l97 -378q5 -19 7 -31t3 -15q0 2 2.5 14t7.5 32l147 608q9 -1 20 -1q9 -1 20 -1
h24h23.5t20.5 1q11 0 19 1l157 -607l10 -52q0 2 2.5 17t7.5 35l94 377q14 57 24 99t10 68q0 28 -11 42t-21 21q10 -1 24 -1q12 -1 28.5 -1h38.5h37.5t26.5 1q12 0 21 1zM694 752q-47 3 -93 23t-72 52q-35 -38 -79 -55.5t-86 -19.5l136 150h59z" />
    <glyph glyph-name="wcircumflex" unicode="&#x175;" horiz-adv-x="879" 
d="M615 623q-47 2 -93 22t-72 52q-35 -38 -79 -55t-86 -19l136 149h59zM879 567q-29 -26 -50 -84t-47 -142l-105 -342q-7 0 -16 1q-8 0 -19 0.5t-24 0.5q-14 0 -24.5 -0.5t-18.5 -0.5q-9 -1 -16 -1l-111 421q-6 23 -8.5 41.5t-3.5 25.5q-1 -5 -2.5 -22.5t-8.5 -42.5
l-114 -423q-5 0 -14 1q-8 0 -19 0.5t-25 0.5q-15 0 -26.5 -0.5t-19.5 -0.5q-10 -1 -16 -1l-98 340q-17 56 -29 95t-22.5 65t-20 42t-20.5 26q10 -1 23 -1q11 -1 27 -1h38h42.5t28.5 1q13 0 22 1q-10 -7 -19 -19.5t-9 -38.5q0 -11 1.5 -23.5t5 -30t10 -42.5t15.5 -61l59 -231
q7 -26 9 -43.5t3 -22.5q0 4 2.5 20.5t10.5 44.5l120 448q6 -1 15 -1q8 -1 18 -1h23h22.5t17.5 1q8 0 15 1l118 -449q7 -26 8.5 -41.5t2.5 -20.5q0 3 2.5 19t10.5 45l60 222q10 38 17 65t11.5 46t6.5 32t2 23q0 26 -8.5 38.5t-18.5 19.5q9 -1 22 -1q11 -1 27.5 -1h37.5h36.5
t24.5 1q11 0 18 1z" />
    <glyph glyph-name="Ycircumflex" unicode="&#x176;" horiz-adv-x="559" 
d="M578 713q-12 -9 -22 -18.5t-23.5 -30.5t-34 -57t-54.5 -97l-107 -192q0 -92 1 -145.5t3.5 -83.5t7.5 -44t13 -29l9 -17q-8 0 -19 1q-10 0 -26 0.5t-38 0.5q-23 0 -38.5 -0.5t-26.5 -0.5q-12 -1 -20 -1l9 17q7 13 12 27t8 42.5t4 77t1 131.5l-117 218q-33 62 -53 97.5
t-33 55t-22.5 29t-22.5 19.5q9 -1 23 -1q12 -1 32 -1h49h48.5t30.5 1q13 0 20 1q-12 -11 -17.5 -23t-5.5 -24q0 -11 1.5 -20t7 -22.5t16.5 -35t29 -57.5l75 -146l74 147q18 36 28 57.5t15 35t6 22t1 19.5q0 12 -5.5 24t-17.5 23q11 -1 24 -1q11 -1 27.5 -1h36.5h42t28 1
q12 0 21 1zM453 752q-47 3 -93 23t-72 52q-35 -38 -79 -55.5t-86 -19.5l136 150h59z" />
    <glyph glyph-name="ycircumflex" unicode="&#x177;" horiz-adv-x="535" 
d="M545 567q-29 -26 -51 -84.5t-51 -141.5l-149 -427q-13 -37 -30 -61.5t-38 -39t-46 -20.5t-55 -6q-25 0 -41.5 1t-26.5 3q-12 2 -19 5q0 7 1 17q0 8 0.5 18.5t0.5 22.5q0 13 -0.5 25t-0.5 21q-1 11 -1 19q13 -20 23 -34t19.5 -22.5t20 -12t24.5 -3.5q38 0 59.5 22.5
t38.5 70.5l11 31l-136 368q-20 55 -34.5 94t-25.5 65t-21 42.5t-21 26.5q10 -1 23 -1q11 -1 27.5 -1h38.5h43.5t29.5 1q13 0 22 1q-10 -7 -19 -19.5t-9 -38.5q0 -11 2 -23.5t6.5 -30t12.5 -42t20 -60.5l73 -215q7 -20 11 -37.5t5 -21.5q0 2 3.5 16.5t10.5 36.5l66 210
q12 38 20 65t13 46.5t7.5 32.5t2.5 23q0 26 -9 38.5t-19 19.5q9 -1 21 -1q11 -1 26 -1h37h38t26 1q11 0 20 1zM444 623q-47 2 -93 22t-72 52q-35 -38 -79 -55t-86 -19l136 149h59z" />
    <glyph glyph-name="Ydieresis" unicode="&#x178;" horiz-adv-x="559" 
d="M578 713q-12 -9 -22 -18.5t-23.5 -30.5t-34 -57t-54.5 -97l-107 -192q0 -92 1 -145.5t3.5 -83.5t7.5 -44t13 -29l9 -17q-8 0 -19 1q-10 0 -26 0.5t-38 0.5q-23 0 -38.5 -0.5t-26.5 -0.5q-12 -1 -20 -1l9 17q7 13 12 27t8 42.5t4 77t1 131.5l-117 218q-33 62 -53 97.5
t-33 55t-22.5 29t-22.5 19.5q9 -1 23 -1q12 -1 32 -1h49h48.5t30.5 1q13 0 20 1q-12 -11 -17.5 -23t-5.5 -24q0 -11 1.5 -20t7 -22.5t16.5 -35t29 -57.5l75 -146l74 147q18 36 28 57.5t15 35t6 22t1 19.5q0 12 -5.5 24t-17.5 23q11 -1 24 -1q11 -1 27.5 -1h36.5h42t28 1
q12 0 21 1zM256 827q0 -26 -16 -40.5t-43 -14.5q-24 0 -39.5 14.5t-15.5 39.5q0 26 16 40t42 14q24 0 40 -14.5t16 -38.5zM445 827q0 -26 -15.5 -40.5t-42.5 -14.5q-24 0 -39.5 14.5t-15.5 39.5q0 26 15.5 40t41.5 14q25 0 40.5 -14.5t15.5 -38.5z" />
    <glyph glyph-name="Zacute" unicode="&#x179;" horiz-adv-x="589" 
d="M554 149q-2 -13 -4 -31q-2 -15 -4 -37.5t-4 -51.5l-2 -29h-501v69l381 578h-212q-35 0 -63.5 -6.5t-46.5 -17.5q-20 -12 -27.5 -18.5t-8.5 -8.5q0 2 1.5 17.5t1.5 46.5q0 14 -0.5 23t-0.5 16q-1 7 -1 13h478v-65l-383 -582h219q46 0 74.5 5.5t46.5 16t30 26.5t26 36z
M325 902h106q-4 -12 -15 -26q-9 -12 -24.5 -28.5t-40.5 -36.5q-23 -19 -42.5 -30t-34.5 -17q-18 -7 -32 -11z" />
    <glyph glyph-name="zacute" unicode="&#x17a;" horiz-adv-x="511" 
d="M287 772h106q-4 -12 -15 -26q-9 -12 -24.5 -28.5t-40.5 -36.5q-23 -19 -42.5 -30t-34.5 -17q-18 -7 -32 -10zM469 145q-2 -12 -4 -29q-2 -14 -3.5 -35.5t-3.5 -50.5l-2 -30h-408v68l298 436h-135q-25 0 -44.5 -2.5t-36 -9t-30.5 -19t-28 -32.5q0 8 1 19q0 9 0.5 20.5
t0.5 25.5q0 15 -0.5 25.5t-0.5 18.5q-1 8 -1 14h386v-61l-302 -442h136q46 0 74.5 5.5t46.5 16t30 26.5t26 36z" />
    <glyph glyph-name="Zdotaccent" unicode="&#x17b;" horiz-adv-x="589" 
d="M369 831q0 -32 -18.5 -47.5t-48.5 -15.5q-29 0 -47.5 15t-18.5 45q0 32 18 47t49 15q29 0 47.5 -15t18.5 -44zM554 149q-2 -13 -4 -31q-2 -15 -4 -37.5t-4 -51.5l-2 -29h-501v69l381 578h-212q-35 0 -63.5 -6.5t-46.5 -17.5q-20 -12 -27.5 -18.5t-8.5 -8.5q0 2 1.5 17.5
t1.5 46.5q0 14 -0.5 23t-0.5 16q-1 7 -1 13h478v-65l-383 -582h219q46 0 74.5 5.5t46.5 16t30 26.5t26 36z" />
    <glyph glyph-name="zdotaccent" unicode="&#x17c;" horiz-adv-x="511" 
d="M469 145q-2 -12 -4 -29q-2 -14 -3.5 -35.5t-3.5 -50.5l-2 -30h-408v68l298 436h-135q-25 0 -44.5 -2.5t-36 -9t-30.5 -19t-28 -32.5q0 8 1 19q0 9 0.5 20.5t0.5 25.5q0 15 -0.5 25.5t-0.5 18.5q-1 8 -1 14h386v-61l-302 -442h136q46 0 74.5 5.5t46.5 16t30 26.5t26 36z
M337 715q0 -32 -18 -47t-48 -15q-29 0 -47.5 15t-18.5 44q0 32 18 47.5t49 15.5q29 0 47 -15t18 -45z" />
    <glyph glyph-name="Zcaron" unicode="&#x17d;" horiz-adv-x="589" 
d="M444 915q-41 -38 -74.5 -77.5t-65.5 -85.5h-14l-79 77q-8 8 -24.5 23t-27.5 23l65 50q7 -11 16 -23.5t17 -23.5l29 -39q12 15 29 29.5t37 25t43 16.5t49 5zM554 149q-2 -13 -4 -31q-2 -15 -4 -37.5t-4 -51.5l-2 -29h-501v69l381 578h-212q-35 0 -63.5 -6.5t-46.5 -17.5
q-20 -12 -27.5 -18.5t-8.5 -8.5q0 2 1.5 17.5t1.5 46.5q0 14 -0.5 23t-0.5 16q-1 7 -1 13h478v-65l-383 -582h219q46 0 74.5 5.5t46.5 16t30 26.5t26 36z" />
    <glyph glyph-name="zcaron" unicode="&#x17e;" horiz-adv-x="511" 
d="M395 772q-20 -20 -36.5 -37t-31.5 -34.5t-29.5 -36.5t-29.5 -41h-16l-67 63q-9 8 -25 23t-27 23l62 50q15 -26 34 -47l25 -29q24 30 56.5 50.5t84.5 15.5zM469 145q-2 -12 -4 -29q-2 -14 -3.5 -35.5t-3.5 -50.5l-2 -30h-408v68l298 436h-135q-25 0 -44.5 -2.5t-36 -9
t-30.5 -19t-28 -32.5q0 8 1 19q0 9 0.5 20.5t0.5 25.5q0 15 -0.5 25.5t-0.5 18.5q-1 8 -1 14h386v-61l-302 -442h136q46 0 74.5 5.5t46.5 16t30 26.5t26 36z" />
    <glyph glyph-name="florin" unicode="&#x192;" horiz-adv-x="462" 
d="M454 710q-2 -5 -3 -12q-2 -6 -2.5 -15t-2.5 -20q-2 -13 -3 -22.5t-1 -17.5q-1 -9 0 -15q-20 35 -42.5 45.5t-42.5 10.5q-25 0 -41 -7t-27 -21q-15 -19 -18.5 -43.5t-8.5 -58.5l-6 -50h28q29 0 48 1.5t30 3.5q13 3 21 6q-1 -5 -2 -11q-1 -5 -2.5 -13t-2.5 -18
q-3 -20 -3 -29v-10q-8 2 -21 5q-11 2 -29.5 4t-46.5 2h-27l-33 -261q-7 -59 -13.5 -113.5t-22 -96t-45 -66.5t-82.5 -25q-23 0 -38.5 2t-25.5 4q-11 3 -18 6q1 4 3 10q2 5 2.5 12t2.5 18q2 12 2 21.5t1 17.5q0 8 1 15q17 -33 33 -43.5t31 -10.5q18 0 28.5 7.5t17 23t10 40.5
t7.5 60l46 379h-57l13 11q29 23 41 39.5t14 36.5l2 16q3 30 10 63.5t26.5 62t56.5 47t102 18.5q24 0 41 -1.5t28 -3.5q12 -2 21 -4z" />
    <glyph glyph-name="Scommaaccent" unicode="&#x218;" horiz-adv-x="523" 
d="M320 -110q0 -22 -8.5 -42t-24 -36.5t-37.5 -28t-50 -15.5q1 0 8 6t15.5 16.5t15 24.5t6.5 31q0 16 -5.5 25t-12.5 14q-8 5 -18 7v17q0 47 50 55q26 -5 43.5 -22t17.5 -52zM472 180q0 -52 -17.5 -87.5t-49.5 -57.5t-76.5 -32t-97.5 -10q-45 0 -77 4.5t-54 10.5
q-26 7 -43 16q0 6 1 16q0 8 0.5 19.5t0.5 25.5q0 16 -0.5 29.5t-0.5 24.5q-1 12 -1 22q16 -23 32.5 -41.5t36.5 -32t45.5 -21t58.5 -7.5q22 0 47.5 3t47.5 14t36 32t14 57q0 23 -6 40.5t-16.5 31.5t-24.5 25t-30 22l-90 58q-26 16 -52 34t-47 41.5t-34.5 53.5t-13.5 72
q0 35 12 67t39 56t70 38.5t104 14.5q38 0 68 -5t50 -10q24 -6 42 -14q-1 -7 -1 -17q-1 -8 -1 -20v-27v-29t1 -22q0 -11 1 -20q-16 23 -32 41t-35 31t-42 19.5t-53 6.5q-15 0 -36.5 -2t-41.5 -12t-34.5 -29.5t-14.5 -54.5q0 -23 7 -39.5t20 -30t30.5 -26t38.5 -26.5l71 -46
q29 -19 56 -37t47.5 -41.5t32.5 -54t12 -74.5z" />
    <glyph glyph-name="scommaaccent" unicode="&#x219;" horiz-adv-x="469" 
d="M289 -110q0 -22 -8.5 -42t-24 -36.5t-37.5 -28t-50 -15.5q1 0 8 6t15.5 16.5t15 24.5t6.5 31q0 16 -5.5 25t-12.5 14q-8 5 -18 7v17q0 47 50 55q26 -5 43.5 -22t17.5 -52zM410 158q0 -27 -8.5 -56t-31 -53t-60.5 -39t-97 -15q-35 0 -63 4.5t-47 10.5q-23 6 -39 15
q0 5 1 14q0 8 0.5 19t0.5 26q0 14 -0.5 26.5t-0.5 21.5q-1 11 -1 19q14 -21 28.5 -39t31.5 -30.5t38.5 -19.5t49.5 -7q32 0 52.5 7.5t32 19.5t16 27t4.5 30q0 32 -15.5 50.5t-44.5 35.5l-89 53q-15 8 -32.5 19t-32.5 28t-25 41.5t-10 59.5q0 40 13.5 68.5t37.5 47t57.5 27
t74.5 8.5q35 0 61.5 -5t44.5 -11q21 -7 36 -15q-1 -6 -1 -15q-1 -8 -1 -18.5v-25.5v-26.5t1 -20.5q0 -11 1 -18q-14 21 -28 38.5t-30.5 30t-36.5 20t-45 7.5q-12 0 -28.5 -1.5t-31.5 -9t-25.5 -22t-10.5 -40.5q0 -34 20.5 -53t58.5 -41l69 -39q23 -14 42.5 -28.5t33.5 -33
t21.5 -41t7.5 -51.5z" />
    <glyph glyph-name="uni021A" unicode="&#x21a;" horiz-adv-x="541" 
d="M329 -110q0 -22 -8.5 -42t-24 -36.5t-37.5 -28t-50 -15.5q1 0 8 6t15.5 16.5t15 24.5t6.5 31q0 16 -5.5 25t-12.5 14q-8 5 -18 7v17q0 47 50 55q26 -5 43.5 -22t17.5 -52zM528 660q0 -30 1.5 -44.5t1.5 -16.5q-1 1 -8 7.5t-28 19.5q-18 11 -46.5 17.5t-63.5 6.5h-65v-299
q0 -109 1 -169.5t3.5 -92t7.5 -45t13 -28.5l9 -17q-8 0 -19 1q-10 0 -26 0.5t-38 0.5q-23 0 -38 -0.5t-26 -0.5q-12 -1 -20 -1l9 17q5 9 9 17.5t6.5 22t4.5 35t3 56.5t1.5 87t0.5 127v289h-65q-35 0 -63.5 -6.5t-46.5 -17.5q-20 -12 -27.5 -18.5t-8.5 -8.5q0 1 1.5 16
t1.5 45q0 14 -0.5 23t-0.5 16v13h517q-1 -6 -1 -13v-39z" />
    <glyph glyph-name="uni021B" unicode="&#x21b;" horiz-adv-x="374" 
d="M277 -110q0 -22 -8.5 -42t-24 -36.5t-37.5 -28t-50 -15.5q1 0 8 6t15.5 16.5t15 24.5t6.5 31q0 16 -5.5 25t-12.5 14q-8 5 -18 7v17q0 47 50 55q26 -5 43.5 -22t17.5 -52zM362 80q0 -3 -3 -17.5t-16 -30.5t-39.5 -29t-74.5 -13q-45 0 -70.5 15t-39.5 36q-12 19 -17.5 47
t-5.5 83v158t1 102q1 45 2 72h-64q2 1 22.5 22t46.5 62q14 21 23.5 39t16.5 32q8 16 13 30h38v-125h66q31 0 50 1.5t30 3.5q12 3 18 6q-1 -4 -1 -10v-31v-30q0 -6 1 -10q-6 2 -18 5q-11 2 -30 3.5t-50 1.5h-66v-337q0 -34 3 -50t10 -30q8 -17 24.5 -26.5t45.5 -9.5
q21 0 36.5 4.5t26.5 10.5q12 6 21 15z" />
    <glyph glyph-name="uni0237" unicode="&#x237;" horiz-adv-x="282" 
d="M205 574q-3 -19 -5 -55q-2 -31 -3 -83t-1 -133v-341q0 -32 -2.5 -63.5t-17.5 -56t-46.5 -40t-88.5 -15.5h-20q29 14 45 34.5t24 49.5t9.5 68t1.5 91v272q0 65 -1.5 105t-5 64t-8 37t-10.5 24l-9 17z" />
    <glyph glyph-name="circumflex" unicode="&#x2c6;" horiz-adv-x="414" 
d="M372 623q-47 2 -93 22t-72 52q-35 -38 -79 -55t-86 -19l136 149h59z" />
    <glyph glyph-name="caron" unicode="&#x2c7;" horiz-adv-x="414" 
d="M340 772q-20 -20 -36.5 -37t-31.5 -34.5t-29.5 -36.5t-29.5 -41h-16l-67 63q-9 8 -25 23t-27 23l62 50q15 -26 34 -47l25 -29q24 30 56.5 50.5t84.5 15.5z" />
    <glyph glyph-name="uni02C9" unicode="&#x2c9;" horiz-adv-x="414" 
d="M66 657v69h283v-69h-283z" />
    <glyph glyph-name="breve" unicode="&#x2d8;" horiz-adv-x="414" 
d="M62 789q26 -37 61.5 -62.5t83.5 -25.5q49 0 84 25.5t61 62.5q0 -35 -9.5 -64t-27.5 -51t-45 -34t-63 -12t-63 12t-45 34t-27.5 51t-9.5 64z" />
    <glyph glyph-name="dotaccent" unicode="&#x2d9;" horiz-adv-x="414" 
d="M274 715q0 -32 -18 -47t-48 -15q-29 0 -47.5 15t-18.5 44q0 32 18 47.5t49 15.5q29 0 47 -15t18 -45z" />
    <glyph glyph-name="ring" unicode="&#x2da;" horiz-adv-x="414" 
d="M313 708q0 -49 -30.5 -74.5t-75.5 -25.5t-75.5 25t-30.5 75q0 48 30 73.5t75 25.5t76 -25t31 -74zM264 708q0 29 -16 43.5t-42 14.5q-23 0 -40 -14.5t-17 -43.5t16 -43.5t42 -14.5q23 0 40 14.5t17 43.5z" />
    <glyph glyph-name="ogonek" unicode="&#x2db;" horiz-adv-x="414" 
d="M131 -131q0 31 14.5 54.5t34 40.5t40.5 28t35 17h38q-12 -8 -25.5 -20t-25 -27t-19 -34t-7.5 -41q0 -32 21 -52t66 -26q-17 -10 -38 -15.5t-41 -5.5q-37 0 -65 19t-28 62z" />
    <glyph glyph-name="tilde" unicode="&#x2dc;" horiz-adv-x="414" 
d="M289 707q15 0 28 7t22.5 15t15 15.5t6.5 9.5q0 -54 -23.5 -83t-62.5 -29q-15 0 -28 3t-23 7l-59 21q-13 5 -20.5 6.5t-20.5 1.5q-15 0 -28 -7t-22.5 -15.5t-15 -16t-6.5 -9.5q0 56 24 84.5t62 28.5q15 0 28 -3t23 -7l59 -21q13 -4 20.5 -6t20.5 -2z" />
    <glyph glyph-name="hungarumlaut" unicode="&#x2dd;" horiz-adv-x="414" 
d="M107 772h106q-4 -12 -15 -26q-9 -12 -24.5 -28.5t-40.5 -36.5q-23 -19 -42.5 -30t-34.5 -17q-18 -7 -32 -10zM283 772h107q-4 -12 -15 -26q-9 -12 -24.5 -28.5t-40.5 -36.5q-23 -19 -43 -30t-35 -17q-18 -7 -32 -10z" />
    <glyph glyph-name="uni0374" unicode="&#x374;" horiz-adv-x="240" 
d="M188 826q-3 -23 -15.5 -60.5t-34.5 -78.5q-17 -32 -39.5 -61t-46.5 -47l40 247h96z" />
    <glyph glyph-name="uni0375" unicode="&#x375;" horiz-adv-x="240" 
d="M52 -172q3 23 15.5 60.5t34.5 78.5q17 32 39.5 61.5t46.5 46.5l-40 -247h-96z" />
    <glyph glyph-name="uni037A" unicode="&#x37a;" horiz-adv-x="239" 
d="M187 -234q-11 -14 -27 -26t-43 -12q-29 0 -47 16.5t-18 61.5q0 31 0.5 68t0.5 61h76q0 -3 -1 -29t-1 -67q0 -18 2 -31t8 -21.5t18 -13t32 -7.5z" />
    <glyph glyph-name="uni037E" unicode="&#x37e;" horiz-adv-x="249" 
d="M192 22q0 -47 -13.5 -79t-34 -51.5t-45.5 -28.5t-48 -9q1 1 7.5 6.5t14 17.5t14 31t6.5 46t-6 43.5t-13 24.5q-8 10 -18 13v19q0 28 17 47.5t49 24.5q37 -6 53.5 -34.5t16.5 -70.5zM197 497q0 -30 -20 -49.5t-52 -24.5q-35 5 -54 24.5t-19 48.5q0 30 20 49.5t52 24.5
q36 -5 54.5 -24.5t18.5 -48.5z" />
    <glyph glyph-name="tonos" unicode="&#x384;" horiz-adv-x="250" 
d="M200 827q-1 -2 -3 -10t-7.5 -21.5t-16.5 -33t-29 -43.5q-35 -44 -62 -61t-32 -18l45 187h105z" />
    <glyph glyph-name="dieresistonos" unicode="&#x385;" horiz-adv-x="503" 
d="M442 693q0 -25 -15 -39t-39 -14q-21 0 -36.5 14.5t-15.5 37.5q0 25 15.5 39t38.5 14q22 0 37 -14t15 -38zM319 810q0 -26 -8.5 -54.5t-23 -54.5t-34.5 -48t-44 -35l9 192h101zM167 693q0 -25 -15.5 -39t-38.5 -14q-22 0 -37 14.5t-15 37.5q0 25 15 39t39 14q22 0 37 -14
t15 -38z" />
    <glyph glyph-name="Alphatonos" unicode="&#x386;" horiz-adv-x="629" 
d="M629 -1q-11 0 -26 1q-13 0 -30.5 0.5t-40.5 0.5q-21 0 -38 -0.5t-30 -0.5q-15 -1 -27 -1q10 7 21 21t11 42q0 26 -12 69.5t-27 97.5l-18 63h-223l-18 -63q-16 -54 -27.5 -97.5t-11.5 -69.5q0 -28 11.5 -42t21.5 -21q-11 0 -24 1q-12 0 -28.5 0.5t-36.5 0.5
q-22 0 -37.5 -0.5t-26.5 -0.5q-12 -1 -21 -1q14 13 25 32.5t22 47.5t23 66.5t29 90.5l130 417q3 9 5.5 18t2.5 19t-2.5 14.5t-4.5 6.5h189q0 -1 -3 -5.5t-3 -15.5q0 -10 2 -19t5 -18l122 -417q15 -52 27 -90.5t22.5 -66.5t21.5 -47.5t25 -32.5zM323 602q-8 30 -13.5 49
t-7.5 26q-2 -5 -7 -24t-15 -51l-72 -244h186zM160 712q-1 -2 -3 -10t-7.5 -22t-16.5 -33t-29 -43q-35 -44 -62 -61.5t-32 -18.5l45 188h105z" />
    <glyph glyph-name="anoteleia" unicode="&#x387;" horiz-adv-x="249" 
d="M197 400q0 -30 -20 -50t-52 -25q-35 6 -54 25.5t-19 48.5t20 49t52 25q36 -5 54.5 -24.5t18.5 -48.5z" />
    <glyph glyph-name="Epsilontonos" unicode="&#x388;" horiz-adv-x="566" 
d="M509 147q-1 -11 -3 -28q-2 -14 -4 -36.5t-4 -52.5l-2 -30h-343q-20 0 -35 -0.5t-24 -0.5h-18l9 17q5 9 9 17.5t6.5 22t4.5 35t3 56.5t1.5 87t0.5 127q0 109 -1 169.5t-3.5 92t-7.5 45t-13 28.5l-9 17q7 -1 18 -1h58h334q-1 -6 -1 -13v-39q0 -30 1.5 -44.5t1.5 -16.5
q-1 1 -8 7.5t-28 19.5q-38 22 -110 22h-132v-259h108q35 0 63.5 4t46.5 15q20 11 27 17t9 8q0 -1 -1.5 -21t-1.5 -56q0 -35 1.5 -55.5t1.5 -21.5q0 1 -7 7.5t-29 19.5q-18 11 -46.5 15t-63.5 4h-108v-261h122q46 0 74.5 5.5t46.5 16t30 26t26 35.5zM18 712q-1 -2 -3 -10
t-7.5 -22t-16.5 -33t-29 -43q-35 -44 -62 -61.5t-32 -18.5l45 188h105z" />
    <glyph glyph-name="Etatonos" unicode="&#x389;" horiz-adv-x="749" 
d="M18 712q-1 -2 -3 -10t-7.5 -22t-16.5 -33t-29 -43q-35 -44 -62 -61.5t-32 -18.5l45 188h105zM673 -1q-8 0 -19 1q-10 0 -26 0.5t-38 0.5q-23 0 -38 -0.5t-26 -0.5q-12 -1 -20 -1l9 17q5 9 8.5 17.5t6.5 21t5 32.5t3 52t1.5 79t0.5 114h-331q0 -68 0.5 -114.5t1.5 -78.5
t2.5 -51.5t4.5 -32t7 -21t9 -18.5l9 -17q-8 0 -19 1q-10 0 -26 0.5t-38 0.5q-23 0 -38 -0.5t-26 -0.5q-12 -1 -20 -1l9 17q5 9 9 17.5t6.5 22t4.5 35t3 56.5t1.5 87t0.5 127q0 109 -1 169.5t-3.5 92t-7.5 45t-13 28.5l-9 17q8 -1 19 -1q10 -1 25.5 -1h38.5h38t26 1
q11 0 20 1l-9 -17q-5 -9 -8.5 -17t-6.5 -20t-5 -30.5t-3 -47.5t-1.5 -72.5t-0.5 -104.5h331q0 92 -1 143.5t-4 80t-8 41.5t-12 27l-9 17q8 -1 19 -1q10 -1 25.5 -1h38.5h38t26 1q11 0 20 1l-9 -17l-9 -18t-6.5 -21.5t-4.5 -35t-3 -56.5t-1.5 -87t-0.5 -127q0 -109 1 -169.5
t3.5 -92t7.5 -45t13 -28.5z" />
    </font>
</defs>
</svg>
