<?xml version="1.0" encoding="utf-8"?>
<!-- Generator: Adobe Illustrator 23.0.1, SVG Export Plug-In . SVG Version: 6.00 Build 0)  -->
<svg version="1.1" id="Layer_1" xmlns="http://www.w3.org/2000/svg" xmlns:xlink="http://www.w3.org/1999/xlink" x="0px" y="0px"
	 viewBox="0 0 512 512" style="enable-background:new 0 0 512 512;" xml:space="preserve">
<style type="text/css">
	.st0{fill:url(#SVGID_1_);}
	.st1{fill:url(#SVGID_2_);}
	.st2{fill:url(#SVGID_3_);}
	.st3{fill:url(#SVGID_4_);}
	.st4{fill:#C8C8C8;}
	.st5{display:none;fill:url(#SVGID_5_);}
	.st6{fill:url(#SVGID_6_);}
</style>
<g transform="">
	
		<linearGradient id="SVGID_1_" gradientUnits="userSpaceOnUse" x1="-47.2296" y1="651.9135" x2="-46.23" y2="650.9139" gradientTransform="matrix(27.68 0 0 -128 1689.9696 83829)">
		<stop  offset="0" style="stop-color:#413D2E"/>
		<stop  offset="1" style="stop-color:#0B0903"/>
	</linearGradient>
	<path class="st0" d="M410.3,512L410.3,512l-8.1,0c0-7.3,0-14.8,0-14.8c2.1,0,5.9-0.1,5.9,6.4v4C408.1,510,410.3,512,410.3,512z
		 M384.9,503.7v4c0,2.4-2.2,4.4-2.2,4.4h8.1c0-7.3,0-14.8,0-14.7C388.7,497.3,384.9,497.2,384.9,503.7z M396.5,481.8
		c-1,0-2,0.5-2.7,1.3s-1.1,2-1.1,3.2v18.9c0,1.3,0.4,2.4,1.1,3.2c0.7,0.8,1.6,1.3,2.7,1.3c2.1,0,3.8-2,3.8-4.6v-18.9
		C400.3,483.8,398.6,481.8,396.5,481.8z M408.1,475.6v-3.5c0-6.5-3.6-6.5-5.9-6.5c0,0,0,7.3,0,14.5c0,7.1,0,14.2,0,14.2
		c2.1,0,5.9,0.1,5.9-6.4v-4c0-1.7,1.1-3.1,1.7-3.8c0.3-0.3,0.5-0.5,0.5-0.5S408.1,477.8,408.1,475.6z M390.8,465.6
		c-2.3,0-5.9,0-5.9,6.5v3.5c0,2.2-2.2,4-2.2,4s0.2,0.2,0.5,0.5c0.6,0.7,1.7,2.2,1.7,3.8v4c0,6.5,3.8,6.4,5.9,6.4c0,0,0-7.1,0-14.2
		C390.8,472.9,390.8,465.6,390.8,465.6z M408.1,391.5V388c0-2.1,2-3.9,2.2-4h-8.1c0,7.1,0,14,0,14C404.5,398,408.1,398,408.1,391.5z
		 M400.3,392.4c0-1.3-0.4-2.4-1.1-3.2c-0.7-0.8-1.6-1.3-2.7-1.3c-2.1,0-3.8,2-3.8,4.5v14.9c0,2.5,1.7,4.5,3.8,4.5c1,0,2-0.5,2.7-1.3
		c0.7-0.8,1.1-2,1.1-3.2v-7.4h0L400.3,392.4L400.3,392.4z M408.1,424v-4c0-2.4,2.2-4.3,2.2-4.3s-2.2-1.8-2.2-4v-3.5
		c0-6.5-3.6-6.5-5.9-6.5c0,0,0,28.8,0,28.8C404.3,430.4,408.1,430.4,408.1,424z M396.5,417.8c-1,0-2,0.5-2.7,1.3s-1.1,2-1.1,3.2
		v18.9c0,1.3,0.4,2.4,1.1,3.2c0.7,0.8,1.6,1.3,2.7,1.3c2.1,0,3.8-2,3.8-4.6v-18.9C400.3,419.8,398.6,417.8,396.5,417.8z
		 M408.1,443.6v-4c0-6.5-3.8-6.4-5.9-6.4c-0.1,0-0.1,28.8,0,28.8c2.3,0,5.9,0,5.9-6.5V452c0-2.2,2.2-4,2.2-4S408.1,446,408.1,443.6z
		 M384.9,439.7v4c0,2.4-2.2,4.4-2.2,4.4s2.2,1.8,2.2,4v3.5c0,6.5,3.6,6.5,5.9,6.5c0,0,0-28.8,0-28.8
		C388.7,433.3,384.9,433.2,384.9,439.7z M384.9,420v4c0,6.5,3.8,6.4,5.9,6.4c0.1,0,0.1-28.8,0-28.8c-2.3,0-5.9,0-5.9,6.5v3.5
		c0,2.2-2.2,4-2.2,4S384.9,417.6,384.9,420z M396.5,451.8c-2.1,0-3.8,2-3.8,4.6v7.4l0,7.4c0,2.5,1.7,4.5,3.8,4.5c1,0,2-0.5,2.7-1.3
		c0.7-0.8,1.1-2,1.1-3.2v-7.4v-7.4c0-1.3-0.4-2.4-1.1-3.2S397.5,451.8,396.5,451.8z M384.9,388v3.5c0,6.5,3.6,6.5,5.9,6.5
		c0,0,0-7,0-14h-8.1C382.7,384,384.9,385.8,384.9,388z"/>
	
		<linearGradient id="SVGID_2_" gradientUnits="userSpaceOnUse" x1="-47.5138" y1="651.9136" x2="-46.5138" y2="650.9136" gradientTransform="matrix(32.96 0 0 -128 1665.48 83829)">
		<stop  offset="0" style="stop-color:#413D2E"/>
		<stop  offset="1" style="stop-color:#0B0903"/>
	</linearGradient>
	<path class="st1" d="M132.4,496.2c0,0-2.6,1.8-2.6,4v3.5c0,6.5-4.3,6.5-7,6.5c-0.1,0-0.1-28.8,0-28.8c2.5,0,7-0.1,7,6.4v4
		C129.8,494.2,132.4,496.2,132.4,496.2z M102.1,487.9v4c0,2.4-2.6,4.4-2.6,4.4s2.6,1.8,2.6,4v3.5c0,6.5,4.3,6.5,7,6.5
		c0.1,0,0.1-28.8,0-28.8C106.6,481.5,102.1,481.4,102.1,487.9z M115.9,500c-2.5,0-4.5,2-4.5,4.5v7.4h9v-7.4c0-1.3-0.5-2.4-1.3-3.2
		C118.3,500.5,117.2,500,115.9,500z M102.1,404.2v4c0,6.5,4.5,6.4,7,6.4c0.1,0,0.1-28.8,0-28.8c-2.7,0-7,0-7,6.5v3.5
		c0,2.2-2.6,4-2.6,4S102.1,401.8,102.1,404.2z M102.1,456.3v3.5c0,2.2-2.6,4-2.6,4s2.6,1.9,2.6,4.3v4c0,6.5,4.5,6.4,7,6.4
		c0.1,0,0.1-28.8,0-28.8C106.4,449.8,102.1,449.8,102.1,456.3z M115.9,466c-1.2,0-2.4,0.5-3.2,1.3s-1.3,2-1.3,3.2v18.9
		c0,1.3,0.5,2.4,1.3,3.2c0.8,0.8,1.9,1.3,3.2,1.3c2.5,0,4.5-2,4.5-4.6v-18.9C120.4,468,118.4,466,115.9,466z M111.4,391.4
		c0,2.5,2,4.5,4.5,4.5c1.2,0,2.4-0.5,3.2-1.3c0.8-0.8,1.3-2,1.3-3.2V384h-9C111.4,384,111.4,391.4,111.4,391.4z M129.8,408.2v-4
		c0-2.4,2.6-4.3,2.6-4.3s-2.6-1.8-2.6-4v-3.5c0-6.5-4.3-6.5-7-6.5c-0.1,0-0.1,28.8,0,28.8C125.2,414.6,129.8,414.6,129.8,408.2z
		 M129.8,459.8v-3.5c0-6.5-4.3-6.5-7-6.5c-0.1,0-0.1,28.8,0,28.8c2.5,0,7,0.1,7-6.4v-4c0-2.4,2.6-4.3,2.6-4.3S129.8,462,129.8,459.8
		z M129.8,427.8v-4c0-6.5-4.5-6.4-7-6.4c-0.1,0-0.1,28.8,0,28.8c2.7,0,7,0,7-6.5v-3.5c0-2.2,2.6-4,2.6-4S129.8,430.2,129.8,427.8z
		 M115.9,402c-1.2,0-2.4,0.5-3.2,1.3s-1.3,2-1.3,3.2v18.9c0,1.3,0.5,2.4,1.3,3.2c0.8,0.8,1.9,1.3,3.2,1.3c2.5,0,4.5-2,4.5-4.6v-18.9
		C120.4,404,118.4,402,115.9,402z M115.9,436c-2.5,0-4.5,2-4.5,4.6v7.4l0,7.4c0,2.5,2,4.5,4.5,4.5c1.2,0,2.4-0.5,3.2-1.3
		c0.8-0.8,1.3-2,1.3-3.2V448v-7.4c0-1.3-0.5-2.4-1.3-3.2S117.2,436,115.9,436z M102.1,423.9v4c0,2.4-2.6,4.4-2.6,4.4s2.6,1.8,2.6,4
		v3.5c0,6.5,4.3,6.5,7,6.5c0.1,0,0.1-28.8,0-28.8C106.6,417.5,102.1,417.4,102.1,423.9z"/>
	
		<linearGradient id="SVGID_3_" gradientUnits="userSpaceOnUse" x1="-47.2218" y1="648.6115" x2="-46.2218" y2="647.6115" gradientTransform="matrix(27.6501 0 0 -31.63 1688.5242 20515.3906)">
		<stop  offset="0" style="stop-color:#413D2E"/>
		<stop  offset="1" style="stop-color:#0B0903"/>
	</linearGradient>
	<path class="st2" d="M390.8,31.6h-7.5c0.6-0.8,1.5-2.1,1.5-3.6v-4c0-6.5,3.8-6.4,5.9-6.4C390.8,17.6,390.8,24.6,390.8,31.6z
		 M384.9,4.4v4c0,6.5,3.8,6.4,5.9,6.4c0,0,0-7.4,0-14.7h-8.1C382.7,0,384.9,1.9,384.9,4.4z M408.1,28v-4c0-6.5-3.8-6.4-5.9-6.4
		c0,0,0,6.9,0,14h7.5C409,30.9,408.1,29.5,408.1,28z M396.5,30.2c2.1,0,3.8-2,3.8-4.5V6.7c0-2.5-1.7-4.6-3.8-4.6c-1,0-2,0.5-2.7,1.3
		c-0.7,0.8-1.1,2-1.1,3.2v18.9c0,1.2,0.4,2.4,1.1,3.2S395.5,30.2,396.5,30.2z M408.1,8.4v-4c0-2.4,2.2-4.4,2.2-4.4s0,0,0,0h-8.1
		c0,7.3,0,14.8,0,14.8C404.4,14.8,408.1,14.8,408.1,8.4z"/>
	
		<linearGradient id="SVGID_4_" gradientUnits="userSpaceOnUse" x1="-47.5181" y1="648.5998" x2="-46.5181" y2="647.5998" gradientTransform="matrix(32.94 0 0 -31.63 1664.5205 20515.3887)">
		<stop  offset="0" style="stop-color:#413D2E"/>
		<stop  offset="1" style="stop-color:#0B0903"/>
	</linearGradient>
	<path class="st3" d="M120.4,31.6h-9v-9.1c0-1.3,0.5-2.4,1.3-3.2c0.8-0.8,1.9-1.3,3.2-1.3c2.5,0,4.5,2,4.5,4.6V31.6z M102.1,20.2v4
		c0,6.5,4.5,6.4,7,6.4c0.1,0,0.1-28.8,0-28.8c-2.7,0-7,0-7,6.5v3.5c0,2.2-2.6,4-2.6,4S102.1,17.7,102.1,20.2z M115.9,12
		c1.2,0,2.4-0.5,3.2-1.3c0.8-0.8,1.3-2,1.3-3.2V0h-9v7.4C111.4,9.9,113.5,12,115.9,12z M129.8,24.2v-4c0-2.4,2.6-4.4,2.6-4.4
		s-2.6-1.8-2.6-4V8.3c0-6.5-4.3-6.5-7-6.5c-0.1,0-0.1,28.8,0,28.8C125.3,30.6,129.8,30.6,129.8,24.2z"/>
	<path class="st4" d="M499.7,31.3v421.3H267.1c0-0.2-0.1-0.3-0.1-0.5h5.7c-6.2-4-11.5-8.3-16.8-13.1c-5.3,4.7-11.5,9.1-17.7,13.1
		h6.5c0,0.2-0.1,0.3-0.1,0.5H12.3V31.3h232.2c0,0.1,0,0.2,0.1,0.4h-6.5c6.1,4,12.3,8.3,17.7,13.1c5.3-4.7,10.7-9.1,16.8-13.1H267
		c0-0.1,0-0.2,0.1-0.4H499.7z"/>
	<linearGradient id="SVGID_5_" gradientUnits="userSpaceOnUse" x1="16.7025" y1="2.7425" x2="495.2175" y2="481.2575">
		<stop  offset="0" style="stop-color:#C8C8C8"/>
		<stop  offset="1" style="stop-color:#4E4E4E"/>
	</linearGradient>
	<path class="st5" d="M256,23.5c-3.5,0-6.3,2.8-6.3,6.3c0,3.5,2.8,6.3,6.3,6.3c3.5,0,6.3-2.8,6.3-6.3
		C262.2,26.3,259.4,23.5,256,23.5z M256,448.1c-3.5,0-6.3,2.8-6.3,6.3s2.8,6.3,6.3,6.3c3.5,0,6.3-2.8,6.3-6.3S259.4,448.1,256,448.1
		z M402.1,452.7v-0.5h-7.6c-0.1,0.1-0.2,0.1-0.3,0.2c0,0,0,0,0,0c-0.1,0.1-0.2,0.2-0.3,0.3c-0.1,0.1-0.2,0.2-0.2,0.3
		c-0.1,0.1-0.1,0.2-0.2,0.3c0,0,0,0,0,0c-0.1,0.1-0.1,0.2-0.2,0.3c-0.1,0.2-0.2,0.3-0.3,0.5c0,0.1-0.1,0.2-0.1,0.3
		c-0.1,0.2-0.1,0.4-0.2,0.6c0,0.1,0,0.2-0.1,0.3c0,0.3-0.1,0.6-0.1,0.9v0.5h9.5C402.1,455.4,402.1,454.1,402.1,452.7z M390.7,452.2
		L390.7,452.2c0,0.2,0,0.3,0,0.5v0h3.2c0.1-0.1,0.2-0.2,0.3-0.3c0,0,0,0,0,0c0.1-0.1,0.2-0.2,0.3-0.2H390.7z M109.1,452.2
		L109.1,452.2c0,0.2,0,0.3,0,0.5v0.1h13.6v-0.5H109.1z M122.7,452.7h-2.3v2.5c0,0.1,0,0.3,0,0.4c0,0.1,0,0.2,0,0.3
		c0,0.1,0,0.2-0.1,0.3c0,0.1,0,0.2-0.1,0.3h2.5C122.7,455.2,122.7,453.8,122.7,452.7z M512,31.7L512,31.7L512,19.5H313
		c-8.2,0-16.2-0.9-23.4,2.8c-3.8,2-7.1,3.8-9.4,5h-13c0.1,0.7,0.2,1.4,0.2,2.2c0,0.6,0,1.3-0.2,1.8c0,0.1,0,0.2-0.1,0.4h5.7
		c-6.2,4-11.5,8.3-16.8,13.1c-5.3-4.7-11.5-9.1-17.7-13.1h6.5c0-0.1,0-0.2-0.1-0.4c-0.1-0.6-0.2-1.2-0.2-1.8c0-0.8,0.1-1.5,0.2-2.2
		h-14c-1.9-1.1-4.2-2.4-6.6-3.7c-0.1,0-0.2-0.1-0.3-0.2h0c-0.4-0.2-0.7-0.4-1-0.6c-7.4-4.1-15.9-3.4-24.5-3.4H0v12.3h0l0,420.5v12.3
		h198.4c8.6,0,17.1,0.7,24.5-3.4c0.3-0.2,0.7-0.4,1-0.6h0c0.1,0,0.2-0.1,0.3-0.2c2.4-1.3,4.7-2.6,6.6-3.7h14
		c-0.1-0.7-0.2-1.5-0.2-2.2c0-0.6,0-1.1,0.1-1.7c0-0.2,0-0.3,0.1-0.5h-6.5c6.1-4,12.3-8.3,17.7-13.1c5.3,4.7,10.7,9.1,16.8,13.1
		h-5.7c0,0.2,0.1,0.3,0.1,0.5c0.1,0.5,0.1,1.1,0.1,1.7c0,0.8-0.1,1.5-0.2,2.2h13c2.3,1.3,5.6,3.1,9.4,5c7.2,3.7,15.2,2.8,23.4,2.8
		H512v-12.2h0.1L512,31.7z M503.8,23.5h3.7v3.9h-3.7V23.5z M299.6,25.7c3.1-1.5,6.6-2.2,10.1-2.2h189.8v3.9H296
		C297.2,26.8,298.4,26.2,299.6,25.7z M12.5,23.5h186.8c6.5,0,10,0.8,13.2,2.3c1.1,0.5,2.3,1.1,3.4,1.6H12.5V23.5z M8.1,460.5H4.4
		v-3.9h3.7V460.5z M4.4,452.2V31.8h3.7l0,420.5H4.4z M8.1,27.4H4.4v-3.9h3.7V27.4z M212.5,458.3c-3.2,1.5-6.7,2.3-13.2,2.3H12.5
		v-3.9h203.4C214.8,457.2,213.6,457.7,212.5,458.3z M258.5,430.1l-2.6-2.5l-2.6,2.5c-8.6,8.5-18.4,15.9-29.2,22.1H12.5V31.8h211.7
		c10.8,6.2,20.6,13.6,29.2,22.1l2.6,2.5l2.6-2.5c8.6-8.5,18.4-15.9,29.2-22.1h211.7v420.5H287.7C276.9,446,267.1,438.6,258.5,430.1z
		 M499.4,460.5H309.6c-3.5,0-6.9-0.7-10.1-2.2c-1.2-0.5-2.4-1.1-3.6-1.7h203.4V460.5z M507.6,460.5h-3.7v-3.9h3.7V460.5z
		 M503.9,452.2l0-420.5h3.8l0,420.5H503.9z M122.7,452.7h-2.3v2.5c0,0.1,0,0.3,0,0.4c0,0.1,0,0.2,0,0.3c0,0.1,0,0.2-0.1,0.3
		c0,0.1,0,0.2-0.1,0.3h2.5C122.7,455.2,122.7,453.8,122.7,452.7z M402.1,452.7v-0.5h-7.6c-0.1,0.1-0.2,0.1-0.3,0.2c0,0,0,0,0,0
		c-0.1,0.1-0.2,0.2-0.3,0.3c-0.1,0.1-0.2,0.2-0.2,0.3c-0.1,0.1-0.1,0.2-0.2,0.3c0,0,0,0,0,0c-0.1,0.1-0.1,0.2-0.2,0.3
		c-0.1,0.2-0.2,0.3-0.3,0.5c0,0.1-0.1,0.2-0.1,0.3c-0.1,0.2-0.1,0.4-0.2,0.6c0,0.1,0,0.2-0.1,0.3c0,0.3-0.1,0.6-0.1,0.9v0.5h9.5
		C402.1,455.4,402.1,454.1,402.1,452.7z M109.1,452.2L109.1,452.2c0,0.2,0,0.3,0,0.5v0.1h13.6v-0.5H109.1z M390.7,452.2L390.7,452.2
		c0,0.2,0,0.3,0,0.5v0h3.2c0.1-0.1,0.2-0.2,0.3-0.3c0,0,0,0,0,0c0.1-0.1,0.2-0.2,0.3-0.2H390.7z"/>
	
		<linearGradient id="SVGID_6_" gradientUnits="userSpaceOnUse" x1="-97.8088" y1="0.6241" x2="-96.809" y2="1.6239" gradientTransform="matrix(512.1 0 0 445.2026 50087.793 -258.3956)">
		<stop  offset="0" style="stop-color:#4E4E4E"/>
		<stop  offset="1" style="stop-color:#000000"/>
	</linearGradient>
	<path class="st6" d="M256,23.5c-3.5,0-6.3,2.8-6.3,6.3s2.8,6.3,6.3,6.3s6.3-2.8,6.3-6.3S259.5,23.5,256,23.5z M256,448.1
		c-3.5,0-6.3,2.8-6.3,6.3s2.8,6.3,6.3,6.3s6.3-2.8,6.3-6.3S259.5,448.1,256,448.1z M402.2,452.8v-0.5h-7.6c-0.1,0.1-0.2,0.1-0.3,0.2
		l0,0c-0.1,0.1-0.2,0.2-0.3,0.3c-0.1,0.1-0.2,0.2-0.2,0.3c-0.1,0.1-0.1,0.2-0.2,0.3l0,0c-0.1,0.1-0.1,0.2-0.2,0.3
		c-0.1,0.2-0.2,0.3-0.3,0.5c0,0.1-0.1,0.2-0.1,0.3c-0.1,0.2-0.1,0.4-0.2,0.6c0,0.1,0,0.2-0.1,0.3c0,0.3-0.1,0.6-0.1,0.9v0.5h9.5
		C402.2,455.5,402.2,454.1,402.2,452.8z M390.8,452.2L390.8,452.2c0,0.2,0,0.3,0,0.5l0,0h3.2c0.1-0.1,0.2-0.2,0.3-0.3l0,0
		c0.1-0.1,0.2-0.2,0.3-0.2H390.8z M109.1,452.2L109.1,452.2c0,0.2,0,0.3,0,0.5v0.1h13.6v-0.5h-13.6V452.2z M122.7,452.8h-2.3v2.5
		c0,0.1,0,0.3,0,0.4s0,0.2,0,0.3c0,0.1,0,0.2-0.1,0.3c0,0.1,0,0.2-0.1,0.3h2.5C122.7,455.2,122.7,453.8,122.7,452.8z M512,31.8
		L512,31.8L512,19.5H313.1c-8.2,0-16.2-0.9-23.4,2.8c-3.8,2-7.1,3.8-9.4,5h-13c0.1,0.7,0.2,1.4,0.2,2.2c0,0.6,0,1.3-0.2,1.8
		c0,0.1,0,0.2-0.1,0.4h5.7c-6.2,4-11.5,8.3-16.8,13.1c-5.3-4.7-11.5-9.1-17.7-13.1h6.5c0-0.1,0-0.2-0.1-0.4
		c-0.1-0.6-0.2-1.2-0.2-1.8c0-0.8,0.1-1.5,0.2-2.2h-14c-1.9-1.1-4.2-2.4-6.6-3.7c-0.1,0-0.2-0.1-0.3-0.2l0,0c-0.4-0.2-0.7-0.4-1-0.6
		c-7.4-4.1-15.9-3.4-24.5-3.4H0v12.4l0,0v420.5v12.3h198.4c8.6,0,17.1,0.7,24.5-3.4c0.3-0.2,0.7-0.4,1-0.6l0,0
		c0.1,0,0.2-0.1,0.3-0.2c2.4-1.3,4.7-2.6,6.6-3.7h14c-0.1-0.7-0.2-1.5-0.2-2.2c0-0.6,0-1.1,0.1-1.7c0-0.2,0-0.3,0.1-0.5h-6.5
		c6.1-4,12.3-8.3,17.7-13.1c5.3,4.7,10.7,9.1,16.8,13.1h-5.7c0,0.2,0.1,0.3,0.1,0.5c0.1,0.5,0.1,1.1,0.1,1.7c0,0.8-0.1,1.5-0.2,2.2
		h13c2.3,1.3,5.6,3.1,9.4,5c7.2,3.7,15.2,2.8,23.4,2.8H512v-12.2h0.1V31.8z M503.9,23.5h3.7v3.9h-3.7V23.5z M299.6,25.7
		c3.1-1.5,6.6-2.2,10.1-2.2h189.8v3.9H296C297.2,26.8,298.4,26.2,299.6,25.7z M12.5,23.5h186.8c6.5,0,10,0.8,13.2,2.3
		c1.1,0.5,2.3,1.1,3.4,1.6H12.5V23.5z M8.1,460.5H4.4v-3.9h3.7V460.5z M4.4,452.2V31.8h3.7v420.5H4.4V452.2z M8.1,27.4H4.4v-3.9h3.7
		V27.4z M212.5,458.3c-3.2,1.5-6.7,2.3-13.2,2.3H12.5v-3.9H216C214.8,457.2,213.7,457.8,212.5,458.3z M258.6,430.1l-2.6-2.5
		l-2.6,2.5c-8.6,8.5-18.4,15.9-29.2,22.1H12.5V31.8h211.7c10.8,6.2,20.6,13.6,29.2,22.1l2.6,2.5l2.6-2.5
		c8.6-8.5,18.4-15.9,29.2-22.1h211.7v420.5H287.8C276.9,446,267.2,438.6,258.6,430.1z M499.5,460.5H309.7c-3.5,0-6.9-0.7-10.1-2.2
		c-1.2-0.5-2.4-1.1-3.6-1.7h203.4v3.9H499.5z M507.6,460.5h-3.7v-3.9h3.7V460.5z M503.9,452.2V31.7h3.8v420.5H503.9z M122.7,452.8
		h-2.3v2.5c0,0.1,0,0.3,0,0.4s0,0.2,0,0.3c0,0.1,0,0.2-0.1,0.3c0,0.1,0,0.2-0.1,0.3h2.5C122.7,455.2,122.7,453.8,122.7,452.8z
		 M402.2,452.8v-0.5h-7.6c-0.1,0.1-0.2,0.1-0.3,0.2l0,0c-0.1,0.1-0.2,0.2-0.3,0.3c-0.1,0.1-0.2,0.2-0.2,0.3
		c-0.1,0.1-0.1,0.2-0.2,0.3l0,0c-0.1,0.1-0.1,0.2-0.2,0.3c-0.1,0.2-0.2,0.3-0.3,0.5c0,0.1-0.1,0.2-0.1,0.3c-0.1,0.2-0.1,0.4-0.2,0.6
		c0,0.1,0,0.2-0.1,0.3c0,0.3-0.1,0.6-0.1,0.9v0.5h9.5C402.2,455.5,402.2,454.1,402.2,452.8z M109.1,452.2L109.1,452.2
		c0,0.2,0,0.3,0,0.5v0.1h13.6v-0.5h-13.6V452.2z M390.8,452.2L390.8,452.2c0,0.2,0,0.3,0,0.5l0,0h3.2c0.1-0.1,0.2-0.2,0.3-0.3l0,0
		c0.1-0.1,0.2-0.2,0.3-0.2H390.8z"/>
</g>
</svg>
