<?xml version="1.0" encoding="utf-8"?>
<!-- Generator: Adobe Illustrator 23.0.1, SVG Export Plug-In . SVG Version: 6.00 Build 0)  -->
<svg id="icon" version="1.1" xmlns="http://www.w3.org/2000/svg" xmlns:xlink="http://www.w3.org/1999/xlink" x="0px" y="0px"
	 viewBox="0 0 512 512" style="enable-background:new 0 0 512 512;" xml:space="preserve">
<g transform="scale(1.3)">
	<path d="M0.2,0l46,42.6l4.1,1.8L83,58.6L123.5,0C123.5,0,0.2,0,0.2,0z M142.4,0L97.5,64.9l31.6,13.7l1.6,0.7l1.1,1.2l51.6,57.4
		l21.2,21.5l6.6-21.2l-0.1,0l25.4-84.1L220.2,0L142.4,0L142.4,0z M236.4,0l14.4,48.2l87.4-17.8L332.1,0L236.4,0L236.4,0z M347.9,0
		l7,34.9l1.5,7.6l-7.6,1.5l-99.2,20.2L236,109.5l39.6,46.5l118.3-79.6V0H347.9z M0,20.9v139.4l57.3-21.6L40.7,58.3l-0.1,0.2L0,20.9
		L0,20.9z M57.8,64.5l15.3,74.3l42.5,16l29.5-36.2l-23.8-26.5L57.8,64.5L57.8,64.5z M393.8,95.1l-129.6,87.2l-11.4,8.7l140.9,87.8
		L393.8,95.1L393.8,95.1z M64.9,152.3L0,176.8v138.5l150.5-86.2l39.1-27.7l-31.4-14.1l0,0.1l-47.7-18l-3.3-1l-1.9-1L64.9,152.3
		L64.9,152.3z M266.4,217.7l-4.5,4.8L225,262l-4,47.5l57.1,76.8l115.8-49.9v-39.3L266.4,217.7L266.4,217.7z M140.8,252.6l-54.4,31.1
		l83.9,110.1h94l-57.5-77.5l-1.7-2.3l0.2-2.9l3.3-39.6L140.8,252.6L140.8,252.6z M72.8,291.5L0,333.2v60.7h150.9L72.8,291.5
		L72.8,291.5z M393.8,353.3l-94.1,40.5h94.1L393.8,353.3L393.8,353.3z"/>
</g>
</svg>
