<?xml version="1.0" encoding="utf-8"?>
<!-- Generator: Adobe Illustrator 23.0.1, SVG Export Plug-In . SVG Version: 6.00 Build 0)  -->
<svg id="icon" version="1.1" xmlns="http://www.w3.org/2000/svg" xmlns:xlink="http://www.w3.org/1999/xlink" x="0px" y="0px"
	 viewBox="0 0 512 512" style="enable-background:new 0 0 512 512;" xml:space="preserve">
<g transform="translate(25 -25)">
	<path d="M48.1,25l107.3,159.9l-1.7-27.3L64.8,25H48.1z M92.8,25l173.1,136.4l-5.5-46.3L395,258.6L429.7,537H487V25H92.8z
		 M171,133.8l4,68.5c-5.5,8.2-26.7,36-63.1,40.8c-4.5,0.6-8,4.4-8,9.1c0,0-0.9,41.2,50.6,92.1l38.5-61.7
		c-7.8-8.1-15.5-18.3-23.8-31.8l30.6-33.4c2-2.1,2.8-4.9,2.3-7.8l-12.9-77.8C186.3,119.4,170.5,123.5,171,133.8z M93.6,163.7
		c-10.2,0-18.7,4.2-23.1,11.4c-7.9,13.1-0.1,32.2,17.5,42.8s38.2,8.2,46-5s-0.1-32.2-17.6-42.7C109.2,166.1,101.3,163.7,93.6,163.7
		L93.6,163.7z M265.9,248.2l-47.2,36.2l-13.4,88.8c13.7,3.4,28.1,4.4,42.4,2.4l24.9-3.4l50.9,55.9c2.1,2.2,5.1,3.3,8.1,2.9l32.1-4.4
		c12.4-3.7,8-18.3-1.6-18.4l-23.7,0.8l-33.9-73.3c-1.2-2.4-3.3-4.2-5.9-5l-42.9-12.4l25-21.5l58,20.8c5.2,1.7,10.3-1.2,12-5.9
		l11.6-37.7c1.9-12.5-13-15.1-17.2-6.6l-9,19l-59.7-38.6C273,245.8,269,246.1,265.9,248.2L265.9,248.2z M195.8,313.1l-26.9,43.1
		c5.9,4.2,12.2,7.9,18.7,10.7L195.8,313.1z M216.8,395.5L251.8,537h14.2l-34.8-141.2C226.4,395.9,221.6,395.8,216.8,395.5
		L216.8,395.5z"/>
</g>
</svg>
