<?xml version="1.0" encoding="utf-8"?>
<!-- Generator: Adobe Illustrator 23.0.1, SVG Export Plug-In . SVG Version: 6.00 Build 0)  -->
<svg id="icon" version="1.1" xmlns="http://www.w3.org/2000/svg" xmlns:xlink="http://www.w3.org/1999/xlink" x="0px" y="0px"
	 viewBox="0 0 512 512" style="enable-background:new 0 0 512 512;" xml:space="preserve">
<g transform="">
	<path d="M314.3,12.5L289.5,24l-31.8,132.7l65.6-120.7L314.3,12.5L314.3,12.5z M42.9,38.8c12.3,83,52.2,152.5,108,211.1
		c15.2-10.3,30.6-20.9,46.1-31.7c-23.9-29.5-40.8-60.6-47-93C113.1,96.6,77.1,67.6,42.9,38.8L42.9,38.8z M464,38.9
		c-33.3,28.1-68.4,56.4-104.4,84.3c-11.1,62.8-62.6,120.8-127.5,171C161.6,348.8,74.1,394.4,0,425.1l0,35.3
		c101-36.8,210.9-87.7,298.5-158.1C383.8,234,447.7,148.1,464,38.9L464,38.9z M209.3,48.9l-9.2,30l43.9,78.8l-7.4-92L209.3,48.9
		L209.3,48.9z M333,143.6C219.5,230.1,99.7,311.4,0,368.6v34.6c71.1-30.1,153.7-73.9,219.8-125C273.5,236.6,315.6,190.3,333,143.6
		L333,143.6z M177.1,145.9c7.9,20.4,20.5,40.6,36.7,60.4c7.6-5.4,15.2-10.8,22.7-16.3C216.6,175.6,196.8,160.9,177.1,145.9
		L177.1,145.9z M358.9,275.7c-10.3,10.2-21.1,20-32.2,29.5c59.2,40.2,126.4,74.6,185.4,99.4v-33.5
		C464.7,344.1,412.7,311.6,358.9,275.7z M310.5,318.6c-12.6,10-25.6,19.7-38.8,28.9c75.8,48.7,161,86,240.4,114.7v-35.8
		C448.5,400.3,375,363.1,310.5,318.6L310.5,318.6z M247.3,374.7l-49.8,84.4l8.4,25.4l29.9-12.2L247.3,374.7L247.3,374.7z
		 M264.3,375.6l55.4,112.8l39.3,11.1l-3.8-34.5L264.3,375.6L264.3,375.6z"/>
</g>
</svg>
