<svg xmlns="http://www.w3.org/2000/svg" viewBox="0 0 512 512" >
	<defs>
		<linearGradient id="bg-gradient" x1="0" x2="1" y1="0" y2="1">
			<stop offset="0%" stop-color="rgb(240, 50, 50)"></stop>
			<stop offset="100%" stop-color="rgb(70, 14, 14)"></stop>
		</linearGradient>
	</defs>
<path fill="url(#bg-gradient)" d="M256.24,478.88c-3.45,0-6.26,2.8-6.26,6.26c0,3.46,2.81,6.26,6.26,6.26c3.46,0,6.26-2.8,6.26-6.26
	C262.5,481.68,259.7,478.88,256.24,478.88z M256.24,20.59c-3.45,0-6.26,2.8-6.26,6.26c0,3.46,2.81,6.26,6.26,6.26
	c3.46,0,6.26-2.8,6.26-6.26C262.5,23.4,259.7,20.59,256.24,20.59z M287.77,24.66c-10.84-6.19-20.62-13.59-29.21-22.12L256,0
	l-2.56,2.54c-8.58,8.51-18.36,15.91-29.2,22.12H0v462.69h224.24c10.84,6.2,20.62,13.6,29.2,22.12L256,512l2.56-2.54
	c8.59-8.52,18.37-15.92,29.21-22.12H512V24.66H287.77z M12.53,29.06h203.42c-1.13,0.56-2.27,1.11-3.42,1.64
	c-3.19,1.48-6.67,2.25-13.19,2.25H12.53V29.06z M4.4,29.06h3.72v3.89H4.4V29.06z M4.4,36.95h3.72v438.1H4.4V36.95z M8.12,482.94H4.4
	v-3.89h3.72V482.94z M12.53,482.94v-3.89h186.81c6.52,0,10,0.77,13.19,2.25c1.15,0.53,2.29,1.08,3.42,1.64H12.53z M499.47,482.94
	H296.04c1.17-0.58,2.35-1.15,3.55-1.7c3.15-1.46,6.6-2.19,10.07-2.19h189.81V482.94z M499.47,475.05h-186.4
	c-8.19,0-16.24-0.86-23.41,2.85c-3.8,1.97-7.15,3.78-9.44,5.04h-13.21v4.4h5.83c-6.15,3.96-11.92,8.33-17.27,13.07
	c-5.35-4.74-11.11-9.09-17.24-13.07h6.66v-4.4h-14.16c-1.93-1.1-4.23-2.39-6.64-3.73c-0.11-0.05-0.22-0.11-0.32-0.16h0.02
	c-0.35-0.19-0.7-0.38-1.05-0.58c-7.42-4.09-15.87-3.42-24.48-3.42H12.53V36.95h185.54c8.19,0,16.24,0.86,23.41-2.85
	c3.8-1.97,7.15-3.78,9.44-5.04h14.07v-4.4h-6.69c6.15-3.96,11.92-8.33,17.27-13.07c5.34,4.74,11.1,9.09,17.24,13.07h-5.8v4.4h13.29
	c1.94,1.1,4.24,2.39,6.65,3.73c0.11,0.05,0.21,0.11,0.32,0.16h-0.02c0.35,0.19,0.69,0.38,1.04,0.58c7.43,4.09,15.88,3.42,24.48,3.42
	h186.7V475.05z M499.47,32.95H309.66c-3.47,0-6.92-0.73-10.07-2.19c-1.2-0.55-2.38-1.12-3.55-1.7h203.43V32.95z M507.6,482.94h-3.72
	v-3.89h3.72V482.94z M507.6,475.05h-3.72V36.95h3.72V475.05z M507.6,32.95h-3.72v-3.89h3.72V32.95z"/>
</svg>
