<?xml version="1.0" standalone="no"?>
<!DOCTYPE svg PUBLIC "-//W3C//DTD SVG 1.1//EN" "http://www.w3.org/Graphics/SVG/1.1/DTD/svg11.dtd" >
<svg xmlns="http://www.w3.org/2000/svg" xmlns:xlink="http://www.w3.org/1999/xlink" version="1.1">
<metadata>
Created by FontForge 20200427 at Thu Feb 13 18:58:37 2014
 By www
(c) Gerard Unger, 2013. ALL RIGHTS RESERVED. Produced by Tom Grace, 2013. This software is licensed, not sold. Unauthorised use prohibited.
</metadata>
<defs>
<font id="AlverataW06-IrrglPEReg" horiz-adv-x="648" >
  <font-face 
    font-family="AlverataW06-IrrglPEReg"
    font-weight="400"
    font-stretch="normal"
    units-per-em="1000"
    panose-1="2 3 5 3 6 5 4 2 0 4"
    ascent="787"
    descent="-213"
    x-height="564"
    cap-height="713"
    bbox="-366 -312 1828 985"
    underline-thickness="50"
    underline-position="-90"
    unicode-range="U+0020-FB04"
  />
<missing-glyph horiz-adv-x="500" 
d="M76 0v713h348v-713h-348zM359 65v583h-218v-583h218z" />
    <glyph glyph-name=".notdef" horiz-adv-x="500" 
d="M76 0v713h348v-713h-348zM359 65v583h-218v-583h218z" />
    <glyph glyph-name="glyph1" horiz-adv-x="0" 
 />
    <glyph glyph-name="glyph1" horiz-adv-x="0" 
 />
    <glyph glyph-name="nonmarkingreturn" horiz-adv-x="333" 
 />
    <glyph glyph-name="space" unicode=" " horiz-adv-x="230" 
 />
    <glyph glyph-name="exclam" unicode="!" horiz-adv-x="322" 
d="M243 63l-81 -80l-82 80l82 80zM231 696q-5 -12 -8 -31.5t-6 -57t-6 -100t-7 -160.5l-7 -172h-73l-6 172q-4 98 -7 160.5t-6 100t-6.5 57t-7.5 31.5l-7 19q8 -1 19 -1q10 -1 24.5 -1h34.5h34.5t23.5 1q11 0 18 1z" />
    <glyph glyph-name="quotedbl" unicode="&#x22;" horiz-adv-x="328" 
d="M268 500h-58l-11 220h81zM117 500h-57l-12 220h81z" />
    <glyph glyph-name="numbersign" unicode="#" horiz-adv-x="643" 
d="M605 452h-116l-38 -199h117l-11 -55h-116l-37 -198h-62l37 198h-174l-37 -198h-62l37 198h-116l11 55h116l37 199h-116l11 55h116l37 199h63l-38 -199h173l37 199h63l-37 -199h116zM254 452l-38 -199h173l38 199h-173z" />
    <glyph glyph-name="dollar" unicode="$" horiz-adv-x="523" 
d="M242 -80v73h-12q-45 0 -77 4.5t-54 10.5q-26 7 -43 16q0 6 1 16q0 8 0.5 19.5t0.5 25.5q0 16 -0.5 29.5t-0.5 24.5q-1 12 -1 22q16 -23 32.5 -41.5t36.5 -32t45.5 -21t58.5 -7.5h13v260l-35 23q-26 16 -52 34t-47 41.5t-34.5 53.5t-13.5 72q0 32 10 61t32 52.5t56.5 39.5
t83.5 21v68h44v-66q38 0 68 -5t50 -10q24 -6 41 -14q-1 -7 -1 -17q-1 -8 -1 -20v-27v-29t1 -22q0 -11 1 -20q-16 22 -32 40t-34.5 31t-41 20t-51.5 7v-242l37 -24q29 -19 56 -37t47.5 -41.5t32.5 -54t12 -74.5q0 -45 -13.5 -77.5t-37.5 -54.5t-58 -35t-76 -17v-76h-44z
M286 291v-227q17 3 33 10t28.5 18.5t20 29t7.5 43.5q0 23 -6 40.5t-16.5 31.5t-25 25t-30.5 22zM155 555q0 -21 6.5 -37t18 -29.5t27.5 -25t35 -24.5v211q-15 -3 -30.5 -8.5t-28 -16.5t-20.5 -28t-8 -42z" />
    <glyph glyph-name="percent" unicode="%" horiz-adv-x="586" 
d="M318 569q0 -35 -11.5 -65t-32.5 -52t-50 -34.5t-65 -12.5q-34 0 -62.5 11t-49.5 31.5t-32.5 49t-11.5 63.5q0 74 43 118.5t117 44.5q70 0 112.5 -41.5t42.5 -112.5zM72 0h-75l517 713h73zM582 154q0 -35 -11.5 -65t-32.5 -52t-50.5 -34t-64.5 -12t-63.5 11t-49.5 31
t-32.5 49t-11.5 64q0 73 43 117.5t117 44.5q34 0 63 -11t49.5 -31t32 -48.5t11.5 -63.5zM248 565q0 44 -21 74.5t-67 30.5q-45 0 -65.5 -31.5t-20.5 -75.5q0 -43 20 -73t65 -30t67 30.5t22 74.5zM511 150q0 44 -21 74.5t-66 30.5t-66 -31t-21 -75q0 -43 20 -73t65 -30t67 30
t22 74z" />
    <glyph glyph-name="ampersand" unicode="&#x26;" horiz-adv-x="763" 
d="M742 -1h-20q-10 0 -25 0.5t-34 0.5h-73l-45 45q-22 -16 -55 -28q-28 -11 -70.5 -19.5t-100.5 -8.5q-74 0 -125 15.5t-82.5 41.5t-45.5 61t-14 74t12 70t33.5 54.5t51.5 40.5t66 28l-30 30q-21 21 -36.5 39.5t-25.5 37.5t-14.5 39.5t-4.5 45.5q0 7 2 21.5t8.5 32t19.5 36
t35 33.5t54 24.5t77 9.5q42 0 77 -9.5t60.5 -29t40 -49.5t14.5 -70q0 -37 -12 -66t-32.5 -51.5t-48.5 -38.5t-60 -27l238 -233q8 10 15 26q6 14 11 35t5 50q0 32 -8.5 51.5t-19.5 27.5q8 -1 19 -1q9 -1 21.5 -1h29.5h22.5t15.5 1q7 0 12 1v-6q0 -60 -9.5 -97.5t-23.5 -64.5
q-8 -17 -16.5 -28.5t-15.5 -19.5q-8 -9 -16 -15l14 -15q28 -28 44.5 -44t27.5 -25t18.5 -14t18.5 -11zM402 561q0 31 -9 51.5t-24 32.5t-33.5 17t-37.5 5q-51 0 -75.5 -26t-24.5 -61q0 -23 6.5 -41t17.5 -34.5t26.5 -32l32.5 -32.5l32 -32q27 15 44.5 34t27.5 39.5t13.5 41
t3.5 38.5zM242 346q-48 -26 -67.5 -62t-19.5 -87q0 -67 45 -106.5t148 -39.5q38 0 67 5.5t48 12.5q22 8 37 19z" />
    <glyph glyph-name="quotesingle" unicode="'" horiz-adv-x="178" 
d="M118 500h-58l-12 220h82z" />
    <glyph glyph-name="parenleft" unicode="(" horiz-adv-x="311" 
d="M258 -214q-58 16 -103 74q-19 25 -37.5 61.5t-32.5 88t-23 120t-9 156.5t9 156.5t23 120t32.5 88.5t37.5 62q45 58 103 74q-32 -46 -57 -117q-22 -61 -39.5 -155.5t-17.5 -228.5t17.5 -228t39.5 -155q25 -71 57 -117z" />
    <glyph glyph-name="parenright" unicode=")" horiz-adv-x="311" 
d="M258 287q0 -88 -9 -156.5t-23.5 -120.5t-33 -88.5t-37.5 -61.5q-45 -59 -102 -74q31 46 57 117q21 61 39 155.5t18 228.5q0 133 -18 227.5t-39 155.5q-26 71 -57 117q57 -16 102 -74q19 -25 37.5 -61.5t33 -88t23.5 -120t9 -156.5z" />
    <glyph glyph-name="asterisk" unicode="*" horiz-adv-x="417" 
d="M336 491l-117 97l29 -153h-77l28 153l-116 -97l-37 63l141 53l-141 55l37 62l116 -97l-28 153h77l-29 -153l117 97l36 -62l-140 -55l140 -53z" />
    <glyph glyph-name="plus" unicode="+" 
d="M360 320v-256h-73v256h-242v69h242v255h73v-255h243v-69h-243z" />
    <glyph glyph-name="comma" unicode="," horiz-adv-x="244" 
d="M200 15q0 -42 -14.5 -71t-37 -47t-49 -25.5t-50.5 -7.5q1 0 9.5 4.5t18 16.5t17 32t7.5 52q0 29 -9 47.5t-20 29.5q-12 13 -28 20l80 80q21 -11 35.5 -27.5t23.5 -35t13 -36.5t4 -32z" />
    <glyph glyph-name="hyphen" unicode="-" horiz-adv-x="319" 
d="M39 245v75h241v-75h-241z" />
    <glyph glyph-name="period" unicode="." horiz-adv-x="250" 
d="M206 65l-81 -82l-81 82l81 81z" />
    <glyph glyph-name="slash" unicode="/" horiz-adv-x="313" 
d="M110 -213h-72l165 1000h73z" />
    <glyph glyph-name="zero" unicode="0" horiz-adv-x="637" 
d="M578 329q0 -30 -3 -66.5t-13 -74.5t-28 -74t-47 -64t-71.5 -45t-101.5 -17q-80 0 -130 32t-78 82t-37.5 111t-9.5 120q0 29 3.5 66t13 74.5t27.5 73.5t47.5 64t72 45t101.5 17q80 0 129.5 -32t77.5 -81.5t37.5 -111t9.5 -119.5zM471 329q0 78 -9 131.5t-27.5 87t-46.5 48
t-65 14.5q-51 0 -81.5 -22t-46.5 -64q-8 -22 -13.5 -48t-8.5 -52t-4.5 -49.5t-1.5 -41.5q0 -78 9 -132t27.5 -87t46 -47.5t65.5 -14.5q51 0 81 21.5t46 62.5q9 22 14.5 48t8.5 52t4.5 50.5t1.5 42.5z" />
    <glyph glyph-name="one" unicode="1" horiz-adv-x="401" 
d="M301 -1q-8 0 -19 1q-10 0 -25.5 0.5t-37.5 0.5q-21 0 -36.5 -0.5t-25.5 -0.5q-12 -1 -20 -1l9 17q5 9 9 17.5t6.5 22t4.5 34.5t3 56.5t1.5 87.5t0.5 127v196q0 11 -4.5 16t-21.5 5h-115q14 25 43.5 37t65 21t72 19.5t65.5 32.5q-3 -40 -5 -94q-2 -46 -3 -112.5t-1 -153.5
q0 -67 0.5 -113t1.5 -77.5t2.5 -50.5t4.5 -31.5t7 -21t9 -18.5z" />
    <glyph glyph-name="two" unicode="2" horiz-adv-x="518" 
d="M415 101q20 11 27 17.5t9 8.5q0 -1 -2.5 -23.5t-4.5 -64.5l-1 -39h-414q0 31 6 56t19 48.5t33 46t47 48.5l79 73q34 32 58.5 57.5t40.5 49.5t23 49.5t7 58.5q0 58 -30.5 90t-96.5 32q-35 0 -60 -5.5t-44 -16.5t-33.5 -27t-28.5 -37q0 7 1 17q0 8 0.5 20t0.5 26
q0 15 -0.5 25.5t-0.5 18.5q-1 8 -1 14q16 8 42 14q22 5 54.5 10t78.5 5q63 0 106 -13t70 -36t38.5 -56t11.5 -72q0 -44 -10.5 -77.5t-31 -62.5t-51 -57.5t-71.5 -62.5l-76 -64q-16 -14 -31 -27.5t-27 -26t-19 -23t-7 -16.5h179q72 0 110 22z" />
    <glyph glyph-name="three" unicode="3" horiz-adv-x="529" 
d="M465 145q0 -48 -12.5 -82t-33.5 -57.5t-47.5 -37.5t-54.5 -21.5t-55.5 -10t-48.5 -2.5q-58 0 -96 13.5t-60 30.5t-31 33t-9 21q16 -9 40 -16q20 -6 49.5 -11t71.5 -5q38 0 71 7t57 23.5t38 45t14 71.5q0 32 -7.5 57.5t-25.5 43t-48.5 26.5t-76.5 9q-33 0 -50.5 -4.5
t-21.5 -6.5q0 5 1 11q0 5 0.5 13.5t0.5 19.5t-0.5 19t-0.5 13q-1 6 -1 11q3 -2 22.5 -6.5t48.5 -4.5t55.5 6.5t46.5 22.5t32 43t12 67q0 56 -29.5 89t-98.5 33q-59 0 -94 -20t-67 -66q0 8 1 18q0 8 0.5 20t0.5 28t-0.5 26t-0.5 17q-1 7 -1 12q17 8 43 14q22 5 53.5 10
t73.5 5q61 0 104 -13t70 -36t39 -54.5t12 -69.5q0 -47 -15 -79.5t-39 -53.5t-54 -32.5t-59 -15.5q22 -1 53 -7t59.5 -24.5t48.5 -52.5t20 -90z" />
    <glyph glyph-name="four" unicode="4" horiz-adv-x="611" 
d="M375 236v378q-35 -19 -65.5 -48t-56 -64t-46 -72.5t-35 -73.5t-23 -67.5t-9.5 -52.5h235zM567 149q-9 2 -21 5q-11 2 -26.5 4t-37.5 2h-10q0 -36 3 -75.5t19 -68.5l9 -17q-7 0 -18 1q-10 0 -24.5 0.5t-36.5 0.5q-23 0 -38.5 -0.5t-24.5 -0.5q-11 -1 -17 -1l9 17
q14 26 18 63t4 81h-326q1 68 20.5 134.5t51 127.5t73 113.5t88 92t95.5 63t95 26.5v-481h10q23 0 38.5 1.5t26.5 3.5q12 3 20 6q-1 -6 -1 -13v-36v-38q0 -7 1 -11z" />
    <glyph glyph-name="five" unicode="5" horiz-adv-x="551" 
d="M486 181q0 -79 -26 -127.5t-64.5 -75t-83 -35.5t-80.5 -9q-59 0 -95.5 13.5t-56.5 30t-27.5 32t-7.5 20.5q14 -9 35 -15q18 -6 46 -10.5t68 -4.5q99 0 141.5 43.5t42.5 128.5q0 44 -11 74t-32 48.5t-51 26.5t-67 8q-35 0 -60 -4t-42 -9q-19 -6 -32 -13v362h240
q45 0 71.5 1.5t40.5 3.5q17 3 23 6q-1 -6 -1 -13v-37v-39q0 -7 1 -12q-6 2 -23 5q-14 2 -40.5 4t-71.5 2h-163v-205q9 2 24 5q13 2 32.5 4t46.5 2q106 0 164.5 -54.5t58.5 -156.5z" />
    <glyph glyph-name="six" unicode="6" horiz-adv-x="591" 
d="M532 228q0 -55 -14.5 -99t-43.5 -75.5t-72 -48.5t-100 -17q-59 0 -104 19t-75.5 60.5t-46 106t-15.5 155.5t15 155.5t39.5 108.5t55 70.5t61.5 40.5t59.5 18t48.5 4q54 0 86 -13.5t49 -29.5q20 -19 28 -43q-14 7 -32 12q-16 5 -37.5 9t-50.5 4q-39 0 -77.5 -10.5
t-69 -45.5t-50 -100.5t-19.5 -176.5q0 -81 7.5 -135t23.5 -86.5t42 -46t64 -13.5q26 0 48.5 9t39 28.5t26 51t9.5 77.5q0 75 -27 115t-84 40q-23 0 -39 -5.5t-26 -12.5t-15 -13.5t-6 -7.5q0 13 5 30t19 32.5t39 26.5t65 11q85 0 129.5 -55t44.5 -150z" />
    <glyph glyph-name="seven" unicode="7" horiz-adv-x="505" 
d="M475 665q0 -32 -6 -61.5t-17 -59t-26 -61t-33 -66.5l-76 -151q-22 -43 -34 -81.5t-18 -72t-7.5 -63t-1.5 -54.5q0 -17 2 -28t5 -18q3 -8 7 -12q-7 0 -17 1q-8 0 -19 0.5t-25 0.5q-15 0 -27 -0.5t-20 -0.5q-10 -1 -17 -1q0 41 2.5 80.5t11.5 81.5t27 89.5t49 103.5l80 148
q10 18 21 38.5t20 40.5t14.5 37.5t5.5 29.5l-206 1q-72 0 -110 -22q-20 -12 -27.5 -18.5t-8.5 -8.5q0 2 1.5 20t1.5 53q0 17 -0.5 29t-0.5 20q-1 10 -1 16q5 -3 22 -6q14 -2 41 -3.5t72 -1.5h315z" />
    <glyph glyph-name="eight" unicode="8" horiz-adv-x="578" 
d="M518 165q0 -19 -6.5 -48.5t-30 -58t-69.5 -49t-125 -20.5q-61 0 -104.5 12.5t-71 34.5t-40.5 52.5t-13 65.5q0 38 11.5 66.5t29 48.5t38.5 32.5t39.5 20t31.5 10t15 2.5l-25 15q-20 11 -41.5 25.5t-39.5 34t-29.5 45.5t-11.5 60q0 35 12.5 65t38.5 52.5t66 35t95 12.5
q54 0 93.5 -12.5t64.5 -33.5t37 -49.5t12 -61.5q0 -51 -21 -82.5t-46.5 -48.5t-47.5 -23.5t-25 -6.5l26 -15q24 -14 48.5 -30t44 -37t32 -48.5t12.5 -65.5zM401 518q0 14 -3.5 32t-15.5 33.5t-35 26.5t-61 11q-41 0 -64 -10.5t-34.5 -25.5t-14.5 -31t-3 -27q0 -20 6 -35
t18 -27.5t29.5 -24.5t39.5 -25l56 -33q23 9 41 27q15 15 28 41t13 68zM417 159q0 41 -27 68.5t-75 54.5l-58 34q-28 -9 -49 -28q-18 -17 -33 -45.5t-15 -73.5q0 -38 12 -62t30.5 -37t41.5 -17.5t45 -4.5q15 0 37 2.5t42.5 13.5t34.5 33.5t14 61.5z" />
    <glyph glyph-name="nine" unicode="9" horiz-adv-x="591" 
d="M526 334q0 -91 -14.5 -156t-38 -109t-54 -70.5t-61.5 -40.5t-61 -18t-53 -4q-56 0 -89 14.5t-50 31.5q-20 20 -27 46q13 -9 31 -15q15 -5 37 -9.5t51 -4.5q41 0 81 10t71.5 44.5t51 100.5t19.5 177q0 80 -7 134t-23.5 86.5t-42.5 46t-63 13.5q-26 0 -48.5 -9t-39 -28.5
t-26 -51.5t-9.5 -78q0 -75 27.5 -115t84.5 -40q23 0 39 5.5t26 12.5t15 13t6 7q0 -12 -5 -29t-19 -32.5t-39 -26.5t-65 -11q-85 0 -130 55.5t-45 150.5q0 55 14.5 99t43.5 75t72 48t100 17q59 0 104 -18.5t75 -59t45.5 -105t15.5 -156.5z" />
    <glyph glyph-name="colon" unicode=":" horiz-adv-x="250" 
d="M206 65l-81 -82l-81 82l81 81zM206 494l-81 -82l-81 82l81 82z" />
    <glyph glyph-name="semicolon" unicode=";" horiz-adv-x="248" 
d="M200 15q0 -42 -14.5 -71t-37 -47t-49 -25.5t-50.5 -7.5q1 0 9.5 4.5t18 16.5t17 32t7.5 52q0 29 -9 47.5t-20 29.5q-12 13 -28 20l80 80q21 -11 35.5 -27.5t23.5 -35t13 -36.5t4 -32zM206 494l-81 -82l-81 82l81 82z" />
    <glyph glyph-name="less" unicode="&#x3c;" 
d="M42 323v67l558 249v-78l-463 -203l463 -202v-82z" />
    <glyph glyph-name="equal" unicode="=" 
d="M45 444v69h558v-69h-558zM45 194v69h558v-69h-558z" />
    <glyph glyph-name="greater" unicode="&#x3e;" 
d="M48 74v82l463 202l-463 203v78l558 -249v-67z" />
    <glyph glyph-name="question" unicode="?" horiz-adv-x="486" 
d="M287 63l-81 -80l-82 80l82 80zM436 546q0 -57 -28 -105.5t-76 -101.5l-51 -57q-13 -14 -21 -23.5t-13 -17.5t-7 -15t-2 -16q0 -15 7 -25l8 -10h-90q-1 4 -2 11t-1 18q1 32 11 55.5t35 53.5l71 89q27 34 38 65.5t11 67.5q0 60 -30.5 91.5t-95.5 31.5q-35 0 -60 -6t-44 -17
t-33.5 -27t-28.5 -37q0 7 1 17q0 8 0.5 20t0.5 27t-0.5 25.5t-0.5 18.5q-1 8 -1 14q16 8 42 15q21 5 54 10t79 5q117 0 172 -47.5t55 -129.5z" />
    <glyph glyph-name="at" unicode="@" horiz-adv-x="1058" 
d="M1001 379q0 -54 -10 -106.5t-31 -99t-53 -83.5t-75 -59q-26 -14 -52 -22t-48.5 -12.5t-40.5 -5.5t-28 -1q-16 0 -29 2t-22.5 8t-14.5 17t-5 30q0 14 2 31t5 32t5.5 26.5t3.5 15.5q-19 -55 -42 -87t-46.5 -49t-47 -22t-42.5 -5q-44 0 -74 15t-49 43t-27 66.5t-8 85.5
q0 22 2.5 58.5t12 79t27 85.5t48 78.5t75.5 57.5t109 22q33 0 56.5 -7.5t39.5 -15.5q18 -11 30 -23l85 47q-4 -21 -9 -60q-5 -33 -13 -87.5t-19 -137.5l-32 -250q58 1 102 27t73 70.5t43.5 103t14.5 124.5q0 79 -23 143.5t-68.5 110t-113 70t-155.5 24.5q-101 0 -179 -31.5
t-131.5 -90t-81.5 -142t-28 -188.5q0 -46 6.5 -94t23 -94t45.5 -86.5t74 -71t108.5 -48.5t148.5 -18q71 0 125 12t93.5 30t66 39.5t43 40t24 32t8.5 15.5q0 -27 -14.5 -67t-55 -77t-113.5 -63.5t-191 -26.5q-126 0 -216.5 36.5t-148 100t-84.5 149.5t-27 186q0 70 14.5 144
t50.5 141.5t97 122t154 84.5q47 15 95.5 21.5t105.5 6.5q84 0 162 -24.5t138 -74t95.5 -125.5t35.5 -179zM649 493q-8 7 -20 12q-11 5 -28 8.5t-43 3.5q-43 0 -73 -16.5t-51 -43.5t-33.5 -61t-19.5 -69t-9 -67.5t-2 -56.5q0 -68 22 -105.5t75 -37.5q10 0 25.5 2.5t33.5 12.5
t38 30t40 54z" />
    <glyph glyph-name="A" unicode="A" horiz-adv-x="628" 
d="M631 -1q-16 0 -33 1q-14 0 -31 0.5t-32 0.5q-23 0 -40.5 -0.5t-29.5 -0.5q-14 -1 -25 -1q10 7 21 21t11 42q0 26 -11.5 70.5t-28.5 100.5l-17 58h-232q-17 -64 -28 -121.5t-11 -97.5q0 -37 8.5 -51.5t18.5 -21.5q-10 0 -23 1q-11 0 -28.5 0.5t-39.5 0.5q-20 0 -34.5 -0.5
t-25.5 -0.5q-12 -1 -21 -1q11 9 19.5 21t17.5 35q5 12 15 49t24.5 90t33 118t42.5 133.5t53.5 137.5t63.5 130q5 -1 14 -1q8 -1 19.5 -1h28.5h29.5t20.5 1q10 0 16 1l141 -478q15 -52 26.5 -90.5t22 -66t21 -47t24.5 -32.5zM325 611q-6 19 -9 35q-2 8 -2 15
q-10 -16 -23.5 -46.5t-28.5 -71t-30.5 -88t-29.5 -96.5h195z" />
    <glyph glyph-name="B" unicode="B" horiz-adv-x="608" 
d="M448 206q0 45 -15 73t-39.5 44.5t-56.5 24t-65 10.5q16 4 42 12t50.5 25.5t42 48t17.5 79.5q0 43 -12 69t-33.5 39.5t-51.5 17.5t-65 4q-10 0 -19.5 -0.5t-17.5 -0.5q-9 -1 -17 -1v-590q4 -1 13 -1q8 -1 20.5 -1h32.5q38 0 64.5 4t38.5 11q9 4 21 11.5t23 22t19 38
t8 60.5zM556 198q0 -40 -10.5 -70t-27 -51.5t-36.5 -35.5t-40 -22q-39 -17 -83 -18.5t-94 -1.5q-26 0 -54.5 1t-54.5 1q-21 0 -36 -0.5t-25 -0.5q-11 -1 -19 -1l9 17q5 9 8.5 17.5t6.5 22t5 34.5t3 56.5t1.5 87.5t0.5 127q0 109 -1 169.5t-3.5 92t-7.5 45t-13 28.5l-9 17
q12 -1 23 -1q10 -1 22 -1h24q11 0 26.5 0.5t32 0.5t32 0.5t26.5 0.5q25 0 65.5 -1.5t77.5 -11.5q59 -14 92.5 -52.5t33.5 -108.5q0 -45 -13 -75.5t-32.5 -50t-42 -29.5t-41.5 -13q14 -1 40 -7t51.5 -24.5t44 -52t18.5 -89.5z" />
    <glyph glyph-name="C" unicode="C" horiz-adv-x="632" 
d="M593 22q-21 -9 -48 -15q-23 -5 -57.5 -9.5t-77.5 -4.5q-81 0 -138.5 18t-96.5 47.5t-62.5 67t-36 77t-16 77.5t-3.5 67q0 180 94 276t266 96q48 0 81 -5t54 -10q25 -6 41 -14q-1 -7 -1 -17q-1 -8 -1 -20v-28v-28.5t1 -21.5q0 -11 1 -20q-16 23 -32 41.5t-35.5 31
t-45.5 19t-62 6.5q-38 0 -82.5 -11t-82.5 -43t-63 -91t-25 -156q0 -60 11 -113.5t39 -93t76.5 -63t122.5 -23.5q37 0 64 7t47 20t36 31.5t32 41.5q-1 -10 -1 -22q-1 -11 -1 -24.5v-29.5v-25.5t1 -19.5q0 -10 1 -16z" />
    <glyph glyph-name="D" unicode="D" horiz-adv-x="727" 
d="M562 360q0 96 -24.5 153.5t-64 88t-90.5 40t-103 9.5q-15 0 -27.5 -0.5t-21.5 -1.5q-11 -1 -20 -1v-584q10 -1 21 -2q9 -1 21 -1h24q49 0 100 8.5t92 39t67 90t26 161.5zM671 372q0 -92 -20.5 -155.5t-53.5 -105t-75 -64.5t-85.5 -34t-85 -13t-72.5 -2q-32 0 -62 1.5
t-59 1.5q-21 0 -36 -0.5t-26 -0.5q-12 -1 -20 -1l9 17q5 9 9 17.5t6.5 22t4.5 34.5t3 56.5t1.5 87.5t0.5 127q0 109 -1 169.5t-3.5 92t-7.5 45t-13 28.5l-9 17q8 -1 20 -1q11 -1 26 -1h36q30 0 67 1.5t69 1.5q25 0 63 -2t80 -12.5t84 -31.5t75 -59t54 -96t21 -141z" />
    <glyph glyph-name="E" unicode="E" horiz-adv-x="559" 
d="M502 154q-2 -14 -4 -32q-2 -16 -3.5 -39t-3.5 -52l-1 -22q-14 -3 -37 -6q-20 -2 -50 -3.5t-72 -1.5t-73 2t-53.5 7t-38.5 13.5t-30 20.5q-15 14 -24 30t-13.5 36t-6 45.5t-1.5 58.5v277q0 32 1.5 58.5t6.5 48t14 39t25 31.5q14 12 30 21t38.5 15t53.5 9t73 3
q36 0 64.5 -1t48.5 -3q23 -2 41 -3q-1 -5 -1 -12v-39q0 -30 1.5 -44.5t1.5 -16.5l-8 8t-27 19q-16 9 -45.5 18.5t-76.5 9.5q-16 0 -33.5 -1t-34 -5.5t-31 -13t-23.5 -23.5q-6 -9 -9.5 -18t-5.5 -22.5t-3 -33t-1 -48.5v-95h125q35 0 63.5 4t46.5 15q20 11 27 17.5t9 8.5
q0 -1 -1.5 -21.5t-1.5 -56.5q0 -35 1.5 -55t1.5 -22q-1 1 -8 7.5t-28 19.5q-18 11 -46.5 15t-63.5 4h-125v-101q0 -29 0.5 -48.5t2.5 -33t5.5 -22.5t9.5 -18q9 -15 24 -23t32 -12t34 -4.5t31 -0.5q39 0 65.5 7t45.5 19t33 29t28 37z" />
    <glyph glyph-name="F" unicode="F" horiz-adv-x="506" 
d="M476 659q0 -30 1.5 -44.5t1.5 -16.5l-8 8t-28 20q-15 9 -36 16t-67 7q-15 0 -32.5 -1t-34 -5.5t-31 -13t-23.5 -23.5q-6 -9 -9.5 -18t-5.5 -22.5t-3 -33t-1 -48.5v-98h109q35 0 63.5 4t46.5 15q20 11 27 17.5t9 8.5q0 -1 -1.5 -21t-1.5 -56q0 -35 1.5 -55t1.5 -22
q-1 1 -8 7.5t-28 19.5q-18 11 -46.5 15t-63.5 4h-109q0 -97 1 -151.5t3.5 -84t7.5 -43t13 -28.5l10 -17q-8 0 -20 1q-11 0 -26.5 0.5t-37.5 0.5q-23 0 -38.5 -0.5t-26.5 -0.5q-12 -1 -20 -1l9 17q5 9 9 17.5t6.5 22t4.5 34.5t3 56.5t1.5 87.5t0.5 127v127q0 32 1.5 58.5
t6.5 48t14 39t25 31.5q14 12 30 21t38.5 15t53 9t72.5 3q39 0 65 -0.5t42 -0.5q18 -1 29 -1q-1 -6 -1 -13v-39z" />
    <glyph glyph-name="G" unicode="G" horiz-adv-x="695" 
d="M638 213q0 -64 -22.5 -106.5t-59.5 -67.5t-85.5 -35.5t-99.5 -10.5q-57 0 -113 17.5t-100.5 58t-72.5 108t-28 166.5q0 183 95 279.5t268 96.5q48 0 81.5 -5t55.5 -10q26 -6 42 -14q-1 -7 -1 -17q-1 -8 -1 -20v-28v-28.5t1 -21.5q0 -11 1 -20q-17 24 -32.5 42t-35.5 30.5
t-46.5 19t-63.5 6.5q-39 0 -83.5 -10t-83 -42.5t-64 -92t-25.5 -158.5q0 -64 12 -117.5t37.5 -92t65 -60t93.5 -21.5q21 0 49 3.5t52.5 17.5t41.5 42t17 77q0 54 -25.5 85.5t-85.5 31.5q-20 0 -34.5 -4t-24.5 -9q-11 -5 -20 -12q0 43 39 67t96 24q81 0 120.5 -46t39.5 -123z
" />
    <glyph glyph-name="H" unicode="H" horiz-adv-x="749" 
d="M673 -1q-8 0 -19 1q-10 0 -26 0.5t-38 0.5q-23 0 -38 -0.5t-26 -0.5q-12 -1 -20 -1l9 17q7 14 12 27t8 43.5t4 87t1 156.5h-331q0 -67 0.5 -113.5t1.5 -78t2.5 -51t4.5 -32t7 -21t9 -18.5l9 -17q-8 0 -19 1q-10 0 -26 0.5t-38 0.5q-23 0 -38 -0.5t-26 -0.5q-12 -1 -20 -1
l9 17q5 9 9 17.5t6.5 22t4.5 35t3 56.5t1.5 87t0.5 127q0 109 -1 169.5t-3.5 92t-7.5 45t-13 28.5l-9 17q8 -1 19 -1q10 -1 25.5 -1h38.5h38t26 1q11 0 20 1l-9 -17q-5 -9 -8.5 -17t-6.5 -20t-5 -30.5t-3 -47.5t-1.5 -72.5t-0.5 -104.5h331q0 92 -1 143.5t-4 80t-8 41.5
t-12 27l-9 17q8 -1 19 -1q10 -1 25.5 -1h38.5h38t26 1q11 0 20 1l-9 -17l-9 -18t-6.5 -21.5t-4.5 -35t-3 -56.5t-1.5 -87t-0.5 -127q0 -109 1 -169.5t3.5 -92t7.5 -45t13 -28.5z" />
    <glyph glyph-name="I" unicode="I" horiz-adv-x="319" 
d="M243 -1q-8 0 -19 1q-10 0 -26 0.5t-38 0.5q-23 0 -38 -0.5t-26 -0.5q-12 -1 -20 -1l9 17q5 9 9 17.5t6.5 22t4.5 35t3 56.5t1.5 87t0.5 127q0 109 -1 169.5t-3.5 92t-7.5 45t-13 28.5l-9 17q8 -1 19 -1q10 -1 25.5 -1h38.5h38t26 1q11 0 20 1l-9 -17l-9 -18t-6.5 -21.5
t-4.5 -35t-3 -56.5t-1.5 -87t-0.5 -127q0 -109 1 -169.5t3.5 -92t7.5 -45t13 -28.5z" />
    <glyph glyph-name="J" unicode="J" horiz-adv-x="321" 
d="M244 696q-5 -9 -9 -17.5t-6.5 -22.5t-4.5 -37.5t-3 -63.5t-1.5 -100t-0.5 -147q0 -102 0.5 -163t1.5 -93q1 -38 3 -52q-6 -55 -26.5 -95t-47.5 -66.5t-56.5 -39t-53.5 -12.5q27 24 42.5 57t24 74t11 89t2.5 103v250q0 109 -1 169.5t-3.5 92.5t-7.5 45.5t-13 28.5l-9 17
q8 -1 19 -1q10 -1 25.5 -1h38.5h38t26 1q11 0 20 1z" />
    <glyph glyph-name="K" unicode="K" horiz-adv-x="638" 
d="M243 -1q-8 0 -19 1q-10 0 -26 0.5t-38 0.5q-23 0 -38 -0.5t-26 -0.5q-12 -1 -20 -1l9 17q5 9 9 17.5t6.5 22t4.5 35t3 56.5t1.5 87t0.5 127q0 109 -1 169.5t-3.5 92t-7.5 45t-13 28.5l-9 17q8 -1 19 -1q10 -1 25.5 -1h38.5h38t26 1q11 0 20 1l-9 -17l-9 -18t-6.5 -21.5
t-4.5 -35t-3 -56.5t-1.5 -87t-0.5 -127q0 -109 1 -169.5t3.5 -92t7.5 -45t13 -28.5zM646 -2q-11 0 -26 1q-13 0 -32 0.5t-44 0.5h-68q-3 34 -12 69q-8 30 -22.5 67t-40.5 74q-30 42 -62 71t-58 47q-31 21 -60 35q64 41 115 88q21 20 42 43t37 49t26 53.5t10 56.5
q0 28 -11 41.5t-19 18.5q12 -1 28 -2q14 -1 32 -1h41h53.5t35.5 1q16 1 25 2q-12 -8 -25 -18.5t-29 -27.5q-24 -26 -39 -58.5t-36.5 -69t-57 -76t-101.5 -78.5q20 -9 41 -23q18 -12 40.5 -32.5t45.5 -49.5q24 -31 40.5 -64.5t29.5 -65t25 -59.5t26 -47q11 -15 22.5 -26.5
t27.5 -19.5z" />
    <glyph glyph-name="L" unicode="L" horiz-adv-x="491" 
d="M465 147q-1 -11 -3 -28q-2 -14 -4 -36.5t-4 -52.5l-2 -30h-299q-20 0 -35 -0.5t-24 -0.5h-18l9 17q5 9 9 17.5t6.5 22t4.5 35t3 56.5t1.5 87t0.5 127q0 109 -1 169.5t-3.5 92t-7.5 45t-13 28.5l-9 17q8 -1 19 -1q10 -1 25.5 -1h38.5h38.5t26.5 1q12 0 20 1l-9 -17
q-8 -14 -12.5 -28t-7.5 -46t-4 -93t-1 -169v-296h78q46 0 74.5 5.5t46.5 16t30 26t26 35.5z" />
    <glyph glyph-name="M" unicode="M" horiz-adv-x="833" 
d="M757 -1q-7 0 -18 1q-10 0 -25.5 0.5t-37.5 0.5q-23 0 -39 -0.5t-26 -0.5q-12 -1 -19 -1l10 17q5 9 9 17t6.5 21.5t4.5 35t3 57t1.5 87.5t0.5 127v307q-1 -5 -6 -26t-13 -41l-202 -483l-199 479q-4 9 -7.5 20t-6.5 21.5l-5 17.5t-2 9v-314q0 -109 1 -169.5t3.5 -92
t7.5 -45t13 -28.5l9 -17q-8 0 -19 1q-9 0 -23 0.5t-32 0.5q-19 0 -32.5 -0.5t-21.5 -0.5q-10 -1 -16 -1l9 17q4 9 8 17.5t6.5 22t4.5 34.5t3.5 56.5t2 87.5t0.5 127q0 109 -1 169.5t-3.5 92t-7.5 45t-13 28.5l-9 17q13 -1 28 -1q13 -1 30.5 -1h39.5h36.5t27.5 1q13 1 23 2
l145 -352q5 -11 7 -18t4 -12t2 -8q0 2 2 7q2 4 4 11.5t7 18.5l148 351q10 -1 23 -1q11 -1 27 -1h36h37t29 1q14 1 25 2l-9 -17q-5 -9 -8.5 -17.5t-6.5 -22t-5 -34.5t-3 -56.5t-1.5 -87.5t-0.5 -127q0 -109 1 -169.5t3.5 -92t7.5 -45t13 -28.5z" />
    <glyph glyph-name="N" unicode="N" horiz-adv-x="739" 
d="M661 696q-5 -9 -8.5 -17t-6.5 -21.5t-5 -35t-3 -57t-1.5 -87.5t-0.5 -127v-353q-7 0 -16 1q-8 1 -19.5 1.5t-25.5 0.5q-17 0 -29.5 -0.5t-20.5 -1.5q-10 -1 -17 -1l-297 561q-12 22 -18.5 43t-7.5 26v-277q0 -109 1 -169.5t3.5 -92t7.5 -45t13 -28.5l9 -17q-7 0 -18 1
q-9 0 -23 0.5t-32 0.5q-19 0 -32.5 -0.5t-22.5 -0.5q-11 -1 -17 -1l9 17q5 9 8.5 17t6.5 21.5t5 35t3 57t1.5 87.5t0.5 127q0 109 -1 169.5t-3.5 92t-7.5 45t-13 28.5l-9 17q7 -1 19 -1q11 -1 27.5 -1h40.5h33.5t23.5 1q11 0 18 1l296 -559q8 -16 13.5 -29t8.5 -22
q4 -11 5 -20v278q0 109 -1 169.5t-3.5 92t-7.5 45t-13 28.5l-9 17q7 -1 18 -1q9 -1 22.5 -1h32.5h32.5t22.5 1q11 0 17 1z" />
    <glyph glyph-name="O" unicode="O" horiz-adv-x="756" 
d="M589 354q0 84 -19 140t-49 90.5t-67 50.5t-72 22q-36 -6 -74 -23t-69.5 -52t-52 -90.5t-20.5 -137.5q0 -84 19 -140t49 -90.5t67 -50.5t73 -22q35 6 73 23t69.5 52t52 90.5t20.5 137.5zM699 355q0 -76 -23.5 -141t-66.5 -114t-102.5 -79.5t-132.5 -36.5
q-79 7 -138.5 38.5t-99 80t-59.5 112.5t-20 138q0 76 23.5 141.5t66 114t102.5 79t133 36.5q79 -8 138 -39t99 -79.5t60 -113t20 -137.5z" />
    <glyph glyph-name="P" unicode="P" horiz-adv-x="569" 
d="M535 508q0 -56 -15.5 -96.5t-42 -67t-61 -39t-72.5 -12.5q-27 0 -45.5 5.5t-29.5 13.5t-16 16.5t-5 15.5q2 -1 6 -1h18q28 0 56 4.5t50 21t35.5 48t13.5 85.5q0 36 -7 64t-24 47.5t-47 29.5t-75 10q-14 0 -25.5 -0.5t-20.5 -0.5q-11 -1 -19 -1v-312q0 -104 1 -162
t3.5 -88.5t7.5 -44t13 -28.5l9 -17q-8 0 -19 1q-10 0 -26 0.5t-38 0.5q-23 0 -38 -0.5t-26 -0.5q-12 -1 -20 -1l9 17q5 9 8.5 17.5t6.5 22t5 34.5t3 56.5t1.5 87.5t0.5 127q0 109 -1 169.5t-3.5 92t-7.5 45t-13 28.5l-9 17q7 -1 18 -1q9 -1 21.5 -1h28.5q32 0 67 1t63 1
q25 0 54 -1.5t58 -7.5t56 -18.5t47.5 -35.5t33 -57.5t12.5 -84.5z" />
    <glyph glyph-name="Q" unicode="Q" horiz-adv-x="749" 
d="M582 358q0 84 -17 140.5t-45.5 91t-66 49t-79.5 14.5q-40 0 -77.5 -15t-66 -50.5t-46 -93.5t-17.5 -144q0 -84 17 -141t45.5 -91.5t66 -49t79.5 -14.5q40 0 77.5 15.5t66.5 51t46 93.5t17 144zM692 369q0 -20 -2 -53.5t-10 -73t-25 -81t-47 -76.5t-75 -60t-110 -32v-6
q0 -44 1.5 -74t5 -50t8 -33.5t10.5 -25.5l9 -17q-7 0 -18 1q-10 0 -25.5 0.5t-37.5 0.5q-23 0 -38 -0.5t-25 -0.5q-11 -1 -19 -1l9 17q6 11 10.5 24.5t8 33.5t5 50t1.5 75v6q-66 7 -116.5 34.5t-85 72.5t-52 105.5t-17.5 133.5q0 22 2.5 58.5t12.5 79t30.5 85.5t56 78.5
t88.5 57.5t128 22q76 0 135.5 -25.5t99.5 -71.5t61 -110.5t21 -143.5z" />
    <glyph glyph-name="R" unicode="R" horiz-adv-x="602" 
d="M575 -1q-9 0 -20 1q-10 0 -24 0.5t-31 0.5q-19 0 -32 -0.5t-22 -0.5q-11 -1 -18 -1q2 3 5 7q2 4 3.5 9.5t1.5 13.5q0 49 -15 102t-41.5 99t-61.5 80t-75 45q32 3 63.5 11t56.5 26t40.5 49t15.5 79q0 44 -13 70.5t-35 40.5t-52 18t-64 4q-11 0 -19.5 -0.5t-15.5 -0.5
q-8 -1 -15 -1v-330q0 -94 1 -148t3.5 -84t7.5 -44t13 -29l9 -17q-8 0 -19 1q-10 0 -25.5 0.5t-37.5 0.5t-37.5 -0.5t-25.5 -0.5q-12 -1 -20 -1l9 17q5 9 8.5 17t6.5 21.5t5 35t3 57t1.5 87.5t0.5 127q0 109 -1 169.5t-3.5 92t-7.5 45t-13 28.5l-9 17q9 -1 20 -1
q9 -1 21.5 -1h28.5q22 0 52.5 1t53.5 1q55 0 105 -5.5t88 -24.5t61 -55.5t23 -97.5q0 -17 -4.5 -44t-20 -55t-45.5 -51.5t-81 -32.5q39 -15 66 -43.5t45 -63.5t29 -72.5t19 -70t14.5 -57t15.5 -33.5z" />
    <glyph glyph-name="S" unicode="S" horiz-adv-x="516" 
d="M463 173q0 -39 -13 -72t-40 -57t-69.5 -37.5t-101.5 -13.5q-44 0 -75.5 4.5t-51.5 9.5q-24 6 -40 15q0 7 1 16q0 8 0.5 19t0.5 26t-0.5 28.5t-0.5 24.5q-1 12 -1 22q16 -23 32 -41t34.5 -31t42 -20t55.5 -7q17 0 39.5 2.5t42.5 12.5t34 30t14 56q0 17 -3.5 32t-12.5 29
t-25 28.5t-41 30.5l-80 47q-30 18 -56.5 36.5t-46 42t-30.5 54.5t-11 74q0 36 12 69.5t39 59t70.5 41t106.5 15.5q44 0 76.5 -5t53.5 -10q25 -7 42 -15q-1 -7 -1 -17q-1 -8 -1 -20v-27v-29t1 -22q0 -11 1 -20q-20 29 -39.5 48t-40.5 30.5t-44 16t-50 4.5q-58 0 -94.5 -25
t-36.5 -83q0 -26 8.5 -45t22 -34t31 -26.5t35.5 -22.5l65 -39q35 -21 62.5 -40.5t46 -42.5t28 -52t9.5 -70z" />
    <glyph glyph-name="T" unicode="T" horiz-adv-x="541" 
d="M528 660q0 -30 1.5 -44.5t1.5 -16.5q-1 1 -8 7.5t-28 19.5q-18 11 -46.5 17.5t-63.5 6.5h-65v-299q0 -109 1 -169.5t3.5 -92t7.5 -45t13 -28.5l9 -17q-8 0 -19 1q-10 0 -26 0.5t-38 0.5q-23 0 -38 -0.5t-26 -0.5q-12 -1 -20 -1l9 17q5 9 9 17.5t6.5 22t4.5 35t3 56.5
t1.5 87t0.5 127v289h-65q-35 0 -63.5 -6.5t-46.5 -17.5q-20 -12 -27.5 -18.5t-8.5 -8.5q0 1 1.5 16t1.5 45q0 14 -0.5 23t-0.5 16v13h517q-1 -6 -1 -13v-39z" />
    <glyph glyph-name="U" unicode="U" horiz-adv-x="728" 
d="M648 697q-5 -9 -9 -17.5t-6.5 -22t-4.5 -34.5t-3 -56.5t-1.5 -87.5t-0.5 -127q0 -89 2 -143.5t5 -85.5t7.5 -45t9.5 -22q-29 -19 -69 -34q-34 -13 -82.5 -23t-111.5 -10q-99 0 -156 26t-85 71.5t-35 107.5t-7 134q0 95 4 165.5t4 116.5q0 28 -6 51t-32 37q7 3 18 7
q8 3 20 5.5t26 2.5q28 0 44.5 -6t25 -17t10.5 -25.5t2 -30.5q0 -13 -2 -45.5t-4 -72.5t-4 -82.5t-2 -75.5q0 -66 4 -121t22 -95.5t54.5 -63t101.5 -22.5q38 0 64 3t42 8q18 4 30 11v298q0 103 -1 160.5t-3.5 88.5t-7.5 44t-13 28l-9 17q8 -1 20 -1q11 -1 26 -1h38h37.5
t26.5 1q12 0 20 1z" />
    <glyph glyph-name="V" unicode="V" horiz-adv-x="628" 
d="M633 713q-11 -9 -19.5 -21t-17.5 -35q-6 -13 -15.5 -49.5t-23 -89.5t-32.5 -118t-42.5 -133.5t-52.5 -137.5t-64 -130q-8 0 -18 1q-8 0 -19 0.5t-25 0.5q-13 0 -24.5 -0.5t-19.5 -0.5q-11 -1 -19 -1l-152 477q-17 52 -29 90.5t-23.5 66.5t-22.5 47t-25 33q11 -1 25 -1
q12 -1 29.5 -1h39.5h44.5t32.5 1q15 0 26 1q-10 -7 -21 -21t-11 -42q0 -26 12 -68.5t29 -98.5l112 -378q5 -19 9 -35q2 -8 3 -14q11 20 28 61t35 93.5t36.5 112.5t33.5 118t24 110t9 89t-8.5 51.5t-18.5 21.5q10 -1 24 -1q12 -1 29 -1h40h34t26 1q12 0 22 1z" />
    <glyph glyph-name="W" unicode="W" horiz-adv-x="1037" 
d="M1033 713q-11 -9 -19 -21t-18 -35q-5 -13 -13.5 -48.5t-20 -87.5t-27 -116t-35 -133t-43.5 -139t-53 -134q-7 0 -17 1q-8 0 -19.5 0.5t-25.5 0.5q-16 0 -28 -0.5t-20 -0.5q-10 -1 -18 -1l-149 585q-5 18 -6.5 33.5t-1.5 16.5q-1 -7 -3 -15q-2 -7 -3.5 -16.5t-3.5 -19.5
l-144 -584q-9 0 -20 1q-9 0 -21.5 0.5t-27.5 0.5t-28 -0.5t-22 -0.5q-11 -1 -19 -1l-133 477q-15 52 -26.5 91t-22 66.5t-21.5 46.5t-25 33q11 -1 25 -1q12 -1 29 -1h39h44t32 1q15 0 26 1q-10 -7 -21 -21t-11 -42q0 -26 11 -69.5t25 -99.5l97 -376q2 -11 4 -20.5t4 -16.5
q2 -9 2 -15q1 7 3 15q2 7 3.5 16.5t4.5 20.5l149 608q9 -1 20 -1q9 -1 20.5 -1h24.5h23.5t20.5 1q11 0 19 1l154 -607q2 -10 4 -19t4 -16q2 -8 2 -15q16 37 32 87t30.5 105.5t26.5 113t21.5 110t14.5 96t5 71.5q0 37 -8.5 52t-18.5 22q10 -1 23 -1q11 -1 28 -1h40h34.5
t25.5 1q12 0 22 1z" />
    <glyph glyph-name="X" unicode="X" horiz-adv-x="626" 
d="M633 -1q-10 0 -26 1q-14 0 -34.5 0.5t-49.5 0.5t-48.5 -0.5t-32.5 -0.5q-15 -1 -24 -1q22 21 22 46q0 10 -2 19.5t-8 22.5t-18 33.5t-33 53.5l-92 144q-14 -13 -35 -39t-41 -59.5t-34.5 -72.5t-14.5 -78q0 -32 8.5 -47t19.5 -23q-14 0 -29 1q-14 0 -30.5 0.5t-35.5 0.5
q-24 0 -42 -0.5t-30 -0.5q-14 -1 -24 -1q11 8 22 19t24 29q19 29 35 74t50 106q26 46 59.5 84t62.5 61l-93 146q-36 57 -58.5 90.5t-37.5 53t-26.5 30t-26.5 21.5q10 -1 26 -1q14 -1 34.5 -1h49.5h48.5t32.5 1q15 0 24 1q-22 -21 -22 -46q0 -11 2 -20t8 -22t18 -33.5
t33 -53.5l69 -108q10 12 26 33t31 49t25.5 62t10.5 71q0 28 -7.5 43t-19.5 26q12 -1 26 -1q12 -1 28.5 -1h36.5h41t29 1q13 0 23 1q-11 -8 -21 -17t-23 -27q-11 -16 -19 -36.5t-17 -44.5t-20.5 -51.5t-29.5 -57.5q-26 -44 -49.5 -69t-35.5 -35l116 -182q36 -57 58 -90.5
t37 -53t27 -30t27 -21.5z" />
    <glyph glyph-name="Y" unicode="Y" horiz-adv-x="555" 
d="M556 713q-11 -9 -19 -21t-18 -35q-9 -23 -22.5 -62t-34.5 -88t-52.5 -105t-77.5 -111q0 -80 1 -127.5t3.5 -75.5t7.5 -42.5t13 -29.5l9 -17q-8 0 -20 1q-11 0 -26.5 0.5t-37.5 0.5t-37.5 -0.5t-26.5 -0.5q-12 -1 -20 -1l9 17q7 13 12 27t8 41t4 72.5t1 121.5l-115 228
q-32 63 -51 99.5t-32 57t-22.5 30.5t-22.5 20q9 -1 23 -1q12 -1 32 -1h49h48.5t30.5 1q13 0 20 1q-12 -11 -17.5 -23t-5.5 -24q0 -11 1.5 -21t7 -24.5t15.5 -37t27 -58.5l78 -166q14 17 34.5 53t39 78.5t31.5 85t13 74.5q0 29 -8.5 42.5t-18.5 20.5q10 -1 23 -1q11 -1 27 -1
h36h33t26 1q12 0 22 1z" />
    <glyph glyph-name="Z" unicode="Z" horiz-adv-x="585" 
d="M551 149q-2 -13 -4 -31q-2 -15 -4 -37.5t-4 -51.5l-2 -29h-498v17q0 38 8.5 72.5t25 67t39 64.5t51.5 65l187 219q42 48 59 79.5t18 62.5h-219q-35 0 -63.5 -6.5t-46.5 -17.5q-20 -12 -27.5 -18.5t-8.5 -8.5q0 2 1.5 17.5t1.5 46.5q0 14 -0.5 23t-0.5 16q-1 7 -1 13h477
v-12q0 -39 -9.5 -73.5t-26 -67.5t-40.5 -65t-52 -65l-186 -220q-35 -42 -53.5 -74t-20.5 -70h222q46 0 74.5 5.5t46.5 16t30 26.5t26 36z" />
    <glyph glyph-name="bracketleft" unicode="[" horiz-adv-x="333" 
d="M241 -213q-3 2 -9 4q-5 2 -14.5 3.5t-23.5 1.5h-115v982h115q14 0 23.5 1t14.5 3q6 2 9 5q-1 -4 -1 -9v-26v-25q0 -5 1 -10q-3 2 -9 4q-5 2 -14.5 3.5t-23.5 1.5h-36v-878h36q14 0 23.5 1t14.5 3q6 2 9 5q-1 -5 -1 -10v-25v-26q0 -5 1 -9z" />
    <glyph glyph-name="backslash" unicode="\" horiz-adv-x="294" 
d="M195 -212l-166 1000h71l165 -1000h-70z" />
    <glyph glyph-name="bracketright" unicode="]" horiz-adv-x="333" 
d="M138 -204q-15 0 -24 -1.5t-14 -3.5q-6 -2 -9 -4v9q0 5 0.5 11.5t0.5 14.5t-0.5 14t-0.5 11v10q3 -3 9 -5q5 -2 14 -3t24 -1h36v878h-36q-15 0 -24 -1.5t-14 -3.5q-6 -2 -9 -4v10q0 5 0.5 11t0.5 14t-0.5 14.5t-0.5 11.5v9q3 -3 9 -5q5 -2 14 -3t24 -1h116v-982h-116z" />
    <glyph glyph-name="asciicircum" unicode="^" 
d="M545 349h-81l-141 323l-141 -323h-79l188 418h67z" />
    <glyph glyph-name="underscore" unicode="_" horiz-adv-x="500" 
d="M0 -110v41h500v-41h-500z" />
    <glyph glyph-name="grave" unicode="`" horiz-adv-x="414" 
d="M302 624q-14 3 -32 10q-15 6 -35 17t-43 30q-25 20 -40.5 36.5t-23.5 28.5q-11 14 -15 26h106z" />
    <glyph glyph-name="a" unicode="a" horiz-adv-x="574" 
d="M385 265q-8 1 -19 2q-10 1 -25.5 2t-38.5 1q-21 0 -47 -2.5t-48.5 -13t-38 -32t-15.5 -60.5q0 -56 31 -81t77 -25q38 0 62 9.5t38 21.5q16 13 24 31v147zM512 17l-125 -25l4 118q-9 -41 -28 -65t-42 -36.5t-48 -16.5t-46 -4q-53 0 -87 16t-53.5 40t-27 53t-7.5 55
q0 63 24 99t59 53.5t76 21.5t75 4q21 0 39 -1t32 -2q16 -1 28 -2v47q0 30 -2.5 57t-16.5 47q-12 17 -36.5 27.5t-66.5 10.5q-11 0 -29.5 -1.5t-40.5 -8.5t-44 -22t-39 -42q0 7 1 16q0 8 0.5 17.5t0.5 22.5t-0.5 23t-0.5 17q-1 8 -1 14q15 8 40 14q20 5 52.5 9.5t77.5 4.5
q39 0 67.5 -5t48.5 -13t33 -18.5t21 -21.5q23 -29 27 -67t4 -86q0 -16 -1 -64t-1 -127q0 -55 5 -86t19 -56z" />
    <glyph glyph-name="b" unicode="b" horiz-adv-x="628" 
d="M577 294q0 -89 -22 -148t-58 -94t-81.5 -49.5t-91.5 -14.5q-40 0 -68.5 8.5t-46.5 19.5q-21 12 -35 28l-88 -58q2 21 4 58q2 32 3.5 85t1.5 134v252q0 65 -2 105t-5 64t-7.5 37t-10.5 24l-9 17l132 25q-1 -32 -2 -67q-1 -30 -1 -67.5v-75.5v-495q11 -9 27 -15
q14 -6 34 -10.5t49 -4.5q93 0 133 60.5t40 179.5q0 45 -7 85.5t-23.5 71.5t-45.5 49.5t-72 18.5q-26 0 -44 -5.5t-29 -12.5t-16 -13.5t-6 -7.5q0 33 14.5 52.5t35.5 29.5t44 13t41 3q12 0 32.5 -2.5t44 -11.5t47.5 -26.5t43.5 -49t32 -78.5t12.5 -114z" />
    <glyph glyph-name="c" unicode="c" horiz-adv-x="511" 
d="M479 129q0 -25 -10.5 -50t-32.5 -45t-57 -32.5t-84 -12.5q-55 0 -100 18.5t-76.5 54.5t-49 88.5t-17.5 120.5q0 22 3 53.5t12 65.5t26.5 67.5t47 60t72 43t102.5 16.5q42 0 71 -6t48 -14q22 -9 36 -19q-1 -6 -1 -14q-1 -7 -1 -17.5v-24.5v-27t1 -24q0 -12 1 -24
q-20 32 -37 53t-35 33.5t-37.5 17.5t-44.5 5q-31 0 -60 -10.5t-51 -37t-35.5 -72.5t-13.5 -116q0 -45 9 -85t28.5 -70t51.5 -47.5t77 -17.5q43 0 73 10.5t49 23.5q22 15 35 35z" />
    <glyph glyph-name="d" unicode="d" horiz-adv-x="619" 
d="M432 507q-5 1 -14 2q-8 1 -19 1.5t-28 0.5q-28 0 -65 -5.5t-70.5 -29t-56.5 -70t-23 -128.5q0 -75 21 -119t53 -66.5t69.5 -28.5t71.5 -6h25.5t19.5 1q9 1 16 2v446zM545 11q-17 -4 -43 -8q-22 -3 -54.5 -5.5t-77.5 -2.5q-23 0 -55.5 1.5t-68 9t-70.5 24.5t-62.5 48.5
t-44.5 79t-17 117.5q0 20 2.5 50t12.5 63.5t29 66.5t52 59.5t83 43t120 16.5q20 0 34.5 -1t25.5 -2q12 -1 21 -2q0 40 -2 69t-5.5 49t-8 34t-9.5 24l-9 17l132 25q-1 -33 -2 -68q-1 -30 -1 -68v-76v-317q0 -59 1 -98t3 -65.5t4.5 -43t6.5 -31.5z" />
    <glyph glyph-name="e" unicode="e" horiz-adv-x="557" 
d="M401 413q0 13 -2.5 31.5t-13.5 35.5t-33 28.5t-60 11.5q-28 0 -53 -8.5t-43.5 -31t-29.5 -62t-11 -102.5q11 -3 27 -5q14 -2 35 -3.5t51 -1.5q18 0 41 2.5t43.5 13.5t34.5 32t14 59zM504 419q0 -93 -58 -133t-170 -40q-26 0 -48.5 2t-38.5 4q-19 3 -34 7q0 -32 7 -67.5
t26 -65t52 -48.5t85 -19q51 0 84 10.5t53 24.5q23 16 35 36q0 -27 -10.5 -52.5t-33.5 -45t-60 -31.5t-90 -12q-68 0 -115.5 21.5t-77.5 60t-44 90.5t-14 112q0 96 23 155.5t58.5 92.5t78 45t80.5 12q100 0 156 -41.5t56 -117.5z" />
    <glyph glyph-name="f" unicode="f" horiz-adv-x="336" 
d="M238 -1q-8 0 -19 1q-10 0 -25 0.5t-38 0.5t-38 -0.5t-25 -0.5q-11 -1 -19 -1l9 17q7 15 12 30t8 41.5t4 69.5t1 114v222h-59q16 15 27.5 26.5t18.5 24t10 27.5t3 36v180h234q-1 -5 -1 -11v-30v-31q0 -7 1 -12q-8 6 -21 10q-11 4 -29.5 7.5t-47.5 3.5h-41v-170h35
q29 0 47.5 1.5t29.5 3.5q13 3 21 6q-1 -5 -1 -11v-32v-31q0 -6 1 -10q-8 2 -21 5q-11 2 -30 4t-47 2h-35v-220q0 -70 1 -113t4 -70t8 -42.5t13 -30.5z" />
    <glyph glyph-name="g" unicode="g" horiz-adv-x="566" 
d="M461 382q0 -74 -37 -120.5t-128 -75.5q-17 -5 -28 -9.5t-17.5 -9.5t-9 -10.5t-2.5 -12.5q0 -24 19 -28.5t53 -4.5h28q26 0 59 -2.5t62.5 -15.5t49.5 -41t20 -78q0 -43 -14.5 -74t-38 -51.5t-53.5 -33t-59.5 -18.5t-57 -8t-46.5 -2q-82 0 -130.5 13.5t-73.5 34t-32 44.5
t-7 45q0 31 15 52.5t37 34.5t47.5 19t46.5 6q-56 -29 -56 -92q0 -20 6.5 -37.5t24 -31t48.5 -21t81 -7.5q80 0 126 28.5t46 80.5q0 25 -8.5 40t-24 22.5t-37.5 10t-49 2.5h-25q-22 0 -47 1.5t-46 10t-34.5 26.5t-13.5 50q0 24 7.5 41.5t22 30t36 22t48.5 18.5q31 10 50 26
t29 36.5t13 44.5t3 50q0 51 -13.5 79.5t-31.5 42t-37.5 16t-31.5 2.5q-36 0 -57 -15.5t-32 -36.5t-14 -44t-3 -38q0 -24 2.5 -47t10.5 -43t23 -36.5t40 -28.5q-48 0 -81 13t-53.5 35t-29.5 50.5t-9 58.5q0 81 51 132t152 51q20 0 37 -2.5t29 -5.5q14 -4 24 -8h67
q29 0 54.5 1.5t43.5 3.5q21 3 38 6q-1 -5 -1 -11v-31v-29q0 -6 1 -10q-12 3 -28 6q-14 2 -33.5 4t-42.5 2h-34q26 -17 41 -51t15 -72z" />
    <glyph glyph-name="h" unicode="h" horiz-adv-x="633" 
d="M569 -1q-8 0 -19 1q-10 0 -25.5 0.5t-37.5 0.5q-23 0 -38 -0.5t-25 -0.5q-11 -1 -19 -1l9 17q6 11 11 21t8 34t5 69.5t2 127.5q0 41 -1 71.5t-3 53.5t-6.5 39t-11.5 28q-11 17 -32 31.5t-65 14.5q-42 0 -66 -10.5t-38 -23.5q-16 -15 -22 -33v-168q0 -82 1.5 -128t5 -70.5
t8 -35t10.5 -21.5l9 -17q-7 0 -18 1q-10 0 -25.5 0.5t-37.5 0.5q-23 0 -38 -0.5t-25 -0.5q-11 -1 -19 -1l9 17q6 11 10.5 21.5t8 35t5 70.5t1.5 128v244q0 65 -1.5 105t-5 64t-8 37t-10.5 24l-9 17l132 25l-2 -60q-1 -26 -1 -56.5v-57.5v-87q0 -16 -0.5 -29t-1.5 -24
q-1 -12 -1 -23q9 40 27.5 65.5t41.5 39t48 18.5t48 5q57 0 95 -19.5t57 -54.5q8 -16 13.5 -33.5t8.5 -41.5t4 -56t1 -76v-26q0 -82 1.5 -128t4.5 -70.5t7.5 -35t10.5 -21.5z" />
    <glyph glyph-name="i" unicode="i" horiz-adv-x="293" 
d="M242 15q-5 -6 -16 -10q-9 -4 -23.5 -6.5t-36.5 -2.5q-23 0 -36.5 6t-21 17t-9.5 25.5t-2 32.5q0 21 0.5 49.5t1 59t1 60.5t0.5 56q0 65 -1.5 105t-5 64t-8 37t-10.5 24l-9 17l138 25q-3 -20 -5 -56q-2 -31 -3 -83.5t-1 -133.5v-114q0 -46 1.5 -75.5t6.5 -48t14.5 -29
t24.5 -19.5zM230 712l-81 -78l-81 78l81 77z" />
    <glyph glyph-name="j" unicode="j" horiz-adv-x="282" 
d="M206 574q-3 -20 -5 -60q-2 -35 -3.5 -95t-1.5 -157q0 -89 0.5 -141t2.5 -79q1 -32 3 -42q-6 -55 -27 -95t-48 -66.5t-56 -39t-50 -12.5q27 24 42.5 57t24 74t11 89t2.5 103v192q0 65 -1.5 105t-5 64t-8 37t-10.5 24l-9 17zM230 712l-81 -78l-81 78l81 77z" />
    <glyph glyph-name="k" unicode="k" horiz-adv-x="575" 
d="M227 -1q-7 0 -18 1q-10 0 -25.5 0.5t-37.5 0.5q-23 0 -38 -0.5t-25 -0.5q-11 -1 -19 -1l9 17q7 13 11.5 27t7.5 40t4.5 70t1.5 118v221q0 69 -1 111.5t-4 68.5t-8 41.5t-12 30.5l-9 17l132 26q-1 -33 -2 -68q-1 -30 -1 -68v-76v-304q0 -69 1 -112t3.5 -70t7.5 -42.5
t13 -30.5zM576 -1h-23q-11 0 -27 0.5t-36 0.5h-68q-3 28 -11 57q-7 25 -20 55t-33 59q-23 30 -47 52t-45 36t-35.5 21.5t-17.5 8.5q2 1 17 10.5t36 25t45 36.5t44 46t33.5 53t13.5 58q0 23 -8.5 33t-14.5 14q10 -1 23 -1q11 -1 26.5 -1h35.5h45.5t33.5 1q15 0 26 1
q-10 -6 -21.5 -15t-23.5 -22q-19 -20 -32.5 -46t-32.5 -55t-49.5 -60t-82.5 -62q17 -6 35 -17q16 -10 34.5 -25.5t37.5 -40.5q18 -24 32 -50.5t25.5 -52t22 -47.5t22.5 -37q17 -25 40 -36z" />
    <glyph glyph-name="l" unicode="l" horiz-adv-x="291" 
d="M239 15q-8 -8 -30 -13.5t-45 -5.5q-24 0 -38 6t-21.5 17t-9.5 25.5t-2 32.5q0 68 2.5 144.5t2.5 164.5v106q0 69 -1 111.5t-4 68.5t-8 41.5t-12 30.5l-9 17l132 26q-1 -32 -2 -67q-1 -30 -1 -67.5v-75.5v-390q0 -44 1.5 -73t6 -48.5t14 -31t24.5 -19.5z" />
    <glyph glyph-name="m" unicode="m" horiz-adv-x="969" 
d="M905 -1q-8 0 -19 1q-10 0 -25.5 0.5t-37.5 0.5q-23 0 -38 -0.5t-25 -0.5q-11 -1 -18 -1l9 17q6 11 10.5 21.5t8 35t5 70t1.5 127.5t-4 125.5t-19 66.5q-11 17 -32.5 31.5t-66.5 14.5q-35 0 -58.5 -8t-37.5 -18.5t-21 -21.5t-10 -17q4 -25 5.5 -60t1.5 -86v-26
q0 -82 1.5 -128t5 -70.5t8 -35t10.5 -21.5l9 -17q-8 0 -19 1q-10 0 -25.5 0.5t-37.5 0.5q-23 0 -38 -0.5t-25 -0.5q-11 -1 -18 -1l9 17q6 11 10.5 21.5t8 35t5 70t1.5 127.5t-4 125.5t-17 66.5q-11 17 -31.5 31.5t-64.5 14.5q-41 0 -65 -10.5t-37 -22.5q-15 -15 -21 -33
v-171q0 -82 1.5 -128t5 -70.5t8 -35t10.5 -21.5l9 -17q-7 0 -18 1q-10 0 -25.5 0.5t-37.5 0.5q-23 0 -38.5 -0.5t-25.5 -0.5q-11 -1 -19 -1l9 17q6 11 10.5 21.5t8 35t5 70.5t1.5 128v31q0 65 -1.5 105t-5 64t-8 37t-10.5 24l-9 17l130 25l-4 -125q9 40 26.5 65.5t40.5 39.5
t48 19t49 5q63 0 105.5 -27t57.5 -87q10 36 29 58.5t42 35t48.5 17t48.5 4.5q59 0 97 -19.5t57 -54.5q9 -16 14 -33.5t8 -41.5t4 -56t1 -76v-27q0 -82 1.5 -128t5 -70.5t8 -35t10.5 -21.5z" />
    <glyph glyph-name="n" unicode="n" horiz-adv-x="637" 
d="M574 -1q-8 0 -19 1q-10 0 -26 0.5t-38 0.5q-23 0 -38 -0.5t-25 -0.5q-11 -1 -18 -1l9 17q6 11 10.5 21.5t8 35t5 70t1.5 127.5t-4 125.5t-18 66.5q-11 17 -32 31.5t-65 14.5q-42 0 -66 -10.5t-38 -22.5q-16 -15 -22 -33v-171q0 -82 1.5 -128t5 -70.5t8 -35t10.5 -21.5
l9 -17q-7 0 -18 1q-10 0 -25.5 0.5t-37.5 0.5q-23 0 -38.5 -0.5t-25.5 -0.5q-11 -1 -19 -1l9 17q6 11 10.5 21.5t8 35t5 70.5t1.5 128v31q0 65 -1.5 105t-5 64t-8 37t-10.5 24l-9 17l130 25l-4 -125q9 40 27 65.5t41 39.5t48.5 19t49.5 5q57 0 94.5 -19.5t57.5 -54.5
q8 -16 13.5 -33.5t8.5 -41.5t4 -56t1 -76v-26q0 -82 1.5 -128t5 -70.5t8 -35t10.5 -21.5z" />
    <glyph glyph-name="o" unicode="o" horiz-adv-x="635" 
d="M476 283q0 66 -14.5 109t-37 69.5t-50 39.5t-54.5 18q-26 -5 -54.5 -18.5t-52.5 -41t-39.5 -70.5t-15.5 -107q0 -66 14.5 -109t37 -69.5t50 -39.5t54.5 -18q27 5 55.5 18.5t52 41t39 70.5t15.5 107zM582 283q0 -58 -18 -109.5t-52.5 -91.5t-84 -65.5t-113.5 -30.5
q-69 6 -119 32.5t-81.5 66.5t-46.5 91t-15 106q0 58 18 109.5t52.5 91.5t84 65.5t113.5 30.5q70 -6 119.5 -32.5t81 -67t46.5 -91t15 -105.5z" />
    <glyph glyph-name="p" unicode="p" horiz-adv-x="626" 
d="M470 291q0 75 -21 118.5t-52.5 66t-69.5 29t-71 6.5q-15 0 -26 -0.5t-19 -1.5q-9 -1 -16 -1v-446q4 -1 13 -2q7 -1 19 -1.5t29 -0.5q27 0 64 5.5t70.5 29t56.5 70t23 128.5zM574 294q0 -20 -2.5 -50t-12.5 -63.5t-29 -66.5t-52 -59.5t-82.5 -43t-119.5 -16.5
q-20 0 -34.5 0.5t-25.5 1.5q-12 1 -21 3q0 -53 1 -85.5t4 -52.5t8 -32.5t12 -25.5l9 -17q-7 0 -18 1q-10 0 -25.5 0.5t-37.5 0.5q-23 0 -38.5 -0.5t-25.5 -0.5q-11 -1 -19 -1l9 17q7 13 12 26.5t8 45.5t4 92.5t1 169.5v173q0 59 -1 98t-2.5 65.5t-4.5 43t-7 31.5l-3 9
q18 4 44 8q22 3 54 5.5t77 2.5q23 0 55.5 -1.5t68 -9t70.5 -24.5t62.5 -48.5t44.5 -79t17 -117.5z" />
    <glyph glyph-name="q" unicode="q" horiz-adv-x="625" 
d="M569 -213q-8 0 -19 1q-10 0 -26 0.5t-38 0.5q-23 0 -38 -0.5t-25 -0.5q-11 -1 -18 -1l9 17q7 13 12 26t8 34.5t4 54.5t1 86v478q-10 8 -26 15q-14 5 -34.5 10t-48.5 5q-93 0 -133.5 -61t-40.5 -179q0 -45 7 -86t23.5 -71.5t45 -49t72.5 -18.5q26 0 43.5 5.5t29 12.5
t16.5 13t6 7q0 -33 -14.5 -52t-35.5 -29t-44 -13t-41 -3q-12 0 -32.5 2.5t-44 11.5t-47.5 26.5t-43.5 49t-32 78.5t-12.5 114q0 89 22 148t58 94t81.5 49.5t92.5 14.5q40 0 68 -8.5t46 -19.5q21 -12 35 -28l89 58q-3 -20 -5 -57q-2 -32 -3 -85t-1 -134v-165q0 -109 1 -169.5
t4 -92.5t7.5 -45.5t12.5 -26.5z" />
    <glyph glyph-name="r" unicode="r" horiz-adv-x="407" 
d="M405 430q-11 17 -22 32t-24.5 25.5t-31 16.5t-40.5 6q-20 0 -35.5 -5t-27.5 -11q-14 -7 -25 -15v-208q0 -82 2 -128t5 -70.5t7.5 -35t10.5 -21.5l10 -17q-8 0 -19 1q-10 0 -25.5 0.5t-37.5 0.5q-23 0 -38.5 -0.5t-25.5 -0.5q-11 -1 -19 -1l9 17q6 11 10.5 21.5t8 35
t5 70.5t1.5 128v36q0 81 -1.5 133t-3.5 83q-2 36 -4 55l89 -42q7 4 19.5 11.5t29.5 14.5t39.5 12t51.5 5q20 0 35.5 -3t26.5 -6q12 -4 21 -9q-1 -7 -1 -17q-1 -8 -1 -20v-26v-50q0 -11 1 -18z" />
    <glyph glyph-name="s" unicode="s" horiz-adv-x="468" 
d="M403 145q0 -40 -13.5 -68.5t-37.5 -46.5t-58 -26.5t-74 -8.5q-35 0 -61.5 4.5t-44.5 10.5q-21 6 -36 15q0 5 1 14q0 8 0.5 19t0.5 26q0 14 -0.5 26t-0.5 21q-1 10 -1 18q14 -21 28 -38.5t30.5 -30.5t36.5 -20t46 -7q11 0 27.5 1.5t31.5 9t25.5 22.5t10.5 41
q0 33 -20.5 52t-58.5 41l-69 40q-23 13 -42.5 28t-33.5 33t-21.5 41t-7.5 52q0 27 8.5 56t31 52.5t60.5 39t97 15.5q35 0 62.5 -5t47.5 -11q22 -7 39 -15q-1 -6 -1 -15q-1 -8 -1 -18.5v-25.5v-26.5t1 -21.5q0 -11 1 -19q-14 22 -28.5 39.5t-31.5 30t-38.5 19.5t-49.5 7
q-32 0 -52.5 -7.5t-32 -19t-15.5 -26.5t-4 -30q0 -32 15 -51t44 -36l89 -52q15 -8 32.5 -19t32.5 -28.5t25 -42t10 -59.5z" />
    <glyph glyph-name="t" unicode="t" horiz-adv-x="374" 
d="M362 80q0 -3 -3 -17.5t-16 -30.5t-39.5 -29t-74.5 -13q-45 0 -70.5 15t-39.5 36q-12 19 -17.5 47t-5.5 83v158t1 102q1 45 2 72h-64q2 1 22.5 22t46.5 62q14 21 23.5 39t16.5 32q8 16 13 30h38v-125h66q31 0 50 1.5t30 3.5q12 3 18 6q-1 -4 -1 -10v-31v-30q0 -6 1 -10
q-6 2 -18 5q-11 2 -30 3.5t-50 1.5h-66v-337q0 -34 3 -50t10 -30q8 -17 24.5 -26.5t45.5 -9.5q21 0 36.5 4.5t26.5 10.5q12 6 21 15z" />
    <glyph glyph-name="u" unicode="u" horiz-adv-x="622" 
d="M546 38q-26 -15 -59 -26q-29 -10 -70.5 -17.5t-94.5 -7.5q-86 0 -133.5 23.5t-70 63t-27.5 92t-5 110.5q0 33 1 60t2.5 52t2.5 49.5t1 51.5q0 20 -4.5 38t-29.5 29q5 4 14 8q8 3 20 6t31 3q25 0 39 -6t21 -16t9 -22t2 -25q0 -17 -1.5 -44t-3.5 -57.5t-3.5 -61t-1.5 -54.5
q0 -53 3 -96t16.5 -74.5t42.5 -48.5t80 -17q26 0 46 2t33 5q15 3 25 7v237q0 65 -1 105t-3.5 64t-6.5 37t-10 24l-9 17l134 25q-2 -28 -4 -68q-2 -35 -3 -88.5t-1 -126.5q0 -79 1.5 -126t4 -73t6 -37t7.5 -17z" />
    <glyph glyph-name="v" unicode="v" horiz-adv-x="534" 
d="M531 566q-11 -9 -19.5 -21t-17.5 -35t-21 -76t-31.5 -123.5t-49 -151.5t-73.5 -160q-7 0 -16 1q-8 0 -19.5 0.5t-25.5 0.5q-15 0 -26 -0.5t-19 -0.5q-9 -1 -16 -1l-106 340q-17 56 -29.5 94.5t-22.5 65t-19.5 42.5t-21.5 26q9 -1 22 -1q11 -1 27 -1h38h43t29 1q13 0 21 1
q-10 -7 -18.5 -19.5t-8.5 -38.5q0 -10 2 -22t6 -30t11 -43.5t17 -61.5l68 -239q2 -11 5 -21t5 -18q3 -10 4 -18q10 16 23 48t27.5 72t28.5 85.5t24.5 89.5t17.5 83.5t7 67.5q0 30 -8.5 44t-18.5 21q9 -1 22 -1q11 -1 27 -1h36h56q11 0 20 1z" />
    <glyph glyph-name="w" unicode="w" horiz-adv-x="879" 
d="M872 566q-11 -9 -19.5 -21t-17.5 -35q-6 -15 -13.5 -46.5t-17 -73.5t-22 -92.5t-28 -102.5t-35 -102.5t-42.5 -93.5q-8 0 -17 1q-8 0 -18.5 0.5t-24.5 0.5t-24 -0.5t-18 -0.5q-9 -1 -15 -1l-111 421q-7 27 -9.5 45t-2.5 19q0 -1 -2.5 -19.5t-8.5 -42.5l-114 -423
q-6 0 -15 1q-8 0 -19.5 0.5t-25.5 0.5q-15 0 -26 -0.5t-19 -0.5q-9 -1 -15 -1l-98 340q-17 56 -29 95t-22.5 65t-20 42t-20.5 26q9 -1 22 -1q11 -1 27 -1h37h42.5t29.5 1q13 0 23 1q-10 -7 -19 -19.5t-9 -38.5q0 -11 1.5 -23.5t5.5 -30t10 -42.5t15 -61l59 -231
q7 -28 9.5 -45.5t2.5 -18.5q0 1 2.5 17.5t10.5 45.5l120 448q6 -1 14 -1q7 -1 17 -1h24h23t18 1q9 0 15 1l118 -449q4 -17 6.5 -28.5t3.5 -19.5q1 -10 1 -16q6 12 16.5 42t22 70t23.5 87t22 92.5t16 86t6 68.5q0 31 -9 45t-19 21q10 -1 23 -1q11 -1 27 -1h36h55q12 0 22 1z
" />
    <glyph glyph-name="x" unicode="x" horiz-adv-x="547" 
d="M550 -1q-10 0 -24 1q-12 0 -30 0.5t-44 0.5q-25 0 -43 -0.5t-29 -0.5q-13 -1 -22 -1q10 8 13.5 18t3.5 21q0 10 -2.5 19.5t-8.5 22.5t-17 30.5t-29 42.5l-66 96q-21 -24 -39 -50t-31.5 -51.5t-21 -49t-7.5 -43.5q0 -23 6.5 -35.5t17.5 -20.5q-12 0 -26 1q-12 0 -28 0.5
t-33 0.5q-21 0 -37 -0.5t-27 -0.5q-13 -1 -22 -1q10 6 18.5 14.5t19.5 22.5q10 13 23 42t33 66.5t48.5 78.5t69.5 77l-72 105q-26 38 -44 64.5t-31.5 45t-25.5 30.5t-27 21q9 -1 23 -1q12 -1 30.5 -1h44.5h43t29 1q13 0 22 1q-18 -15 -18 -39q0 -10 2.5 -19.5t9 -22.5
t17.5 -30.5t29 -42.5l46 -67q42 55 58 96.5t16 68.5q0 23 -6.5 35.5t-17.5 20.5q12 -1 25 -1q11 -1 26.5 -1h32.5h38t27 1q12 0 21 1q-10 -6 -18.5 -14.5t-19.5 -22.5t-22 -38.5t-27 -56t-39.5 -68t-58.5 -73.5l93 -133q27 -38 44.5 -64.5t31 -45t25.5 -30.5t27 -21z" />
    <glyph glyph-name="y" unicode="y" horiz-adv-x="542" 
d="M541 567q-11 -9 -20.5 -22t-17.5 -36q-5 -14 -14 -59t-26 -112t-44 -151.5t-68 -175.5q-49 -107 -110 -165.5t-147 -58.5q-23 0 -36.5 1t-21.5 3q-9 2 -12 5q0 7 1 17q0 8 0.5 18.5t0.5 22.5q0 13 -0.5 25t-0.5 21q-1 11 -1 19q25 -41 41 -56.5t40 -15.5q21 0 39 9
t34 22.5t29 30.5t24 34l5 8l-137 388q-20 55 -34 94t-25 65.5t-21 42.5t-21 26q10 -1 24 -1q11 -1 28 -1h39h43t30 1q14 0 23 1q-10 -7 -19 -19.5t-9 -38.5q0 -11 2 -23.5t6.5 -29.5t12 -41.5t18.5 -60.5l78 -240q10 -36 15 -51q3 -10 3 -15q9 16 21 46t24.5 69t24.5 84
t21.5 90t15.5 87.5t6 76.5q0 31 -9 45t-19 21q9 -1 22 -1q11 -1 27 -1h37h33.5t24.5 1q11 0 20 1z" />
    <glyph glyph-name="z" unicode="z" horiz-adv-x="512" 
d="M465 145q-2 -12 -4 -29q-2 -14 -3.5 -35.5t-3.5 -50.5l-2 -30h-409v28q0 30 5 56.5t16 51t28.5 48t43.5 49.5l162 162q20 20 37.5 45t17.5 54v10h-146q-25 0 -44.5 -2.5t-36 -9t-30.5 -19t-28 -32.5q0 8 1 19q0 9 0.5 20.5t0.5 25.5q0 15 -0.5 25.5t-0.5 18.5q-1 8 -1 14
h387v-25q0 -30 -5 -56.5t-16.5 -51t-29 -48.5t-42.5 -49l-162 -164q-20 -20 -37.5 -44t-17.5 -55v-10h143q46 0 74.5 5.5t46.5 16t30 26.5t26 36z" />
    <glyph glyph-name="braceleft" unicode="{" horiz-adv-x="383" 
d="M347 -171q0 -4 -3 -11t-12.5 -14t-26.5 -12t-45 -5q-26 0 -50.5 7.5t-39.5 27.5q-15 22 -19 46.5t-4 63.5v207q0 45 -6.5 73t-29.5 45q-21 15 -40 21.5t-23 8.5q2 1 21 7.5t42 22.5q23 17 29.5 45t6.5 73v207q0 39 4 63.5t19 46.5q15 20 39.5 27.5t50.5 7.5q28 0 45 -5
t26.5 -12t12.5 -14t3 -11q-5 1 -10 3q-5 1 -12 2t-18 1q-43 0 -59 -24q-9 -13 -10.5 -29.5t-1.5 -33.5v-162q0 -32 -0.5 -55t-3 -41t-8 -32.5t-15.5 -28.5q-12 -18 -27 -29t-28.5 -17.5t-23.5 -9t-14 -2.5q3 0 13.5 -2.5t24 -9t28.5 -17.5t27 -29q10 -14 15.5 -28.5t8 -32.5
t3 -41.5t0.5 -54.5v-162q0 -17 1.5 -33.5t10.5 -29.5q16 -24 59 -24q19 0 30 3q5 1 10 3z" />
    <glyph glyph-name="bar" unicode="|" horiz-adv-x="249" 
d="M89 -213v1000h71v-1000h-71z" />
    <glyph glyph-name="braceright" unicode="}" horiz-adv-x="383" 
d="M272 317q21 -15 39.5 -22t23.5 -8q-2 -1 -21.5 -7.5t-41.5 -22.5q-23 -17 -29.5 -45t-6.5 -73v-207q0 -39 -3.5 -63.5t-19.5 -46.5q-15 -20 -39.5 -27.5t-50.5 -7.5q-28 0 -45 5t-26.5 12t-12.5 14t-3 11q3 -2 9 -3q9 -3 31 -3q43 0 59 24q9 13 10.5 29.5t1.5 33.5v162
q0 31 0.5 54.5t3 41.5t8 32.5t15.5 28.5q12 18 26.5 29t28 17t24 8.5t13.5 3.5q-3 0 -13 2.5t-23.5 9t-28.5 17.5t-27 29q-10 14 -15.5 28.5t-8 32.5t-3 41t-0.5 55v162q0 17 -1.5 33.5t-10.5 29.5q-16 24 -59 24q-11 0 -18.5 -1t-12.5 -2l-9 -3q0 4 3 11t12.5 14t26.5 12
t45 5q26 0 50.5 -7.5t39.5 -27.5q16 -22 19.5 -46.5t3.5 -63.5v-207q0 -45 6.5 -73t29.5 -45z" />
    <glyph glyph-name="asciitilde" unicode="~" 
d="M621 452q-22 -92 -57.5 -140t-101.5 -48q-35 0 -63.5 9t-60.5 25l-65 33q-20 9 -34.5 15t-26.5 9.5t-22 5t-20 1.5q-47 0 -75 -33t-42 -80l-26 8q21 91 57 139.5t102 48.5q35 0 59 -9.5t56 -25.5l66 -32q38 -19 64 -25.5t47 -6.5q46 0 74 33t42 80z" />
    <glyph glyph-name="uni00A0" unicode="&#xa0;" horiz-adv-x="230" 
 />
    <glyph glyph-name="exclamdown" unicode="&#xa1;" horiz-adv-x="322" 
d="M239 -143q-9 0 -20 1q-10 0 -24.5 0.5t-34.5 0.5t-34 -0.5t-23 -0.5q-11 -1 -18 -1l7 19q4 12 7 31.5t6 57t6.5 100t7.5 160.5l6 172h73l7 -172q4 -98 7 -160.5t6 -100t6 -57t8 -31.5zM243 509l-82 -80l-82 80l82 80z" />
    <glyph glyph-name="cent" unicode="&#xa2;" horiz-adv-x="556" 
d="M296 -11q-111 5 -174.5 77.5t-63.5 204.5q0 21 2.5 51t10.5 62t23.5 64.5t42 59t65.5 44.5t94 23v59h43v-57q40 -1 68.5 -7t47.5 -13q22 -9 36 -19q-1 -6 -1 -14q-1 -7 -1 -17.5v-24.5v-27t1 -24q0 -12 1 -24q-14 20 -26 39t-28.5 34t-39.5 25t-58 11v-456q45 0 75 11
t50 24q23 15 37 34q0 -23 -9 -46t-28.5 -42.5t-50.5 -33t-74 -17.5v-56h-43v55zM162 280q0 -40 7.5 -76t23.5 -64.5t41.5 -48.5t61.5 -27v449q-27 -5 -51.5 -19.5t-43 -42t-29 -69.5t-10.5 -102z" />
    <glyph glyph-name="sterling" unicode="&#xa3;" horiz-adv-x="581" 
d="M464 65q21 0 35.5 7t24.5 16t14.5 17t5.5 10q0 -60 -24.5 -95t-88.5 -35q-36 0 -62.5 4t-50.5 8l-65 10q-20 3 -41 6t-42 3q-18 0 -35.5 -4.5t-31.5 -9.5q-17 -6 -31 -14q32 35 47.5 76.5t15.5 103.5v171h-80v62h80v64q0 65 7 105t29 71q29 45 75.5 61.5t108.5 16.5
q45 0 77 -5t53 -10q24 -6 40 -14q-1 -6 -1 -16q-1 -8 -1 -20v-27v-29t1 -22q0 -11 1 -20q-21 31 -38.5 50.5t-35.5 30t-38 14t-47 3.5q-35 0 -60.5 -11t-40.5 -30q-10 -13 -16 -28t-9 -34t-3.5 -43.5t-0.5 -55.5v-51h176v-62h-176v-109q0 -34 -3 -59.5t-11 -45.5t-21 -36
t-34 -31q5 3 29.5 12.5t63.5 9.5q17 0 31.5 -1t29.5 -2l85 -10q10 -1 24 -1.5t34 -0.5z" />
    <glyph glyph-name="currency" unicode="&#xa4;" horiz-adv-x="617" 
d="M411 321q0 22 -8 41.5t-22 34t-33 22.5t-41 8t-41 -8t-32.5 -22.5t-21.5 -34t-8 -41.5t8 -41.5t21.5 -34t32.5 -23t41 -8.5t41 8.5t33 23t22 34t8 41.5zM479 321q0 -54 -28 -96l111 -110l-49 -49l-111 111q-42 -27 -95 -27q-52 0 -93 27l-111 -112l-49 49l111 111
q-28 40 -28 96q0 26 7 50t20 44l-109 109l49 49l108 -109q20 13 44.5 20t50.5 7q52 0 96 -28l110 110l49 -49l-110 -110q27 -41 27 -93z" />
    <glyph glyph-name="yen" unicode="&#xa5;" horiz-adv-x="562" 
d="M577 713q-12 -9 -22 -18.5t-24 -30.5t-35 -57t-55 -97l-104 -186v-39h151v-43h-152v-58h152v-43h-152q0 -22 1.5 -39t4.5 -32t7.5 -28t11.5 -26l9 -17q-8 0 -20 1q-11 0 -26.5 0.5t-37.5 0.5t-37.5 -0.5t-26.5 -0.5q-12 -1 -20 -1l9 17q13 24 18.5 55.5t6.5 69.5h-152v43
h152v58h-152v43h151v17l-114 210q-34 62 -54 97.5t-33.5 55t-23.5 29t-23 19.5q9 -1 23 -1q12 -1 32 -1h49h48.5t30.5 1q13 0 21 1q-12 -11 -17.5 -23t-5.5 -24q0 -11 1.5 -20t7 -23t16 -35.5t28.5 -55.5l76 -145l74 146q18 35 28 56t14.5 34.5t5.5 22.5t1 20q0 12 -5.5 24
t-17.5 23q11 -1 24 -1q11 -1 27.5 -1h36.5h42.5t28.5 1q13 0 21 1z" />
    <glyph glyph-name="brokenbar" unicode="&#xa6;" horiz-adv-x="249" 
d="M89 448v339h71v-339h-71zM89 -213v363h71v-363h-71z" />
    <glyph glyph-name="section" unicode="&#xa7;" horiz-adv-x="603" 
d="M511 350q0 -40 -14.5 -68t-36 -46t-46.5 -28t-47 -13l36 -22q16 -10 30 -22t25 -27.5t17.5 -35t6.5 -43.5q0 -39 -13.5 -66t-38 -44.5t-58.5 -25.5t-75 -8q-34 0 -60.5 4.5t-45.5 10.5q-22 7 -39 16q0 5 1 14q0 8 0.5 19t0.5 26q0 14 -0.5 26t-0.5 20q-1 10 -1 18
q29 -43 62.5 -69.5t83.5 -26.5q12 0 28 2t31 9.5t25.5 22t10.5 40.5q0 17 -5 29.5t-13 22t-19.5 18t-24.5 16.5l-100 62q-19 11 -39.5 24t-37 31t-27.5 42.5t-11 59.5q0 40 14.5 68t36 46t47 28t47.5 13l-36 22q-32 20 -56 49.5t-24 78.5q0 76 51 110t134 34q34 0 61 -5
t46 -11q22 -7 38 -15q-1 -6 -1 -15q-1 -8 -1 -18.5v-25.5v-26t1 -20q0 -10 1 -18q-29 43 -62.5 69.5t-82.5 26.5q-12 0 -28.5 -2t-31.5 -9.5t-25.5 -22t-10.5 -40.5q0 -34 18 -51.5t45 -34.5l99 -62q19 -11 39.5 -24.5t37 -31.5t27.5 -42.5t11 -58.5zM427 326q0 37 -18 60.5
t-59 49.5l-69 44q-10 -3 -24 -12t-26.5 -24t-21.5 -35.5t-9 -46.5q0 -19 4.5 -33.5t14 -27.5t24 -25t34.5 -25l69 -43q10 3 24 12t26.5 24t21.5 35.5t9 46.5z" />
    <glyph glyph-name="dieresis" unicode="&#xa8;" horiz-adv-x="414" 
d="M183 704l-73 -70l-73 70l73 70zM374 704l-73 -70l-73 70l73 70z" />
    <glyph glyph-name="copyright" unicode="&#xa9;" horiz-adv-x="971" 
d="M924 279q0 -97 -32 -179.5t-90 -142.5t-138 -94t-177 -34q-98 0 -178.5 33t-139 92.5t-90.5 141t-32 178.5q0 98 32.5 180t91.5 141.5t140.5 92.5t179.5 33t178 -33t136.5 -91.5t87.5 -139.5t31 -178zM851 279q0 82 -25 152t-71.5 121.5t-113 81t-150.5 29.5t-152 -29.5
t-116.5 -81.5t-75 -123.5t-26.5 -154.5t26 -153.5t74 -122.5t115.5 -81.5t150.5 -29.5q82 0 149.5 30t115 82.5t73.5 124.5t26 155zM656 19q-16 -7 -37 -11q-18 -5 -44 -8t-61 -3q-84 0 -136.5 25t-82.5 64t-40.5 86.5t-10.5 92.5q0 140 72 212t203 72q37 0 63 -3.5t43 -7.5
q19 -5 31 -11q-1 -5 -1 -13v-43v-42q0 -9 1 -16q-12 18 -24 31.5t-26.5 23t-33.5 14.5t-46 5q-33 0 -64.5 -11.5t-56 -37t-39 -67.5t-14.5 -102q0 -46 8.5 -84.5t28.5 -66.5t53 -43.5t81 -15.5q27 0 46.5 5.5t35 15t27.5 23.5t24 32q-1 -7 -1 -17v-46v-40q0 -8 1 -13z" />
    <glyph glyph-name="ordfeminine" unicode="&#xaa;" horiz-adv-x="385" 
d="M249 562q-5 0 -11 1t-14.5 1.5t-21.5 0.5q-12 0 -27.5 -1.5t-29 -8t-22.5 -20t-9 -37.5q0 -34 18.5 -49.5t44.5 -15.5q22 0 36 5t22 12q10 7 14 17v95zM349 401l-99 -17l3 77q-6 -26 -18 -42t-27 -24t-31.5 -10.5t-31.5 -2.5q-35 0 -57 10.5t-34.5 26.5t-17.5 35.5
t-5 36.5q0 42 16 65.5t39 35.5t50 14.5t49 2.5q14 0 26 -0.5t20 -1.5q10 -1 18 -2v26q0 18 -2 34.5t-11 29.5q-8 10 -24 16t-44 6q-8 0 -20.5 -1t-26.5 -5.5t-28 -14t-25 -25.5q0 5 1 11q0 5 0.5 12t0.5 16t-0.5 16.5t-0.5 12.5q-1 6 -1 10q10 5 28 9q14 3 37 6t55 3
q55 0 81.5 -12t37.5 -26q16 -20 18.5 -46t2.5 -57q0 -17 -0.5 -44.5t-0.5 -77.5q0 -35 4 -55.5t13 -36.5z" />
    <glyph glyph-name="guillemotleft" unicode="&#xab;" horiz-adv-x="493" 
d="M349 61l-104 223l104 224h95l-120 -224l120 -223h-95zM152 61l-105 223l105 224h95l-120 -224l120 -223h-95z" />
    <glyph glyph-name="logicalnot" unicode="&#xac;" 
d="M503 175v227h-447v69h520v-296h-73z" />
    <glyph glyph-name="registered" unicode="&#xae;" horiz-adv-x="975" 
d="M926 279q0 -97 -32 -179.5t-90 -142.5t-138 -94t-177 -34q-98 0 -178.5 33t-139 92.5t-90.5 141t-32 178.5q0 98 32.5 180t91.5 141.5t140.5 92.5t179.5 33t178 -33t136.5 -91.5t87.5 -139.5t31 -178zM853 279q0 82 -25 152t-71.5 121.5t-113.5 81t-150 29.5
q-84 0 -152 -29.5t-116.5 -81.5t-75 -123.5t-26.5 -154.5t26 -153.5t74 -122.5t115.5 -81.5t150.5 -29.5q82 0 149.5 30t115 82.5t73.5 124.5t26 155zM739 9q-4 -3 -12 -5q-7 -2 -18 -3t-28 -1q-21 0 -37 4t-29 14t-25 25t-25 38l-48 79q-16 25 -26.5 41.5t-19.5 25.5
t-18 12.5t-22 3.5h-13q0 -71 1 -111t3 -62t5.5 -32.5t9.5 -21.5l7 -13q-6 0 -17 1q-9 0 -22.5 0.5t-33.5 0.5t-34 -0.5t-23 -0.5q-11 -1 -18 -1l7 13q5 10 8.5 20.5t6 35.5t3.5 72.5t1 133.5q0 83 -0.5 129t-3 70.5t-6 34.5t-9.5 21l-7 13q7 -1 17 -1q8 -1 19 -1h25
q9 0 21.5 0.5t26 0.5t26.5 0.5t23 0.5q38 0 76.5 -3.5t69.5 -17t50.5 -41t19.5 -76.5q0 -31 -10 -57.5t-30 -46t-50 -31t-70 -11.5q23 -3 39.5 -10.5t30 -20t25 -30t25.5 -41.5l39 -70q18 -32 33.5 -51.5t36.5 -29.5zM567 395q0 31 -8.5 50t-24 29.5t-36.5 13.5t-45 3
q-8 0 -14 -0.5t-11 -0.5q-5 -1 -10 -1v-190q4 -1 10 -1h29q8 0 21 1t22 3q28 5 47.5 27t19.5 66z" />
    <glyph glyph-name="macron" unicode="&#xaf;" horiz-adv-x="414" 
d="M66 657v69h283v-69h-283z" />
    <glyph glyph-name="degree" unicode="&#xb0;" horiz-adv-x="434" 
d="M372 600q0 -32 -12 -60.5t-33 -49.5t-49.5 -33t-61.5 -12q-32 0 -60 12t-49 33t-33.5 49.5t-12.5 60.5t12.5 60.5t33.5 49.5t49 33t60 12q33 0 61.5 -12t49.5 -33t33 -49.5t12 -60.5zM319 600q0 22 -8 41.5t-22 33.5t-32.5 22t-40.5 8t-40.5 -8t-32 -22t-21.5 -33.5
t-8 -41.5q0 -21 8 -40.5t21.5 -34t32 -23t40.5 -8.5t40.5 8.5t32.5 23t22 34t8 40.5z" />
    <glyph glyph-name="plusminus" unicode="&#xb1;" 
d="M360 404v-252h-73v252h-242v69h242v251h73v-251h243v-69h-243zM45 0v69h558v-69h-558z" />
    <glyph glyph-name="uni00B2" unicode="&#xb2;" horiz-adv-x="368" 
d="M324 486q-1 -8 -2 -19q-1 -9 -2 -21t-1 -26v-30h-296q0 45 17.5 76.5t55.5 67.5l56 52q22 21 37 37.5t24.5 32t13.5 31.5t4 36q0 44 -22.5 62.5t-60.5 18.5q-47 0 -69 -15t-42 -45v13q0 6 0.5 15t0.5 21t-0.5 20.5t-0.5 13.5v10q11 6 29 10q15 4 38 7t56 3q47 0 78.5 -10
t50 -27t26.5 -40.5t8 -51.5q0 -29 -7 -51.5t-20.5 -42.5t-34.5 -39t-48 -41l-48 -39q-20 -17 -37.5 -35t-18.5 -26h120q23 0 41.5 3.5t29.5 11.5q7 4 11.5 7.5t7.5 5.5q4 3 5 4z" />
    <glyph glyph-name="uni00B3" unicode="&#xb3;" horiz-adv-x="356" 
d="M315 519q0 -47 -18.5 -73.5t-45.5 -40t-56 -17t-50 -3.5q-36 0 -61.5 8t-42 20t-24.5 25t-8 24q10 -7 26 -12q14 -5 34 -8.5t47 -3.5q46 0 77.5 17.5t31.5 67.5q0 18 -4 32.5t-14.5 25t-28.5 16.5t-46 6q-20 0 -31.5 -3t-17.5 -6v7q0 4 0.5 10.5t0.5 16.5t-0.5 16.5
t-0.5 11.5v8q5 -3 18 -6.5t32 -3.5q39 0 63 19t24 61q0 38 -21 55t-58 17q-38 0 -60 -13.5t-42 -43.5v12q0 6 0.5 15t0.5 20q0 12 -0.5 20.5t-0.5 13.5v10q11 5 28 9q14 3 36 6t51 3q81 0 118 -30t37 -81q0 -31 -10.5 -52t-26.5 -34.5t-36 -20t-39 -9.5q18 -1 38.5 -6
t38 -17t29.5 -33.5t12 -55.5z" />
    <glyph glyph-name="acute" unicode="&#xb4;" horiz-adv-x="414" 
d="M196 772h106q-4 -12 -15 -26q-9 -12 -24.5 -28.5t-40.5 -36.5q-23 -19 -42.5 -30t-34.5 -17q-18 -7 -32 -10z" />
    <glyph glyph-name="uni00B5" unicode="&#xb5;" horiz-adv-x="645" 
d="M621 20q-8 -8 -19 -14q-10 -5 -24.5 -9.5t-34.5 -4.5t-37.5 5t-31 20t-21 42t-7.5 71q-12 -45 -31.5 -73t-41.5 -43t-43.5 -20.5t-37.5 -5.5q-30 0 -51.5 6.5t-35 15t-20.5 15.5l-8 8q0 -1 1 -22.5t1 -53.5v-36q0 -36 1 -61.5t3 -41.5q2 -19 4 -31q-6 0 -14 1
q-7 0 -17 0.5t-23 0.5q-14 0 -24 -0.5t-17 -0.5q-8 -1 -14 -1q3 17 6 44q2 23 4.5 61t2.5 95v391q0 51 -3 91t-16 70l-5 11q3 0 18.5 1.5t41.5 6.5q32 6 42.5 9t12.5 4q1 -4 2 -14q1 -8 1.5 -23t0.5 -40q0 -17 -0.5 -42.5t-1.5 -54.5t-1.5 -57.5t-0.5 -50.5q0 -44 1 -74
t3 -51t6.5 -35.5t12.5 -27.5q10 -17 32 -31t70 -14q37 0 62 16.5t41 36.5q18 23 30 53v107q0 41 0.5 74.5t0.5 35.5q0 60 -3 96.5t-14 62.5l-5 12q6 0 15 1q8 1 18.5 2.5t25.5 4.5q17 3 27.5 5t17.5 4q8 2 13 4q1 -4 2 -14q1 -8 2 -23t1 -40q0 -57 -3 -119t-3 -132
q0 -47 2 -79.5t7 -55t13 -38t21 -27.5q14 -14 27.5 -18t15.5 -5z" />
    <glyph glyph-name="paragraph" unicode="&#xb6;" horiz-adv-x="413" 
d="M318 -40q0 -31 -4.5 -62t-20.5 -55.5t-47 -40t-84 -15.5h-17q28 14 46.5 34.5t30 50.5t16 70t4.5 93v340q-38 1 -75.5 11.5t-67.5 34t-48.5 60t-18.5 90.5q0 37 9.5 66.5t25 52t36 38t41.5 24.5q32 14 70 16t92 2h12v-810z" />
    <glyph glyph-name="periodcentered" unicode="&#xb7;" horiz-adv-x="249" 
d="M197 282q0 -30 -20 -49.5t-52 -24.5q-35 5 -54 24.5t-19 48.5q0 30 20 49.5t52 24.5q36 -5 54.5 -24.5t18.5 -48.5z" />
    <glyph glyph-name="cedilla" unicode="&#xb8;" horiz-adv-x="414" 
d="M215 5q-5 -7 -9 -15.5t-4 -14.5q0 -9 6.5 -15t17.5 -13l12 -9q5 -3 12.5 -8.5t14 -13t11 -18.5t4.5 -25q0 -27 -15 -44.5t-37.5 -27t-47.5 -12.5t-45 -1q4 1 15 7.5t22.5 16.5t20 23t8.5 28t-5.5 25t-16.5 25l-6 8q-6 8 -10.5 16.5t-4.5 20.5q0 14 7 26.5t14 20.5h36z
" />
    <glyph glyph-name="uni00B9" unicode="&#xb9;" horiz-adv-x="252" 
d="M200 389q-6 0 -15 1q-8 0 -20.5 0.5t-29.5 0.5t-29 -0.5t-20 -0.5q-9 -1 -15 -1l5 11q5 9 8 18t5 30.5t3 62.5t1 114v147q0 7 -3 10t-14 3h-75q12 21 35.5 31.5t50 17t52.5 13t45 21.5q-2 -24 -3 -59q-3 -60 -3 -191q0 -71 0.5 -110t2.5 -60t5 -29.5t8 -18.5z" />
    <glyph glyph-name="ordmasculine" unicode="&#xba;" horiz-adv-x="414" 
d="M302 575q0 41 -8.5 68t-21.5 43t-29 23.5t-31 10.5q-16 -3 -32.5 -11t-30.5 -24.5t-23 -43.5t-9 -67q0 -41 8.5 -67.5t21.5 -43t29.5 -24t31.5 -10.5q15 3 32 11t30.5 24.5t22.5 43t9 67.5zM389 575q0 -38 -12 -72t-35.5 -60t-57 -42.5t-76.5 -20.5q-47 4 -80.5 21
t-55.5 43.5t-32 59.5t-10 70q0 38 12.5 72t35.5 60t57 42.5t77 20.5q47 -4 80.5 -21t55 -43.5t31.5 -59.5t10 -70z" />
    <glyph glyph-name="guillemotright" unicode="&#xbb;" horiz-adv-x="493" 
d="M341 61h-95l121 224l-121 223h95l105 -223zM144 61h-95l121 224l-121 223h95l105 -223z" />
    <glyph glyph-name="onequarter" unicode="&#xbc;" horiz-adv-x="776" 
d="M748 94q-5 1 -13 3q-7 2 -17.5 3t-24.5 1h-6q0 -23 2 -47.5t12 -43.5l6 -11h-14q-8 0 -20 0.5t-29 0.5t-28.5 -0.5t-19.5 -0.5h-14l5 11q9 17 12 41t3 50h-213q1 60 24 123t62.5 115t94 87t117.5 39v-303h6q28 0 42 3q8 2 13 4v-75zM602 162v219q-32 -16 -56.5 -45
t-42.5 -61t-28 -63t-11 -50h138zM200 249q-6 0 -15 1q-8 0 -20.5 0.5t-29.5 0.5t-29 -0.5t-20 -0.5q-9 -1 -15 -1l5 11q5 9 8 18t5 30.5t3 62.5t1 114v147q0 7 -3 10t-14 3h-75q12 21 35.5 31.5t50 17t52.5 13t45 21.5q-2 -24 -3 -59q-3 -60 -3 -191q0 -71 0.5 -110t2.5 -60
t5 -29.5t8 -18.5zM170 0h-71l437 713h70z" />
    <glyph glyph-name="onehalf" unicode="&#xbd;" horiz-adv-x="821" 
d="M777 96q-1 -8 -2 -19q-1 -9 -2 -21t-1 -26v-30h-296q0 45 17.5 76.5t55.5 67.5l56 52q22 21 37 37.5t24.5 32t13.5 31.5t4 36q0 44 -22.5 62.5t-60.5 18.5q-47 0 -69 -15t-42 -45v13q0 6 0.5 15t0.5 21t-0.5 20.5t-0.5 13.5v10q11 6 29 10q15 4 38 7t56 3q47 0 78.5 -10
t50 -27t26.5 -40.5t8 -51.5q0 -29 -7 -51.5t-20.5 -42.5t-34.5 -39t-48 -41l-48 -39q-20 -17 -37.5 -35t-18.5 -26h120q23 0 41.5 3.5t29.5 11.5q7 4 11.5 7.5t7.5 5.5q4 3 5 4zM200 249q-6 0 -15 1q-8 0 -20.5 0.5t-29.5 0.5t-29 -0.5t-20 -0.5q-9 -1 -15 -1l5 11q5 9 8 18
t5 30.5t3 62.5t1 114v147q0 7 -3 10t-14 3h-75q12 21 35.5 31.5t50 17t52.5 13t45 21.5q-2 -24 -3 -59q-3 -60 -3 -191q0 -71 0.5 -110t2.5 -60t5 -29.5t8 -18.5zM170 0h-71l437 713h70z" />
    <glyph glyph-name="threequarters" unicode="&#xbe;" horiz-adv-x="860" 
d="M832 94q-5 1 -13 3q-7 2 -17.5 3t-24.5 1h-6q0 -23 2 -47.5t12 -43.5l6 -11h-14q-8 0 -20 0.5t-29 0.5t-28.5 -0.5t-19.5 -0.5h-14l5 11q9 17 12 41t3 50h-213q1 60 24 123t62.5 115t94 87t117.5 39v-303h6q28 0 42 3q8 2 13 4v-75zM686 162v219q-32 -16 -56.5 -45
t-42.5 -61t-28 -63t-11 -50h138zM315 379q0 -47 -18.5 -73.5t-45.5 -40t-56 -17t-50 -3.5q-36 0 -61.5 8t-42 20t-24.5 25t-8 24q10 -7 26 -12q14 -5 34 -8.5t47 -3.5q46 0 77.5 17.5t31.5 67.5q0 18 -4 32.5t-14.5 25t-28.5 16.5t-46 6q-20 0 -31.5 -3t-17.5 -6v7
q0 4 0.5 10.5t0.5 16.5t-0.5 16.5t-0.5 11.5v8q5 -3 18 -6.5t32 -3.5q39 0 63 19t24 61q0 38 -21 55t-58 17q-38 0 -60 -13.5t-42 -43.5v12q0 6 0.5 15t0.5 20q0 12 -0.5 20.5t-0.5 13.5v10q11 5 28 9q14 3 36 6t51 3q81 0 118 -30t37 -81q0 -31 -10.5 -52t-26.5 -34.5
t-36 -20t-39 -9.5q18 -1 38.5 -6t38 -17t29.5 -33.5t12 -55.5zM255 0h-71l437 713h70z" />
    <glyph glyph-name="questiondown" unicode="&#xbf;" horiz-adv-x="486" 
d="M454 -121q-16 -9 -41 -15q-21 -6 -54 -10.5t-79 -4.5q-117 0 -172 47t-55 130q0 57 28 105.5t75 101.5l51 57q13 14 21.5 24t13 17.5t6.5 14.5t2 16q0 8 -2.5 14t-4.5 11q-4 5 -7 10h90q1 -4 2 -11t1 -18q-1 -32 -11 -55.5t-35 -53.5l-71 -89q-27 -34 -38.5 -65.5
t-11.5 -67.5q0 -60 31 -91.5t96 -31.5q35 0 60 6t44 17t33 27t28 37q-1 -7 -1 -17q-1 -8 -1 -20v-26v-26.5t1 -18.5q0 -9 1 -14zM365 509l-82 -80l-81 80l81 80z" />
    <glyph glyph-name="Agrave" unicode="&#xc0;" horiz-adv-x="628" 
d="M631 -1q-16 0 -33 1q-14 0 -31 0.5t-32 0.5q-23 0 -40.5 -0.5t-29.5 -0.5q-14 -1 -25 -1q10 7 21 21t11 42q0 26 -11.5 70.5t-28.5 100.5l-17 58h-232q-17 -64 -28 -121.5t-11 -97.5q0 -37 8.5 -51.5t18.5 -21.5q-10 0 -23 1q-11 0 -28.5 0.5t-39.5 0.5q-20 0 -34.5 -0.5
t-25.5 -0.5q-12 -1 -21 -1q11 9 19.5 21t17.5 35q5 12 15 49t24.5 90t33 118t42.5 133.5t53.5 137.5t63.5 130q5 -1 14 -1q8 -1 19.5 -1h28.5h29.5t20.5 1q10 0 16 1l141 -478q15 -52 26.5 -90.5t22 -66t21 -47t24.5 -32.5zM325 611q-6 19 -9 35q-2 8 -2 15
q-10 -16 -23.5 -46.5t-28.5 -71t-30.5 -88t-29.5 -96.5h195zM379 753q-14 4 -32 11q-15 6 -35 17t-43 30q-25 20 -40.5 36.5t-23.5 28.5q-11 14 -15 26h106z" />
    <glyph glyph-name="Aacute" unicode="&#xc1;" horiz-adv-x="628" 
d="M631 -1q-16 0 -33 1q-14 0 -31 0.5t-32 0.5q-23 0 -40.5 -0.5t-29.5 -0.5q-14 -1 -25 -1q10 7 21 21t11 42q0 26 -11.5 70.5t-28.5 100.5l-17 58h-232q-17 -64 -28 -121.5t-11 -97.5q0 -37 8.5 -51.5t18.5 -21.5q-10 0 -23 1q-11 0 -28.5 0.5t-39.5 0.5q-20 0 -34.5 -0.5
t-25.5 -0.5q-12 -1 -21 -1q11 9 19.5 21t17.5 35q5 12 15 49t24.5 90t33 118t42.5 133.5t53.5 137.5t63.5 130q5 -1 14 -1q8 -1 19.5 -1h28.5h29.5t20.5 1q10 0 16 1l141 -478q15 -52 26.5 -90.5t22 -66t21 -47t24.5 -32.5zM325 611q-6 19 -9 35q-2 8 -2 15
q-10 -16 -23.5 -46.5t-28.5 -71t-30.5 -88t-29.5 -96.5h195zM356 902h106q-4 -12 -15 -26q-9 -12 -24.5 -28.5t-40.5 -36.5q-23 -19 -42.5 -30t-34.5 -17q-18 -7 -32 -11z" />
    <glyph glyph-name="Acircumflex" unicode="&#xc2;" horiz-adv-x="628" 
d="M631 -1q-16 0 -33 1q-14 0 -31 0.5t-32 0.5q-23 0 -40.5 -0.5t-29.5 -0.5q-14 -1 -25 -1q10 7 21 21t11 42q0 26 -11.5 70.5t-28.5 100.5l-17 58h-232q-17 -64 -28 -121.5t-11 -97.5q0 -37 8.5 -51.5t18.5 -21.5q-10 0 -23 1q-11 0 -28.5 0.5t-39.5 0.5q-20 0 -34.5 -0.5
t-25.5 -0.5q-12 -1 -21 -1q11 9 19.5 21t17.5 35q5 12 15 49t24.5 90t33 118t42.5 133.5t53.5 137.5t63.5 130q5 -1 14 -1q8 -1 19.5 -1h28.5h29.5t20.5 1q10 0 16 1l141 -478q15 -52 26.5 -90.5t22 -66t21 -47t24.5 -32.5zM325 611q-6 19 -9 35q-2 8 -2 15
q-10 -16 -23.5 -46.5t-28.5 -71t-30.5 -88t-29.5 -96.5h195zM492 752q-47 3 -93 23t-72 52q-35 -38 -79 -55.5t-86 -19.5l136 150h59z" />
    <glyph glyph-name="Atilde" unicode="&#xc3;" horiz-adv-x="628" 
d="M631 -1q-16 0 -33 1q-14 0 -31 0.5t-32 0.5q-23 0 -40.5 -0.5t-29.5 -0.5q-14 -1 -25 -1q10 7 21 21t11 42q0 26 -11.5 70.5t-28.5 100.5l-17 58h-232q-17 -64 -28 -121.5t-11 -97.5q0 -37 8.5 -51.5t18.5 -21.5q-10 0 -23 1q-11 0 -28.5 0.5t-39.5 0.5q-20 0 -34.5 -0.5
t-25.5 -0.5q-12 -1 -21 -1q11 9 19.5 21t17.5 35q5 12 15 49t24.5 90t33 118t42.5 133.5t53.5 137.5t63.5 130q5 -1 14 -1q8 -1 19.5 -1h28.5h29.5t20.5 1q10 0 16 1l141 -478q15 -52 26.5 -90.5t22 -66t21 -47t24.5 -32.5zM325 611q-6 19 -9 35q-2 8 -2 15
q-10 -16 -23.5 -46.5t-28.5 -71t-30.5 -88t-29.5 -96.5h195zM415 838q15 0 28 7t22.5 15t15 15.5t6.5 9.5q0 -55 -23.5 -84t-62.5 -29q-15 0 -28 3.5t-23 6.5l-59 21q-13 5 -20.5 6.5t-20.5 1.5q-15 0 -28 -7t-22.5 -15.5t-15 -16t-6.5 -9.5q0 56 24 85t62 29q15 0 28 -3
t23 -7l59 -21q13 -5 20.5 -6.5t20.5 -1.5z" />
    <glyph glyph-name="Adieresis" unicode="&#xc4;" horiz-adv-x="628" 
d="M631 -1q-16 0 -33 1q-14 0 -31 0.5t-32 0.5q-23 0 -40.5 -0.5t-29.5 -0.5q-14 -1 -25 -1q10 7 21 21t11 42q0 26 -11.5 70.5t-28.5 100.5l-17 58h-232q-17 -64 -28 -121.5t-11 -97.5q0 -37 8.5 -51.5t18.5 -21.5q-10 0 -23 1q-11 0 -28.5 0.5t-39.5 0.5q-20 0 -34.5 -0.5
t-25.5 -0.5q-12 -1 -21 -1q11 9 19.5 21t17.5 35q5 12 15 49t24.5 90t33 118t42.5 133.5t53.5 137.5t63.5 130q5 -1 14 -1q8 -1 19.5 -1h28.5h29.5t20.5 1q10 0 16 1l141 -478q15 -52 26.5 -90.5t22 -66t21 -47t24.5 -32.5zM325 611q-6 19 -9 35q-2 8 -2 15
q-10 -16 -23.5 -46.5t-28.5 -71t-30.5 -88t-29.5 -96.5h195zM305 832l-73 -70l-73 70l73 70zM496 832l-73 -70l-73 70l73 70z" />
    <glyph glyph-name="Aring" unicode="&#xc5;" horiz-adv-x="628" 
d="M631 -1q-11 0 -25 1q-12 0 -29.5 0.5t-39.5 0.5q-26 0 -44.5 -0.5t-30.5 -0.5q-14 -1 -24 -1q10 7 22 21t12 42q0 26 -11 68t-27 98l-20 63h-231q-17 -64 -28 -121.5t-11 -97.5q0 -37 8.5 -51.5t18.5 -21.5q-10 0 -23 1q-11 0 -28.5 0.5t-39.5 0.5q-20 0 -34.5 -0.5
t-25.5 -0.5q-12 -1 -21 -1q11 9 19.5 21t17.5 35q5 12 14.5 47t23 86t32 114t41.5 130t51 135t61 129q-23 14 -30.5 34t-7.5 41q0 49 31 75t76 26q46 0 77 -25.5t31 -75.5q0 -27 -10.5 -46.5t-24.5 -27.5l136 -462q15 -52 26.5 -90.5t22 -66t21 -47t24.5 -32.5zM326 611
q-6 19 -9 35q-2 8 -3 15q-10 -16 -23.5 -46.5t-28.5 -71t-30.5 -88t-29.5 -96.5h195zM387 771q0 29 -16 43.5t-43 14.5q-23 0 -40.5 -14.5t-17.5 -43.5t16 -44t43 -15q23 0 40.5 15t17.5 44z" />
    <glyph glyph-name="AE" unicode="&#xc6;" horiz-adv-x="843" 
d="M787 147q-1 -11 -3 -28q-2 -14 -4 -36.5t-4 -52.5l-2 -30h-342q-20 0 -35 -0.5t-24 -0.5h-18l9 17q7 14 12 28.5t8 44.5t4 83.5t1 144.5h-217q-27 -70 -42 -134t-15 -111q0 -37 8.5 -51.5t18.5 -21.5q-10 0 -23 1q-11 0 -28.5 0.5t-39.5 0.5q-20 0 -34.5 -0.5t-25.5 -0.5
q-12 -1 -21 -1q11 9 19 21t18 35q5 11 13.5 48.5t24.5 92t40.5 121t61 135.5t87 137t117.5 124q3 -1 13 -1h59h341q-1 -6 -1 -13v-39q0 -30 1.5 -44.5t1.5 -16.5q-1 1 -8 7.5t-28 19.5q-38 22 -110 22h-133v-268h109q35 0 63.5 4t46.5 15q20 11 27 17.5t9 8.5
q0 -1 -1.5 -21.5t-1.5 -56.5q0 -35 1.5 -54.5t1.5 -21.5q-1 1 -8 7.5t-28 19.5q-18 11 -46.5 15t-63.5 4h-109v-253h123q46 0 74.5 5.5t46.5 16t30 26t26 35.5zM389 379v280q-27 -21 -53 -51t-50.5 -67t-47 -78t-41.5 -84h192z" />
    <glyph glyph-name="Ccedilla" unicode="&#xc7;" horiz-adv-x="632" 
d="M593 22q-21 -9 -48 -15q-23 -5 -57.5 -9.5t-77.5 -4.5h-8q-6 -9 -6 -18t6.5 -15t17.5 -13l12 -9q5 -3 12.5 -8.5t14 -13t11 -18.5t4.5 -25q0 -27 -15 -44.5t-37.5 -27t-47.5 -12.5t-45 -1q4 1 15 7.5t22.5 16.5t20 23t8.5 28t-5.5 25t-16.5 25l-6 8q-6 8 -10.5 16.5
t-4.5 20.5q0 10 3.5 19.5t8.5 17.5q-70 5 -120 25t-84 50t-54.5 66.5t-31 74t-14 73t-3.5 63.5q0 180 94 276t266 96q48 0 81 -5t54 -10q25 -6 41 -14q-1 -7 -1 -17q-1 -8 -1 -20v-28v-28.5t1 -21.5q0 -11 1 -20q-16 23 -32 41.5t-35.5 31t-45.5 19t-62 6.5q-38 0 -82.5 -11
t-82.5 -43t-63 -91t-25 -156q0 -60 11 -113.5t39 -93t76.5 -63t122.5 -23.5q37 0 64 7t47 20t36 31.5t32 41.5q-1 -10 -1 -22q-1 -11 -1 -24.5v-29.5v-25.5t1 -19.5q0 -10 1 -16z" />
    <glyph glyph-name="Egrave" unicode="&#xc8;" horiz-adv-x="559" 
d="M373 753q-14 4 -32 11q-15 6 -35 17t-43 30q-25 20 -40.5 36.5t-23.5 28.5q-11 14 -15 26h106zM502 154q-2 -14 -4 -32q-2 -16 -3.5 -39t-3.5 -52l-1 -22q-14 -3 -37 -6q-20 -2 -50 -3.5t-72 -1.5t-73 2t-53.5 7t-38.5 13.5t-30 20.5q-15 14 -24 30t-13.5 36t-6 45.5
t-1.5 58.5v277q0 32 1.5 58.5t6.5 48t14 39t25 31.5q14 12 30 21t38.5 15t53.5 9t73 3q36 0 64.5 -1t48.5 -3q23 -2 41 -3q-1 -5 -1 -12v-39q0 -30 1.5 -44.5t1.5 -16.5l-8 8t-27 19q-16 9 -45.5 18.5t-76.5 9.5q-16 0 -33.5 -1t-34 -5.5t-31 -13t-23.5 -23.5
q-6 -9 -9.5 -18t-5.5 -22.5t-3 -33t-1 -48.5v-95h125q35 0 63.5 4t46.5 15q20 11 27 17.5t9 8.5q0 -1 -1.5 -21.5t-1.5 -56.5q0 -35 1.5 -55t1.5 -22q-1 1 -8 7.5t-28 19.5q-18 11 -46.5 15t-63.5 4h-125v-101q0 -29 0.5 -48.5t2.5 -33t5.5 -22.5t9.5 -18q9 -15 24 -23
t32 -12t34 -4.5t31 -0.5q39 0 65.5 7t45.5 19t33 29t28 37z" />
    <glyph glyph-name="Eacute" unicode="&#xc9;" horiz-adv-x="559" 
d="M338 902h106q-4 -12 -15 -26q-9 -12 -24.5 -28.5t-40.5 -36.5q-23 -19 -42.5 -30t-34.5 -17q-18 -7 -32 -11zM502 154q-2 -14 -4 -32q-2 -16 -3.5 -39t-3.5 -52l-1 -22q-14 -3 -37 -6q-20 -2 -50 -3.5t-72 -1.5t-73 2t-53.5 7t-38.5 13.5t-30 20.5q-15 14 -24 30
t-13.5 36t-6 45.5t-1.5 58.5v277q0 32 1.5 58.5t6.5 48t14 39t25 31.5q14 12 30 21t38.5 15t53.5 9t73 3q36 0 64.5 -1t48.5 -3q23 -2 41 -3q-1 -5 -1 -12v-39q0 -30 1.5 -44.5t1.5 -16.5l-8 8t-27 19q-16 9 -45.5 18.5t-76.5 9.5q-16 0 -33.5 -1t-34 -5.5t-31 -13
t-23.5 -23.5q-6 -9 -9.5 -18t-5.5 -22.5t-3 -33t-1 -48.5v-95h125q35 0 63.5 4t46.5 15q20 11 27 17.5t9 8.5q0 -1 -1.5 -21.5t-1.5 -56.5q0 -35 1.5 -55t1.5 -22q-1 1 -8 7.5t-28 19.5q-18 11 -46.5 15t-63.5 4h-125v-101q0 -29 0.5 -48.5t2.5 -33t5.5 -22.5t9.5 -18
q9 -15 24 -23t32 -12t34 -4.5t31 -0.5q39 0 65.5 7t45.5 19t33 29t28 37z" />
    <glyph glyph-name="Ecircumflex" unicode="&#xca;" horiz-adv-x="559" 
d="M502 154q-2 -14 -4 -32q-2 -16 -3.5 -39t-3.5 -52l-1 -22q-14 -3 -37 -6q-20 -2 -50 -3.5t-72 -1.5t-73 2t-53.5 7t-38.5 13.5t-30 20.5q-15 14 -24 30t-13.5 36t-6 45.5t-1.5 58.5v277q0 32 1.5 58.5t6.5 48t14 39t25 31.5q14 12 30 21t38.5 15t53.5 9t73 3
q36 0 64.5 -1t48.5 -3q23 -2 41 -3q-1 -5 -1 -12v-39q0 -30 1.5 -44.5t1.5 -16.5l-8 8t-27 19q-16 9 -45.5 18.5t-76.5 9.5q-16 0 -33.5 -1t-34 -5.5t-31 -13t-23.5 -23.5q-6 -9 -9.5 -18t-5.5 -22.5t-3 -33t-1 -48.5v-95h125q35 0 63.5 4t46.5 15q20 11 27 17.5t9 8.5
q0 -1 -1.5 -21.5t-1.5 -56.5q0 -35 1.5 -55t1.5 -22q-1 1 -8 7.5t-28 19.5q-18 11 -46.5 15t-63.5 4h-125v-101q0 -29 0.5 -48.5t2.5 -33t5.5 -22.5t9.5 -18q9 -15 24 -23t32 -12t34 -4.5t31 -0.5q39 0 65.5 7t45.5 19t33 29t28 37zM483 752q-47 3 -93 23t-72 52
q-35 -38 -79 -55.5t-86 -19.5l136 150h59z" />
    <glyph glyph-name="Edieresis" unicode="&#xcb;" horiz-adv-x="559" 
d="M293 832l-73 -70l-73 70l73 70zM484 832l-73 -70l-73 70l73 70zM502 154q-2 -14 -4 -32q-2 -16 -3.5 -39t-3.5 -52l-1 -22q-14 -3 -37 -6q-20 -2 -50 -3.5t-72 -1.5t-73 2t-53.5 7t-38.5 13.5t-30 20.5q-15 14 -24 30t-13.5 36t-6 45.5t-1.5 58.5v277q0 32 1.5 58.5
t6.5 48t14 39t25 31.5q14 12 30 21t38.5 15t53.5 9t73 3q36 0 64.5 -1t48.5 -3q23 -2 41 -3q-1 -5 -1 -12v-39q0 -30 1.5 -44.5t1.5 -16.5l-8 8t-27 19q-16 9 -45.5 18.5t-76.5 9.5q-16 0 -33.5 -1t-34 -5.5t-31 -13t-23.5 -23.5q-6 -9 -9.5 -18t-5.5 -22.5t-3 -33t-1 -48.5
v-95h125q35 0 63.5 4t46.5 15q20 11 27 17.5t9 8.5q0 -1 -1.5 -21.5t-1.5 -56.5q0 -35 1.5 -55t1.5 -22q-1 1 -8 7.5t-28 19.5q-18 11 -46.5 15t-63.5 4h-125v-101q0 -29 0.5 -48.5t2.5 -33t5.5 -22.5t9.5 -18q9 -15 24 -23t32 -12t34 -4.5t31 -0.5q39 0 65.5 7t45.5 19
t33 29t28 37z" />
    <glyph glyph-name="Igrave" unicode="&#xcc;" horiz-adv-x="319" 
d="M243 -1q-8 0 -19 1q-10 0 -26 0.5t-38 0.5q-23 0 -38 -0.5t-26 -0.5q-12 -1 -20 -1l9 17q5 9 9 17.5t6.5 22t4.5 35t3 56.5t1.5 87t0.5 127q0 109 -1 169.5t-3.5 92t-7.5 45t-13 28.5l-9 17q8 -1 19 -1q10 -1 25.5 -1h38.5h38t26 1q11 0 20 1l-9 -17l-9 -18t-6.5 -21.5
t-4.5 -35t-3 -56.5t-1.5 -87t-0.5 -127q0 -109 1 -169.5t3.5 -92t7.5 -45t13 -28.5zM211 753q-14 4 -32 11q-15 6 -35 17t-43 30q-25 20 -40.5 36.5t-23.5 28.5q-11 14 -15 26h106z" />
    <glyph glyph-name="Iacute" unicode="&#xcd;" horiz-adv-x="319" 
d="M243 -1q-8 0 -19 1q-10 0 -26 0.5t-38 0.5q-23 0 -38 -0.5t-26 -0.5q-12 -1 -20 -1l9 17q5 9 9 17.5t6.5 22t4.5 35t3 56.5t1.5 87t0.5 127q0 109 -1 169.5t-3.5 92t-7.5 45t-13 28.5l-9 17q8 -1 19 -1q10 -1 25.5 -1h38.5h38t26 1q11 0 20 1l-9 -17l-9 -18t-6.5 -21.5
t-4.5 -35t-3 -56.5t-1.5 -87t-0.5 -127q0 -109 1 -169.5t3.5 -92t7.5 -45t13 -28.5zM196 902h106q-4 -12 -15 -26q-9 -12 -24.5 -28.5t-40.5 -36.5q-23 -19 -42.5 -30t-34.5 -17q-18 -7 -32 -11z" />
    <glyph glyph-name="Icircumflex" unicode="&#xce;" horiz-adv-x="319" 
d="M243 -1q-8 0 -19 1q-10 0 -26 0.5t-38 0.5q-23 0 -38 -0.5t-26 -0.5q-12 -1 -20 -1l9 17q5 9 9 17.5t6.5 22t4.5 35t3 56.5t1.5 87t0.5 127q0 109 -1 169.5t-3.5 92t-7.5 45t-13 28.5l-9 17q8 -1 19 -1q10 -1 25.5 -1h38.5h38t26 1q11 0 20 1l-9 -17l-9 -18t-6.5 -21.5
t-4.5 -35t-3 -56.5t-1.5 -87t-0.5 -127q0 -109 1 -169.5t3.5 -92t7.5 -45t13 -28.5zM327 752q-47 3 -93 23t-72 52q-35 -38 -79 -55.5t-86 -19.5l136 150h59z" />
    <glyph glyph-name="Idieresis" unicode="&#xcf;" horiz-adv-x="319" 
d="M243 -1q-8 0 -19 1q-10 0 -26 0.5t-38 0.5q-23 0 -38 -0.5t-26 -0.5q-12 -1 -20 -1l9 17q5 9 9 17.5t6.5 22t4.5 35t3 56.5t1.5 87t0.5 127q0 109 -1 169.5t-3.5 92t-7.5 45t-13 28.5l-9 17q8 -1 19 -1q10 -1 25.5 -1h38.5h38t26 1q11 0 20 1l-9 -17l-9 -18t-6.5 -21.5
t-4.5 -35t-3 -56.5t-1.5 -87t-0.5 -127q0 -109 1 -169.5t3.5 -92t7.5 -45t13 -28.5zM137 832l-73 -70l-73 70l73 70zM328 832l-73 -70l-73 70l73 70z" />
    <glyph glyph-name="Eth" unicode="&#xd0;" horiz-adv-x="748" 
d="M691 372q0 -92 -20.5 -155.5t-53.5 -105t-75 -64.5t-85.5 -34t-85 -13t-72.5 -2q-32 0 -61.5 1.5t-58.5 1.5q-21 0 -36.5 -0.5t-26.5 -0.5q-12 -1 -20 -1l9 17q7 13 11.5 26t7.5 42t4.5 83t1.5 149h-13q-29 0 -48 -2t-30 -4q-13 -3 -20 -6v10q0 5 0.5 12.5t0.5 18.5
q0 10 -0.5 17.5t-0.5 12.5v11q7 -3 20 -6q11 -2 30 -4t48 -2h13q0 103 -1 161t-4 88.5t-8 44t-12 28.5l-9 17q8 -1 20 -1q11 -1 26 -1h36q30 0 67 1.5t69 1.5q25 0 63 -2t80 -12.5t84 -31.5t75 -59t54 -96t21 -141zM582 360q0 96 -24 153.5t-64 88t-90.5 40t-102.5 9.5
q-15 0 -28 -0.5t-22 -1.5q-11 -1 -20 -1v-274h73q29 0 47.5 2t29.5 4q13 3 21 6q-1 -5 -1 -11v-30v-31q0 -6 1 -10q-8 3 -21 6q-11 2 -29.5 4t-47.5 2h-73v-252q10 -1 21 -2q10 -1 21.5 -1h24.5q49 0 99.5 8.5t91.5 39t67 90t26 161.5z" />
    <glyph glyph-name="Ntilde" unicode="&#xd1;" horiz-adv-x="739" 
d="M461 838q15 0 28 7t22.5 15t15 15.5t6.5 9.5q0 -55 -23.5 -84t-62.5 -29q-15 0 -28 3.5t-23 6.5l-59 21q-13 5 -20.5 6.5t-20.5 1.5q-15 0 -28 -7t-22.5 -15.5t-15 -16t-6.5 -9.5q0 56 24 85t62 29q15 0 28 -3t23 -7l59 -21q13 -5 20.5 -6.5t20.5 -1.5zM661 696
q-5 -9 -8.5 -17t-6.5 -21.5t-5 -35t-3 -57t-1.5 -87.5t-0.5 -127v-353q-7 0 -16 1q-8 1 -19.5 1.5t-25.5 0.5q-17 0 -29.5 -0.5t-20.5 -1.5q-10 -1 -17 -1l-297 561q-12 22 -18.5 43t-7.5 26v-277q0 -109 1 -169.5t3.5 -92t7.5 -45t13 -28.5l9 -17q-7 0 -18 1q-9 0 -23 0.5
t-32 0.5q-19 0 -32.5 -0.5t-22.5 -0.5q-11 -1 -17 -1l9 17q5 9 8.5 17t6.5 21.5t5 35t3 57t1.5 87.5t0.5 127q0 109 -1 169.5t-3.5 92t-7.5 45t-13 28.5l-9 17q7 -1 19 -1q11 -1 27.5 -1h40.5h33.5t23.5 1q11 0 18 1l296 -559q8 -16 13.5 -29t8.5 -22q4 -11 5 -20v278
q0 109 -1 169.5t-3.5 92t-7.5 45t-13 28.5l-9 17q7 -1 18 -1q9 -1 22.5 -1h32.5h32.5t22.5 1q11 0 17 1z" />
    <glyph glyph-name="Ograve" unicode="&#xd2;" horiz-adv-x="756" 
d="M433 753q-14 4 -32 11q-15 6 -35 17t-43 30q-25 20 -40.5 36.5t-23.5 28.5q-11 14 -15 26h106zM589 354q0 84 -19 140t-49 90.5t-67 50.5t-72 22q-36 -6 -74 -23t-69.5 -52t-52 -90.5t-20.5 -137.5q0 -84 19 -140t49 -90.5t67 -50.5t73 -22q35 6 73 23t69.5 52t52 90.5
t20.5 137.5zM699 355q0 -76 -23.5 -141t-66.5 -114t-102.5 -79.5t-132.5 -36.5q-79 7 -138.5 38.5t-99 80t-59.5 112.5t-20 138q0 76 23.5 141.5t66 114t102.5 79t133 36.5q79 -8 138 -39t99 -79.5t60 -113t20 -137.5z" />
    <glyph glyph-name="Oacute" unicode="&#xd3;" horiz-adv-x="756" 
d="M412 902h106q-4 -12 -15 -26q-9 -12 -24.5 -28.5t-40.5 -36.5q-23 -19 -42.5 -30t-34.5 -17q-18 -7 -32 -11zM589 354q0 84 -19 140t-49 90.5t-67 50.5t-72 22q-36 -6 -74 -23t-69.5 -52t-52 -90.5t-20.5 -137.5q0 -84 19 -140t49 -90.5t67 -50.5t73 -22q35 6 73 23
t69.5 52t52 90.5t20.5 137.5zM699 355q0 -76 -23.5 -141t-66.5 -114t-102.5 -79.5t-132.5 -36.5q-79 7 -138.5 38.5t-99 80t-59.5 112.5t-20 138q0 76 23.5 141.5t66 114t102.5 79t133 36.5q79 -8 138 -39t99 -79.5t60 -113t20 -137.5z" />
    <glyph glyph-name="Ocircumflex" unicode="&#xd4;" horiz-adv-x="756" 
d="M589 354q0 84 -19 140t-49 90.5t-67 50.5t-72 22q-36 -6 -74 -23t-69.5 -52t-52 -90.5t-20.5 -137.5q0 -84 19 -140t49 -90.5t67 -50.5t73 -22q35 6 73 23t69.5 52t52 90.5t20.5 137.5zM699 355q0 -76 -23.5 -141t-66.5 -114t-102.5 -79.5t-132.5 -36.5
q-79 7 -138.5 38.5t-99 80t-59.5 112.5t-20 138q0 76 23.5 141.5t66 114t102.5 79t133 36.5q79 -8 138 -39t99 -79.5t60 -113t20 -137.5zM545 752q-47 3 -93 23t-72 52q-35 -38 -79 -55.5t-86 -19.5l136 150h59z" />
    <glyph glyph-name="Otilde" unicode="&#xd5;" horiz-adv-x="756" 
d="M469 838q15 0 28 7t22.5 15t15 15.5t6.5 9.5q0 -55 -23.5 -84t-62.5 -29q-15 0 -28 3.5t-23 6.5l-59 21q-13 5 -20.5 6.5t-20.5 1.5q-15 0 -28 -7t-22.5 -15.5t-15 -16t-6.5 -9.5q0 56 24 85t62 29q15 0 28 -3t23 -7l59 -21q13 -5 20.5 -6.5t20.5 -1.5zM589 354
q0 84 -19 140t-49 90.5t-67 50.5t-72 22q-36 -6 -74 -23t-69.5 -52t-52 -90.5t-20.5 -137.5q0 -84 19 -140t49 -90.5t67 -50.5t73 -22q35 6 73 23t69.5 52t52 90.5t20.5 137.5zM699 355q0 -76 -23.5 -141t-66.5 -114t-102.5 -79.5t-132.5 -36.5q-79 7 -138.5 38.5t-99 80
t-59.5 112.5t-20 138q0 76 23.5 141.5t66 114t102.5 79t133 36.5q79 -8 138 -39t99 -79.5t60 -113t20 -137.5z" />
    <glyph glyph-name="Odieresis" unicode="&#xd6;" horiz-adv-x="756" 
d="M358 832l-73 -70l-73 70l73 70zM549 832l-73 -70l-73 70l73 70zM589 354q0 84 -19 140t-49 90.5t-67 50.5t-72 22q-36 -6 -74 -23t-69.5 -52t-52 -90.5t-20.5 -137.5q0 -84 19 -140t49 -90.5t67 -50.5t73 -22q35 6 73 23t69.5 52t52 90.5t20.5 137.5zM699 355
q0 -76 -23.5 -141t-66.5 -114t-102.5 -79.5t-132.5 -36.5q-79 7 -138.5 38.5t-99 80t-59.5 112.5t-20 138q0 76 23.5 141.5t66 114t102.5 79t133 36.5q79 -8 138 -39t99 -79.5t60 -113t20 -137.5z" />
    <glyph glyph-name="multiply" unicode="&#xd7;" 
d="M372 354l193 -191l-49 -49l-193 192l-192 -193l-49 49l193 192l-192 192l49 49l191 -192l193 193l49 -49z" />
    <glyph glyph-name="Oslash" unicode="&#xd8;" horiz-adv-x="756" 
d="M699 355q0 -76 -23.5 -141t-66.5 -114t-102.5 -79.5t-132.5 -36.5q-71 7 -129 33l-39 -83l-51 23l41 87q-71 51 -105 131.5t-34 177.5q0 76 23.5 141.5t66 114t102.5 79t133 36.5q67 -8 122 -30l38 80l51 -23l-40 -85q75 -49 110.5 -131t35.5 -180zM589 354q0 87 -21 143
t-54 89l-235 -500q23 -15 47.5 -23t47.5 -12q35 6 73 23t69.5 52t52 90.5t20.5 137.5zM166 354q0 -84 19.5 -138.5t50.5 -89.5l234 499q-21 14 -43.5 21t-44.5 11q-36 -6 -74 -23t-69.5 -52t-52 -90.5t-20.5 -137.5z" />
    <glyph glyph-name="Ugrave" unicode="&#xd9;" horiz-adv-x="728" 
d="M438 753q-14 4 -32 11q-15 6 -35 17t-43 30q-25 20 -40.5 36.5t-23.5 28.5q-11 14 -15 26h106zM648 697q-5 -9 -9 -17.5t-6.5 -22t-4.5 -34.5t-3 -56.5t-1.5 -87.5t-0.5 -127q0 -89 2 -143.5t5 -85.5t7.5 -45t9.5 -22q-29 -19 -69 -34q-34 -13 -82.5 -23t-111.5 -10
q-99 0 -156 26t-85 71.5t-35 107.5t-7 134q0 95 4 165.5t4 116.5q0 28 -6 51t-32 37q7 3 18 7q8 3 20 5.5t26 2.5q28 0 44.5 -6t25 -17t10.5 -25.5t2 -30.5q0 -13 -2 -45.5t-4 -72.5t-4 -82.5t-2 -75.5q0 -66 4 -121t22 -95.5t54.5 -63t101.5 -22.5q38 0 64 3t42 8
q18 4 30 11v298q0 103 -1 160.5t-3.5 88.5t-7.5 44t-13 28l-9 17q8 -1 20 -1q11 -1 26 -1h38h37.5t26.5 1q12 0 20 1z" />
    <glyph glyph-name="Uacute" unicode="&#xda;" horiz-adv-x="728" 
d="M406 902h106q-4 -12 -15 -26q-9 -12 -24.5 -28.5t-40.5 -36.5q-23 -19 -42.5 -30t-34.5 -17q-18 -7 -32 -11zM648 697q-5 -9 -9 -17.5t-6.5 -22t-4.5 -34.5t-3 -56.5t-1.5 -87.5t-0.5 -127q0 -89 2 -143.5t5 -85.5t7.5 -45t9.5 -22q-29 -19 -69 -34q-34 -13 -82.5 -23
t-111.5 -10q-99 0 -156 26t-85 71.5t-35 107.5t-7 134q0 95 4 165.5t4 116.5q0 28 -6 51t-32 37q7 3 18 7q8 3 20 5.5t26 2.5q28 0 44.5 -6t25 -17t10.5 -25.5t2 -30.5q0 -13 -2 -45.5t-4 -72.5t-4 -82.5t-2 -75.5q0 -66 4 -121t22 -95.5t54.5 -63t101.5 -22.5q38 0 64 3
t42 8q18 4 30 11v298q0 103 -1 160.5t-3.5 88.5t-7.5 44t-13 28l-9 17q8 -1 20 -1q11 -1 26 -1h38h37.5t26.5 1q12 0 20 1z" />
    <glyph glyph-name="Ucircumflex" unicode="&#xdb;" horiz-adv-x="728" 
d="M648 697q-5 -9 -9 -17.5t-6.5 -22t-4.5 -34.5t-3 -56.5t-1.5 -87.5t-0.5 -127q0 -89 2 -143.5t5 -85.5t7.5 -45t9.5 -22q-29 -19 -69 -34q-34 -13 -82.5 -23t-111.5 -10q-99 0 -156 26t-85 71.5t-35 107.5t-7 134q0 95 4 165.5t4 116.5q0 28 -6 51t-32 37q7 3 18 7
q8 3 20 5.5t26 2.5q28 0 44.5 -6t25 -17t10.5 -25.5t2 -30.5q0 -13 -2 -45.5t-4 -72.5t-4 -82.5t-2 -75.5q0 -66 4 -121t22 -95.5t54.5 -63t101.5 -22.5q38 0 64 3t42 8q18 4 30 11v298q0 103 -1 160.5t-3.5 88.5t-7.5 44t-13 28l-9 17q8 -1 20 -1q11 -1 26 -1h38h37.5
t26.5 1q12 0 20 1zM546 752q-47 3 -93 23t-72 52q-35 -38 -79 -55.5t-86 -19.5l136 150h59z" />
    <glyph glyph-name="Udieresis" unicode="&#xdc;" horiz-adv-x="728" 
d="M350 832l-73 -70l-73 70l73 70zM541 832l-73 -70l-73 70l73 70zM648 697q-5 -9 -9 -17.5t-6.5 -22t-4.5 -34.5t-3 -56.5t-1.5 -87.5t-0.5 -127q0 -89 2 -143.5t5 -85.5t7.5 -45t9.5 -22q-29 -19 -69 -34q-34 -13 -82.5 -23t-111.5 -10q-99 0 -156 26t-85 71.5t-35 107.5
t-7 134q0 95 4 165.5t4 116.5q0 28 -6 51t-32 37q7 3 18 7q8 3 20 5.5t26 2.5q28 0 44.5 -6t25 -17t10.5 -25.5t2 -30.5q0 -13 -2 -45.5t-4 -72.5t-4 -82.5t-2 -75.5q0 -66 4 -121t22 -95.5t54.5 -63t101.5 -22.5q38 0 64 3t42 8q18 4 30 11v298q0 103 -1 160.5t-3.5 88.5
t-7.5 44t-13 28l-9 17q8 -1 20 -1q11 -1 26 -1h38h37.5t26.5 1q12 0 20 1z" />
    <glyph glyph-name="Yacute" unicode="&#xdd;" horiz-adv-x="555" 
d="M556 713q-11 -9 -19 -21t-18 -35q-9 -23 -22.5 -62t-34.5 -88t-52.5 -105t-77.5 -111q0 -80 1 -127.5t3.5 -75.5t7.5 -42.5t13 -29.5l9 -17q-8 0 -20 1q-11 0 -26.5 0.5t-37.5 0.5t-37.5 -0.5t-26.5 -0.5q-12 -1 -20 -1l9 17q7 13 12 27t8 41t4 72.5t1 121.5l-115 228
q-32 63 -51 99.5t-32 57t-22.5 30.5t-22.5 20q9 -1 23 -1q12 -1 32 -1h49h48.5t30.5 1q13 0 20 1q-12 -11 -17.5 -23t-5.5 -24q0 -11 1.5 -21t7 -24.5t15.5 -37t27 -58.5l78 -166q14 17 34.5 53t39 78.5t31.5 85t13 74.5q0 29 -8.5 42.5t-18.5 20.5q10 -1 23 -1q11 -1 27 -1
h36h33t26 1q12 0 22 1zM330 902h106q-4 -12 -15 -26q-9 -12 -24.5 -28.5t-40.5 -36.5q-23 -19 -42.5 -30t-34.5 -17q-18 -7 -32 -11z" />
    <glyph glyph-name="Thorn" unicode="&#xde;" horiz-adv-x="569" 
d="M243 -1q-8 0 -19 1q-10 0 -26 0.5t-38 0.5q-23 0 -38 -0.5t-26 -0.5q-12 -1 -20 -1l9 17q5 9 9 17.5t6.5 22t4.5 35t3 56.5t1.5 87t0.5 127q0 109 -1 169.5t-3.5 92t-7.5 45t-13 28.5l-9 17q8 -1 19 -1q10 -1 25.5 -1h38.5h38t26 1q11 0 20 1l-9 -17q-4 -8 -7.5 -14.5
t-6 -15.5t-4.5 -21.5t-3 -31.5q16 0 31.5 0.5t29.5 0.5q25 0 54 -1.5t58 -7.5t56 -18.5t47.5 -35.5t33 -58t12.5 -85q0 -56 -15.5 -96.5t-42 -67t-61 -39t-72.5 -12.5q-27 0 -45.5 5.5t-29.5 13.5t-16 16.5t-5 15.5q2 -1 6 -1h18q28 0 56 4.5t50 21t35.5 48t13.5 85.5
q0 36 -7 64t-24 47.5t-47 29.5t-75 10q-26 0 -43.5 -0.5t-20.5 -0.5q-1 -35 -1 -83.5v-117.5q0 -109 1 -169.5t3.5 -92t7.5 -45t13 -28.5z" />
    <glyph glyph-name="germandbls" unicode="&#xdf;" horiz-adv-x="662" 
d="M624 158q0 -27 -7.5 -56t-29 -52.5t-59.5 -39t-99 -15.5q-35 0 -63 4.5t-47 10.5q-23 6 -39 15q0 5 1 14q0 8 0.5 19t0.5 26q0 14 -0.5 26.5t-0.5 21.5q-1 11 -1 19q14 -21 28.5 -39t31.5 -30.5t38.5 -19.5t49.5 -7q32 0 52 7.5t31.5 19.5t15.5 27t4 30q0 32 -15.5 50
t-43.5 35l-91 55q-19 11 -36 22.5t-29.5 26t-19.5 34t-7 47.5q0 27 8 46t21.5 34t30.5 27t36 24q17 10 32.5 20t27 22.5t18.5 27.5t7 36q0 24 -9.5 39.5t-27 25t-41 13.5t-51.5 4q-38 0 -63.5 -8t-40.5 -23q-29 -24 -34.5 -59.5t-5.5 -94.5v-305q0 -86 -0.5 -134t-1 -71
t-2 -28.5t-3.5 -5.5q-9 0 -26 1t-31 1h-65q2 3 6.5 14.5t4.5 31.5q6 12 10.5 28t7 43t3.5 69t1 106v19.5v46v59v59v46.5t1 20q2 46 10 90t33.5 78t73 55t127.5 21q35 0 75 -5t73.5 -19.5t56 -41t22.5 -69.5q0 -25 -7 -44.5t-21 -36t-34.5 -31t-46.5 -29.5
q-38 -23 -62.5 -41.5t-24.5 -42.5q0 -14 3.5 -23t12 -17.5t22.5 -16.5l35 -20l69 -39q47 -26 76 -60.5t29 -92.5z" />
    <glyph glyph-name="agrave" unicode="&#xe0;" horiz-adv-x="574" 
d="M385 265q-8 1 -19 2q-10 1 -25.5 2t-38.5 1q-21 0 -47 -2.5t-48.5 -13t-38 -32t-15.5 -60.5q0 -56 31 -81t77 -25q38 0 62 9.5t38 21.5q16 13 24 31v147zM512 17l-125 -25l4 118q-9 -41 -28 -65t-42 -36.5t-48 -16.5t-46 -4q-53 0 -87 16t-53.5 40t-27 53t-7.5 55
q0 63 24 99t59 53.5t76 21.5t75 4q21 0 39 -1t32 -2q16 -1 28 -2v47q0 30 -2.5 57t-16.5 47q-12 17 -36.5 27.5t-66.5 10.5q-11 0 -29.5 -1.5t-40.5 -8.5t-44 -22t-39 -42q0 7 1 16q0 8 0.5 17.5t0.5 22.5t-0.5 23t-0.5 17q-1 8 -1 14q15 8 40 14q20 5 52.5 9.5t77.5 4.5
q39 0 67.5 -5t48.5 -13t33 -18.5t21 -21.5q23 -29 27 -67t4 -86q0 -16 -1 -64t-1 -127q0 -55 5 -86t19 -56zM334 624q-14 3 -32 10q-15 6 -35 17t-43 30q-25 20 -40.5 36.5t-23.5 28.5q-11 14 -15 26h106z" />
    <glyph glyph-name="aacute" unicode="&#xe1;" horiz-adv-x="574" 
d="M385 265q-8 1 -19 2q-10 1 -25.5 2t-38.5 1q-21 0 -47 -2.5t-48.5 -13t-38 -32t-15.5 -60.5q0 -56 31 -81t77 -25q38 0 62 9.5t38 21.5q16 13 24 31v147zM512 17l-125 -25l4 118q-9 -41 -28 -65t-42 -36.5t-48 -16.5t-46 -4q-53 0 -87 16t-53.5 40t-27 53t-7.5 55
q0 63 24 99t59 53.5t76 21.5t75 4q21 0 39 -1t32 -2q16 -1 28 -2v47q0 30 -2.5 57t-16.5 47q-12 17 -36.5 27.5t-66.5 10.5q-11 0 -29.5 -1.5t-40.5 -8.5t-44 -22t-39 -42q0 7 1 16q0 8 0.5 17.5t0.5 22.5t-0.5 23t-0.5 17q-1 8 -1 14q15 8 40 14q20 5 52.5 9.5t77.5 4.5
q39 0 67.5 -5t48.5 -13t33 -18.5t21 -21.5q23 -29 27 -67t4 -86q0 -16 -1 -64t-1 -127q0 -55 5 -86t19 -56zM310 772h106q-4 -12 -15 -26q-9 -12 -24.5 -28.5t-40.5 -36.5q-23 -19 -42.5 -30t-34.5 -17q-18 -7 -32 -10z" />
    <glyph glyph-name="acircumflex" unicode="&#xe2;" horiz-adv-x="574" 
d="M385 265q-8 1 -19 2q-10 1 -25.5 2t-38.5 1q-21 0 -47 -2.5t-48.5 -13t-38 -32t-15.5 -60.5q0 -56 31 -81t77 -25q38 0 62 9.5t38 21.5q16 13 24 31v147zM512 17l-125 -25l4 118q-9 -41 -28 -65t-42 -36.5t-48 -16.5t-46 -4q-53 0 -87 16t-53.5 40t-27 53t-7.5 55
q0 63 24 99t59 53.5t76 21.5t75 4q21 0 39 -1t32 -2q16 -1 28 -2v47q0 30 -2.5 57t-16.5 47q-12 17 -36.5 27.5t-66.5 10.5q-11 0 -29.5 -1.5t-40.5 -8.5t-44 -22t-39 -42q0 7 1 16q0 8 0.5 17.5t0.5 22.5t-0.5 23t-0.5 17q-1 8 -1 14q15 8 40 14q20 5 52.5 9.5t77.5 4.5
q39 0 67.5 -5t48.5 -13t33 -18.5t21 -21.5q23 -29 27 -67t4 -86q0 -16 -1 -64t-1 -127q0 -55 5 -86t19 -56zM446 623q-47 2 -93 22t-72 52q-35 -38 -79 -55t-86 -19l136 149h59z" />
    <glyph glyph-name="atilde" unicode="&#xe3;" horiz-adv-x="574" 
d="M385 265q-8 1 -19 2q-10 1 -25.5 2t-38.5 1q-21 0 -47 -2.5t-48.5 -13t-38 -32t-15.5 -60.5q0 -56 31 -81t77 -25q38 0 62 9.5t38 21.5q16 13 24 31v147zM512 17l-125 -25l4 118q-9 -41 -28 -65t-42 -36.5t-48 -16.5t-46 -4q-53 0 -87 16t-53.5 40t-27 53t-7.5 55
q0 63 24 99t59 53.5t76 21.5t75 4q21 0 39 -1t32 -2q16 -1 28 -2v47q0 30 -2.5 57t-16.5 47q-12 17 -36.5 27.5t-66.5 10.5q-11 0 -29.5 -1.5t-40.5 -8.5t-44 -22t-39 -42q0 7 1 16q0 8 0.5 17.5t0.5 22.5t-0.5 23t-0.5 17q-1 8 -1 14q15 8 40 14q20 5 52.5 9.5t77.5 4.5
q39 0 67.5 -5t48.5 -13t33 -18.5t21 -21.5q23 -29 27 -67t4 -86q0 -16 -1 -64t-1 -127q0 -55 5 -86t19 -56zM368 707q15 0 28 7t22.5 15t15 15.5t6.5 9.5q0 -54 -23.5 -83t-62.5 -29q-15 0 -28 3t-23 7l-59 21q-13 5 -20.5 6.5t-20.5 1.5q-15 0 -28 -7t-22.5 -15.5t-15 -16
t-6.5 -9.5q0 56 24 84.5t62 28.5q15 0 28 -3t23 -7l59 -21q13 -4 20.5 -6t20.5 -2z" />
    <glyph glyph-name="adieresis" unicode="&#xe4;" horiz-adv-x="574" 
d="M385 265q-8 1 -19 2q-10 1 -25.5 2t-38.5 1q-21 0 -47 -2.5t-48.5 -13t-38 -32t-15.5 -60.5q0 -56 31 -81t77 -25q38 0 62 9.5t38 21.5q16 13 24 31v147zM512 17l-125 -25l4 118q-9 -41 -28 -65t-42 -36.5t-48 -16.5t-46 -4q-53 0 -87 16t-53.5 40t-27 53t-7.5 55
q0 63 24 99t59 53.5t76 21.5t75 4q21 0 39 -1t32 -2q16 -1 28 -2v47q0 30 -2.5 57t-16.5 47q-12 17 -36.5 27.5t-66.5 10.5q-11 0 -29.5 -1.5t-40.5 -8.5t-44 -22t-39 -42q0 7 1 16q0 8 0.5 17.5t0.5 22.5t-0.5 23t-0.5 17q-1 8 -1 14q15 8 40 14q20 5 52.5 9.5t77.5 4.5
q39 0 67.5 -5t48.5 -13t33 -18.5t21 -21.5q23 -29 27 -67t4 -86q0 -16 -1 -64t-1 -127q0 -55 5 -86t19 -56zM260 704l-73 -70l-73 70l73 70zM451 704l-73 -70l-73 70l73 70z" />
    <glyph glyph-name="aring" unicode="&#xe5;" horiz-adv-x="574" 
d="M385 265q-8 1 -19 2q-10 1 -25.5 2t-38.5 1q-21 0 -47 -2.5t-48.5 -13t-38 -32t-15.5 -60.5q0 -56 31 -81t77 -25q38 0 62 9.5t38 21.5q16 13 24 31v147zM512 17l-125 -25l4 118q-9 -41 -28 -65t-42 -36.5t-48 -16.5t-46 -4q-53 0 -87 16t-53.5 40t-27 53t-7.5 55
q0 63 24 99t59 53.5t76 21.5t75 4q21 0 39 -1t32 -2q16 -1 28 -2v47q0 30 -2.5 57t-16.5 47q-12 17 -36.5 27.5t-66.5 10.5q-11 0 -29.5 -1.5t-40.5 -8.5t-44 -22t-39 -42q0 7 1 16q0 8 0.5 17.5t0.5 22.5t-0.5 23t-0.5 17q-1 8 -1 14q15 8 40 14q20 5 52.5 9.5t77.5 4.5
q39 0 67.5 -5t48.5 -13t33 -18.5t21 -21.5q23 -29 27 -67t4 -86q0 -16 -1 -64t-1 -127q0 -55 5 -86t19 -56zM389 708q0 -49 -30.5 -74.5t-75.5 -25.5t-75.5 25t-30.5 75q0 48 30 73.5t75 25.5t76 -25t31 -74zM340 708q0 29 -16 43.5t-42 14.5q-23 0 -40 -14.5t-17 -43.5
t16 -43.5t42 -14.5q23 0 40 14.5t17 43.5z" />
    <glyph glyph-name="ae" unicode="&#xe6;" horiz-adv-x="880" 
d="M834 404q0 -45 -13.5 -76.5t-36.5 -51.5t-53 -29.5t-63 -9.5q-35 0 -58 7.5t-37 18t-20 22t-6 18.5q7 -2 18 -4q9 -2 23 -3t34 -1q63 0 87 30t24 79q0 62 -32.5 88t-83.5 26q-40 0 -66 -15t-41.5 -43.5t-22 -71t-6.5 -97.5q0 -46 7 -88t26 -74t52.5 -51t85.5 -19
q51 0 83.5 10.5t52.5 24.5q23 16 35 36q0 -27 -10 -52.5t-33 -45t-60 -31.5t-91 -12q-56 0 -101 15.5t-76.5 49t-49 85.5t-17.5 126q-8 0 -19 1q-10 1 -25.5 1.5t-37.5 0.5q-37 0 -65 -5.5t-47 -18.5t-28.5 -35t-9.5 -55q0 -51 27.5 -79t76.5 -28q28 0 48 6.5t33 15
t19.5 15.5t7.5 9q-1 -45 -36.5 -75t-104.5 -30q-50 0 -82.5 14.5t-52.5 38t-28 52.5t-8 59q0 62 23 98t57.5 54t76 22.5t77.5 4.5q22 0 40 -1t31 -2q15 -1 27 -2v55q0 26 -4.5 52t-18.5 43q-12 15 -36 24.5t-67 9.5q-12 0 -31 -1t-40 -7t-41.5 -19t-36.5 -37q0 39 15.5 64.5
t40.5 40.5t56 21t63 6q68 0 108.5 -18.5t60.5 -59.5q19 31 65 54.5t105 23.5q66 0 107.5 -19t64 -46t30.5 -57t8 -52z" />
    <glyph glyph-name="ccedilla" unicode="&#xe7;" horiz-adv-x="511" 
d="M479 129q0 -23 -9.5 -47t-29 -43.5t-50.5 -32.5t-74 -16q-2 -5 -3 -8.5t-1 -6.5q0 -9 6.5 -15t17.5 -13l12 -9q5 -3 12.5 -8.5t14 -13t11 -18.5t4.5 -25q0 -27 -15 -44.5t-37.5 -27t-47.5 -12.5t-45 -1q4 1 15 7.5t22.5 16.5t20 23t8.5 28t-5.5 25t-16.5 25l-6 8
q-6 8 -10.5 16.5t-4.5 20.5q0 8 2.5 16t6.5 16q-103 6 -164 78t-61 203q0 22 3 53.5t12 65.5t26.5 67.5t47 60t72 43t102.5 16.5q42 0 71 -6t48 -14q22 -9 36 -19q-1 -6 -1 -14q-1 -7 -1 -17.5v-24.5v-27t1 -24q0 -12 1 -24q-20 32 -37 53t-35 33.5t-37.5 17.5t-44.5 5
q-31 0 -60 -10.5t-51 -37t-35.5 -72.5t-13.5 -116q0 -45 9 -85t28.5 -70t51.5 -47.5t77 -17.5q43 0 73 10.5t49 23.5q22 15 35 35z" />
    <glyph glyph-name="egrave" unicode="&#xe8;" horiz-adv-x="557" 
d="M401 413q0 13 -2.5 31.5t-13.5 35.5t-33 28.5t-60 11.5q-28 0 -53 -8.5t-43.5 -31t-29.5 -62t-11 -102.5q11 -3 27 -5q14 -2 35 -3.5t51 -1.5q18 0 41 2.5t43.5 13.5t34.5 32t14 59zM504 419q0 -93 -58 -133t-170 -40q-26 0 -48.5 2t-38.5 4q-19 3 -34 7q0 -32 7 -67.5
t26 -65t52 -48.5t85 -19q51 0 84 10.5t53 24.5q23 16 35 36q0 -27 -10.5 -52.5t-33.5 -45t-60 -31.5t-90 -12q-68 0 -115.5 21.5t-77.5 60t-44 90.5t-14 112q0 96 23 155.5t58.5 92.5t78 45t80.5 12q100 0 156 -41.5t56 -117.5zM352 624q-14 3 -32 10q-15 6 -35 17t-43 30
q-25 20 -40.5 36.5t-23.5 28.5q-11 14 -15 26h106z" />
    <glyph glyph-name="eacute" unicode="&#xe9;" horiz-adv-x="557" 
d="M323 772h106q-4 -12 -15 -26q-9 -12 -24.5 -28.5t-40.5 -36.5q-23 -19 -42.5 -30t-34.5 -17q-18 -7 -32 -10zM401 413q0 13 -2.5 31.5t-13.5 35.5t-33 28.5t-60 11.5q-28 0 -53 -8.5t-43.5 -31t-29.5 -62t-11 -102.5q11 -3 27 -5q14 -2 35 -3.5t51 -1.5q18 0 41 2.5
t43.5 13.5t34.5 32t14 59zM504 419q0 -93 -58 -133t-170 -40q-26 0 -48.5 2t-38.5 4q-19 3 -34 7q0 -32 7 -67.5t26 -65t52 -48.5t85 -19q51 0 84 10.5t53 24.5q23 16 35 36q0 -27 -10.5 -52.5t-33.5 -45t-60 -31.5t-90 -12q-68 0 -115.5 21.5t-77.5 60t-44 90.5t-14 112
q0 96 23 155.5t58.5 92.5t78 45t80.5 12q100 0 156 -41.5t56 -117.5z" />
    <glyph glyph-name="ecircumflex" unicode="&#xea;" horiz-adv-x="557" 
d="M463 623q-47 2 -93 22t-72 52q-35 -38 -79 -55t-86 -19l136 149h59zM401 413q0 13 -2.5 31.5t-13.5 35.5t-33 28.5t-60 11.5q-28 0 -53 -8.5t-43.5 -31t-29.5 -62t-11 -102.5q11 -3 27 -5q14 -2 35 -3.5t51 -1.5q18 0 41 2.5t43.5 13.5t34.5 32t14 59zM504 419
q0 -93 -58 -133t-170 -40q-26 0 -48.5 2t-38.5 4q-19 3 -34 7q0 -32 7 -67.5t26 -65t52 -48.5t85 -19q51 0 84 10.5t53 24.5q23 16 35 36q0 -27 -10.5 -52.5t-33.5 -45t-60 -31.5t-90 -12q-68 0 -115.5 21.5t-77.5 60t-44 90.5t-14 112q0 96 23 155.5t58.5 92.5t78 45
t80.5 12q100 0 156 -41.5t56 -117.5z" />
    <glyph glyph-name="edieresis" unicode="&#xeb;" horiz-adv-x="557" 
d="M271 704l-73 -70l-73 70l73 70zM462 704l-73 -70l-73 70l73 70zM401 413q0 13 -2.5 31.5t-13.5 35.5t-33 28.5t-60 11.5q-28 0 -53 -8.5t-43.5 -31t-29.5 -62t-11 -102.5q11 -3 27 -5q14 -2 35 -3.5t51 -1.5q18 0 41 2.5t43.5 13.5t34.5 32t14 59zM504 419
q0 -93 -58 -133t-170 -40q-26 0 -48.5 2t-38.5 4q-19 3 -34 7q0 -32 7 -67.5t26 -65t52 -48.5t85 -19q51 0 84 10.5t53 24.5q23 16 35 36q0 -27 -10.5 -52.5t-33.5 -45t-60 -31.5t-90 -12q-68 0 -115.5 21.5t-77.5 60t-44 90.5t-14 112q0 96 23 155.5t58.5 92.5t78 45
t80.5 12q100 0 156 -41.5t56 -117.5z" />
    <glyph glyph-name="igrave" unicode="&#xec;" horiz-adv-x="293" 
d="M242 15q-5 -6 -16 -10q-9 -4 -23.5 -6.5t-36.5 -2.5q-23 0 -36.5 6t-21 17t-9.5 25.5t-2 32.5q0 21 0.5 49.5t1 59t1 60.5t0.5 56q0 65 -1.5 105t-5 64t-8 37t-10.5 24l-9 17l138 25q-3 -20 -5 -56q-2 -31 -3 -83.5t-1 -133.5v-114q0 -46 1.5 -75.5t6.5 -48t14.5 -29
t24.5 -19.5zM207 624q-14 3 -32 10q-15 6 -35 17t-43 30q-25 20 -40.5 36.5t-23.5 28.5q-11 14 -15 26h106z" />
    <glyph glyph-name="iacute" unicode="&#xed;" horiz-adv-x="293" 
d="M165 772h106q-4 -12 -15 -26q-9 -12 -24.5 -28.5t-40.5 -36.5q-23 -19 -42.5 -30t-34.5 -17q-18 -7 -32 -10zM242 15q-5 -6 -16 -10q-9 -4 -23.5 -6.5t-36.5 -2.5q-23 0 -36.5 6t-21 17t-9.5 25.5t-2 32.5q0 21 0.5 49.5t1 59t1 60.5t0.5 56q0 65 -1.5 105t-5 64t-8 37
t-10.5 24l-9 17l138 25q-3 -20 -5 -56q-2 -31 -3 -83.5t-1 -133.5v-114q0 -46 1.5 -75.5t6.5 -48t14.5 -29t24.5 -19.5z" />
    <glyph glyph-name="icircumflex" unicode="&#xee;" horiz-adv-x="293" 
d="M316 623q-47 2 -93 22t-72 52q-35 -38 -79 -55t-86 -19l136 149h59zM242 15q-5 -6 -16 -10q-9 -4 -23.5 -6.5t-36.5 -2.5q-23 0 -36.5 6t-21 17t-9.5 25.5t-2 32.5q0 21 0.5 49.5t1 59t1 60.5t0.5 56q0 65 -1.5 105t-5 64t-8 37t-10.5 24l-9 17l138 25q-3 -20 -5 -56
q-2 -31 -3 -83.5t-1 -133.5v-114q0 -46 1.5 -75.5t6.5 -48t14.5 -29t24.5 -19.5z" />
    <glyph glyph-name="idieresis" unicode="&#xef;" horiz-adv-x="293" 
d="M121 704l-73 -70l-73 70l73 70zM312 704l-73 -70l-73 70l73 70zM242 15q-5 -6 -16 -10q-9 -4 -23.5 -6.5t-36.5 -2.5q-23 0 -36.5 6t-21 17t-9.5 25.5t-2 32.5q0 21 0.5 49.5t1 59t1 60.5t0.5 56q0 65 -1.5 105t-5 64t-8 37t-10.5 24l-9 17l138 25q-3 -20 -5 -56
q-2 -31 -3 -83.5t-1 -133.5v-114q0 -46 1.5 -75.5t6.5 -48t14.5 -29t24.5 -19.5z" />
    <glyph glyph-name="eth" unicode="&#xf0;" horiz-adv-x="616" 
d="M564 398q0 -95 -12.5 -162t-33 -112.5t-47 -72.5t-55.5 -41.5t-58 -18.5t-54 -4q-77 0 -126 26.5t-77 68t-38.5 90.5t-10.5 94q0 83 20 139t53 90t75.5 48.5t87.5 14.5q51 0 84 -14.5t52.5 -33t27.5 -35t9 -20.5q-3 73 -16 122t-35 80l-73 -47l-23 36l66 44
q-26 21 -60 28t-75 7q-38 0 -65 -5.5t-44 -11.5q-20 -8 -32 -17q7 27 28 48q18 18 54 33t99 15q42 0 85.5 -9.5t82.5 -40.5l75 48l23 -36l-67 -44q36 -43 58 -116.5t22 -190.5zM462 398q0 7 -0.5 15t-0.5 14q-1 7 -1 14q-12 16 -31 28q-17 11 -44 19.5t-66 8.5
q-48 0 -79.5 -17.5t-50 -48t-26 -71t-7.5 -86.5q0 -50 9 -91t27 -70.5t46.5 -45.5t67.5 -16q49 0 79.5 20.5t47.5 63.5t23 108t6 155z" />
    <glyph glyph-name="ntilde" unicode="&#xf1;" horiz-adv-x="637" 
d="M574 -1q-8 0 -19 1q-10 0 -26 0.5t-38 0.5q-23 0 -38 -0.5t-25 -0.5q-11 -1 -18 -1l9 17q6 11 10.5 21.5t8 35t5 70t1.5 127.5t-4 125.5t-18 66.5q-11 17 -32 31.5t-65 14.5q-42 0 -66 -10.5t-38 -22.5q-16 -15 -22 -33v-171q0 -82 1.5 -128t5 -70.5t8 -35t10.5 -21.5
l9 -17q-7 0 -18 1q-10 0 -25.5 0.5t-37.5 0.5q-23 0 -38.5 -0.5t-25.5 -0.5q-11 -1 -19 -1l9 17q6 11 10.5 21.5t8 35t5 70.5t1.5 128v31q0 65 -1.5 105t-5 64t-8 37t-10.5 24l-9 17l130 25l-4 -125q9 40 27 65.5t41 39.5t48.5 19t49.5 5q57 0 94.5 -19.5t57.5 -54.5
q8 -16 13.5 -33.5t8.5 -41.5t4 -56t1 -76v-26q0 -82 1.5 -128t5 -70.5t8 -35t10.5 -21.5zM405 707q15 0 28 7t22.5 15t15 15.5t6.5 9.5q0 -54 -23.5 -83t-62.5 -29q-15 0 -28 3t-23 7l-59 21q-13 5 -20.5 6.5t-20.5 1.5q-15 0 -28 -7t-22.5 -15.5t-15 -16t-6.5 -9.5
q0 56 24 84.5t62 28.5q15 0 28 -3t23 -7l59 -21q13 -4 20.5 -6t20.5 -2z" />
    <glyph glyph-name="ograve" unicode="&#xf2;" horiz-adv-x="635" 
d="M476 283q0 66 -14.5 109t-37 69.5t-50 39.5t-54.5 18q-26 -5 -54.5 -18.5t-52.5 -41t-39.5 -70.5t-15.5 -107q0 -66 14.5 -109t37 -69.5t50 -39.5t54.5 -18q27 5 55.5 18.5t52 41t39 70.5t15.5 107zM582 283q0 -58 -18 -109.5t-52.5 -91.5t-84 -65.5t-113.5 -30.5
q-69 6 -119 32.5t-81.5 66.5t-46.5 91t-15 106q0 58 18 109.5t52.5 91.5t84 65.5t113.5 30.5q70 -6 119.5 -32.5t81 -67t46.5 -91t15 -105.5zM370 624q-14 3 -32 10q-15 6 -35 17t-43 30q-25 20 -40.5 36.5t-23.5 28.5q-11 14 -15 26h106z" />
    <glyph glyph-name="oacute" unicode="&#xf3;" horiz-adv-x="635" 
d="M354 772h106q-4 -12 -15 -26q-9 -12 -24.5 -28.5t-40.5 -36.5q-23 -19 -42.5 -30t-34.5 -17q-18 -7 -32 -10zM476 283q0 66 -14.5 109t-37 69.5t-50 39.5t-54.5 18q-26 -5 -54.5 -18.5t-52.5 -41t-39.5 -70.5t-15.5 -107q0 -66 14.5 -109t37 -69.5t50 -39.5t54.5 -18
q27 5 55.5 18.5t52 41t39 70.5t15.5 107zM582 283q0 -58 -18 -109.5t-52.5 -91.5t-84 -65.5t-113.5 -30.5q-69 6 -119 32.5t-81.5 66.5t-46.5 91t-15 106q0 58 18 109.5t52.5 91.5t84 65.5t113.5 30.5q70 -6 119.5 -32.5t81 -67t46.5 -91t15 -105.5z" />
    <glyph glyph-name="ocircumflex" unicode="&#xf4;" horiz-adv-x="635" 
d="M484 623q-47 2 -93 22t-72 52q-35 -38 -79 -55t-86 -19l136 149h59zM476 283q0 66 -14.5 109t-37 69.5t-50 39.5t-54.5 18q-26 -5 -54.5 -18.5t-52.5 -41t-39.5 -70.5t-15.5 -107q0 -66 14.5 -109t37 -69.5t50 -39.5t54.5 -18q27 5 55.5 18.5t52 41t39 70.5t15.5 107z
M582 283q0 -58 -18 -109.5t-52.5 -91.5t-84 -65.5t-113.5 -30.5q-69 6 -119 32.5t-81.5 66.5t-46.5 91t-15 106q0 58 18 109.5t52.5 91.5t84 65.5t113.5 30.5q70 -6 119.5 -32.5t81 -67t46.5 -91t15 -105.5z" />
    <glyph glyph-name="otilde" unicode="&#xf5;" horiz-adv-x="635" 
d="M476 283q0 66 -14.5 109t-37 69.5t-50 39.5t-54.5 18q-26 -5 -54.5 -18.5t-52.5 -41t-39.5 -70.5t-15.5 -107q0 -66 14.5 -109t37 -69.5t50 -39.5t54.5 -18q27 5 55.5 18.5t52 41t39 70.5t15.5 107zM582 283q0 -58 -18 -109.5t-52.5 -91.5t-84 -65.5t-113.5 -30.5
q-69 6 -119 32.5t-81.5 66.5t-46.5 91t-15 106q0 58 18 109.5t52.5 91.5t84 65.5t113.5 30.5q70 -6 119.5 -32.5t81 -67t46.5 -91t15 -105.5zM410 707q15 0 28 7t22.5 15t15 15.5t6.5 9.5q0 -54 -23.5 -83t-62.5 -29q-15 0 -28 3t-23 7l-59 21q-13 5 -20.5 6.5t-20.5 1.5
q-15 0 -28 -7t-22.5 -15.5t-15 -16t-6.5 -9.5q0 56 24 84.5t62 28.5q15 0 28 -3t23 -7l59 -21q13 -4 20.5 -6t20.5 -2z" />
    <glyph glyph-name="odieresis" unicode="&#xf6;" horiz-adv-x="635" 
d="M298 704l-73 -70l-73 70l73 70zM489 704l-73 -70l-73 70l73 70zM476 283q0 66 -14.5 109t-37 69.5t-50 39.5t-54.5 18q-26 -5 -54.5 -18.5t-52.5 -41t-39.5 -70.5t-15.5 -107q0 -66 14.5 -109t37 -69.5t50 -39.5t54.5 -18q27 5 55.5 18.5t52 41t39 70.5t15.5 107z
M582 283q0 -58 -18 -109.5t-52.5 -91.5t-84 -65.5t-113.5 -30.5q-69 6 -119 32.5t-81.5 66.5t-46.5 91t-15 106q0 58 18 109.5t52.5 91.5t84 65.5t113.5 30.5q70 -6 119.5 -32.5t81 -67t46.5 -91t15 -105.5z" />
    <glyph glyph-name="divide" unicode="&#xf7;" 
d="M391 568q0 -32 -19 -50t-48 -18q-28 0 -48 18t-20 50t19.5 50t48.5 18q28 0 47.5 -18t19.5 -50zM45 321v69h559v-69h-559zM391 143q0 -32 -19 -50.5t-48 -18.5q-28 0 -48 18.5t-20 50.5q0 31 19.5 49.5t48.5 18.5q28 0 47.5 -18t19.5 -50z" />
    <glyph glyph-name="oslash" unicode="&#xf8;" horiz-adv-x="635" 
d="M582 283q0 -58 -18 -109.5t-52.5 -91.5t-84 -65.5t-113.5 -30.5q-55 6 -95 22l-36 -77l-48 22l37 79q-63 41 -91.5 107.5t-28.5 142.5q0 58 18 109.5t52.5 91.5t84 65.5t113.5 30.5q53 -6 95 -23l36 78l49 -22l-37 -80q63 -41 91 -107t28 -142zM158 282q0 -63 14 -105
t36 -69l178 385q-16 11 -32.5 17t-33.5 9q-26 -5 -54.5 -18.5t-52.5 -41t-39.5 -70.5t-15.5 -107zM476 283q0 63 -13.5 104.5t-36.5 67.5l-177 -385q16 -10 32.5 -15.5t32.5 -8.5q27 5 55.5 18.5t52 41t39 70.5t15.5 107z" />
    <glyph glyph-name="ugrave" unicode="&#xf9;" horiz-adv-x="622" 
d="M546 38q-26 -15 -59 -26q-29 -10 -70.5 -17.5t-94.5 -7.5q-86 0 -133.5 23.5t-70 63t-27.5 92t-5 110.5q0 33 1 60t2.5 52t2.5 49.5t1 51.5q0 20 -4.5 38t-29.5 29q5 4 14 8q8 3 20 6t31 3q25 0 39 -6t21 -16t9 -22t2 -25q0 -17 -1.5 -44t-3.5 -57.5t-3.5 -61t-1.5 -54.5
q0 -53 3 -96t16.5 -74.5t42.5 -48.5t80 -17q26 0 46 2t33 5q15 3 25 7v237q0 65 -1 105t-3.5 64t-6.5 37t-10 24l-9 17l134 25q-2 -28 -4 -68q-2 -35 -3 -88.5t-1 -126.5q0 -79 1.5 -126t4 -73t6 -37t7.5 -17zM366 624q-14 3 -32 10q-15 6 -35 17t-43 30q-25 20 -40.5 36.5
t-23.5 28.5q-11 14 -15 26h106z" />
    <glyph glyph-name="uacute" unicode="&#xfa;" horiz-adv-x="622" 
d="M346 772h106q-4 -12 -15 -26q-9 -12 -24.5 -28.5t-40.5 -36.5q-23 -19 -42.5 -30t-34.5 -17q-18 -7 -32 -10zM546 38q-26 -15 -59 -26q-29 -10 -70.5 -17.5t-94.5 -7.5q-86 0 -133.5 23.5t-70 63t-27.5 92t-5 110.5q0 33 1 60t2.5 52t2.5 49.5t1 51.5q0 20 -4.5 38
t-29.5 29q5 4 14 8q8 3 20 6t31 3q25 0 39 -6t21 -16t9 -22t2 -25q0 -17 -1.5 -44t-3.5 -57.5t-3.5 -61t-1.5 -54.5q0 -53 3 -96t16.5 -74.5t42.5 -48.5t80 -17q26 0 46 2t33 5q15 3 25 7v237q0 65 -1 105t-3.5 64t-6.5 37t-10 24l-9 17l134 25q-2 -28 -4 -68
q-2 -35 -3 -88.5t-1 -126.5q0 -79 1.5 -126t4 -73t6 -37t7.5 -17z" />
    <glyph glyph-name="ucircumflex" unicode="&#xfb;" horiz-adv-x="622" 
d="M481 623q-47 2 -93 22t-72 52q-35 -38 -79 -55t-86 -19l136 149h59zM546 38q-26 -15 -59 -26q-29 -10 -70.5 -17.5t-94.5 -7.5q-86 0 -133.5 23.5t-70 63t-27.5 92t-5 110.5q0 33 1 60t2.5 52t2.5 49.5t1 51.5q0 20 -4.5 38t-29.5 29q5 4 14 8q8 3 20 6t31 3q25 0 39 -6
t21 -16t9 -22t2 -25q0 -17 -1.5 -44t-3.5 -57.5t-3.5 -61t-1.5 -54.5q0 -53 3 -96t16.5 -74.5t42.5 -48.5t80 -17q26 0 46 2t33 5q15 3 25 7v237q0 65 -1 105t-3.5 64t-6.5 37t-10 24l-9 17l134 25q-2 -28 -4 -68q-2 -35 -3 -88.5t-1 -126.5q0 -79 1.5 -126t4 -73t6 -37
t7.5 -17z" />
    <glyph glyph-name="udieresis" unicode="&#xfc;" horiz-adv-x="622" 
d="M298 704l-73 -70l-73 70l73 70zM489 704l-73 -70l-73 70l73 70zM546 38q-26 -15 -59 -26q-29 -10 -70.5 -17.5t-94.5 -7.5q-86 0 -133.5 23.5t-70 63t-27.5 92t-5 110.5q0 33 1 60t2.5 52t2.5 49.5t1 51.5q0 20 -4.5 38t-29.5 29q5 4 14 8q8 3 20 6t31 3q25 0 39 -6
t21 -16t9 -22t2 -25q0 -17 -1.5 -44t-3.5 -57.5t-3.5 -61t-1.5 -54.5q0 -53 3 -96t16.5 -74.5t42.5 -48.5t80 -17q26 0 46 2t33 5q15 3 25 7v237q0 65 -1 105t-3.5 64t-6.5 37t-10 24l-9 17l134 25q-2 -28 -4 -68q-2 -35 -3 -88.5t-1 -126.5q0 -79 1.5 -126t4 -73t6 -37
t7.5 -17z" />
    <glyph glyph-name="yacute" unicode="&#xfd;" horiz-adv-x="542" 
d="M541 567q-11 -9 -20.5 -22t-17.5 -36q-5 -14 -14 -59t-26 -112t-44 -151.5t-68 -175.5q-49 -107 -110 -165.5t-147 -58.5q-23 0 -36.5 1t-21.5 3q-9 2 -12 5q0 7 1 17q0 8 0.5 18.5t0.5 22.5q0 13 -0.5 25t-0.5 21q-1 11 -1 19q25 -41 41 -56.5t40 -15.5q21 0 39 9
t34 22.5t29 30.5t24 34l5 8l-137 388q-20 55 -34 94t-25 65.5t-21 42.5t-21 26q10 -1 24 -1q11 -1 28 -1h39h43t30 1q14 0 23 1q-10 -7 -19 -19.5t-9 -38.5q0 -11 2 -23.5t6.5 -29.5t12 -41.5t18.5 -60.5l78 -240q10 -36 15 -51q3 -10 3 -15q9 16 21 46t24.5 69t24.5 84
t21.5 90t15.5 87.5t6 76.5q0 31 -9 45t-19 21q9 -1 22 -1q11 -1 27 -1h37h33.5t24.5 1q11 0 20 1zM308 772h106q-4 -12 -15 -26q-9 -12 -24.5 -28.5t-40.5 -36.5q-23 -19 -42.5 -30t-34.5 -17q-18 -7 -32 -10z" />
    <glyph glyph-name="thorn" unicode="&#xfe;" horiz-adv-x="626" 
d="M574 294q0 -20 -2.5 -50t-12.5 -63.5t-29 -66.5t-52 -59.5t-82.5 -43t-119.5 -16.5q-20 0 -34.5 0.5t-25.5 1.5q-12 1 -21 3q0 -53 1 -85.5t4 -52.5t8 -32.5t12 -25.5l9 -17q-7 0 -18 1q-10 0 -25.5 0.5t-37.5 0.5q-23 0 -38.5 -0.5t-25.5 -0.5q-11 -1 -19 -1l9 17
q7 13 12 26.5t8 45.5t4 92.5t1 169.5l-1 377q0 65 -2 105t-5 64t-7.5 37t-10.5 24l-9 17l132 25q-1 -34 -2 -70q-1 -31 -1 -69v-76q15 1 28.5 1.5t34.5 0.5q23 0 55.5 -1.5t68 -9t70.5 -24.5t62.5 -48.5t44.5 -79t17 -117.5zM470 291q0 75 -21 118.5t-52.5 66t-69.5 29
t-71 6.5q-15 0 -26 -0.5t-19 -1.5q-9 -1 -16 -1v-446q4 -1 13 -2q7 -1 19 -1.5t29 -0.5q27 0 64 5.5t70.5 29t56.5 70t23 128.5z" />
    <glyph glyph-name="ydieresis" unicode="&#xff;" horiz-adv-x="542" 
d="M541 567q-11 -9 -20.5 -22t-17.5 -36q-5 -14 -14 -59t-26 -112t-44 -151.5t-68 -175.5q-49 -107 -110 -165.5t-147 -58.5q-23 0 -36.5 1t-21.5 3q-9 2 -12 5q0 7 1 17q0 8 0.5 18.5t0.5 22.5q0 13 -0.5 25t-0.5 21q-1 11 -1 19q25 -41 41 -56.5t40 -15.5q21 0 39 9
t34 22.5t29 30.5t24 34l5 8l-137 388q-20 55 -34 94t-25 65.5t-21 42.5t-21 26q10 -1 24 -1q11 -1 28 -1h39h43t30 1q14 0 23 1q-10 -7 -19 -19.5t-9 -38.5q0 -11 2 -23.5t6.5 -29.5t12 -41.5t18.5 -60.5l78 -240q10 -36 15 -51q3 -10 3 -15q9 16 21 46t24.5 69t24.5 84
t21.5 90t15.5 87.5t6 76.5q0 31 -9 45t-19 21q9 -1 22 -1q11 -1 27 -1h37h33.5t24.5 1q11 0 20 1zM254 704l-73 -70l-73 70l73 70zM445 704l-73 -70l-73 70l73 70z" />
    <glyph glyph-name="Amacron" unicode="&#x100;" horiz-adv-x="628" 
d="M631 -1q-16 0 -33 1q-14 0 -31 0.5t-32 0.5q-23 0 -40.5 -0.5t-29.5 -0.5q-14 -1 -25 -1q10 7 21 21t11 42q0 26 -11.5 70.5t-28.5 100.5l-17 58h-232q-17 -64 -28 -121.5t-11 -97.5q0 -37 8.5 -51.5t18.5 -21.5q-10 0 -23 1q-11 0 -28.5 0.5t-39.5 0.5q-20 0 -34.5 -0.5
t-25.5 -0.5q-12 -1 -21 -1q11 9 19.5 21t17.5 35q5 12 15 49t24.5 90t33 118t42.5 133.5t53.5 137.5t63.5 130q5 -1 14 -1q8 -1 19.5 -1h28.5h29.5t20.5 1q10 0 16 1l141 -478q15 -52 26.5 -90.5t22 -66t21 -47t24.5 -32.5zM325 611q-6 19 -9 35q-2 8 -2 15
q-10 -16 -23.5 -46.5t-28.5 -71t-30.5 -88t-29.5 -96.5h195zM186 787v69h283v-69h-283z" />
    <glyph glyph-name="amacron" unicode="&#x101;" horiz-adv-x="574" 
d="M385 265q-8 1 -19 2q-10 1 -25.5 2t-38.5 1q-21 0 -47 -2.5t-48.5 -13t-38 -32t-15.5 -60.5q0 -56 31 -81t77 -25q38 0 62 9.5t38 21.5q16 13 24 31v147zM512 17l-125 -25l4 118q-9 -41 -28 -65t-42 -36.5t-48 -16.5t-46 -4q-53 0 -87 16t-53.5 40t-27 53t-7.5 55
q0 63 24 99t59 53.5t76 21.5t75 4q21 0 39 -1t32 -2q16 -1 28 -2v47q0 30 -2.5 57t-16.5 47q-12 17 -36.5 27.5t-66.5 10.5q-11 0 -29.5 -1.5t-40.5 -8.5t-44 -22t-39 -42q0 7 1 16q0 8 0.5 17.5t0.5 22.5t-0.5 23t-0.5 17q-1 8 -1 14q15 8 40 14q20 5 52.5 9.5t77.5 4.5
q39 0 67.5 -5t48.5 -13t33 -18.5t21 -21.5q23 -29 27 -67t4 -86q0 -16 -1 -64t-1 -127q0 -55 5 -86t19 -56zM147 657v69h283v-69h-283z" />
    <glyph glyph-name="Abreve" unicode="&#x102;" horiz-adv-x="628" 
d="M631 -1q-16 0 -33 1q-14 0 -31 0.5t-32 0.5q-23 0 -40.5 -0.5t-29.5 -0.5q-14 -1 -25 -1q10 7 21 21t11 42q0 26 -11.5 70.5t-28.5 100.5l-17 58h-232q-17 -64 -28 -121.5t-11 -97.5q0 -37 8.5 -51.5t18.5 -21.5q-10 0 -23 1q-11 0 -28.5 0.5t-39.5 0.5q-20 0 -34.5 -0.5
t-25.5 -0.5q-12 -1 -21 -1q11 9 19.5 21t17.5 35q5 12 15 49t24.5 90t33 118t42.5 133.5t53.5 137.5t63.5 130q5 -1 14 -1q8 -1 19.5 -1h28.5h29.5t20.5 1q10 0 16 1l141 -478q15 -52 26.5 -90.5t22 -66t21 -47t24.5 -32.5zM325 611q-6 19 -9 35q-2 8 -2 15
q-10 -16 -23.5 -46.5t-28.5 -71t-30.5 -88t-29.5 -96.5h195zM185 919q26 -37 61.5 -63t83.5 -26q49 0 84 26t61 63q0 -35 -9.5 -64.5t-27.5 -51t-45 -34t-63 -12.5t-63 12.5t-45 34t-27.5 51t-9.5 64.5z" />
    <glyph glyph-name="abreve" unicode="&#x103;" horiz-adv-x="574" 
d="M385 265q-8 1 -19 2q-10 1 -25.5 2t-38.5 1q-21 0 -47 -2.5t-48.5 -13t-38 -32t-15.5 -60.5q0 -56 31 -81t77 -25q38 0 62 9.5t38 21.5q16 13 24 31v147zM512 17l-125 -25l4 118q-9 -41 -28 -65t-42 -36.5t-48 -16.5t-46 -4q-53 0 -87 16t-53.5 40t-27 53t-7.5 55
q0 63 24 99t59 53.5t76 21.5t75 4q21 0 39 -1t32 -2q16 -1 28 -2v47q0 30 -2.5 57t-16.5 47q-12 17 -36.5 27.5t-66.5 10.5q-11 0 -29.5 -1.5t-40.5 -8.5t-44 -22t-39 -42q0 7 1 16q0 8 0.5 17.5t0.5 22.5t-0.5 23t-0.5 17q-1 8 -1 14q15 8 40 14q20 5 52.5 9.5t77.5 4.5
q39 0 67.5 -5t48.5 -13t33 -18.5t21 -21.5q23 -29 27 -67t4 -86q0 -16 -1 -64t-1 -127q0 -55 5 -86t19 -56zM140 789q26 -37 61.5 -62.5t83.5 -25.5q49 0 84 25.5t61 62.5q0 -35 -9.5 -64t-27.5 -51t-45 -34t-63 -12t-63 12t-45 34t-27.5 51t-9.5 64z" />
    <glyph glyph-name="Aogonek" unicode="&#x104;" horiz-adv-x="628" 
d="M327 -131q0 31 14.5 54t34 39.5t40 28t32.5 20.5q9 6 16.5 18.5t7.5 32.5q0 26 -11.5 70.5t-28.5 100.5l-17 58h-232q-17 -64 -28 -121.5t-11 -97.5q0 -37 8.5 -51.5t18.5 -21.5q-10 0 -23 1q-11 0 -28.5 0.5t-39.5 0.5q-20 0 -34.5 -0.5t-25.5 -0.5q-12 -1 -21 -1
q11 9 19.5 21t17.5 35q5 12 15 49t24.5 90t33 118t42.5 133.5t53.5 137.5t63.5 130q5 -1 14 -1q8 -1 19.5 -1h28.5h29.5t20.5 1q10 0 16 1l141 -478q15 -52 26.5 -90.5t22 -66t21 -47t24.5 -32.5q-16 0 -33 1q-14 0 -31 0.5t-32 0.5q-24 0 -46.5 -6t-39.5 -19.5t-27 -35
t-10 -53.5t21 -52t66 -26q-17 -10 -38 -15.5t-41 -5.5q-37 0 -65 19t-28 62zM325 611q-6 19 -9 35q-2 8 -2 15q-10 -16 -23.5 -46.5t-28.5 -71t-30.5 -88t-29.5 -96.5h195z" />
    <glyph glyph-name="aogonek" unicode="&#x105;" horiz-adv-x="574" 
d="M298 -131q0 23 8.5 42t21 34.5t28.5 27t31 19.5l4 118q-9 -41 -28 -65t-42 -36.5t-48 -16.5t-46 -4q-53 0 -87 16t-53.5 40t-27 53t-7.5 55q0 63 24 99t59 53.5t76 21.5t75 4q21 0 39 -1t32 -2q16 -1 28 -2v47q0 30 -2.5 57t-16.5 47q-12 17 -36.5 27.5t-66.5 10.5
q-11 0 -29.5 -1.5t-40.5 -8.5t-44 -22t-39 -42q0 7 1 16q0 8 0.5 17.5t0.5 22.5t-0.5 23t-0.5 17q-1 8 -1 14q15 8 40 14q20 5 52.5 9.5t77.5 4.5q39 0 67.5 -5t48.5 -13t33 -18.5t21 -21.5q23 -29 27 -67t4 -86q0 -16 -1 -64t-1 -127q0 -55 5 -86t19 -56l9 -17
q-63 -18 -96 -53t-33 -77q0 -32 21 -52t66 -26q-17 -10 -38 -15.5t-41 -5.5q-37 0 -65 19t-28 62zM385 265q-8 1 -19 2q-10 1 -25.5 2t-38.5 1q-21 0 -47 -2.5t-48.5 -13t-38 -32t-15.5 -60.5q0 -56 31 -81t77 -25q38 0 62 9.5t38 21.5q16 13 24 31v147z" />
    <glyph glyph-name="Cacute" unicode="&#x106;" horiz-adv-x="632" 
d="M593 22q-21 -9 -48 -15q-23 -5 -57.5 -9.5t-77.5 -4.5q-81 0 -138.5 18t-96.5 47.5t-62.5 67t-36 77t-16 77.5t-3.5 67q0 180 94 276t266 96q48 0 81 -5t54 -10q25 -6 41 -14q-1 -7 -1 -17q-1 -8 -1 -20v-28v-28.5t1 -21.5q0 -11 1 -20q-16 23 -32 41.5t-35.5 31
t-45.5 19t-62 6.5q-38 0 -82.5 -11t-82.5 -43t-63 -91t-25 -156q0 -60 11 -113.5t39 -93t76.5 -63t122.5 -23.5q37 0 64 7t47 20t36 31.5t32 41.5q-1 -10 -1 -22q-1 -11 -1 -24.5v-29.5v-25.5t1 -19.5q0 -10 1 -16zM423 902h106q-4 -12 -15 -26q-9 -12 -24.5 -28.5
t-40.5 -36.5q-23 -19 -42.5 -30t-34.5 -17q-18 -7 -32 -11z" />
    <glyph glyph-name="cacute" unicode="&#x107;" horiz-adv-x="511" 
d="M322 772h106q-4 -12 -15 -26q-9 -12 -24.5 -28.5t-40.5 -36.5q-23 -19 -42.5 -30t-34.5 -17q-18 -7 -32 -10zM479 129q0 -25 -10.5 -50t-32.5 -45t-57 -32.5t-84 -12.5q-55 0 -100 18.5t-76.5 54.5t-49 88.5t-17.5 120.5q0 22 3 53.5t12 65.5t26.5 67.5t47 60t72 43
t102.5 16.5q42 0 71 -6t48 -14q22 -9 36 -19q-1 -6 -1 -14q-1 -7 -1 -17.5v-24.5v-27t1 -24q0 -12 1 -24q-20 32 -37 53t-35 33.5t-37.5 17.5t-44.5 5q-31 0 -60 -10.5t-51 -37t-35.5 -72.5t-13.5 -116q0 -45 9 -85t28.5 -70t51.5 -47.5t77 -17.5q43 0 73 10.5t49 23.5
q22 15 35 35z" />
    <glyph glyph-name="Ccircumflex" unicode="&#x108;" horiz-adv-x="632" 
d="M593 22q-21 -9 -48 -15q-23 -5 -57.5 -9.5t-77.5 -4.5q-81 0 -138.5 18t-96.5 47.5t-62.5 67t-36 77t-16 77.5t-3.5 67q0 180 94 276t266 96q48 0 81 -5t54 -10q25 -6 41 -14q-1 -7 -1 -17q-1 -8 -1 -20v-28v-28.5t1 -21.5q0 -11 1 -20q-16 23 -32 41.5t-35.5 31
t-45.5 19t-62 6.5q-38 0 -82.5 -11t-82.5 -43t-63 -91t-25 -156q0 -60 11 -113.5t39 -93t76.5 -63t122.5 -23.5q37 0 64 7t47 20t36 31.5t32 41.5q-1 -10 -1 -22q-1 -11 -1 -24.5v-29.5v-25.5t1 -19.5q0 -10 1 -16zM560 752q-47 3 -93 23t-72 52q-35 -38 -79 -55.5
t-86 -19.5l136 150h59z" />
    <glyph glyph-name="ccircumflex" unicode="&#x109;" horiz-adv-x="511" 
d="M465 623q-47 2 -93 22t-72 52q-35 -38 -79 -55t-86 -19l136 149h59zM479 129q0 -25 -10.5 -50t-32.5 -45t-57 -32.5t-84 -12.5q-55 0 -100 18.5t-76.5 54.5t-49 88.5t-17.5 120.5q0 22 3 53.5t12 65.5t26.5 67.5t47 60t72 43t102.5 16.5q42 0 71 -6t48 -14q22 -9 36 -19
q-1 -6 -1 -14q-1 -7 -1 -17.5v-24.5v-27t1 -24q0 -12 1 -24q-20 32 -37 53t-35 33.5t-37.5 17.5t-44.5 5q-31 0 -60 -10.5t-51 -37t-35.5 -72.5t-13.5 -116q0 -45 9 -85t28.5 -70t51.5 -47.5t77 -17.5q43 0 73 10.5t49 23.5q22 15 35 35z" />
    <glyph glyph-name="Cdotaccent" unicode="&#x10a;" horiz-adv-x="632" 
d="M469 823l-81 -78l-81 78l81 77zM593 22q-21 -9 -48 -15q-23 -5 -57.5 -9.5t-77.5 -4.5q-81 0 -138.5 18t-96.5 47.5t-62.5 67t-36 77t-16 77.5t-3.5 67q0 180 94 276t266 96q48 0 81 -5t54 -10q25 -6 41 -14q-1 -7 -1 -17q-1 -8 -1 -20v-28v-28.5t1 -21.5q0 -11 1 -20
q-16 23 -32 41.5t-35.5 31t-45.5 19t-62 6.5q-38 0 -82.5 -11t-82.5 -43t-63 -91t-25 -156q0 -60 11 -113.5t39 -93t76.5 -63t122.5 -23.5q37 0 64 7t47 20t36 31.5t32 41.5q-1 -10 -1 -22q-1 -11 -1 -24.5v-29.5v-25.5t1 -19.5q0 -10 1 -16z" />
    <glyph glyph-name="cdotaccent" unicode="&#x10b;" horiz-adv-x="511" 
d="M479 129q0 -25 -10.5 -50t-32.5 -45t-57 -32.5t-84 -12.5q-55 0 -100 18.5t-76.5 54.5t-49 88.5t-17.5 120.5q0 22 3 53.5t12 65.5t26.5 67.5t47 60t72 43t102.5 16.5q42 0 71 -6t48 -14q22 -9 36 -19q-1 -6 -1 -14q-1 -7 -1 -17.5v-24.5v-27t1 -24q0 -12 1 -24
q-20 32 -37 53t-35 33.5t-37.5 17.5t-44.5 5q-31 0 -60 -10.5t-51 -37t-35.5 -72.5t-13.5 -116q0 -45 9 -85t28.5 -70t51.5 -47.5t77 -17.5q43 0 73 10.5t49 23.5q22 15 35 35zM381 712l-81 -78l-81 78l81 77z" />
    <glyph glyph-name="Ccaron" unicode="&#x10c;" horiz-adv-x="632" 
d="M593 22q-21 -9 -48 -15q-23 -5 -57.5 -9.5t-77.5 -4.5q-81 0 -138.5 18t-96.5 47.5t-62.5 67t-36 77t-16 77.5t-3.5 67q0 180 94 276t266 96q48 0 81 -5t54 -10q25 -6 41 -14q-1 -7 -1 -17q-1 -8 -1 -20v-28v-28.5t1 -21.5q0 -11 1 -20q-16 23 -32 41.5t-35.5 31
t-45.5 19t-62 6.5q-38 0 -82.5 -11t-82.5 -43t-63 -91t-25 -156q0 -60 11 -113.5t39 -93t76.5 -63t122.5 -23.5q37 0 64 7t47 20t36 31.5t32 41.5q-1 -10 -1 -22q-1 -11 -1 -24.5v-29.5v-25.5t1 -19.5q0 -10 1 -16zM534 915q-41 -38 -74.5 -77.5t-65.5 -85.5h-14l-79 77
q-8 8 -24.5 23t-27.5 23l65 50q7 -11 16 -23.5t17 -23.5l29 -39q12 15 29 29.5t37 25t43 16.5t49 5z" />
    <glyph glyph-name="ccaron" unicode="&#x10d;" horiz-adv-x="511" 
d="M438 772q-20 -20 -36.5 -37t-31.5 -34.5t-29.5 -36.5t-29.5 -41h-16l-67 63q-9 8 -25 23t-27 23l62 50q15 -26 34 -47l25 -29q24 30 56.5 50.5t84.5 15.5zM479 129q0 -25 -10.5 -50t-32.5 -45t-57 -32.5t-84 -12.5q-55 0 -100 18.5t-76.5 54.5t-49 88.5t-17.5 120.5
q0 22 3 53.5t12 65.5t26.5 67.5t47 60t72 43t102.5 16.5q42 0 71 -6t48 -14q22 -9 36 -19q-1 -6 -1 -14q-1 -7 -1 -17.5v-24.5v-27t1 -24q0 -12 1 -24q-20 32 -37 53t-35 33.5t-37.5 17.5t-44.5 5q-31 0 -60 -10.5t-51 -37t-35.5 -72.5t-13.5 -116q0 -45 9 -85t28.5 -70
t51.5 -47.5t77 -17.5q43 0 73 10.5t49 23.5q22 15 35 35z" />
    <glyph glyph-name="Dcaron" unicode="&#x10e;" horiz-adv-x="727" 
d="M478 915q-41 -38 -74.5 -77.5t-65.5 -85.5h-14l-79 77q-8 8 -24.5 23t-27.5 23l65 50q7 -11 16 -23.5t17 -23.5l29 -39q12 15 29 29.5t37 25t43 16.5t49 5zM562 360q0 96 -24.5 153.5t-64 88t-90.5 40t-103 9.5q-15 0 -27.5 -0.5t-21.5 -1.5q-11 -1 -20 -1v-584
q10 -1 21 -2q9 -1 21 -1h24q49 0 100 8.5t92 39t67 90t26 161.5zM671 372q0 -92 -20.5 -155.5t-53.5 -105t-75 -64.5t-85.5 -34t-85 -13t-72.5 -2q-32 0 -62 1.5t-59 1.5q-21 0 -36 -0.5t-26 -0.5q-12 -1 -20 -1l9 17q5 9 9 17.5t6.5 22t4.5 34.5t3 56.5t1.5 87.5t0.5 127
q0 109 -1 169.5t-3.5 92t-7.5 45t-13 28.5l-9 17q8 -1 20 -1q11 -1 26 -1h36q30 0 67 1.5t69 1.5q25 0 63 -2t80 -12.5t84 -31.5t75 -59t54 -96t21 -141z" />
    <glyph glyph-name="dcaron" unicode="&#x10f;" horiz-adv-x="619" 
d="M582 598q7 27 10 55.5t3 55t-2 49.5t-5 40l92 11q6 -63 -16 -118.5t-82 -92.5zM432 507q-5 1 -14 2q-8 1 -19 1.5t-28 0.5q-28 0 -65 -5.5t-70.5 -29t-56.5 -70t-23 -128.5q0 -75 21 -119t53 -66.5t69.5 -28.5t71.5 -6h25.5t19.5 1q9 1 16 2v446zM545 11q-17 -4 -43 -8
q-22 -3 -54.5 -5.5t-77.5 -2.5q-23 0 -55.5 1.5t-68 9t-70.5 24.5t-62.5 48.5t-44.5 79t-17 117.5q0 20 2.5 50t12.5 63.5t29 66.5t52 59.5t83 43t120 16.5q20 0 34.5 -1t25.5 -2q12 -1 21 -2q0 40 -2 69t-5.5 49t-8 34t-9.5 24l-9 17l132 25q-1 -33 -2 -68q-1 -30 -1 -68
v-76v-317q0 -59 1 -98t3 -65.5t4.5 -43t6.5 -31.5z" />
    <glyph glyph-name="Dcroat" unicode="&#x110;" horiz-adv-x="748" 
d="M691 372q0 -92 -20.5 -155.5t-53.5 -105t-75 -64.5t-85.5 -34t-85 -13t-72.5 -2q-32 0 -61.5 1.5t-58.5 1.5q-21 0 -36.5 -0.5t-26.5 -0.5q-12 -1 -20 -1l9 17q7 13 11.5 26t7.5 42t4.5 83t1.5 149h-13q-29 0 -48 -2t-30 -4q-13 -3 -20 -6v10q0 5 0.5 12.5t0.5 18.5
q0 10 -0.5 17.5t-0.5 12.5v11q7 -3 20 -6q11 -2 30 -4t48 -2h13q0 103 -1 161t-4 88.5t-8 44t-12 28.5l-9 17q8 -1 20 -1q11 -1 26 -1h36q30 0 67 1.5t69 1.5q25 0 63 -2t80 -12.5t84 -31.5t75 -59t54 -96t21 -141zM582 360q0 96 -24 153.5t-64 88t-90.5 40t-102.5 9.5
q-15 0 -28 -0.5t-22 -1.5q-11 -1 -20 -1v-274h73q29 0 47.5 2t29.5 4q13 3 21 6q-1 -5 -1 -11v-30v-31q0 -6 1 -10q-8 3 -21 6q-11 2 -29.5 4t-47.5 2h-73v-252q10 -1 21 -2q10 -1 21.5 -1h24.5q49 0 99.5 8.5t91.5 39t67 90t26 161.5z" />
    <glyph glyph-name="dcroat" unicode="&#x111;" horiz-adv-x="621" 
d="M545 11q-17 -4 -43 -8q-22 -3 -54.5 -5.5t-77.5 -2.5q-23 0 -55.5 1.5t-68 9t-70.5 24.5t-62.5 48.5t-44.5 79t-17 117.5q0 20 2.5 50t12.5 63.5t29 66.5t52 59.5t83 43t120 16.5q20 0 34.5 -1t25.5 -2q12 -1 21 -2q0 22 -0.5 40t-1.5 34h-83q-27 0 -45 -1.5t-29 -3.5
q-13 -2 -20 -4q0 4 1 9q0 5 0.5 11.5t0.5 15.5q0 8 -0.5 14.5t-0.5 11.5q-1 5 -1 10q7 -3 20 -5q11 -2 29 -3.5t45 -1.5h76q-3 17 -7 28.5t-9 20.5l-9 17l132 25q-1 -12 -1 -26q0 -12 -0.5 -29t-0.5 -36q26 0 43.5 1.5t28.5 3.5q12 2 19 5q-1 -5 -1 -10v-26v-27q0 -5 1 -9
q-7 2 -19 4q-11 2 -29 3.5t-44 1.5v-68v-317q0 -59 1 -98t3 -65.5t4.5 -43t6.5 -31.5zM432 507q-5 1 -14 2q-8 1 -19 1.5t-28 0.5q-28 0 -65 -5.5t-70.5 -29t-56.5 -70t-23 -128.5q0 -75 21 -119t53 -66.5t69.5 -28.5t71.5 -6h25.5t19.5 1q9 1 16 2v446z" />
    <glyph glyph-name="Emacron" unicode="&#x112;" horiz-adv-x="559" 
d="M174 787v69h283v-69h-283zM502 154q-2 -14 -4 -32q-2 -16 -3.5 -39t-3.5 -52l-1 -22q-14 -3 -37 -6q-20 -2 -50 -3.5t-72 -1.5t-73 2t-53.5 7t-38.5 13.5t-30 20.5q-15 14 -24 30t-13.5 36t-6 45.5t-1.5 58.5v277q0 32 1.5 58.5t6.5 48t14 39t25 31.5q14 12 30 21
t38.5 15t53.5 9t73 3q36 0 64.5 -1t48.5 -3q23 -2 41 -3q-1 -5 -1 -12v-39q0 -30 1.5 -44.5t1.5 -16.5l-8 8t-27 19q-16 9 -45.5 18.5t-76.5 9.5q-16 0 -33.5 -1t-34 -5.5t-31 -13t-23.5 -23.5q-6 -9 -9.5 -18t-5.5 -22.5t-3 -33t-1 -48.5v-95h125q35 0 63.5 4t46.5 15
q20 11 27 17.5t9 8.5q0 -1 -1.5 -21.5t-1.5 -56.5q0 -35 1.5 -55t1.5 -22q-1 1 -8 7.5t-28 19.5q-18 11 -46.5 15t-63.5 4h-125v-101q0 -29 0.5 -48.5t2.5 -33t5.5 -22.5t9.5 -18q9 -15 24 -23t32 -12t34 -4.5t31 -0.5q39 0 65.5 7t45.5 19t33 29t28 37z" />
    <glyph glyph-name="emacron" unicode="&#x113;" horiz-adv-x="557" 
d="M401 413q0 13 -2.5 31.5t-13.5 35.5t-33 28.5t-60 11.5q-28 0 -53 -8.5t-43.5 -31t-29.5 -62t-11 -102.5q11 -3 27 -5q14 -2 35 -3.5t51 -1.5q18 0 41 2.5t43.5 13.5t34.5 32t14 59zM504 419q0 -93 -58 -133t-170 -40q-26 0 -48.5 2t-38.5 4q-19 3 -34 7q0 -32 7 -67.5
t26 -65t52 -48.5t85 -19q51 0 84 10.5t53 24.5q23 16 35 36q0 -27 -10.5 -52.5t-33.5 -45t-60 -31.5t-90 -12q-68 0 -115.5 21.5t-77.5 60t-44 90.5t-14 112q0 96 23 155.5t58.5 92.5t78 45t80.5 12q100 0 156 -41.5t56 -117.5zM156 657v69h283v-69h-283z" />
    <glyph glyph-name="Ebreve" unicode="&#x114;" horiz-adv-x="559" 
d="M171 919q26 -37 61.5 -63t83.5 -26q49 0 84 26t61 63q0 -35 -9.5 -64.5t-27.5 -51t-45 -34t-63 -12.5t-63 12.5t-45 34t-27.5 51t-9.5 64.5zM502 154q-2 -14 -4 -32q-2 -16 -3.5 -39t-3.5 -52l-1 -22q-14 -3 -37 -6q-20 -2 -50 -3.5t-72 -1.5t-73 2t-53.5 7t-38.5 13.5
t-30 20.5q-15 14 -24 30t-13.5 36t-6 45.5t-1.5 58.5v277q0 32 1.5 58.5t6.5 48t14 39t25 31.5q14 12 30 21t38.5 15t53.5 9t73 3q36 0 64.5 -1t48.5 -3q23 -2 41 -3q-1 -5 -1 -12v-39q0 -30 1.5 -44.5t1.5 -16.5l-8 8t-27 19q-16 9 -45.5 18.5t-76.5 9.5q-16 0 -33.5 -1
t-34 -5.5t-31 -13t-23.5 -23.5q-6 -9 -9.5 -18t-5.5 -22.5t-3 -33t-1 -48.5v-95h125q35 0 63.5 4t46.5 15q20 11 27 17.5t9 8.5q0 -1 -1.5 -21.5t-1.5 -56.5q0 -35 1.5 -55t1.5 -22q-1 1 -8 7.5t-28 19.5q-18 11 -46.5 15t-63.5 4h-125v-101q0 -29 0.5 -48.5t2.5 -33
t5.5 -22.5t9.5 -18q9 -15 24 -23t32 -12t34 -4.5t31 -0.5q39 0 65.5 7t45.5 19t33 29t28 37z" />
    <glyph glyph-name="ebreve" unicode="&#x115;" horiz-adv-x="557" 
d="M401 413q0 13 -2.5 31.5t-13.5 35.5t-33 28.5t-60 11.5q-28 0 -53 -8.5t-43.5 -31t-29.5 -62t-11 -102.5q11 -3 27 -5q14 -2 35 -3.5t51 -1.5q18 0 41 2.5t43.5 13.5t34.5 32t14 59zM504 419q0 -93 -58 -133t-170 -40q-26 0 -48.5 2t-38.5 4q-19 3 -34 7q0 -32 7 -67.5
t26 -65t52 -48.5t85 -19q51 0 84 10.5t53 24.5q23 16 35 36q0 -27 -10.5 -52.5t-33.5 -45t-60 -31.5t-90 -12q-68 0 -115.5 21.5t-77.5 60t-44 90.5t-14 112q0 96 23 155.5t58.5 92.5t78 45t80.5 12q100 0 156 -41.5t56 -117.5zM152 789q26 -37 61.5 -62.5t83.5 -25.5
q49 0 84 25.5t61 62.5q0 -35 -9.5 -64t-27.5 -51t-45 -34t-63 -12t-63 12t-45 34t-27.5 51t-9.5 64z" />
    <glyph glyph-name="Edotaccent" unicode="&#x116;" horiz-adv-x="559" 
d="M394 823l-81 -78l-81 78l81 77zM502 154q-2 -14 -4 -32q-2 -16 -3.5 -39t-3.5 -52l-1 -22q-14 -3 -37 -6q-20 -2 -50 -3.5t-72 -1.5t-73 2t-53.5 7t-38.5 13.5t-30 20.5q-15 14 -24 30t-13.5 36t-6 45.5t-1.5 58.5v277q0 32 1.5 58.5t6.5 48t14 39t25 31.5q14 12 30 21
t38.5 15t53.5 9t73 3q36 0 64.5 -1t48.5 -3q23 -2 41 -3q-1 -5 -1 -12v-39q0 -30 1.5 -44.5t1.5 -16.5l-8 8t-27 19q-16 9 -45.5 18.5t-76.5 9.5q-16 0 -33.5 -1t-34 -5.5t-31 -13t-23.5 -23.5q-6 -9 -9.5 -18t-5.5 -22.5t-3 -33t-1 -48.5v-95h125q35 0 63.5 4t46.5 15
q20 11 27 17.5t9 8.5q0 -1 -1.5 -21.5t-1.5 -56.5q0 -35 1.5 -55t1.5 -22q-1 1 -8 7.5t-28 19.5q-18 11 -46.5 15t-63.5 4h-125v-101q0 -29 0.5 -48.5t2.5 -33t5.5 -22.5t9.5 -18q9 -15 24 -23t32 -12t34 -4.5t31 -0.5q39 0 65.5 7t45.5 19t33 29t28 37z" />
    <glyph glyph-name="edotaccent" unicode="&#x117;" horiz-adv-x="557" 
d="M401 413q0 13 -2.5 31.5t-13.5 35.5t-33 28.5t-60 11.5q-28 0 -53 -8.5t-43.5 -31t-29.5 -62t-11 -102.5q11 -3 27 -5q14 -2 35 -3.5t51 -1.5q18 0 41 2.5t43.5 13.5t34.5 32t14 59zM504 419q0 -93 -58 -133t-170 -40q-26 0 -48.5 2t-38.5 4q-19 3 -34 7q0 -32 7 -67.5
t26 -65t52 -48.5t85 -19q51 0 84 10.5t53 24.5q23 16 35 36q0 -27 -10.5 -52.5t-33.5 -45t-60 -31.5t-90 -12q-68 0 -115.5 21.5t-77.5 60t-44 90.5t-14 112q0 96 23 155.5t58.5 92.5t78 45t80.5 12q100 0 156 -41.5t56 -117.5zM375 712l-81 -78l-81 78l81 77z" />
    <glyph glyph-name="Eogonek" unicode="&#x118;" horiz-adv-x="559" 
d="M328 -131q0 27 11 48.5t27.5 38t35.5 28t34 18.5q-19 -2 -44.5 -3t-60.5 -1q-42 0 -73 2t-53.5 7t-38.5 13.5t-30 20.5q-15 14 -24 30t-13.5 36t-6 45.5t-1.5 58.5v277q0 32 1.5 58.5t6.5 48t14 39t25 31.5q14 12 30 21t38.5 15t53.5 9t73 3q36 0 64.5 -1t48.5 -3
q23 -2 41 -3q-1 -5 -1 -12v-39q0 -30 1.5 -44.5t1.5 -16.5l-8 8t-27 19q-16 9 -45.5 18.5t-76.5 9.5q-16 0 -33.5 -1t-34 -5.5t-31 -13t-23.5 -23.5q-6 -9 -9.5 -18t-5.5 -22.5t-3 -33t-1 -48.5v-95h125q35 0 63.5 4t46.5 15q20 11 27 17.5t9 8.5q0 -1 -1.5 -21.5
t-1.5 -56.5q0 -35 1.5 -55t1.5 -22q-1 1 -8 7.5t-28 19.5q-18 11 -46.5 15t-63.5 4h-125v-101q0 -29 0.5 -48.5t2.5 -33t5.5 -22.5t9.5 -18q9 -15 24 -23t32 -12t34 -4.5t31 -0.5q39 0 65.5 7t45.5 19t33 29t28 37q-2 -14 -4 -32q-2 -16 -3.5 -39t-3.5 -52l-1 -22
q-12 -8 -25.5 -20t-25 -27t-19 -34t-7.5 -41q0 -32 21 -52t66 -26q-17 -10 -38 -15.5t-41 -5.5q-37 0 -65 19t-28 62z" />
    <glyph glyph-name="eogonek" unicode="&#x119;" horiz-adv-x="557" 
d="M252 -131q0 23 8 41.5t20.5 33.5t27.5 26.5t30 20.5q-8 -1 -17 -1.5t-18 -0.5q-68 0 -115.5 21.5t-77.5 60t-44 90.5t-14 112q0 96 23 155.5t58.5 92.5t78 45t80.5 12q100 0 156 -41.5t56 -117.5q0 -93 -58 -133t-170 -40q-26 0 -48.5 2t-38.5 4q-19 3 -34 7
q0 -32 7 -67.5t26 -65t52 -48.5t85 -19q51 0 84 10.5t53 24.5q23 16 35 36q0 -38 -20 -70.5t-64 -55.5q-13 -7 -26.5 -18t-24.5 -26t-18 -33.5t-7 -39.5q0 -32 21 -52t66 -26q-17 -10 -38 -15.5t-41 -5.5q-37 0 -65 19t-28 62zM401 413q0 13 -2.5 31.5t-13.5 35.5t-33 28.5
t-60 11.5q-28 0 -53 -8.5t-43.5 -31t-29.5 -62t-11 -102.5q11 -3 27 -5q14 -2 35 -3.5t51 -1.5q18 0 41 2.5t43.5 13.5t34.5 32t14 59z" />
    <glyph glyph-name="Ecaron" unicode="&#x11a;" horiz-adv-x="559" 
d="M461 915q-41 -38 -74.5 -77.5t-65.5 -85.5h-14l-79 77q-8 8 -24.5 23t-27.5 23l65 50q7 -11 16 -23.5t17 -23.5l29 -39q12 15 29 29.5t37 25t43 16.5t49 5zM502 154q-2 -14 -4 -32q-2 -16 -3.5 -39t-3.5 -52l-1 -22q-14 -3 -37 -6q-20 -2 -50 -3.5t-72 -1.5t-73 2
t-53.5 7t-38.5 13.5t-30 20.5q-15 14 -24 30t-13.5 36t-6 45.5t-1.5 58.5v277q0 32 1.5 58.5t6.5 48t14 39t25 31.5q14 12 30 21t38.5 15t53.5 9t73 3q36 0 64.5 -1t48.5 -3q23 -2 41 -3q-1 -5 -1 -12v-39q0 -30 1.5 -44.5t1.5 -16.5l-8 8t-27 19q-16 9 -45.5 18.5
t-76.5 9.5q-16 0 -33.5 -1t-34 -5.5t-31 -13t-23.5 -23.5q-6 -9 -9.5 -18t-5.5 -22.5t-3 -33t-1 -48.5v-95h125q35 0 63.5 4t46.5 15q20 11 27 17.5t9 8.5q0 -1 -1.5 -21.5t-1.5 -56.5q0 -35 1.5 -55t1.5 -22q-1 1 -8 7.5t-28 19.5q-18 11 -46.5 15t-63.5 4h-125v-101
q0 -29 0.5 -48.5t2.5 -33t5.5 -22.5t9.5 -18q9 -15 24 -23t32 -12t34 -4.5t31 -0.5q39 0 65.5 7t45.5 19t33 29t28 37z" />
    <glyph glyph-name="ecaron" unicode="&#x11b;" horiz-adv-x="557" 
d="M430 772q-20 -20 -36.5 -37t-31.5 -34.5t-29.5 -36.5t-29.5 -41h-16l-67 63q-9 8 -25 23t-27 23l62 50q15 -26 34 -47l25 -29q24 30 56.5 50.5t84.5 15.5zM401 413q0 13 -2.5 31.5t-13.5 35.5t-33 28.5t-60 11.5q-28 0 -53 -8.5t-43.5 -31t-29.5 -62t-11 -102.5
q11 -3 27 -5q14 -2 35 -3.5t51 -1.5q18 0 41 2.5t43.5 13.5t34.5 32t14 59zM504 419q0 -93 -58 -133t-170 -40q-26 0 -48.5 2t-38.5 4q-19 3 -34 7q0 -32 7 -67.5t26 -65t52 -48.5t85 -19q51 0 84 10.5t53 24.5q23 16 35 36q0 -27 -10.5 -52.5t-33.5 -45t-60 -31.5t-90 -12
q-68 0 -115.5 21.5t-77.5 60t-44 90.5t-14 112q0 96 23 155.5t58.5 92.5t78 45t80.5 12q100 0 156 -41.5t56 -117.5z" />
    <glyph glyph-name="Gcircumflex" unicode="&#x11c;" horiz-adv-x="695" 
d="M638 213q0 -64 -22.5 -106.5t-59.5 -67.5t-85.5 -35.5t-99.5 -10.5q-57 0 -113 17.5t-100.5 58t-72.5 108t-28 166.5q0 183 95 279.5t268 96.5q48 0 81.5 -5t55.5 -10q26 -6 42 -14q-1 -7 -1 -17q-1 -8 -1 -20v-28v-28.5t1 -21.5q0 -11 1 -20q-17 24 -32.5 42t-35.5 30.5
t-46.5 19t-63.5 6.5q-39 0 -83.5 -10t-83 -42.5t-64 -92t-25.5 -158.5q0 -64 12 -117.5t37.5 -92t65 -60t93.5 -21.5q21 0 49 3.5t52.5 17.5t41.5 42t17 77q0 54 -25.5 85.5t-85.5 31.5q-20 0 -34.5 -4t-24.5 -9q-11 -5 -20 -12q0 43 39 67t96 24q81 0 120.5 -46t39.5 -123z
M542 752q-47 3 -93 23t-72 52q-35 -38 -79 -55.5t-86 -19.5l136 150h59z" />
    <glyph glyph-name="gcircumflex" unicode="&#x11d;" horiz-adv-x="566" 
d="M435 623q-47 2 -93 22t-72 52q-35 -38 -79 -55t-86 -19l136 149h59zM461 382q0 -74 -37 -120.5t-128 -75.5q-17 -5 -28 -9.5t-17.5 -9.5t-9 -10.5t-2.5 -12.5q0 -24 19 -28.5t53 -4.5h28q26 0 59 -2.5t62.5 -15.5t49.5 -41t20 -78q0 -43 -14.5 -74t-38 -51.5t-53.5 -33
t-59.5 -18.5t-57 -8t-46.5 -2q-82 0 -130.5 13.5t-73.5 34t-32 44.5t-7 45q0 31 15 52.5t37 34.5t47.5 19t46.5 6q-56 -29 -56 -92q0 -20 6.5 -37.5t24 -31t48.5 -21t81 -7.5q80 0 126 28.5t46 80.5q0 25 -8.5 40t-24 22.5t-37.5 10t-49 2.5h-25q-22 0 -47 1.5t-46 10
t-34.5 26.5t-13.5 50q0 24 7.5 41.5t22 30t36 22t48.5 18.5q31 10 50 26t29 36.5t13 44.5t3 50q0 51 -13.5 79.5t-31.5 42t-37.5 16t-31.5 2.5q-36 0 -57 -15.5t-32 -36.5t-14 -44t-3 -38q0 -24 2.5 -47t10.5 -43t23 -36.5t40 -28.5q-48 0 -81 13t-53.5 35t-29.5 50.5
t-9 58.5q0 81 51 132t152 51q20 0 37 -2.5t29 -5.5q14 -4 24 -8h67q29 0 54.5 1.5t43.5 3.5q21 3 38 6q-1 -5 -1 -11v-31v-29q0 -6 1 -10q-12 3 -28 6q-14 2 -33.5 4t-42.5 2h-34q26 -17 41 -51t15 -72z" />
    <glyph glyph-name="Gbreve" unicode="&#x11e;" horiz-adv-x="695" 
d="M235 919q26 -37 61.5 -63t83.5 -26q49 0 84 26t61 63q0 -35 -9.5 -64.5t-27.5 -51t-45 -34t-63 -12.5t-63 12.5t-45 34t-27.5 51t-9.5 64.5zM638 213q0 -64 -22.5 -106.5t-59.5 -67.5t-85.5 -35.5t-99.5 -10.5q-57 0 -113 17.5t-100.5 58t-72.5 108t-28 166.5
q0 183 95 279.5t268 96.5q48 0 81.5 -5t55.5 -10q26 -6 42 -14q-1 -7 -1 -17q-1 -8 -1 -20v-28v-28.5t1 -21.5q0 -11 1 -20q-17 24 -32.5 42t-35.5 30.5t-46.5 19t-63.5 6.5q-39 0 -83.5 -10t-83 -42.5t-64 -92t-25.5 -158.5q0 -64 12 -117.5t37.5 -92t65 -60t93.5 -21.5
q21 0 49 3.5t52.5 17.5t41.5 42t17 77q0 54 -25.5 85.5t-85.5 31.5q-20 0 -34.5 -4t-24.5 -9q-11 -5 -20 -12q0 43 39 67t96 24q81 0 120.5 -46t39.5 -123z" />
    <glyph glyph-name="gbreve" unicode="&#x11f;" horiz-adv-x="566" 
d="M461 382q0 -74 -37 -120.5t-128 -75.5q-17 -5 -28 -9.5t-17.5 -9.5t-9 -10.5t-2.5 -12.5q0 -24 19 -28.5t53 -4.5h28q26 0 59 -2.5t62.5 -15.5t49.5 -41t20 -78q0 -43 -14.5 -74t-38 -51.5t-53.5 -33t-59.5 -18.5t-57 -8t-46.5 -2q-82 0 -130.5 13.5t-73.5 34t-32 44.5
t-7 45q0 31 15 52.5t37 34.5t47.5 19t46.5 6q-56 -29 -56 -92q0 -20 6.5 -37.5t24 -31t48.5 -21t81 -7.5q80 0 126 28.5t46 80.5q0 25 -8.5 40t-24 22.5t-37.5 10t-49 2.5h-25q-22 0 -47 1.5t-46 10t-34.5 26.5t-13.5 50q0 24 7.5 41.5t22 30t36 22t48.5 18.5q31 10 50 26
t29 36.5t13 44.5t3 50q0 51 -13.5 79.5t-31.5 42t-37.5 16t-31.5 2.5q-36 0 -57 -15.5t-32 -36.5t-14 -44t-3 -38q0 -24 2.5 -47t10.5 -43t23 -36.5t40 -28.5q-48 0 -81 13t-53.5 35t-29.5 50.5t-9 58.5q0 81 51 132t152 51q20 0 37 -2.5t29 -5.5q14 -4 24 -8h67
q29 0 54.5 1.5t43.5 3.5q21 3 38 6q-1 -5 -1 -11v-31v-29q0 -6 1 -10q-12 3 -28 6q-14 2 -33.5 4t-42.5 2h-34q26 -17 41 -51t15 -72zM127 789q26 -37 61.5 -62.5t83.5 -25.5q49 0 84 25.5t61 62.5q0 -35 -9.5 -64t-27.5 -51t-45 -34t-63 -12t-63 12t-45 34t-27.5 51
t-9.5 64z" />
    <glyph glyph-name="Gdotaccent" unicode="&#x120;" horiz-adv-x="695" 
d="M458 823l-81 -78l-81 78l81 77zM638 213q0 -64 -22.5 -106.5t-59.5 -67.5t-85.5 -35.5t-99.5 -10.5q-57 0 -113 17.5t-100.5 58t-72.5 108t-28 166.5q0 183 95 279.5t268 96.5q48 0 81.5 -5t55.5 -10q26 -6 42 -14q-1 -7 -1 -17q-1 -8 -1 -20v-28v-28.5t1 -21.5
q0 -11 1 -20q-17 24 -32.5 42t-35.5 30.5t-46.5 19t-63.5 6.5q-39 0 -83.5 -10t-83 -42.5t-64 -92t-25.5 -158.5q0 -64 12 -117.5t37.5 -92t65 -60t93.5 -21.5q21 0 49 3.5t52.5 17.5t41.5 42t17 77q0 54 -25.5 85.5t-85.5 31.5q-20 0 -34.5 -4t-24.5 -9q-11 -5 -20 -12
q0 43 39 67t96 24q81 0 120.5 -46t39.5 -123z" />
    <glyph glyph-name="gdotaccent" unicode="&#x121;" horiz-adv-x="566" 
d="M461 382q0 -74 -37 -120.5t-128 -75.5q-17 -5 -28 -9.5t-17.5 -9.5t-9 -10.5t-2.5 -12.5q0 -24 19 -28.5t53 -4.5h28q26 0 59 -2.5t62.5 -15.5t49.5 -41t20 -78q0 -43 -14.5 -74t-38 -51.5t-53.5 -33t-59.5 -18.5t-57 -8t-46.5 -2q-82 0 -130.5 13.5t-73.5 34t-32 44.5
t-7 45q0 31 15 52.5t37 34.5t47.5 19t46.5 6q-56 -29 -56 -92q0 -20 6.5 -37.5t24 -31t48.5 -21t81 -7.5q80 0 126 28.5t46 80.5q0 25 -8.5 40t-24 22.5t-37.5 10t-49 2.5h-25q-22 0 -47 1.5t-46 10t-34.5 26.5t-13.5 50q0 24 7.5 41.5t22 30t36 22t48.5 18.5q31 10 50 26
t29 36.5t13 44.5t3 50q0 51 -13.5 79.5t-31.5 42t-37.5 16t-31.5 2.5q-36 0 -57 -15.5t-32 -36.5t-14 -44t-3 -38q0 -24 2.5 -47t10.5 -43t23 -36.5t40 -28.5q-48 0 -81 13t-53.5 35t-29.5 50.5t-9 58.5q0 81 51 132t152 51q20 0 37 -2.5t29 -5.5q14 -4 24 -8h67
q29 0 54.5 1.5t43.5 3.5q21 3 38 6q-1 -5 -1 -11v-31v-29q0 -6 1 -10q-12 3 -28 6q-14 2 -33.5 4t-42.5 2h-34q26 -17 41 -51t15 -72zM350 712l-81 -78l-81 78l81 77z" />
    <glyph glyph-name="Gcommaaccent" unicode="&#x122;" horiz-adv-x="695" 
d="M442 -110q0 -22 -8.5 -42t-24 -36.5t-37.5 -28t-50 -15.5q1 0 8 6t15.5 16.5t15 24.5t6.5 31q0 16 -5.5 25t-12.5 14q-8 5 -18 7v17q0 47 50 55q26 -5 43.5 -22t17.5 -52zM638 213q0 -64 -22.5 -106.5t-59.5 -67.5t-85.5 -35.5t-99.5 -10.5q-57 0 -113 17.5t-100.5 58
t-72.5 108t-28 166.5q0 183 95 279.5t268 96.5q48 0 81.5 -5t55.5 -10q26 -6 42 -14q-1 -7 -1 -17q-1 -8 -1 -20v-28v-28.5t1 -21.5q0 -11 1 -20q-17 24 -32.5 42t-35.5 30.5t-46.5 19t-63.5 6.5q-39 0 -83.5 -10t-83 -42.5t-64 -92t-25.5 -158.5q0 -64 12 -117.5t37.5 -92
t65 -60t93.5 -21.5q21 0 49 3.5t52.5 17.5t41.5 42t17 77q0 54 -25.5 85.5t-85.5 31.5q-20 0 -34.5 -4t-24.5 -9q-11 -5 -20 -12q0 43 39 67t96 24q81 0 120.5 -46t39.5 -123z" />
    <glyph glyph-name="gcommaaccent" unicode="&#x123;" horiz-adv-x="566" 
d="M201 695q0 22 8.5 42t24 36.5t38 28t49.5 15.5q-1 0 -8 -6t-15 -16.5t-14.5 -25t-6.5 -30.5t5 -25t12 -14q8 -5 18 -7v-17q0 -47 -49 -55q-26 5 -44 22t-18 52zM461 382q0 -74 -37 -120.5t-128 -75.5q-17 -5 -28 -9.5t-17.5 -9.5t-9 -10.5t-2.5 -12.5q0 -24 19 -28.5
t53 -4.5h28q26 0 59 -2.5t62.5 -15.5t49.5 -41t20 -78q0 -43 -14.5 -74t-38 -51.5t-53.5 -33t-59.5 -18.5t-57 -8t-46.5 -2q-82 0 -130.5 13.5t-73.5 34t-32 44.5t-7 45q0 31 15 52.5t37 34.5t47.5 19t46.5 6q-56 -29 -56 -92q0 -20 6.5 -37.5t24 -31t48.5 -21t81 -7.5
q80 0 126 28.5t46 80.5q0 25 -8.5 40t-24 22.5t-37.5 10t-49 2.5h-25q-22 0 -47 1.5t-46 10t-34.5 26.5t-13.5 50q0 24 7.5 41.5t22 30t36 22t48.5 18.5q31 10 50 26t29 36.5t13 44.5t3 50q0 51 -13.5 79.5t-31.5 42t-37.5 16t-31.5 2.5q-36 0 -57 -15.5t-32 -36.5t-14 -44
t-3 -38q0 -24 2.5 -47t10.5 -43t23 -36.5t40 -28.5q-48 0 -81 13t-53.5 35t-29.5 50.5t-9 58.5q0 81 51 132t152 51q20 0 37 -2.5t29 -5.5q14 -4 24 -8h67q29 0 54.5 1.5t43.5 3.5q21 3 38 6q-1 -5 -1 -11v-31v-29q0 -6 1 -10q-12 3 -28 6q-14 2 -33.5 4t-42.5 2h-34
q26 -17 41 -51t15 -72z" />
    <glyph glyph-name="Hcircumflex" unicode="&#x124;" horiz-adv-x="749" 
d="M673 -1q-8 0 -19 1q-10 0 -26 0.5t-38 0.5q-23 0 -38 -0.5t-26 -0.5q-12 -1 -20 -1l9 17q7 14 12 27t8 43.5t4 87t1 156.5h-331q0 -67 0.5 -113.5t1.5 -78t2.5 -51t4.5 -32t7 -21t9 -18.5l9 -17q-8 0 -19 1q-10 0 -26 0.5t-38 0.5q-23 0 -38 -0.5t-26 -0.5q-12 -1 -20 -1
l9 17q5 9 9 17.5t6.5 22t4.5 35t3 56.5t1.5 87t0.5 127q0 109 -1 169.5t-3.5 92t-7.5 45t-13 28.5l-9 17q8 -1 19 -1q10 -1 25.5 -1h38.5h38t26 1q11 0 20 1l-9 -17q-5 -9 -8.5 -17t-6.5 -20t-5 -30.5t-3 -47.5t-1.5 -72.5t-0.5 -104.5h331q0 92 -1 143.5t-4 80t-8 41.5
t-12 27l-9 17q8 -1 19 -1q10 -1 25.5 -1h38.5h38t26 1q11 0 20 1l-9 -17l-9 -18t-6.5 -21.5t-4.5 -35t-3 -56.5t-1.5 -87t-0.5 -127q0 -109 1 -169.5t3.5 -92t7.5 -45t13 -28.5zM538 752q-47 3 -93 23t-72 52q-35 -38 -79 -55.5t-86 -19.5l136 150h59z" />
    <glyph glyph-name="hcircumflex" unicode="&#x125;" horiz-adv-x="633" 
d="M569 -1q-8 0 -19 1q-10 0 -25.5 0.5t-37.5 0.5q-23 0 -38 -0.5t-25 -0.5q-11 -1 -19 -1l9 17q6 11 11 21t8 34t5 69.5t2 127.5q0 41 -1 71.5t-3 53.5t-6.5 39t-11.5 28q-11 17 -32 31.5t-65 14.5q-42 0 -66 -10.5t-38 -23.5q-16 -15 -22 -33v-168q0 -82 1.5 -128t5 -70.5
t8 -35t10.5 -21.5l9 -17q-7 0 -18 1q-10 0 -25.5 0.5t-37.5 0.5q-23 0 -38 -0.5t-25 -0.5q-11 -1 -19 -1l9 17q6 11 10.5 21.5t8 35t5 70.5t1.5 128v244q0 65 -1.5 105t-5 64t-8 37t-10.5 24l-9 17l132 25l-2 -60q-1 -26 -1 -56.5v-57.5v-87q0 -16 -0.5 -29t-1.5 -24
q-1 -12 -1 -23q9 40 27.5 65.5t41.5 39t48 18.5t48 5q57 0 95 -19.5t57 -54.5q8 -16 13.5 -33.5t8.5 -41.5t4 -56t1 -76v-26q0 -82 1.5 -128t4.5 -70.5t7.5 -35t10.5 -21.5zM311 812q-47 3 -93 23t-72 52q-35 -38 -79 -55.5t-86 -19.5l136 150h59z" />
    <glyph glyph-name="Hbar" unicode="&#x126;" horiz-adv-x="769" 
d="M683 -1q-8 0 -19 1q-10 0 -26 0.5t-38 0.5q-23 0 -38 -0.5t-26 -0.5q-12 -1 -20 -1l9 17q7 14 11.5 27t7.5 43.5t4.5 87t1.5 156.5h-331q0 -67 0.5 -113.5t1.5 -78t2.5 -51t4.5 -32t7 -21t9 -18.5l9 -17q-8 0 -19 1q-10 0 -26 0.5t-38 0.5q-23 0 -38 -0.5t-26 -0.5
q-12 -1 -20 -1l9 17q5 9 9 17.5t6.5 22t4.5 35t3 56.5t1.5 87t0.5 127v90.5t-1 70.5h-2q-29 0 -48 -2t-30 -4q-13 -3 -20 -6v10q0 5 0.5 12.5t0.5 18.5q0 10 -0.5 17.5t-0.5 12.5v11q7 -3 20 -6q11 -2 30 -4t48 -2h1q-1 29 -3 47t-5 30t-6.5 20.5t-8.5 18.5l-9 17
q8 -1 19 -1q10 -1 25.5 -1h38.5h38t26 1q11 0 20 1l-9 -17q-5 -9 -8.5 -17t-6.5 -20t-5 -30.5t-3 -48.5h327q-1 29 -3 47t-5 30t-7 20.5t-8 18.5l-9 17q8 -1 19 -1q10 -1 25.5 -1h38.5h38t26 1q11 0 20 1l-9 -17q-5 -9 -8.5 -17t-6.5 -20t-5 -30.5t-3 -48.5h1q29 0 47.5 2
t29.5 4q13 3 21 6q-1 -5 -1 -11v-30v-31q0 -6 1 -10q-8 3 -21 6q-11 2 -29.5 4t-47.5 2h-2q-1 -32 -1 -74v-97q0 -109 1 -169.5t3.5 -92t7.5 -45t13 -28.5zM550 404v65t-1 53h-330v-118h331z" />
    <glyph glyph-name="hbar" unicode="&#x127;" horiz-adv-x="634" 
d="M570 -1q-8 0 -19 1q-10 0 -25.5 0.5t-37.5 0.5q-23 0 -38 -0.5t-25 -0.5q-11 -1 -18 -1l9 17q6 11 10.5 21t8 34t5 69.5t1.5 127.5t-3.5 125.5t-17.5 66.5q-11 17 -32.5 31.5t-65.5 14.5q-42 0 -65.5 -10.5t-37.5 -23.5q-16 -15 -22 -33v-168q0 -82 1.5 -128t5 -70.5
t8 -35t10.5 -21.5l9 -17q-8 0 -19 1q-10 0 -25.5 0.5t-37.5 0.5q-23 0 -38 -0.5t-25 -0.5q-11 -1 -19 -1l9 17q6 11 10.5 21.5t8 35t5 70.5t1.5 128v244v73.5t-2 54.5q-24 -1 -40 -2t-26 -3q-11 -2 -17 -4v9q0 5 0.5 11.5t0.5 15.5q0 8 -0.5 14.5t-0.5 11.5v10q6 -3 17 -5
q9 -2 24 -3.5t38 -1.5q-2 19 -5 30t-8 19l-8 17l126 25q0 -13 -1 -28q-1 -13 -1.5 -29t-0.5 -34h69q27 0 45 1.5t29 3.5q12 2 20 5q-1 -5 -1 -10q-1 -5 -1 -11.5v-14.5v-15.5t1 -11.5q0 -5 1 -9q-8 2 -20 4q-11 2 -29 3.5t-45 1.5h-69v-30v-87q0 -16 -0.5 -29t-1.5 -24
q-1 -12 -1 -23q9 40 27.5 65.5t41.5 39t48 18.5t48 5q57 0 94.5 -19.5t56.5 -54.5q8 -16 13.5 -33.5t8.5 -41.5t4 -56t1 -76v-26q0 -82 1.5 -128t4.5 -70.5t7.5 -35t10.5 -21.5z" />
    <glyph glyph-name="Itilde" unicode="&#x128;" horiz-adv-x="319" 
d="M243 -1q-8 0 -19 1q-10 0 -26 0.5t-38 0.5q-23 0 -38 -0.5t-26 -0.5q-12 -1 -20 -1l9 17q5 9 9 17.5t6.5 22t4.5 35t3 56.5t1.5 87t0.5 127q0 109 -1 169.5t-3.5 92t-7.5 45t-13 28.5l-9 17q8 -1 19 -1q10 -1 25.5 -1h38.5h38t26 1q11 0 20 1l-9 -17l-9 -18t-6.5 -21.5
t-4.5 -35t-3 -56.5t-1.5 -87t-0.5 -127q0 -109 1 -169.5t3.5 -92t7.5 -45t13 -28.5zM251 838q15 0 28 7t22.5 15t15 15.5t6.5 9.5q0 -55 -23.5 -84t-62.5 -29q-15 0 -28 3.5t-23 6.5l-59 21q-13 5 -20.5 6.5t-20.5 1.5q-15 0 -28 -7t-22.5 -15.5t-15 -16t-6.5 -9.5
q0 56 24 85t62 29q15 0 28 -3t23 -7l59 -21q13 -5 20.5 -6.5t20.5 -1.5z" />
    <glyph glyph-name="itilde" unicode="&#x129;" horiz-adv-x="293" 
d="M242 15q-5 -6 -16 -10q-9 -4 -23.5 -6.5t-36.5 -2.5q-23 0 -36.5 6t-21 17t-9.5 25.5t-2 32.5q0 21 0.5 49.5t1 59t1 60.5t0.5 56q0 65 -1.5 105t-5 64t-8 37t-10.5 24l-9 17l138 25q-3 -20 -5 -56q-2 -31 -3 -83.5t-1 -133.5v-114q0 -46 1.5 -75.5t6.5 -48t14.5 -29
t24.5 -19.5zM231 707q15 0 28 7t22.5 15t15 15.5t6.5 9.5q0 -54 -23.5 -83t-62.5 -29q-15 0 -28 3t-23 7l-59 21q-13 5 -20.5 6.5t-20.5 1.5q-15 0 -28 -7t-22.5 -15.5t-15 -16t-6.5 -9.5q0 56 24 84.5t62 28.5q15 0 28 -3t23 -7l59 -21q13 -4 20.5 -6t20.5 -2z" />
    <glyph glyph-name="Imacron" unicode="&#x12a;" horiz-adv-x="319" 
d="M243 -1q-8 0 -19 1q-10 0 -26 0.5t-38 0.5q-23 0 -38 -0.5t-26 -0.5q-12 -1 -20 -1l9 17q5 9 9 17.5t6.5 22t4.5 35t3 56.5t1.5 87t0.5 127q0 109 -1 169.5t-3.5 92t-7.5 45t-13 28.5l-9 17q8 -1 19 -1q10 -1 25.5 -1h38.5h38t26 1q11 0 20 1l-9 -17l-9 -18t-6.5 -21.5
t-4.5 -35t-3 -56.5t-1.5 -87t-0.5 -127q0 -109 1 -169.5t3.5 -92t7.5 -45t13 -28.5zM19 787v69h283v-69h-283z" />
    <glyph glyph-name="imacron" unicode="&#x12b;" horiz-adv-x="293" 
d="M242 15q-5 -6 -16 -10q-9 -4 -23.5 -6.5t-36.5 -2.5q-23 0 -36.5 6t-21 17t-9.5 25.5t-2 32.5q0 21 0.5 49.5t1 59t1 60.5t0.5 56q0 65 -1.5 105t-5 64t-8 37t-10.5 24l-9 17l138 25q-3 -20 -5 -56q-2 -31 -3 -83.5t-1 -133.5v-114q0 -46 1.5 -75.5t6.5 -48t14.5 -29
t24.5 -19.5zM7 657v69h283v-69h-283z" />
    <glyph glyph-name="Ibreve" unicode="&#x12c;" horiz-adv-x="319" 
d="M243 -1q-8 0 -19 1q-10 0 -26 0.5t-38 0.5q-23 0 -38 -0.5t-26 -0.5q-12 -1 -20 -1l9 17q5 9 9 17.5t6.5 22t4.5 35t3 56.5t1.5 87t0.5 127q0 109 -1 169.5t-3.5 92t-7.5 45t-13 28.5l-9 17q8 -1 19 -1q10 -1 25.5 -1h38.5h38t26 1q11 0 20 1l-9 -17l-9 -18t-6.5 -21.5
t-4.5 -35t-3 -56.5t-1.5 -87t-0.5 -127q0 -109 1 -169.5t3.5 -92t7.5 -45t13 -28.5zM15 919q26 -37 61.5 -63t83.5 -26q49 0 84 26t61 63q0 -35 -9.5 -64.5t-27.5 -51t-45 -34t-63 -12.5t-63 12.5t-45 34t-27.5 51t-9.5 64.5z" />
    <glyph glyph-name="ibreve" unicode="&#x12d;" horiz-adv-x="293" 
d="M242 15q-5 -6 -16 -10q-9 -4 -23.5 -6.5t-36.5 -2.5q-23 0 -36.5 6t-21 17t-9.5 25.5t-2 32.5q0 21 0.5 49.5t1 59t1 60.5t0.5 56q0 65 -1.5 105t-5 64t-8 37t-10.5 24l-9 17l138 25q-3 -20 -5 -56q-2 -31 -3 -83.5t-1 -133.5v-114q0 -46 1.5 -75.5t6.5 -48t14.5 -29
t24.5 -19.5zM3 789q26 -37 61.5 -62.5t83.5 -25.5q49 0 84 25.5t61 62.5q0 -35 -9.5 -64t-27.5 -51t-45 -34t-63 -12t-63 12t-45 34t-27.5 51t-9.5 64z" />
    <glyph glyph-name="Iogonek" unicode="&#x12e;" horiz-adv-x="319" 
d="M50 -131q0 27 11 48t27 37.5t34.5 27.5t33.5 19q-21 0 -36 -0.5t-25 -0.5q-11 -1 -19 -1l9 17q5 9 9 17.5t6.5 22t4.5 35t3 56.5t1.5 87t0.5 127q0 109 -1 169.5t-3.5 92t-7.5 45t-13 28.5l-9 17q8 -1 19 -1q10 -1 25.5 -1h38.5h38t26 1q11 0 20 1l-9 -17l-9 -18
t-6.5 -21.5t-4.5 -35t-3 -56.5t-1.5 -87t-0.5 -127q0 -109 1 -169.5t3.5 -92t7.5 -45t13 -28.5l9 -17q-23 0 -42.5 -8.5t-34 -23.5t-23 -35.5t-8.5 -44.5q0 -32 21 -52t66 -26q-17 -10 -38 -15.5t-41 -5.5q-37 0 -65 19t-28 62z" />
    <glyph glyph-name="iogonek" unicode="&#x12f;" horiz-adv-x="293" 
d="M69 -131q0 25 9 45t23.5 35.5t31.5 27t32 19.5q-23 0 -36 6t-20.5 17t-9.5 25.5t-2 32.5q0 21 0.5 49.5t1 59t1 60.5t0.5 56q0 65 -1.5 105t-5 64t-8 37t-10.5 24l-9 17l138 25q-3 -20 -5 -56q-2 -31 -3 -83.5t-1 -133.5v-114q0 -46 1.5 -75.5t6.5 -48t14.5 -29
t24.5 -19.5q-15 -9 -30.5 -21t-28 -28t-21 -35.5t-8.5 -43.5q0 -32 21 -52t66 -26q-17 -10 -38 -15.5t-41 -5.5q-37 0 -65 19t-28 62zM230 712l-81 -78l-81 78l81 77z" />
    <glyph glyph-name="Idotaccent" unicode="&#x130;" horiz-adv-x="319" 
d="M243 -1q-8 0 -19 1q-10 0 -26 0.5t-38 0.5q-23 0 -38 -0.5t-26 -0.5q-12 -1 -20 -1l9 17q5 9 9 17.5t6.5 22t4.5 35t3 56.5t1.5 87t0.5 127q0 109 -1 169.5t-3.5 92t-7.5 45t-13 28.5l-9 17q8 -1 19 -1q10 -1 25.5 -1h38.5h38t26 1q11 0 20 1l-9 -17l-9 -18t-6.5 -21.5
t-4.5 -35t-3 -56.5t-1.5 -87t-0.5 -127q0 -109 1 -169.5t3.5 -92t7.5 -45t13 -28.5zM239 823l-81 -78l-81 78l81 77z" />
    <glyph glyph-name="dotlessi" unicode="&#x131;" horiz-adv-x="293" 
d="M242 15q-5 -6 -16 -10q-9 -4 -23.5 -6.5t-36.5 -2.5q-23 0 -36.5 6t-21 17t-9.5 25.5t-2 32.5q0 21 0.5 49.5t1 59t1 60.5t0.5 56q0 65 -1.5 105t-5 64t-8 37t-10.5 24l-9 17l138 25q-3 -20 -5 -56q-2 -31 -3 -83.5t-1 -133.5v-114q0 -46 1.5 -75.5t6.5 -48t14.5 -29
t24.5 -19.5z" />
    <glyph glyph-name="IJ" unicode="&#x132;" horiz-adv-x="639" 
d="M243 -1q-8 0 -19 1q-10 0 -26 0.5t-38 0.5q-23 0 -38 -0.5t-26 -0.5q-12 -1 -20 -1l9 17q5 9 9 17.5t6.5 22t4.5 35t3 56.5t1.5 87t0.5 127q0 109 -1 169.5t-3.5 92t-7.5 45t-13 28.5l-9 17q8 -1 19 -1q10 -1 25.5 -1h38.5h38t26 1q11 0 20 1l-9 -17l-9 -18t-6.5 -21.5
t-4.5 -35t-3 -56.5t-1.5 -87t-0.5 -127q0 -109 1 -169.5t3.5 -92t7.5 -45t13 -28.5zM562 696q-5 -9 -9 -17.5t-6.5 -22.5t-4.5 -37.5t-3 -63.5t-1.5 -100t-0.5 -147q0 -102 0.5 -163t1.5 -93q1 -38 3 -52q-6 -55 -26.5 -95t-47.5 -66.5t-56.5 -39t-53.5 -12.5q27 24 42.5 57
t24 74t11 89t2.5 103v250q0 109 -1 169.5t-3.5 92.5t-7.5 45.5t-13 28.5l-9 17q8 -1 19 -1q10 -1 25.5 -1h38.5h38t26 1q11 0 20 1z" />
    <glyph glyph-name="ij" unicode="&#x133;" horiz-adv-x="575" 
d="M242 15q-5 -6 -16 -10q-9 -4 -23.5 -6.5t-36.5 -2.5q-23 0 -36.5 6t-21 17t-9.5 25.5t-2 32.5q0 21 0.5 49.5t1 59t1 60.5t0.5 56q0 65 -1.5 105t-5 64t-8 37t-10.5 24l-9 17l138 25q-3 -20 -5 -56q-2 -31 -3 -83.5t-1 -133.5v-114q0 -46 1.5 -75.5t6.5 -48t14.5 -29
t24.5 -19.5zM230 712l-81 -78l-81 78l81 77zM499 574q-3 -20 -5 -60q-2 -35 -3.5 -95t-1.5 -157q0 -89 0.5 -141t2.5 -79q1 -32 3 -42q-6 -55 -27 -95t-48 -66.5t-56 -39t-50 -12.5q27 24 42.5 57t24 74t11 89t2.5 103v192q0 65 -1.5 105t-5 64t-8 37t-10.5 24l-9 17z
M523 712l-81 -78l-81 78l81 77z" />
    <glyph glyph-name="Jcircumflex" unicode="&#x134;" horiz-adv-x="321" 
d="M244 696q-5 -9 -9 -17.5t-6.5 -22.5t-4.5 -37.5t-3 -63.5t-1.5 -100t-0.5 -147q0 -102 0.5 -163t1.5 -93q1 -38 3 -52q-6 -55 -26.5 -95t-47.5 -66.5t-56.5 -39t-53.5 -12.5q27 24 42.5 57t24 74t11 89t2.5 103v250q0 109 -1 169.5t-3.5 92.5t-7.5 45.5t-13 28.5l-9 17
q8 -1 19 -1q10 -1 25.5 -1h38.5h38t26 1q11 0 20 1zM337 752q-47 3 -93 23t-72 52q-35 -38 -79 -55.5t-86 -19.5l136 150h59z" />
    <glyph glyph-name="jcircumflex" unicode="&#x135;" horiz-adv-x="282" 
d="M205 574q-3 -19 -5 -55q-2 -31 -3 -83t-1 -133v-341q0 -32 -2.5 -63.5t-17.5 -56t-46.5 -40t-88.5 -15.5h-20q29 14 45 34.5t24 49.5t9.5 68t1.5 91v272q0 65 -1.5 105t-5 64t-8 37t-10.5 24l-9 17zM310 623q-47 2 -93 22t-72 52q-35 -38 -79 -55t-86 -19l136 149h59z
" />
    <glyph glyph-name="Kcommaaccent" unicode="&#x136;" horiz-adv-x="638" 
d="M393 -110q0 -22 -8.5 -42t-24 -36.5t-37.5 -28t-50 -15.5q1 0 8 6t15.5 16.5t15 24.5t6.5 31q0 16 -5.5 25t-12.5 14q-8 5 -18 7v17q0 47 50 55q26 -5 43.5 -22t17.5 -52zM243 -1q-8 0 -19 1q-10 0 -26 0.5t-38 0.5q-23 0 -38 -0.5t-26 -0.5q-12 -1 -20 -1l9 17
q5 9 9 17.5t6.5 22t4.5 35t3 56.5t1.5 87t0.5 127q0 109 -1 169.5t-3.5 92t-7.5 45t-13 28.5l-9 17q8 -1 19 -1q10 -1 25.5 -1h38.5h38t26 1q11 0 20 1l-9 -17l-9 -18t-6.5 -21.5t-4.5 -35t-3 -56.5t-1.5 -87t-0.5 -127q0 -109 1 -169.5t3.5 -92t7.5 -45t13 -28.5zM646 -2
q-11 0 -26 1q-13 0 -32 0.5t-44 0.5h-68q-3 34 -12 69q-8 30 -22.5 67t-40.5 74q-30 42 -62 71t-58 47q-31 21 -60 35q64 41 115 88q21 20 42 43t37 49t26 53.5t10 56.5q0 28 -11 41.5t-19 18.5q12 -1 28 -2q14 -1 32 -1h41h53.5t35.5 1q16 1 25 2q-12 -8 -25 -18.5
t-29 -27.5q-24 -26 -39 -58.5t-36.5 -69t-57 -76t-101.5 -78.5q20 -9 41 -23q18 -12 40.5 -32.5t45.5 -49.5q24 -31 40.5 -64.5t29.5 -65t25 -59.5t26 -47q11 -15 22.5 -26.5t27.5 -19.5z" />
    <glyph glyph-name="kcommaaccent" unicode="&#x137;" horiz-adv-x="575" 
d="M353 -110q0 -22 -8.5 -42t-24 -36.5t-37.5 -28t-50 -15.5q1 0 8 6t15.5 16.5t15 24.5t6.5 31q0 16 -5.5 25t-12.5 14q-8 5 -18 7v17q0 47 50 55q26 -5 43.5 -22t17.5 -52zM227 -1q-7 0 -18 1q-10 0 -25.5 0.5t-37.5 0.5q-23 0 -38 -0.5t-25 -0.5q-11 -1 -19 -1l9 17
q7 13 11.5 27t7.5 40t4.5 70t1.5 118v221q0 69 -1 111.5t-4 68.5t-8 41.5t-12 30.5l-9 17l132 26q-1 -33 -2 -68q-1 -30 -1 -68v-76v-304q0 -69 1 -112t3.5 -70t7.5 -42.5t13 -30.5zM576 -1h-23q-11 0 -27 0.5t-36 0.5h-68q-3 28 -11 57q-7 25 -20 55t-33 59q-23 30 -47 52
t-45 36t-35.5 21.5t-17.5 8.5q2 1 17 10.5t36 25t45 36.5t44 46t33.5 53t13.5 58q0 23 -8.5 33t-14.5 14q10 -1 23 -1q11 -1 26.5 -1h35.5h45.5t33.5 1q15 0 26 1q-10 -6 -21.5 -15t-23.5 -22q-19 -20 -32.5 -46t-32.5 -55t-49.5 -60t-82.5 -62q17 -6 35 -17
q16 -10 34.5 -25.5t37.5 -40.5q18 -24 32 -50.5t25.5 -52t22 -47.5t22.5 -37q17 -25 40 -36z" />
    <glyph glyph-name="kgreenlandic" unicode="&#x138;" horiz-adv-x="580" 
d="M582 -1h-24q-11 0 -26.5 0.5t-35.5 0.5h-68q-3 27 -11 55q-7 24 -20 53.5t-33 58.5q-23 31 -47.5 52.5t-45.5 36t-35.5 21.5t-17.5 8q2 1 17 10.5t36 25.5t45 38t44.5 47.5t34 53.5t13.5 58q0 23 -9 33t-15 14q10 -1 23 -1q11 -1 27 -1h36h45t33 1q16 0 27 1
q-10 -6 -22 -15t-23 -22q-19 -20 -33 -46.5t-33.5 -56.5t-49.5 -61.5t-82 -62.5q17 -6 35 -17q16 -10 35 -25.5t37 -40.5q19 -24 33 -50t25.5 -50.5t22 -46t21.5 -36.5q9 -12 18.5 -21t22.5 -15zM233 -1q-7 0 -18 1q-10 0 -25.5 0.5t-37.5 0.5q-23 0 -38.5 -0.5t-25.5 -0.5
q-11 -1 -19 -1l9 17q7 13 12 27t8 40t4 70t1 118v10q0 68 -1 110t-3.5 68.5t-7.5 41.5t-13 30l-9 17l133 26q-1 -33 -2 -68q-1 -30 -1 -68v-76v-91q0 -69 1 -112t3.5 -70t7.5 -42.5t13 -30.5z" />
    <glyph glyph-name="Lacute" unicode="&#x139;" horiz-adv-x="491" 
d="M189 902h106q-4 -12 -15 -26q-9 -12 -24.5 -28.5t-40.5 -36.5q-23 -19 -42.5 -30t-34.5 -17q-18 -7 -32 -11zM465 147q-1 -11 -3 -28q-2 -14 -4 -36.5t-4 -52.5l-2 -30h-299q-20 0 -35 -0.5t-24 -0.5h-18l9 17q5 9 9 17.5t6.5 22t4.5 35t3 56.5t1.5 87t0.5 127
q0 109 -1 169.5t-3.5 92t-7.5 45t-13 28.5l-9 17q8 -1 19 -1q10 -1 25.5 -1h38.5h38.5t26.5 1q12 0 20 1l-9 -17q-8 -14 -12.5 -28t-7.5 -46t-4 -93t-1 -169v-296h78q46 0 74.5 5.5t46.5 16t30 26t26 35.5z" />
    <glyph glyph-name="lacute" unicode="&#x13a;" horiz-adv-x="291" 
d="M161 962h106q-4 -12 -15 -26q-9 -12 -24.5 -28.5t-40.5 -36.5q-23 -19 -42.5 -30t-34.5 -17q-18 -7 -32 -11zM239 15q-8 -8 -30 -13.5t-45 -5.5q-24 0 -38 6t-21.5 17t-9.5 25.5t-2 32.5q0 68 2.5 144.5t2.5 164.5v106q0 69 -1 111.5t-4 68.5t-8 41.5t-12 30.5l-9 17
l132 26q-1 -32 -2 -67q-1 -30 -1 -67.5v-75.5v-390q0 -44 1.5 -73t6 -48.5t14 -31t24.5 -19.5z" />
    <glyph glyph-name="Lcommaaccent" unicode="&#x13b;" horiz-adv-x="491" 
d="M327 -110q0 -22 -8.5 -42t-24 -36.5t-37.5 -28t-50 -15.5q1 0 8 6t15.5 16.5t15 24.5t6.5 31q0 16 -5.5 25t-12.5 14q-8 5 -18 7v17q0 47 50 55q26 -5 43.5 -22t17.5 -52zM465 147q-1 -11 -3 -28q-2 -14 -4 -36.5t-4 -52.5l-2 -30h-299q-20 0 -35 -0.5t-24 -0.5h-18l9 17
q5 9 9 17.5t6.5 22t4.5 35t3 56.5t1.5 87t0.5 127q0 109 -1 169.5t-3.5 92t-7.5 45t-13 28.5l-9 17q8 -1 19 -1q10 -1 25.5 -1h38.5h38.5t26.5 1q12 0 20 1l-9 -17q-8 -14 -12.5 -28t-7.5 -46t-4 -93t-1 -169v-296h78q46 0 74.5 5.5t46.5 16t30 26t26 35.5z" />
    <glyph glyph-name="lcommaaccent" unicode="&#x13c;" horiz-adv-x="291" 
d="M220 -110q0 -22 -8.5 -42t-24 -36.5t-37.5 -28t-50 -15.5q1 0 8 6t15.5 16.5t15 24.5t6.5 31q0 16 -5.5 25t-12.5 14q-8 5 -18 7v17q0 47 50 55q26 -5 43.5 -22t17.5 -52zM239 15q-8 -8 -30 -13.5t-45 -5.5q-24 0 -38 6t-21.5 17t-9.5 25.5t-2 32.5q0 68 2.5 144.5
t2.5 164.5v106q0 69 -1 111.5t-4 68.5t-8 41.5t-12 30.5l-9 17l132 26q-1 -32 -2 -67q-1 -30 -1 -67.5v-75.5v-390q0 -44 1.5 -73t6 -48.5t14 -31t24.5 -19.5z" />
    <glyph glyph-name="Lcaron" unicode="&#x13d;" horiz-adv-x="491" 
d="M288 541q7 27 10 55.5t3 55t-2 49.5t-5 40l92 11q6 -63 -16 -118.5t-82 -92.5zM465 147q-1 -11 -3 -28q-2 -14 -4 -36.5t-4 -52.5l-2 -30h-299q-20 0 -35 -0.5t-24 -0.5h-18l9 17q5 9 9 17.5t6.5 22t4.5 35t3 56.5t1.5 87t0.5 127q0 109 -1 169.5t-3.5 92t-7.5 45
t-13 28.5l-9 17q8 -1 19 -1q10 -1 25.5 -1h38.5h38.5t26.5 1q12 0 20 1l-9 -17q-8 -14 -12.5 -28t-7.5 -46t-4 -93t-1 -169v-296h78q46 0 74.5 5.5t46.5 16t30 26t26 35.5z" />
    <glyph glyph-name="lcaron" unicode="&#x13e;" horiz-adv-x="291" 
d="M240 598q7 27 10 55.5t3 55t-2 49.5t-5 40l92 11q6 -63 -16 -118.5t-82 -92.5zM239 15q-8 -8 -30 -13.5t-45 -5.5q-24 0 -38 6t-21.5 17t-9.5 25.5t-2 32.5q0 68 2.5 144.5t2.5 164.5v106q0 69 -1 111.5t-4 68.5t-8 41.5t-12 30.5l-9 17l132 26q-1 -32 -2 -67
q-1 -30 -1 -67.5v-75.5v-390q0 -44 1.5 -73t6 -48.5t14 -31t24.5 -19.5z" />
    <glyph glyph-name="Ldot" unicode="&#x13f;" horiz-adv-x="491" 
d="M465 147q-1 -11 -3 -28q-2 -14 -4 -36.5t-4 -52.5l-2 -30h-299q-20 0 -35 -0.5t-24 -0.5h-18l9 17q5 9 9 17.5t6.5 22t4.5 35t3 56.5t1.5 87t0.5 127q0 109 -1 169.5t-3.5 92t-7.5 45t-13 28.5l-9 17q8 -1 19 -1q10 -1 25.5 -1h38.5h38.5t26.5 1q12 0 20 1l-9 -17
q-8 -14 -12.5 -28t-7.5 -46t-4 -93t-1 -169v-296h78q46 0 74.5 5.5t46.5 16t30 26t26 35.5zM486 431l-81 -78l-81 78l81 77z" />
    <glyph glyph-name="ldot" unicode="&#x140;" horiz-adv-x="408" 
d="M239 15q-8 -8 -30 -13.5t-45 -5.5q-24 0 -38 6t-21.5 17t-9.5 25.5t-2 32.5q0 68 2.5 144.5t2.5 164.5v106q0 69 -1 111.5t-4 68.5t-8 41.5t-12 30.5l-9 17l132 26q-1 -32 -2 -67q-1 -30 -1 -67.5v-75.5v-390q0 -44 1.5 -73t6 -48.5t14 -31t24.5 -19.5zM429 388l-81 -78
l-81 78l81 77z" />
    <glyph glyph-name="Lslash" unicode="&#x141;" horiz-adv-x="498" 
d="M472 147q-1 -11 -3 -28q-2 -14 -4 -36.5t-4 -52.5l-2 -30h-299q-20 0 -35 -0.5t-24 -0.5h-18l9 17q7 13 11.5 25t7.5 38t4.5 73t1.5 131q-21 -11 -33.5 -18.5t-20.5 -13.5q-9 -7 -12 -12q-1 4 -4 9q-2 5 -5 11.5t-8 16.5l-7.5 15t-5.5 12q-3 5 -5 9q8 -1 21 3
q11 3 28.5 9.5t43.5 19.5l8 4v13q0 109 -1 169.5t-3.5 92t-7.5 45t-13 28.5l-9 17q7 -1 19 -1q10 -1 26 -1h39h38t27 1q12 0 20 1l-10 -17q-5 -9 -8.5 -17.5t-6.5 -21t-5 -31t-3 -49t-1.5 -74.5t-0.5 -107l64 31q26 13 42.5 23t25.5 17q11 8 16 14q1 -5 4 -10
q2 -5 4.5 -11.5t7.5 -15.5t8.5 -15.5t5.5 -11.5q3 -5 5 -9q-8 0 -21 -4q-11 -3 -28.5 -9.5t-43.5 -18.5l-90 -44v-268h78q46 0 74.5 5.5t46.5 16t30 26t26 35.5z" />
    <glyph glyph-name="lslash" unicode="&#x142;" horiz-adv-x="369" 
d="M277 15q-8 -8 -30 -13.5t-45 -5.5q-24 0 -38 6t-21.5 17t-9.5 25.5t-2 32.5v53.5t0.5 75.5t1 77t1.5 58l-13 -7q-24 -14 -39 -24t-23 -17q-10 -8 -15 -14q-1 4 -4 9q-2 5 -5 10.5t-8 13.5t-8 13.5t-5 9.5q-3 4 -5 8q7 1 19 5q10 4 26.5 11.5t40.5 21.5l40 22q1 21 1 42.5
v44.5v2q0 69 -1 111.5t-4 68.5t-8 41.5t-12 30.5l-9 17l132 26q-1 -32 -2 -67q-1 -30 -1 -67.5v-75.5v-120l17 10q23 13 38.5 23.5t24.5 17.5q11 8 15 14q1 -4 4 -9q2 -5 4.5 -11t7.5 -13q5 -8 8.5 -13.5t5.5 -9.5q3 -4 5 -8q-8 -2 -20 -6q-11 -4 -27.5 -11t-39.5 -21
l-43 -24v-209q0 -44 1.5 -73t6 -48.5t14 -31t24.5 -19.5z" />
    <glyph glyph-name="Nacute" unicode="&#x143;" horiz-adv-x="739" 
d="M405 902h106q-4 -12 -15 -26q-9 -12 -24.5 -28.5t-40.5 -36.5q-23 -19 -42.5 -30t-34.5 -17q-18 -7 -32 -11zM661 696q-5 -9 -8.5 -17t-6.5 -21.5t-5 -35t-3 -57t-1.5 -87.5t-0.5 -127v-353q-7 0 -16 1q-8 1 -19.5 1.5t-25.5 0.5q-17 0 -29.5 -0.5t-20.5 -1.5
q-10 -1 -17 -1l-297 561q-12 22 -18.5 43t-7.5 26v-277q0 -109 1 -169.5t3.5 -92t7.5 -45t13 -28.5l9 -17q-7 0 -18 1q-9 0 -23 0.5t-32 0.5q-19 0 -32.5 -0.5t-22.5 -0.5q-11 -1 -17 -1l9 17q5 9 8.5 17t6.5 21.5t5 35t3 57t1.5 87.5t0.5 127q0 109 -1 169.5t-3.5 92
t-7.5 45t-13 28.5l-9 17q7 -1 19 -1q11 -1 27.5 -1h40.5h33.5t23.5 1q11 0 18 1l296 -559q8 -16 13.5 -29t8.5 -22q4 -11 5 -20v278q0 109 -1 169.5t-3.5 92t-7.5 45t-13 28.5l-9 17q7 -1 18 -1q9 -1 22.5 -1h32.5h32.5t22.5 1q11 0 17 1z" />
    <glyph glyph-name="nacute" unicode="&#x144;" horiz-adv-x="637" 
d="M351 772h106q-4 -12 -15 -26q-9 -12 -24.5 -28.5t-40.5 -36.5q-23 -19 -42.5 -30t-34.5 -17q-18 -7 -32 -10zM574 -1q-8 0 -19 1q-10 0 -26 0.5t-38 0.5q-23 0 -38 -0.5t-25 -0.5q-11 -1 -18 -1l9 17q6 11 10.5 21.5t8 35t5 70t1.5 127.5t-4 125.5t-18 66.5
q-11 17 -32 31.5t-65 14.5q-42 0 -66 -10.5t-38 -22.5q-16 -15 -22 -33v-171q0 -82 1.5 -128t5 -70.5t8 -35t10.5 -21.5l9 -17q-7 0 -18 1q-10 0 -25.5 0.5t-37.5 0.5q-23 0 -38.5 -0.5t-25.5 -0.5q-11 -1 -19 -1l9 17q6 11 10.5 21.5t8 35t5 70.5t1.5 128v31q0 65 -1.5 105
t-5 64t-8 37t-10.5 24l-9 17l130 25l-4 -125q9 40 27 65.5t41 39.5t48.5 19t49.5 5q57 0 94.5 -19.5t57.5 -54.5q8 -16 13.5 -33.5t8.5 -41.5t4 -56t1 -76v-26q0 -82 1.5 -128t5 -70.5t8 -35t10.5 -21.5z" />
    <glyph glyph-name="Ncommaaccent" unicode="&#x145;" horiz-adv-x="739" 
d="M424 -110q0 -22 -8.5 -42t-24 -36.5t-37.5 -28t-50 -15.5q1 0 8 6t15.5 16.5t15 24.5t6.5 31q0 16 -5.5 25t-12.5 14q-8 5 -18 7v17q0 47 50 55q26 -5 43.5 -22t17.5 -52zM661 696q-5 -9 -8.5 -17t-6.5 -21.5t-5 -35t-3 -57t-1.5 -87.5t-0.5 -127v-353q-7 0 -16 1
q-8 1 -19.5 1.5t-25.5 0.5q-17 0 -29.5 -0.5t-20.5 -1.5q-10 -1 -17 -1l-297 561q-12 22 -18.5 43t-7.5 26v-277q0 -109 1 -169.5t3.5 -92t7.5 -45t13 -28.5l9 -17q-7 0 -18 1q-9 0 -23 0.5t-32 0.5q-19 0 -32.5 -0.5t-22.5 -0.5q-11 -1 -17 -1l9 17q5 9 8.5 17t6.5 21.5
t5 35t3 57t1.5 87.5t0.5 127q0 109 -1 169.5t-3.5 92t-7.5 45t-13 28.5l-9 17q7 -1 19 -1q11 -1 27.5 -1h40.5h33.5t23.5 1q11 0 18 1l296 -559q8 -16 13.5 -29t8.5 -22q4 -11 5 -20v278q0 109 -1 169.5t-3.5 92t-7.5 45t-13 28.5l-9 17q7 -1 18 -1q9 -1 22.5 -1h32.5h32.5
t22.5 1q11 0 17 1z" />
    <glyph glyph-name="ncommaaccent" unicode="&#x146;" horiz-adv-x="637" 
d="M378 -110q0 -22 -8.5 -42t-24 -36.5t-37.5 -28t-50 -15.5q1 0 8 6t15.5 16.5t15 24.5t6.5 31q0 16 -5.5 25t-12.5 14q-8 5 -18 7v17q0 47 50 55q26 -5 43.5 -22t17.5 -52zM574 -1q-8 0 -19 1q-10 0 -26 0.5t-38 0.5q-23 0 -38 -0.5t-25 -0.5q-11 -1 -18 -1l9 17
q6 11 10.5 21.5t8 35t5 70t1.5 127.5t-4 125.5t-18 66.5q-11 17 -32 31.5t-65 14.5q-42 0 -66 -10.5t-38 -22.5q-16 -15 -22 -33v-171q0 -82 1.5 -128t5 -70.5t8 -35t10.5 -21.5l9 -17q-7 0 -18 1q-10 0 -25.5 0.5t-37.5 0.5q-23 0 -38.5 -0.5t-25.5 -0.5q-11 -1 -19 -1
l9 17q6 11 10.5 21.5t8 35t5 70.5t1.5 128v31q0 65 -1.5 105t-5 64t-8 37t-10.5 24l-9 17l130 25l-4 -125q9 40 27 65.5t41 39.5t48.5 19t49.5 5q57 0 94.5 -19.5t57.5 -54.5q8 -16 13.5 -33.5t8.5 -41.5t4 -56t1 -76v-26q0 -82 1.5 -128t5 -70.5t8 -35t10.5 -21.5z" />
    <glyph glyph-name="Ncaron" unicode="&#x147;" horiz-adv-x="739" 
d="M517 915q-41 -38 -74.5 -77.5t-65.5 -85.5h-14l-79 77q-8 8 -24.5 23t-27.5 23l65 50q7 -11 16 -23.5t17 -23.5l29 -39q12 15 29 29.5t37 25t43 16.5t49 5zM661 696q-5 -9 -8.5 -17t-6.5 -21.5t-5 -35t-3 -57t-1.5 -87.5t-0.5 -127v-353q-7 0 -16 1q-8 1 -19.5 1.5
t-25.5 0.5q-17 0 -29.5 -0.5t-20.5 -1.5q-10 -1 -17 -1l-297 561q-12 22 -18.5 43t-7.5 26v-277q0 -109 1 -169.5t3.5 -92t7.5 -45t13 -28.5l9 -17q-7 0 -18 1q-9 0 -23 0.5t-32 0.5q-19 0 -32.5 -0.5t-22.5 -0.5q-11 -1 -17 -1l9 17q5 9 8.5 17t6.5 21.5t5 35t3 57
t1.5 87.5t0.5 127q0 109 -1 169.5t-3.5 92t-7.5 45t-13 28.5l-9 17q7 -1 19 -1q11 -1 27.5 -1h40.5h33.5t23.5 1q11 0 18 1l296 -559q8 -16 13.5 -29t8.5 -22q4 -11 5 -20v278q0 109 -1 169.5t-3.5 92t-7.5 45t-13 28.5l-9 17q7 -1 18 -1q9 -1 22.5 -1h32.5h32.5t22.5 1
q11 0 17 1z" />
    <glyph glyph-name="ncaron" unicode="&#x148;" horiz-adv-x="637" 
d="M445 772q-20 -20 -36.5 -37t-31.5 -34.5t-29.5 -36.5t-29.5 -41h-16l-67 63q-9 8 -25 23t-27 23l62 50q15 -26 34 -47l25 -29q24 30 56.5 50.5t84.5 15.5zM574 -1q-8 0 -19 1q-10 0 -26 0.5t-38 0.5q-23 0 -38 -0.5t-25 -0.5q-11 -1 -18 -1l9 17q6 11 10.5 21.5t8 35
t5 70t1.5 127.5t-4 125.5t-18 66.5q-11 17 -32 31.5t-65 14.5q-42 0 -66 -10.5t-38 -22.5q-16 -15 -22 -33v-171q0 -82 1.5 -128t5 -70.5t8 -35t10.5 -21.5l9 -17q-7 0 -18 1q-10 0 -25.5 0.5t-37.5 0.5q-23 0 -38.5 -0.5t-25.5 -0.5q-11 -1 -19 -1l9 17q6 11 10.5 21.5
t8 35t5 70.5t1.5 128v31q0 65 -1.5 105t-5 64t-8 37t-10.5 24l-9 17l130 25l-4 -125q9 40 27 65.5t41 39.5t48.5 19t49.5 5q57 0 94.5 -19.5t57.5 -54.5q8 -16 13.5 -33.5t8.5 -41.5t4 -56t1 -76v-26q0 -82 1.5 -128t5 -70.5t8 -35t10.5 -21.5z" />
    <glyph glyph-name="napostrophe" unicode="&#x149;" horiz-adv-x="861" 
d="M192 661q0 -44 -14.5 -73.5t-36 -47.5t-47 -25.5t-46.5 -7.5q1 0 9 5.5t17.5 19t17 35.5t7.5 56q0 25 -7.5 43t-15.5 29q-10 13 -22 22l72 69q18 -10 33 -28q12 -15 22.5 -39t10.5 -58zM798 -1q-8 0 -19 1q-10 0 -26 0.5t-38 0.5q-23 0 -38 -0.5t-25 -0.5q-11 -1 -18 -1
l9 17q6 11 10.5 21.5t8 35t5 70t1.5 127.5t-4 125.5t-18 66.5q-11 17 -32 31.5t-65 14.5q-42 0 -66 -10.5t-38 -22.5q-16 -15 -22 -33v-171q0 -82 1.5 -128t5 -70.5t8 -35t10.5 -21.5l9 -17q-7 0 -18 1q-10 0 -25.5 0.5t-37.5 0.5q-23 0 -38.5 -0.5t-25.5 -0.5
q-11 -1 -19 -1l9 17q6 11 10.5 21.5t8 35t5 70.5t1.5 128v31q0 65 -1.5 105t-5 64t-8 37t-10.5 24l-9 17l130 25l-4 -125q9 40 27 65.5t41 39.5t48.5 19t49.5 5q57 0 94.5 -19.5t57.5 -54.5q8 -16 13.5 -33.5t8.5 -41.5t4 -56t1 -76v-26q0 -82 1.5 -128t5 -70.5t8 -35
t10.5 -21.5z" />
    <glyph glyph-name="Eng" unicode="&#x14a;" horiz-adv-x="732" 
d="M209 351q0 -109 1 -169.5t3.5 -92t7.5 -45t13 -28.5l9 -17q-8 0 -19 1q-10 0 -26 0.5t-38 0.5q-23 0 -38 -0.5t-26 -0.5q-12 -1 -20 -1l9 17q5 9 9 17.5t6.5 22t4.5 35t3 56.5t1.5 87t0.5 127v81q0 65 -1.5 105t-5 64t-8 37t-10.5 24l-9 17l138 25l-5 -126q11 37 33 62.5
t50 40.5t60 21.5t65 6.5q69 0 111.5 -18t65.5 -50q23 -30 31.5 -72t8.5 -106v-511q0 -32 -4 -63.5t-20.5 -56t-49 -40t-90.5 -15.5h-20q29 14 44.5 34.5t23 49.5t9 68t1.5 91v422q0 46 -5 82t-21 60.5t-46 37t-81 12.5q-49 0 -80.5 -11t-50.5 -24.5t-26.5 -26t-8.5 -14.5
v-217z" />
    <glyph glyph-name="eng" unicode="&#x14b;" horiz-adv-x="637" 
d="M540 -38q0 -32 -3 -63.5t-18 -56t-46.5 -40t-88.5 -15.5h-20q29 14 45 34.5t24 49.5t9.5 68t1.5 91v242q0 40 -1 70.5t-3 53.5t-6.5 39t-11.5 27q-11 17 -32 31.5t-65 14.5q-42 0 -66 -10.5t-38 -22.5q-16 -15 -22 -33v-171q0 -82 1.5 -128t5 -70.5t8 -35t10.5 -21.5
l9 -17q-7 0 -18 1q-10 0 -25.5 0.5t-37.5 0.5q-23 0 -38.5 -0.5t-25.5 -0.5q-11 -1 -19 -1l9 17q6 11 10.5 21.5t8 35t5 70.5t1.5 128v31q0 65 -1.5 105t-5 64t-8 37t-10.5 24l-9 17l130 25l-4 -125q9 40 27 65.5t41 39.5t48.5 19t49.5 5q57 0 94.5 -19.5t57.5 -54.5
q8 -16 13.5 -33.5t8.5 -41.5t4 -56t1 -76v-335z" />
    <glyph glyph-name="Omacron" unicode="&#x14c;" horiz-adv-x="756" 
d="M241 787v69h283v-69h-283zM589 354q0 84 -19 140t-49 90.5t-67 50.5t-72 22q-36 -6 -74 -23t-69.5 -52t-52 -90.5t-20.5 -137.5q0 -84 19 -140t49 -90.5t67 -50.5t73 -22q35 6 73 23t69.5 52t52 90.5t20.5 137.5zM699 355q0 -76 -23.5 -141t-66.5 -114t-102.5 -79.5
t-132.5 -36.5q-79 7 -138.5 38.5t-99 80t-59.5 112.5t-20 138q0 76 23.5 141.5t66 114t102.5 79t133 36.5q79 -8 138 -39t99 -79.5t60 -113t20 -137.5z" />
    <glyph glyph-name="omacron" unicode="&#x14d;" horiz-adv-x="635" 
d="M181 657v69h283v-69h-283zM476 283q0 66 -14.5 109t-37 69.5t-50 39.5t-54.5 18q-26 -5 -54.5 -18.5t-52.5 -41t-39.5 -70.5t-15.5 -107q0 -66 14.5 -109t37 -69.5t50 -39.5t54.5 -18q27 5 55.5 18.5t52 41t39 70.5t15.5 107zM582 283q0 -58 -18 -109.5t-52.5 -91.5
t-84 -65.5t-113.5 -30.5q-69 6 -119 32.5t-81.5 66.5t-46.5 91t-15 106q0 58 18 109.5t52.5 91.5t84 65.5t113.5 30.5q70 -6 119.5 -32.5t81 -67t46.5 -91t15 -105.5z" />
    <glyph glyph-name="Obreve" unicode="&#x14e;" horiz-adv-x="756" 
d="M238 919q26 -37 61.5 -63t83.5 -26q49 0 84 26t61 63q0 -35 -9.5 -64.5t-27.5 -51t-45 -34t-63 -12.5t-63 12.5t-45 34t-27.5 51t-9.5 64.5zM589 354q0 84 -19 140t-49 90.5t-67 50.5t-72 22q-36 -6 -74 -23t-69.5 -52t-52 -90.5t-20.5 -137.5q0 -84 19 -140t49 -90.5
t67 -50.5t73 -22q35 6 73 23t69.5 52t52 90.5t20.5 137.5zM699 355q0 -76 -23.5 -141t-66.5 -114t-102.5 -79.5t-132.5 -36.5q-79 7 -138.5 38.5t-99 80t-59.5 112.5t-20 138q0 76 23.5 141.5t66 114t102.5 79t133 36.5q79 -8 138 -39t99 -79.5t60 -113t20 -137.5z" />
    <glyph glyph-name="obreve" unicode="&#x14f;" horiz-adv-x="635" 
d="M476 283q0 66 -14.5 109t-37 69.5t-50 39.5t-54.5 18q-26 -5 -54.5 -18.5t-52.5 -41t-39.5 -70.5t-15.5 -107q0 -66 14.5 -109t37 -69.5t50 -39.5t54.5 -18q27 5 55.5 18.5t52 41t39 70.5t15.5 107zM582 283q0 -58 -18 -109.5t-52.5 -91.5t-84 -65.5t-113.5 -30.5
q-69 6 -119 32.5t-81.5 66.5t-46.5 91t-15 106q0 58 18 109.5t52.5 91.5t84 65.5t113.5 30.5q70 -6 119.5 -32.5t81 -67t46.5 -91t15 -105.5zM174 789q26 -37 61.5 -62.5t83.5 -25.5q49 0 84 25.5t61 62.5q0 -35 -9.5 -64t-27.5 -51t-45 -34t-63 -12t-63 12t-45 34t-27.5 51
t-9.5 64z" />
    <glyph glyph-name="Ohungarumlaut" unicode="&#x150;" horiz-adv-x="756" 
d="M589 354q0 84 -19 140t-49 90.5t-67 50.5t-72 22q-36 -6 -74 -23t-69.5 -52t-52 -90.5t-20.5 -137.5q0 -84 19 -140t49 -90.5t67 -50.5t73 -22q35 6 73 23t69.5 52t52 90.5t20.5 137.5zM699 355q0 -76 -23.5 -141t-66.5 -114t-102.5 -79.5t-132.5 -36.5
q-79 7 -138.5 38.5t-99 80t-59.5 112.5t-20 138q0 76 23.5 141.5t66 114t102.5 79t133 36.5q79 -8 138 -39t99 -79.5t60 -113t20 -137.5zM326 902h106q-4 -12 -15 -26q-9 -12 -24.5 -28.5t-40.5 -36.5q-23 -19 -42.5 -30t-34.5 -17q-18 -7 -32 -11zM502 902h107
q-4 -12 -15 -26q-9 -12 -24.5 -28.5t-40.5 -36.5q-23 -19 -43 -30t-35 -17q-18 -7 -32 -11z" />
    <glyph glyph-name="ohungarumlaut" unicode="&#x151;" horiz-adv-x="635" 
d="M256 772h106q-4 -12 -15 -26q-9 -12 -24.5 -28.5t-40.5 -36.5q-23 -19 -42.5 -30t-34.5 -17q-18 -7 -32 -10zM432 772h107q-4 -12 -15 -26q-9 -12 -24.5 -28.5t-40.5 -36.5q-23 -19 -43 -30t-35 -17q-18 -7 -32 -10zM476 283q0 66 -14.5 109t-37 69.5t-50 39.5t-54.5 18
q-26 -5 -54.5 -18.5t-52.5 -41t-39.5 -70.5t-15.5 -107q0 -66 14.5 -109t37 -69.5t50 -39.5t54.5 -18q27 5 55.5 18.5t52 41t39 70.5t15.5 107zM582 283q0 -58 -18 -109.5t-52.5 -91.5t-84 -65.5t-113.5 -30.5q-69 6 -119 32.5t-81.5 66.5t-46.5 91t-15 106q0 58 18 109.5
t52.5 91.5t84 65.5t113.5 30.5q70 -6 119.5 -32.5t81 -67t46.5 -91t15 -105.5z" />
    <glyph glyph-name="OE" unicode="&#x152;" horiz-adv-x="967" 
d="M910 147q-1 -11 -3 -28q-2 -14 -4 -36.5t-4 -52.5l-2 -30h-389q-15 -3 -33 -5q-16 -2 -38 -3.5t-48 -1.5q-96 0 -159.5 29.5t-102 78.5t-54.5 112t-16 129q0 41 5.5 85t19.5 86.5t38 81t62 67.5t91 46t125 17q22 0 42.5 -1.5t35.5 -3.5q18 -3 33 -5h378q-1 -6 -1 -13v-39
q0 -30 1.5 -44.5t1.5 -16.5q-1 1 -8 7.5t-28 19.5q-38 22 -110 22h-133v-259h109q35 0 63.5 4t46.5 15q20 11 27 17.5t9 8.5q0 -1 -1.5 -21.5t-1.5 -56.5q0 -35 1.5 -55t1.5 -22q-1 1 -8 7.5t-28 19.5q-18 11 -46.5 15t-63.5 4h-109v-261h123q46 0 74.5 5.5t46.5 16t30 26
t26 35.5zM512 642q-13 3 -31 7q-15 2 -36.5 4.5t-48.5 2.5q-42 0 -79.5 -10.5t-62.5 -32.5q-38 -32 -62 -95t-24 -166q0 -93 17.5 -148.5t49.5 -89.5q29 -32 69.5 -45t91.5 -13q28 0 49.5 2t36.5 4q18 3 30 7v573z" />
    <glyph glyph-name="oe" unicode="&#x153;" horiz-adv-x="962" 
d="M467 283q0 51 -8 93t-26 73t-48 48t-73 17q-81 0 -117.5 -59.5t-36.5 -172.5q0 -51 8 -93t26.5 -73t48 -48t73.5 -17q81 0 117 59t36 173zM917 404q0 -45 -13.5 -76.5t-37 -51.5t-53.5 -29.5t-63 -9.5q-35 0 -58 7.5t-37 18t-20 22t-6 18.5q7 -2 18 -4q9 -2 23 -3t34 -1
q63 0 87.5 30t24.5 79q0 61 -33 87.5t-83 26.5q-40 0 -66.5 -15t-42 -43.5t-22 -71t-6.5 -97.5q0 -48 8 -91t28.5 -76t54.5 -52.5t86 -19.5q34 0 58.5 6t42 15.5t31 22.5t26.5 27v-92q-14 -12 -38 -21q-20 -8 -53 -14.5t-81 -6.5q-66 0 -106.5 15.5t-64.5 35.5
q-28 22 -42 51q-16 -29 -44 -52q-24 -20 -63.5 -36t-99.5 -16q-64 0 -112 22t-79.5 60.5t-47 91t-15.5 114.5q0 27 4 59.5t15 66.5t30 65.5t48.5 56.5t71 40t97.5 15t94.5 -16t61.5 -35q27 -22 44 -50q16 28 42 50q22 19 57 35t85 16q69 0 111 -19t65 -46t31 -57t8 -52z" />
    <glyph glyph-name="Racute" unicode="&#x154;" horiz-adv-x="602" 
d="M575 -1q-9 0 -20 1q-10 0 -24 0.5t-31 0.5q-19 0 -32 -0.5t-22 -0.5q-11 -1 -18 -1q2 3 5 7q2 4 3.5 9.5t1.5 13.5q0 49 -15 102t-41.5 99t-61.5 80t-75 45q32 3 63.5 11t56.5 26t40.5 49t15.5 79q0 44 -13 70.5t-35 40.5t-52 18t-64 4q-11 0 -19.5 -0.5t-15.5 -0.5
q-8 -1 -15 -1v-330q0 -94 1 -148t3.5 -84t7.5 -44t13 -29l9 -17q-8 0 -19 1q-10 0 -25.5 0.5t-37.5 0.5t-37.5 -0.5t-25.5 -0.5q-12 -1 -20 -1l9 17q5 9 8.5 17t6.5 21.5t5 35t3 57t1.5 87.5t0.5 127q0 109 -1 169.5t-3.5 92t-7.5 45t-13 28.5l-9 17q9 -1 20 -1
q9 -1 21.5 -1h28.5q22 0 52.5 1t53.5 1q55 0 105 -5.5t88 -24.5t61 -55.5t23 -97.5q0 -17 -4.5 -44t-20 -55t-45.5 -51.5t-81 -32.5q39 -15 66 -43.5t45 -63.5t29 -72.5t19 -70t14.5 -57t15.5 -33.5zM317 902h106q-4 -12 -15 -26q-9 -12 -24.5 -28.5t-40.5 -36.5
q-23 -19 -42.5 -30t-34.5 -17q-18 -7 -32 -11z" />
    <glyph glyph-name="racute" unicode="&#x155;" horiz-adv-x="407" 
d="M262 772h106q-4 -12 -15 -26q-9 -12 -24.5 -28.5t-40.5 -36.5q-23 -19 -42.5 -30t-34.5 -17q-18 -7 -32 -10zM405 430q-11 17 -22 32t-24.5 25.5t-31 16.5t-40.5 6q-20 0 -35.5 -5t-27.5 -11q-14 -7 -25 -15v-208q0 -82 2 -128t5 -70.5t7.5 -35t10.5 -21.5l10 -17
q-8 0 -19 1q-10 0 -25.5 0.5t-37.5 0.5q-23 0 -38.5 -0.5t-25.5 -0.5q-11 -1 -19 -1l9 17q6 11 10.5 21.5t8 35t5 70.5t1.5 128v36q0 81 -1.5 133t-3.5 83q-2 36 -4 55l89 -42q7 4 19.5 11.5t29.5 14.5t39.5 12t51.5 5q20 0 35.5 -3t26.5 -6q12 -4 21 -9q-1 -7 -1 -17
q-1 -8 -1 -20v-26v-50q0 -11 1 -18z" />
    <glyph glyph-name="Rcommaaccent" unicode="&#x156;" horiz-adv-x="602" 
d="M378 -110q0 -22 -8.5 -42t-24 -36.5t-37.5 -28t-50 -15.5q1 0 8 6t15.5 16.5t15 24.5t6.5 31q0 16 -5.5 25t-12.5 14q-8 5 -18 7v17q0 47 50 55q26 -5 43.5 -22t17.5 -52zM575 -1q-9 0 -20 1q-10 0 -24 0.5t-31 0.5q-19 0 -32 -0.5t-22 -0.5q-11 -1 -18 -1q2 3 5 7
q2 4 3.5 9.5t1.5 13.5q0 49 -15 102t-41.5 99t-61.5 80t-75 45q32 3 63.5 11t56.5 26t40.5 49t15.5 79q0 44 -13 70.5t-35 40.5t-52 18t-64 4q-11 0 -19.5 -0.5t-15.5 -0.5q-8 -1 -15 -1v-330q0 -94 1 -148t3.5 -84t7.5 -44t13 -29l9 -17q-8 0 -19 1q-10 0 -25.5 0.5
t-37.5 0.5t-37.5 -0.5t-25.5 -0.5q-12 -1 -20 -1l9 17q5 9 8.5 17t6.5 21.5t5 35t3 57t1.5 87.5t0.5 127q0 109 -1 169.5t-3.5 92t-7.5 45t-13 28.5l-9 17q9 -1 20 -1q9 -1 21.5 -1h28.5q22 0 52.5 1t53.5 1q55 0 105 -5.5t88 -24.5t61 -55.5t23 -97.5q0 -17 -4.5 -44
t-20 -55t-45.5 -51.5t-81 -32.5q39 -15 66 -43.5t45 -63.5t29 -72.5t19 -70t14.5 -57t15.5 -33.5z" />
    <glyph glyph-name="rcommaaccent" unicode="&#x157;" horiz-adv-x="407" 
d="M212 -110q0 -22 -8.5 -42t-24 -36.5t-37.5 -28t-50 -15.5q1 0 8 6t15.5 16.5t15 24.5t6.5 31q0 16 -5.5 25t-12.5 14q-8 5 -18 7v17q0 47 50 55q26 -5 43.5 -22t17.5 -52zM405 430q-11 17 -22 32t-24.5 25.5t-31 16.5t-40.5 6q-20 0 -35.5 -5t-27.5 -11q-14 -7 -25 -15
v-208q0 -82 2 -128t5 -70.5t7.5 -35t10.5 -21.5l10 -17q-8 0 -19 1q-10 0 -25.5 0.5t-37.5 0.5q-23 0 -38.5 -0.5t-25.5 -0.5q-11 -1 -19 -1l9 17q6 11 10.5 21.5t8 35t5 70.5t1.5 128v36q0 81 -1.5 133t-3.5 83q-2 36 -4 55l89 -42q7 4 19.5 11.5t29.5 14.5t39.5 12t51.5 5
q20 0 35.5 -3t26.5 -6q12 -4 21 -9q-1 -7 -1 -17q-1 -8 -1 -20v-26v-50q0 -11 1 -18z" />
    <glyph glyph-name="Rcaron" unicode="&#x158;" horiz-adv-x="602" 
d="M439 915q-41 -38 -74.5 -77.5t-65.5 -85.5h-14l-79 77q-8 8 -24.5 23t-27.5 23l65 50q7 -11 16 -23.5t17 -23.5l29 -39q12 15 29 29.5t37 25t43 16.5t49 5zM575 -1q-9 0 -20 1q-10 0 -24 0.5t-31 0.5q-19 0 -32 -0.5t-22 -0.5q-11 -1 -18 -1q2 3 5 7q2 4 3.5 9.5
t1.5 13.5q0 49 -15 102t-41.5 99t-61.5 80t-75 45q32 3 63.5 11t56.5 26t40.5 49t15.5 79q0 44 -13 70.5t-35 40.5t-52 18t-64 4q-11 0 -19.5 -0.5t-15.5 -0.5q-8 -1 -15 -1v-330q0 -94 1 -148t3.5 -84t7.5 -44t13 -29l9 -17q-8 0 -19 1q-10 0 -25.5 0.5t-37.5 0.5
t-37.5 -0.5t-25.5 -0.5q-12 -1 -20 -1l9 17q5 9 8.5 17t6.5 21.5t5 35t3 57t1.5 87.5t0.5 127q0 109 -1 169.5t-3.5 92t-7.5 45t-13 28.5l-9 17q9 -1 20 -1q9 -1 21.5 -1h28.5q22 0 52.5 1t53.5 1q55 0 105 -5.5t88 -24.5t61 -55.5t23 -97.5q0 -17 -4.5 -44t-20 -55
t-45.5 -51.5t-81 -32.5q39 -15 66 -43.5t45 -63.5t29 -72.5t19 -70t14.5 -57t15.5 -33.5z" />
    <glyph glyph-name="rcaron" unicode="&#x159;" horiz-adv-x="407" 
d="M374 772q-20 -20 -36.5 -37t-31.5 -34.5t-29.5 -36.5t-29.5 -41h-16l-67 63q-9 8 -25 23t-27 23l62 50q15 -26 34 -47l25 -29q24 30 56.5 50.5t84.5 15.5zM405 430q-11 17 -22 32t-24.5 25.5t-31 16.5t-40.5 6q-20 0 -35.5 -5t-27.5 -11q-14 -7 -25 -15v-208
q0 -82 2 -128t5 -70.5t7.5 -35t10.5 -21.5l10 -17q-8 0 -19 1q-10 0 -25.5 0.5t-37.5 0.5q-23 0 -38.5 -0.5t-25.5 -0.5q-11 -1 -19 -1l9 17q6 11 10.5 21.5t8 35t5 70.5t1.5 128v36q0 81 -1.5 133t-3.5 83q-2 36 -4 55l89 -42q7 4 19.5 11.5t29.5 14.5t39.5 12t51.5 5
q20 0 35.5 -3t26.5 -6q12 -4 21 -9q-1 -7 -1 -17q-1 -8 -1 -20v-26v-50q0 -11 1 -18z" />
    <glyph glyph-name="Sacute" unicode="&#x15a;" horiz-adv-x="516" 
d="M463 173q0 -39 -13 -72t-40 -57t-69.5 -37.5t-101.5 -13.5q-44 0 -75.5 4.5t-51.5 9.5q-24 6 -40 15q0 7 1 16q0 8 0.5 19t0.5 26t-0.5 28.5t-0.5 24.5q-1 12 -1 22q16 -23 32 -41t34.5 -31t42 -20t55.5 -7q17 0 39.5 2.5t42.5 12.5t34 30t14 56q0 17 -3.5 32t-12.5 29
t-25 28.5t-41 30.5l-80 47q-30 18 -56.5 36.5t-46 42t-30.5 54.5t-11 74q0 36 12 69.5t39 59t70.5 41t106.5 15.5q44 0 76.5 -5t53.5 -10q25 -7 42 -15q-1 -7 -1 -17q-1 -8 -1 -20v-27v-29t1 -22q0 -11 1 -20q-20 29 -39.5 48t-40.5 30.5t-44 16t-50 4.5q-58 0 -94.5 -25
t-36.5 -83q0 -26 8.5 -45t22 -34t31 -26.5t35.5 -22.5l65 -39q35 -21 62.5 -40.5t46 -42.5t28 -52t9.5 -70zM294 902h106q-4 -12 -15 -26q-9 -12 -24.5 -28.5t-40.5 -36.5q-23 -19 -42.5 -30t-34.5 -17q-18 -7 -32 -11z" />
    <glyph glyph-name="sacute" unicode="&#x15b;" horiz-adv-x="468" 
d="M265 772h106q-4 -12 -15 -26q-9 -12 -24.5 -28.5t-40.5 -36.5q-23 -19 -42.5 -30t-34.5 -17q-18 -7 -32 -10zM403 145q0 -40 -13.5 -68.5t-37.5 -46.5t-58 -26.5t-74 -8.5q-35 0 -61.5 4.5t-44.5 10.5q-21 6 -36 15q0 5 1 14q0 8 0.5 19t0.5 26q0 14 -0.5 26t-0.5 21
q-1 10 -1 18q14 -21 28 -38.5t30.5 -30.5t36.5 -20t46 -7q11 0 27.5 1.5t31.5 9t25.5 22.5t10.5 41q0 33 -20.5 52t-58.5 41l-69 40q-23 13 -42.5 28t-33.5 33t-21.5 41t-7.5 52q0 27 8.5 56t31 52.5t60.5 39t97 15.5q35 0 62.5 -5t47.5 -11q22 -7 39 -15q-1 -6 -1 -15
q-1 -8 -1 -18.5v-25.5v-26.5t1 -21.5q0 -11 1 -19q-14 22 -28.5 39.5t-31.5 30t-38.5 19.5t-49.5 7q-32 0 -52.5 -7.5t-32 -19t-15.5 -26.5t-4 -30q0 -32 15 -51t44 -36l89 -52q15 -8 32.5 -19t32.5 -28.5t25 -42t10 -59.5z" />
    <glyph glyph-name="Scircumflex" unicode="&#x15c;" horiz-adv-x="516" 
d="M463 173q0 -39 -13 -72t-40 -57t-69.5 -37.5t-101.5 -13.5q-44 0 -75.5 4.5t-51.5 9.5q-24 6 -40 15q0 7 1 16q0 8 0.5 19t0.5 26t-0.5 28.5t-0.5 24.5q-1 12 -1 22q16 -23 32 -41t34.5 -31t42 -20t55.5 -7q17 0 39.5 2.5t42.5 12.5t34 30t14 56q0 17 -3.5 32t-12.5 29
t-25 28.5t-41 30.5l-80 47q-30 18 -56.5 36.5t-46 42t-30.5 54.5t-11 74q0 36 12 69.5t39 59t70.5 41t106.5 15.5q44 0 76.5 -5t53.5 -10q25 -7 42 -15q-1 -7 -1 -17q-1 -8 -1 -20v-27v-29t1 -22q0 -11 1 -20q-20 29 -39.5 48t-40.5 30.5t-44 16t-50 4.5q-58 0 -94.5 -25
t-36.5 -83q0 -26 8.5 -45t22 -34t31 -26.5t35.5 -22.5l65 -39q35 -21 62.5 -40.5t46 -42.5t28 -52t9.5 -70zM435 752q-47 3 -93 23t-72 52q-35 -38 -79 -55.5t-86 -19.5l136 150h59z" />
    <glyph glyph-name="scircumflex" unicode="&#x15d;" horiz-adv-x="468" 
d="M405 623q-47 2 -93 22t-72 52q-35 -38 -79 -55t-86 -19l136 149h59zM403 145q0 -40 -13.5 -68.5t-37.5 -46.5t-58 -26.5t-74 -8.5q-35 0 -61.5 4.5t-44.5 10.5q-21 6 -36 15q0 5 1 14q0 8 0.5 19t0.5 26q0 14 -0.5 26t-0.5 21q-1 10 -1 18q14 -21 28 -38.5t30.5 -30.5
t36.5 -20t46 -7q11 0 27.5 1.5t31.5 9t25.5 22.5t10.5 41q0 33 -20.5 52t-58.5 41l-69 40q-23 13 -42.5 28t-33.5 33t-21.5 41t-7.5 52q0 27 8.5 56t31 52.5t60.5 39t97 15.5q35 0 62.5 -5t47.5 -11q22 -7 39 -15q-1 -6 -1 -15q-1 -8 -1 -18.5v-25.5v-26.5t1 -21.5
q0 -11 1 -19q-14 22 -28.5 39.5t-31.5 30t-38.5 19.5t-49.5 7q-32 0 -52.5 -7.5t-32 -19t-15.5 -26.5t-4 -30q0 -32 15 -51t44 -36l89 -52q15 -8 32.5 -19t32.5 -28.5t25 -42t10 -59.5z" />
    <glyph glyph-name="Scedilla" unicode="&#x15e;" horiz-adv-x="516" 
d="M463 173q0 -74 -46 -123t-149 -56l-4 -10t-2 -9q0 -9 6.5 -15t17.5 -13l12 -9q5 -3 12.5 -8.5t14 -13t11 -18.5t4.5 -25q0 -27 -15 -44.5t-37.5 -27t-47.5 -12.5t-45 -1q4 1 15 7.5t22.5 16.5t20 23t8.5 28t-5.5 25t-16.5 25l-6 8q-6 8 -10.5 16.5t-4.5 20.5q0 18 12 35
q-42 1 -71 5.5t-49 9.5q-23 6 -38 14q0 7 1 16q0 8 0.5 19t0.5 26t-0.5 28.5t-0.5 24.5q-1 12 -1 22q16 -23 32 -41t34.5 -31t42 -20t55.5 -7q17 0 39.5 2.5t42.5 12.5t34 30t14 56q0 17 -3.5 32t-12.5 29t-25 28.5t-41 30.5l-80 47q-30 18 -56.5 36.5t-46 42t-30.5 54.5
t-11 74q0 36 12 69.5t39 59t70.5 41t106.5 15.5q44 0 76.5 -5t53.5 -10q25 -7 42 -15q-1 -7 -1 -17q-1 -8 -1 -20v-27v-29t1 -22q0 -11 1 -20q-20 29 -39.5 48t-40.5 30.5t-44 16t-50 4.5q-58 0 -94.5 -25t-36.5 -83q0 -26 8.5 -45t22 -34t31 -26.5t35.5 -22.5l65 -39
q35 -21 62.5 -40.5t46 -42.5t28 -52t9.5 -70z" />
    <glyph glyph-name="scedilla" unicode="&#x15f;" horiz-adv-x="468" 
d="M403 145q0 -72 -42.5 -107.5t-111.5 -40.5q-7 -14 -7 -22q0 -9 6.5 -15t17.5 -13l12 -9q5 -3 12.5 -8.5t14 -13t11 -18.5t4.5 -25q0 -27 -15 -44.5t-37.5 -27t-47.5 -12.5t-45 -1q4 1 15 7.5t22.5 16.5t20 23t8.5 28t-5.5 25t-16.5 25l-6 8q-6 8 -10.5 16.5t-4.5 20.5
q0 10 4 19.5t9 17.5q-32 1 -57 6t-42 10q-20 6 -34 14q0 5 1 14q0 8 0.5 19t0.5 26q0 14 -0.5 26t-0.5 21q-1 10 -1 18q14 -21 28 -38.5t30.5 -30.5t36.5 -20t46 -7q11 0 27.5 1.5t31.5 9t25.5 22.5t10.5 41q0 33 -20.5 52t-58.5 41l-69 40q-23 13 -42.5 28t-33.5 33
t-21.5 41t-7.5 52q0 27 8.5 56t31 52.5t60.5 39t97 15.5q35 0 62.5 -5t47.5 -11q22 -7 39 -15q-1 -6 -1 -15q-1 -8 -1 -18.5v-25.5v-26.5t1 -21.5q0 -11 1 -19q-14 22 -28.5 39.5t-31.5 30t-38.5 19.5t-49.5 7q-32 0 -52.5 -7.5t-32 -19t-15.5 -26.5t-4 -30q0 -32 15 -51
t44 -36l89 -52q15 -8 32.5 -19t32.5 -28.5t25 -42t10 -59.5z" />
    <glyph glyph-name="Scaron" unicode="&#x160;" horiz-adv-x="516" 
d="M463 173q0 -39 -13 -72t-40 -57t-69.5 -37.5t-101.5 -13.5q-44 0 -75.5 4.5t-51.5 9.5q-24 6 -40 15q0 7 1 16q0 8 0.5 19t0.5 26t-0.5 28.5t-0.5 24.5q-1 12 -1 22q16 -23 32 -41t34.5 -31t42 -20t55.5 -7q17 0 39.5 2.5t42.5 12.5t34 30t14 56q0 17 -3.5 32t-12.5 29
t-25 28.5t-41 30.5l-80 47q-30 18 -56.5 36.5t-46 42t-30.5 54.5t-11 74q0 36 12 69.5t39 59t70.5 41t106.5 15.5q44 0 76.5 -5t53.5 -10q25 -7 42 -15q-1 -7 -1 -17q-1 -8 -1 -20v-27v-29t1 -22q0 -11 1 -20q-20 29 -39.5 48t-40.5 30.5t-44 16t-50 4.5q-58 0 -94.5 -25
t-36.5 -83q0 -26 8.5 -45t22 -34t31 -26.5t35.5 -22.5l65 -39q35 -21 62.5 -40.5t46 -42.5t28 -52t9.5 -70zM423 915q-41 -38 -74.5 -77.5t-65.5 -85.5h-14l-79 77q-8 8 -24.5 23t-27.5 23l65 50q7 -11 16 -23.5t17 -23.5l29 -39q12 15 29 29.5t37 25t43 16.5t49 5z" />
    <glyph glyph-name="scaron" unicode="&#x161;" horiz-adv-x="468" 
d="M384 772q-20 -20 -36.5 -37t-31.5 -34.5t-29.5 -36.5t-29.5 -41h-16l-67 63q-9 8 -25 23t-27 23l62 50q15 -26 34 -47l25 -29q24 30 56.5 50.5t84.5 15.5zM403 145q0 -40 -13.5 -68.5t-37.5 -46.5t-58 -26.5t-74 -8.5q-35 0 -61.5 4.5t-44.5 10.5q-21 6 -36 15q0 5 1 14
q0 8 0.5 19t0.5 26q0 14 -0.5 26t-0.5 21q-1 10 -1 18q14 -21 28 -38.5t30.5 -30.5t36.5 -20t46 -7q11 0 27.5 1.5t31.5 9t25.5 22.5t10.5 41q0 33 -20.5 52t-58.5 41l-69 40q-23 13 -42.5 28t-33.5 33t-21.5 41t-7.5 52q0 27 8.5 56t31 52.5t60.5 39t97 15.5q35 0 62.5 -5
t47.5 -11q22 -7 39 -15q-1 -6 -1 -15q-1 -8 -1 -18.5v-25.5v-26.5t1 -21.5q0 -11 1 -19q-14 22 -28.5 39.5t-31.5 30t-38.5 19.5t-49.5 7q-32 0 -52.5 -7.5t-32 -19t-15.5 -26.5t-4 -30q0 -32 15 -51t44 -36l89 -52q15 -8 32.5 -19t32.5 -28.5t25 -42t10 -59.5z" />
    <glyph glyph-name="Tcommaaccent" unicode="&#x162;" horiz-adv-x="541" 
d="M528 660q0 -30 1.5 -44.5t1.5 -16.5q-1 1 -8 7.5t-28 19.5q-18 11 -46.5 17.5t-63.5 6.5h-65v-299q0 -109 1 -169.5t3.5 -92t7.5 -45t13 -28.5l9 -17q-7 1 -17 1h-21.5t-30.5 1q-4 -6 -7 -13.5t-3 -12.5q0 -9 6.5 -15t17.5 -13l12 -9q5 -3 12.5 -8.5t14 -13t11 -18.5
t4.5 -25q0 -27 -15 -44.5t-37.5 -27t-47.5 -12.5t-45 -1q4 1 15 7.5t22.5 16.5t20 23t8.5 28t-5.5 25t-16.5 25l-6 8q-6 8 -10.5 16.5t-4.5 20.5t5.5 23.5t11.5 19.5q-16 -1 -27 -1h-19q-9 0 -15 -1l9 17q5 9 9 17.5t6.5 22t4.5 35t3 56.5t1.5 87t0.5 127v289h-65
q-35 0 -63.5 -6.5t-46.5 -17.5q-19 -11 -27 -18t-9 -9q0 2 1.5 17t1.5 44q0 14 -0.5 23t-0.5 16v13h517q-1 -6 -1 -13v-39z" />
    <glyph glyph-name="tcommaaccent" unicode="&#x163;" horiz-adv-x="374" 
d="M362 80q0 -3 -3 -17t-15 -29.5t-36.5 -28.5t-67.5 -15q-4 -10 -4 -15q0 -9 6.5 -15t17.5 -13l12 -9q5 -3 12.5 -8.5t14 -13t11 -18.5t4.5 -25q0 -27 -15 -44.5t-37.5 -27t-47.5 -12.5t-45 -1q4 1 15 7.5t22.5 16.5t20 23t8.5 28t-5.5 25t-16.5 25l-6 8q-6 8 -10.5 16.5
t-4.5 20.5q0 9 3 17.5t8 16.5q-33 4 -53 17.5t-31 31.5q-12 19 -17.5 47t-5.5 83v158t1 102q1 45 2 72h-64q2 1 22.5 22t46.5 62q14 21 23.5 39t16.5 32q8 16 13 30h38v-125h66q31 0 50 1.5t30 3.5q12 3 18 6q-1 -4 -1 -10v-31v-30q0 -6 1 -10q-6 2 -18 5q-11 2 -30 3.5
t-50 1.5h-66v-337q0 -34 3 -50t10 -30q8 -17 24.5 -26.5t45.5 -9.5q21 0 36.5 4.5t26.5 10.5q12 6 21 15z" />
    <glyph glyph-name="Tcaron" unicode="&#x164;" horiz-adv-x="541" 
d="M413 915q-41 -38 -74.5 -77.5t-65.5 -85.5h-14l-79 77q-8 8 -24.5 23t-27.5 23l65 50q7 -11 16 -23.5t17 -23.5l29 -39q12 15 29 29.5t37 25t43 16.5t49 5zM528 660q0 -30 1.5 -44.5t1.5 -16.5q-1 1 -8 7.5t-28 19.5q-18 11 -46.5 17.5t-63.5 6.5h-65v-299
q0 -109 1 -169.5t3.5 -92t7.5 -45t13 -28.5l9 -17q-8 0 -19 1q-10 0 -26 0.5t-38 0.5q-23 0 -38 -0.5t-26 -0.5q-12 -1 -20 -1l9 17q5 9 9 17.5t6.5 22t4.5 35t3 56.5t1.5 87t0.5 127v289h-65q-35 0 -63.5 -6.5t-46.5 -17.5q-20 -12 -27.5 -18.5t-8.5 -8.5q0 1 1.5 16
t1.5 45q0 14 -0.5 23t-0.5 16v13h517q-1 -6 -1 -13v-39z" />
    <glyph glyph-name="tcaron" unicode="&#x165;" horiz-adv-x="374" 
d="M241 598q7 27 10 55.5t3 55t-2 49.5t-5 40l92 11q6 -63 -16 -118.5t-82 -92.5zM362 80q0 -3 -3 -17.5t-16 -30.5t-39.5 -29t-74.5 -13q-45 0 -70.5 15t-39.5 36q-12 19 -17.5 47t-5.5 83v158t1 102q1 45 2 72h-64q2 1 22.5 22t46.5 62q14 21 23.5 39t16.5 32q8 16 13 30
h38v-125h66q31 0 50 1.5t30 3.5q12 3 18 6q-1 -4 -1 -10v-31v-30q0 -6 1 -10q-6 2 -18 5q-11 2 -30 3.5t-50 1.5h-66v-337q0 -34 3 -50t10 -30q8 -17 24.5 -26.5t45.5 -9.5q21 0 36.5 4.5t26.5 10.5q12 6 21 15z" />
    <glyph glyph-name="Tbar" unicode="&#x166;" horiz-adv-x="541" 
d="M528 660q0 -30 1.5 -44.5t1.5 -16.5q-1 1 -8 7.5t-28 19.5q-18 11 -46.5 17.5t-63.5 6.5h-65v-259h28q29 0 47.5 2t29.5 4q13 3 21 6q-1 -5 -1 -11v-30v-31q0 -6 1 -10q-8 3 -21 6q-11 2 -29.5 4t-47.5 2h-28q0 -68 0.5 -115t1.5 -79t2.5 -51.5t4.5 -32t7 -21t9 -18.5
l9 -17q-8 0 -19 1q-10 0 -26 0.5t-38 0.5q-23 0 -38 -0.5t-26 -0.5q-12 -1 -20 -1l9 17q5 9 8.5 17t6 21t4.5 32.5t3 52t2 79.5t1 115h-31q-29 0 -48 -2t-30 -4q-13 -3 -20 -6v10q0 5 0.5 12.5t0.5 18.5q0 10 -0.5 17.5t-0.5 12.5v11q7 -3 20 -6q11 -2 30 -4t48 -2h31v259
h-65q-35 0 -63.5 -6.5t-46.5 -17.5q-19 -11 -27 -18t-9 -9q0 2 1.5 17t1.5 44q0 14 -0.5 23t-0.5 16v13h517q-1 -6 -1 -13v-39z" />
    <glyph glyph-name="tbar" unicode="&#x167;" horiz-adv-x="374" 
d="M362 80q0 -3 -3 -17.5t-16 -30.5t-39.5 -29t-74.5 -13q-45 0 -70.5 15t-39.5 36q-12 19 -17.5 47t-5.5 83v112q-32 -3 -46 -6l-12 -3v9q0 5 0.5 11.5t0.5 15.5q0 8 -0.5 15t-0.5 12v10q5 -2 13 -4q7 -2 17.5 -3t27.5 -2q0 45 0.5 76t1.5 51q1 23 1 38h-64q2 1 22.5 22
t46.5 62q14 21 23.5 39t16.5 32q8 16 13 30h38v-125h66q31 0 50 1.5t30 3.5q12 3 18 6q-1 -4 -1 -10v-31v-30q0 -6 1 -10q-6 2 -18 5q-11 2 -30 3.5t-50 1.5h-66v-166h40q27 0 45 1.5t29 3.5q12 2 20 5q-1 -5 -1 -10v-27v-27q0 -5 1 -9l-20 5q-11 2 -29 3.5t-45 1.5h-40
v-118q0 -34 3 -50t10 -30q8 -17 24.5 -26.5t45.5 -9.5q21 0 36.5 4.5t26.5 10.5q12 6 21 15z" />
    <glyph glyph-name="Utilde" unicode="&#x168;" horiz-adv-x="728" 
d="M469 838q15 0 28 7t22.5 15t15 15.5t6.5 9.5q0 -55 -23.5 -84t-62.5 -29q-15 0 -28 3.5t-23 6.5l-59 21q-13 5 -20.5 6.5t-20.5 1.5q-15 0 -28 -7t-22.5 -15.5t-15 -16t-6.5 -9.5q0 56 24 85t62 29q15 0 28 -3t23 -7l59 -21q13 -5 20.5 -6.5t20.5 -1.5zM648 697
q-5 -9 -9 -17.5t-6.5 -22t-4.5 -34.5t-3 -56.5t-1.5 -87.5t-0.5 -127q0 -89 2 -143.5t5 -85.5t7.5 -45t9.5 -22q-29 -19 -69 -34q-34 -13 -82.5 -23t-111.5 -10q-99 0 -156 26t-85 71.5t-35 107.5t-7 134q0 95 4 165.5t4 116.5q0 28 -6 51t-32 37q7 3 18 7q8 3 20 5.5
t26 2.5q28 0 44.5 -6t25 -17t10.5 -25.5t2 -30.5q0 -13 -2 -45.5t-4 -72.5t-4 -82.5t-2 -75.5q0 -66 4 -121t22 -95.5t54.5 -63t101.5 -22.5q38 0 64 3t42 8q18 4 30 11v298q0 103 -1 160.5t-3.5 88.5t-7.5 44t-13 28l-9 17q8 -1 20 -1q11 -1 26 -1h38h37.5t26.5 1
q12 0 20 1z" />
    <glyph glyph-name="utilde" unicode="&#x169;" horiz-adv-x="622" 
d="M546 38q-26 -15 -59 -26q-29 -10 -70.5 -17.5t-94.5 -7.5q-86 0 -133.5 23.5t-70 63t-27.5 92t-5 110.5q0 33 1 60t2.5 52t2.5 49.5t1 51.5q0 20 -4.5 38t-29.5 29q5 4 14 8q8 3 20 6t31 3q25 0 39 -6t21 -16t9 -22t2 -25q0 -17 -1.5 -44t-3.5 -57.5t-3.5 -61t-1.5 -54.5
q0 -53 3 -96t16.5 -74.5t42.5 -48.5t80 -17q26 0 46 2t33 5q15 3 25 7v237q0 65 -1 105t-3.5 64t-6.5 37t-10 24l-9 17l134 25q-2 -28 -4 -68q-2 -35 -3 -88.5t-1 -126.5q0 -79 1.5 -126t4 -73t6 -37t7.5 -17zM411 707q15 0 28 7t22.5 15t15 15.5t6.5 9.5q0 -54 -23.5 -83
t-62.5 -29q-15 0 -28 3t-23 7l-59 21q-13 5 -20.5 6.5t-20.5 1.5q-15 0 -28 -7t-22.5 -15.5t-15 -16t-6.5 -9.5q0 56 24 84.5t62 28.5q15 0 28 -3t23 -7l59 -21q13 -4 20.5 -6t20.5 -2z" />
    <glyph glyph-name="Umacron" unicode="&#x16a;" horiz-adv-x="728" 
d="M238 787v69h283v-69h-283zM648 697q-5 -9 -9 -17.5t-6.5 -22t-4.5 -34.5t-3 -56.5t-1.5 -87.5t-0.5 -127q0 -89 2 -143.5t5 -85.5t7.5 -45t9.5 -22q-29 -19 -69 -34q-34 -13 -82.5 -23t-111.5 -10q-99 0 -156 26t-85 71.5t-35 107.5t-7 134q0 95 4 165.5t4 116.5
q0 28 -6 51t-32 37q7 3 18 7q8 3 20 5.5t26 2.5q28 0 44.5 -6t25 -17t10.5 -25.5t2 -30.5q0 -13 -2 -45.5t-4 -72.5t-4 -82.5t-2 -75.5q0 -66 4 -121t22 -95.5t54.5 -63t101.5 -22.5q38 0 64 3t42 8q18 4 30 11v298q0 103 -1 160.5t-3.5 88.5t-7.5 44t-13 28l-9 17
q8 -1 20 -1q11 -1 26 -1h38h37.5t26.5 1q12 0 20 1z" />
    <glyph glyph-name="umacron" unicode="&#x16b;" horiz-adv-x="622" 
d="M546 38q-26 -15 -59 -26q-29 -10 -70.5 -17.5t-94.5 -7.5q-86 0 -133.5 23.5t-70 63t-27.5 92t-5 110.5q0 33 1 60t2.5 52t2.5 49.5t1 51.5q0 20 -4.5 38t-29.5 29q5 4 14 8q8 3 20 6t31 3q25 0 39 -6t21 -16t9 -22t2 -25q0 -17 -1.5 -44t-3.5 -57.5t-3.5 -61t-1.5 -54.5
q0 -53 3 -96t16.5 -74.5t42.5 -48.5t80 -17q26 0 46 2t33 5q15 3 25 7v237q0 65 -1 105t-3.5 64t-6.5 37t-10 24l-9 17l134 25q-2 -28 -4 -68q-2 -35 -3 -88.5t-1 -126.5q0 -79 1.5 -126t4 -73t6 -37t7.5 -17zM182 657v69h283v-69h-283z" />
    <glyph glyph-name="Ubreve" unicode="&#x16c;" horiz-adv-x="728" 
d="M233 919q26 -37 61.5 -63t83.5 -26q49 0 84 26t61 63q0 -35 -9.5 -64.5t-27.5 -51t-45 -34t-63 -12.5t-63 12.5t-45 34t-27.5 51t-9.5 64.5zM648 697q-5 -9 -9 -17.5t-6.5 -22t-4.5 -34.5t-3 -56.5t-1.5 -87.5t-0.5 -127q0 -89 2 -143.5t5 -85.5t7.5 -45t9.5 -22
q-29 -19 -69 -34q-34 -13 -82.5 -23t-111.5 -10q-99 0 -156 26t-85 71.5t-35 107.5t-7 134q0 95 4 165.5t4 116.5q0 28 -6 51t-32 37q7 3 18 7q8 3 20 5.5t26 2.5q28 0 44.5 -6t25 -17t10.5 -25.5t2 -30.5q0 -13 -2 -45.5t-4 -72.5t-4 -82.5t-2 -75.5q0 -66 4 -121t22 -95.5
t54.5 -63t101.5 -22.5q38 0 64 3t42 8q18 4 30 11v298q0 103 -1 160.5t-3.5 88.5t-7.5 44t-13 28l-9 17q8 -1 20 -1q11 -1 26 -1h38h37.5t26.5 1q12 0 20 1z" />
    <glyph glyph-name="ubreve" unicode="&#x16d;" horiz-adv-x="622" 
d="M546 38q-26 -15 -59 -26q-29 -10 -70.5 -17.5t-94.5 -7.5q-86 0 -133.5 23.5t-70 63t-27.5 92t-5 110.5q0 33 1 60t2.5 52t2.5 49.5t1 51.5q0 20 -4.5 38t-29.5 29q5 4 14 8q8 3 20 6t31 3q25 0 39 -6t21 -16t9 -22t2 -25q0 -17 -1.5 -44t-3.5 -57.5t-3.5 -61t-1.5 -54.5
q0 -53 3 -96t16.5 -74.5t42.5 -48.5t80 -17q26 0 46 2t33 5q15 3 25 7v237q0 65 -1 105t-3.5 64t-6.5 37t-10 24l-9 17l134 25q-2 -28 -4 -68q-2 -35 -3 -88.5t-1 -126.5q0 -79 1.5 -126t4 -73t6 -37t7.5 -17zM173 789q26 -37 61.5 -62.5t83.5 -25.5q49 0 84 25.5t61 62.5
q0 -35 -9.5 -64t-27.5 -51t-45 -34t-63 -12t-63 12t-45 34t-27.5 51t-9.5 64z" />
    <glyph glyph-name="Uring" unicode="&#x16e;" horiz-adv-x="728" 
d="M648 697q-5 -9 -9 -17.5t-6.5 -22t-4.5 -34.5t-3 -56.5t-1.5 -87.5t-0.5 -127q0 -89 2 -143.5t5 -85.5t7.5 -45t9.5 -22q-29 -19 -69 -34q-34 -13 -82.5 -23t-111.5 -10q-99 0 -156 26t-85 71.5t-35 107.5t-7 134q0 95 4 165.5t4 116.5q0 28 -6 51t-32 37q7 3 18 7
q8 3 20 5.5t26 2.5q28 0 44.5 -6t25 -17t10.5 -25.5t2 -30.5q0 -13 -2 -45.5t-4 -72.5t-4 -82.5t-2 -75.5q0 -66 4 -121t22 -95.5t54.5 -63t101.5 -22.5q38 0 64 3t42 8q18 4 30 11v298q0 103 -1 160.5t-3.5 88.5t-7.5 44t-13 28l-9 17q8 -1 20 -1q11 -1 26 -1h38h37.5
t26.5 1q12 0 20 1zM480 838q0 -49 -30.5 -74.5t-75.5 -25.5t-75.5 25t-30.5 74t30 74.5t75 25.5t76 -25t31 -74zM431 837q0 29 -16 43.5t-42 14.5q-23 0 -40 -14.5t-17 -43.5q0 -28 16 -42.5t42 -14.5q23 0 40 14t17 43z" />
    <glyph glyph-name="uring" unicode="&#x16f;" horiz-adv-x="622" 
d="M424 708q0 -49 -30.5 -74.5t-75.5 -25.5t-75.5 25t-30.5 75q0 48 30 73.5t75 25.5t76 -25t31 -74zM375 708q0 29 -16 43.5t-42 14.5q-23 0 -40 -14.5t-17 -43.5t16 -43.5t42 -14.5q23 0 40 14.5t17 43.5zM546 38q-26 -15 -59 -26q-29 -10 -70.5 -17.5t-94.5 -7.5
q-86 0 -133.5 23.5t-70 63t-27.5 92t-5 110.5q0 33 1 60t2.5 52t2.5 49.5t1 51.5q0 20 -4.5 38t-29.5 29q5 4 14 8q8 3 20 6t31 3q25 0 39 -6t21 -16t9 -22t2 -25q0 -17 -1.5 -44t-3.5 -57.5t-3.5 -61t-1.5 -54.5q0 -53 3 -96t16.5 -74.5t42.5 -48.5t80 -17q26 0 46 2t33 5
q15 3 25 7v237q0 65 -1 105t-3.5 64t-6.5 37t-10 24l-9 17l134 25q-2 -28 -4 -68q-2 -35 -3 -88.5t-1 -126.5q0 -79 1.5 -126t4 -73t6 -37t7.5 -17z" />
    <glyph glyph-name="Uhungarumlaut" unicode="&#x170;" horiz-adv-x="728" 
d="M648 697q-5 -9 -9 -17.5t-6.5 -22t-4.5 -34.5t-3 -56.5t-1.5 -87.5t-0.5 -127q0 -89 2 -143.5t5 -85.5t7.5 -45t9.5 -22q-29 -19 -69 -34q-34 -13 -82.5 -23t-111.5 -10q-99 0 -156 26t-85 71.5t-35 107.5t-7 134q0 95 4 165.5t4 116.5q0 28 -6 51t-32 37q7 3 18 7
q8 3 20 5.5t26 2.5q28 0 44.5 -6t25 -17t10.5 -25.5t2 -30.5q0 -13 -2 -45.5t-4 -72.5t-4 -82.5t-2 -75.5q0 -66 4 -121t22 -95.5t54.5 -63t101.5 -22.5q38 0 64 3t42 8q18 4 30 11v298q0 103 -1 160.5t-3.5 88.5t-7.5 44t-13 28l-9 17q8 -1 20 -1q11 -1 26 -1h38h37.5
t26.5 1q12 0 20 1zM325 902h106q-4 -12 -15 -26q-9 -12 -24.5 -28.5t-40.5 -36.5q-23 -19 -42.5 -30t-34.5 -17q-18 -7 -32 -11zM501 902h107q-4 -12 -15 -26q-9 -12 -24.5 -28.5t-40.5 -36.5q-23 -19 -43 -30t-35 -17q-18 -7 -32 -11z" />
    <glyph glyph-name="uhungarumlaut" unicode="&#x171;" horiz-adv-x="622" 
d="M546 38q-26 -15 -59 -26q-29 -10 -70.5 -17.5t-94.5 -7.5q-86 0 -133.5 23.5t-70 63t-27.5 92t-5 110.5q0 33 1 60t2.5 52t2.5 49.5t1 51.5q0 20 -4.5 38t-29.5 29q5 4 14 8q8 3 20 6t31 3q25 0 39 -6t21 -16t9 -22t2 -25q0 -17 -1.5 -44t-3.5 -57.5t-3.5 -61t-1.5 -54.5
q0 -53 3 -96t16.5 -74.5t42.5 -48.5t80 -17q26 0 46 2t33 5q15 3 25 7v237q0 65 -1 105t-3.5 64t-6.5 37t-10 24l-9 17l134 25q-2 -28 -4 -68q-2 -35 -3 -88.5t-1 -126.5q0 -79 1.5 -126t4 -73t6 -37t7.5 -17zM274 772h106q-4 -12 -15 -26q-9 -12 -24.5 -28.5t-40.5 -36.5
q-23 -19 -42.5 -30t-34.5 -17q-18 -7 -32 -10zM450 772h107q-4 -12 -15 -26q-9 -12 -24.5 -28.5t-40.5 -36.5q-23 -19 -43 -30t-35 -17q-18 -7 -32 -10z" />
    <glyph glyph-name="Uogonek" unicode="&#x172;" horiz-adv-x="728" 
d="M367 -131q0 24 8.5 43.5t22 35t30 27t31.5 19.5q-18 -2 -36 -3.5t-39 -1.5q-99 0 -156 26t-85 71.5t-35 107.5t-7 134q0 95 4 165.5t4 116.5q0 28 -6 51t-32 37q7 3 18 7q8 3 20 5.5t26 2.5q28 0 44.5 -6t25 -17t10.5 -25.5t2 -30.5q0 -13 -2 -45.5t-4 -72.5t-4 -82.5
t-2 -75.5q0 -66 4 -121t22 -95.5t54.5 -63t101.5 -22.5q38 0 64 3t42 8q18 4 30 11v298q0 103 -1 160.5t-3.5 88.5t-7.5 44t-13 28l-9 17q8 -1 20 -1q11 -1 26 -1h38h37.5t26.5 1q12 0 20 1l-9 -17q-5 -9 -9 -17.5t-6.5 -22t-4.5 -34.5t-3 -56.5t-1.5 -87.5t-0.5 -127
q0 -89 2 -143.5t5 -85.5t7.5 -45t9.5 -22q-16 -6 -35 -14q-17 -7 -39 -17t-49 -22q-13 -6 -26 -17t-23 -26t-16.5 -33.5t-6.5 -39.5q0 -32 21 -52t66 -26q-17 -10 -38 -15.5t-41 -5.5q-37 0 -65 19t-28 62z" />
    <glyph glyph-name="uogonek" unicode="&#x173;" horiz-adv-x="622" 
d="M326 -131q0 25 9.5 45t23.5 35.5t31.5 27t32.5 19.5q-23 -4 -47.5 -6.5t-53.5 -2.5q-86 0 -133.5 23.5t-70 63t-27.5 92t-5 110.5q0 33 1 60t2.5 52t2.5 49.5t1 51.5q0 20 -4.5 38t-29.5 29q5 4 14 8q8 3 20 6t31 3q25 0 39 -6t21 -16t9 -22t2 -25q0 -17 -1.5 -44
t-3.5 -57.5t-3.5 -61t-1.5 -54.5q0 -53 3 -96t16.5 -74.5t42.5 -48.5t80 -17q26 0 46 2t33 5q15 3 25 7v237q0 65 -1 105t-3.5 64t-6.5 37t-10 24l-9 17l134 25q-2 -28 -4 -68q-2 -35 -3 -88.5t-1 -126.5q0 -79 1.5 -126t4 -73t6 -37t7.5 -17q-19 -7 -42.5 -19.5t-44 -31.5
t-34.5 -44t-14 -56q0 -32 21 -52t66 -26q-17 -10 -38 -15.5t-41 -5.5q-37 0 -65 19t-28 62z" />
    <glyph glyph-name="Wcircumflex" unicode="&#x174;" horiz-adv-x="1037" 
d="M1033 713q-11 -9 -19 -21t-18 -35q-5 -13 -13.5 -48.5t-20 -87.5t-27 -116t-35 -133t-43.5 -139t-53 -134q-7 0 -17 1q-8 0 -19.5 0.5t-25.5 0.5q-16 0 -28 -0.5t-20 -0.5q-10 -1 -18 -1l-149 585q-5 18 -6.5 33.5t-1.5 16.5q-1 -7 -3 -15q-2 -7 -3.5 -16.5t-3.5 -19.5
l-144 -584q-9 0 -20 1q-9 0 -21.5 0.5t-27.5 0.5t-28 -0.5t-22 -0.5q-11 -1 -19 -1l-133 477q-15 52 -26.5 91t-22 66.5t-21.5 46.5t-25 33q11 -1 25 -1q12 -1 29 -1h39h44t32 1q15 0 26 1q-10 -7 -21 -21t-11 -42q0 -26 11 -69.5t25 -99.5l97 -376q2 -11 4 -20.5t4 -16.5
q2 -9 2 -15q1 7 3 15q2 7 3.5 16.5t4.5 20.5l149 608q9 -1 20 -1q9 -1 20.5 -1h24.5h23.5t20.5 1q11 0 19 1l154 -607q2 -10 4 -19t4 -16q2 -8 2 -15q16 37 32 87t30.5 105.5t26.5 113t21.5 110t14.5 96t5 71.5q0 37 -8.5 52t-18.5 22q10 -1 23 -1q11 -1 28 -1h40h34.5
t25.5 1q12 0 22 1zM694 752q-47 3 -93 23t-72 52q-35 -38 -79 -55.5t-86 -19.5l136 150h59z" />
    <glyph glyph-name="wcircumflex" unicode="&#x175;" horiz-adv-x="879" 
d="M615 623q-47 2 -93 22t-72 52q-35 -38 -79 -55t-86 -19l136 149h59zM872 566q-11 -9 -19.5 -21t-17.5 -35q-6 -15 -13.5 -46.5t-17 -73.5t-22 -92.5t-28 -102.5t-35 -102.5t-42.5 -93.5q-8 0 -17 1q-8 0 -18.5 0.5t-24.5 0.5t-24 -0.5t-18 -0.5q-9 -1 -15 -1l-111 421
q-7 27 -9.5 45t-2.5 19q0 -1 -2.5 -19.5t-8.5 -42.5l-114 -423q-6 0 -15 1q-8 0 -19.5 0.5t-25.5 0.5q-15 0 -26 -0.5t-19 -0.5q-9 -1 -15 -1l-98 340q-17 56 -29 95t-22.5 65t-20 42t-20.5 26q9 -1 22 -1q11 -1 27 -1h37h42.5t29.5 1q13 0 23 1q-10 -7 -19 -19.5t-9 -38.5
q0 -11 1.5 -23.5t5.5 -30t10 -42.5t15 -61l59 -231q7 -28 9.5 -45.5t2.5 -18.5q0 1 2.5 17.5t10.5 45.5l120 448q6 -1 14 -1q7 -1 17 -1h24h23t18 1q9 0 15 1l118 -449q4 -17 6.5 -28.5t3.5 -19.5q1 -10 1 -16q6 12 16.5 42t22 70t23.5 87t22 92.5t16 86t6 68.5q0 31 -9 45
t-19 21q10 -1 23 -1q11 -1 27 -1h36h55q12 0 22 1z" />
    <glyph glyph-name="Ycircumflex" unicode="&#x176;" horiz-adv-x="555" 
d="M556 713q-11 -9 -19 -21t-18 -35q-9 -23 -22.5 -62t-34.5 -88t-52.5 -105t-77.5 -111q0 -80 1 -127.5t3.5 -75.5t7.5 -42.5t13 -29.5l9 -17q-8 0 -20 1q-11 0 -26.5 0.5t-37.5 0.5t-37.5 -0.5t-26.5 -0.5q-12 -1 -20 -1l9 17q7 13 12 27t8 41t4 72.5t1 121.5l-115 228
q-32 63 -51 99.5t-32 57t-22.5 30.5t-22.5 20q9 -1 23 -1q12 -1 32 -1h49h48.5t30.5 1q13 0 20 1q-12 -11 -17.5 -23t-5.5 -24q0 -11 1.5 -21t7 -24.5t15.5 -37t27 -58.5l78 -166q14 17 34.5 53t39 78.5t31.5 85t13 74.5q0 29 -8.5 42.5t-18.5 20.5q10 -1 23 -1q11 -1 27 -1
h36h33t26 1q12 0 22 1zM456 752q-47 3 -93 23t-72 52q-35 -38 -79 -55.5t-86 -19.5l136 150h59z" />
    <glyph glyph-name="ycircumflex" unicode="&#x177;" horiz-adv-x="542" 
d="M541 567q-11 -9 -20.5 -22t-17.5 -36q-5 -14 -14 -59t-26 -112t-44 -151.5t-68 -175.5q-49 -107 -110 -165.5t-147 -58.5q-23 0 -36.5 1t-21.5 3q-9 2 -12 5q0 7 1 17q0 8 0.5 18.5t0.5 22.5q0 13 -0.5 25t-0.5 21q-1 11 -1 19q25 -41 41 -56.5t40 -15.5q21 0 39 9
t34 22.5t29 30.5t24 34l5 8l-137 388q-20 55 -34 94t-25 65.5t-21 42.5t-21 26q10 -1 24 -1q11 -1 28 -1h39h43t30 1q14 0 23 1q-10 -7 -19 -19.5t-9 -38.5q0 -11 2 -23.5t6.5 -29.5t12 -41.5t18.5 -60.5l78 -240q10 -36 15 -51q3 -10 3 -15q9 16 21 46t24.5 69t24.5 84
t21.5 90t15.5 87.5t6 76.5q0 31 -9 45t-19 21q9 -1 22 -1q11 -1 27 -1h37h33.5t24.5 1q11 0 20 1zM444 623q-47 2 -93 22t-72 52q-35 -38 -79 -55t-86 -19l136 149h59z" />
    <glyph glyph-name="Ydieresis" unicode="&#x178;" horiz-adv-x="555" 
d="M556 713q-11 -9 -19 -21t-18 -35q-9 -23 -22.5 -62t-34.5 -88t-52.5 -105t-77.5 -111q0 -80 1 -127.5t3.5 -75.5t7.5 -42.5t13 -29.5l9 -17q-8 0 -20 1q-11 0 -26.5 0.5t-37.5 0.5t-37.5 -0.5t-26.5 -0.5q-12 -1 -20 -1l9 17q7 13 12 27t8 41t4 72.5t1 121.5l-115 228
q-32 63 -51 99.5t-32 57t-22.5 30.5t-22.5 20q9 -1 23 -1q12 -1 32 -1h49h48.5t30.5 1q13 0 20 1q-12 -11 -17.5 -23t-5.5 -24q0 -11 1.5 -21t7 -24.5t15.5 -37t27 -58.5l78 -166q14 17 34.5 53t39 78.5t31.5 85t13 74.5q0 29 -8.5 42.5t-18.5 20.5q10 -1 23 -1q11 -1 27 -1
h36h33t26 1q12 0 22 1zM269 832l-73 -70l-73 70l73 70zM460 832l-73 -70l-73 70l73 70z" />
    <glyph glyph-name="Zacute" unicode="&#x179;" horiz-adv-x="585" 
d="M551 149q-2 -13 -4 -31q-2 -15 -4 -37.5t-4 -51.5l-2 -29h-498v17q0 38 8.5 72.5t25 67t39 64.5t51.5 65l187 219q42 48 59 79.5t18 62.5h-219q-35 0 -63.5 -6.5t-46.5 -17.5q-20 -12 -27.5 -18.5t-8.5 -8.5q0 2 1.5 17.5t1.5 46.5q0 14 -0.5 23t-0.5 16q-1 7 -1 13h477
v-12q0 -39 -9.5 -73.5t-26 -67.5t-40.5 -65t-52 -65l-186 -220q-35 -42 -53.5 -74t-20.5 -70h222q46 0 74.5 5.5t46.5 16t30 26.5t26 36zM325 902h106q-4 -12 -15 -26q-9 -12 -24.5 -28.5t-40.5 -36.5q-23 -19 -42.5 -30t-34.5 -17q-18 -7 -32 -11z" />
    <glyph glyph-name="zacute" unicode="&#x17a;" horiz-adv-x="512" 
d="M287 772h106q-4 -12 -15 -26q-9 -12 -24.5 -28.5t-40.5 -36.5q-23 -19 -42.5 -30t-34.5 -17q-18 -7 -32 -10zM465 145q-2 -12 -4 -29q-2 -14 -3.5 -35.5t-3.5 -50.5l-2 -30h-409v28q0 30 5 56.5t16 51t28.5 48t43.5 49.5l162 162q20 20 37.5 45t17.5 54v10h-146
q-25 0 -44.5 -2.5t-36 -9t-30.5 -19t-28 -32.5q0 8 1 19q0 9 0.5 20.5t0.5 25.5q0 15 -0.5 25.5t-0.5 18.5q-1 8 -1 14h387v-25q0 -30 -5 -56.5t-16.5 -51t-29 -48.5t-42.5 -49l-162 -164q-20 -20 -37.5 -44t-17.5 -55v-10h143q46 0 74.5 5.5t46.5 16t30 26.5t26 36z" />
    <glyph glyph-name="Zdotaccent" unicode="&#x17b;" horiz-adv-x="585" 
d="M379 823l-81 -78l-81 78l81 77zM551 149q-2 -13 -4 -31q-2 -15 -4 -37.5t-4 -51.5l-2 -29h-498v17q0 38 8.5 72.5t25 67t39 64.5t51.5 65l187 219q42 48 59 79.5t18 62.5h-219q-35 0 -63.5 -6.5t-46.5 -17.5q-20 -12 -27.5 -18.5t-8.5 -8.5q0 2 1.5 17.5t1.5 46.5
q0 14 -0.5 23t-0.5 16q-1 7 -1 13h477v-12q0 -39 -9.5 -73.5t-26 -67.5t-40.5 -65t-52 -65l-186 -220q-35 -42 -53.5 -74t-20.5 -70h222q46 0 74.5 5.5t46.5 16t30 26.5t26 36z" />
    <glyph glyph-name="zdotaccent" unicode="&#x17c;" horiz-adv-x="512" 
d="M465 145q-2 -12 -4 -29q-2 -14 -3.5 -35.5t-3.5 -50.5l-2 -30h-409v28q0 30 5 56.5t16 51t28.5 48t43.5 49.5l162 162q20 20 37.5 45t17.5 54v10h-146q-25 0 -44.5 -2.5t-36 -9t-30.5 -19t-28 -32.5q0 8 1 19q0 9 0.5 20.5t0.5 25.5q0 15 -0.5 25.5t-0.5 18.5q-1 8 -1 14
h387v-25q0 -30 -5 -56.5t-16.5 -51t-29 -48.5t-42.5 -49l-162 -164q-20 -20 -37.5 -44t-17.5 -55v-10h143q46 0 74.5 5.5t46.5 16t30 26.5t26 36zM342 712l-81 -78l-81 78l81 77z" />
    <glyph glyph-name="Zcaron" unicode="&#x17d;" horiz-adv-x="585" 
d="M453 915q-41 -38 -74.5 -77.5t-65.5 -85.5h-14l-79 77q-8 8 -24.5 23t-27.5 23l65 50q7 -11 16 -23.5t17 -23.5l29 -39q12 15 29 29.5t37 25t43 16.5t49 5zM551 149q-2 -13 -4 -31q-2 -15 -4 -37.5t-4 -51.5l-2 -29h-498v17q0 38 8.5 72.5t25 67t39 64.5t51.5 65l187 219
q42 48 59 79.5t18 62.5h-219q-35 0 -63.5 -6.5t-46.5 -17.5q-20 -12 -27.5 -18.5t-8.5 -8.5q0 2 1.5 17.5t1.5 46.5q0 14 -0.5 23t-0.5 16q-1 7 -1 13h477v-12q0 -39 -9.5 -73.5t-26 -67.5t-40.5 -65t-52 -65l-186 -220q-35 -42 -53.5 -74t-20.5 -70h222q46 0 74.5 5.5
t46.5 16t30 26.5t26 36z" />
    <glyph glyph-name="zcaron" unicode="&#x17e;" horiz-adv-x="512" 
d="M404 772q-20 -20 -36.5 -37t-31.5 -34.5t-29.5 -36.5t-29.5 -41h-16l-67 63q-9 8 -25 23t-27 23l62 50q15 -26 34 -47l25 -29q24 30 56.5 50.5t84.5 15.5zM465 145q-2 -12 -4 -29q-2 -14 -3.5 -35.5t-3.5 -50.5l-2 -30h-409v28q0 30 5 56.5t16 51t28.5 48t43.5 49.5
l162 162q20 20 37.5 45t17.5 54v10h-146q-25 0 -44.5 -2.5t-36 -9t-30.5 -19t-28 -32.5q0 8 1 19q0 9 0.5 20.5t0.5 25.5q0 15 -0.5 25.5t-0.5 18.5q-1 8 -1 14h387v-25q0 -30 -5 -56.5t-16.5 -51t-29 -48.5t-42.5 -49l-162 -164q-20 -20 -37.5 -44t-17.5 -55v-10h143
q46 0 74.5 5.5t46.5 16t30 26.5t26 36z" />
    <glyph glyph-name="florin" unicode="&#x192;" horiz-adv-x="462" 
d="M454 710q-2 -5 -3 -12q-2 -6 -2.5 -15t-2.5 -20q-2 -13 -3 -22.5t-1 -17.5q-1 -9 0 -15q-20 35 -42.5 45.5t-42.5 10.5q-25 0 -41 -7t-27 -21q-15 -19 -18.5 -43.5t-8.5 -58.5l-6 -50h28q29 0 48 1.5t30 3.5q13 3 21 6q-1 -5 -2 -11q-1 -5 -2.5 -13t-2.5 -18
q-3 -20 -3 -29v-10q-8 2 -21 5q-11 2 -29.5 4t-46.5 2h-27l-33 -261q-7 -59 -13.5 -113.5t-22 -96t-45 -66.5t-82.5 -25q-23 0 -38.5 2t-25.5 4q-11 3 -18 6q1 4 3 10q2 5 2.5 12t2.5 18q2 12 2 21.5t1 17.5q0 8 1 15q17 -33 33 -43.5t31 -10.5q18 0 28.5 7.5t17 23t10 40.5
t7.5 60l46 379h-57l13 11q29 23 41 39.5t14 36.5l2 16q3 30 10 63.5t26.5 62t56.5 47t102 18.5q24 0 41 -1.5t28 -3.5q12 -2 21 -4z" />
    <glyph glyph-name="Scommaaccent" unicode="&#x218;" horiz-adv-x="516" 
d="M320 -110q0 -22 -8.5 -42t-24 -36.5t-37.5 -28t-50 -15.5q1 0 8 6t15.5 16.5t15 24.5t6.5 31q0 16 -5.5 25t-12.5 14q-8 5 -18 7v17q0 47 50 55q26 -5 43.5 -22t17.5 -52zM463 173q0 -39 -13 -72t-40 -57t-69.5 -37.5t-101.5 -13.5q-44 0 -75.5 4.5t-51.5 9.5
q-24 6 -40 15q0 7 1 16q0 8 0.5 19t0.5 26t-0.5 28.5t-0.5 24.5q-1 12 -1 22q16 -23 32 -41t34.5 -31t42 -20t55.5 -7q17 0 39.5 2.5t42.5 12.5t34 30t14 56q0 17 -3.5 32t-12.5 29t-25 28.5t-41 30.5l-80 47q-30 18 -56.5 36.5t-46 42t-30.5 54.5t-11 74q0 36 12 69.5
t39 59t70.5 41t106.5 15.5q44 0 76.5 -5t53.5 -10q25 -7 42 -15q-1 -7 -1 -17q-1 -8 -1 -20v-27v-29t1 -22q0 -11 1 -20q-20 29 -39.5 48t-40.5 30.5t-44 16t-50 4.5q-58 0 -94.5 -25t-36.5 -83q0 -26 8.5 -45t22 -34t31 -26.5t35.5 -22.5l65 -39q35 -21 62.5 -40.5
t46 -42.5t28 -52t9.5 -70z" />
    <glyph glyph-name="scommaaccent" unicode="&#x219;" horiz-adv-x="468" 
d="M284 -110q0 -22 -8.5 -42t-24 -36.5t-37.5 -28t-50 -15.5q1 0 8 6t15.5 16.5t15 24.5t6.5 31q0 16 -5.5 25t-12.5 14q-8 5 -18 7v17q0 47 50 55q26 -5 43.5 -22t17.5 -52zM403 145q0 -40 -13.5 -68.5t-37.5 -46.5t-58 -26.5t-74 -8.5q-35 0 -61.5 4.5t-44.5 10.5
q-21 6 -36 15q0 5 1 14q0 8 0.5 19t0.5 26q0 14 -0.5 26t-0.5 21q-1 10 -1 18q14 -21 28 -38.5t30.5 -30.5t36.5 -20t46 -7q11 0 27.5 1.5t31.5 9t25.5 22.5t10.5 41q0 33 -20.5 52t-58.5 41l-69 40q-23 13 -42.5 28t-33.5 33t-21.5 41t-7.5 52q0 27 8.5 56t31 52.5t60.5 39
t97 15.5q35 0 62.5 -5t47.5 -11q22 -7 39 -15q-1 -6 -1 -15q-1 -8 -1 -18.5v-25.5v-26.5t1 -21.5q0 -11 1 -19q-14 22 -28.5 39.5t-31.5 30t-38.5 19.5t-49.5 7q-32 0 -52.5 -7.5t-32 -19t-15.5 -26.5t-4 -30q0 -32 15 -51t44 -36l89 -52q15 -8 32.5 -19t32.5 -28.5t25 -42
t10 -59.5z" />
    <glyph glyph-name="uni021A" unicode="&#x21a;" horiz-adv-x="541" 
d="M329 -110q0 -22 -8.5 -42t-24 -36.5t-37.5 -28t-50 -15.5q1 0 8 6t15.5 16.5t15 24.5t6.5 31q0 16 -5.5 25t-12.5 14q-8 5 -18 7v17q0 47 50 55q26 -5 43.5 -22t17.5 -52zM528 660q0 -30 1.5 -44.5t1.5 -16.5q-1 1 -8 7.5t-28 19.5q-18 11 -46.5 17.5t-63.5 6.5h-65v-299
q0 -109 1 -169.5t3.5 -92t7.5 -45t13 -28.5l9 -17q-8 0 -19 1q-10 0 -26 0.5t-38 0.5q-23 0 -38 -0.5t-26 -0.5q-12 -1 -20 -1l9 17q5 9 9 17.5t6.5 22t4.5 35t3 56.5t1.5 87t0.5 127v289h-65q-35 0 -63.5 -6.5t-46.5 -17.5q-20 -12 -27.5 -18.5t-8.5 -8.5q0 1 1.5 16
t1.5 45q0 14 -0.5 23t-0.5 16v13h517q-1 -6 -1 -13v-39z" />
    <glyph glyph-name="uni021B" unicode="&#x21b;" horiz-adv-x="374" 
d="M277 -110q0 -22 -8.5 -42t-24 -36.5t-37.5 -28t-50 -15.5q1 0 8 6t15.5 16.5t15 24.5t6.5 31q0 16 -5.5 25t-12.5 14q-8 5 -18 7v17q0 47 50 55q26 -5 43.5 -22t17.5 -52zM362 80q0 -3 -3 -17.5t-16 -30.5t-39.5 -29t-74.5 -13q-45 0 -70.5 15t-39.5 36q-12 19 -17.5 47
t-5.5 83v158t1 102q1 45 2 72h-64q2 1 22.5 22t46.5 62q14 21 23.5 39t16.5 32q8 16 13 30h38v-125h66q31 0 50 1.5t30 3.5q12 3 18 6q-1 -4 -1 -10v-31v-30q0 -6 1 -10q-6 2 -18 5q-11 2 -30 3.5t-50 1.5h-66v-337q0 -34 3 -50t10 -30q8 -17 24.5 -26.5t45.5 -9.5
q21 0 36.5 4.5t26.5 10.5q12 6 21 15z" />
    <glyph glyph-name="uni0237" unicode="&#x237;" horiz-adv-x="282" 
d="M205 574q-3 -19 -5 -55q-2 -31 -3 -83t-1 -133v-341q0 -32 -2.5 -63.5t-17.5 -56t-46.5 -40t-88.5 -15.5h-20q29 14 45 34.5t24 49.5t9.5 68t1.5 91v272q0 65 -1.5 105t-5 64t-8 37t-10.5 24l-9 17z" />
    <glyph glyph-name="circumflex" unicode="&#x2c6;" horiz-adv-x="414" 
d="M372 623q-47 2 -93 22t-72 52q-35 -38 -79 -55t-86 -19l136 149h59z" />
    <glyph glyph-name="caron" unicode="&#x2c7;" horiz-adv-x="414" 
d="M340 772q-20 -20 -36.5 -37t-31.5 -34.5t-29.5 -36.5t-29.5 -41h-16l-67 63q-9 8 -25 23t-27 23l62 50q15 -26 34 -47l25 -29q24 30 56.5 50.5t84.5 15.5z" />
    <glyph glyph-name="uni02C9" unicode="&#x2c9;" horiz-adv-x="414" 
d="M66 657v69h283v-69h-283z" />
    <glyph glyph-name="breve" unicode="&#x2d8;" horiz-adv-x="414" 
d="M62 789q26 -37 61.5 -62.5t83.5 -25.5q49 0 84 25.5t61 62.5q0 -35 -9.5 -64t-27.5 -51t-45 -34t-63 -12t-63 12t-45 34t-27.5 51t-9.5 64z" />
    <glyph glyph-name="dotaccent" unicode="&#x2d9;" horiz-adv-x="414" 
d="M286 712l-81 -78l-81 78l81 77z" />
    <glyph glyph-name="ring" unicode="&#x2da;" horiz-adv-x="414" 
d="M313 708q0 -49 -30.5 -74.5t-75.5 -25.5t-75.5 25t-30.5 75q0 48 30 73.5t75 25.5t76 -25t31 -74zM264 708q0 29 -16 43.5t-42 14.5q-23 0 -40 -14.5t-17 -43.5t16 -43.5t42 -14.5q23 0 40 14.5t17 43.5z" />
    <glyph glyph-name="ogonek" unicode="&#x2db;" horiz-adv-x="414" 
d="M131 -131q0 31 14.5 54.5t34 40.5t40.5 28t35 17h38q-12 -8 -25.5 -20t-25 -27t-19 -34t-7.5 -41q0 -32 21 -52t66 -26q-17 -10 -38 -15.5t-41 -5.5q-37 0 -65 19t-28 62z" />
    <glyph glyph-name="tilde" unicode="&#x2dc;" horiz-adv-x="414" 
d="M289 707q15 0 28 7t22.5 15t15 15.5t6.5 9.5q0 -54 -23.5 -83t-62.5 -29q-15 0 -28 3t-23 7l-59 21q-13 5 -20.5 6.5t-20.5 1.5q-15 0 -28 -7t-22.5 -15.5t-15 -16t-6.5 -9.5q0 56 24 84.5t62 28.5q15 0 28 -3t23 -7l59 -21q13 -4 20.5 -6t20.5 -2z" />
    <glyph glyph-name="hungarumlaut" unicode="&#x2dd;" horiz-adv-x="414" 
d="M107 772h106q-4 -12 -15 -26q-9 -12 -24.5 -28.5t-40.5 -36.5q-23 -19 -42.5 -30t-34.5 -17q-18 -7 -32 -10zM283 772h107q-4 -12 -15 -26q-9 -12 -24.5 -28.5t-40.5 -36.5q-23 -19 -43 -30t-35 -17q-18 -7 -32 -10z" />
    <glyph glyph-name="uni0374" unicode="&#x374;" horiz-adv-x="240" 
d="M188 826q-3 -23 -15.5 -60.5t-34.5 -78.5q-17 -32 -39.5 -61t-46.5 -47l40 247h96z" />
    <glyph glyph-name="uni0375" unicode="&#x375;" horiz-adv-x="240" 
d="M52 -172q3 23 15.5 60.5t34.5 78.5q17 32 39.5 61.5t46.5 46.5l-40 -247h-96z" />
    <glyph glyph-name="uni037A" unicode="&#x37a;" horiz-adv-x="239" 
d="M187 -234q-11 -14 -27 -26t-43 -12q-29 0 -47 16.5t-18 61.5q0 31 0.5 68t0.5 61h76q0 -3 -1 -29t-1 -67q0 -18 2 -31t8 -21.5t18 -13t32 -7.5z" />
    <glyph glyph-name="uni037E" unicode="&#x37e;" horiz-adv-x="249" 
d="M192 22q0 -47 -13.5 -79t-34 -51.5t-45.5 -28.5t-48 -9q1 1 7.5 6.5t14 17.5t14 31t6.5 46t-6 43.5t-13 24.5q-8 10 -18 13v19q0 28 17 47.5t49 24.5q37 -6 53.5 -34.5t16.5 -70.5zM197 497q0 -30 -20 -49.5t-52 -24.5q-35 5 -54 24.5t-19 48.5q0 30 20 49.5t52 24.5
q36 -5 54.5 -24.5t18.5 -48.5z" />
    <glyph glyph-name="tonos" unicode="&#x384;" horiz-adv-x="250" 
d="M200 827q-1 -2 -3 -10t-7.5 -21.5t-16.5 -33t-29 -43.5q-35 -44 -62 -61t-32 -18l45 187h105z" />
    <glyph glyph-name="dieresistonos" unicode="&#x385;" horiz-adv-x="503" 
d="M442 693q0 -25 -15 -39t-39 -14q-21 0 -36.5 14.5t-15.5 37.5q0 25 15.5 39t38.5 14q22 0 37 -14t15 -38zM319 810q0 -26 -8.5 -54.5t-23 -54.5t-34.5 -48t-44 -35l9 192h101zM167 693q0 -25 -15.5 -39t-38.5 -14q-22 0 -37 14.5t-15 37.5q0 25 15 39t39 14q22 0 37 -14
t15 -38z" />
    <glyph glyph-name="Alphatonos" unicode="&#x386;" horiz-adv-x="629" 
d="M629 -1q-11 0 -26 1q-13 0 -30.5 0.5t-40.5 0.5q-21 0 -38 -0.5t-30 -0.5q-15 -1 -27 -1q10 7 21 21t11 42q0 26 -11.5 69t-27.5 98l-19 63h-221l-18 -63q-16 -54 -27.5 -97.5t-11.5 -69.5q0 -28 11 -42t21 -21q-11 0 -24 1q-12 0 -28.5 0.5t-36.5 0.5q-22 0 -37.5 -0.5
t-26.5 -0.5q-12 -1 -21 -1q14 13 25 32.5t22 47.5t23 66.5t29 90.5l130 417q3 9 5.5 18t2.5 19t-2.5 14.5t-4.5 6.5h190q0 -1 -3 -5.5t-3 -15.5q0 -10 2 -19t5 -18l121 -417q15 -52 27 -90.5t22.5 -66.5t21.5 -47.5t25 -32.5zM322 602q-8 30 -13.5 47.5t-6.5 24.5
q-2 -5 -6 -22.5t-14 -49.5l-73 -244h184zM160 712q-1 -2 -3 -10t-7.5 -22t-16.5 -33t-29 -43q-35 -44 -62 -61.5t-32 -18.5l45 188h105z" />
    <glyph glyph-name="anoteleia" unicode="&#x387;" horiz-adv-x="249" 
d="M197 400q0 -30 -20 -50t-52 -25q-35 6 -54 25.5t-19 48.5t20 49t52 25q36 -5 54.5 -24.5t18.5 -48.5z" />
    <glyph glyph-name="Epsilontonos" unicode="&#x388;" horiz-adv-x="566" 
d="M509 147q-1 -11 -3 -28q-2 -14 -4 -36.5t-4 -52.5l-2 -30h-343q-20 0 -35 -0.5t-24 -0.5h-18l9 17q5 9 9 17.5t6.5 22t4.5 35t3 56.5t1.5 87t0.5 127q0 109 -1 169.5t-3.5 92t-7.5 45t-13 28.5l-9 17q7 -1 18 -1h58h334q-1 -6 -1 -13v-39q0 -30 1.5 -44.5t1.5 -16.5
q-1 1 -8 7.5t-28 19.5q-38 22 -110 22h-132v-259h108q35 0 63.5 4t46.5 15q20 11 27 17t9 8q0 -1 -1.5 -21t-1.5 -56q0 -35 1.5 -55.5t1.5 -21.5q0 1 -7 7.5t-29 19.5q-18 11 -46.5 15t-63.5 4h-108v-261h122q46 0 74.5 5.5t46.5 16t30 26t26 35.5zM18 712q-1 -2 -3 -10
t-7.5 -22t-16.5 -33t-29 -43q-35 -44 -62 -61.5t-32 -18.5l45 188h105z" />
    </font>
</defs>
</svg>
