<?xml version="1.0" standalone="no"?>
<!DOCTYPE svg PUBLIC "-//W3C//DTD SVG 1.1//EN" "http://www.w3.org/Graphics/SVG/1.1/DTD/svg11.dtd" >
<svg xmlns="http://www.w3.org/2000/svg" xmlns:xlink="http://www.w3.org/1999/xlink" version="1.1">
<metadata>
Created by FontForge 20200427 at Wed Feb 19 20:34:48 2014
 By www
(c) Gerard Unger, 2013. ALL RIGHTS RESERVED. Produced by Tom Grace, 2013. This software is licensed, not sold. Unauthorised use prohibited.
</metadata>
<defs>
<font id="AlverataW07-IrregularPEBlk" horiz-adv-x="700" >
  <font-face 
    font-family="AlverataW07-IrregularPEBlk"
    font-weight="900"
    font-stretch="normal"
    units-per-em="1000"
    panose-1="2 3 10 3 6 5 4 2 0 4"
    ascent="787"
    descent="-213"
    x-height="575"
    cap-height="713"
    bbox="-460 -323 2213 1047"
    underline-thickness="53"
    underline-position="-129"
    unicode-range="U+0020-FB04"
  />
<missing-glyph horiz-adv-x="500" 
d="M76 0v713h348v-713h-348zM359 65v583h-218v-583h218z" />
    <glyph glyph-name=".notdef" horiz-adv-x="500" 
d="M76 0v713h348v-713h-348zM359 65v583h-218v-583h218z" />
    <glyph glyph-name="glyph1" horiz-adv-x="0" 
 />
    <glyph glyph-name="glyph1" horiz-adv-x="0" 
 />
    <glyph glyph-name="nonmarkingreturn" horiz-adv-x="333" 
 />
    <glyph glyph-name="space" unicode=" " horiz-adv-x="230" 
 />
    <glyph glyph-name="exclam" unicode="!" horiz-adv-x="356" 
d="M304 696q-4 -13 -8 -33.5t-8.5 -59.5t-10.5 -101.5t-15 -159.5l-12 -127h-144l-12 127q-9 97 -15 159.5t-10.5 101.5t-8.5 59.5t-8 33.5l-6 19q11 -1 29 -1q16 -1 41 -1h62h62t41 1q18 0 29 1zM317 90l-137 -117l-137 117l137 117z" />
    <glyph glyph-name="quotedbl" unicode="&#x22;" horiz-adv-x="335" 
d="M289 489h-83l-14 242h111zM129 489h-83l-14 242h111z" />
    <glyph glyph-name="numbersign" unicode="#" horiz-adv-x="575" 
d="M570 443h-110l-35 -180h110l-14 -73h-110l-37 -190h-87l37 190h-137l-37 -190h-87l37 190h-109l14 73h109l35 180h-109l14 73h110l36 190h87l-36 -190h137l36 190h87l-36 -190h109zM236 443l-35 -180h137l35 180h-137z" />
    <glyph glyph-name="dollar" unicode="$" horiz-adv-x="554" 
d="M250 -59v52h-14q-51 0 -88 4.5t-62 9.5q-29 6 -49 15q0 8 1 20q0 11 0.5 26.5t0.5 38.5q0 25 -0.5 44.5t-0.5 33.5q-1 16 -1 28q12 -18 28.5 -36t39 -32t51.5 -23t67 -9q53 0 84 15t31 53q0 17 -5.5 29t-16 21.5t-25.5 17.5t-34 17l-85 41q-63 30 -100.5 77.5
t-37.5 122.5q0 101 56.5 150.5t159.5 58.5v55h54v-52q47 0 81.5 -5t58.5 -10q27 -6 48 -14q-1 -8 -1 -20q-1 -11 -1 -28v-40v-43t1 -31q0 -15 1 -26q-29 43 -72 70.5t-103 27.5q-57 0 -79.5 -16t-22.5 -43q0 -16 5.5 -27t16.5 -20t26.5 -17t36.5 -18l77 -36
q69 -32 106 -80.5t37 -128.5q0 -56 -16.5 -95.5t-45.5 -65t-68.5 -39t-85.5 -17.5v-56h-54z" />
    <glyph glyph-name="percent" unicode="%" horiz-adv-x="790" 
d="M388 559q0 -75 -48 -118.5t-133 -43.5t-133.5 43.5t-48.5 118.5t48 118.5t133 43.5t133.5 -43.5t48.5 -118.5zM186 0h-127l540 712h126zM760 153q0 -75 -48 -118.5t-133 -43.5t-133.5 43.5t-48.5 118.5t48 118.5t133 43.5t133.5 -43.5t48.5 -118.5zM269 559
q0 38 -15.5 58t-47.5 20q-30 0 -46 -20t-16 -58t15.5 -58t47.5 -20q30 0 46 20t16 58zM641 153q0 38 -15.5 58t-47.5 20q-30 0 -46 -20t-16 -58t15.5 -58t47.5 -20q30 0 46 20t16 58z" />
    <glyph glyph-name="ampersand" unicode="&#x26;" horiz-adv-x="825" 
d="M805 -1q-10 0 -25 0.5t-34 0.5h-204l-21 23q-21 -10 -51 -18q-26 -7 -63 -12t-87 -5q-66 0 -120 10t-91.5 32.5t-58 58.5t-20.5 88q0 30 7.5 53.5t20.5 41t29.5 30t33.5 20.5q40 19 91 23l-62 65q-29 30 -47 62.5t-18 73.5q0 79 61 127.5t187 48.5q120 0 185.5 -42
t65.5 -125q0 -30 -6.5 -53t-17.5 -40.5t-25 -30t-28 -21.5q-33 -20 -76 -25l171 -175q5 9 9 20q4 10 7 25t3 35q0 29 -6.5 48t-17.5 27q8 -1 22 -1q11 -1 30 -1h45h42t28 1q12 0 20 1v-6q0 -60 -13 -99.5t-28 -65.5q-9 -16 -20 -28t-20 -20q-11 -10 -21 -18l35 -36
q27 -28 43.5 -44t27.5 -25t18.5 -13.5t18.5 -10.5h-20zM436 532q0 48 -18 71.5t-63 23.5q-24 0 -38 -6t-22 -14.5t-10.5 -18.5t-2.5 -18q0 -19 10 -37t39 -48l66 -67q10 9 19 25q8 14 14 35.5t6 53.5zM245 311q-8 -10 -14 -23q-5 -11 -9.5 -29t-4.5 -41q0 -38 14 -62
t35 -37.5t44.5 -18t43.5 -4.5q24 0 40 2t27 4q11 3 19 6z" />
    <glyph glyph-name="quotesingle" unicode="'" horiz-adv-x="185" 
d="M138 489h-92l-14 242h121z" />
    <glyph glyph-name="parenleft" unicode="(" horiz-adv-x="322" 
d="M282 -214q-68 15 -121 74q-23 25 -44.5 61.5t-38.5 88.5t-27.5 120.5t-10.5 156.5t10.5 156.5t27.5 120t38.5 88t44.5 61.5q53 58 121 74q-30 -41 -53 -110q-20 -59 -36 -154t-16 -236t16 -236.5t36 -154.5q23 -70 53 -110z" />
    <glyph glyph-name="parenright" unicode=")" horiz-adv-x="322" 
d="M282 287q0 -88 -10.5 -156.5t-27.5 -120.5t-39 -88.5t-44 -61.5q-54 -59 -121 -74q29 40 52 110q20 59 36.5 154.5t16.5 236.5t-16.5 236t-36.5 154q-23 69 -52 110q67 -16 121 -74q22 -25 44 -61.5t39 -88t27.5 -120t10.5 -156.5z" />
    <glyph glyph-name="asterisk" unicode="*" horiz-adv-x="477" 
d="M362 429l-105 95l33 -145h-104l33 145l-104 -95l-48 81l137 45l-137 45l48 81l104 -94l-33 144h104l-33 -144l105 94l48 -81l-137 -45l137 -45z" />
    <glyph glyph-name="plus" unicode="+" horiz-adv-x="665" 
d="M382 306v-260h-100v260h-247v97h247v259h100v-259h247v-97h-247z" />
    <glyph glyph-name="comma" unicode="," horiz-adv-x="320" 
d="M271 56q0 -60 -22 -100.5t-56 -65t-73.5 -34.5t-74.5 -10q14 11 25 29q10 16 18 42t8 65q0 38 -10 64t-22 41q-14 18 -31 28l129 129q30 -14 54 -39q20 -22 37.5 -57.5t17.5 -91.5z" />
    <glyph glyph-name="hyphen" unicode="-" horiz-adv-x="341" 
d="M31 231v116h279v-116h-279z" />
    <glyph glyph-name="period" unicode="." horiz-adv-x="324" 
d="M294 105l-132 -132l-132 132l132 132z" />
    <glyph glyph-name="slash" unicode="/" horiz-adv-x="294" 
d="M123 -212h-103l152 1000h102z" />
    <glyph glyph-name="zero" unicode="0" horiz-adv-x="685" 
d="M645 334q0 -173 -74 -260t-230 -87t-228.5 85t-72.5 257q0 173 74 260t230 87t228.5 -85t72.5 -257zM431 333q0 63 -4 106.5t-14 70.5t-27 39.5t-43 12.5q-58 0 -75 -65q-8 -28 -11 -69t-3 -98q0 -63 4 -106.5t14 -70.5t27 -39.5t43 -12.5q53 0 72 53q10 28 13.5 72
t3.5 107z" />
    <glyph glyph-name="one" unicode="1" horiz-adv-x="476" 
d="M393 -1q-13 0 -32 1q-17 0 -43 0.5t-61 0.5q-36 0 -62 -0.5t-43 -0.5q-19 -1 -32 -1l9 17q5 9 9 17.5t6.5 22t4.5 34.5t3 56.5t1.5 87.5t0.5 127v146q0 11 -4.5 16t-21.5 5h-115q19 34 47.5 55.5t61.5 35t68.5 21t68.5 14.5t61.5 15t47.5 23q-3 -41 -5 -96
q-2 -47 -3 -114t-1 -154q0 -67 0.5 -113t1.5 -77.5t2.5 -50.5t4.5 -31.5t7 -21t9 -18.5l9 -17v0z" />
    <glyph glyph-name="two" unicode="2" horiz-adv-x="558" 
d="M472 156q20 11 27 17.5t9 8.5q0 -1 -1 -12t-2 -28.5t-2.5 -38.5t-1.5 -42l-1 -61h-490q0 38 5.5 68.5t18 56.5t32 49.5t47.5 47.5l98 87q27 24 43 44t24 37.5t10.5 33.5t2.5 33q0 12 -2.5 30t-13.5 34.5t-33 28t-60 11.5q-32 0 -53.5 -6.5t-38 -19t-30 -31t-29.5 -41.5
q0 12 1 26q0 12 0.5 29t0.5 39q0 26 -0.5 43.5t-0.5 28.5q-1 12 -1 19q20 8 48 14q24 5 61 10t88 5q84 0 138 -16t85.5 -43.5t43.5 -65t12 -79.5q0 -36 -8 -67.5t-26.5 -60t-48.5 -55t-73 -53.5l-63 -39q-24 -15 -39 -24.5t-23 -16.5t-10.5 -12t-2.5 -11h149q72 0 110 22z
" />
    <glyph glyph-name="three" unicode="3" horiz-adv-x="572" 
d="M522 139q0 -50 -15.5 -85t-41 -58t-57.5 -35.5t-64.5 -18.5t-62.5 -7.5t-51 -1.5q-47 0 -89.5 10.5t-74.5 31.5t-51.5 52t-19.5 72q14 -12 39 -22q20 -8 53 -14.5t80 -6.5q31 0 57.5 5t46.5 17t31.5 31.5t11.5 49.5q0 43 -23.5 70t-85.5 27q-29 0 -49.5 -4t-46.5 -17
q0 4 1 14q1 8 1.5 23t0.5 40q0 26 -0.5 41.5t-1.5 23.5q-1 10 -1 14q26 -12 47.5 -16.5t50.5 -4.5q36 0 57.5 10t33.5 25t15.5 32t3.5 31q0 32 -11.5 50.5t-28 28t-36.5 12t-36 2.5q-54 0 -88 -25.5t-66 -72.5q0 12 1 26q0 12 0.5 29t0.5 39q0 26 -0.5 43.5t-0.5 28.5
q-1 12 -1 19q18 8 47 14q24 5 62 10t91 5q132 0 200.5 -46.5t68.5 -131.5q0 -50 -17.5 -83t-44.5 -53.5t-60.5 -31t-65.5 -14.5q36 -2 70 -12t60.5 -31t43 -54t16.5 -81z" />
    <glyph glyph-name="four" unicode="4" 
d="M362 284v245q-39 -19 -67 -50.5t-46 -67t-27.5 -69.5t-11.5 -58h152zM660 140q-9 2 -21 5q-11 2 -26.5 4t-37.5 2h-10q0 -32 3.5 -69t18.5 -66l9 -17q-12 0 -30 1q-16 0 -41.5 0.5t-60.5 0.5q-36 0 -61.5 -0.5t-41.5 -0.5q-18 -1 -30 -1l9 17q14 26 18 63t4 72h-322
q0 48 10.5 106.5t34.5 119t63.5 118.5t98 105t137 78.5t181.5 38.5v-433h10q23 0 38.5 1.5t26.5 3.5q12 3 20 6q-1 -9 -1 -20v-59v-56q0 -11 1 -20z" />
    <glyph glyph-name="five" unicode="5" horiz-adv-x="605" 
d="M550 185q0 -74 -25 -123t-65.5 -77.5t-91.5 -40t-103 -11.5q-53 0 -98 11t-77.5 32.5t-51 52.5t-18.5 70q12 -12 34 -22q19 -8 51 -14.5t80 -6.5q49 0 78.5 13.5t45.5 33.5t20.5 41.5t4.5 38.5q0 59 -35 92.5t-119 33.5q-32 0 -53 -3t-34 -6q-15 -4 -24 -8v373h321
q45 0 71.5 1.5t40.5 3.5q17 3 23 6q-1 -7 -1 -18v-59v-64q0 -11 1 -19q-6 2 -23 5q-14 2 -40.5 4t-71.5 2h-185v-118q9 2 21 4q11 2 27.5 3.5t39.5 1.5q125 0 191 -59t66 -174z" />
    <glyph glyph-name="six" unicode="6" horiz-adv-x="676" 
d="M622 244q0 -50 -14 -95.5t-47.5 -81t-88 -56.5t-135.5 -21q-64 0 -110.5 15.5t-78.5 42.5t-51 62.5t-29.5 75.5t-14 82.5t-3.5 83.5q0 91 18.5 154t47.5 104.5t65.5 64.5t72.5 34.5t67.5 14t51.5 2.5q36 0 65 -6t51 -16.5t38 -23.5t27 -26q26 -32 35 -72q-11 9 -29 17
q-16 7 -43 12.5t-67 5.5q-54 0 -92 -16t-62.5 -50.5t-35.5 -89t-11 -131.5q0 -68 4.5 -112t15 -70t27.5 -36t43 -10q29 0 46 12.5t25.5 32t11 43t2.5 45.5q0 21 -1.5 44.5t-7.5 43t-19 32.5t-36 13q-25 0 -35.5 -8t-12.5 -10q0 31 11.5 52t29.5 33.5t41.5 17.5t47.5 5
q53 0 88 -19t55.5 -49t28.5 -68.5t8 -77.5z" />
    <glyph glyph-name="seven" unicode="7" horiz-adv-x="564" 
d="M549 669q0 -64 -17 -124t-51 -132l-70 -149q-24 -50 -37.5 -90.5t-20 -72.5t-8.5 -56t-2 -42q0 -19 2 -31t5 -20q3 -9 7 -15q-11 0 -28 1q-14 0 -35.5 0.5t-51.5 0.5q-29 0 -49.5 -0.5t-34.5 -0.5q-16 -1 -27 -1q0 40 4 77t16 77.5t33.5 87.5t56.5 109l69 120q9 16 19 33
t17.5 33.5t12.5 31t5 25.5l-198 1q-72 0 -110 -22q-20 -12 -27.5 -18.5t-8.5 -8.5q0 2 1.5 29.5t1.5 73.5q0 22 -0.5 39.5t-0.5 29.5q-1 14 -1 25q5 -3 22 -6q14 -2 41 -3.5t72 -1.5h393v0z" />
    <glyph glyph-name="eight" unicode="8" horiz-adv-x="663" 
d="M613 198q0 -102 -70 -157t-213 -55q-94 0 -149.5 17t-84.5 42.5t-37.5 56.5t-8.5 59q0 40 15 69t39.5 49t54.5 30.5t60 13.5l-42 24q-13 7 -32 20t-37 34t-30.5 51.5t-12.5 73.5q0 51 18 87.5t52 60.5t82 35.5t107 11.5q135 0 197.5 -42.5t62.5 -118.5q0 -36 -12 -62
t-32.5 -43.5t-46.5 -27t-53 -13.5l45 -25q33 -18 57 -37t40 -41t23.5 -49.5t7.5 -63.5zM424 536q0 39 -21 64t-78 25q-43 0 -63.5 -18t-20.5 -47q0 -30 18.5 -46t55.5 -37l71 -40q10 8 19 21q7 11 13 30t6 48zM424 168q0 17 -4 28.5t-12.5 21.5t-22.5 18.5t-33 19.5l-77 43
q-14 -8 -25 -22q-9 -12 -16.5 -32.5t-7.5 -49.5q0 -14 2.5 -31t13 -32t31.5 -25.5t57 -10.5q38 0 66 16t28 56z" />
    <glyph glyph-name="nine" unicode="9" horiz-adv-x="676" 
d="M618 318q0 -93 -18.5 -157.5t-47.5 -107t-65 -67t-71.5 -36t-67 -14.5t-51.5 -3q-80 0 -125.5 22.5t-67.5 50.5q-26 32 -33 73q12 -11 32 -19q17 -7 44 -12.5t68 -5.5q54 0 92.5 16t63.5 51.5t36.5 91.5t11.5 136q0 68 -4.5 112t-15 70t-28 36t-42.5 10q-29 0 -46 -12.5
t-25.5 -32t-11 -43t-2.5 -45.5q0 -21 1.5 -44.5t7.5 -43t19 -32.5t36 -13q24 0 35 7.5t13 9.5q0 -31 -11.5 -51.5t-30 -33t-41.5 -17.5t-47 -5q-53 0 -88 19t-55.5 49t-28.5 68.5t-8 77.5q0 49 14 95t47.5 81.5t88 56.5t135.5 21q64 0 110.5 -15.5t78.5 -41.5t51 -61.5
t29.5 -75.5t14 -82.5t3.5 -82.5z" />
    <glyph glyph-name="colon" unicode=":" horiz-adv-x="324" 
d="M294 105l-132 -132l-132 132l132 132zM294 466l-132 -132l-132 132l132 132z" />
    <glyph glyph-name="semicolon" unicode=";" horiz-adv-x="324" 
d="M271 56q0 -60 -22 -100.5t-56 -65t-73.5 -34.5t-74.5 -10q14 11 25 29q10 16 18 42t8 65q0 38 -10 64t-22 41q-14 18 -31 28l129 129q30 -14 54 -39q20 -22 37.5 -57.5t17.5 -91.5zM294 466l-132 -132l-132 132l132 132z" />
    <glyph glyph-name="less" unicode="&#x3c;" horiz-adv-x="665" 
d="M35 304v105l594 248v-111l-466 -190l466 -188v-112z" />
    <glyph glyph-name="equal" unicode="=" horiz-adv-x="665" 
d="M35 433v96h594v-96h-594zM35 176v97h594v-97h-594z" />
    <glyph glyph-name="greater" unicode="&#x3e;" horiz-adv-x="665" 
d="M36 56v112l466 188l-466 190v111l594 -248v-105z" />
    <glyph glyph-name="question" unicode="?" horiz-adv-x="527" 
d="M369 90l-137 -117l-137 117l137 117zM497 543q0 -29 -6.5 -53t-19 -46.5t-32 -45t-45.5 -48.5l-29 -29q-27 -27 -42 -43.5t-15 -36.5q0 -8 1 -12.5t3 -7.5q2 -4 5 -6h-161q-2 3 -3 7q-3 7 -3 26q0 25 9.5 50t32.5 53l55 65q16 19 27.5 41.5t11.5 56.5q0 18 -5 34t-17 28
t-33 19.5t-52 7.5q-30 0 -51 -6.5t-37.5 -19t-30.5 -31t-30 -41.5q0 12 1 27q0 13 0.5 30.5t0.5 39.5q0 26 -0.5 43.5t-0.5 28.5q-1 12 -1 19q19 8 47 14q24 5 60.5 10t87.5 5q46 0 94.5 -6t88 -24.5t64.5 -54t25 -94.5z" />
    <glyph glyph-name="at" unicode="@" horiz-adv-x="1041" 
d="M1006 383q0 -71 -15 -127.5t-40 -100t-57 -74t-65 -47.5q-53 -27 -106.5 -36.5t-97.5 -9.5t-64 15.5t-20 52.5q0 21 2.5 43t6 41t7 32.5t4.5 18.5q-22 -70 -46 -110t-48.5 -60.5t-49.5 -25.5t-49 -5q-32 0 -59.5 10.5t-48 36t-32.5 69t-12 108.5q0 30 4 69.5t15.5 81
t31 82t50.5 72.5t74 51.5t102 19.5q36 0 61 -7.5t41 -15.5q18 -11 29 -23l179 47q-4 -25 -10 -66q-5 -35 -14 -91.5t-20 -139.5l-31 -222q46 14 83 51q15 16 30 38.5t27 53.5t19 71t7 91q0 76 -20.5 135t-63 99.5t-108 61.5t-156.5 21q-67 0 -138 -20.5t-129.5 -70
t-96 -131.5t-37.5 -206q0 -82 14.5 -143.5t40.5 -104.5t61.5 -71t78 -44t89.5 -22t96 -6q75 0 132 10t98 25t68 33t43.5 34t23.5 27t8 13q0 -33 -18.5 -72.5t-61.5 -74t-115 -57.5t-180 -23q-112 0 -191.5 24t-134 62.5t-86.5 88t-49 101t-22 100t-5 86.5q0 102 25.5 184.5
t69.5 145t103 104.5t125 64q47 15 98.5 22t108.5 7q87 0 167 -24t141 -73t97 -123.5t36 -175.5zM587 461q-3 2 -9 4q-5 2 -13.5 3t-19.5 1q-29 0 -50 -13.5t-35 -35t-22 -49t-12.5 -55.5t-5.5 -53.5t-1 -43.5q0 -52 13 -71t39 -19q23 0 41.5 17t38.5 53z" />
    <glyph glyph-name="A" unicode="A" horiz-adv-x="716" 
d="M716 -1q-12 0 -32 1q-17 0 -45.5 0.5t-70.5 0.5q-43 0 -72.5 -0.5t-47.5 -0.5q-21 -1 -34 -1q10 7 21 21t11 42q0 26 -6.5 68.5t-20.5 98.5l-1 4h-198q-8 -45 -12 -86t-4 -75q0 -36 8.5 -51t18.5 -22q-13 0 -31 1q-16 0 -38.5 0.5t-52.5 0.5t-51.5 -0.5t-35.5 -0.5
q-17 -1 -27 -1q11 9 19.5 21t17.5 35q7 18 16.5 57t21 91t27.5 114.5t36.5 129.5t46.5 135t60 131q12 -1 30 -1q16 -1 40.5 -1h59.5h59.5t42.5 1q20 0 34 1l123 -477q13 -53 23.5 -91.5t20 -66t19.5 -47t24 -32.5zM347 568q-2 11 -4 22.5t-4 21.5q-2 11 -4 23
q-23 -47 -47.5 -124t-44.5 -163h151z" />
    <glyph glyph-name="B" unicode="B" horiz-adv-x="685" 
d="M444 229q0 40 -10.5 64t-28 37.5t-39.5 19t-46 8.5q13 3 31.5 8.5t35 19.5t28.5 40t12 69q0 36 -8.5 58t-24 34.5t-36.5 17t-46 4.5q-7 0 -13 -0.5t-11 -0.5q-6 -1 -11 -1v-501q3 -1 8 -1q5 -1 13.5 -1h22.5q27 0 45.5 4t27.5 9q6 4 14.5 10.5t16.5 18.5t13.5 32t5.5 51z
M652 198q0 -44 -12 -75.5t-31.5 -53t-43 -34.5t-45.5 -19q-41 -11 -89 -14t-115 -3q-14 0 -36.5 0.5t-46.5 0.5t-46.5 0.5t-36.5 0.5q-26 0 -45.5 -0.5t-32.5 -0.5q-15 -1 -26 -1l9 17q5 9 8.5 17.5t6.5 22t5 34.5t3 56.5t1.5 87.5t0.5 127q0 109 -1 169.5t-3.5 92t-7.5 45
t-13 28.5l-9 17q11 -1 25 -1q12 -1 29.5 -1h39.5q13 0 34 0.5t43.5 0.5t43.5 0.5t33 0.5q51 0 98.5 -1.5t89.5 -9.5q33 -6 60 -17.5t46.5 -30.5t30.5 -46t11 -65q0 -51 -14.5 -83t-35.5 -51t-45.5 -28t-44.5 -12q72 -4 117 -46t45 -125z" />
    <glyph glyph-name="C" unicode="C" horiz-adv-x="619" 
d="M589 22q-20 -9 -48 -15q-24 -5 -60.5 -9.5t-86.5 -4.5q-87 0 -154.5 20.5t-113.5 63.5t-69.5 109t-23.5 157q0 97 25 168t72.5 117.5t115.5 68.5t155 22q51 0 86.5 -5t58.5 -10q26 -6 43 -14q-1 -7 -1 -19q-1 -11 -1 -28.5v-43.5v-39t1 -29q0 -14 1 -26q-16 23 -32 41.5
t-35 31t-43 19t-57 6.5q-55 0 -89 -24t-52.5 -61.5t-25 -82.5t-6.5 -86q0 -123 45.5 -181.5t123.5 -58.5q33 0 57.5 7t44.5 20t36.5 31.5t32.5 41.5q-1 -10 -1 -24q-1 -13 -1 -32v-45v-40.5t1 -26.5q0 -12 1 -19z" />
    <glyph glyph-name="D" unicode="D" horiz-adv-x="759" 
d="M510 357q0 52 -7 97t-27 78t-56 52t-93 19q-11 0 -19.5 -0.5t-14.5 -1.5q-7 -1 -12 -1v-488q4 -1 11 -2q6 -1 15 -1h23q57 0 92 19.5t54.5 53t26.5 78.5t7 97zM726 366q0 -90 -19 -152t-51.5 -103t-75 -63.5t-89.5 -33.5t-95 -13.5t-91 -2.5q-15 0 -37.5 0.5t-45.5 1
t-44 1t-33 0.5q-24 0 -43 -0.5t-32 -0.5q-16 -1 -27 -1l9 17q5 9 9 17.5t6.5 22t4.5 34.5t3 56.5t1.5 87.5t0.5 127q0 109 -1 169.5t-3.5 92t-7.5 45t-13 28.5l-9 17q11 -1 26 -1q13 -1 31.5 -1h42.5q15 0 36.5 0.5t44 1t44.5 1t38 0.5q46 0 95 -2.5t95.5 -13.5t88.5 -32.5
t73 -60.5t49.5 -97t18.5 -142z" />
    <glyph glyph-name="E" unicode="E" horiz-adv-x="576" 
d="M541 202q-2 -18 -4 -41q-2 -20 -3.5 -47.5t-3.5 -62.5l-2 -38q-14 -4 -39 -8q-22 -3 -57 -5t-89 -2q-50 0 -85.5 2.5t-62 8.5t-46 15.5t-35.5 24.5q-19 17 -29.5 36.5t-16 43.5t-7 54t-1.5 68v198q0 38 1.5 69t7 56t16.5 45.5t30 37.5q16 15 35.5 25.5t46.5 17t63.5 10
t87.5 3.5t85.5 -2t55.5 -4q25 -3 38 -5q-1 -7 -1 -18v-59q0 -43 1 -63t1 -22q-1 1 -7 7.5t-23 18.5q-14 9 -44 19t-64 10q-32 0 -62.5 -6.5t-46.5 -31.5q-5 -8 -8 -16.5t-5 -21t-2.5 -29.5t-0.5 -42v-33h84q35 0 63.5 4t46.5 15q20 11 27 17.5t9 8.5q0 -1 -1.5 -24t-1.5 -80
q0 -53 1.5 -77t1.5 -26q-1 1 -8 7.5t-28 19.5q-18 11 -46.5 15t-63.5 4h-84v-40q0 -47 2.5 -69.5t12.5 -37.5q8 -13 20.5 -20t27.5 -10.5t31 -4.5t31 -1q30 0 52 6t39.5 17t31.5 27t28 36z" />
    <glyph glyph-name="F" unicode="F" horiz-adv-x="523" 
d="M510 631q0 -43 1 -63t1 -22q-1 1 -7 7.5t-23 18.5q-14 9 -34.5 16t-54.5 7q-14 0 -28.5 -1t-29 -5t-26.5 -11.5t-20 -20.5q-5 -8 -8 -16.5t-5 -21t-2.5 -29.5t-0.5 -42v-53h70q35 0 63.5 4t46.5 15q20 11 27 17.5t9 8.5q0 -1 -1.5 -24t-1.5 -80q0 -53 1.5 -77t1.5 -26
q-1 1 -8 7.5t-28 19.5q-18 11 -46.5 15t-63.5 4h-70q0 -76 1 -121t4 -71.5t8.5 -41t14.5 -28.5l11 -18q-13 0 -33 1q-17 0 -43.5 0.5t-63.5 0.5q-36 0 -62 -0.5t-43 -0.5q-19 -1 -32 -1l9 17q5 9 9 17.5t6.5 22t4.5 34.5t3 56.5t1.5 87.5t0.5 127v88q0 38 1.5 69t7 56
t16.5 45.5t30 37.5q16 15 35 25.5t45.5 17t62 10t85.5 3.5q46 0 76 -0.5t49 -1.5q21 -1 34 -1q-1 -8 -1 -19v-60v0z" />
    <glyph glyph-name="G" unicode="G" horiz-adv-x="701" 
d="M671 221q0 -56 -17 -95.5t-44 -65.5t-60 -40.5t-66 -21.5t-62 -8.5t-47 -1.5q-80 0 -137 19t-95 49.5t-60 69t-33 78t-14 76t-3 63.5q0 181 102.5 278.5t292.5 97.5q54 0 93 -5t65 -10q30 -6 49 -14q-1 -7 -1 -19q-1 -11 -1 -28.5v-43.5v-39t1 -29q0 -14 1 -26
q-18 25 -36 43t-39.5 29.5t-49.5 16.5t-66 5q-58 0 -96 -19.5t-60.5 -54t-31.5 -83.5t-9 -107q0 -54 5.5 -97.5t19 -74.5t37.5 -47.5t62 -16.5q15 0 33 4t33 15.5t25 32.5t10 55q0 92 -72 92q-14 0 -23.5 -3.5t-16.5 -7.5q-8 -4 -13 -10q0 17 6.5 38.5t23.5 40t47 31.5
t77 13q44 0 76 -13.5t53 -37.5t31 -57t10 -71z" />
    <glyph glyph-name="H" unicode="H" horiz-adv-x="775" 
d="M732 -1q-13 0 -32 1q-17 0 -43 0.5t-61 0.5q-36 0 -62 -0.5t-43 -0.5q-19 -1 -32 -1l9 17l8 16t6.5 19.5t4.5 29t3.5 45.5t2 69.5t0.5 100.5h-211q0 -89 1 -138.5t4 -76.5t7.5 -39t12.5 -26l9 -17q-13 0 -32 1q-17 0 -43 0.5t-61 0.5q-36 0 -62 -0.5t-43 -0.5
q-19 -1 -32 -1l9 17q5 9 9 17.5t6.5 22t4.5 34.5t3 56.5t1.5 87.5t0.5 127q0 109 -1 169.5t-3.5 92t-7.5 45t-13 28.5l-9 17q13 -1 32 -1q17 -1 42.5 -1h62.5h64.5t42.5 1q18 0 29 1l-9 -17q-7 -13 -11.5 -24.5t-7.5 -37.5t-4.5 -73t-1.5 -131h211q0 84 -1 131t-4 72.5
t-8 37t-12 25.5l-9 17q13 -1 32 -1q17 -1 42.5 -1h62.5h64.5t42.5 1q18 0 29 1l-9 -17q-5 -9 -9 -17.5t-6.5 -22t-4.5 -34.5t-3 -56.5t-1.5 -87.5t-0.5 -127q0 -109 1 -169.5t3.5 -92t7.5 -45t13 -28.5z" />
    <glyph glyph-name="I" unicode="I" horiz-adv-x="359" 
d="M316 -1q-13 0 -32 1q-17 0 -43 0.5t-61 0.5q-36 0 -62 -0.5t-43 -0.5q-19 -1 -32 -1l9 17l9 18t6.5 21.5t4.5 34.5t3 56.5t1.5 87.5t0.5 127q0 109 -1 169.5t-3.5 92t-7.5 45t-13 28.5l-9 17q12 -1 31 -1q17 -1 42.5 -1h62.5h64.5t42.5 1q18 0 30 1l-9 -17l-9 -18
t-6.5 -21.5t-4.5 -34.5t-3 -56.5t-1.5 -87.5t-0.5 -127q0 -109 1 -169.5t3.5 -92t7.5 -45t13 -28.5z" />
    <glyph glyph-name="J" unicode="J" horiz-adv-x="354" 
d="M310 696q-5 -9 -9 -17.5t-6.5 -21.5t-4.5 -35t-3 -58.5t-1.5 -92t-0.5 -135.5q0 -111 1 -176.5t3 -100.5q2 -41 4 -56q-10 -56 -42 -96.5t-75 -67t-90 -39.5t-86 -13q27 24 42.5 57t24 74t11 89t2.5 103v250q0 109 -1 169.5t-3.5 92.5t-7.5 45.5t-13 28.5l-9 17
q12 -1 31 -1q17 -1 42.5 -1h62.5h64.5t42.5 1q18 0 30 1z" />
    <glyph glyph-name="K" unicode="K" horiz-adv-x="734" 
d="M316 -1q-13 0 -32 1q-17 0 -43 0.5t-61 0.5q-36 0 -62 -0.5t-43 -0.5q-19 -1 -32 -1l9 17q5 9 9 17.5t6.5 22t4.5 34.5t3 56.5t1.5 87.5t0.5 127q0 109 -1 169.5t-3.5 92t-7.5 45t-13 28.5l-9 17q12 -1 31 -1q17 -1 42.5 -1h62.5h64.5t42.5 1q18 0 30 1l-9 -17
q-5 -9 -9 -17.5t-6.5 -22t-4.5 -34.5t-3 -56.5t-1.5 -87.5t-0.5 -127q0 -109 1 -169.5t3.5 -92t7.5 -45t13 -28.5zM727 -2q-13 0 -30 1q-14 0 -34.5 0.5t-45.5 0.5h-160q-3 25 -11 57q-7 26 -18.5 62t-30.5 78q-17 37 -35 64t-33 45q-18 21 -34 35q44 44 78 94q15 21 29 46
t25 52.5t17.5 56.5t6.5 59q0 31 -11 45t-19 19q16 -1 38 -2q19 -1 46 -1h62h64.5t48.5 1q24 1 42 2q-12 -8 -23 -16.5t-25 -25.5q-19 -23 -30 -52t-27 -64t-42.5 -76t-77.5 -88q14 -12 31 -30q14 -16 31.5 -41t36.5 -61q19 -37 30.5 -68t20.5 -57.5t17.5 -48.5t20.5 -41
q11 -16 21 -28.5t21 -17.5z" />
    <glyph glyph-name="L" unicode="L" horiz-adv-x="542" 
d="M522 199q-1 -14 -3 -36q-2 -19 -4 -48.5t-4 -73.5l-2 -41h-389q-20 0 -35 -0.5t-24 -0.5h-18l9 17q5 9 9 17.5t6.5 22t4.5 34.5t3 56.5t1.5 87.5t0.5 127q0 109 -1 169.5t-3.5 92t-7.5 45t-13 28.5l-9 17q12 -1 32 -1q17 -1 44 -1h66h64.5t42.5 1q18 0 29 1l-11 -18
q-9 -14 -14.5 -29t-8.5 -42t-4 -72.5t-1 -121.5v-314h63q46 0 74.5 5.5t46.5 16t30 26t26 35.5z" />
    <glyph glyph-name="M" unicode="M" horiz-adv-x="913" 
d="M870 -1q-12 0 -30 1q-16 0 -40.5 0.5t-60.5 0.5q-37 0 -62 -0.5t-41 -0.5q-18 -1 -30 -1l9 17q4 9 8 17t6.5 21.5t4.5 35t3.5 56.5t2 87.5t0.5 127.5v243q0 -3 -2.5 -15t-6 -28.5t-8 -33.5t-9.5 -29l-182 -420l-183 420q-5 11 -9.5 27.5t-8 32.5t-6 28.5t-2.5 16.5v-252
q0 -109 1 -169.5t3.5 -92t7.5 -45t13 -28.5l9 -17q-11 0 -27 1q-14 0 -33 0.5t-45 0.5q-29 0 -49 -0.5t-34 -0.5q-16 -1 -26 -1l9 17q4 9 8 17t6.5 21.5t4.5 35t3.5 56.5t2 87.5t0.5 127.5q0 109 -1 169.5t-3.5 92t-7.5 45t-13 28.5l-9 17q16 -1 40 -1q20 -1 51 -1h74h70.5
t44.5 1q19 0 30 1l79 -182q10 -23 15.5 -39.5t8.5 -27.5q4 -13 5 -21q0 8 4 20q3 11 8 27t16 39l80 184q8 -1 26 -1q15 -1 42 -1h70h73t51 1q24 0 39 1l-9 -17q-7 -13 -11.5 -26.5t-7.5 -46.5t-4.5 -96.5t-1.5 -175.5q0 -109 1 -169.5t3.5 -92t7.5 -45t13 -28.5z" />
    <glyph glyph-name="N" unicode="N" horiz-adv-x="766" 
d="M719 696q-7 -13 -11.5 -26.5t-7.5 -46.5t-4.5 -96.5t-1.5 -175.5v-352q-10 0 -24 1q-12 0 -31 0.5t-46 0.5q-29 0 -54 -0.5t-44 -0.5q-22 -1 -41 -1l-203 446q-13 28 -20.5 52t-8.5 27v-173q0 -109 1 -169.5t3.5 -92t7.5 -45t13 -28.5l9 -17q-10 0 -25 1q-13 0 -33 0.5
t-47 0.5q-29 0 -49.5 -0.5t-33.5 -0.5q-15 -1 -25 -1l9 17q4 9 8 17t6.5 21.5t4.5 35t3.5 56.5t2 87.5t0.5 127.5q0 109 -1 169.5t-3.5 92t-7.5 45t-13 28.5l-9 17q14 -1 34 -1q17 -1 44.5 -1h65.5h56.5t41.5 1q19 0 33 1l202 -444q8 -17 13 -31.5t9 -25.5q4 -13 7 -24v173
q0 109 -1 169.5t-3.5 92t-7.5 45t-13 28.5l-9 17q10 -1 25 -1q13 -1 32.5 -1h47.5h49.5t33.5 1q15 0 25 1z" />
    <glyph glyph-name="O" unicode="O" horiz-adv-x="745" 
d="M495 355q0 75 -11.5 122.5t-29.5 74.5t-39.5 39t-41.5 17q-20 -5 -41.5 -17t-39.5 -39.5t-30 -75t-12 -122.5t11.5 -122.5t29.5 -74.5t39.5 -39t41.5 -17q20 5 41.5 17t39.5 39.5t30 75t12 122.5zM712 355q0 -75 -17 -131.5t-44.5 -96.5t-63 -66.5t-73.5 -42.5t-75 -23.5
t-67 -9.5q-30 3 -67 9.5t-75 21.5t-73.5 40.5t-63 65.5t-44 97t-16.5 135q0 75 17 131.5t44.5 96.5t63 66.5t73.5 42.5t75 23t67 10q30 -3 67 -9.5t75 -21.5t73.5 -40.5t63 -65.5t44 -97t16.5 -135z" />
    <glyph glyph-name="P" unicode="P" horiz-adv-x="682" 
d="M652 490q0 -74 -19.5 -121t-50 -73.5t-67.5 -36.5t-72 -10q-23 0 -46 4.5t-41.5 15t-30 26.5t-11.5 39q3 -1 7 -1q5 -1 21 -1t33.5 5t32 20.5t23.5 44t9 75.5q0 69 -27.5 100.5t-86.5 31.5q-14 0 -23.5 -0.5t-14.5 -0.5h-9v-353q0 -68 1 -108t4 -64t8.5 -38t14.5 -28
l11 -18q-13 0 -32 1q-17 0 -43.5 0.5t-63.5 0.5q-36 0 -61.5 -0.5t-42.5 -0.5q-19 -1 -32 -1l9 17q5 9 8.5 17.5t6.5 22t5 34.5t3 56.5t1.5 87.5t0.5 127q0 109 -1 169.5t-3.5 92t-7.5 45t-13 28.5l-9 17q12 -1 28 -1q14 -1 33 -1h44q17 0 42.5 0.5t54 1l57 1t49.5 0.5
q23 0 54.5 -1.5t65 -8t66 -20t58 -38.5t41.5 -63t16 -93z" />
    <glyph glyph-name="Q" unicode="Q" horiz-adv-x="750" 
d="M497 355q0 63 -5.5 110t-19 77.5t-37 46t-59.5 15.5q-37 0 -60.5 -16t-37.5 -47.5t-19.5 -78.5t-5.5 -109q0 -64 5.5 -111.5t19 -78.5t37 -46t59.5 -15q37 0 60.5 16t37.5 47.5t19.5 79t5.5 110.5zM717 362q0 -148 -60.5 -241t-178.5 -121v-13q0 -46 1.5 -76t5 -50.5
t8 -33t10.5 -23.5l9 -17q-13 0 -32 1q-17 0 -42.5 0.5t-60.5 0.5q-36 0 -61.5 -0.5t-42.5 -0.5q-19 -1 -32 -1l9 17q6 11 10.5 23t8 31.5t5 49t1.5 75.5v15q-122 25 -182 112t-60 236q0 88 22 157.5t65 118t107 74t147 25.5q172 0 257.5 -92t85.5 -267z" />
    <glyph glyph-name="R" unicode="R" horiz-adv-x="677" 
d="M672 -1q-14 0 -32 1q-16 0 -39.5 0.5t-54.5 0.5q-26 0 -47.5 -0.5t-37.5 -0.5q-18 -1 -33 -1q2 3 5 7q2 4 3.5 9.5t1.5 13.5q0 49 -11 96t-30 88t-44 73t-53 52q13 3 35 8t43 20.5t36 45t15 81.5q0 36 -8.5 59t-24.5 36t-39 18t-51 5q-10 0 -16.5 -0.5t-10.5 -0.5
q-5 -1 -8 -1v-321q0 -59 0.5 -99.5t1.5 -68t3 -44t5 -27t6.5 -17.5t8.5 -16l9 -17q-14 0 -32 1q-17 0 -41 0.5t-58 0.5t-58 -0.5t-41 -0.5q-19 -1 -32 -1l9 17q5 9 8.5 17t6.5 21.5t5 35t3 56.5t1.5 87.5t0.5 127.5q0 109 -1 169.5t-3.5 92t-7.5 45t-13 28.5l-9 17
q13 -1 29 -1q14 -1 32.5 -1h40.5q13 0 35.5 0.5t46.5 0.5t46 0.5t34 0.5q64 0 123.5 -4.5t105 -23t72.5 -56.5t27 -105q0 -17 -4 -44t-18 -54.5t-41 -51t-73 -32.5q39 -15 63.5 -43t40 -62.5t24 -71.5t14 -69t10 -56t13.5 -33z" />
    <glyph glyph-name="S" unicode="S" horiz-adv-x="550" 
d="M515 205q0 -113 -71 -162.5t-198 -49.5q-48 0 -83.5 4.5t-59.5 9.5q-28 6 -49 15q0 8 1 20q0 11 0.5 27.5t0.5 40.5t-0.5 42.5t-0.5 31.5q-1 15 -1 26q29 -43 72 -70.5t103 -27.5q56 0 77.5 16t21.5 43q0 16 -5.5 26.5t-16.5 19.5t-26.5 17.5t-35.5 19.5l-68 37
q-31 17 -57 36.5t-45 44t-29.5 55.5t-10.5 71q0 64 22 106.5t59.5 68t88.5 36t110 10.5q48 0 84 -5t60 -10q28 -6 47 -14q-1 -8 -1 -20q-1 -11 -1 -26.5v-38.5v-45t1 -33q0 -16 1 -28q-17 27 -37.5 46t-43.5 31t-47 17.5t-47 5.5q-52 0 -80 -14.5t-28 -52.5q0 -17 6.5 -28.5
t17.5 -21t25 -17.5t30 -17l77 -42q61 -33 99 -79.5t38 -121.5z" />
    <glyph glyph-name="T" unicode="T" horiz-adv-x="611" 
d="M599 633q0 -43 1 -64.5t1 -23.5q-1 1 -7.5 8t-27.5 20q-18 11 -45.5 18t-62.5 7h-50v-247q0 -109 1 -169.5t3.5 -92t7.5 -45t13 -28.5l9 -17q-13 0 -32 1q-17 0 -43 0.5t-61 0.5q-36 0 -62 -0.5t-43 -0.5q-19 -1 -32 -1l9 17l9 18t6.5 21.5t4.5 34.5t3 56.5t1.5 87.5
t0.5 127v237h-50q-35 0 -62.5 -7t-45.5 -18q-20 -12 -27 -19t-8 -9q0 1 1 23t1 65q0 20 -0.5 35t-0.5 25v19h589q-1 -8 -1 -19v-60v0z" />
    <glyph glyph-name="U" unicode="U" horiz-adv-x="771" 
d="M719 696q-5 -9 -9 -17.5t-6.5 -22t-4.5 -34.5t-3 -56.5t-1.5 -87.5t-0.5 -127q0 -89 2.5 -144.5t7 -88.5t9.5 -48t11 -23q-33 -17 -79 -29q-40 -11 -98 -20t-136 -9q-116 0 -182.5 26.5t-99.5 71.5t-41.5 104.5t-8.5 125.5q0 29 1 69t2.5 80t2.5 75t1 54q0 15 -0.5 31
t-4 30.5t-12.5 26t-26 19.5q15 3 33 7q16 3 36.5 5.5t46.5 2.5q50 0 77.5 -8.5t41 -23.5t16.5 -35t3 -42q0 -46 -3.5 -106.5t-3.5 -130.5q0 -66 2 -115t13 -81.5t36 -49t70 -16.5q20 0 35 2t25 4q11 3 18 6v254q0 70 -0.5 118t-1.5 80.5t-2.5 52t-4.5 32t-7 20.5l-9 18
l-9 17q13 -1 32 -1q17 -1 42.5 -1h61.5h61.5t42.5 1q19 0 33 1z" />
    <glyph glyph-name="V" unicode="V" horiz-adv-x="712" 
d="M717 713q-11 -9 -19.5 -21t-17.5 -35q-8 -19 -16 -57.5t-19 -90.5t-26 -114.5t-34.5 -129.5t-45.5 -135t-59 -131q-14 0 -33 1q-17 0 -42.5 0.5t-60.5 0.5t-61 -0.5t-43 -0.5q-20 -1 -35 -1l-128 477q-14 52 -25 91t-21.5 66.5t-21 46.5t-24.5 33q12 -1 32 -1
q17 -1 45.5 -1h70.5h72.5t47.5 1q21 0 34 1q-10 -7 -21 -21t-11 -42q0 -26 9 -68.5t23 -98.5l77 -327q2 -11 4.5 -22.5t4.5 -21.5q2 -11 3 -23q20 44 42 113.5t41 147.5t31 155t12 135q0 36 -8.5 51t-18.5 22q14 -1 32 -1q16 -1 39.5 -1h53.5h51.5t36.5 1q17 0 29 1z" />
    <glyph glyph-name="W" unicode="W" horiz-adv-x="1128" 
d="M1128 713q-11 -9 -19.5 -21t-17.5 -35q-8 -19 -15.5 -57t-16.5 -90t-21 -114.5t-28 -129t-37 -135t-48 -132.5q-9 0 -27 1q-15 0 -39.5 0.5t-59.5 0.5t-59.5 -0.5t-40.5 -0.5q-18 -1 -31 -1l-89 435q-6 29 -9 51t-3 28q-1 -5 -3.5 -25.5t-9.5 -54.5l-84 -434q-14 0 -33 1
q-17 0 -41.5 0.5t-59.5 0.5t-61 -0.5t-43 -0.5q-20 -1 -35 -1l-115 477q-13 53 -23.5 91.5t-21 66.5t-22 46.5t-25.5 32.5q14 -1 35 -1q18 -1 45 -1h65h70t49 1q23 0 39 1q-10 -7 -21 -21t-11 -42q0 -26 7 -68t18 -99l62 -325q2 -11 3 -22t3 -21q2 -11 3 -22q1 10 3 21
q3 18 8 43l108 556q11 -1 28 -1q14 -1 34.5 -1h48.5h49t35 1q17 0 28 1l112 -545q2 -11 4 -24t4 -24q3 -13 5 -27q9 27 19.5 67.5t20 89t18.5 101.5t16 103.5t11 96t4 78.5q0 42 -8.5 59.5t-18.5 24.5q14 -1 32 -1q16 -1 39.5 -1h53.5h51.5t36.5 1q17 0 29 1z" />
    <glyph glyph-name="X" unicode="X" horiz-adv-x="727" 
d="M754 -1q-18 0 -44 1q-22 0 -54.5 0.5t-75.5 0.5q-38 0 -67 -0.5t-49 -0.5q-24 -1 -40 -1q19 16 19 39q0 10 -2 19t-7.5 20.5t-15.5 27.5t-26 40l-66 102q-23 -29 -41 -61q-15 -27 -27.5 -61t-12.5 -69q0 -26 5 -37.5t15 -19.5q-17 0 -37 1q-17 0 -41 0.5t-52 0.5
q-30 0 -56 -0.5t-46 -0.5q-23 -1 -43 -1q11 8 21 17t23 27q10 15 22 37t25.5 49t29.5 57t36 60q18 28 36 50.5t32 37.5q17 18 32 31l-123 187q-26 39 -44 65.5t-32.5 44.5t-27.5 30t-28 21q17 -1 43 -1q22 -1 54 -1h75h67t49 1q24 0 42 1q-19 -16 -19 -39q0 -10 2 -19
t7.5 -20.5t15.5 -27.5t26 -40l52 -80q19 24 35 52q14 24 25 54.5t11 63.5q0 26 -5 37.5t-15 19.5q16 -1 35 -1q17 -1 39.5 -1h51.5h55t45 1q22 0 40 1q-11 -8 -21 -17t-23 -27q-21 -30 -44 -81.5t-62 -112.5q-18 -29 -34.5 -48.5t-28.5 -32.5q-14 -15 -26 -25l138 -210
q26 -39 44 -65.5t32.5 -44.5t27.5 -30t28 -21z" />
    <glyph glyph-name="Y" unicode="Y" horiz-adv-x="702" 
d="M712 713q-11 -9 -19 -21t-18 -35q-10 -24 -26 -71t-41.5 -104.5t-61.5 -120t-86 -117.5q0 -57 1 -94.5t3.5 -62t7.5 -40.5t13 -31l9 -17q-14 0 -34 1q-17 0 -43 0.5t-61 0.5t-61 -0.5t-43 -0.5q-20 -1 -35 -1l9 17q7 13 11.5 28.5t7.5 39t4.5 59t1.5 89.5l-145 280
q-32 63 -51 98t-31 54.5t-21.5 29t-22.5 19.5q16 -1 38 -1q19 -1 47.5 -1h68.5h70t49 1q23 0 38 1q-12 -11 -17.5 -23t-5.5 -24t1 -21.5t5.5 -22.5t13.5 -34t26 -57l65 -142q13 16 29.5 48t31.5 69t25 75.5t10 68.5q0 29 -8.5 42.5t-18.5 20.5q16 -1 36 -1q17 -1 41 -1h55
h57t42 1q19 0 33 1z" />
    <glyph glyph-name="Z" unicode="Z" horiz-adv-x="637" 
d="M607 204q-3 -29 -7 -59q-3 -26 -5.5 -56t-4.5 -59l-2 -30h-558v18q0 76 24 138.5t79 130.5l153 190q20 25 32.5 41.5t20 29.5t10.5 23t3 21h-155q-35 0 -63.5 -6.5t-46.5 -17.5q-20 -12 -27.5 -18.5t-8.5 -8.5q0 1 1.5 20.5t1.5 69.5q0 20 -0.5 35.5t-0.5 25.5
q-1 11 -1 20h532v-18q0 -38 -6 -72t-18.5 -66.5t-32 -64.5t-46.5 -66l-153 -190q-20 -25 -32.5 -41.5t-20 -29.5t-10.5 -23t-3 -21h168q46 0 74.5 5.5t46.5 16t30 26.5t26 36z" />
    <glyph glyph-name="bracketleft" unicode="[" horiz-adv-x="339" 
d="M274 -213q-3 2 -9 4q-5 2 -14.5 3.5t-23.5 1.5h-157v982h157q14 0 23.5 1t14.5 3q6 2 9 5q-1 -5 -1 -12v-35v-37q0 -7 1 -12q-3 2 -9 4q-5 2 -14.5 3.5t-23.5 1.5h-36v-826h36q14 0 23.5 1t14.5 3q6 2 9 5q-1 -5 -1 -12v-37v-35q0 -7 1 -12z" />
    <glyph glyph-name="backslash" unicode="\" horiz-adv-x="294" 
d="M171 -212l-151 1000h102l152 -1000h-103z" />
    <glyph glyph-name="bracketright" unicode="]" horiz-adv-x="339" 
d="M112 -204q-15 0 -24 -1.5t-14 -3.5q-6 -2 -9 -4v12q0 6 0.5 14.5t0.5 20.5q0 13 -0.5 22t-0.5 15v12q3 -3 9 -5q5 -2 14 -3t24 -1h36v826h-36q-15 0 -24 -1.5t-14 -3.5q-6 -2 -9 -4v12q0 6 0.5 15t0.5 22q0 11 -0.5 20t-0.5 15v12q3 -3 9 -5q5 -2 14 -3t24 -1h157v-982
h-157z" />
    <glyph glyph-name="asciicircum" unicode="^" horiz-adv-x="665" 
d="M576 313h-112l-131 326l-132 -326h-111l190 454h105z" />
    <glyph glyph-name="underscore" unicode="_" horiz-adv-x="500" 
d="M0 -155v53h500v-53h-500z" />
    <glyph glyph-name="grave" unicode="`" horiz-adv-x="520" 
d="M381 623q-23 4 -48 13q-21 8 -47.5 20.5t-53.5 33.5q-30 23 -48.5 42.5t-28.5 33.5q-11 17 -16 30h174l68 -173v0z" />
    <glyph glyph-name="a" unicode="a" horiz-adv-x="629" 
d="M595 17l-225 -25l5 120q-10 -41 -28.5 -65t-41 -37t-48 -16.5t-49.5 -3.5q-52 0 -86 16.5t-54 42t-28 57.5t-8 62q0 67 25.5 104.5t62.5 56t78.5 22.5t73.5 4q21 0 38.5 -1t29.5 -3q14 -2 26 -3v19q0 23 -3 43.5t-17 35.5q-12 13 -35 20.5t-67 7.5q-39 0 -82.5 -14.5
t-73.5 -50.5q0 9 1 20q1 10 1.5 24t0.5 31q0 19 -0.5 33t-1.5 23q-1 11 -2 18q20 8 52 15q27 6 68.5 11t98.5 5q51 0 87.5 -5.5t62 -14.5t42 -21t26.5 -24q28 -34 33.5 -78.5t5.5 -94.5v-47.5t-0.5 -36t-0.5 -38.5v-53q0 -55 5.5 -86t18.5 -56zM367 263q-3 0 -8 1t-12.5 1.5
t-18.5 0.5q-12 0 -28.5 -1.5t-31.5 -10t-25.5 -25.5t-10.5 -48q0 -44 21.5 -63.5t50.5 -19.5q18 0 29.5 3.5t19.5 8.5q9 5 14 12v141z" />
    <glyph glyph-name="b" unicode="b" horiz-adv-x="675" 
d="M642 301q0 -90 -20 -150t-54 -96t-79 -51t-94 -15q-41 0 -69 7.5t-47 17.5q-22 11 -36 25l-190 -52q2 20 4 57q2 32 3.5 85t1.5 134v252q0 65 -1.5 105t-5 64t-8 37t-10.5 24l-9 17l240 25q-1 -30 -2 -62q-1 -28 -1 -61.5v-68.5v-476q5 -6 14 -10q8 -4 19.5 -6.5
t28.5 -2.5q27 0 46.5 9.5t32.5 33t19 63.5t6 100q0 57 -4.5 94.5t-14 59.5t-24 30.5t-33.5 8.5q-26 0 -38 -10.5t-13 -12.5q0 38 14.5 60.5t36 34.5t46 15.5t44.5 3.5q16 0 37 -2.5t42.5 -12t43 -28t38 -50.5t26.5 -80t10 -116z" />
    <glyph glyph-name="c" unicode="c" horiz-adv-x="530" 
d="M377 111q37 0 62 8t40.5 18.5t22.5 19.5t8 11q0 -30 -10.5 -61.5t-35.5 -58t-65.5 -43.5t-100.5 -17q-74 0 -125 22.5t-82.5 61.5t-45.5 91.5t-14 112.5q0 155 73.5 234t216.5 79q49 0 83.5 -6t55.5 -14q25 -9 40 -19q-1 -9 -1 -21q-1 -11 -1 -26v-36v-42t1 -33
q0 -17 1 -31q-21 36 -39.5 58t-35 33t-32.5 14.5t-33 3.5q-36 0 -59 -15t-36 -39.5t-18 -56t-5 -65.5q0 -36 5 -69t20 -58.5t41.5 -40.5t68.5 -15z" />
    <glyph glyph-name="d" unicode="d" horiz-adv-x="674" 
d="M643 11q-28 -4 -67 -8q-33 -3 -81 -5.5t-110 -2.5q-35 0 -75 1.5t-79 10t-75 26.5t-63.5 50t-43.5 80.5t-16 119.5q0 21 2.5 52t11.5 65t27.5 68t51 61t81 44t118.5 17q20 0 34.5 -1t25.5 -2q12 -1 21 -2q0 39 -2 65t-5.5 43.5t-8 29.5t-9.5 22l-9 17l240 25
q-1 -33 -2 -68q-1 -30 -1 -68v-76v-317q0 -65 1.5 -105t5 -64t8 -37t10.5 -24zM406 474q-3 1 -8 2t-12 1.5t-17 0.5q-21 0 -43 -5t-40 -24t-30 -57.5t-12 -104.5q0 -60 11 -96t28.5 -55t40 -24.5t45.5 -5.5h15t12 1l10 2v365z" />
    <glyph glyph-name="e" unicode="e" horiz-adv-x="597" 
d="M566 413q0 -18 -2.5 -38t-11 -39.5t-24 -38t-41.5 -32t-64 -22t-91 -8.5q-23 0 -40 1t-29 3q-14 2 -24 5q0 -16 4.5 -39.5t20 -45t45 -37t80.5 -15.5t83.5 8t51 18.5t26.5 19.5t9 11q0 -32 -12.5 -63.5t-41 -56.5t-73.5 -40.5t-110 -15.5q-81 0 -137 22.5t-90 62t-49 93
t-15 115.5q0 69 13.5 119t36 84.5t51 55.5t58.5 32.5t59 15t53 3.5q14 0 39 -0.5t54.5 -5t60 -15t55 -30t40 -50.5t15.5 -77zM375 417q0 13 -3 27t-10 25t-19.5 18t-31.5 7q-29 0 -44.5 -12t-23 -32.5t-9 -48.5t-1.5 -60q4 -2 12 -3q7 -1 17 -1.5t26 -0.5q44 0 65.5 16.5
t21.5 64.5z" />
    <glyph glyph-name="f" unicode="f" horiz-adv-x="396" 
d="M312 -1q-13 0 -32 1q-17 0 -43.5 0.5t-63.5 0.5q-36 0 -62 -0.5t-43 -0.5q-20 -1 -33 -1l10 17q6 11 11 21.5t8 35t4.5 70.5t1.5 128v182h-66q33 29 49.5 62t16.5 92v180h336q-1 -6 -1 -16v-51v-47q0 -10 1 -17q-8 6 -21 10q-11 4 -29.5 7.5t-47.5 3.5h-35v-123h35
q29 0 47.5 1.5t29.5 3.5q13 3 21 6q-1 -6 -1 -15v-51v-52q0 -9 1 -14q-8 2 -21 5q-11 2 -30 4t-47 2h-35v-165q0 -76 1 -121t4 -71.5t8.5 -41t14.5 -28.5l11 -18v0z" />
    <glyph glyph-name="g" unicode="g" horiz-adv-x="594" 
d="M522 354q0 -52 -17.5 -83.5t-43 -50.5t-54.5 -28.5t-53 -16.5q-15 -5 -21 -10.5t-6 -15.5q0 -13 7.5 -18.5t27.5 -5.5h15q29 0 65 -2.5t67.5 -16t53 -42.5t21.5 -83q0 -39 -11 -74t-43 -62t-90.5 -43t-152.5 -16q-283 0 -283 119q0 31 15.5 49t40 27t54.5 11.5t60 2.5
q-11 -8 -18.5 -18.5t-7.5 -28.5q0 -15 5.5 -27t20 -20.5t40 -13.5t64.5 -5q30 0 57 2t47.5 9t32 19t11.5 32q0 14 -6 22t-15 12t-21 5t-24 1h-54q-27 0 -55.5 2.5t-52 14t-38.5 35t-15 64.5q0 30 12 50.5t29.5 34.5t38 23t37.5 16q28 11 44 26.5t24 34.5t10.5 41.5t2.5 48.5
q0 41 -6.5 65.5t-17 37t-25.5 16.5t-31 4q-41 0 -59 -29.5t-18 -94.5q0 -37 4.5 -61.5t11.5 -41t15.5 -26.5t15.5 -19q-14 0 -35 0.5t-45 4.5t-48 13.5t-43 28t-31 47.5t-12 72q0 98 64 147.5t174 49.5q26 0 46 -2.5t34 -4.5q16 -4 26 -7h85q29 0 54.5 1.5t43.5 3.5
q21 3 38 6q-1 -6 -1 -15v-50v-49q0 -9 1 -13q-11 2 -24 5q-11 2 -28 4t-37 2h-19q1 -1 8 -7.5t15.5 -20.5t15.5 -36t7 -52z" />
    <glyph glyph-name="h" unicode="h" horiz-adv-x="688" 
d="M656 -1q-13 0 -32 1q-17 0 -42.5 0.5t-60.5 0.5q-36 0 -61.5 -0.5t-42.5 -0.5q-19 -1 -32 -1l9 17q6 11 10.5 21.5t8 35t5 70t1.5 127.5q0 45 -1 74t-2.5 47t-4 28t-6.5 17q-6 11 -19.5 21t-43.5 10q-23 0 -37 -5.5t-22 -12.5q-10 -8 -13 -18v-160q0 -81 1.5 -127t5 -71
t8 -35.5t10.5 -21.5l9 -17q-13 0 -32 1q-17 0 -42.5 0.5t-60.5 0.5q-36 0 -61.5 -0.5t-42.5 -0.5q-19 -1 -32 -1l9 17q6 11 10.5 21.5t8 35.5t5 71t1.5 127v244q0 65 -1.5 105t-5 64t-8 37t-10.5 24l-9 17l240 25q-1 -30 -2 -62q-1 -28 -1 -61.5v-68.5v-44q0 -23 -1 -42.5
t-3 -34.5q-2 -18 -4 -33q19 80 62 114.5t117 34.5q59 0 96 -18.5t57 -53.5q9 -16 14.5 -33.5t8.5 -41.5t4 -56t1 -76v-40q0 -82 1.5 -128t5 -70.5t8 -35t10.5 -21.5z" />
    <glyph glyph-name="i" unicode="i" horiz-adv-x="340" 
d="M319 30q-11 -10 -29 -18q-16 -7 -42 -12.5t-65 -5.5q-42 0 -65.5 11.5t-35 28.5t-13.5 36.5t-2 36.5q0 43 1.5 99.5t1.5 107.5q0 65 -1.5 105t-5 64t-8 37t-10.5 24l-9 17l246 25q-3 -23 -5 -62q-2 -33 -3 -87.5t-1 -135.5v-97q0 -44 1.5 -73.5t6 -49t14 -31.5t24.5 -20z
M316 694l-144 -113l-144 113l144 113z" />
    <glyph glyph-name="j" unicode="j" horiz-adv-x="338" 
d="M285 586q-4 -20 -7 -61q-3 -35 -5 -96.5t-2 -159.5q0 -90 1 -143t3 -80q2 -33 4 -43q-10 -56 -41.5 -96.5t-73.5 -67t-88.5 -39.5t-85.5 -13q27 24 42.5 57t24 74t11 89t2.5 103v204q0 65 -1.5 105t-5 64t-8 37t-10.5 24l-9 17zM316 694l-144 -113l-144 113l144 113z" />
    <glyph glyph-name="k" unicode="k" horiz-adv-x="676" 
d="M304 -1q-13 0 -32 1q-17 0 -42.5 0.5t-60.5 0.5q-36 0 -61.5 -0.5t-42.5 -0.5q-19 -1 -32 -1l9 17q6 11 10.5 21.5t8 35.5t5 71t1.5 127v244q0 65 -1.5 105t-5 64t-8 37t-10.5 24l-9 17l240 25q-1 -33 -2 -68q-1 -30 -1 -68v-76v-304q0 -69 1 -112t3.5 -70t7.5 -42.5
t13 -30.5zM640 -1q-20 0 -41.5 0.5t-38.5 0.5h-138q-2 34 -7 67q-5 29 -15 62.5t-28 62.5q-31 49 -57.5 71t-29.5 24q2 1 14.5 12t29.5 29t37 41.5t36.5 49.5t27.5 53.5t11 53.5q0 27 -7.5 38t-12.5 15q22 -1 44 -1q19 -1 40.5 -1h38.5h47.5t44.5 1q23 0 45 1
q-8 -6 -18.5 -15t-21.5 -23q-14 -17 -26.5 -41.5t-32 -54t-49 -61.5t-76.5 -65q23 -7 46 -24q20 -14 42.5 -39t40.5 -66q12 -27 19.5 -48.5t14 -39.5t13.5 -34t17 -32q8 -12 16 -21.5t19 -15.5h-45z" />
    <glyph glyph-name="l" unicode="l" horiz-adv-x="337" 
d="M316 30q-9 -10 -27 -18q-15 -7 -39.5 -12.5t-59.5 -5.5q-47 0 -72.5 11.5t-37.5 28.5t-14 36.5t-2 36.5q0 82 1.5 140t1.5 100v168q0 65 -1.5 105t-5 64t-8 37t-10.5 24l-9 17l240 25q-1 -30 -2 -62q-1 -28 -1 -61.5v-68.5v-391q0 -44 1.5 -73.5t6 -49t14 -31.5t24.5 -20
z" />
    <glyph glyph-name="m" unicode="m" horiz-adv-x="1043" 
d="M1011 -1q-13 0 -32 1q-17 0 -42.5 0.5t-60.5 0.5q-36 0 -61.5 -0.5t-42.5 -0.5q-19 -1 -32 -1l9 17q6 11 10.5 21.5t8 35t5 70t1.5 127.5q0 45 -1 74t-2.5 47t-4 28t-6.5 17q-6 11 -19.5 21t-45.5 10q-19 0 -32 -5t-21.5 -11.5t-13 -14t-6.5 -12.5q2 -22 2.5 -49.5
t0.5 -63.5v-40q0 -82 1.5 -128t5 -70.5t8 -35t10.5 -21.5l9 -17q-13 0 -32 1q-17 0 -42.5 0.5t-60.5 0.5q-36 0 -61.5 -0.5t-42.5 -0.5q-19 -1 -32 -1l9 17q6 11 10.5 21.5t8 35t5 70t1.5 127.5q0 45 -1 74t-2.5 47t-4 28t-6.5 17q-6 11 -19.5 21t-43.5 10q-23 0 -37 -5.5
t-22 -12.5q-10 -8 -13 -18v-160q0 -81 1.5 -127t5 -71t8 -35.5t10.5 -21.5l9 -17q-13 0 -32 1q-17 0 -42.5 0.5t-60.5 0.5q-36 0 -61.5 -0.5t-42.5 -0.5q-19 -1 -32 -1l9 17q6 11 10.5 21.5t8 35t5 70.5t1.5 128v43q0 65 -1.5 105t-5 64t-8 37t-10.5 24l-9 17l234 25
l-5 -145q17 80 61 114.5t118 34.5q73 0 117.5 -31t56.5 -103q20 72 63.5 103.5t114.5 31.5q59 0 96 -18.5t57 -53.5q9 -16 14.5 -33.5t8.5 -41.5t4 -56t1 -76v-41q0 -82 1.5 -128t5 -70.5t8 -35t10.5 -21.5z" />
    <glyph glyph-name="n" unicode="n" horiz-adv-x="691" 
d="M659 -1q-13 0 -32 1q-17 0 -42.5 0.5t-60.5 0.5q-36 0 -61.5 -0.5t-42.5 -0.5q-19 -1 -32 -1l9 17q6 11 10.5 21.5t8 35t5 70t1.5 127.5q0 45 -1 74t-2.5 47t-4 28t-6.5 17q-6 11 -19.5 21t-43.5 10q-23 0 -37 -5.5t-22 -12.5q-10 -8 -13 -18v-160q0 -81 1.5 -127t5 -71
t8 -35.5t10.5 -21.5l9 -17q-13 0 -32 1q-17 0 -42.5 0.5t-60.5 0.5q-36 0 -61.5 -0.5t-42.5 -0.5q-19 -1 -32 -1l9 17q6 11 10.5 21.5t8 35t5 70.5t1.5 128v43q0 65 -1.5 105t-5 64t-8 37t-10.5 24l-9 17l234 25l-5 -145q17 80 61 114.5t118 34.5q59 0 96 -18.5t57 -53.5
q9 -16 14.5 -33.5t8.5 -41.5t4 -56t1 -76v-40q0 -82 1.5 -128t5 -70.5t8 -35t10.5 -21.5z" />
    <glyph glyph-name="o" unicode="o" horiz-adv-x="661" 
d="M420 290q0 56 -8.5 91.5t-21 55.5t-28.5 29t-31 13q-15 -4 -30.5 -13t-29 -29.5t-22 -56t-8.5 -91.5t8.5 -91.5t21 -55.5t28.5 -29t31 -13q15 4 30.5 13t29 29.5t22 56t8.5 91.5zM630 290q0 -62 -20 -115.5t-58 -93.5t-94 -65t-128 -31q-78 7 -134.5 32t-93 65t-54 92.5
t-17.5 114.5t20 115.5t58 93.5t94 65t128 31q78 -7 134.5 -32t93 -65t54 -92.5t17.5 -114.5z" />
    <glyph glyph-name="p" unicode="p" horiz-adv-x="674" 
d="M430 297q0 60 -11 96t-28.5 55t-40 24.5t-45.5 5.5q-9 0 -15.5 -0.5t-11.5 -1.5t-10 -1v-365q3 -1 8 -2t11.5 -1.5t17.5 -0.5q21 0 43 5t40 24t30 57.5t12 104.5zM641 302q0 -21 -2.5 -52t-11.5 -65t-27.5 -68t-51 -61t-81.5 -44t-118 -17q-20 0 -34.5 0.5t-25.5 1.5
q-12 1 -21 3q0 -53 1.5 -86.5t5 -54t8 -32.5t10.5 -23l9 -17q-13 0 -32 1q-17 0 -42.5 0.5t-60.5 0.5q-36 0 -61.5 -0.5t-42.5 -0.5q-19 -1 -32 -1l9 17q6 11 10.5 21.5t8 35.5t5 71t1.5 127v268q0 65 -1.5 105t-5 64t-8 37t-10.5 24l-9 17q28 4 67 8q33 3 80.5 5.5
t110.5 2.5q35 0 75 -1.5t79 -10t75 -26.5t63.5 -50t43.5 -80.5t16 -119.5z" />
    <glyph glyph-name="q" unicode="q" horiz-adv-x="677" 
d="M647 -213q-13 0 -32 1q-17 0 -42.5 0.5t-60.5 0.5q-36 0 -61.5 -0.5t-42.5 -0.5q-19 -1 -32 -1l9 17q6 11 10.5 23t8 33.5t5 57.5t1.5 95v447q-5 5 -14 9q-8 4 -19.5 7t-28.5 3q-27 0 -46.5 -9.5t-32.5 -33t-19 -63.5t-6 -100q0 -57 4.5 -94.5t14 -59.5t24 -30.5
t33.5 -8.5q13 0 22.5 3t15.5 7t9 7.5t4 4.5q0 -38 -14.5 -60.5t-36 -34t-46 -15t-44.5 -3.5q-16 0 -37 2.5t-42.5 12t-43 28t-38 50.5t-26.5 80t-10 116q0 90 20 150t54 96t79 51t94 15q40 0 68.5 -8t47.5 -17q22 -11 36 -25l190 52q-3 -20 -5 -57q-2 -32 -3 -85t-1 -134
v-257q0 -81 1.5 -127t5 -71t8 -35.5t10.5 -21.5l9 -17v0z" />
    <glyph glyph-name="r" unicode="r" horiz-adv-x="476" 
d="M476 375q-26 48 -60 73t-81 25q-14 0 -25.5 -2.5t-19.5 -5.5q-10 -4 -17 -8v-186q0 -82 2 -128t5.5 -70.5t9 -35t11.5 -20.5l11 -18q-14 0 -34 1q-17 0 -44 0.5t-62 0.5q-36 0 -61.5 -0.5t-42.5 -0.5q-19 -1 -32 -1l9 17q6 11 10.5 21.5t8 35t5 70.5t1.5 128v45
q0 81 -1.5 134t-3.5 85q-2 37 -4 57l186 -38q16 10 36 18q17 7 42.5 12.5t59.5 5.5q18 0 34.5 -3t29.5 -6q15 -4 27 -9q-1 -8 -1 -21q-1 -11 -1 -29v-44v-47.5t1 -31.5q0 -15 1 -24z" />
    <glyph glyph-name="s" unicode="s" horiz-adv-x="494" 
d="M461 169q0 -84 -55.5 -131t-165.5 -47q-52 0 -87 5t-57 11q-26 7 -40 16q0 7 1 19q0 10 0.5 26.5t0.5 40.5q0 23 -0.5 40.5t-0.5 28.5q-1 13 -1 22q31 -50 64.5 -72.5t87.5 -22.5q39 0 57 10t18 31q0 20 -14 31t-44 25l-70 32q-29 13 -51.5 28.5t-38 36t-24 46t-8.5 59.5
q0 87 59 136t176 49q49 0 85.5 -5.5t60.5 -11.5q28 -7 47 -16q-1 -6 -1 -17q-1 -9 -1 -24.5v-38.5v-44t1 -30q0 -14 1 -24q-18 32 -37.5 51t-40 29t-42.5 13t-45 3q-42 0 -60.5 -12t-18.5 -33q0 -20 11 -30.5t35 -21.5l74 -35q57 -27 90.5 -65.5t33.5 -107.5z" />
    <glyph glyph-name="t" unicode="t" horiz-adv-x="425" 
d="M425 130q0 -26 -10 -51.5t-31 -45t-55 -31.5t-82 -12q-63 0 -98.5 18t-54.5 43q-18 24 -25 65t-7 95v106.5t1 78.5q1 38 2 66h-65l24 27q12 14 29 34t38 48q19 25 34.5 47.5t27.5 39.5q13 20 25 38h89v-121h52q31 0 50 1.5t30 3.5q12 3 18 6q-1 -5 -1 -15v-52v-52
q0 -10 1 -15q-6 2 -18 5q-11 2 -30 3.5t-50 1.5h-52v-246q0 -32 2 -49t9 -31q8 -16 23.5 -25t43.5 -9q20 0 35.5 4.5t25.5 9.5q11 6 19 14z" />
    <glyph glyph-name="u" unicode="u" horiz-adv-x="679" 
d="M632 38q-30 -15 -72 -26q-36 -10 -89 -17.5t-123 -7.5q-100 0 -157.5 19.5t-86.5 54.5t-36.5 84t-7.5 109q0 23 0.5 51t1.5 55t1.5 50.5t0.5 37.5q0 27 -1.5 45.5t-5 31t-11 20.5t-19.5 14q9 8 26 14q14 5 38 10t59 5q41 0 64 -9t34.5 -24.5t14.5 -36.5t3 -45
q0 -15 -0.5 -40.5t-1.5 -54t-1.5 -56.5t-0.5 -48q0 -43 2 -74.5t11 -52.5t27 -31.5t50 -10.5q16 0 26.5 2t18.5 4q8 3 14 7v196q0 65 -1.5 105t-5 64t-8 37t-10.5 24l-9 17l244 25q-2 -31 -4 -74q-2 -37 -3 -92.5t-1 -128.5q0 -79 1.5 -126t4 -73t6 -37t7.5 -17z" />
    <glyph glyph-name="v" unicode="v" horiz-adv-x="624" 
d="M629 577q-11 -9 -19.5 -21t-17.5 -36q-9 -23 -18.5 -76.5t-25.5 -124.5t-41 -154t-64 -166q-14 0 -34 1q-17 0 -42.5 0.5t-60.5 0.5t-61.5 -0.5t-44.5 -0.5q-21 -1 -37 -1l-90 343q-14 52 -24 91t-20 66.5t-20 46.5t-24 33q11 -1 30 -1q17 -1 44 -1h68h70.5t45.5 1
q20 0 33 1q-10 -7 -21 -21t-11 -42q0 -26 9.5 -71t22.5 -102l42 -188q5 -23 8 -45q2 -11 4 -23q7 16 16.5 46.5t20 68.5t20 80.5t17.5 83.5t13 77.5t5 62.5q0 32 -11 49t-21 24q12 -1 30 -1q15 -1 38.5 -1h55.5h115v0z" />
    <glyph glyph-name="w" unicode="w" horiz-adv-x="995" 
d="M995 577q-11 -9 -19.5 -21t-17.5 -36q-6 -17 -14 -70.5t-21.5 -127t-35 -159t-54.5 -164.5q-9 0 -26 1q-14 0 -37.5 0.5t-57.5 0.5q-35 0 -58.5 -0.5t-38.5 -0.5q-18 -1 -28 -1l-70 354q-8 41 -10.5 60.5t-2.5 24.5q-1 -5 -3.5 -25t-10.5 -59l-74 -355q-13 0 -31 1
q-16 0 -40.5 0.5t-58.5 0.5q-35 0 -59.5 -0.5t-40.5 -0.5q-18 -1 -30 -1l-79 343q-12 53 -22 91.5t-19.5 66.5t-20.5 46.5t-25 32.5q14 -1 35 -1q18 -1 45 -1h64h63.5t44.5 1q20 0 35 1q-10 -7 -21 -21t-11 -42q0 -26 6.5 -70.5t17.5 -101.5l24 -131q10 -54 13 -79t4 -33
q0 6 3.5 31t15.5 81l77 366q9 -1 25 -1q14 -1 34.5 -1h52.5h53t35 1q16 0 25 1l74 -365q6 -32 10 -55.5t6 -38.5q3 -18 4 -29q7 16 14.5 46t14.5 67.5t13 79t11 81t7.5 74t2.5 58.5q0 41 -11 58t-21 24q12 -1 30 -1q15 -1 38.5 -1h55.5h115v0z" />
    <glyph glyph-name="x" unicode="x" horiz-adv-x="624" 
d="M646 -1q-15 0 -38 1q-20 0 -50.5 0.5t-73.5 0.5q-38 0 -65.5 -0.5t-45.5 -0.5q-21 -1 -35 -1q19 16 19 39q0 10 -2 19t-7 20.5t-15.5 27.5t-26.5 40l-34 49q-21 -30 -38 -67t-17 -72q0 -23 6.5 -35.5t17.5 -20.5q-14 0 -32 1q-16 0 -39.5 0.5t-55.5 0.5t-55.5 -0.5
t-40.5 -0.5q-19 -1 -33 -1q10 6 18.5 14.5t19.5 22.5q10 13 23 42.5t33 67.5t48.5 79t70.5 76l-81 117q-27 39 -45 65.5t-32.5 44.5t-27 30t-27.5 21q15 -1 38 -1q20 -1 50.5 -1h73.5h65t45 1q21 0 36 1q-19 -16 -19 -39q0 -10 2 -19t7 -20.5t15 -27.5t27 -40l21 -30
q19 27 33.5 59t14.5 61q0 23 -6.5 35.5t-17.5 20.5q11 -1 28 -1q14 -1 35.5 -1h50.5h59.5t40.5 1q18 0 30 1q-10 -6 -18.5 -14.5t-19.5 -22.5q-9 -12 -21 -39t-30 -61.5t-43.5 -73t-61.5 -73.5l94 -135q27 -39 45.5 -65.5t32.5 -44.5t26.5 -30t27.5 -21z" />
    <glyph glyph-name="y" unicode="y" horiz-adv-x="625" 
d="M635 579q-11 -9 -22 -26t-21 -40q-12 -27 -25 -82.5t-31.5 -127t-44.5 -153t-63 -159.5q-19 -39 -42.5 -75.5t-55 -65t-72.5 -45.5t-94 -17q-32 0 -51 2t-30 5q-12 4 -18 8q0 7 1 18q0 10 0.5 25t0.5 36q0 24 -0.5 42t-0.5 30q-1 14 -1 23q12 -18 21 -32t19 -23t22.5 -14
t30.5 -5q34 0 49.5 15t22.5 29l2 4l-141 391q-18 51 -32.5 89.5t-27.5 66.5t-25 47.5t-26 33.5q15 -1 37 -1q19 -1 48 -1h70h70.5t45.5 1q20 0 33 1q-10 -7 -21 -21t-11 -42q0 -26 10 -67.5t24 -97.5l38 -145q6 -23 9 -38.5t5 -25.5q2 -11 3 -18q16 34 29 83.5t22 102
t14 102.5t5 84q0 43 -11 59.5t-21 23.5q12 -1 30 -1q16 -1 40 -1h59h59.5t39.5 1q18 0 28 1z" />
    <glyph glyph-name="z" unicode="z" horiz-adv-x="547" 
d="M522 193q-2 -22 -4 -48q-2 -22 -3.5 -49t-3.5 -56l-2 -40h-479v43q0 30 4 56t13.5 50t26 48t40.5 51l106 118q27 31 41 48.5t14 41.5v10h-81q-25 0 -44.5 -2.5t-36 -9t-30.5 -19t-28 -32.5q0 10 1 23q0 11 0.5 28t0.5 38q0 23 -0.5 38.5t-0.5 25.5q-1 11 -1 19h455v-37
q0 -30 -4 -56t-14 -50.5t-26 -48.5t-40 -51l-111 -123q-14 -15 -24.5 -26.5t-17 -21.5t-10 -20t-3.5 -22v-10h85q46 0 74.5 5.5t46.5 16t30 26.5t26 36z" />
    <glyph glyph-name="braceleft" unicode="{" horiz-adv-x="422" 
d="M387 -159q0 -5 -5 -14t-18.5 -18t-36 -15.5t-56.5 -6.5q-32 0 -59.5 8.5t-46.5 30.5q-20 23 -23.5 51t-3.5 71v191q0 45 -6.5 73t-29.5 45q-21 15 -40 21.5t-23 8.5q2 1 21 7.5t42 22.5q23 17 29.5 45t6.5 73v191q0 43 3.5 71t23.5 51q19 22 46.5 30.5t59.5 8.5
q34 0 56.5 -7t36 -16t18.5 -18t5 -13q-5 1 -10 3q-5 1 -12 2t-18 1q-43 0 -59 -24q-9 -13 -10.5 -29.5t-1.5 -33.5v-150q0 -32 -0.5 -55t-3 -41t-8 -32.5t-15.5 -28.5q-12 -18 -30.5 -29t-36.5 -17.5t-32.5 -9t-19.5 -2.5q4 0 19 -2.5t33 -9t36.5 -17.5t30.5 -29
q10 -14 15.5 -28.5t8 -32.5t3 -41.5t0.5 -54.5v-150q0 -17 1.5 -33.5t10.5 -29.5q16 -24 59 -24q19 0 30 3q5 1 10 3z" />
    <glyph glyph-name="bar" unicode="|" horiz-adv-x="275" 
d="M85 -212v1000h105v-1000h-105z" />
    <glyph glyph-name="braceright" unicode="}" horiz-adv-x="422" 
d="M320 317q21 -15 39.5 -22t23.5 -8q-2 -1 -21.5 -7.5t-41.5 -22.5q-23 -17 -29.5 -45t-6.5 -73v-191q0 -43 -3.5 -71t-23.5 -51q-19 -22 -46.5 -30.5t-59.5 -8.5q-35 0 -57 6.5t-35.5 15.5t-18.5 18t-5 14q3 -2 9 -3q9 -3 31 -3q43 0 59 24q9 13 10.5 29.5t1.5 33.5v150
q0 31 0.5 54.5t3 41.5t8 32.5t15.5 28.5q12 18 30 29t36 17t32.5 8.5t19.5 3.5q-4 0 -18.5 2.5t-32.5 9t-36.5 17.5t-30.5 29q-10 14 -15.5 28.5t-8 32.5t-3 41t-0.5 55v150q0 17 -1.5 33.5t-10.5 29.5q-16 24 -59 24q-11 0 -18.5 -1t-12.5 -2l-9 -3q0 4 5 13t18.5 18
t35.5 16t57 7q32 0 59.5 -8.5t46.5 -30.5q20 -23 23.5 -51t3.5 -71v-191q0 -45 6.5 -73t29.5 -45z" />
    <glyph glyph-name="asciitilde" unicode="~" horiz-adv-x="665" 
d="M641 471q-21 -123 -65 -174t-108 -51q-36 0 -69.5 12t-69.5 28l-43 19q-32 14 -63 25.5t-57 11.5q-37 0 -65.5 -25t-46.5 -86l-30 9q10 61 26.5 104t38 70t49 39t59.5 12q36 0 69.5 -12t69.5 -28l43 -19q32 -14 63 -26t57 -12q37 0 65 25.5t47 86.5l30 -9v0z" />
    <glyph glyph-name="uni00A0" unicode="&#xa0;" horiz-adv-x="230" 
 />
    <glyph glyph-name="exclamdown" unicode="&#xa1;" horiz-adv-x="356" 
d="M310 -135q-11 0 -29 1q-16 0 -41 0.5t-62 0.5q-38 0 -62.5 -0.5t-40.5 -0.5q-18 -1 -29 -1l6 19q4 13 8 33.5t8.5 59.5t10.5 101.5t15 159.5l12 127h144l12 -127q9 -97 15 -159.5t10.5 -101.5t8.5 -59.5t8 -33.5zM313 490l-137 -117l-137 117l137 117z" />
    <glyph glyph-name="cent" unicode="&#xa2;" horiz-adv-x="529" 
d="M299 -12h-1q-74 0 -125 22.5t-82.5 61.5t-45.5 91.5t-14 112.5q0 149 67.5 227.5t200.5 84.5v57h54v-57q40 -2 68.5 -8t45.5 -13q20 -8 33 -17q-1 -9 -1 -21q-1 -11 -1 -26v-36v-42t1 -33q0 -17 1 -31q-21 36 -39.5 58t-35 33t-32.5 14.5t-33 3.5q-36 0 -59 -15
t-36 -39.5t-18 -56t-5 -65.5q0 -36 5 -69t20 -58.5t41.5 -40.5t68.5 -15q37 0 62 8t40.5 18.5t22.5 19.5t8 11q0 -26 -8 -53.5t-26.5 -52t-48.5 -43.5t-74 -26v-59h-54v54z" />
    <glyph glyph-name="sterling" unicode="&#xa3;" horiz-adv-x="599" 
d="M501 127q19 0 32 6t21.5 13.5t12 14t4.5 8.5q0 -33 -3.5 -66.5t-18 -60.5t-45 -43.5t-84.5 -16.5q-14 0 -31 1.5t-32.5 4t-29 4.5t-20.5 4l-76 15q-11 2 -35 5.5t-46 3.5q-23 0 -43 -7t-35 -15q-18 -10 -33 -21q37 44 46 110.5t9 153.5v75h-69v108h69v45q0 25 2.5 52
t11 53t24.5 50.5t43 44.5q34 25 79 38t116 13q52 0 87 -5t57 -11q26 -7 40 -16q-1 -8 -1 -19q-1 -11 -1 -27v-40v-41.5t1 -29.5q0 -14 1 -23q-31 51 -65 73t-77 22q-26 0 -43.5 -5t-29.5 -14q-26 -19 -31.5 -46.5t-5.5 -67.5v-46h151v-108h-151v-34q0 -63 -24.5 -104.5
t-81.5 -74.5q3 1 14 6.5t27 10.5t36 9.5t42 4.5q17 0 33 -0.5t33 -1.5l72 -4q14 -1 23.5 -1h24.5z" />
    <glyph glyph-name="currency" unicode="&#xa4;" horiz-adv-x="628" 
d="M411 355q0 42 -27.5 70.5t-69.5 28.5q-21 0 -39 -7.5t-31.5 -21t-21 -31.5t-7.5 -39q0 -20 7.5 -38t21 -31.5t31.5 -21.5t39 -8t38.5 8t30.5 21.5t20.5 31.5t7.5 38zM517 355q0 -56 -30 -103l115 -114l-71 -71l-117 116q-46 -26 -101 -26q-27 0 -52 7t-48 19l-116 -116
l-71 71l114 114q-29 46 -29 103q0 28 7.5 54t21.5 48l-114 115l71 71l116 -117q46 26 100 26q55 0 101 -26l117 117l71 -71l-115 -115q14 -22 22 -48t8 -54z" />
    <glyph glyph-name="yen" unicode="&#xa5;" horiz-adv-x="698" 
d="M722 713q-12 -9 -23.5 -18.5t-27 -30t-37.5 -57t-56 -97.5l-109 -199v-2h144v-75h-153v-58h153v-75h-151q2 -32 7 -50t14 -35l9 -17q-14 0 -33 1q-17 0 -42.5 0.5t-60.5 0.5t-60.5 -0.5t-42.5 -0.5q-20 -1 -34 -1l9 17q8 15 13 33.5t8 51.5h-153v75h155v58h-155v75h148v2
l-117 201q-35 61 -57.5 96t-37.5 55t-26.5 30t-24.5 20q16 -1 39 -1q20 -1 48.5 -1h68.5h70t49 1q23 0 38 1q-12 -11 -17.5 -23t-5.5 -24q0 -11 1 -20.5t5.5 -23t13 -32.5t22.5 -49l63 -131l62 130q14 30 22.5 49.5t13 33t6 23t1.5 20.5q0 12 -5.5 24t-17.5 23q15 -1 35 -1
q17 -1 41 -1h55h57t42 1q19 0 34 1z" />
    <glyph glyph-name="brokenbar" unicode="&#xa6;" horiz-adv-x="275" 
d="M85 448v340h105v-340h-105zM85 -212v362h105v-362h-105z" />
    <glyph glyph-name="section" unicode="&#xa7;" horiz-adv-x="608" 
d="M573 354q0 -31 -7.5 -54.5t-20.5 -41t-29 -30t-32 -21.5q-40 -20 -89 -25l36 -20q45 -25 71.5 -57t26.5 -90q0 -80 -62.5 -119.5t-181.5 -39.5q-48 0 -81 5.5t-55 12.5q-26 8 -42 19q0 8 1 19q0 10 0.5 25t0.5 36q0 22 -0.5 39.5t-0.5 28.5q-1 13 -1 23q17 -29 36 -48.5
t39 -31t41 -16t42 -4.5q42 0 60.5 9.5t18.5 32.5q0 14 -8.5 24.5t-44.5 27.5l-96 46q-43 21 -73.5 40.5t-49.5 41.5t-28 47t-9 56q0 30 7.5 53.5t20 41.5t28.5 30.5t33 21.5q39 20 89 25l-36 20q-45 25 -71.5 57t-26.5 90q0 80 62.5 119.5t181.5 39.5q47 0 80.5 -6t55.5 -13
q26 -8 42 -18q-1 -8 -1 -19q-1 -10 -1 -25v-36v-40t1 -28q0 -13 1 -23q-35 58 -75.5 79t-82.5 21t-60.5 -9.5t-18.5 -32.5q0 -14 8.5 -24.5t44.5 -27.5l96 -46q43 -21 73.5 -40.5t49.5 -41.5t28 -47t9 -56zM406 300q0 36 -20.5 58t-49.5 38l-81 44q-16 -9 -27 -23
q-10 -12 -18 -30t-8 -44q0 -36 20.5 -58.5t49.5 -37.5l81 -43q15 8 26 22q10 11 18.5 29.5t8.5 44.5z" />
    <glyph glyph-name="dieresis" unicode="&#xa8;" horiz-adv-x="520" 
d="M246 698l-112 -96l-112 96l112 97zM487 698l-112 -96l-112 96l112 97z" />
    <glyph glyph-name="copyright" unicode="&#xa9;" horiz-adv-x="943" 
d="M910 275q0 -97 -32 -178.5t-89.5 -141t-138.5 -93t-179 -33.5t-179 33.5t-138.5 93t-89 141t-31.5 178.5t31.5 178.5t89.5 141t139 93t179 33.5t179 -33.5t138.5 -93t89 -141t31.5 -178.5zM826 275q0 79 -25 148t-71 120t-111.5 80t-146.5 29t-146.5 -29t-112 -80
t-71.5 -120t-25 -148q0 -80 25 -148.5t71 -119.5t111.5 -80t146.5 -29t146.5 29t112 80t71.5 119.5t25 148.5zM648 17q-15 -7 -36 -11q-18 -5 -46.5 -8t-66.5 -3q-63 0 -114 14t-86.5 45.5t-54.5 82.5t-19 124q0 75 19 129t55 89t87.5 51.5t117.5 16.5q39 0 66.5 -3.5
t44.5 -7.5q20 -5 33 -11v-145q-23 35 -50 55t-76 20q-43 0 -68 -19.5t-37.5 -48.5t-15.5 -62t-3 -59q0 -94 34 -136.5t87 -42.5q49 0 77.5 20.5t51.5 55.5v-146z" />
    <glyph glyph-name="ordfeminine" unicode="&#xaa;" horiz-adv-x="433" 
d="M411 401l-160 -16l3 78q-7 -27 -19 -42.5t-28 -23.5t-33.5 -10.5t-34.5 -2.5q-35 0 -58 10.5t-36.5 27.5t-19 38t-5.5 41q0 44 17.5 68.5t43 36.5t54 14.5t50.5 2.5q14 0 26 -0.5t20 -1.5q10 -1 18 -2v10q0 14 -3 26.5t-12 22.5q-9 8 -24.5 12.5t-45.5 4.5
q-27 0 -56.5 -9.5t-50.5 -31.5q0 5 1 13q1 7 1.5 16t0.5 21t-0.5 21.5t-1.5 15.5q-1 7 -2 13q15 6 37 10q19 4 48 7t70 3q70 0 103.5 -13t47.5 -30q20 -22 24 -51.5t4 -62.5v-32t-0.5 -23t-0.5 -23.5v-33.5q0 -36 4.5 -56t12.5 -37zM249 561q-1 0 -5 1q-3 0 -7.5 0.5
t-11.5 0.5t-17.5 -1t-20 -6t-16 -16t-6.5 -31q0 -27 13.5 -39.5t31.5 -12.5q11 0 18 2t12 4q5 3 9 7v91z" />
    <glyph glyph-name="guillemotleft" unicode="&#xab;" horiz-adv-x="496" 
d="M323 57l-89 234l89 235h129l-100 -235l100 -234h-129zM117 57l-89 234l89 235h129l-100 -235l100 -234h-129z" />
    <glyph glyph-name="logicalnot" unicode="&#xac;" horiz-adv-x="665" 
d="M507 164v220h-459v97h559v-317h-100z" />
    <glyph glyph-name="registered" unicode="&#xae;" horiz-adv-x="975" 
d="M926 275q0 -97 -32 -178.5t-89.5 -141t-138.5 -93t-179 -33.5t-179 33.5t-138.5 93t-89 141t-31.5 178.5t31.5 178.5t89.5 141t139 93t179 33.5t179 -33.5t138.5 -93t89 -141t31.5 -178.5zM842 275q0 79 -25 148t-71 120t-111.5 80t-146.5 29t-146.5 -29t-112 -80
t-71.5 -120t-25 -148q0 -80 25 -148.5t71 -119.5t111.5 -80t146.5 -29t146.5 29t112 80t71.5 119.5t25 148.5zM748 15q-5 -4 -16 -8q-9 -3 -23.5 -5.5t-37.5 -2.5q-26 0 -45.5 3t-35.5 12.5t-30 26t-28 43.5l-33 65q-21 41 -31 56.5t-27 15.5q-2 0 -3.5 -0.5t-3.5 -0.5h-3
q0 -67 1 -103t3 -55t6 -27l9 -18l7 -13h-24q-12 0 -31.5 0.5t-45.5 0.5t-45.5 -0.5t-31.5 -0.5h-24l7 13q5 10 8.5 20t6 35.5t3.5 73t1 133.5q0 83 -0.5 129t-3 70t-6 34t-9.5 22l-7 12q10 -1 22 -1h56h26.5t34.5 0.5t34 0.5h25q49 0 94 -4.5t79 -19t54.5 -42.5t20.5 -76
q0 -47 -17 -76t-40 -45t-47 -22t-37 -7q20 -3 34 -8.5t25 -15.5t20 -25.5t20 -37.5l44 -94q12 -26 21.5 -38t23.5 -20zM542 383q0 49 -22 65.5t-64 16.5q-8 0 -12.5 -0.5t-7.5 -0.5q-4 -1 -5 -1v-160q2 -1 6 -1h21q22 0 36 5q23 6 35.5 23.5t12.5 52.5z" />
    <glyph glyph-name="macron" unicode="&#xaf;" horiz-adv-x="520" 
d="M85 639v111h350v-111h-350z" />
    <glyph glyph-name="degree" unicode="&#xb0;" horiz-adv-x="416" 
d="M367 599q0 -32 -12.5 -60t-34 -49t-51 -33.5t-62.5 -12.5q-32 0 -61 12.5t-50.5 33.5t-34 49t-12.5 60t12.5 60.5t34 49.5t50.5 33t61 12q33 0 62.5 -12t51 -33t34 -49.5t12.5 -60.5zM297 599q0 38 -25.5 64t-63.5 26q-19 0 -35.5 -7t-28.5 -19t-19 -28.5t-7 -35.5
q0 -18 7 -34.5t19 -29t28.5 -19.5t35.5 -7q38 0 63.5 26.5t25.5 63.5z" />
    <glyph glyph-name="plusminus" unicode="&#xb1;" horiz-adv-x="665" 
d="M382 390v-256h-100v256h-247v96h247v255h100v-255h247v-96h-247zM35 0v96h594v-96h-594z" />
    <glyph glyph-name="uni00B2" unicode="&#xb2;" horiz-adv-x="370" 
d="M316 498q13 7 18 11.5t6 5.5q0 -1 -1 -9t-1.5 -20t-1.5 -26.5t-1 -28.5v-41h-323q0 27 4 48t12 39t21.5 35t33.5 35l61 57q33 31 40 56t7 47t-6 36t-16 21.5t-22 10t-25 2.5q-20 0 -34.5 -5.5t-25 -14.5t-19 -21.5t-17.5 -27.5v16q0 8 0.5 20t0.5 27q0 19 -0.5 31.5
t-0.5 20.5v13q13 6 31 10q16 4 40.5 7t57.5 3q55 0 91 -11.5t56.5 -31t28.5 -45.5t8 -55q0 -52 -26 -91t-77 -71l-36 -22q-20 -13 -34.5 -24t-16.5 -22h96q23 0 41.5 3.5t29.5 11.5z" />
    <glyph glyph-name="uni00B3" unicode="&#xb3;" horiz-adv-x="379" 
d="M348 515q0 -48 -22 -74.5t-52.5 -38.5t-62.5 -14.5t-53 -2.5q-29 0 -57 6.5t-49.5 20.5t-34.5 34.5t-13 49.5q10 -9 26 -15q14 -5 34.5 -9.5t49.5 -4.5q38 0 64.5 13t26.5 49q0 26 -14 42.5t-52 16.5q-18 0 -31 -2.5t-30 -11.5q0 2 1 8q0 5 0.5 15t0.5 27t-0.5 28
t-0.5 16q-1 6 -1 9q16 -8 30 -11.5t33 -3.5q23 0 36.5 7t20 16.5t8.5 19.5t2 17q0 21 -7.5 32.5t-18.5 17t-23.5 6.5t-21.5 1q-34 0 -55 -15.5t-41 -45.5v16q0 8 0.5 19.5t0.5 26.5q0 17 -0.5 29t-0.5 19v12q13 5 31 9q16 3 40.5 6t59.5 3q85 0 130.5 -29.5t45.5 -83.5
q0 -32 -11.5 -53t-29.5 -34t-39.5 -19.5t-41.5 -9.5q24 -1 46 -8t39 -20.5t27 -34.5t10 -51z" />
    <glyph glyph-name="acute" unicode="&#xb4;" horiz-adv-x="520" 
d="M207 796h174q-6 -13 -17 -30q-10 -14 -28 -33.5t-48 -42.5q-27 -21 -54 -33.5t-48 -20.5q-25 -9 -47 -13z" />
    <glyph glyph-name="uni00B5" unicode="&#xb5;" horiz-adv-x="693" 
d="M678 35q-15 -13 -35 -23q-17 -8 -41.5 -15t-54.5 -7q-71 0 -100.5 32t-32.5 98q-6 -59 -29.5 -94.5t-80.5 -35.5q-17 0 -29.5 3t-20.5 8q-10 4 -17 11q1 -5 2 -15q1 -8 2 -21.5t1 -33.5v-27q0 -39 1.5 -64t3.5 -39q3 -17 6 -25q-10 0 -24 1q-12 0 -30.5 0.5t-41.5 0.5
t-40 -0.5t-28 -0.5q-13 -1 -23 -1q3 12 7 54q2 36 4.5 108.5t2.5 200.5v277q0 50 -4.5 80t-10.5 43l-5 11q28 0 52.5 2.5t43.5 4.5q22 3 37.5 5.5t25.5 4.5t15.5 3.5t9.5 2.5l2 -4.5t4 -16t3.5 -31t1.5 -49.5q0 -15 -0.5 -52t-1.5 -79t-1.5 -79.5t-0.5 -53.5q0 -32 2.5 -56
t13.5 -39q16 -22 64 -22q21 0 36 4.5t25 10.5q11 7 19 16q1 77 2 140q0 27 0.5 53.5t1 48.5t0.5 38v21q0 37 -4.5 69.5t-10.5 45.5l-5 11q4 0 29 1t79 6q26 2 45 5.5t31 5.5q14 3 23 6q1 0 6 -21t5 -80q0 -9 -0.5 -30.5t-1 -49t-1 -57.5t-1 -56.5t-1 -45.5t-0.5 -25
q0 -56 4.5 -96t23.5 -63q16 -19 42 -25z" />
    <glyph glyph-name="paragraph" unicode="&#xb6;" horiz-adv-x="531" 
d="M375 -15q0 -36 -5.5 -71t-26.5 -63.5t-63.5 -46t-116.5 -17.5h-26q30 13 47.5 36.5t26.5 58t11.5 81.5t2.5 108l1 246q-51 7 -88 26.5t-61.5 48.5t-36 67.5t-11.5 82.5q0 42 11 75.5t29 59t41 43t47 28.5q38 17 90 19.5t124 2.5h4v-785z" />
    <glyph glyph-name="periodcentered" unicode="&#xb7;" horiz-adv-x="326" 
d="M281 289q0 -51 -32.5 -79.5t-85.5 -33.5q-60 7 -89 34t-29 78t32.5 79.5t85.5 33.5q60 -7 89 -34t29 -78z" />
    <glyph glyph-name="cedilla" unicode="&#xb8;" horiz-adv-x="520" 
d="M277 5q-6 -5 -11 -13.5t-5 -16.5q0 -9 7 -15.5t20 -14.5l11 -7q6 -4 14 -9t15 -12.5t12 -18.5t5 -26q0 -29 -16 -46t-40.5 -26t-54 -11.5t-56.5 -1.5q1 0 10.5 5.5t20 15t19.5 23.5t9 31q0 16 -5.5 26.5t-16.5 24.5l-6 8q-7 9 -11.5 17t-4.5 19q0 17 10.5 28t19.5 20h54z
" />
    <glyph glyph-name="uni00B9" unicode="&#xb9;" horiz-adv-x="303" 
d="M237 389q-11 0 -28.5 0.5t-41.5 0.5q-25 0 -42.5 -0.5t-28.5 -0.5h-22l6 11q5 9 8 17.5t5 30t2.5 62.5t0.5 114v121q0 7 -3 10t-14 3h-75q20 35 53 51.5t68 24.5t67.5 14t50.5 21q-2 -25 -3 -62q-3 -63 -3 -189q0 -70 0.5 -109t2.5 -60t5.5 -30t8.5 -19l5 -11h-22z" />
    <glyph glyph-name="ordmasculine" unicode="&#xba;" horiz-adv-x="453" 
d="M283 580q0 36 -5.5 58t-13.5 34.5t-18 18t-19 8.5q-9 -3 -19.5 -8.5t-18.5 -18t-13.5 -35t-5.5 -58.5t5 -58t13.5 -35t18.5 -18.5t19 -8.5q9 3 19.5 8.5t18.5 18.5t13.5 35.5t5.5 58.5zM433 580q0 -82 -53.5 -137t-153.5 -62q-54 4 -93.5 20t-64.5 42t-37 60.5t-12 75.5
q0 40 14 75t40.5 61t65 42.5t88.5 19.5q54 -4 93 -20t64 -42t37 -60.5t12 -74.5z" />
    <glyph glyph-name="guillemotright" unicode="&#xbb;" horiz-adv-x="496" 
d="M379 57h-129l100 234l-100 235h129l89 -235zM173 57h-129l100 234l-100 235h129l89 -235z" />
    <glyph glyph-name="onequarter" unicode="&#xbc;" horiz-adv-x="904" 
d="M237 249q-11 0 -28.5 0.5t-41.5 0.5q-25 0 -42.5 -0.5t-28.5 -0.5h-22l6 11q5 9 8 17.5t5 30t2.5 62.5t0.5 114v121q0 7 -3 10t-14 3h-75q20 35 53 51.5t68 24.5t67.5 14t50.5 21q-2 -25 -3 -62q-3 -63 -3 -189q0 -70 0.5 -109t2.5 -60t5.5 -30t8.5 -19l5 -11h-22zM251 0
h-118l471 713h117zM891 90q-6 1 -14 3q-7 2 -18 3t-25 1h-7q0 -20 2 -43.5t13 -42.5l6 -11h-22q-11 0 -28.5 0.5t-43.5 0.5t-44 -0.5t-29 -0.5h-22l5 11q10 17 13 41t3 45h-219q0 30 6 67.5t22 76.5t43 77.5t67.5 69.5t96.5 52t131 26v-278h7q29 0 43 3q8 2 14 4v-105z
M680 188v150q-26 -11 -43.5 -30.5t-29 -41t-17 -42.5t-6.5 -36h96z" />
    <glyph glyph-name="onehalf" unicode="&#xbd;" horiz-adv-x="911" 
d="M237 249q-11 0 -28.5 0.5t-41.5 0.5q-25 0 -42.5 -0.5t-28.5 -0.5h-22l6 11q5 9 8 17.5t5 30t2.5 62.5t0.5 114v121q0 7 -3 10t-14 3h-75q20 35 53 51.5t68 24.5t67.5 14t50.5 21q-2 -25 -3 -62q-3 -63 -3 -189q0 -70 0.5 -109t2.5 -60t5.5 -30t8.5 -19l5 -11h-22zM251 0
h-118l471 713h117zM857 108q13 7 18 11.5t6 5.5q0 -1 -1 -9t-1.5 -20t-1.5 -26.5t-1 -28.5v-41h-323q0 27 4 48t12 39t21.5 35t33.5 35l61 57q33 31 40 56t7 47t-6 36t-16 21.5t-22 10t-25 2.5q-20 0 -34.5 -5.5t-25 -14.5t-19 -21.5t-17.5 -27.5v16q0 8 0.5 20t0.5 27
q0 19 -0.5 31.5t-0.5 20.5v13q13 6 31 10q16 4 40.5 7t57.5 3q55 0 91 -11.5t56.5 -31t28.5 -45.5t8 -55q0 -52 -26 -91t-77 -71l-36 -22q-20 -13 -34.5 -24t-16.5 -22h96q23 0 41.5 3.5t29.5 11.5z" />
    <glyph glyph-name="threequarters" unicode="&#xbe;" horiz-adv-x="960" 
d="M348 375q0 -48 -22 -74.5t-52.5 -38.5t-62.5 -14.5t-53 -2.5q-29 0 -57 6.5t-49.5 20.5t-34.5 34.5t-13 49.5q10 -9 26 -15q14 -5 34.5 -9.5t49.5 -4.5q38 0 64.5 13t26.5 49q0 26 -14 42.5t-52 16.5q-18 0 -31 -2.5t-30 -11.5q0 2 1 8q0 5 0.5 15t0.5 27t-0.5 28
t-0.5 16q-1 6 -1 9q16 -8 30 -11.5t33 -3.5q23 0 36.5 7t20 16.5t8.5 19.5t2 17q0 21 -7.5 32.5t-18.5 17t-23.5 6.5t-21.5 1q-34 0 -55 -15.5t-41 -45.5v16q0 8 0.5 19.5t0.5 26.5q0 17 -0.5 29t-0.5 19v12q13 5 31 9q16 3 40.5 6t59.5 3q85 0 130.5 -29.5t45.5 -83.5
q0 -32 -11.5 -53t-29.5 -34t-39.5 -19.5t-41.5 -9.5q24 -1 46 -8t39 -20.5t27 -34.5t10 -51zM307 0h-118l471 713h117zM947 90q-6 1 -14 3q-7 2 -18 3t-25 1h-7q0 -20 2 -43.5t13 -42.5l6 -11h-22q-11 0 -28.5 0.5t-43.5 0.5t-44 -0.5t-29 -0.5h-22l5 11q10 17 13 41t3 45
h-219q0 30 6 67.5t22 76.5t43 77.5t67.5 69.5t96.5 52t131 26v-278h7q29 0 43 3q8 2 14 4v-105zM736 188v150q-26 -11 -43.5 -30.5t-29 -41t-17 -42.5t-6.5 -36h96z" />
    <glyph glyph-name="questiondown" unicode="&#xbf;" horiz-adv-x="527" 
d="M502 -113q-19 -9 -47 -15q-24 -5 -60.5 -9.5t-87.5 -4.5q-47 0 -95 6t-87.5 24.5t-64.5 54t-25 94.5q0 28 6.5 52.5t19 47t32 45t45.5 48.5l29 29q27 27 42 43.5t15 36.5q0 7 -1.5 12t-3.5 8q-2 4 -4 6h161q1 -3 3 -7q1 -4 2 -10.5t1 -15.5q0 -25 -9.5 -50t-32.5 -53
l-55 -65q-16 -19 -27.5 -41.5t-11.5 -56.5q0 -18 5 -34t17 -28t32.5 -19.5t52.5 -7.5q30 0 51 6.5t37.5 19t30.5 31t30 41.5q-1 -12 -1 -27q-1 -13 -1 -31v-39v-43.5t1 -28.5q0 -12 1 -19zM437 490l-137 -117l-137 117l137 117z" />
    <glyph glyph-name="Agrave" unicode="&#xc0;" horiz-adv-x="716" 
d="M716 -1q-12 0 -32 1q-17 0 -45.5 0.5t-70.5 0.5q-43 0 -72.5 -0.5t-47.5 -0.5q-21 -1 -34 -1q10 7 21 21t11 42q0 26 -6.5 68.5t-20.5 98.5l-1 4h-198q-8 -45 -12 -86t-4 -75q0 -36 8.5 -51t18.5 -22q-13 0 -31 1q-16 0 -38.5 0.5t-52.5 0.5t-51.5 -0.5t-35.5 -0.5
q-17 -1 -27 -1q11 9 19.5 21t17.5 35q7 18 16.5 57t21 91t27.5 114.5t36.5 129.5t46.5 135t60 131q12 -1 30 -1q16 -1 40.5 -1h59.5h59.5t42.5 1q20 0 34 1l123 -477q13 -53 23.5 -91.5t20 -66t19.5 -47t24 -32.5zM347 568q-2 11 -4 22.5t-4 21.5q-2 11 -4 23
q-23 -47 -47.5 -124t-44.5 -163h151zM445 757q-23 4 -48 13q-21 8 -47.5 20.5t-53.5 33.5q-30 23 -48.5 42.5t-28.5 33.5q-11 17 -16 30h174z" />
    <glyph glyph-name="Aacute" unicode="&#xc1;" horiz-adv-x="716" 
d="M716 -1q-12 0 -32 1q-17 0 -45.5 0.5t-70.5 0.5q-43 0 -72.5 -0.5t-47.5 -0.5q-21 -1 -34 -1q10 7 21 21t11 42q0 26 -6.5 68.5t-20.5 98.5l-1 4h-198q-8 -45 -12 -86t-4 -75q0 -36 8.5 -51t18.5 -22q-13 0 -31 1q-16 0 -38.5 0.5t-52.5 0.5t-51.5 -0.5t-35.5 -0.5
q-17 -1 -27 -1q11 9 19.5 21t17.5 35q7 18 16.5 57t21 91t27.5 114.5t36.5 129.5t46.5 135t60 131q12 -1 30 -1q16 -1 40.5 -1h59.5h59.5t42.5 1q20 0 34 1l123 -477q13 -53 23.5 -91.5t20 -66t19.5 -47t24 -32.5zM347 568q-2 11 -4 22.5t-4 21.5q-2 11 -4 23
q-23 -47 -47.5 -124t-44.5 -163h151zM361 930h174q-6 -13 -17 -30q-10 -14 -28 -33.5t-48 -42.5q-27 -21 -54 -33.5t-48 -20.5q-25 -9 -47 -13z" />
    <glyph glyph-name="Acircumflex" unicode="&#xc2;" horiz-adv-x="716" 
d="M716 -1q-12 0 -32 1q-17 0 -45.5 0.5t-70.5 0.5q-43 0 -72.5 -0.5t-47.5 -0.5q-21 -1 -34 -1q10 7 21 21t11 42q0 26 -6.5 68.5t-20.5 98.5l-1 4h-198q-8 -45 -12 -86t-4 -75q0 -36 8.5 -51t18.5 -22q-13 0 -31 1q-16 0 -38.5 0.5t-52.5 0.5t-51.5 -0.5t-35.5 -0.5
q-17 -1 -27 -1q11 9 19.5 21t17.5 35q7 18 16.5 57t21 91t27.5 114.5t36.5 129.5t46.5 135t60 131q12 -1 30 -1q16 -1 40.5 -1h59.5h59.5t42.5 1q20 0 34 1l123 -477q13 -53 23.5 -91.5t20 -66t19.5 -47t24 -32.5zM347 568q-2 11 -4 22.5t-4 21.5q-2 11 -4 23
q-23 -47 -47.5 -124t-44.5 -163h151zM550 755q-44 -1 -94.5 17t-90.5 62q-17 -20 -40 -35t-48 -25.5t-50.5 -15.5t-46.5 -3l128 174h114z" />
    <glyph glyph-name="Atilde" unicode="&#xc3;" horiz-adv-x="716" 
d="M716 -1q-12 0 -32 1q-17 0 -45.5 0.5t-70.5 0.5q-43 0 -72.5 -0.5t-47.5 -0.5q-21 -1 -34 -1q10 7 21 21t11 42q0 26 -6.5 68.5t-20.5 98.5l-1 4h-198q-8 -45 -12 -86t-4 -75q0 -36 8.5 -51t18.5 -22q-13 0 -31 1q-16 0 -38.5 0.5t-52.5 0.5t-51.5 -0.5t-35.5 -0.5
q-17 -1 -27 -1q11 9 19.5 21t17.5 35q7 18 16.5 57t21 91t27.5 114.5t36.5 129.5t46.5 135t60 131q12 -1 30 -1q16 -1 40.5 -1h59.5h59.5t42.5 1q20 0 34 1l123 -477q13 -53 23.5 -91.5t20 -66t19.5 -47t24 -32.5zM347 568q-2 11 -4 22.5t-4 21.5q-2 11 -4 23
q-23 -47 -47.5 -124t-44.5 -163h151zM463 881q15 0 28 7t22.5 15t15 15.5t6.5 9.5q0 -27 -2 -54t-11.5 -48.5t-28.5 -35.5t-53 -14q-15 0 -28.5 3.5t-23.5 6.5l-66 21q-13 4 -21 6t-21 2q-15 0 -28 -7t-22.5 -15.5t-15 -16t-6.5 -9.5q0 27 2 54t11.5 49t28.5 36t53 14
q15 0 28 -3.5t23 -6.5l67 -21q13 -4 21 -6t21 -2z" />
    <glyph glyph-name="Adieresis" unicode="&#xc4;" horiz-adv-x="716" 
d="M716 -1q-12 0 -32 1q-17 0 -45.5 0.5t-70.5 0.5q-43 0 -72.5 -0.5t-47.5 -0.5q-21 -1 -34 -1q10 7 21 21t11 42q0 26 -6.5 68.5t-20.5 98.5l-1 4h-198q-8 -45 -12 -86t-4 -75q0 -36 8.5 -51t18.5 -22q-13 0 -31 1q-16 0 -38.5 0.5t-52.5 0.5t-51.5 -0.5t-35.5 -0.5
q-17 -1 -27 -1q11 9 19.5 21t17.5 35q7 18 16.5 57t21 91t27.5 114.5t36.5 129.5t46.5 135t60 131q12 -1 30 -1q16 -1 40.5 -1h59.5h59.5t42.5 1q20 0 34 1l123 -477q13 -53 23.5 -91.5t20 -66t19.5 -47t24 -32.5zM347 568q-2 11 -4 22.5t-4 21.5q-2 11 -4 23
q-23 -47 -47.5 -124t-44.5 -163h151zM353 840l-112 -96l-112 96l112 97zM594 840l-112 -96l-112 96l112 97z" />
    <glyph glyph-name="Aring" unicode="&#xc5;" horiz-adv-x="716" 
d="M716 -1q-12 0 -32 1q-17 0 -45.5 0.5t-70.5 0.5q-43 0 -72.5 -0.5t-47.5 -0.5q-21 -1 -34 -1q10 7 21 21t11 42q0 26 -6.5 68.5t-20.5 98.5l-1 4h-198q-8 -45 -12 -86t-4 -75q0 -36 8.5 -51t18.5 -22q-13 0 -31 1q-16 0 -38.5 0.5t-52.5 0.5t-51.5 -0.5t-35.5 -0.5
q-17 -1 -27 -1q11 9 19.5 21t17.5 35q7 18 16.5 57t21 91t27.5 114.5t36.5 129.5t46.5 135t60 131q1 -1 3 -1h6q-6 21 -6 43q0 28 10 52t27.5 40.5t41.5 26t51 9.5t50.5 -9.5t41 -26t27 -40t9.5 -51.5q0 -22 -8 -44h9q2 0 4 1l123 -477q13 -53 23.5 -91.5t20 -66t19.5 -47
t24 -32.5zM347 568q-2 11 -4 22.5t-4 21.5q-2 11 -4 23q-23 -47 -47.5 -124t-44.5 -163h151zM428 756q0 24 -16 39.5t-39 15.5t-39.5 -15t-16.5 -40q0 -24 16 -39.5t39 -15.5t39.5 15t16.5 40z" />
    <glyph glyph-name="AE" unicode="&#xc6;" horiz-adv-x="891" 
d="M860 199q-1 -14 -3 -36q-2 -19 -4 -48.5t-4 -73.5l-2 -41h-405q-20 0 -35 -0.5t-24 -0.5h-18l9 17q6 12 10.5 24t7.5 37.5t5 72t2 129.5h-211q-15 -57 -22 -109.5t-7 -97.5q0 -36 8.5 -51t18.5 -22q-13 0 -31 1q-16 0 -38.5 0.5t-52.5 0.5t-51.5 -0.5t-35.5 -0.5
q-17 -1 -27 -1q11 9 19.5 21t17.5 35q11 28 20.5 70.5t23 96t33.5 114.5t51.5 125t77.5 128t112 124q7 -1 18 -1h58h456q-1 -8 -1 -19v-60q0 -43 1 -63.5t1 -22.5l-7.5 7.5t-27.5 19.5q-38 22 -110 22h-95v-201h71q35 0 63.5 4t46.5 15q20 11 27 17.5t9 8.5q0 -1 -1.5 -24
t-1.5 -80q0 -53 1.5 -77t1.5 -26q-1 1 -8 7.5t-28 19.5q-18 11 -46.5 15t-63.5 4h-71v-163h85q46 0 74.5 5.5t46.5 16t30 26t26 35.5zM399 392v249q-58 -45 -101.5 -110.5t-72.5 -138.5h174z" />
    <glyph glyph-name="Ccedilla" unicode="&#xc7;" horiz-adv-x="619" 
d="M589 22q-19 -8 -46 -14q-23 -5 -58.5 -10t-83.5 -5q-5 -8 -5 -18q0 -9 7 -15.5t20 -14.5l11 -7q6 -4 14 -9t15 -12.5t12 -18.5t5 -26q0 -29 -16 -46t-40.5 -26t-54 -11.5t-56.5 -1.5q2 1 11.5 6.5t20 15t19 23t8.5 30.5q0 16 -5.5 26.5t-16.5 24.5l-6 8q-7 9 -11.5 17
t-4.5 19q0 12 5.5 21t13.5 17q-152 10 -233 94t-81 254q0 97 25 168t72.5 117.5t115.5 68.5t155 22q51 0 86.5 -5t58.5 -10q26 -6 43 -14q-1 -7 -1 -19q-1 -11 -1 -28.5v-43.5v-39t1 -29q0 -14 1 -26q-16 23 -32 41.5t-35 31t-43 19t-57 6.5q-55 0 -89 -24t-52.5 -61.5
t-25 -82.5t-6.5 -86q0 -123 45.5 -181.5t123.5 -58.5q33 0 57.5 7t44.5 20t36.5 31.5t32.5 41.5q-1 -10 -1 -24q-1 -13 -1 -32v-45v-40.5t1 -26.5q0 -12 1 -19z" />
    <glyph glyph-name="Egrave" unicode="&#xc8;" horiz-adv-x="576" 
d="M541 202q-2 -18 -4 -41q-2 -20 -3.5 -47.5t-3.5 -62.5l-2 -38q-14 -4 -39 -8q-22 -3 -57 -5t-89 -2q-50 0 -85.5 2.5t-62 8.5t-46 15.5t-35.5 24.5q-19 17 -29.5 36.5t-16 43.5t-7 54t-1.5 68v198q0 38 1.5 69t7 56t16.5 45.5t30 37.5q16 15 35.5 25.5t46.5 17t63.5 10
t87.5 3.5t85.5 -2t55.5 -4q25 -3 38 -5q-1 -7 -1 -18v-59q0 -43 1 -63t1 -22q-1 1 -7 7.5t-23 18.5q-14 9 -44 19t-64 10q-32 0 -62.5 -6.5t-46.5 -31.5q-5 -8 -8 -16.5t-5 -21t-2.5 -29.5t-0.5 -42v-33h84q35 0 63.5 4t46.5 15q20 11 27 17.5t9 8.5q0 -1 -1.5 -24t-1.5 -80
q0 -53 1.5 -77t1.5 -26q-1 1 -8 7.5t-28 19.5q-18 11 -46.5 15t-63.5 4h-84v-40q0 -47 2.5 -69.5t12.5 -37.5q8 -13 20.5 -20t27.5 -10.5t31 -4.5t31 -1q30 0 52 6t39.5 17t31.5 27t28 36zM401 757q-23 4 -48 13q-21 8 -47.5 20.5t-53.5 33.5q-30 23 -48.5 42.5t-28.5 33.5
q-11 17 -16 30h174z" />
    <glyph glyph-name="Eacute" unicode="&#xc9;" horiz-adv-x="576" 
d="M541 202q-2 -18 -4 -41q-2 -20 -3.5 -47.5t-3.5 -62.5l-2 -38q-14 -4 -39 -8q-22 -3 -57 -5t-89 -2q-50 0 -85.5 2.5t-62 8.5t-46 15.5t-35.5 24.5q-19 17 -29.5 36.5t-16 43.5t-7 54t-1.5 68v198q0 38 1.5 69t7 56t16.5 45.5t30 37.5q16 15 35.5 25.5t46.5 17t63.5 10
t87.5 3.5t85.5 -2t55.5 -4q25 -3 38 -5q-1 -7 -1 -18v-59q0 -43 1 -63t1 -22q-1 1 -7 7.5t-23 18.5q-14 9 -44 19t-64 10q-32 0 -62.5 -6.5t-46.5 -31.5q-5 -8 -8 -16.5t-5 -21t-2.5 -29.5t-0.5 -42v-33h84q35 0 63.5 4t46.5 15q20 11 27 17.5t9 8.5q0 -1 -1.5 -24t-1.5 -80
q0 -53 1.5 -77t1.5 -26q-1 1 -8 7.5t-28 19.5q-18 11 -46.5 15t-63.5 4h-84v-40q0 -47 2.5 -69.5t12.5 -37.5q8 -13 20.5 -20t27.5 -10.5t31 -4.5t31 -1q30 0 52 6t39.5 17t31.5 27t28 36zM306 930h174q-6 -13 -17 -30q-10 -14 -28 -33.5t-48 -42.5q-27 -21 -54 -33.5
t-48 -20.5q-25 -9 -47 -13z" />
    <glyph glyph-name="Ecircumflex" unicode="&#xca;" horiz-adv-x="576" 
d="M541 202q-2 -18 -4 -41q-2 -20 -3.5 -47.5t-3.5 -62.5l-2 -38q-14 -4 -39 -8q-22 -3 -57 -5t-89 -2q-50 0 -85.5 2.5t-62 8.5t-46 15.5t-35.5 24.5q-19 17 -29.5 36.5t-16 43.5t-7 54t-1.5 68v198q0 38 1.5 69t7 56t16.5 45.5t30 37.5q16 15 35.5 25.5t46.5 17t63.5 10
t87.5 3.5t85.5 -2t55.5 -4q25 -3 38 -5q-1 -7 -1 -18v-59q0 -43 1 -63t1 -22q-1 1 -7 7.5t-23 18.5q-14 9 -44 19t-64 10q-32 0 -62.5 -6.5t-46.5 -31.5q-5 -8 -8 -16.5t-5 -21t-2.5 -29.5t-0.5 -42v-33h84q35 0 63.5 4t46.5 15q20 11 27 17.5t9 8.5q0 -1 -1.5 -24t-1.5 -80
q0 -53 1.5 -77t1.5 -26q-1 1 -8 7.5t-28 19.5q-18 11 -46.5 15t-63.5 4h-84v-40q0 -47 2.5 -69.5t12.5 -37.5q8 -13 20.5 -20t27.5 -10.5t31 -4.5t31 -1q30 0 52 6t39.5 17t31.5 27t28 36zM506 755q-44 -1 -94.5 17t-90.5 62q-17 -20 -40 -35t-48 -25.5t-50.5 -15.5
t-46.5 -3l128 174h114z" />
    <glyph glyph-name="Edieresis" unicode="&#xcb;" horiz-adv-x="576" 
d="M541 202q-2 -18 -4 -41q-2 -20 -3.5 -47.5t-3.5 -62.5l-2 -38q-14 -4 -39 -8q-22 -3 -57 -5t-89 -2q-50 0 -85.5 2.5t-62 8.5t-46 15.5t-35.5 24.5q-19 17 -29.5 36.5t-16 43.5t-7 54t-1.5 68v198q0 38 1.5 69t7 56t16.5 45.5t30 37.5q16 15 35.5 25.5t46.5 17t63.5 10
t87.5 3.5t85.5 -2t55.5 -4q25 -3 38 -5q-1 -7 -1 -18v-59q0 -43 1 -63t1 -22q-1 1 -7 7.5t-23 18.5q-14 9 -44 19t-64 10q-32 0 -62.5 -6.5t-46.5 -31.5q-5 -8 -8 -16.5t-5 -21t-2.5 -29.5t-0.5 -42v-33h84q35 0 63.5 4t46.5 15q20 11 27 17.5t9 8.5q0 -1 -1.5 -24t-1.5 -80
q0 -53 1.5 -77t1.5 -26q-1 1 -8 7.5t-28 19.5q-18 11 -46.5 15t-63.5 4h-84v-40q0 -47 2.5 -69.5t12.5 -37.5q8 -13 20.5 -20t27.5 -10.5t31 -4.5t31 -1q30 0 52 6t39.5 17t31.5 27t28 36zM306 840l-112 -96l-112 96l112 97zM547 840l-112 -96l-112 96l112 97z" />
    <glyph glyph-name="Igrave" unicode="&#xcc;" horiz-adv-x="359" 
d="M316 -1q-13 0 -32 1q-17 0 -43 0.5t-61 0.5q-36 0 -62 -0.5t-43 -0.5q-19 -1 -32 -1l9 17l9 18t6.5 21.5t4.5 34.5t3 56.5t1.5 87.5t0.5 127q0 109 -1 169.5t-3.5 92t-7.5 45t-13 28.5l-9 17q12 -1 31 -1q17 -1 42.5 -1h62.5h64.5t42.5 1q18 0 30 1l-9 -17l-9 -18
t-6.5 -21.5t-4.5 -34.5t-3 -56.5t-1.5 -87.5t-0.5 -127q0 -109 1 -169.5t3.5 -92t7.5 -45t13 -28.5zM258 757q-23 4 -48 13q-21 8 -47.5 20.5t-53.5 33.5q-30 23 -48.5 42.5t-28.5 33.5q-11 17 -16 30h174z" />
    <glyph glyph-name="Iacute" unicode="&#xcd;" horiz-adv-x="359" 
d="M316 -1q-13 0 -32 1q-17 0 -43 0.5t-61 0.5q-36 0 -62 -0.5t-43 -0.5q-19 -1 -32 -1l9 17l9 18t6.5 21.5t4.5 34.5t3 56.5t1.5 87.5t0.5 127q0 109 -1 169.5t-3.5 92t-7.5 45t-13 28.5l-9 17q12 -1 31 -1q17 -1 42.5 -1h62.5h64.5t42.5 1q18 0 30 1l-9 -17l-9 -18
t-6.5 -21.5t-4.5 -34.5t-3 -56.5t-1.5 -87.5t-0.5 -127q0 -109 1 -169.5t3.5 -92t7.5 -45t13 -28.5zM172 930h174q-6 -13 -17 -30q-10 -14 -28 -33.5t-48 -42.5q-27 -21 -54 -33.5t-48 -20.5q-25 -9 -47 -13z" />
    <glyph glyph-name="Icircumflex" unicode="&#xce;" horiz-adv-x="359" 
d="M316 -1q-13 0 -32 1q-17 0 -43 0.5t-61 0.5q-36 0 -62 -0.5t-43 -0.5q-19 -1 -32 -1l9 17l9 18t6.5 21.5t4.5 34.5t3 56.5t1.5 87.5t0.5 127q0 109 -1 169.5t-3.5 92t-7.5 45t-13 28.5l-9 17q12 -1 31 -1q17 -1 42.5 -1h62.5h64.5t42.5 1q18 0 30 1l-9 -17l-9 -18
t-6.5 -21.5t-4.5 -34.5t-3 -56.5t-1.5 -87.5t-0.5 -127q0 -109 1 -169.5t3.5 -92t7.5 -45t13 -28.5zM364 755q-44 -1 -94.5 17t-90.5 62q-17 -20 -40 -35t-48 -25.5t-50.5 -15.5t-46.5 -3l128 174h114z" />
    <glyph glyph-name="Idieresis" unicode="&#xcf;" horiz-adv-x="359" 
d="M316 -1q-13 0 -32 1q-17 0 -43 0.5t-61 0.5q-36 0 -62 -0.5t-43 -0.5q-19 -1 -32 -1l9 17l9 18t6.5 21.5t4.5 34.5t3 56.5t1.5 87.5t0.5 127q0 109 -1 169.5t-3.5 92t-7.5 45t-13 28.5l-9 17q12 -1 31 -1q17 -1 42.5 -1h62.5h64.5t42.5 1q18 0 30 1l-9 -17l-9 -18
t-6.5 -21.5t-4.5 -34.5t-3 -56.5t-1.5 -87.5t-0.5 -127q0 -109 1 -169.5t3.5 -92t7.5 -45t13 -28.5zM168 840l-112 -96l-112 96l112 97zM409 840l-112 -96l-112 96l112 97z" />
    <glyph glyph-name="Eth" unicode="&#xd0;" horiz-adv-x="790" 
d="M757 366q0 -90 -19 -152t-51.5 -103t-75 -63.5t-89.5 -33.5t-95 -13.5t-91 -2.5q-15 0 -37.5 0.5t-45.5 1t-44 1t-33 0.5q-24 0 -43 -0.5t-32 -0.5q-16 -1 -27 -1l9 17q7 12 11.5 24t7.5 38.5t4.5 75t1.5 133.5h-1q-29 0 -48 -4t-30 -9q-13 -6 -21 -13q0 9 1 21
q0 11 0.5 26t0.5 36q0 20 -0.5 36t-0.5 27q-1 12 -1 22q8 -8 21 -13q11 -5 30 -9t48 -4h1q0 92 -1.5 144t-4 80.5t-7.5 41.5t-12 27l-9 17q11 -1 26 -1q13 -1 31.5 -1h42.5q15 0 36.5 0.5t44 1t44.5 1t38 0.5q46 0 95 -2.5t95.5 -13.5t88.5 -32.5t73 -60.5t49.5 -97
t18.5 -142zM541 357q0 52 -7 97t-27 78t-56 52t-93 19q-11 0 -19.5 -0.5t-14.5 -1.5q-7 -1 -12 -1v-197h16q29 0 48 4t30 9q13 5 21 13q-1 -10 -1 -22q-1 -11 -1 -27v-36v-36t1 -26q0 -12 1 -21q-8 7 -21 13q-11 5 -30 9t-48 4h-16v-175q4 -1 11 -2q6 -1 15 -1h23
q57 0 92 19.5t54.5 53t26.5 78.5t7 97z" />
    <glyph glyph-name="Ntilde" unicode="&#xd1;" horiz-adv-x="766" 
d="M719 696q-7 -13 -11.5 -26.5t-7.5 -46.5t-4.5 -96.5t-1.5 -175.5v-352q-10 0 -24 1q-12 0 -31 0.5t-46 0.5q-29 0 -54 -0.5t-44 -0.5q-22 -1 -41 -1l-203 446q-13 28 -20.5 52t-8.5 27v-173q0 -109 1 -169.5t3.5 -92t7.5 -45t13 -28.5l9 -17q-10 0 -25 1q-13 0 -33 0.5
t-47 0.5q-29 0 -49.5 -0.5t-33.5 -0.5q-15 -1 -25 -1l9 17q4 9 8 17t6.5 21.5t4.5 35t3.5 56.5t2 87.5t0.5 127.5q0 109 -1 169.5t-3.5 92t-7.5 45t-13 28.5l-9 17q14 -1 34 -1q17 -1 44.5 -1h65.5h56.5t41.5 1q19 0 33 1l202 -444q8 -17 13 -31.5t9 -25.5q4 -13 7 -24v173
q0 109 -1 169.5t-3.5 92t-7.5 45t-13 28.5l-9 17q10 -1 25 -1q13 -1 32.5 -1h47.5h49.5t33.5 1q15 0 25 1zM489 881q15 0 28 7t22.5 15t15 15.5t6.5 9.5q0 -27 -2 -54t-11.5 -48.5t-28.5 -35.5t-53 -14q-15 0 -28.5 3.5t-23.5 6.5l-66 21q-13 4 -21 6t-21 2q-15 0 -28 -7
t-22.5 -15.5t-15 -16t-6.5 -9.5q0 27 2 54t11.5 49t28.5 36t53 14q15 0 28 -3.5t23 -6.5l67 -21q13 -4 21 -6t21 -2z" />
    <glyph glyph-name="Ograve" unicode="&#xd2;" horiz-adv-x="745" 
d="M495 355q0 75 -11.5 122.5t-29.5 74.5t-39.5 39t-41.5 17q-20 -5 -41.5 -17t-39.5 -39.5t-30 -75t-12 -122.5t11.5 -122.5t29.5 -74.5t39.5 -39t41.5 -17q20 5 41.5 17t39.5 39.5t30 75t12 122.5zM712 355q0 -75 -17 -131.5t-44.5 -96.5t-63 -66.5t-73.5 -42.5t-75 -23.5
t-67 -9.5q-30 3 -67 9.5t-75 21.5t-73.5 40.5t-63 65.5t-44 97t-16.5 135q0 75 17 131.5t44.5 96.5t63 66.5t73.5 42.5t75 23t67 10q30 -3 67 -9.5t75 -21.5t73.5 -40.5t63 -65.5t44 -97t16.5 -135zM454 757q-23 4 -48 13q-21 8 -47.5 20.5t-53.5 33.5q-30 23 -48.5 42.5
t-28.5 33.5q-11 17 -16 30h174z" />
    <glyph glyph-name="Oacute" unicode="&#xd3;" horiz-adv-x="745" 
d="M495 355q0 75 -11.5 122.5t-29.5 74.5t-39.5 39t-41.5 17q-20 -5 -41.5 -17t-39.5 -39.5t-30 -75t-12 -122.5t11.5 -122.5t29.5 -74.5t39.5 -39t41.5 -17q20 5 41.5 17t39.5 39.5t30 75t12 122.5zM712 355q0 -75 -17 -131.5t-44.5 -96.5t-63 -66.5t-73.5 -42.5t-75 -23.5
t-67 -9.5q-30 3 -67 9.5t-75 21.5t-73.5 40.5t-63 65.5t-44 97t-16.5 135q0 75 17 131.5t44.5 96.5t63 66.5t73.5 42.5t75 23t67 10q30 -3 67 -9.5t75 -21.5t73.5 -40.5t63 -65.5t44 -97t16.5 -135zM367 930h174q-6 -13 -17 -30q-10 -14 -28 -33.5t-48 -42.5
q-27 -21 -54 -33.5t-48 -20.5q-25 -9 -47 -13z" />
    <glyph glyph-name="Ocircumflex" unicode="&#xd4;" horiz-adv-x="745" 
d="M495 355q0 75 -11.5 122.5t-29.5 74.5t-39.5 39t-41.5 17q-20 -5 -41.5 -17t-39.5 -39.5t-30 -75t-12 -122.5t11.5 -122.5t29.5 -74.5t39.5 -39t41.5 -17q20 5 41.5 17t39.5 39.5t30 75t12 122.5zM712 355q0 -75 -17 -131.5t-44.5 -96.5t-63 -66.5t-73.5 -42.5t-75 -23.5
t-67 -9.5q-30 3 -67 9.5t-75 21.5t-73.5 40.5t-63 65.5t-44 97t-16.5 135q0 75 17 131.5t44.5 96.5t63 66.5t73.5 42.5t75 23t67 10q30 -3 67 -9.5t75 -21.5t73.5 -40.5t63 -65.5t44 -97t16.5 -135zM559 755q-44 -1 -94.5 17t-90.5 62q-17 -20 -40 -35t-48 -25.5
t-50.5 -15.5t-46.5 -3l128 174h114z" />
    <glyph glyph-name="Otilde" unicode="&#xd5;" horiz-adv-x="745" 
d="M495 355q0 75 -11.5 122.5t-29.5 74.5t-39.5 39t-41.5 17q-20 -5 -41.5 -17t-39.5 -39.5t-30 -75t-12 -122.5t11.5 -122.5t29.5 -74.5t39.5 -39t41.5 -17q20 5 41.5 17t39.5 39.5t30 75t12 122.5zM712 355q0 -75 -17 -131.5t-44.5 -96.5t-63 -66.5t-73.5 -42.5t-75 -23.5
t-67 -9.5q-30 3 -67 9.5t-75 21.5t-73.5 40.5t-63 65.5t-44 97t-16.5 135q0 75 17 131.5t44.5 96.5t63 66.5t73.5 42.5t75 23t67 10q30 -3 67 -9.5t75 -21.5t73.5 -40.5t63 -65.5t44 -97t16.5 -135zM470 881q15 0 28 7t22.5 15t15 15.5t6.5 9.5q0 -27 -2 -54t-11.5 -48.5
t-28.5 -35.5t-53 -14q-15 0 -28.5 3.5t-23.5 6.5l-66 21q-13 4 -21 6t-21 2q-15 0 -28 -7t-22.5 -15.5t-15 -16t-6.5 -9.5q0 27 2 54t11.5 49t28.5 36t53 14q15 0 28 -3.5t23 -6.5l67 -21q13 -4 21 -6t21 -2z" />
    <glyph glyph-name="Odieresis" unicode="&#xd6;" horiz-adv-x="745" 
d="M495 355q0 75 -11.5 122.5t-29.5 74.5t-39.5 39t-41.5 17q-20 -5 -41.5 -17t-39.5 -39.5t-30 -75t-12 -122.5t11.5 -122.5t29.5 -74.5t39.5 -39t41.5 -17q20 5 41.5 17t39.5 39.5t30 75t12 122.5zM712 355q0 -75 -17 -131.5t-44.5 -96.5t-63 -66.5t-73.5 -42.5t-75 -23.5
t-67 -9.5q-30 3 -67 9.5t-75 21.5t-73.5 40.5t-63 65.5t-44 97t-16.5 135q0 75 17 131.5t44.5 96.5t63 66.5t73.5 42.5t75 23t67 10q30 -3 67 -9.5t75 -21.5t73.5 -40.5t63 -65.5t44 -97t16.5 -135zM361 840l-112 -96l-112 96l112 97zM602 840l-112 -96l-112 96l112 97z" />
    <glyph glyph-name="multiply" unicode="&#xd7;" horiz-adv-x="665" 
d="M403 355l217 -217l-71 -71l-217 217l-217 -217l-71 71l217 217l-217 217l71 71l217 -217l217 217l71 -71z" />
    <glyph glyph-name="Oslash" unicode="&#xd8;" horiz-adv-x="745" 
d="M712 355q0 -75 -17 -131.5t-44.5 -96.5t-63 -66.5t-73.5 -42.5t-75 -23.5t-67 -9.5q-30 3 -66 9.5t-73 20.5l-45 -85l-63 32l45 85q-29 19 -53.5 46t-43.5 64t-29.5 86t-10.5 111q0 75 17 131.5t44.5 96.5t63 66.5t73.5 42.5t75 23t67 10q30 -3 66 -9.5t73 -20.5l44 84
l63 -32l-45 -84q28 -19 53.5 -46t44 -64t29.5 -86t11 -111zM495 355q0 42 -3.5 73.5t-10.5 57.5l-180 -343q17 -20 35 -29t36 -13q20 5 41.5 17t39.5 39.5t30 75t12 122.5zM250 354q0 -82 13 -130l181 342q-17 20 -35.5 28.5t-35.5 13.5q-20 -5 -41.5 -17t-39.5 -39.5
t-30 -75t-12 -122.5z" />
    <glyph glyph-name="Ugrave" unicode="&#xd9;" horiz-adv-x="771" 
d="M719 696q-5 -9 -9 -17.5t-6.5 -22t-4.5 -34.5t-3 -56.5t-1.5 -87.5t-0.5 -127q0 -89 2.5 -144.5t7 -88.5t9.5 -48t11 -23q-33 -17 -79 -29q-40 -11 -98 -20t-136 -9q-116 0 -182.5 26.5t-99.5 71.5t-41.5 104.5t-8.5 125.5q0 29 1 69t2.5 80t2.5 75t1 54q0 15 -0.5 31
t-4 30.5t-12.5 26t-26 19.5q15 3 33 7q16 3 36.5 5.5t46.5 2.5q50 0 77.5 -8.5t41 -23.5t16.5 -35t3 -42q0 -46 -3.5 -106.5t-3.5 -130.5q0 -66 2 -115t13 -81.5t36 -49t70 -16.5q20 0 35 2t25 4q11 3 18 6v254q0 70 -0.5 118t-1.5 80.5t-2.5 52t-4.5 32t-7 20.5l-9 18
l-9 17q13 -1 32 -1q17 -1 42.5 -1h61.5h61.5t42.5 1q19 0 33 1zM479 757q-23 4 -48 13q-21 8 -47.5 20.5t-53.5 33.5q-30 23 -48.5 42.5t-28.5 33.5q-11 17 -16 30h174z" />
    <glyph glyph-name="Uacute" unicode="&#xda;" horiz-adv-x="771" 
d="M719 696q-5 -9 -9 -17.5t-6.5 -22t-4.5 -34.5t-3 -56.5t-1.5 -87.5t-0.5 -127q0 -89 2.5 -144.5t7 -88.5t9.5 -48t11 -23q-33 -17 -79 -29q-40 -11 -98 -20t-136 -9q-116 0 -182.5 26.5t-99.5 71.5t-41.5 104.5t-8.5 125.5q0 29 1 69t2.5 80t2.5 75t1 54q0 15 -0.5 31
t-4 30.5t-12.5 26t-26 19.5q15 3 33 7q16 3 36.5 5.5t46.5 2.5q50 0 77.5 -8.5t41 -23.5t16.5 -35t3 -42q0 -46 -3.5 -106.5t-3.5 -130.5q0 -66 2 -115t13 -81.5t36 -49t70 -16.5q20 0 35 2t25 4q11 3 18 6v254q0 70 -0.5 118t-1.5 80.5t-2.5 52t-4.5 32t-7 20.5l-9 18
l-9 17q13 -1 32 -1q17 -1 42.5 -1h61.5h61.5t42.5 1q19 0 33 1zM388 930h174q-6 -13 -17 -30q-10 -14 -28 -33.5t-48 -42.5q-27 -21 -54 -33.5t-48 -20.5q-25 -9 -47 -13z" />
    <glyph glyph-name="Ucircumflex" unicode="&#xdb;" horiz-adv-x="771" 
d="M719 696q-5 -9 -9 -17.5t-6.5 -22t-4.5 -34.5t-3 -56.5t-1.5 -87.5t-0.5 -127q0 -89 2.5 -144.5t7 -88.5t9.5 -48t11 -23q-33 -17 -79 -29q-40 -11 -98 -20t-136 -9q-116 0 -182.5 26.5t-99.5 71.5t-41.5 104.5t-8.5 125.5q0 29 1 69t2.5 80t2.5 75t1 54q0 15 -0.5 31
t-4 30.5t-12.5 26t-26 19.5q15 3 33 7q16 3 36.5 5.5t46.5 2.5q50 0 77.5 -8.5t41 -23.5t16.5 -35t3 -42q0 -46 -3.5 -106.5t-3.5 -130.5q0 -66 2 -115t13 -81.5t36 -49t70 -16.5q20 0 35 2t25 4q11 3 18 6v254q0 70 -0.5 118t-1.5 80.5t-2.5 52t-4.5 32t-7 20.5l-9 18
l-9 17q13 -1 32 -1q17 -1 42.5 -1h61.5h61.5t42.5 1q19 0 33 1zM574 755q-44 -1 -94.5 17t-90.5 62q-17 -20 -40 -35t-48 -25.5t-50.5 -15.5t-46.5 -3l128 174h114z" />
    <glyph glyph-name="Udieresis" unicode="&#xdc;" horiz-adv-x="771" 
d="M719 696q-5 -9 -9 -17.5t-6.5 -22t-4.5 -34.5t-3 -56.5t-1.5 -87.5t-0.5 -127q0 -89 2.5 -144.5t7 -88.5t9.5 -48t11 -23q-33 -17 -79 -29q-40 -11 -98 -20t-136 -9q-116 0 -182.5 26.5t-99.5 71.5t-41.5 104.5t-8.5 125.5q0 29 1 69t2.5 80t2.5 75t1 54q0 15 -0.5 31
t-4 30.5t-12.5 26t-26 19.5q15 3 33 7q16 3 36.5 5.5t46.5 2.5q50 0 77.5 -8.5t41 -23.5t16.5 -35t3 -42q0 -46 -3.5 -106.5t-3.5 -130.5q0 -66 2 -115t13 -81.5t36 -49t70 -16.5q20 0 35 2t25 4q11 3 18 6v254q0 70 -0.5 118t-1.5 80.5t-2.5 52t-4.5 32t-7 20.5l-9 18
l-9 17q13 -1 32 -1q17 -1 42.5 -1h61.5h61.5t42.5 1q19 0 33 1zM384 840l-112 -96l-112 96l112 97zM625 840l-112 -96l-112 96l112 97z" />
    <glyph glyph-name="Yacute" unicode="&#xdd;" horiz-adv-x="702" 
d="M712 713q-11 -9 -19 -21t-18 -35q-10 -24 -26 -71t-41.5 -104.5t-61.5 -120t-86 -117.5q0 -57 1 -94.5t3.5 -62t7.5 -40.5t13 -31l9 -17q-14 0 -34 1q-17 0 -43 0.5t-61 0.5t-61 -0.5t-43 -0.5q-20 -1 -35 -1l9 17q7 13 11.5 28.5t7.5 39t4.5 59t1.5 89.5l-145 280
q-32 63 -51 98t-31 54.5t-21.5 29t-22.5 19.5q16 -1 38 -1q19 -1 47.5 -1h68.5h70t49 1q23 0 38 1q-12 -11 -17.5 -23t-5.5 -24t1 -21.5t5.5 -22.5t13.5 -34t26 -57l65 -142q13 16 29.5 48t31.5 69t25 75.5t10 68.5q0 29 -8.5 42.5t-18.5 20.5q16 -1 36 -1q17 -1 41 -1h55
h57t42 1q19 0 33 1zM370 930h174q-6 -13 -17 -30q-10 -14 -28 -33.5t-48 -42.5q-27 -21 -54 -33.5t-48 -20.5q-25 -9 -47 -13z" />
    <glyph glyph-name="Thorn" unicode="&#xde;" horiz-adv-x="682" 
d="M316 -1q-13 0 -32 1q-17 0 -43 0.5t-61 0.5q-36 0 -62 -0.5t-43 -0.5q-19 -1 -32 -1l9 17l9 18t6.5 21.5t4.5 34.5t3 56.5t1.5 87.5t0.5 127q0 109 -1 169.5t-3.5 92t-7.5 45t-13 28.5l-9 17q12 -1 31 -1q17 -1 42.5 -1h62.5h64.5t42.5 1q18 0 30 1l-9 -17
q-7 -14 -11.5 -26t-7.5 -39q17 1 33 1h30q23 0 54.5 -1.5t65 -8t66 -20t58 -38.5t41.5 -63t16 -93q0 -74 -19.5 -121t-50 -73.5t-67.5 -36.5t-72 -10q-23 0 -46 4.5t-41.5 15t-30 26.5t-11.5 39q3 -1 7 -1q5 -1 21 -1t33.5 5t32 20.5t23.5 44t9 75.5q0 69 -27.5 100.5
t-86.5 31.5q-38 0 -43 -1q-1 -32 -1 -75v-100q0 -109 1 -169.5t3.5 -92t7.5 -45t13 -28.5l9 -17v0z" />
    <glyph glyph-name="germandbls" unicode="&#xdf;" horiz-adv-x="776" 
d="M752 176q0 -87 -59 -136t-176 -49q-50 0 -86 5t-60 11q-28 7 -47 17q0 6 1 17q0 9 0.5 24.5t0.5 38.5q0 25 -0.5 43.5t-0.5 30.5q-1 14 -1 24q18 -29 37 -48t40 -29.5t43 -14.5t45 -4q42 0 60.5 12t18.5 33q0 20 -11 30t-35 22l-74 36q-30 15 -53 28.5t-38 31t-23 41
t-8 58.5t13 59.5t30.5 40.5t34.5 24.5l25 12.5q25 13 43.5 22t30.5 18.5t18 20t6 26.5q0 13 -6 25t-20.5 21t-38.5 14t-61 5q-55 0 -88 -17t-41 -46q-5 -18 -6 -40t-1 -57v-528q-13 0 -29 1q-14 0 -32 0.5t-38 0.5q-36 0 -61.5 -0.5t-42.5 -0.5q-19 -1 -32 -1l9 17
q6 11 10.5 21.5t8 35.5t5 71t1.5 127v187q0 15 -0.5 36t0 43.5t3 45.5t7.5 42q15 56 52 88.5t84 49t96.5 20.5t90.5 4q55 0 112.5 -5.5t104 -22t76 -46.5t29.5 -79q0 -33 -13 -55.5t-35 -39.5t-50 -30.5t-59 -26.5q-27 -12 -44 -21.5t-17 -29.5t14 -29.5t44 -23.5l71 -32
q58 -26 90 -64.5t32 -105.5z" />
    <glyph glyph-name="agrave" unicode="&#xe0;" horiz-adv-x="629" 
d="M595 17l-225 -25l5 120q-10 -41 -28.5 -65t-41 -37t-48 -16.5t-49.5 -3.5q-52 0 -86 16.5t-54 42t-28 57.5t-8 62q0 67 25.5 104.5t62.5 56t78.5 22.5t73.5 4q21 0 38.5 -1t29.5 -3q14 -2 26 -3v19q0 23 -3 43.5t-17 35.5q-12 13 -35 20.5t-67 7.5q-39 0 -82.5 -14.5
t-73.5 -50.5q0 9 1 20q1 10 1.5 24t0.5 31q0 19 -0.5 33t-1.5 23q-1 11 -2 18q20 8 52 15q27 6 68.5 11t98.5 5q51 0 87.5 -5.5t62 -14.5t42 -21t26.5 -24q28 -34 33.5 -78.5t5.5 -94.5v-47.5t-0.5 -36t-0.5 -38.5v-53q0 -55 5.5 -86t18.5 -56zM367 263q-3 0 -8 1t-12.5 1.5
t-18.5 0.5q-12 0 -28.5 -1.5t-31.5 -10t-25.5 -25.5t-10.5 -48q0 -44 21.5 -63.5t50.5 -19.5q18 0 29.5 3.5t19.5 8.5q9 5 14 12v141zM389 623q-23 4 -48 13q-21 8 -47.5 20.5t-53.5 33.5q-30 23 -48.5 42.5t-28.5 33.5q-11 17 -16 30h174z" />
    <glyph glyph-name="aacute" unicode="&#xe1;" horiz-adv-x="629" 
d="M595 17l-225 -25l5 120q-10 -41 -28.5 -65t-41 -37t-48 -16.5t-49.5 -3.5q-52 0 -86 16.5t-54 42t-28 57.5t-8 62q0 67 25.5 104.5t62.5 56t78.5 22.5t73.5 4q21 0 38.5 -1t29.5 -3q14 -2 26 -3v19q0 23 -3 43.5t-17 35.5q-12 13 -35 20.5t-67 7.5q-39 0 -82.5 -14.5
t-73.5 -50.5q0 9 1 20q1 10 1.5 24t0.5 31q0 19 -0.5 33t-1.5 23q-1 11 -2 18q20 8 52 15q27 6 68.5 11t98.5 5q51 0 87.5 -5.5t62 -14.5t42 -21t26.5 -24q28 -34 33.5 -78.5t5.5 -94.5v-47.5t-0.5 -36t-0.5 -38.5v-53q0 -55 5.5 -86t18.5 -56zM367 263q-3 0 -8 1t-12.5 1.5
t-18.5 0.5q-12 0 -28.5 -1.5t-31.5 -10t-25.5 -25.5t-10.5 -48q0 -44 21.5 -63.5t50.5 -19.5q18 0 29.5 3.5t19.5 8.5q9 5 14 12v141zM304 796h174q-6 -13 -17 -30q-10 -14 -28 -33.5t-48 -42.5q-27 -21 -54 -33.5t-48 -20.5q-25 -9 -47 -13z" />
    <glyph glyph-name="acircumflex" unicode="&#xe2;" horiz-adv-x="629" 
d="M595 17l-225 -25l5 120q-10 -41 -28.5 -65t-41 -37t-48 -16.5t-49.5 -3.5q-52 0 -86 16.5t-54 42t-28 57.5t-8 62q0 67 25.5 104.5t62.5 56t78.5 22.5t73.5 4q21 0 38.5 -1t29.5 -3q14 -2 26 -3v19q0 23 -3 43.5t-17 35.5q-12 13 -35 20.5t-67 7.5q-39 0 -82.5 -14.5
t-73.5 -50.5q0 9 1 20q1 10 1.5 24t0.5 31q0 19 -0.5 33t-1.5 23q-1 11 -2 18q20 8 52 15q27 6 68.5 11t98.5 5q51 0 87.5 -5.5t62 -14.5t42 -21t26.5 -24q28 -34 33.5 -78.5t5.5 -94.5v-47.5t-0.5 -36t-0.5 -38.5v-53q0 -55 5.5 -86t18.5 -56zM367 263q-3 0 -8 1t-12.5 1.5
t-18.5 0.5q-12 0 -28.5 -1.5t-31.5 -10t-25.5 -25.5t-10.5 -48q0 -44 21.5 -63.5t50.5 -19.5q18 0 29.5 3.5t19.5 8.5q9 5 14 12v141zM497 622q-44 -1 -94.5 17t-90.5 62q-17 -20 -40 -35t-48 -25.5t-50.5 -15.5t-46.5 -3l128 174h114z" />
    <glyph glyph-name="atilde" unicode="&#xe3;" horiz-adv-x="629" 
d="M595 17l-225 -25l5 120q-10 -41 -28.5 -65t-41 -37t-48 -16.5t-49.5 -3.5q-52 0 -86 16.5t-54 42t-28 57.5t-8 62q0 67 25.5 104.5t62.5 56t78.5 22.5t73.5 4q21 0 38.5 -1t29.5 -3q14 -2 26 -3v19q0 23 -3 43.5t-17 35.5q-12 13 -35 20.5t-67 7.5q-39 0 -82.5 -14.5
t-73.5 -50.5q0 9 1 20q1 10 1.5 24t0.5 31q0 19 -0.5 33t-1.5 23q-1 11 -2 18q20 8 52 15q27 6 68.5 11t98.5 5q51 0 87.5 -5.5t62 -14.5t42 -21t26.5 -24q28 -34 33.5 -78.5t5.5 -94.5v-47.5t-0.5 -36t-0.5 -38.5v-53q0 -55 5.5 -86t18.5 -56zM367 263q-3 0 -8 1t-12.5 1.5
t-18.5 0.5q-12 0 -28.5 -1.5t-31.5 -10t-25.5 -25.5t-10.5 -48q0 -44 21.5 -63.5t50.5 -19.5q18 0 29.5 3.5t19.5 8.5q9 5 14 12v141zM416 747q15 0 28 7t22.5 15t15 15.5t6.5 9.5q0 -27 -2 -54t-11.5 -48.5t-28.5 -35.5t-53 -14q-15 0 -28.5 3.5t-23.5 6.5l-66 21
q-13 4 -21 6t-21 2q-15 0 -28 -7t-22.5 -15.5t-15 -16t-6.5 -9.5q0 27 2 54t11.5 49t28.5 36t53 14q15 0 28 -3.5t23 -6.5l67 -21q13 -4 21 -6t21 -2z" />
    <glyph glyph-name="adieresis" unicode="&#xe4;" horiz-adv-x="629" 
d="M595 17l-225 -25l5 120q-10 -41 -28.5 -65t-41 -37t-48 -16.5t-49.5 -3.5q-52 0 -86 16.5t-54 42t-28 57.5t-8 62q0 67 25.5 104.5t62.5 56t78.5 22.5t73.5 4q21 0 38.5 -1t29.5 -3q14 -2 26 -3v19q0 23 -3 43.5t-17 35.5q-12 13 -35 20.5t-67 7.5q-39 0 -82.5 -14.5
t-73.5 -50.5q0 9 1 20q1 10 1.5 24t0.5 31q0 19 -0.5 33t-1.5 23q-1 11 -2 18q20 8 52 15q27 6 68.5 11t98.5 5q51 0 87.5 -5.5t62 -14.5t42 -21t26.5 -24q28 -34 33.5 -78.5t5.5 -94.5v-47.5t-0.5 -36t-0.5 -38.5v-53q0 -55 5.5 -86t18.5 -56zM367 263q-3 0 -8 1t-12.5 1.5
t-18.5 0.5q-12 0 -28.5 -1.5t-31.5 -10t-25.5 -25.5t-10.5 -48q0 -44 21.5 -63.5t50.5 -19.5q18 0 29.5 3.5t19.5 8.5q9 5 14 12v141zM304 698l-112 -96l-112 96l112 97zM545 698l-112 -96l-112 96l112 97z" />
    <glyph glyph-name="aring" unicode="&#xe5;" horiz-adv-x="629" 
d="M595 17l-225 -25l5 120q-10 -41 -28.5 -65t-41 -37t-48 -16.5t-49.5 -3.5q-52 0 -86 16.5t-54 42t-28 57.5t-8 62q0 67 25.5 104.5t62.5 56t78.5 22.5t73.5 4q21 0 38.5 -1t29.5 -3q14 -2 26 -3v19q0 23 -3 43.5t-17 35.5q-12 13 -35 20.5t-67 7.5q-39 0 -82.5 -14.5
t-73.5 -50.5q0 9 1 20q1 10 1.5 24t0.5 31q0 19 -0.5 33t-1.5 23q-1 11 -2 18q20 8 52 15q27 6 68.5 11t98.5 5q51 0 87.5 -5.5t62 -14.5t42 -21t26.5 -24q28 -34 33.5 -78.5t5.5 -94.5v-47.5t-0.5 -36t-0.5 -38.5v-53q0 -55 5.5 -86t18.5 -56zM367 263q-3 0 -8 1t-12.5 1.5
t-18.5 0.5q-12 0 -28.5 -1.5t-31.5 -10t-25.5 -25.5t-10.5 -48q0 -44 21.5 -63.5t50.5 -19.5q18 0 29.5 3.5t19.5 8.5q9 5 14 12v141zM432 722q0 -26 -9 -46.5t-25 -35t-37.5 -22.5t-45.5 -8q-50 0 -83 29.5t-33 80.5q0 25 9 46t25 35.5t37.5 22.5t45.5 8q50 0 83 -29.5
t33 -80.5zM365 721q0 22 -14 35.5t-35 13.5t-35.5 -13.5t-14.5 -35.5t14 -35.5t35 -13.5t35.5 13.5t14.5 35.5z" />
    <glyph glyph-name="ae" unicode="&#xe6;" horiz-adv-x="911" 
d="M880 402q0 -28 -7 -58t-25.5 -54.5t-50 -40.5t-80.5 -16q-57 0 -87 23.5t-30 63.5q3 -2 7 -3q7 -3 26 -3q37 0 48 25.5t11 67.5q0 87 -64 87q-23 0 -38 -10t-23 -31t-11 -53.5t-3 -77.5q0 -39 5.5 -77.5t23.5 -69t51 -49.5t87 -19q47 0 77.5 8t48 18.5t24.5 19.5t8 11
q0 -30 -12 -61.5t-39.5 -57t-72 -41.5t-109.5 -16q-77 0 -130 20.5t-87 56.5t-49 84.5t-15 104.5q-5 0 -10 1q-5 0 -11.5 0.5t-14.5 0.5q-15 0 -31.5 -2t-30.5 -11.5t-23.5 -28.5t-9.5 -53q0 -45 14.5 -66.5t51.5 -21.5q14 0 24 5t17 11q8 7 14 16q0 -54 -39 -85.5
t-108 -31.5q-59 0 -93.5 19.5t-52 47t-22 57.5t-4.5 51q0 67 23 106t57.5 59t76 25.5t77.5 5.5q23 0 40 -1t30 -3q14 -2 26 -3v11q0 23 -3 43.5t-17 35.5q-12 13 -36 20.5t-68 7.5q-15 0 -35.5 -3t-41 -10.5t-40 -20t-32.5 -31.5q0 51 19 86.5t50.5 57t70.5 31t80 9.5
q47 0 77.5 -7t49.5 -15q22 -10 34 -21q18 12 43 22q21 8 52 15.5t71 7.5q45 0 88.5 -8.5t77.5 -30t54.5 -58t20.5 -92.5z" />
    <glyph glyph-name="ccedilla" unicode="&#xe7;" horiz-adv-x="530" 
d="M377 111q37 0 62 8t40.5 18.5t22.5 19.5t8 11q0 -29 -10 -59.5t-33 -56.5t-60.5 -43.5t-92.5 -20.5q-3 -6 -3 -13q0 -9 7 -15.5t20 -14.5l11 -7q6 -4 14 -9t15 -12.5t12 -18.5t5 -26q0 -29 -16 -46t-40.5 -26t-54 -11.5t-56.5 -1.5q2 1 11.5 6.5t20 15t19 23t8.5 30.5
q0 16 -5.5 26.5t-16.5 24.5l-6 8q-7 9 -11.5 17t-4.5 19t4 18.5t10 14.5q-63 6 -106 30.5t-69.5 63t-38.5 87.5t-12 105q0 155 73.5 234t216.5 79q49 0 83.5 -6t55.5 -14q25 -9 40 -19q-1 -9 -1 -21q-1 -11 -1 -26v-36v-42t1 -33q0 -17 1 -31q-21 36 -39.5 58t-35 33
t-32.5 14.5t-33 3.5q-36 0 -59 -15t-36 -39.5t-18 -56t-5 -65.5q0 -36 5 -69t20 -58.5t41.5 -40.5t68.5 -15z" />
    <glyph glyph-name="egrave" unicode="&#xe8;" horiz-adv-x="597" 
d="M566 413q0 -18 -2.5 -38t-11 -39.5t-24 -38t-41.5 -32t-64 -22t-91 -8.5q-23 0 -40 1t-29 3q-14 2 -24 5q0 -16 4.5 -39.5t20 -45t45 -37t80.5 -15.5t83.5 8t51 18.5t26.5 19.5t9 11q0 -32 -12.5 -63.5t-41 -56.5t-73.5 -40.5t-110 -15.5q-81 0 -137 22.5t-90 62t-49 93
t-15 115.5q0 69 13.5 119t36 84.5t51 55.5t58.5 32.5t59 15t53 3.5q14 0 39 -0.5t54.5 -5t60 -15t55 -30t40 -50.5t15.5 -77zM375 417q0 13 -3 27t-10 25t-19.5 18t-31.5 7q-29 0 -44.5 -12t-23 -32.5t-9 -48.5t-1.5 -60q4 -2 12 -3q7 -1 17 -1.5t26 -0.5q44 0 65.5 16.5
t21.5 64.5zM382 623q-23 4 -48 13q-21 8 -47.5 20.5t-53.5 33.5q-30 23 -48.5 42.5t-28.5 33.5q-11 17 -16 30h174z" />
    <glyph glyph-name="eacute" unicode="&#xe9;" horiz-adv-x="597" 
d="M566 413q0 -18 -2.5 -38t-11 -39.5t-24 -38t-41.5 -32t-64 -22t-91 -8.5q-23 0 -40 1t-29 3q-14 2 -24 5q0 -16 4.5 -39.5t20 -45t45 -37t80.5 -15.5t83.5 8t51 18.5t26.5 19.5t9 11q0 -32 -12.5 -63.5t-41 -56.5t-73.5 -40.5t-110 -15.5q-81 0 -137 22.5t-90 62t-49 93
t-15 115.5q0 69 13.5 119t36 84.5t51 55.5t58.5 32.5t59 15t53 3.5q14 0 39 -0.5t54.5 -5t60 -15t55 -30t40 -50.5t15.5 -77zM375 417q0 13 -3 27t-10 25t-19.5 18t-31.5 7q-29 0 -44.5 -12t-23 -32.5t-9 -48.5t-1.5 -60q4 -2 12 -3q7 -1 17 -1.5t26 -0.5q44 0 65.5 16.5
t21.5 64.5zM294 796h174q-6 -13 -17 -30q-10 -14 -28 -33.5t-48 -42.5q-27 -21 -54 -33.5t-48 -20.5q-25 -9 -47 -13z" />
    <glyph glyph-name="ecircumflex" unicode="&#xea;" horiz-adv-x="597" 
d="M566 413q0 -18 -2.5 -38t-11 -39.5t-24 -38t-41.5 -32t-64 -22t-91 -8.5q-23 0 -40 1t-29 3q-14 2 -24 5q0 -16 4.5 -39.5t20 -45t45 -37t80.5 -15.5t83.5 8t51 18.5t26.5 19.5t9 11q0 -32 -12.5 -63.5t-41 -56.5t-73.5 -40.5t-110 -15.5q-81 0 -137 22.5t-90 62t-49 93
t-15 115.5q0 69 13.5 119t36 84.5t51 55.5t58.5 32.5t59 15t53 3.5q14 0 39 -0.5t54.5 -5t60 -15t55 -30t40 -50.5t15.5 -77zM375 417q0 13 -3 27t-10 25t-19.5 18t-31.5 7q-29 0 -44.5 -12t-23 -32.5t-9 -48.5t-1.5 -60q4 -2 12 -3q7 -1 17 -1.5t26 -0.5q44 0 65.5 16.5
t21.5 64.5zM499 622q-44 -1 -94.5 17t-90.5 62q-17 -20 -40 -35t-48 -25.5t-50.5 -15.5t-46.5 -3l128 174h114z" />
    <glyph glyph-name="edieresis" unicode="&#xeb;" horiz-adv-x="597" 
d="M566 413q0 -18 -2.5 -38t-11 -39.5t-24 -38t-41.5 -32t-64 -22t-91 -8.5q-23 0 -40 1t-29 3q-14 2 -24 5q0 -16 4.5 -39.5t20 -45t45 -37t80.5 -15.5t83.5 8t51 18.5t26.5 19.5t9 11q0 -32 -12.5 -63.5t-41 -56.5t-73.5 -40.5t-110 -15.5q-81 0 -137 22.5t-90 62t-49 93
t-15 115.5q0 69 13.5 119t36 84.5t51 55.5t58.5 32.5t59 15t53 3.5q14 0 39 -0.5t54.5 -5t60 -15t55 -30t40 -50.5t15.5 -77zM375 417q0 13 -3 27t-10 25t-19.5 18t-31.5 7q-29 0 -44.5 -12t-23 -32.5t-9 -48.5t-1.5 -60q4 -2 12 -3q7 -1 17 -1.5t26 -0.5q44 0 65.5 16.5
t21.5 64.5zM298 698l-112 -96l-112 96l112 97zM539 698l-112 -96l-112 96l112 97z" />
    <glyph glyph-name="igrave" unicode="&#xec;" horiz-adv-x="340" 
d="M319 30q-11 -10 -29 -18q-16 -7 -42 -12.5t-65 -5.5q-42 0 -65.5 11.5t-35 28.5t-13.5 36.5t-2 36.5q0 43 1.5 99.5t1.5 107.5q0 65 -1.5 105t-5 64t-8 37t-10.5 24l-9 17l246 25q-3 -23 -5 -62q-2 -33 -3 -87.5t-1 -135.5v-97q0 -44 1.5 -73.5t6 -49t14 -31.5t24.5 -20z
M247 623q-23 4 -48 13q-21 8 -47.5 20.5t-53.5 33.5q-30 23 -48.5 42.5t-28.5 33.5q-11 17 -16 30h174z" />
    <glyph glyph-name="iacute" unicode="&#xed;" horiz-adv-x="340" 
d="M319 30q-11 -10 -29 -18q-16 -7 -42 -12.5t-65 -5.5q-42 0 -65.5 11.5t-35 28.5t-13.5 36.5t-2 36.5q0 43 1.5 99.5t1.5 107.5q0 65 -1.5 105t-5 64t-8 37t-10.5 24l-9 17l246 25q-3 -23 -5 -62q-2 -33 -3 -87.5t-1 -135.5v-97q0 -44 1.5 -73.5t6 -49t14 -31.5t24.5 -20z
M161 796h174q-6 -13 -17 -30q-10 -14 -28 -33.5t-48 -42.5q-27 -21 -54 -33.5t-48 -20.5q-25 -9 -47 -13z" />
    <glyph glyph-name="icircumflex" unicode="&#xee;" horiz-adv-x="340" 
d="M319 30q-11 -10 -29 -18q-16 -7 -42 -12.5t-65 -5.5q-42 0 -65.5 11.5t-35 28.5t-13.5 36.5t-2 36.5q0 43 1.5 99.5t1.5 107.5q0 65 -1.5 105t-5 64t-8 37t-10.5 24l-9 17l246 25q-3 -23 -5 -62q-2 -33 -3 -87.5t-1 -135.5v-97q0 -44 1.5 -73.5t6 -49t14 -31.5t24.5 -20z
M358 622q-44 -1 -94.5 17t-90.5 62q-17 -20 -40 -35t-48 -25.5t-50.5 -15.5t-46.5 -3l128 174h114z" />
    <glyph glyph-name="idieresis" unicode="&#xef;" horiz-adv-x="340" 
d="M319 30q-11 -10 -29 -18q-16 -7 -42 -12.5t-65 -5.5q-42 0 -65.5 11.5t-35 28.5t-13.5 36.5t-2 36.5q0 43 1.5 99.5t1.5 107.5q0 65 -1.5 105t-5 64t-8 37t-10.5 24l-9 17l246 25q-3 -23 -5 -62q-2 -33 -3 -87.5t-1 -135.5v-97q0 -44 1.5 -73.5t6 -49t14 -31.5t24.5 -20z
M162 698l-112 -96l-112 96l112 97zM403 698l-112 -96l-112 96l112 97z" />
    <glyph glyph-name="eth" unicode="&#xf0;" horiz-adv-x="657" 
d="M626 394q0 -89 -15 -163.5t-50 -128.5t-93.5 -84t-145.5 -30q-66 0 -119.5 15t-92 49t-59 89t-20.5 136q0 58 13 109t40.5 89t70 60.5t101.5 22.5q51 0 82.5 -16t49.5 -35q20 -22 30 -50q-1 52 -6 94t-22 72l-67 -42l-23 39l61 38q-40 32 -120 32q-42 0 -70.5 -5.5
t-45.5 -12.5q-20 -8 -32 -17q10 37 37 66q23 25 68 45.5t121 20.5q50 0 94 -10.5t81 -34.5l72 45l23 -39l-58 -36q45 -45 70 -122t25 -196zM416 410q0 8 -0.5 15t-0.5 12v10q-5 7 -15 12q-8 5 -22 8.5t-34 3.5q-25 0 -44.5 -10t-32.5 -32.5t-19.5 -59.5t-6.5 -91
q0 -55 6.5 -88.5t17.5 -52t27 -25t34 -6.5q27 0 44 12.5t27.5 46t14.5 93t4 152.5z" />
    <glyph glyph-name="ntilde" unicode="&#xf1;" horiz-adv-x="691" 
d="M659 -1q-13 0 -32 1q-17 0 -42.5 0.5t-60.5 0.5q-36 0 -61.5 -0.5t-42.5 -0.5q-19 -1 -32 -1l9 17q6 11 10.5 21.5t8 35t5 70t1.5 127.5q0 45 -1 74t-2.5 47t-4 28t-6.5 17q-6 11 -19.5 21t-43.5 10q-23 0 -37 -5.5t-22 -12.5q-10 -8 -13 -18v-160q0 -81 1.5 -127t5 -71
t8 -35.5t10.5 -21.5l9 -17q-13 0 -32 1q-17 0 -42.5 0.5t-60.5 0.5q-36 0 -61.5 -0.5t-42.5 -0.5q-19 -1 -32 -1l9 17q6 11 10.5 21.5t8 35t5 70.5t1.5 128v43q0 65 -1.5 105t-5 64t-8 37t-10.5 24l-9 17l234 25l-5 -145q17 80 61 114.5t118 34.5q59 0 96 -18.5t57 -53.5
q9 -16 14.5 -33.5t8.5 -41.5t4 -56t1 -76v-40q0 -82 1.5 -128t5 -70.5t8 -35t10.5 -21.5zM443 747q15 0 28 7t22.5 15t15 15.5t6.5 9.5q0 -27 -2 -54t-11.5 -48.5t-28.5 -35.5t-53 -14q-15 0 -28.5 3.5t-23.5 6.5l-66 21q-13 4 -21 6t-21 2q-15 0 -28 -7t-22.5 -15.5
t-15 -16t-6.5 -9.5q0 27 2 54t11.5 49t28.5 36t53 14q15 0 28 -3.5t23 -6.5l67 -21q13 -4 21 -6t21 -2z" />
    <glyph glyph-name="ograve" unicode="&#xf2;" horiz-adv-x="661" 
d="M420 290q0 56 -8.5 91.5t-21 55.5t-28.5 29t-31 13q-15 -4 -30.5 -13t-29 -29.5t-22 -56t-8.5 -91.5t8.5 -91.5t21 -55.5t28.5 -29t31 -13q15 4 30.5 13t29 29.5t22 56t8.5 91.5zM630 290q0 -62 -20 -115.5t-58 -93.5t-94 -65t-128 -31q-78 7 -134.5 32t-93 65t-54 92.5
t-17.5 114.5t20 115.5t58 93.5t94 65t128 31q78 -7 134.5 -32t93 -65t54 -92.5t17.5 -114.5zM408 623q-23 4 -48 13q-21 8 -47.5 20.5t-53.5 33.5q-30 23 -48.5 42.5t-28.5 33.5q-11 17 -16 30h174z" />
    <glyph glyph-name="oacute" unicode="&#xf3;" horiz-adv-x="661" 
d="M420 290q0 56 -8.5 91.5t-21 55.5t-28.5 29t-31 13q-15 -4 -30.5 -13t-29 -29.5t-22 -56t-8.5 -91.5t8.5 -91.5t21 -55.5t28.5 -29t31 -13q15 4 30.5 13t29 29.5t22 56t8.5 91.5zM630 290q0 -62 -20 -115.5t-58 -93.5t-94 -65t-128 -31q-78 7 -134.5 32t-93 65t-54 92.5
t-17.5 114.5t20 115.5t58 93.5t94 65t128 31q78 -7 134.5 -32t93 -65t54 -92.5t17.5 -114.5zM321 796h174q-6 -13 -17 -30q-10 -14 -28 -33.5t-48 -42.5q-27 -21 -54 -33.5t-48 -20.5q-25 -9 -47 -13z" />
    <glyph glyph-name="ocircumflex" unicode="&#xf4;" horiz-adv-x="661" 
d="M420 290q0 56 -8.5 91.5t-21 55.5t-28.5 29t-31 13q-15 -4 -30.5 -13t-29 -29.5t-22 -56t-8.5 -91.5t8.5 -91.5t21 -55.5t28.5 -29t31 -13q15 4 30.5 13t29 29.5t22 56t8.5 91.5zM630 290q0 -62 -20 -115.5t-58 -93.5t-94 -65t-128 -31q-78 7 -134.5 32t-93 65t-54 92.5
t-17.5 114.5t20 115.5t58 93.5t94 65t128 31q78 -7 134.5 -32t93 -65t54 -92.5t17.5 -114.5zM518 622q-44 -1 -94.5 17t-90.5 62q-17 -20 -40 -35t-48 -25.5t-50.5 -15.5t-46.5 -3l128 174h114z" />
    <glyph glyph-name="otilde" unicode="&#xf5;" horiz-adv-x="661" 
d="M420 290q0 56 -8.5 91.5t-21 55.5t-28.5 29t-31 13q-15 -4 -30.5 -13t-29 -29.5t-22 -56t-8.5 -91.5t8.5 -91.5t21 -55.5t28.5 -29t31 -13q15 4 30.5 13t29 29.5t22 56t8.5 91.5zM630 290q0 -62 -20 -115.5t-58 -93.5t-94 -65t-128 -31q-78 7 -134.5 32t-93 65t-54 92.5
t-17.5 114.5t20 115.5t58 93.5t94 65t128 31q78 -7 134.5 -32t93 -65t54 -92.5t17.5 -114.5zM433 747q15 0 28 7t22.5 15t15 15.5t6.5 9.5q0 -27 -2 -54t-11.5 -48.5t-28.5 -35.5t-53 -14q-15 0 -28.5 3.5t-23.5 6.5l-66 21q-13 4 -21 6t-21 2q-15 0 -28 -7t-22.5 -15.5
t-15 -16t-6.5 -9.5q0 27 2 54t11.5 49t28.5 36t53 14q15 0 28 -3.5t23 -6.5l67 -21q13 -4 21 -6t21 -2z" />
    <glyph glyph-name="odieresis" unicode="&#xf6;" horiz-adv-x="661" 
d="M420 290q0 56 -8.5 91.5t-21 55.5t-28.5 29t-31 13q-15 -4 -30.5 -13t-29 -29.5t-22 -56t-8.5 -91.5t8.5 -91.5t21 -55.5t28.5 -29t31 -13q15 4 30.5 13t29 29.5t22 56t8.5 91.5zM630 290q0 -62 -20 -115.5t-58 -93.5t-94 -65t-128 -31q-78 7 -134.5 32t-93 65t-54 92.5
t-17.5 114.5t20 115.5t58 93.5t94 65t128 31q78 -7 134.5 -32t93 -65t54 -92.5t17.5 -114.5zM318 698l-112 -96l-112 96l112 97zM559 698l-112 -96l-112 96l112 97z" />
    <glyph glyph-name="divide" unicode="&#xf7;" horiz-adv-x="665" 
d="M415 580q0 -44 -26 -63.5t-58 -19.5q-14 0 -28.5 4.5t-26.5 14.5t-19.5 25.5t-7.5 37.5q0 43 26 63t57 20q15 0 30 -4.5t26.5 -14.5t19 -25.5t7.5 -37.5zM35 306v97h595v-97h-595zM415 130q0 -22 -7 -37.5t-18.5 -26t-26.5 -15.5t-30 -5t-30 4.5t-27 14.5t-19.5 26
t-7.5 38t7 37.5t19 25.5t27.5 15t31.5 5q14 0 28.5 -4.5t26 -14.5t19 -25.5t7.5 -37.5z" />
    <glyph glyph-name="oslash" unicode="&#xf8;" horiz-adv-x="661" 
d="M630 290q0 -62 -20 -115.5t-58 -93.5t-94 -65t-128 -31q-59 6 -106 21l-39 -77l-58 28l38 75q-70 40 -102 106t-32 151q0 62 20 115.5t58 93.5t94 65t128 31q61 -6 107 -21l39 76l58 -28l-38 -75q69 -40 101 -105.5t32 -150.5zM241 289q0 -53 8 -91l129 255
q-11 11 -23.5 17t-23.5 9q-15 -4 -30.5 -13t-29 -29.5t-22 -56t-8.5 -91.5zM420 290q0 27 -2 48.5t-6 39.5l-128 -253q11 -11 23 -16.5t23 -8.5q15 4 30.5 13t29 29.5t22 56t8.5 91.5z" />
    <glyph glyph-name="ugrave" unicode="&#xf9;" horiz-adv-x="679" 
d="M632 38q-30 -15 -72 -26q-36 -10 -89 -17.5t-123 -7.5q-100 0 -157.5 19.5t-86.5 54.5t-36.5 84t-7.5 109q0 23 0.5 51t1.5 55t1.5 50.5t0.5 37.5q0 27 -1.5 45.5t-5 31t-11 20.5t-19.5 14q9 8 26 14q14 5 38 10t59 5q41 0 64 -9t34.5 -24.5t14.5 -36.5t3 -45
q0 -15 -0.5 -40.5t-1.5 -54t-1.5 -56.5t-0.5 -48q0 -43 2 -74.5t11 -52.5t27 -31.5t50 -10.5q16 0 26.5 2t18.5 4q8 3 14 7v196q0 65 -1.5 105t-5 64t-8 37t-10.5 24l-9 17l244 25q-2 -31 -4 -74q-2 -37 -3 -92.5t-1 -128.5q0 -79 1.5 -126t4 -73t6 -37t7.5 -17zM421 623
q-23 4 -48 13q-21 8 -47.5 20.5t-53.5 33.5q-30 23 -48.5 42.5t-28.5 33.5q-11 17 -16 30h174z" />
    <glyph glyph-name="uacute" unicode="&#xfa;" horiz-adv-x="679" 
d="M632 38q-30 -15 -72 -26q-36 -10 -89 -17.5t-123 -7.5q-100 0 -157.5 19.5t-86.5 54.5t-36.5 84t-7.5 109q0 23 0.5 51t1.5 55t1.5 50.5t0.5 37.5q0 27 -1.5 45.5t-5 31t-11 20.5t-19.5 14q9 8 26 14q14 5 38 10t59 5q41 0 64 -9t34.5 -24.5t14.5 -36.5t3 -45
q0 -15 -0.5 -40.5t-1.5 -54t-1.5 -56.5t-0.5 -48q0 -43 2 -74.5t11 -52.5t27 -31.5t50 -10.5q16 0 26.5 2t18.5 4q8 3 14 7v196q0 65 -1.5 105t-5 64t-8 37t-10.5 24l-9 17l244 25q-2 -31 -4 -74q-2 -37 -3 -92.5t-1 -128.5q0 -79 1.5 -126t4 -73t6 -37t7.5 -17zM332 796
h174q-6 -13 -17 -30q-10 -14 -28 -33.5t-48 -42.5q-27 -21 -54 -33.5t-48 -20.5q-25 -9 -47 -13z" />
    <glyph glyph-name="ucircumflex" unicode="&#xfb;" horiz-adv-x="679" 
d="M632 38q-30 -15 -72 -26q-36 -10 -89 -17.5t-123 -7.5q-100 0 -157.5 19.5t-86.5 54.5t-36.5 84t-7.5 109q0 23 0.5 51t1.5 55t1.5 50.5t0.5 37.5q0 27 -1.5 45.5t-5 31t-11 20.5t-19.5 14q9 8 26 14q14 5 38 10t59 5q41 0 64 -9t34.5 -24.5t14.5 -36.5t3 -45
q0 -15 -0.5 -40.5t-1.5 -54t-1.5 -56.5t-0.5 -48q0 -43 2 -74.5t11 -52.5t27 -31.5t50 -10.5q16 0 26.5 2t18.5 4q8 3 14 7v196q0 65 -1.5 105t-5 64t-8 37t-10.5 24l-9 17l244 25q-2 -31 -4 -74q-2 -37 -3 -92.5t-1 -128.5q0 -79 1.5 -126t4 -73t6 -37t7.5 -17zM539 622
q-44 -1 -94.5 17t-90.5 62q-17 -20 -40 -35t-48 -25.5t-50.5 -15.5t-46.5 -3l128 174h114z" />
    <glyph glyph-name="udieresis" unicode="&#xfc;" horiz-adv-x="679" 
d="M632 38q-30 -15 -72 -26q-36 -10 -89 -17.5t-123 -7.5q-100 0 -157.5 19.5t-86.5 54.5t-36.5 84t-7.5 109q0 23 0.5 51t1.5 55t1.5 50.5t0.5 37.5q0 27 -1.5 45.5t-5 31t-11 20.5t-19.5 14q9 8 26 14q14 5 38 10t59 5q41 0 64 -9t34.5 -24.5t14.5 -36.5t3 -45
q0 -15 -0.5 -40.5t-1.5 -54t-1.5 -56.5t-0.5 -48q0 -43 2 -74.5t11 -52.5t27 -31.5t50 -10.5q16 0 26.5 2t18.5 4q8 3 14 7v196q0 65 -1.5 105t-5 64t-8 37t-10.5 24l-9 17l244 25q-2 -31 -4 -74q-2 -37 -3 -92.5t-1 -128.5q0 -79 1.5 -126t4 -73t6 -37t7.5 -17zM334 698
l-112 -96l-112 96l112 97zM575 698l-112 -96l-112 96l112 97z" />
    <glyph glyph-name="yacute" unicode="&#xfd;" horiz-adv-x="625" 
d="M635 579q-11 -9 -22 -26t-21 -40q-12 -27 -25 -82.5t-31.5 -127t-44.5 -153t-63 -159.5q-19 -39 -42.5 -75.5t-55 -65t-72.5 -45.5t-94 -17q-32 0 -51 2t-30 5q-12 4 -18 8q0 7 1 18q0 10 0.5 25t0.5 36q0 24 -0.5 42t-0.5 30q-1 14 -1 23q12 -18 21 -32t19 -23t22.5 -14
t30.5 -5q34 0 49.5 15t22.5 29l2 4l-141 391q-18 51 -32.5 89.5t-27.5 66.5t-25 47.5t-26 33.5q15 -1 37 -1q19 -1 48 -1h70h70.5t45.5 1q20 0 33 1q-10 -7 -21 -21t-11 -42q0 -26 10 -67.5t24 -97.5l38 -145q6 -23 9 -38.5t5 -25.5q2 -11 3 -18q16 34 29 83.5t22 102
t14 102.5t5 84q0 43 -11 59.5t-21 23.5q12 -1 30 -1q16 -1 40 -1h59h59.5t39.5 1q18 0 28 1zM315 796h174q-6 -13 -17 -30q-10 -14 -28 -33.5t-48 -42.5q-27 -21 -54 -33.5t-48 -20.5q-25 -9 -47 -13z" />
    <glyph glyph-name="thorn" unicode="&#xfe;" horiz-adv-x="674" 
d="M641 302q0 -21 -2.5 -52t-11.5 -65t-27.5 -68t-51 -61t-81.5 -44t-118 -17q-20 0 -34.5 0.5t-25.5 1.5q-12 1 -21 3q0 -53 1.5 -86.5t5 -54t8 -32.5t10.5 -23l9 -17q-13 0 -32 1q-17 0 -42.5 0.5t-60.5 0.5q-36 0 -61.5 -0.5t-42.5 -0.5q-19 -1 -32 -1l9 17
q6 11 10.5 21.5t8 35.5t5 71t1.5 127v456q0 65 -1.5 105t-5 64t-8 37t-10.5 24l-9 17l240 25q-1 -29 -2 -62q-1 -28 -1 -63.5v-71.5h21q35 0 75 -1.5t79 -10t75 -26.5t63.5 -50t43.5 -80.5t16 -119.5zM430 297q0 60 -11 96t-28.5 55t-40 24.5t-45.5 5.5q-9 0 -15.5 -0.5
t-11.5 -1.5t-10 -1v-365q3 -1 8 -2t11.5 -1.5t17.5 -0.5q21 0 43 5t40 24t30 57.5t12 104.5z" />
    <glyph glyph-name="ydieresis" unicode="&#xff;" horiz-adv-x="625" 
d="M635 579q-11 -9 -22 -26t-21 -40q-12 -27 -25 -82.5t-31.5 -127t-44.5 -153t-63 -159.5q-19 -39 -42.5 -75.5t-55 -65t-72.5 -45.5t-94 -17q-32 0 -51 2t-30 5q-12 4 -18 8q0 7 1 18q0 10 0.5 25t0.5 36q0 24 -0.5 42t-0.5 30q-1 14 -1 23q12 -18 21 -32t19 -23t22.5 -14
t30.5 -5q34 0 49.5 15t22.5 29l2 4l-141 391q-18 51 -32.5 89.5t-27.5 66.5t-25 47.5t-26 33.5q15 -1 37 -1q19 -1 48 -1h70h70.5t45.5 1q20 0 33 1q-10 -7 -21 -21t-11 -42q0 -26 10 -67.5t24 -97.5l38 -145q6 -23 9 -38.5t5 -25.5q2 -11 3 -18q16 34 29 83.5t22 102
t14 102.5t5 84q0 43 -11 59.5t-21 23.5q12 -1 30 -1q16 -1 40 -1h59h59.5t39.5 1q18 0 28 1zM318 698l-112 -96l-112 96l112 97zM559 698l-112 -96l-112 96l112 97z" />
    <glyph glyph-name="Amacron" unicode="&#x100;" horiz-adv-x="716" 
d="M716 -1q-12 0 -32 1q-17 0 -45.5 0.5t-70.5 0.5q-43 0 -72.5 -0.5t-47.5 -0.5q-21 -1 -34 -1q10 7 21 21t11 42q0 26 -6.5 68.5t-20.5 98.5l-1 4h-198q-8 -45 -12 -86t-4 -75q0 -36 8.5 -51t18.5 -22q-13 0 -31 1q-16 0 -38.5 0.5t-52.5 0.5t-51.5 -0.5t-35.5 -0.5
q-17 -1 -27 -1q11 9 19.5 21t17.5 35q7 18 16.5 57t21 91t27.5 114.5t36.5 129.5t46.5 135t60 131q12 -1 30 -1q16 -1 40.5 -1h59.5h59.5t42.5 1q20 0 34 1l123 -477q13 -53 23.5 -91.5t20 -66t19.5 -47t24 -32.5zM347 568q-2 11 -4 22.5t-4 21.5q-2 11 -4 23
q-23 -47 -47.5 -124t-44.5 -163h151zM192 773v111h350v-111h-350z" />
    <glyph glyph-name="amacron" unicode="&#x101;" horiz-adv-x="629" 
d="M595 17l-225 -25l5 120q-10 -41 -28.5 -65t-41 -37t-48 -16.5t-49.5 -3.5q-52 0 -86 16.5t-54 42t-28 57.5t-8 62q0 67 25.5 104.5t62.5 56t78.5 22.5t73.5 4q21 0 38.5 -1t29.5 -3q14 -2 26 -3v19q0 23 -3 43.5t-17 35.5q-12 13 -35 20.5t-67 7.5q-39 0 -82.5 -14.5
t-73.5 -50.5q0 9 1 20q1 10 1.5 24t0.5 31q0 19 -0.5 33t-1.5 23q-1 11 -2 18q20 8 52 15q27 6 68.5 11t98.5 5q51 0 87.5 -5.5t62 -14.5t42 -21t26.5 -24q28 -34 33.5 -78.5t5.5 -94.5v-47.5t-0.5 -36t-0.5 -38.5v-53q0 -55 5.5 -86t18.5 -56zM367 263q-3 0 -8 1t-12.5 1.5
t-18.5 0.5q-12 0 -28.5 -1.5t-31.5 -10t-25.5 -25.5t-10.5 -48q0 -44 21.5 -63.5t50.5 -19.5q18 0 29.5 3.5t19.5 8.5q9 5 14 12v141zM155 639v111h350v-111h-350z" />
    <glyph glyph-name="Abreve" unicode="&#x102;" horiz-adv-x="716" 
d="M716 -1q-12 0 -32 1q-17 0 -45.5 0.5t-70.5 0.5q-43 0 -72.5 -0.5t-47.5 -0.5q-21 -1 -34 -1q10 7 21 21t11 42q0 26 -6.5 68.5t-20.5 98.5l-1 4h-198q-8 -45 -12 -86t-4 -75q0 -36 8.5 -51t18.5 -22q-13 0 -31 1q-16 0 -38.5 0.5t-52.5 0.5t-51.5 -0.5t-35.5 -0.5
q-17 -1 -27 -1q11 9 19.5 21t17.5 35q7 18 16.5 57t21 91t27.5 114.5t36.5 129.5t46.5 135t60 131q12 -1 30 -1q16 -1 40.5 -1h59.5h59.5t42.5 1q20 0 34 1l123 -477q13 -53 23.5 -91.5t20 -66t19.5 -47t24 -32.5zM347 568q-2 11 -4 22.5t-4 21.5q-2 11 -4 23
q-23 -47 -47.5 -124t-44.5 -163h151zM187 953q32 -38 75.5 -60.5t105.5 -22.5q63 0 106.5 22.5t75.5 60.5q0 -45 -13.5 -80.5t-37.5 -60.5t-57.5 -38.5t-73.5 -13.5t-73.5 13.5t-57.5 38.5t-37 60.5t-13 80.5z" />
    <glyph glyph-name="abreve" unicode="&#x103;" horiz-adv-x="629" 
d="M595 17l-225 -25l5 120q-10 -41 -28.5 -65t-41 -37t-48 -16.5t-49.5 -3.5q-52 0 -86 16.5t-54 42t-28 57.5t-8 62q0 67 25.5 104.5t62.5 56t78.5 22.5t73.5 4q21 0 38.5 -1t29.5 -3q14 -2 26 -3v19q0 23 -3 43.5t-17 35.5q-12 13 -35 20.5t-67 7.5q-39 0 -82.5 -14.5
t-73.5 -50.5q0 9 1 20q1 10 1.5 24t0.5 31q0 19 -0.5 33t-1.5 23q-1 11 -2 18q20 8 52 15q27 6 68.5 11t98.5 5q51 0 87.5 -5.5t62 -14.5t42 -21t26.5 -24q28 -34 33.5 -78.5t5.5 -94.5v-47.5t-0.5 -36t-0.5 -38.5v-53q0 -55 5.5 -86t18.5 -56zM367 263q-3 0 -8 1t-12.5 1.5
t-18.5 0.5q-12 0 -28.5 -1.5t-31.5 -10t-25.5 -25.5t-10.5 -48q0 -44 21.5 -63.5t50.5 -19.5q18 0 29.5 3.5t19.5 8.5q9 5 14 12v141zM142 819q32 -38 75.5 -60.5t105.5 -22.5q63 0 106.5 22.5t75.5 60.5q0 -45 -13.5 -80.5t-37.5 -60.5t-57.5 -38.5t-73.5 -13.5t-73.5 13.5
t-57.5 38.5t-37 60.5t-13 80.5z" />
    <glyph glyph-name="Aogonek" unicode="&#x104;" horiz-adv-x="716" 
d="M287 -129q0 25 11 45t29 36t40.5 28t44.5 21q12 5 23 20.5t11 40.5q0 26 -6.5 68.5t-20.5 98.5l-1 4h-198q-8 -45 -12 -86t-4 -75q0 -36 8.5 -51t18.5 -22q-13 0 -31 1q-16 0 -38.5 0.5t-52.5 0.5t-51.5 -0.5t-35.5 -0.5q-17 -1 -27 -1q11 9 19.5 21t17.5 35
q7 18 16.5 57t21 91t27.5 114.5t36.5 129.5t46.5 135t60 131q12 -1 30 -1q16 -1 40.5 -1h59.5h59.5t42.5 1q20 0 34 1l123 -477q13 -53 23.5 -91.5t20 -66t19.5 -47t24 -32.5q-12 0 -32 1q-17 0 -45.5 0.5t-70.5 0.5q-33 0 -59.5 -11t-45.5 -27.5t-29.5 -35.5t-10.5 -36
q0 -38 25 -55.5t64 -24.5q-20 -10 -51 -17t-55 -7q-52 0 -85.5 21t-33.5 63zM347 568q-2 11 -4 22.5t-4 21.5q-2 11 -4 23q-23 -47 -47.5 -124t-44.5 -163h151z" />
    <glyph glyph-name="aogonek" unicode="&#x105;" horiz-adv-x="629" 
d="M269 -129q0 22 8.5 40.5t22.5 33.5t32 26.5t38 20.5l5 120q-10 -41 -28.5 -65t-41 -37t-48 -16.5t-49.5 -3.5q-52 0 -86 16.5t-54 42t-28 57.5t-8 62q0 67 25.5 104.5t62.5 56t78.5 22.5t73.5 4q21 0 38.5 -1t29.5 -3q14 -2 26 -3v19q0 23 -3 43.5t-17 35.5
q-12 13 -35 20.5t-67 7.5q-39 0 -82.5 -14.5t-73.5 -50.5q0 9 1 20q1 10 1.5 24t0.5 31q0 19 -0.5 33t-1.5 23q-1 11 -2 18q20 8 52 15q27 6 68.5 11t98.5 5q51 0 87.5 -5.5t62 -14.5t42 -21t26.5 -24q28 -34 33.5 -78.5t5.5 -94.5v-47.5t-0.5 -36t-0.5 -38.5v-53
q0 -55 5.5 -86t18.5 -56l9 -17q-53 -7 -89 -21t-58.5 -31.5t-32.5 -36.5t-10 -37q0 -38 25 -55.5t64 -24.5q-20 -10 -51 -17t-55 -7q-52 0 -85.5 21t-33.5 63zM367 263q-3 0 -8 1t-12.5 1.5t-18.5 0.5q-12 0 -28.5 -1.5t-31.5 -10t-25.5 -25.5t-10.5 -48q0 -44 21.5 -63.5
t50.5 -19.5q18 0 29.5 3.5t19.5 8.5q9 5 14 12v141z" />
    <glyph glyph-name="Cacute" unicode="&#x106;" horiz-adv-x="619" 
d="M589 22q-20 -9 -48 -15q-24 -5 -60.5 -9.5t-86.5 -4.5q-87 0 -154.5 20.5t-113.5 63.5t-69.5 109t-23.5 157q0 97 25 168t72.5 117.5t115.5 68.5t155 22q51 0 86.5 -5t58.5 -10q26 -6 43 -14q-1 -7 -1 -19q-1 -11 -1 -28.5v-43.5v-39t1 -29q0 -14 1 -26q-16 23 -32 41.5
t-35 31t-43 19t-57 6.5q-55 0 -89 -24t-52.5 -61.5t-25 -82.5t-6.5 -86q0 -123 45.5 -181.5t123.5 -58.5q33 0 57.5 7t44.5 20t36.5 31.5t32.5 41.5q-1 -10 -1 -24q-1 -13 -1 -32v-45v-40.5t1 -26.5q0 -12 1 -19zM380 930h174q-6 -13 -17 -30q-10 -14 -28 -33.5t-48 -42.5
q-27 -21 -54 -33.5t-48 -20.5q-25 -9 -47 -13z" />
    <glyph glyph-name="cacute" unicode="&#x107;" horiz-adv-x="530" 
d="M377 111q37 0 62 8t40.5 18.5t22.5 19.5t8 11q0 -30 -10.5 -61.5t-35.5 -58t-65.5 -43.5t-100.5 -17q-74 0 -125 22.5t-82.5 61.5t-45.5 91.5t-14 112.5q0 155 73.5 234t216.5 79q49 0 83.5 -6t55.5 -14q25 -9 40 -19q-1 -9 -1 -21q-1 -11 -1 -26v-36v-42t1 -33
q0 -17 1 -31q-21 36 -39.5 58t-35 33t-32.5 14.5t-33 3.5q-36 0 -59 -15t-36 -39.5t-18 -56t-5 -65.5q0 -36 5 -69t20 -58.5t41.5 -40.5t68.5 -15zM288 796h174q-6 -13 -17 -30q-10 -14 -28 -33.5t-48 -42.5q-27 -21 -54 -33.5t-48 -20.5q-25 -9 -47 -13z" />
    <glyph glyph-name="Ccircumflex" unicode="&#x108;" horiz-adv-x="619" 
d="M589 22q-20 -9 -48 -15q-24 -5 -60.5 -9.5t-86.5 -4.5q-87 0 -154.5 20.5t-113.5 63.5t-69.5 109t-23.5 157q0 97 25 168t72.5 117.5t115.5 68.5t155 22q51 0 86.5 -5t58.5 -10q26 -6 43 -14q-1 -7 -1 -19q-1 -11 -1 -28.5v-43.5v-39t1 -29q0 -14 1 -26q-16 23 -32 41.5
t-35 31t-43 19t-57 6.5q-55 0 -89 -24t-52.5 -61.5t-25 -82.5t-6.5 -86q0 -123 45.5 -181.5t123.5 -58.5q33 0 57.5 7t44.5 20t36.5 31.5t32.5 41.5q-1 -10 -1 -24q-1 -13 -1 -32v-45v-40.5t1 -26.5q0 -12 1 -19zM558 755q-44 -1 -94.5 17t-90.5 62q-17 -20 -40 -35
t-48 -25.5t-50.5 -15.5t-46.5 -3l128 174h114z" />
    <glyph glyph-name="ccircumflex" unicode="&#x109;" horiz-adv-x="530" 
d="M377 111q37 0 62 8t40.5 18.5t22.5 19.5t8 11q0 -30 -10.5 -61.5t-35.5 -58t-65.5 -43.5t-100.5 -17q-74 0 -125 22.5t-82.5 61.5t-45.5 91.5t-14 112.5q0 155 73.5 234t216.5 79q49 0 83.5 -6t55.5 -14q25 -9 40 -19q-1 -9 -1 -21q-1 -11 -1 -26v-36v-42t1 -33
q0 -17 1 -31q-21 36 -39.5 58t-35 33t-32.5 14.5t-33 3.5q-36 0 -59 -15t-36 -39.5t-18 -56t-5 -65.5q0 -36 5 -69t20 -58.5t41.5 -40.5t68.5 -15zM481 622q-44 -1 -94.5 17t-90.5 62q-17 -20 -40 -35t-48 -25.5t-50.5 -15.5t-46.5 -3l128 174h114z" />
    <glyph glyph-name="Cdotaccent" unicode="&#x10a;" horiz-adv-x="619" 
d="M589 22q-20 -9 -48 -15q-24 -5 -60.5 -9.5t-86.5 -4.5q-87 0 -154.5 20.5t-113.5 63.5t-69.5 109t-23.5 157q0 97 25 168t72.5 117.5t115.5 68.5t155 22q51 0 86.5 -5t58.5 -10q26 -6 43 -14q-1 -7 -1 -19q-1 -11 -1 -28.5v-43.5v-39t1 -29q0 -14 1 -26q-16 23 -32 41.5
t-35 31t-43 19t-57 6.5q-55 0 -89 -24t-52.5 -61.5t-25 -82.5t-6.5 -86q0 -123 45.5 -181.5t123.5 -58.5q33 0 57.5 7t44.5 20t36.5 31.5t32.5 41.5q-1 -10 -1 -24q-1 -13 -1 -32v-45v-40.5t1 -26.5q0 -12 1 -19zM507 850l-144 -113l-144 113l144 113z" />
    <glyph glyph-name="cdotaccent" unicode="&#x10b;" horiz-adv-x="530" 
d="M377 111q37 0 62 8t40.5 18.5t22.5 19.5t8 11q0 -30 -10.5 -61.5t-35.5 -58t-65.5 -43.5t-100.5 -17q-74 0 -125 22.5t-82.5 61.5t-45.5 91.5t-14 112.5q0 155 73.5 234t216.5 79q49 0 83.5 -6t55.5 -14q25 -9 40 -19q-1 -9 -1 -21q-1 -11 -1 -26v-36v-42t1 -33
q0 -17 1 -31q-21 36 -39.5 58t-35 33t-32.5 14.5t-33 3.5q-36 0 -59 -15t-36 -39.5t-18 -56t-5 -65.5q0 -36 5 -69t20 -58.5t41.5 -40.5t68.5 -15zM433 694l-144 -113l-144 113l144 113z" />
    <glyph glyph-name="Ccaron" unicode="&#x10c;" horiz-adv-x="619" 
d="M589 22q-20 -9 -48 -15q-24 -5 -60.5 -9.5t-86.5 -4.5q-87 0 -154.5 20.5t-113.5 63.5t-69.5 109t-23.5 157q0 97 25 168t72.5 117.5t115.5 68.5t155 22q51 0 86.5 -5t58.5 -10q26 -6 43 -14q-1 -7 -1 -19q-1 -11 -1 -28.5v-43.5v-39t1 -29q0 -14 1 -26q-16 23 -32 41.5
t-35 31t-43 19t-57 6.5q-55 0 -89 -24t-52.5 -61.5t-25 -82.5t-6.5 -86q0 -123 45.5 -181.5t123.5 -58.5q33 0 57.5 7t44.5 20t36.5 31.5t32.5 41.5q-1 -10 -1 -24q-1 -13 -1 -32v-45v-40.5t1 -26.5q0 -12 1 -19zM545 933q-40 -44 -73.5 -86t-67.5 -91h-80l-70 72
q-8 8 -25 23t-28 24l91 75q5 -13 16.5 -28.5t19.5 -26.5l33 -45q39 49 82.5 67.5t101.5 15.5z" />
    <glyph glyph-name="ccaron" unicode="&#x10d;" horiz-adv-x="530" 
d="M377 111q37 0 62 8t40.5 18.5t22.5 19.5t8 11q0 -30 -10.5 -61.5t-35.5 -58t-65.5 -43.5t-100.5 -17q-74 0 -125 22.5t-82.5 61.5t-45.5 91.5t-14 112.5q0 155 73.5 234t216.5 79q49 0 83.5 -6t55.5 -14q25 -9 40 -19q-1 -9 -1 -21q-1 -11 -1 -26v-36v-42t1 -33
q0 -17 1 -31q-21 36 -39.5 58t-35 33t-32.5 14.5t-33 3.5q-36 0 -59 -15t-36 -39.5t-18 -56t-5 -65.5q0 -36 5 -69t20 -58.5t41.5 -40.5t68.5 -15zM470 792q-20 -22 -37 -42t-32 -40.5t-30 -42t-30 -45.5h-93l-61 64q-11 11 -24.5 24t-24.5 22l93 71q8 -15 18 -30t18 -26
l25 -34q19 24 36.5 40t38 26t45.5 13t58 0z" />
    <glyph glyph-name="Dcaron" unicode="&#x10e;" horiz-adv-x="759" 
d="M510 357q0 52 -7 97t-27 78t-56 52t-93 19q-11 0 -19.5 -0.5t-14.5 -1.5q-7 -1 -12 -1v-488q4 -1 11 -2q6 -1 15 -1h23q57 0 92 19.5t54.5 53t26.5 78.5t7 97zM726 366q0 -90 -19 -152t-51.5 -103t-75 -63.5t-89.5 -33.5t-95 -13.5t-91 -2.5q-15 0 -37.5 0.5t-45.5 1
t-44 1t-33 0.5q-24 0 -43 -0.5t-32 -0.5q-16 -1 -27 -1l9 17q5 9 9 17.5t6.5 22t4.5 34.5t3 56.5t1.5 87.5t0.5 127q0 109 -1 169.5t-3.5 92t-7.5 45t-13 28.5l-9 17q11 -1 26 -1q13 -1 31.5 -1h42.5q15 0 36.5 0.5t44 1t44.5 1t38 0.5q46 0 95 -2.5t95.5 -13.5t88.5 -32.5
t73 -60.5t49.5 -97t18.5 -142zM527 933q-40 -44 -73.5 -86t-67.5 -91h-80l-70 72q-8 8 -25 23t-28 24l91 75q5 -13 16.5 -28.5t19.5 -26.5l33 -45q39 49 82.5 67.5t101.5 15.5z" />
    <glyph glyph-name="dcaron" unicode="&#x10f;" horiz-adv-x="674" 
d="M643 11q-28 -4 -67 -8q-33 -3 -81 -5.5t-110 -2.5q-35 0 -75 1.5t-79 10t-75 26.5t-63.5 50t-43.5 80.5t-16 119.5q0 21 2.5 52t11.5 65t27.5 68t51 61t81 44t118.5 17q20 0 34.5 -1t25.5 -2q12 -1 21 -2q0 39 -2 65t-5.5 43.5t-8 29.5t-9.5 22l-9 17l240 25
q-1 -33 -2 -68q-1 -30 -1 -68v-76v-317q0 -65 1.5 -105t5 -64t8 -37t10.5 -24zM406 474q-3 1 -8 2t-12 1.5t-17 0.5q-21 0 -43 -5t-40 -24t-30 -57.5t-12 -104.5q0 -60 11 -96t28.5 -55t40 -24.5t45.5 -5.5h15t12 1l10 2v365zM657 554q12 69 9.5 134t-12.5 106l137 16
q8 -49 1.5 -88.5t-25 -70.5t-47 -55t-63.5 -42z" />
    <glyph glyph-name="Dcroat" unicode="&#x110;" horiz-adv-x="790" 
d="M757 366q0 -90 -19 -152t-51.5 -103t-75 -63.5t-89.5 -33.5t-95 -13.5t-91 -2.5q-15 0 -37.5 0.5t-45.5 1t-44 1t-33 0.5q-24 0 -43 -0.5t-32 -0.5q-16 -1 -27 -1l9 17q7 12 11.5 24t7.5 38.5t4.5 75t1.5 133.5h-1q-29 0 -48 -4t-30 -9q-13 -6 -21 -13q0 9 1 21
q0 11 0.5 26t0.5 36q0 20 -0.5 36t-0.5 27q-1 12 -1 22q8 -8 21 -13q11 -5 30 -9t48 -4h1q0 92 -1.5 144t-4 80.5t-7.5 41.5t-12 27l-9 17q11 -1 26 -1q13 -1 31.5 -1h42.5q15 0 36.5 0.5t44 1t44.5 1t38 0.5q46 0 95 -2.5t95.5 -13.5t88.5 -32.5t73 -60.5t49.5 -97
t18.5 -142zM541 357q0 52 -7 97t-27 78t-56 52t-93 19q-11 0 -19.5 -0.5t-14.5 -1.5q-7 -1 -12 -1v-197h16q29 0 48 4t30 9q13 5 21 13q-1 -10 -1 -22q-1 -11 -1 -27v-36v-36t1 -26q0 -12 1 -21q-8 7 -21 13q-11 5 -30 9t-48 4h-16v-175q4 -1 11 -2q6 -1 15 -1h23
q57 0 92 19.5t54.5 53t26.5 78.5t7 97z" />
    <glyph glyph-name="dcroat" unicode="&#x111;" horiz-adv-x="687" 
d="M643 11q-28 -4 -67 -8q-33 -3 -81 -5.5t-110 -2.5q-35 0 -75 1.5t-79 10t-75 26.5t-63.5 50t-43.5 80.5t-16 119.5q0 21 2.5 52t11.5 65t27.5 68t51 61t81 44t118.5 17q20 0 34.5 -1t25.5 -2q12 -1 21 -2q0 14 -0.5 25t-0.5 22h-71q-29 0 -48 -2.5t-30 -5.5
q-13 -4 -21 -8q0 5 1 13q0 7 0.5 16t0.5 23q0 13 -0.5 23t-0.5 17q-1 8 -1 14q8 -4 21 -8q11 -3 30 -5.5t48 -2.5h62q-3 12 -7 21.5t-8 17.5l-9 17l240 25q-1 -11 -1 -24q0 -11 -0.5 -25.5t-0.5 -31.5q26 0 42.5 2.5t27.5 5.5q12 4 19 8q-1 -6 -1 -14q-1 -7 -1 -17v-23v-23
t1 -16q0 -8 1 -13q-8 3 -20 7q-11 3 -27.5 5.5t-42.5 3.5v-57v-317q0 -65 1.5 -105t5 -64t8 -37t10.5 -24zM406 474q-3 1 -8 2t-12 1.5t-17 0.5q-21 0 -43 -5t-40 -24t-30 -57.5t-12 -104.5q0 -60 11 -96t28.5 -55t40 -24.5t45.5 -5.5h15t12 1l10 2v365z" />
    <glyph glyph-name="Emacron" unicode="&#x112;" horiz-adv-x="576" 
d="M541 202q-2 -18 -4 -41q-2 -20 -3.5 -47.5t-3.5 -62.5l-2 -38q-14 -4 -39 -8q-22 -3 -57 -5t-89 -2q-50 0 -85.5 2.5t-62 8.5t-46 15.5t-35.5 24.5q-19 17 -29.5 36.5t-16 43.5t-7 54t-1.5 68v198q0 38 1.5 69t7 56t16.5 45.5t30 37.5q16 15 35.5 25.5t46.5 17t63.5 10
t87.5 3.5t85.5 -2t55.5 -4q25 -3 38 -5q-1 -7 -1 -18v-59q0 -43 1 -63t1 -22q-1 1 -7 7.5t-23 18.5q-14 9 -44 19t-64 10q-32 0 -62.5 -6.5t-46.5 -31.5q-5 -8 -8 -16.5t-5 -21t-2.5 -29.5t-0.5 -42v-33h84q35 0 63.5 4t46.5 15q20 11 27 17.5t9 8.5q0 -1 -1.5 -24t-1.5 -80
q0 -53 1.5 -77t1.5 -26q-1 1 -8 7.5t-28 19.5q-18 11 -46.5 15t-63.5 4h-84v-40q0 -47 2.5 -69.5t12.5 -37.5q8 -13 20.5 -20t27.5 -10.5t31 -4.5t31 -1q30 0 52 6t39.5 17t31.5 27t28 36zM142 773v111h350v-111h-350z" />
    <glyph glyph-name="emacron" unicode="&#x113;" horiz-adv-x="597" 
d="M566 413q0 -18 -2.5 -38t-11 -39.5t-24 -38t-41.5 -32t-64 -22t-91 -8.5q-23 0 -40 1t-29 3q-14 2 -24 5q0 -16 4.5 -39.5t20 -45t45 -37t80.5 -15.5t83.5 8t51 18.5t26.5 19.5t9 11q0 -32 -12.5 -63.5t-41 -56.5t-73.5 -40.5t-110 -15.5q-81 0 -137 22.5t-90 62t-49 93
t-15 115.5q0 69 13.5 119t36 84.5t51 55.5t58.5 32.5t59 15t53 3.5q14 0 39 -0.5t54.5 -5t60 -15t55 -30t40 -50.5t15.5 -77zM375 417q0 13 -3 27t-10 25t-19.5 18t-31.5 7q-29 0 -44.5 -12t-23 -32.5t-9 -48.5t-1.5 -60q4 -2 12 -3q7 -1 17 -1.5t26 -0.5q44 0 65.5 16.5
t21.5 64.5zM136 639v111h350v-111h-350z" />
    <glyph glyph-name="Ebreve" unicode="&#x114;" horiz-adv-x="576" 
d="M541 202q-2 -18 -4 -41q-2 -20 -3.5 -47.5t-3.5 -62.5l-2 -38q-14 -4 -39 -8q-22 -3 -57 -5t-89 -2q-50 0 -85.5 2.5t-62 8.5t-46 15.5t-35.5 24.5q-19 17 -29.5 36.5t-16 43.5t-7 54t-1.5 68v198q0 38 1.5 69t7 56t16.5 45.5t30 37.5q16 15 35.5 25.5t46.5 17t63.5 10
t87.5 3.5t85.5 -2t55.5 -4q25 -3 38 -5q-1 -7 -1 -18v-59q0 -43 1 -63t1 -22q-1 1 -7 7.5t-23 18.5q-14 9 -44 19t-64 10q-32 0 -62.5 -6.5t-46.5 -31.5q-5 -8 -8 -16.5t-5 -21t-2.5 -29.5t-0.5 -42v-33h84q35 0 63.5 4t46.5 15q20 11 27 17.5t9 8.5q0 -1 -1.5 -24t-1.5 -80
q0 -53 1.5 -77t1.5 -26q-1 1 -8 7.5t-28 19.5q-18 11 -46.5 15t-63.5 4h-84v-40q0 -47 2.5 -69.5t12.5 -37.5q8 -13 20.5 -20t27.5 -10.5t31 -4.5t31 -1q30 0 52 6t39.5 17t31.5 27t28 36zM139 953q32 -38 75.5 -60.5t105.5 -22.5q63 0 106.5 22.5t75.5 60.5
q0 -45 -13.5 -80.5t-37.5 -60.5t-57.5 -38.5t-73.5 -13.5t-73.5 13.5t-57.5 38.5t-37 60.5t-13 80.5z" />
    <glyph glyph-name="ebreve" unicode="&#x115;" horiz-adv-x="597" 
d="M566 413q0 -18 -2.5 -38t-11 -39.5t-24 -38t-41.5 -32t-64 -22t-91 -8.5q-23 0 -40 1t-29 3q-14 2 -24 5q0 -16 4.5 -39.5t20 -45t45 -37t80.5 -15.5t83.5 8t51 18.5t26.5 19.5t9 11q0 -32 -12.5 -63.5t-41 -56.5t-73.5 -40.5t-110 -15.5q-81 0 -137 22.5t-90 62t-49 93
t-15 115.5q0 69 13.5 119t36 84.5t51 55.5t58.5 32.5t59 15t53 3.5q14 0 39 -0.5t54.5 -5t60 -15t55 -30t40 -50.5t15.5 -77zM375 417q0 13 -3 27t-10 25t-19.5 18t-31.5 7q-29 0 -44.5 -12t-23 -32.5t-9 -48.5t-1.5 -60q4 -2 12 -3q7 -1 17 -1.5t26 -0.5q44 0 65.5 16.5
t21.5 64.5zM125 819q32 -38 75.5 -60.5t105.5 -22.5q63 0 106.5 22.5t75.5 60.5q0 -45 -13.5 -80.5t-37.5 -60.5t-57.5 -38.5t-73.5 -13.5t-73.5 13.5t-57.5 38.5t-37 60.5t-13 80.5z" />
    <glyph glyph-name="Edotaccent" unicode="&#x116;" horiz-adv-x="576" 
d="M541 202q-2 -18 -4 -41q-2 -20 -3.5 -47.5t-3.5 -62.5l-2 -38q-14 -4 -39 -8q-22 -3 -57 -5t-89 -2q-50 0 -85.5 2.5t-62 8.5t-46 15.5t-35.5 24.5q-19 17 -29.5 36.5t-16 43.5t-7 54t-1.5 68v198q0 38 1.5 69t7 56t16.5 45.5t30 37.5q16 15 35.5 25.5t46.5 17t63.5 10
t87.5 3.5t85.5 -2t55.5 -4q25 -3 38 -5q-1 -7 -1 -18v-59q0 -43 1 -63t1 -22q-1 1 -7 7.5t-23 18.5q-14 9 -44 19t-64 10q-32 0 -62.5 -6.5t-46.5 -31.5q-5 -8 -8 -16.5t-5 -21t-2.5 -29.5t-0.5 -42v-33h84q35 0 63.5 4t46.5 15q20 11 27 17.5t9 8.5q0 -1 -1.5 -24t-1.5 -80
q0 -53 1.5 -77t1.5 -26q-1 1 -8 7.5t-28 19.5q-18 11 -46.5 15t-63.5 4h-84v-40q0 -47 2.5 -69.5t12.5 -37.5q8 -13 20.5 -20t27.5 -10.5t31 -4.5t31 -1q30 0 52 6t39.5 17t31.5 27t28 36zM465 850l-144 -113l-144 113l144 113z" />
    <glyph glyph-name="edotaccent" unicode="&#x117;" horiz-adv-x="597" 
d="M566 413q0 -18 -2.5 -38t-11 -39.5t-24 -38t-41.5 -32t-64 -22t-91 -8.5q-23 0 -40 1t-29 3q-14 2 -24 5q0 -16 4.5 -39.5t20 -45t45 -37t80.5 -15.5t83.5 8t51 18.5t26.5 19.5t9 11q0 -32 -12.5 -63.5t-41 -56.5t-73.5 -40.5t-110 -15.5q-81 0 -137 22.5t-90 62t-49 93
t-15 115.5q0 69 13.5 119t36 84.5t51 55.5t58.5 32.5t59 15t53 3.5q14 0 39 -0.5t54.5 -5t60 -15t55 -30t40 -50.5t15.5 -77zM375 417q0 13 -3 27t-10 25t-19.5 18t-31.5 7q-29 0 -44.5 -12t-23 -32.5t-9 -48.5t-1.5 -60q4 -2 12 -3q7 -1 17 -1.5t26 -0.5q44 0 65.5 16.5
t21.5 64.5zM457 694l-144 -113l-144 113l144 113z" />
    <glyph glyph-name="Eogonek" unicode="&#x118;" horiz-adv-x="576" 
d="M280 -129q0 24 10 44t27 36t39 28t46 20q-14 0 -28 -0.5t-31 -0.5q-50 0 -85.5 2.5t-62 8.5t-46 15.5t-35.5 24.5q-19 17 -29.5 36.5t-16 43.5t-7 54t-1.5 68v198q0 38 1.5 69t7 56t16.5 45.5t30 37.5q16 15 35.5 25.5t46.5 17t63.5 10t87.5 3.5t85.5 -2t55.5 -4
q25 -3 38 -5q-1 -7 -1 -18v-59q0 -43 1 -63t1 -22q-1 1 -7 7.5t-23 18.5q-14 9 -44 19t-64 10q-32 0 -62.5 -6.5t-46.5 -31.5q-5 -8 -8 -16.5t-5 -21t-2.5 -29.5t-0.5 -42v-33h84q35 0 63.5 4t46.5 15q20 11 27 17.5t9 8.5q0 -1 -1.5 -24t-1.5 -80q0 -53 1.5 -77t1.5 -26
q-1 1 -8 7.5t-28 19.5q-18 11 -46.5 15t-63.5 4h-84v-40q0 -47 2.5 -69.5t12.5 -37.5q8 -13 20.5 -20t27.5 -10.5t31 -4.5t31 -1q30 0 52 6t39.5 17t31.5 27t28 36q-2 -18 -4 -41q-2 -20 -3.5 -47.5t-3.5 -62.5l-2 -38q-21 -5 -41 -17t-36 -28.5t-25.5 -36.5t-9.5 -40
q0 -38 25 -55.5t64 -24.5q-20 -10 -51 -17t-55 -7q-52 0 -85.5 21t-33.5 63z" />
    <glyph glyph-name="eogonek" unicode="&#x119;" horiz-adv-x="597" 
d="M227 -129q0 42 28 70.5t67 46.5q-81 0 -137 22.5t-90 62t-49 93t-15 115.5q0 69 13.5 119t36 84.5t51 55.5t58.5 32.5t59 15t53 3.5q14 0 39 -0.5t54.5 -5t60 -15t55 -30t40 -50.5t15.5 -77q0 -18 -2.5 -38t-11 -39.5t-24 -38t-41.5 -32t-64 -22t-91 -8.5q-23 0 -40 1
t-29 3q-14 2 -24 5q0 -16 4.5 -39.5t20 -45t45 -37t80.5 -15.5t83.5 8t51 18.5t26.5 19.5t9 11q0 -45 -25 -85.5t-79 -67.5q-37 -19 -64.5 -50.5t-27.5 -69.5t25 -55.5t64 -24.5q-20 -10 -51 -17t-55 -7q-52 0 -85.5 21t-33.5 63zM375 417q0 13 -3 27t-10 25t-19.5 18
t-31.5 7q-29 0 -44.5 -12t-23 -32.5t-9 -48.5t-1.5 -60q4 -2 12 -3q7 -1 17 -1.5t26 -0.5q44 0 65.5 16.5t21.5 64.5z" />
    <glyph glyph-name="Ecaron" unicode="&#x11a;" horiz-adv-x="576" 
d="M541 202q-2 -18 -4 -41q-2 -20 -3.5 -47.5t-3.5 -62.5l-2 -38q-14 -4 -39 -8q-22 -3 -57 -5t-89 -2q-50 0 -85.5 2.5t-62 8.5t-46 15.5t-35.5 24.5q-19 17 -29.5 36.5t-16 43.5t-7 54t-1.5 68v198q0 38 1.5 69t7 56t16.5 45.5t30 37.5q16 15 35.5 25.5t46.5 17t63.5 10
t87.5 3.5t85.5 -2t55.5 -4q25 -3 38 -5q-1 -7 -1 -18v-59q0 -43 1 -63t1 -22q-1 1 -7 7.5t-23 18.5q-14 9 -44 19t-64 10q-32 0 -62.5 -6.5t-46.5 -31.5q-5 -8 -8 -16.5t-5 -21t-2.5 -29.5t-0.5 -42v-33h84q35 0 63.5 4t46.5 15q20 11 27 17.5t9 8.5q0 -1 -1.5 -24t-1.5 -80
q0 -53 1.5 -77t1.5 -26q-1 1 -8 7.5t-28 19.5q-18 11 -46.5 15t-63.5 4h-84v-40q0 -47 2.5 -69.5t12.5 -37.5q8 -13 20.5 -20t27.5 -10.5t31 -4.5t31 -1q30 0 52 6t39.5 17t31.5 27t28 36zM500 933q-40 -44 -73.5 -86t-67.5 -91h-80l-70 72q-8 8 -25 23t-28 24l91 75
q5 -13 16.5 -28.5t19.5 -26.5l33 -45q39 49 82.5 67.5t101.5 15.5z" />
    <glyph glyph-name="ecaron" unicode="&#x11b;" horiz-adv-x="597" 
d="M566 413q0 -18 -2.5 -38t-11 -39.5t-24 -38t-41.5 -32t-64 -22t-91 -8.5q-23 0 -40 1t-29 3q-14 2 -24 5q0 -16 4.5 -39.5t20 -45t45 -37t80.5 -15.5t83.5 8t51 18.5t26.5 19.5t9 11q0 -32 -12.5 -63.5t-41 -56.5t-73.5 -40.5t-110 -15.5q-81 0 -137 22.5t-90 62t-49 93
t-15 115.5q0 69 13.5 119t36 84.5t51 55.5t58.5 32.5t59 15t53 3.5q14 0 39 -0.5t54.5 -5t60 -15t55 -30t40 -50.5t15.5 -77zM375 417q0 13 -3 27t-10 25t-19.5 18t-31.5 7q-29 0 -44.5 -12t-23 -32.5t-9 -48.5t-1.5 -60q4 -2 12 -3q7 -1 17 -1.5t26 -0.5q44 0 65.5 16.5
t21.5 64.5zM491 792q-20 -22 -37 -42t-32 -40.5t-30 -42t-30 -45.5h-93l-61 64q-11 11 -24.5 24t-24.5 22l93 71q8 -15 18 -30t18 -26l25 -34q19 24 36.5 40t38 26t45.5 13t58 0z" />
    <glyph glyph-name="Gcircumflex" unicode="&#x11c;" horiz-adv-x="701" 
d="M671 221q0 -56 -17 -95.5t-44 -65.5t-60 -40.5t-66 -21.5t-62 -8.5t-47 -1.5q-80 0 -137 19t-95 49.5t-60 69t-33 78t-14 76t-3 63.5q0 181 102.5 278.5t292.5 97.5q54 0 93 -5t65 -10q30 -6 49 -14q-1 -7 -1 -19q-1 -11 -1 -28.5v-43.5v-39t1 -29q0 -14 1 -26
q-18 25 -36 43t-39.5 29.5t-49.5 16.5t-66 5q-58 0 -96 -19.5t-60.5 -54t-31.5 -83.5t-9 -107q0 -54 5.5 -97.5t19 -74.5t37.5 -47.5t62 -16.5q15 0 33 4t33 15.5t25 32.5t10 55q0 92 -72 92q-14 0 -23.5 -3.5t-16.5 -7.5q-8 -4 -13 -10q0 17 6.5 38.5t23.5 40t47 31.5
t77 13q44 0 76 -13.5t53 -37.5t31 -57t10 -71zM563 755q-44 -1 -94.5 17t-90.5 62q-17 -20 -40 -35t-48 -25.5t-50.5 -15.5t-46.5 -3l128 174h114z" />
    <glyph glyph-name="gcircumflex" unicode="&#x11d;" horiz-adv-x="594" 
d="M522 354q0 -52 -17.5 -83.5t-43 -50.5t-54.5 -28.5t-53 -16.5q-15 -5 -21 -10.5t-6 -15.5q0 -13 7.5 -18.5t27.5 -5.5h15q29 0 65 -2.5t67.5 -16t53 -42.5t21.5 -83q0 -39 -11 -74t-43 -62t-90.5 -43t-152.5 -16q-283 0 -283 119q0 31 15.5 49t40 27t54.5 11.5t60 2.5
q-11 -8 -18.5 -18.5t-7.5 -28.5q0 -15 5.5 -27t20 -20.5t40 -13.5t64.5 -5q30 0 57 2t47.5 9t32 19t11.5 32q0 14 -6 22t-15 12t-21 5t-24 1h-54q-27 0 -55.5 2.5t-52 14t-38.5 35t-15 64.5q0 30 12 50.5t29.5 34.5t38 23t37.5 16q28 11 44 26.5t24 34.5t10.5 41.5t2.5 48.5
q0 41 -6.5 65.5t-17 37t-25.5 16.5t-31 4q-41 0 -59 -29.5t-18 -94.5q0 -37 4.5 -61.5t11.5 -41t15.5 -26.5t15.5 -19q-14 0 -35 0.5t-45 4.5t-48 13.5t-43 28t-31 47.5t-12 72q0 98 64 147.5t174 49.5q26 0 46 -2.5t34 -4.5q16 -4 26 -7h85q29 0 54.5 1.5t43.5 3.5
q21 3 38 6q-1 -6 -1 -15v-50v-49q0 -9 1 -13q-11 2 -24 5q-11 2 -28 4t-37 2h-19q1 -1 8 -7.5t15.5 -20.5t15.5 -36t7 -52zM482 622q-44 -1 -94.5 17t-90.5 62q-17 -20 -40 -35t-48 -25.5t-50.5 -15.5t-46.5 -3l128 174h114z" />
    <glyph glyph-name="Gbreve" unicode="&#x11e;" horiz-adv-x="701" 
d="M671 221q0 -56 -17 -95.5t-44 -65.5t-60 -40.5t-66 -21.5t-62 -8.5t-47 -1.5q-80 0 -137 19t-95 49.5t-60 69t-33 78t-14 76t-3 63.5q0 181 102.5 278.5t292.5 97.5q54 0 93 -5t65 -10q30 -6 49 -14q-1 -7 -1 -19q-1 -11 -1 -28.5v-43.5v-39t1 -29q0 -14 1 -26
q-18 25 -36 43t-39.5 29.5t-49.5 16.5t-66 5q-58 0 -96 -19.5t-60.5 -54t-31.5 -83.5t-9 -107q0 -54 5.5 -97.5t19 -74.5t37.5 -47.5t62 -16.5q15 0 33 4t33 15.5t25 32.5t10 55q0 92 -72 92q-14 0 -23.5 -3.5t-16.5 -7.5q-8 -4 -13 -10q0 17 6.5 38.5t23.5 40t47 31.5
t77 13q44 0 76 -13.5t53 -37.5t31 -57t10 -71zM194 953q32 -38 75.5 -60.5t105.5 -22.5q63 0 106.5 22.5t75.5 60.5q0 -45 -13.5 -80.5t-37.5 -60.5t-57.5 -38.5t-73.5 -13.5t-73.5 13.5t-57.5 38.5t-37 60.5t-13 80.5z" />
    <glyph glyph-name="gbreve" unicode="&#x11f;" horiz-adv-x="594" 
d="M522 354q0 -52 -17.5 -83.5t-43 -50.5t-54.5 -28.5t-53 -16.5q-15 -5 -21 -10.5t-6 -15.5q0 -13 7.5 -18.5t27.5 -5.5h15q29 0 65 -2.5t67.5 -16t53 -42.5t21.5 -83q0 -39 -11 -74t-43 -62t-90.5 -43t-152.5 -16q-283 0 -283 119q0 31 15.5 49t40 27t54.5 11.5t60 2.5
q-11 -8 -18.5 -18.5t-7.5 -28.5q0 -15 5.5 -27t20 -20.5t40 -13.5t64.5 -5q30 0 57 2t47.5 9t32 19t11.5 32q0 14 -6 22t-15 12t-21 5t-24 1h-54q-27 0 -55.5 2.5t-52 14t-38.5 35t-15 64.5q0 30 12 50.5t29.5 34.5t38 23t37.5 16q28 11 44 26.5t24 34.5t10.5 41.5t2.5 48.5
q0 41 -6.5 65.5t-17 37t-25.5 16.5t-31 4q-41 0 -59 -29.5t-18 -94.5q0 -37 4.5 -61.5t11.5 -41t15.5 -26.5t15.5 -19q-14 0 -35 0.5t-45 4.5t-48 13.5t-43 28t-31 47.5t-12 72q0 98 64 147.5t174 49.5q26 0 46 -2.5t34 -4.5q16 -4 26 -7h85q29 0 54.5 1.5t43.5 3.5
q21 3 38 6q-1 -6 -1 -15v-50v-49q0 -9 1 -13q-11 2 -24 5q-11 2 -28 4t-37 2h-19q1 -1 8 -7.5t15.5 -20.5t15.5 -36t7 -52zM113 819q32 -38 75.5 -60.5t105.5 -22.5q63 0 106.5 22.5t75.5 60.5q0 -45 -13.5 -80.5t-37.5 -60.5t-57.5 -38.5t-73.5 -13.5t-73.5 13.5
t-57.5 38.5t-37 60.5t-13 80.5z" />
    <glyph glyph-name="Gdotaccent" unicode="&#x120;" horiz-adv-x="701" 
d="M671 221q0 -56 -17 -95.5t-44 -65.5t-60 -40.5t-66 -21.5t-62 -8.5t-47 -1.5q-80 0 -137 19t-95 49.5t-60 69t-33 78t-14 76t-3 63.5q0 181 102.5 278.5t292.5 97.5q54 0 93 -5t65 -10q30 -6 49 -14q-1 -7 -1 -19q-1 -11 -1 -28.5v-43.5v-39t1 -29q0 -14 1 -26
q-18 25 -36 43t-39.5 29.5t-49.5 16.5t-66 5q-58 0 -96 -19.5t-60.5 -54t-31.5 -83.5t-9 -107q0 -54 5.5 -97.5t19 -74.5t37.5 -47.5t62 -16.5q15 0 33 4t33 15.5t25 32.5t10 55q0 92 -72 92q-14 0 -23.5 -3.5t-16.5 -7.5q-8 -4 -13 -10q0 17 6.5 38.5t23.5 40t47 31.5
t77 13q44 0 76 -13.5t53 -37.5t31 -57t10 -71zM520 850l-144 -113l-144 113l144 113z" />
    <glyph glyph-name="gdotaccent" unicode="&#x121;" horiz-adv-x="594" 
d="M522 354q0 -52 -17.5 -83.5t-43 -50.5t-54.5 -28.5t-53 -16.5q-15 -5 -21 -10.5t-6 -15.5q0 -13 7.5 -18.5t27.5 -5.5h15q29 0 65 -2.5t67.5 -16t53 -42.5t21.5 -83q0 -39 -11 -74t-43 -62t-90.5 -43t-152.5 -16q-283 0 -283 119q0 31 15.5 49t40 27t54.5 11.5t60 2.5
q-11 -8 -18.5 -18.5t-7.5 -28.5q0 -15 5.5 -27t20 -20.5t40 -13.5t64.5 -5q30 0 57 2t47.5 9t32 19t11.5 32q0 14 -6 22t-15 12t-21 5t-24 1h-54q-27 0 -55.5 2.5t-52 14t-38.5 35t-15 64.5q0 30 12 50.5t29.5 34.5t38 23t37.5 16q28 11 44 26.5t24 34.5t10.5 41.5t2.5 48.5
q0 41 -6.5 65.5t-17 37t-25.5 16.5t-31 4q-41 0 -59 -29.5t-18 -94.5q0 -37 4.5 -61.5t11.5 -41t15.5 -26.5t15.5 -19q-14 0 -35 0.5t-45 4.5t-48 13.5t-43 28t-31 47.5t-12 72q0 98 64 147.5t174 49.5q26 0 46 -2.5t34 -4.5q16 -4 26 -7h85q29 0 54.5 1.5t43.5 3.5
q21 3 38 6q-1 -6 -1 -15v-50v-49q0 -9 1 -13q-11 2 -24 5q-11 2 -28 4t-37 2h-19q1 -1 8 -7.5t15.5 -20.5t15.5 -36t7 -52zM441 694l-144 -113l-144 113l144 113z" />
    <glyph glyph-name="Gcommaaccent" unicode="&#x122;" horiz-adv-x="701" 
d="M671 221q0 -56 -17 -95.5t-44 -65.5t-60 -40.5t-66 -21.5t-62 -8.5t-47 -1.5q-80 0 -137 19t-95 49.5t-60 69t-33 78t-14 76t-3 63.5q0 181 102.5 278.5t292.5 97.5q54 0 93 -5t65 -10q30 -6 49 -14q-1 -7 -1 -19q-1 -11 -1 -28.5v-43.5v-39t1 -29q0 -14 1 -26
q-18 25 -36 43t-39.5 29.5t-49.5 16.5t-66 5q-58 0 -96 -19.5t-60.5 -54t-31.5 -83.5t-9 -107q0 -54 5.5 -97.5t19 -74.5t37.5 -47.5t62 -16.5q15 0 33 4t33 15.5t25 32.5t10 55q0 92 -72 92q-14 0 -23.5 -3.5t-16.5 -7.5q-8 -4 -13 -10q0 17 6.5 38.5t23.5 40t47 31.5
t77 13q44 0 76 -13.5t53 -37.5t31 -57t10 -71zM463 -106q0 -31 -14.5 -54t-36 -38.5t-46.5 -24t-45 -9.5q1 0 7 6t13.5 16.5t13.5 24.5t6 31q0 15 -6 24.5t-14 14.5q-9 6 -19 9v11q0 26 15.5 46.5t46.5 25.5q13 -2 27 -6.5t25.5 -14t19 -25t7.5 -37.5z" />
    <glyph glyph-name="gcommaaccent" unicode="&#x123;" horiz-adv-x="594" 
d="M522 354q0 -52 -17.5 -83.5t-43 -50.5t-54.5 -28.5t-53 -16.5q-15 -5 -21 -10.5t-6 -15.5q0 -13 7.5 -18.5t27.5 -5.5h15q29 0 65 -2.5t67.5 -16t53 -42.5t21.5 -83q0 -39 -11 -74t-43 -62t-90.5 -43t-152.5 -16q-283 0 -283 119q0 31 15.5 49t40 27t54.5 11.5t60 2.5
q-11 -8 -18.5 -18.5t-7.5 -28.5q0 -15 5.5 -27t20 -20.5t40 -13.5t64.5 -5q30 0 57 2t47.5 9t32 19t11.5 32q0 14 -6 22t-15 12t-21 5t-24 1h-54q-27 0 -55.5 2.5t-52 14t-38.5 35t-15 64.5q0 30 12 50.5t29.5 34.5t38 23t37.5 16q28 11 44 26.5t24 34.5t10.5 41.5t2.5 48.5
q0 41 -6.5 65.5t-17 37t-25.5 16.5t-31 4q-41 0 -59 -29.5t-18 -94.5q0 -37 4.5 -61.5t11.5 -41t15.5 -26.5t15.5 -19q-14 0 -35 0.5t-45 4.5t-48 13.5t-43 28t-31 47.5t-12 72q0 98 64 147.5t174 49.5q26 0 46 -2.5t34 -4.5q16 -4 26 -7h85q29 0 54.5 1.5t43.5 3.5
q21 3 38 6q-1 -6 -1 -15v-50v-49q0 -9 1 -13q-11 2 -24 5q-11 2 -28 4t-37 2h-19q1 -1 8 -7.5t15.5 -20.5t15.5 -36t7 -52zM214 705q0 31 14.5 54t36 38.5t46.5 24t45 9.5q-1 0 -7 -6t-13.5 -16.5t-13.5 -25t-6 -30.5q0 -15 5.5 -24.5t13.5 -14.5q9 -6 20 -9v-11
q0 -26 -15.5 -46.5t-46.5 -25.5q-13 1 -27 6t-25.5 14.5t-19 24.5t-7.5 38z" />
    <glyph glyph-name="Hcircumflex" unicode="&#x124;" horiz-adv-x="775" 
d="M732 -1q-13 0 -32 1q-17 0 -43 0.5t-61 0.5q-36 0 -62 -0.5t-43 -0.5q-19 -1 -32 -1l9 17l8 16t6.5 19.5t4.5 29t3.5 45.5t2 69.5t0.5 100.5h-211q0 -89 1 -138.5t4 -76.5t7.5 -39t12.5 -26l9 -17q-13 0 -32 1q-17 0 -43 0.5t-61 0.5q-36 0 -62 -0.5t-43 -0.5
q-19 -1 -32 -1l9 17q5 9 9 17.5t6.5 22t4.5 34.5t3 56.5t1.5 87.5t0.5 127q0 109 -1 169.5t-3.5 92t-7.5 45t-13 28.5l-9 17q13 -1 32 -1q17 -1 42.5 -1h62.5h64.5t42.5 1q18 0 29 1l-9 -17q-7 -13 -11.5 -24.5t-7.5 -37.5t-4.5 -73t-1.5 -131h211q0 84 -1 131t-4 72.5
t-8 37t-12 25.5l-9 17q13 -1 32 -1q17 -1 42.5 -1h62.5h64.5t42.5 1q18 0 29 1l-9 -17q-5 -9 -9 -17.5t-6.5 -22t-4.5 -34.5t-3 -56.5t-1.5 -87.5t-0.5 -127q0 -109 1 -169.5t3.5 -92t7.5 -45t13 -28.5zM571 755q-44 -1 -94.5 17t-90.5 62q-17 -20 -40 -35t-48 -25.5
t-50.5 -15.5t-46.5 -3l128 174h114z" />
    <glyph glyph-name="hcircumflex" unicode="&#x125;" horiz-adv-x="688" 
d="M656 -1q-13 0 -32 1q-17 0 -42.5 0.5t-60.5 0.5q-36 0 -61.5 -0.5t-42.5 -0.5q-19 -1 -32 -1l9 17q6 11 10.5 21.5t8 35t5 70t1.5 127.5q0 45 -1 74t-2.5 47t-4 28t-6.5 17q-6 11 -19.5 21t-43.5 10q-23 0 -37 -5.5t-22 -12.5q-10 -8 -13 -18v-160q0 -81 1.5 -127t5 -71
t8 -35.5t10.5 -21.5l9 -17q-13 0 -32 1q-17 0 -42.5 0.5t-60.5 0.5q-36 0 -61.5 -0.5t-42.5 -0.5q-19 -1 -32 -1l9 17q6 11 10.5 21.5t8 35.5t5 71t1.5 127v244q0 65 -1.5 105t-5 64t-8 37t-10.5 24l-9 17l240 25q-1 -30 -2 -62q-1 -28 -1 -61.5v-68.5v-44q0 -23 -1 -42.5
t-3 -34.5q-2 -18 -4 -33q19 80 62 114.5t117 34.5q59 0 96 -18.5t57 -53.5q9 -16 14.5 -33.5t8.5 -41.5t4 -56t1 -76v-40q0 -82 1.5 -128t5 -70.5t8 -35t10.5 -21.5zM353 815q-44 -1 -94.5 17t-90.5 62q-17 -20 -40 -35t-48 -25.5t-50.5 -15.5t-46.5 -3l128 174h114z" />
    <glyph glyph-name="Hbar" unicode="&#x126;" horiz-adv-x="810" 
d="M749 -1q-13 0 -32 1q-17 0 -43 0.5t-61 0.5q-36 0 -62 -0.5t-43 -0.5q-19 -1 -32 -1l9 17l8 16t6.5 19.5t4.5 29t3.5 45.5t2 69.5t0.5 100.5h-211q0 -89 1 -138.5t4 -76.5t7.5 -39t12.5 -26l9 -17q-13 0 -32 1q-17 0 -43 0.5t-61 0.5q-36 0 -62 -0.5t-43 -0.5
q-19 -1 -32 -1l9 17q5 9 9 17.5t6.5 22t4.5 34.5t3 56.5t1.5 87.5t0.5 127v88t-1 68q-25 -2 -41 -5.5t-26 -8.5q-11 -5 -18 -12q0 9 1 21q0 11 0.5 26t0.5 36q0 20 -0.5 36t-0.5 27q-1 12 -1 22q6 -7 17 -12q9 -5 24.5 -8.5t38.5 -5.5q-2 26 -7 37.5t-12 25.5l-9 17
q13 -1 32 -1q17 -1 42.5 -1h62.5h64.5t42.5 1q18 0 29 1l-9 -17q-7 -13 -12 -25t-8 -38h200q-3 26 -7.5 37.5t-11.5 25.5l-9 17q13 -1 32 -1q17 -1 42.5 -1h62.5h64.5t42.5 1q18 0 29 1l-9 -17q-7 -13 -11.5 -25t-7.5 -38q23 2 38 5.5t25 8.5q11 5 18 12q-1 -10 -1 -22
q-1 -11 -1 -27v-36v-36t1 -26q0 -12 1 -21q-8 7 -19 12q-10 5 -26.5 8.5t-40.5 5.5q-1 -32 -1 -72.5v-93.5q0 -109 1 -169.5t3.5 -92t7.5 -45t13 -28.5zM510 430v47t-1 40h-210v-87h211z" />
    <glyph glyph-name="hbar" unicode="&#x127;" horiz-adv-x="699" 
d="M667 -1q-13 0 -32 1q-17 0 -42.5 0.5t-60.5 0.5q-36 0 -61.5 -0.5t-42.5 -0.5q-19 -1 -32 -1l9 17q6 11 10.5 21.5t8 35t5 70t1.5 127.5q0 45 -1 74t-2.5 47t-4 28t-6.5 17q-6 11 -19.5 21t-43.5 10q-23 0 -37 -5.5t-22 -12.5q-10 -8 -13 -18v-160q0 -81 1.5 -127t5 -71
t8 -35.5t10.5 -21.5l9 -17q-13 0 -32 1q-17 0 -42.5 0.5t-60.5 0.5q-36 0 -61.5 -0.5t-42.5 -0.5q-19 -1 -32 -1l9 17q6 11 10.5 21.5t8 35.5t5 71t1.5 127v244q0 38 -0.5 66t-1.5 51q-27 -1 -44.5 -3t-28.5 -5q-12 -4 -19 -8q0 5 1 13q0 7 0.5 16t0.5 23q0 13 -0.5 23
t-0.5 17q-1 8 -1 14q7 -3 18 -7q10 -3 26 -5.5t40 -3.5q-3 13 -6.5 22t-8.5 17l-9 17l240 25q-1 -11 -1 -24q0 -11 -0.5 -25.5t-0.5 -31.5h63q29 0 48 2.5t30 5.5q13 4 21 8q-1 -6 -1 -14q-1 -7 -1 -17v-23v-23t1 -16q0 -8 1 -13q-8 4 -21 8q-11 3 -30 5.5t-48 2.5h-64v-37
v-44q0 -23 -1 -42.5t-3 -34.5q-2 -18 -4 -33q19 80 62 114.5t117 34.5q59 0 96 -18.5t57 -53.5q9 -16 14.5 -33.5t8.5 -41.5t4 -56t1 -76v-40q0 -82 1.5 -128t5 -70.5t8 -35t10.5 -21.5z" />
    <glyph glyph-name="Itilde" unicode="&#x128;" horiz-adv-x="359" 
d="M316 -1q-13 0 -32 1q-17 0 -43 0.5t-61 0.5q-36 0 -62 -0.5t-43 -0.5q-19 -1 -32 -1l9 17l9 18t6.5 21.5t4.5 34.5t3 56.5t1.5 87.5t0.5 127q0 109 -1 169.5t-3.5 92t-7.5 45t-13 28.5l-9 17q12 -1 31 -1q17 -1 42.5 -1h62.5h64.5t42.5 1q18 0 30 1l-9 -17l-9 -18
t-6.5 -21.5t-4.5 -34.5t-3 -56.5t-1.5 -87.5t-0.5 -127q0 -109 1 -169.5t3.5 -92t7.5 -45t13 -28.5zM281 881q15 0 28 7t22.5 15t15 15.5t6.5 9.5q0 -27 -2 -54t-11.5 -48.5t-28.5 -35.5t-53 -14q-15 0 -28.5 3.5t-23.5 6.5l-66 21q-13 4 -21 6t-21 2q-15 0 -28 -7
t-22.5 -15.5t-15 -16t-6.5 -9.5q0 27 2 54t11.5 49t28.5 36t53 14q15 0 28 -3.5t23 -6.5l67 -21q13 -4 21 -6t21 -2z" />
    <glyph glyph-name="itilde" unicode="&#x129;" horiz-adv-x="340" 
d="M319 30q-11 -10 -29 -18q-16 -7 -42 -12.5t-65 -5.5q-42 0 -65.5 11.5t-35 28.5t-13.5 36.5t-2 36.5q0 43 1.5 99.5t1.5 107.5q0 65 -1.5 105t-5 64t-8 37t-10.5 24l-9 17l246 25q-3 -23 -5 -62q-2 -33 -3 -87.5t-1 -135.5v-97q0 -44 1.5 -73.5t6 -49t14 -31.5t24.5 -20z
M271 747q15 0 28 7t22.5 15t15 15.5t6.5 9.5q0 -27 -2 -54t-11.5 -48.5t-28.5 -35.5t-53 -14q-15 0 -28.5 3.5t-23.5 6.5l-66 21q-13 4 -21 6t-21 2q-15 0 -28 -7t-22.5 -15.5t-15 -16t-6.5 -9.5q0 27 2 54t11.5 49t28.5 36t53 14q15 0 28 -3.5t23 -6.5l67 -21q13 -4 21 -6
t21 -2z" />
    <glyph glyph-name="Imacron" unicode="&#x12a;" horiz-adv-x="359" 
d="M316 -1q-13 0 -32 1q-17 0 -43 0.5t-61 0.5q-36 0 -62 -0.5t-43 -0.5q-19 -1 -32 -1l9 17l9 18t6.5 21.5t4.5 34.5t3 56.5t1.5 87.5t0.5 127q0 109 -1 169.5t-3.5 92t-7.5 45t-13 28.5l-9 17q12 -1 31 -1q17 -1 42.5 -1h62.5h64.5t42.5 1q18 0 30 1l-9 -17l-9 -18
t-6.5 -21.5t-4.5 -34.5t-3 -56.5t-1.5 -87.5t-0.5 -127q0 -109 1 -169.5t3.5 -92t7.5 -45t13 -28.5zM5 773v111h350v-111h-350z" />
    <glyph glyph-name="imacron" unicode="&#x12b;" horiz-adv-x="340" 
d="M319 30q-11 -10 -29 -18q-16 -7 -42 -12.5t-65 -5.5q-42 0 -65.5 11.5t-35 28.5t-13.5 36.5t-2 36.5q0 43 1.5 99.5t1.5 107.5q0 65 -1.5 105t-5 64t-8 37t-10.5 24l-9 17l246 25q-3 -23 -5 -62q-2 -33 -3 -87.5t-1 -135.5v-97q0 -44 1.5 -73.5t6 -49t14 -31.5t24.5 -20z
M1 639v111h350v-111h-350z" />
    <glyph glyph-name="Ibreve" unicode="&#x12c;" horiz-adv-x="359" 
d="M316 -1q-13 0 -32 1q-17 0 -43 0.5t-61 0.5q-36 0 -62 -0.5t-43 -0.5q-19 -1 -32 -1l9 17l9 18t6.5 21.5t4.5 34.5t3 56.5t1.5 87.5t0.5 127q0 109 -1 169.5t-3.5 92t-7.5 45t-13 28.5l-9 17q12 -1 31 -1q17 -1 42.5 -1h62.5h64.5t42.5 1q18 0 30 1l-9 -17l-9 -18
t-6.5 -21.5t-4.5 -34.5t-3 -56.5t-1.5 -87.5t-0.5 -127q0 -109 1 -169.5t3.5 -92t7.5 -45t13 -28.5zM-2 953q32 -38 75.5 -60.5t105.5 -22.5q63 0 106.5 22.5t75.5 60.5q0 -45 -13.5 -80.5t-37.5 -60.5t-57.5 -38.5t-73.5 -13.5t-73.5 13.5t-57.5 38.5t-37 60.5t-13 80.5z
" />
    <glyph glyph-name="ibreve" unicode="&#x12d;" horiz-adv-x="340" 
d="M319 30q-11 -10 -29 -18q-16 -7 -42 -12.5t-65 -5.5q-42 0 -65.5 11.5t-35 28.5t-13.5 36.5t-2 36.5q0 43 1.5 99.5t1.5 107.5q0 65 -1.5 105t-5 64t-8 37t-10.5 24l-9 17l246 25q-3 -23 -5 -62q-2 -33 -3 -87.5t-1 -135.5v-97q0 -44 1.5 -73.5t6 -49t14 -31.5t24.5 -20z
M-6 819q32 -38 75.5 -60.5t105.5 -22.5q63 0 106.5 22.5t75.5 60.5q0 -45 -13.5 -80.5t-37.5 -60.5t-57.5 -38.5t-73.5 -13.5t-73.5 13.5t-57.5 38.5t-37 60.5t-13 80.5z" />
    <glyph glyph-name="Iogonek" unicode="&#x12e;" horiz-adv-x="359" 
d="M56 -129q0 25 11 45t29 36.5t41 28.5t47 20h-4q-36 0 -62 -0.5t-43 -0.5q-19 -1 -32 -1l9 17l9 18t6.5 21.5t4.5 34.5t3 56.5t1.5 87.5t0.5 127q0 109 -1 169.5t-3.5 92t-7.5 45t-13 28.5l-9 17q12 -1 31 -1q17 -1 42.5 -1h62.5h64.5t42.5 1q18 0 30 1l-9 -17l-9 -18
t-6.5 -21.5t-4.5 -34.5t-3 -56.5t-1.5 -87.5t-0.5 -127q0 -109 1 -169.5t3.5 -92t7.5 -45t13 -28.5l9 -17q-25 0 -47.5 -9t-39.5 -24.5t-27 -35t-10 -39.5q0 -38 25 -55.5t64 -24.5q-20 -10 -51 -17t-55 -7q-52 0 -85.5 21t-33.5 63z" />
    <glyph glyph-name="iogonek" unicode="&#x12f;" horiz-adv-x="340" 
d="M53 -129q0 22 9 41t24.5 34.5t35.5 27.5t42 21q-35 3 -54.5 14.5t-29 28t-11.5 35t-2 34.5q0 43 1.5 99.5t1.5 107.5q0 65 -1.5 105t-5 64t-8 37t-10.5 24l-9 17l246 25q-3 -23 -5 -62q-2 -33 -3 -87.5t-1 -135.5v-97q0 -44 1.5 -73.5t6 -49t14 -31.5t24.5 -20
q-20 -9 -42.5 -23t-42 -31.5t-32.5 -39t-13 -45.5q0 -38 25 -55.5t64 -24.5q-20 -10 -51 -17t-55 -7q-52 0 -85.5 21t-33.5 63zM316 694l-144 -113l-144 113l144 113z" />
    <glyph glyph-name="Idotaccent" unicode="&#x130;" horiz-adv-x="359" 
d="M316 -1q-13 0 -32 1q-17 0 -43 0.5t-61 0.5q-36 0 -62 -0.5t-43 -0.5q-19 -1 -32 -1l9 17l9 18t6.5 21.5t4.5 34.5t3 56.5t1.5 87.5t0.5 127q0 109 -1 169.5t-3.5 92t-7.5 45t-13 28.5l-9 17q12 -1 31 -1q17 -1 42.5 -1h62.5h64.5t42.5 1q18 0 30 1l-9 -17l-9 -18
t-6.5 -21.5t-4.5 -34.5t-3 -56.5t-1.5 -87.5t-0.5 -127q0 -109 1 -169.5t3.5 -92t7.5 -45t13 -28.5zM324 850l-144 -113l-144 113l144 113z" />
    <glyph glyph-name="dotlessi" unicode="&#x131;" horiz-adv-x="340" 
d="M319 30q-11 -10 -29 -18q-16 -7 -42 -12.5t-65 -5.5q-42 0 -65.5 11.5t-35 28.5t-13.5 36.5t-2 36.5q0 43 1.5 99.5t1.5 107.5q0 65 -1.5 105t-5 64t-8 37t-10.5 24l-9 17l246 25q-3 -23 -5 -62q-2 -33 -3 -87.5t-1 -135.5v-97q0 -44 1.5 -73.5t6 -49t14 -31.5t24.5 -20z
" />
    <glyph glyph-name="IJ" unicode="&#x132;" horiz-adv-x="713" 
d="M316 -1q-13 0 -32 1q-17 0 -43 0.5t-61 0.5q-36 0 -62 -0.5t-43 -0.5q-19 -1 -32 -1l9 17l9 18t6.5 21.5t4.5 34.5t3 56.5t1.5 87.5t0.5 127q0 109 -1 169.5t-3.5 92t-7.5 45t-13 28.5l-9 17q12 -1 31 -1q17 -1 42.5 -1h62.5h64.5t42.5 1q18 0 30 1l-9 -17l-9 -18
t-6.5 -21.5t-4.5 -34.5t-3 -56.5t-1.5 -87.5t-0.5 -127q0 -109 1 -169.5t3.5 -92t7.5 -45t13 -28.5zM669 696q-5 -9 -9 -17.5t-6.5 -21.5t-4.5 -35t-3 -58.5t-1.5 -92t-0.5 -135.5q0 -111 1 -176.5t3 -100.5q2 -41 4 -56q-10 -56 -42 -96.5t-75 -67t-90 -39.5t-86 -13
q27 24 42.5 57t24 74t11 89t2.5 103v250q0 109 -1 169.5t-3.5 92.5t-7.5 45.5t-13 28.5l-9 17q12 -1 31 -1q17 -1 42.5 -1h62.5h64.5t42.5 1q18 0 30 1z" />
    <glyph glyph-name="ij" unicode="&#x133;" horiz-adv-x="678" 
d="M319 30q-11 -10 -29 -18q-16 -7 -42 -12.5t-65 -5.5q-42 0 -65.5 11.5t-35 28.5t-13.5 36.5t-2 36.5q0 43 1.5 99.5t1.5 107.5q0 65 -1.5 105t-5 64t-8 37t-10.5 24l-9 17l246 25q-3 -23 -5 -62q-2 -33 -3 -87.5t-1 -135.5v-97q0 -44 1.5 -73.5t6 -49t14 -31.5t24.5 -20z
M316 694l-144 -113l-144 113l144 113zM625 586q-4 -20 -7 -61q-3 -35 -5 -96.5t-2 -159.5q0 -90 1 -143t3 -80q2 -33 4 -43q-10 -56 -41.5 -96.5t-73.5 -67t-88.5 -39.5t-85.5 -13q27 24 42.5 57t24 74t11 89t2.5 103v204q0 65 -1.5 105t-5 64t-8 37t-10.5 24l-9 17z
M656 694l-144 -113l-144 113l144 113z" />
    <glyph glyph-name="Jcircumflex" unicode="&#x134;" horiz-adv-x="354" 
d="M310 696q-5 -9 -9 -17.5t-6.5 -21.5t-4.5 -35t-3 -58.5t-1.5 -92t-0.5 -135.5q0 -111 1 -176.5t3 -100.5q2 -41 4 -56q-10 -56 -42 -96.5t-75 -67t-90 -39.5t-86 -13q27 24 42.5 57t24 74t11 89t2.5 103v250q0 109 -1 169.5t-3.5 92.5t-7.5 45.5t-13 28.5l-9 17
q12 -1 31 -1q17 -1 42.5 -1h62.5h64.5t42.5 1q18 0 30 1zM367 755q-44 -1 -94.5 17t-90.5 62q-17 -20 -40 -35t-48 -25.5t-50.5 -15.5t-46.5 -3l128 174h114z" />
    <glyph glyph-name="jcircumflex" unicode="&#x135;" horiz-adv-x="340" 
d="M282 586q-3 -19 -5 -55q-2 -31 -3 -83t-1 -133v-314q0 -44 -4.5 -83t-27 -68t-70 -46t-133.5 -17h-48q29 14 45 34.5t24 49.5t9.5 68t1.5 91v284q0 65 -1.5 105t-5 64t-8 37t-10.5 24l-9 17zM353 622q-44 -1 -94.5 17t-90.5 62q-17 -20 -40 -35t-48 -25.5t-50.5 -15.5
t-46.5 -3l128 174h114z" />
    <glyph glyph-name="Kcommaaccent" unicode="&#x136;" horiz-adv-x="734" 
d="M316 -1q-13 0 -32 1q-17 0 -43 0.5t-61 0.5q-36 0 -62 -0.5t-43 -0.5q-19 -1 -32 -1l9 17q5 9 9 17.5t6.5 22t4.5 34.5t3 56.5t1.5 87.5t0.5 127q0 109 -1 169.5t-3.5 92t-7.5 45t-13 28.5l-9 17q12 -1 31 -1q17 -1 42.5 -1h62.5h64.5t42.5 1q18 0 30 1l-9 -17
q-5 -9 -9 -17.5t-6.5 -22t-4.5 -34.5t-3 -56.5t-1.5 -87.5t-0.5 -127q0 -109 1 -169.5t3.5 -92t7.5 -45t13 -28.5zM727 -2q-13 0 -30 1q-14 0 -34.5 0.5t-45.5 0.5h-160q-3 25 -11 57q-7 26 -18.5 62t-30.5 78q-17 37 -35 64t-33 45q-18 21 -34 35q44 44 78 94q15 21 29 46
t25 52.5t17.5 56.5t6.5 59q0 31 -11 45t-19 19q16 -1 38 -2q19 -1 46 -1h62h64.5t48.5 1q24 1 42 2q-12 -8 -23 -16.5t-25 -25.5q-19 -23 -30 -52t-27 -64t-42.5 -76t-77.5 -88q14 -12 31 -30q14 -16 31.5 -41t36.5 -61q19 -37 30.5 -68t20.5 -57.5t17.5 -48.5t20.5 -41
q11 -16 21 -28.5t21 -17.5zM445 -106q0 -31 -14.5 -54t-36 -38.5t-46.5 -24t-45 -9.5q1 0 7 6t13.5 16.5t13.5 24.5t6 31q0 15 -6 24.5t-14 14.5q-9 6 -19 9v11q0 26 15.5 46.5t46.5 25.5q13 -2 27 -6.5t25.5 -14t19 -25t7.5 -37.5z" />
    <glyph glyph-name="kcommaaccent" unicode="&#x137;" horiz-adv-x="676" 
d="M304 -1q-13 0 -32 1q-17 0 -42.5 0.5t-60.5 0.5q-36 0 -61.5 -0.5t-42.5 -0.5q-19 -1 -32 -1l9 17q6 11 10.5 21.5t8 35.5t5 71t1.5 127v244q0 65 -1.5 105t-5 64t-8 37t-10.5 24l-9 17l240 25q-1 -33 -2 -68q-1 -30 -1 -68v-76v-304q0 -69 1 -112t3.5 -70t7.5 -42.5
t13 -30.5zM640 -1q-20 0 -41.5 0.5t-38.5 0.5h-138q-2 34 -7 67q-5 29 -15 62.5t-28 62.5q-31 49 -57.5 71t-29.5 24q2 1 14.5 12t29.5 29t37 41.5t36.5 49.5t27.5 53.5t11 53.5q0 27 -7.5 38t-12.5 15q22 -1 44 -1q19 -1 40.5 -1h38.5h47.5t44.5 1q23 0 45 1
q-8 -6 -18.5 -15t-21.5 -23q-14 -17 -26.5 -41.5t-32 -54t-49 -61.5t-76.5 -65q23 -7 46 -24q20 -14 42.5 -39t40.5 -66q12 -27 19.5 -48.5t14 -39.5t13.5 -34t17 -32q8 -12 16 -21.5t19 -15.5h-45zM422 -106q0 -31 -14.5 -54t-36 -38.5t-46.5 -24t-45 -9.5q1 0 7 6
t13.5 16.5t13.5 24.5t6 31q0 15 -6 24.5t-14 14.5q-9 6 -19 9v11q0 26 15.5 46.5t46.5 25.5q13 -2 27 -6.5t25.5 -14t19 -25t7.5 -37.5z" />
    <glyph glyph-name="kgreenlandic" unicode="&#x138;" horiz-adv-x="679" 
d="M307 -1q-13 0 -32 1q-17 0 -42.5 0.5t-60.5 0.5q-36 0 -61.5 -0.5t-42.5 -0.5q-19 -1 -32 -1l9 17q6 11 10.5 21.5t8 35.5t5 71t1.5 127v43q0 65 -1.5 105t-5 64t-8 37t-10.5 24l-9 17l240 25q-1 -33 -2 -68q-1 -30 -1 -68v-76v-103q0 -69 1 -112t3.5 -70t7.5 -42.5
t13 -30.5zM643 -1q-20 0 -41.5 0.5t-38.5 0.5h-138q-2 33 -7 66q-5 29 -15 61.5t-28 61.5q-17 26 -32.5 44t-27.5 29q-14 13 -27 22q44 40 78 81q15 18 29 37.5t25 40.5t17.5 42t6.5 41q0 27 -7.5 38t-12.5 15q22 -1 44 -1q19 -1 40.5 -1h38.5h47.5t44.5 1q23 0 45 1
q-8 -6 -18.5 -15t-21.5 -23q-14 -17 -26.5 -42t-32 -55t-49 -62.5t-76.5 -65.5q23 -7 46 -24q20 -14 42.5 -39t40.5 -66q12 -27 19.5 -48t14 -38.5t13.5 -33t17 -31.5q8 -12 16 -21.5t19 -15.5h-45z" />
    <glyph glyph-name="Lacute" unicode="&#x139;" horiz-adv-x="542" 
d="M522 199q-1 -14 -3 -36q-2 -19 -4 -48.5t-4 -73.5l-2 -41h-389q-20 0 -35 -0.5t-24 -0.5h-18l9 17q5 9 9 17.5t6.5 22t4.5 34.5t3 56.5t1.5 87.5t0.5 127q0 109 -1 169.5t-3.5 92t-7.5 45t-13 28.5l-9 17q12 -1 32 -1q17 -1 44 -1h66h64.5t42.5 1q18 0 29 1l-11 -18
q-9 -14 -14.5 -29t-8.5 -42t-4 -72.5t-1 -121.5v-314h63q46 0 74.5 5.5t46.5 16t30 26t26 35.5zM180 930h174q-6 -13 -17 -30q-10 -14 -28 -33.5t-48 -42.5q-27 -21 -54 -33.5t-48 -20.5q-25 -9 -47 -13z" />
    <glyph glyph-name="lacute" unicode="&#x13a;" horiz-adv-x="337" 
d="M316 30q-9 -10 -27 -18q-15 -7 -39.5 -12.5t-59.5 -5.5q-47 0 -72.5 11.5t-37.5 28.5t-14 36.5t-2 36.5q0 82 1.5 140t1.5 100v168q0 65 -1.5 105t-5 64t-8 37t-10.5 24l-9 17l240 25q-1 -30 -2 -62q-1 -28 -1 -61.5v-68.5v-391q0 -44 1.5 -73.5t6 -49t14 -31.5t24.5 -20
zM152 990h174q-6 -13 -17 -30q-10 -14 -28 -33.5t-48 -42.5q-27 -21 -54 -33.5t-48 -20.5q-25 -9 -47 -13z" />
    <glyph glyph-name="Lcommaaccent" unicode="&#x13b;" horiz-adv-x="542" 
d="M522 199q-1 -14 -3 -36q-2 -19 -4 -48.5t-4 -73.5l-2 -41h-389q-20 0 -35 -0.5t-24 -0.5h-18l9 17q5 9 9 17.5t6.5 22t4.5 34.5t3 56.5t1.5 87.5t0.5 127q0 109 -1 169.5t-3.5 92t-7.5 45t-13 28.5l-9 17q12 -1 32 -1q17 -1 44 -1h66h64.5t42.5 1q18 0 29 1l-11 -18
q-9 -14 -14.5 -29t-8.5 -42t-4 -72.5t-1 -121.5v-314h63q46 0 74.5 5.5t46.5 16t30 26t26 35.5zM354 -106q0 -31 -14.5 -54t-36 -38.5t-46.5 -24t-45 -9.5q1 0 7 6t13.5 16.5t13.5 24.5t6 31q0 15 -6 24.5t-14 14.5q-9 6 -19 9v11q0 26 15.5 46.5t46.5 25.5q13 -2 27 -6.5
t25.5 -14t19 -25t7.5 -37.5z" />
    <glyph glyph-name="lcommaaccent" unicode="&#x13c;" horiz-adv-x="337" 
d="M316 30q-9 -10 -27 -18q-15 -7 -39.5 -12.5t-59.5 -5.5q-47 0 -72.5 11.5t-37.5 28.5t-14 36.5t-2 36.5q0 82 1.5 140t1.5 100v168q0 65 -1.5 105t-5 64t-8 37t-10.5 24l-9 17l240 25q-1 -30 -2 -62q-1 -28 -1 -61.5v-68.5v-391q0 -44 1.5 -73.5t6 -49t14 -31.5t24.5 -20
zM261 -106q0 -31 -14.5 -54t-36 -38.5t-46.5 -24t-45 -9.5q1 0 7 6t13.5 16.5t13.5 24.5t6 31q0 15 -6 24.5t-14 14.5q-9 6 -19 9v11q0 26 15.5 46.5t46.5 25.5q13 -2 27 -6.5t25.5 -14t19 -25t7.5 -37.5z" />
    <glyph glyph-name="Lcaron" unicode="&#x13d;" horiz-adv-x="542" 
d="M522 199q-1 -14 -3 -36q-2 -19 -4 -48.5t-4 -73.5l-2 -41h-389q-20 0 -35 -0.5t-24 -0.5h-18l9 17q5 9 9 17.5t6.5 22t4.5 34.5t3 56.5t1.5 87.5t0.5 127q0 109 -1 169.5t-3.5 92t-7.5 45t-13 28.5l-9 17q12 -1 32 -1q17 -1 44 -1h66h64.5t42.5 1q18 0 29 1l-11 -18
q-9 -14 -14.5 -29t-8.5 -42t-4 -72.5t-1 -121.5v-314h63q46 0 74.5 5.5t46.5 16t30 26t26 35.5zM354 506q12 69 9.5 134t-12.5 106l137 16q8 -49 1.5 -88.5t-25 -70.5t-47 -55t-63.5 -42z" />
    <glyph glyph-name="lcaron" unicode="&#x13e;" horiz-adv-x="337" 
d="M316 30q-9 -10 -27 -18q-15 -7 -39.5 -12.5t-59.5 -5.5q-47 0 -72.5 11.5t-37.5 28.5t-14 36.5t-2 36.5q0 82 1.5 140t1.5 100v168q0 65 -1.5 105t-5 64t-8 37t-10.5 24l-9 17l240 25q-1 -30 -2 -62q-1 -28 -1 -61.5v-68.5v-391q0 -44 1.5 -73.5t6 -49t14 -31.5t24.5 -20
zM314 554q12 69 9.5 134t-12.5 106l137 16q8 -49 1.5 -88.5t-25 -70.5t-47 -55t-63.5 -42z" />
    <glyph glyph-name="Ldot" unicode="&#x13f;" horiz-adv-x="542" 
d="M522 199q-1 -14 -3 -36q-2 -19 -4 -48.5t-4 -73.5l-2 -41h-389q-20 0 -35 -0.5t-24 -0.5h-18l9 17q5 9 9 17.5t6.5 22t4.5 34.5t3 56.5t1.5 87.5t0.5 127q0 109 -1 169.5t-3.5 92t-7.5 45t-13 28.5l-9 17q12 -1 32 -1q17 -1 44 -1h66h64.5t42.5 1q18 0 29 1l-11 -18
q-9 -14 -14.5 -29t-8.5 -42t-4 -72.5t-1 -121.5v-314h63q46 0 74.5 5.5t46.5 16t30 26t26 35.5zM596 415l-144 -113l-144 113l144 113z" />
    <glyph glyph-name="ldot" unicode="&#x140;" horiz-adv-x="479" 
d="M316 30q-9 -10 -27 -18q-15 -7 -39.5 -12.5t-59.5 -5.5q-47 0 -72.5 11.5t-37.5 28.5t-14 36.5t-2 36.5q0 82 1.5 140t1.5 100v168q0 65 -1.5 105t-5 64t-8 37t-10.5 24l-9 17l240 25q-1 -30 -2 -62q-1 -28 -1 -61.5v-68.5v-391q0 -44 1.5 -73.5t6 -49t14 -31.5t24.5 -20
zM554 391l-144 -113l-144 113l144 113z" />
    <glyph glyph-name="Lslash" unicode="&#x141;" horiz-adv-x="557" 
d="M537 199q-1 -14 -3 -36q-2 -19 -4 -48.5t-4 -73.5l-2 -41h-389q-20 0 -35 -0.5t-24 -0.5h-18l9 17q6 12 10.5 23t7.5 33.5t4.5 62.5t1.5 109q-14 -8 -21.5 -15.5t-12.5 -13.5q-5 -7 -7 -13q-3 7 -7 18q-4 9 -9.5 22.5t-13.5 32.5t-14 32.5t-11 22.5l-9 18q9 -3 24 -3
q12 0 31.5 4t45.5 15l5 2q0 71 -0.5 120.5t-1.5 83t-2.5 53.5t-4.5 33t-7 21.5t-9 18.5l-9 17q12 -1 32 -1q17 -1 44 -1h66h64.5t42.5 1q18 0 29 1l-11 -18q-8 -14 -13.5 -28t-8.5 -39t-4.5 -66t-1.5 -108l22 10q24 10 39.5 20.5t24.5 19.5t12.5 14.5t4.5 7.5q0 -1 7 -19.5
t24 -54.5q15 -38 24 -54q5 -11 9 -17q-10 4 -25 4q-13 0 -31.5 -4t-44.5 -15l-66 -29v-221h63q46 0 74.5 5.5t46.5 16t30 26t26 35.5z" />
    <glyph glyph-name="lslash" unicode="&#x142;" horiz-adv-x="417" 
d="M356 30q-9 -10 -27 -18q-15 -7 -39.5 -12.5t-59.5 -5.5q-47 0 -72.5 11.5t-37.5 28.5t-14 36.5t-2 36.5v206q-23 -12 -36.5 -22t-21.5 -17q-9 -9 -13 -15q-2 6 -5 14q-3 7 -7 16t-10 21q-6 11 -10.5 20t-8.5 16q-4 8 -8 14q8 -1 22 2q11 2 29.5 8.5t44.5 19.5l26 13
q1 14 1 26v23v63q0 65 -1.5 105t-5 64t-8 37t-10.5 24l-9 17l240 25q-1 -30 -2 -62q-1 -28 -1 -61.5v-68.5v-101q24 12 39.5 22.5t24.5 18.5q11 9 15 17q2 -7 6 -15q3 -7 7 -17t10 -21l10.5 -21t8.5 -15q4 -7 7 -12q-10 1 -23 -2q-12 -2 -29.5 -8.5t-43.5 -19.5l-32 -16
v-201q0 -44 1.5 -73.5t6 -49t14 -31.5t24.5 -20z" />
    <glyph glyph-name="Nacute" unicode="&#x143;" horiz-adv-x="766" 
d="M719 696q-7 -13 -11.5 -26.5t-7.5 -46.5t-4.5 -96.5t-1.5 -175.5v-352q-10 0 -24 1q-12 0 -31 0.5t-46 0.5q-29 0 -54 -0.5t-44 -0.5q-22 -1 -41 -1l-203 446q-13 28 -20.5 52t-8.5 27v-173q0 -109 1 -169.5t3.5 -92t7.5 -45t13 -28.5l9 -17q-10 0 -25 1q-13 0 -33 0.5
t-47 0.5q-29 0 -49.5 -0.5t-33.5 -0.5q-15 -1 -25 -1l9 17q4 9 8 17t6.5 21.5t4.5 35t3.5 56.5t2 87.5t0.5 127.5q0 109 -1 169.5t-3.5 92t-7.5 45t-13 28.5l-9 17q14 -1 34 -1q17 -1 44.5 -1h65.5h56.5t41.5 1q19 0 33 1l202 -444q8 -17 13 -31.5t9 -25.5q4 -13 7 -24v173
q0 109 -1 169.5t-3.5 92t-7.5 45t-13 28.5l-9 17q10 -1 25 -1q13 -1 32.5 -1h47.5h49.5t33.5 1q15 0 25 1zM416 930h174q-6 -13 -17 -30q-10 -14 -28 -33.5t-48 -42.5q-27 -21 -54 -33.5t-48 -20.5q-25 -9 -47 -13z" />
    <glyph glyph-name="nacute" unicode="&#x144;" horiz-adv-x="691" 
d="M659 -1q-13 0 -32 1q-17 0 -42.5 0.5t-60.5 0.5q-36 0 -61.5 -0.5t-42.5 -0.5q-19 -1 -32 -1l9 17q6 11 10.5 21.5t8 35t5 70t1.5 127.5q0 45 -1 74t-2.5 47t-4 28t-6.5 17q-6 11 -19.5 21t-43.5 10q-23 0 -37 -5.5t-22 -12.5q-10 -8 -13 -18v-160q0 -81 1.5 -127t5 -71
t8 -35.5t10.5 -21.5l9 -17q-13 0 -32 1q-17 0 -42.5 0.5t-60.5 0.5q-36 0 -61.5 -0.5t-42.5 -0.5q-19 -1 -32 -1l9 17q6 11 10.5 21.5t8 35t5 70.5t1.5 128v43q0 65 -1.5 105t-5 64t-8 37t-10.5 24l-9 17l234 25l-5 -145q17 80 61 114.5t118 34.5q59 0 96 -18.5t57 -53.5
q9 -16 14.5 -33.5t8.5 -41.5t4 -56t1 -76v-40q0 -82 1.5 -128t5 -70.5t8 -35t10.5 -21.5zM351 796h174q-6 -13 -17 -30q-10 -14 -28 -33.5t-48 -42.5q-27 -21 -54 -33.5t-48 -20.5q-25 -9 -47 -13z" />
    <glyph glyph-name="Ncommaaccent" unicode="&#x145;" horiz-adv-x="766" 
d="M719 696q-7 -13 -11.5 -26.5t-7.5 -46.5t-4.5 -96.5t-1.5 -175.5v-352q-10 0 -24 1q-12 0 -31 0.5t-46 0.5q-29 0 -54 -0.5t-44 -0.5q-22 -1 -41 -1l-203 446q-13 28 -20.5 52t-8.5 27v-173q0 -109 1 -169.5t3.5 -92t7.5 -45t13 -28.5l9 -17q-10 0 -25 1q-13 0 -33 0.5
t-47 0.5q-29 0 -49.5 -0.5t-33.5 -0.5q-15 -1 -25 -1l9 17q4 9 8 17t6.5 21.5t4.5 35t3.5 56.5t2 87.5t0.5 127.5q0 109 -1 169.5t-3.5 92t-7.5 45t-13 28.5l-9 17q14 -1 34 -1q17 -1 44.5 -1h65.5h56.5t41.5 1q19 0 33 1l202 -444q8 -17 13 -31.5t9 -25.5q4 -13 7 -24v173
q0 109 -1 169.5t-3.5 92t-7.5 45t-13 28.5l-9 17q10 -1 25 -1q13 -1 32.5 -1h47.5h49.5t33.5 1q15 0 25 1zM467 -106q0 -31 -14.5 -54t-36 -38.5t-46.5 -24t-45 -9.5q1 0 7 6t13.5 16.5t13.5 24.5t6 31q0 15 -6 24.5t-14 14.5q-9 6 -19 9v11q0 26 15.5 46.5t46.5 25.5
q13 -2 27 -6.5t25.5 -14t19 -25t7.5 -37.5z" />
    <glyph glyph-name="ncommaaccent" unicode="&#x146;" horiz-adv-x="691" 
d="M659 -1q-13 0 -32 1q-17 0 -42.5 0.5t-60.5 0.5q-36 0 -61.5 -0.5t-42.5 -0.5q-19 -1 -32 -1l9 17q6 11 10.5 21.5t8 35t5 70t1.5 127.5q0 45 -1 74t-2.5 47t-4 28t-6.5 17q-6 11 -19.5 21t-43.5 10q-23 0 -37 -5.5t-22 -12.5q-10 -8 -13 -18v-160q0 -81 1.5 -127t5 -71
t8 -35.5t10.5 -21.5l9 -17q-13 0 -32 1q-17 0 -42.5 0.5t-60.5 0.5q-36 0 -61.5 -0.5t-42.5 -0.5q-19 -1 -32 -1l9 17q6 11 10.5 21.5t8 35t5 70.5t1.5 128v43q0 65 -1.5 105t-5 64t-8 37t-10.5 24l-9 17l234 25l-5 -145q17 80 61 114.5t118 34.5q59 0 96 -18.5t57 -53.5
q9 -16 14.5 -33.5t8.5 -41.5t4 -56t1 -76v-40q0 -82 1.5 -128t5 -70.5t8 -35t10.5 -21.5zM422 -106q0 -31 -14.5 -54t-36 -38.5t-46.5 -24t-45 -9.5q1 0 7 6t13.5 16.5t13.5 24.5t6 31q0 15 -6 24.5t-14 14.5q-9 6 -19 9v11q0 26 15.5 46.5t46.5 25.5q13 -2 27 -6.5
t25.5 -14t19 -25t7.5 -37.5z" />
    <glyph glyph-name="Ncaron" unicode="&#x147;" horiz-adv-x="766" 
d="M719 696q-7 -13 -11.5 -26.5t-7.5 -46.5t-4.5 -96.5t-1.5 -175.5v-352q-10 0 -24 1q-12 0 -31 0.5t-46 0.5q-29 0 -54 -0.5t-44 -0.5q-22 -1 -41 -1l-203 446q-13 28 -20.5 52t-8.5 27v-173q0 -109 1 -169.5t3.5 -92t7.5 -45t13 -28.5l9 -17q-10 0 -25 1q-13 0 -33 0.5
t-47 0.5q-29 0 -49.5 -0.5t-33.5 -0.5q-15 -1 -25 -1l9 17q4 9 8 17t6.5 21.5t4.5 35t3.5 56.5t2 87.5t0.5 127.5q0 109 -1 169.5t-3.5 92t-7.5 45t-13 28.5l-9 17q14 -1 34 -1q17 -1 44.5 -1h65.5h56.5t41.5 1q19 0 33 1l202 -444q8 -17 13 -31.5t9 -25.5q4 -13 7 -24v173
q0 109 -1 169.5t-3.5 92t-7.5 45t-13 28.5l-9 17q10 -1 25 -1q13 -1 32.5 -1h47.5h49.5t33.5 1q15 0 25 1zM564 933q-40 -44 -73.5 -86t-67.5 -91h-80l-70 72q-8 8 -25 23t-28 24l91 75q5 -13 16.5 -28.5t19.5 -26.5l33 -45q39 49 82.5 67.5t101.5 15.5z" />
    <glyph glyph-name="ncaron" unicode="&#x148;" horiz-adv-x="691" 
d="M659 -1q-13 0 -32 1q-17 0 -42.5 0.5t-60.5 0.5q-36 0 -61.5 -0.5t-42.5 -0.5q-19 -1 -32 -1l9 17q6 11 10.5 21.5t8 35t5 70t1.5 127.5q0 45 -1 74t-2.5 47t-4 28t-6.5 17q-6 11 -19.5 21t-43.5 10q-23 0 -37 -5.5t-22 -12.5q-10 -8 -13 -18v-160q0 -81 1.5 -127t5 -71
t8 -35.5t10.5 -21.5l9 -17q-13 0 -32 1q-17 0 -42.5 0.5t-60.5 0.5q-36 0 -61.5 -0.5t-42.5 -0.5q-19 -1 -32 -1l9 17q6 11 10.5 21.5t8 35t5 70.5t1.5 128v43q0 65 -1.5 105t-5 64t-8 37t-10.5 24l-9 17l234 25l-5 -145q17 80 61 114.5t118 34.5q59 0 96 -18.5t57 -53.5
q9 -16 14.5 -33.5t8.5 -41.5t4 -56t1 -76v-40q0 -82 1.5 -128t5 -70.5t8 -35t10.5 -21.5zM522 792q-20 -22 -37 -42t-32 -40.5t-30 -42t-30 -45.5h-93l-61 64q-11 11 -24.5 24t-24.5 22l93 71q8 -15 18 -30t18 -26l25 -34q19 24 36.5 40t38 26t45.5 13t58 0z" />
    <glyph glyph-name="napostrophe" unicode="&#x149;" horiz-adv-x="898" 
d="M236 616q0 -56 -22 -93.5t-55 -60.5t-72 -33t-74 -10q1 0 10.5 7t20.5 24t20 45t9 70q0 32 -10 54t-21 36q-13 17 -30 27l134 105q25 -14 45 -37q17 -20 31 -52.5t14 -81.5zM866 -1q-13 0 -32 1q-17 0 -42.5 0.5t-60.5 0.5q-36 0 -61.5 -0.5t-42.5 -0.5q-19 -1 -32 -1
l9 17q6 11 10.5 21.5t8 35t5 70t1.5 127.5q0 45 -1 74t-2.5 47t-4 28t-6.5 17q-6 11 -19.5 21t-43.5 10q-23 0 -37 -5.5t-22 -12.5q-10 -8 -13 -18v-160q0 -81 1.5 -127t5 -71t8 -35.5t10.5 -21.5l9 -17q-13 0 -32 1q-17 0 -42.5 0.5t-60.5 0.5q-36 0 -61.5 -0.5t-42.5 -0.5
q-19 -1 -32 -1l9 17q6 11 10.5 21.5t8 35t5 70.5t1.5 128v43q0 65 -1.5 105t-5 64t-8 37t-10.5 24l-9 17l234 25l-5 -145q17 80 61 114.5t118 34.5q59 0 96 -18.5t57 -53.5q9 -16 14.5 -33.5t8.5 -41.5t4 -56t1 -76v-40q0 -82 1.5 -128t5 -70.5t8 -35t10.5 -21.5z" />
    <glyph glyph-name="Eng" unicode="&#x14a;" horiz-adv-x="766" 
d="M282 351q0 -109 1 -169.5t3.5 -92t7.5 -45t13 -28.5l9 -17q-13 0 -32 1q-17 0 -43 0.5t-61 0.5q-36 0 -62 -0.5t-43 -0.5q-19 -1 -32 -1l9 17l9 18t6.5 21.5t4.5 34.5t3 56.5t1.5 87.5t0.5 127v84q0 65 -1.5 105t-5 64t-8 37t-10.5 24l-9 17l246 25l-5 -145
q19 80 73.5 114.5t134.5 34.5q66 0 107 -18.5t63 -53.5q10 -16 16.5 -33.5t10.5 -41.5t5.5 -56t1.5 -76v-441q0 -44 -5 -83t-28.5 -68t-71.5 -46t-134 -17h-50q29 14 45 34.5t24 49.5t9.5 68t1.5 91v359q0 58 -3 96t-13.5 60.5t-31 31.5t-54.5 9q-32 0 -52 -8.5t-31 -18.5
q-13 -12 -20 -27v-181v0z" />
    <glyph glyph-name="eng" unicode="&#x14b;" horiz-adv-x="690" 
d="M625 1q0 -44 -4.5 -83t-27 -68t-70 -46t-133.5 -17h-48q29 14 45 34.5t24 49.5t9.5 68t1.5 91v258q0 39 -1 64.5t-2.5 42t-4.5 26t-6 15.5q-6 11 -19.5 21t-43.5 10q-23 0 -37 -5.5t-22 -12.5q-10 -8 -13 -18v-160q0 -81 1.5 -127t5 -71t8 -35.5t10.5 -21.5l9 -17
q-13 0 -32 1q-17 0 -42.5 0.5t-60.5 0.5q-36 0 -61.5 -0.5t-42.5 -0.5q-19 -1 -32 -1l9 17q6 11 10.5 21.5t8 35t5 70.5t1.5 128v43q0 65 -1.5 105t-5 64t-8 37t-10.5 24l-9 17l234 25l-5 -145q17 80 61 114.5t118 34.5q59 0 96 -18.5t57 -53.5q9 -16 14.5 -33.5t8.5 -41.5
t4 -56t1 -76v-310v0z" />
    <glyph glyph-name="Omacron" unicode="&#x14c;" horiz-adv-x="745" 
d="M495 355q0 75 -11.5 122.5t-29.5 74.5t-39.5 39t-41.5 17q-20 -5 -41.5 -17t-39.5 -39.5t-30 -75t-12 -122.5t11.5 -122.5t29.5 -74.5t39.5 -39t41.5 -17q20 5 41.5 17t39.5 39.5t30 75t12 122.5zM712 355q0 -75 -17 -131.5t-44.5 -96.5t-63 -66.5t-73.5 -42.5t-75 -23.5
t-67 -9.5q-30 3 -67 9.5t-75 21.5t-73.5 40.5t-63 65.5t-44 97t-16.5 135q0 75 17 131.5t44.5 96.5t63 66.5t73.5 42.5t75 23t67 10q30 -3 67 -9.5t75 -21.5t73.5 -40.5t63 -65.5t44 -97t16.5 -135zM200 773v111h350v-111h-350z" />
    <glyph glyph-name="omacron" unicode="&#x14d;" horiz-adv-x="661" 
d="M420 290q0 56 -8.5 91.5t-21 55.5t-28.5 29t-31 13q-15 -4 -30.5 -13t-29 -29.5t-22 -56t-8.5 -91.5t8.5 -91.5t21 -55.5t28.5 -29t31 -13q15 4 30.5 13t29 29.5t22 56t8.5 91.5zM630 290q0 -62 -20 -115.5t-58 -93.5t-94 -65t-128 -31q-78 7 -134.5 32t-93 65t-54 92.5
t-17.5 114.5t20 115.5t58 93.5t94 65t128 31q78 -7 134.5 -32t93 -65t54 -92.5t17.5 -114.5zM158 639v111h350v-111h-350z" />
    <glyph glyph-name="Obreve" unicode="&#x14e;" horiz-adv-x="745" 
d="M495 355q0 75 -11.5 122.5t-29.5 74.5t-39.5 39t-41.5 17q-20 -5 -41.5 -17t-39.5 -39.5t-30 -75t-12 -122.5t11.5 -122.5t29.5 -74.5t39.5 -39t41.5 -17q20 5 41.5 17t39.5 39.5t30 75t12 122.5zM712 355q0 -75 -17 -131.5t-44.5 -96.5t-63 -66.5t-73.5 -42.5t-75 -23.5
t-67 -9.5q-30 3 -67 9.5t-75 21.5t-73.5 40.5t-63 65.5t-44 97t-16.5 135q0 75 17 131.5t44.5 96.5t63 66.5t73.5 42.5t75 23t67 10q30 -3 67 -9.5t75 -21.5t73.5 -40.5t63 -65.5t44 -97t16.5 -135zM193 953q32 -38 75.5 -60.5t105.5 -22.5q63 0 106.5 22.5t75.5 60.5
q0 -45 -13.5 -80.5t-37.5 -60.5t-57.5 -38.5t-73.5 -13.5t-73.5 13.5t-57.5 38.5t-37 60.5t-13 80.5z" />
    <glyph glyph-name="obreve" unicode="&#x14f;" horiz-adv-x="661" 
d="M420 290q0 56 -8.5 91.5t-21 55.5t-28.5 29t-31 13q-15 -4 -30.5 -13t-29 -29.5t-22 -56t-8.5 -91.5t8.5 -91.5t21 -55.5t28.5 -29t31 -13q15 4 30.5 13t29 29.5t22 56t8.5 91.5zM630 290q0 -62 -20 -115.5t-58 -93.5t-94 -65t-128 -31q-78 7 -134.5 32t-93 65t-54 92.5
t-17.5 114.5t20 115.5t58 93.5t94 65t128 31q78 -7 134.5 -32t93 -65t54 -92.5t17.5 -114.5zM147 819q32 -38 75.5 -60.5t105.5 -22.5q63 0 106.5 22.5t75.5 60.5q0 -45 -13.5 -80.5t-37.5 -60.5t-57.5 -38.5t-73.5 -13.5t-73.5 13.5t-57.5 38.5t-37 60.5t-13 80.5z" />
    <glyph glyph-name="Ohungarumlaut" unicode="&#x150;" horiz-adv-x="745" 
d="M495 355q0 75 -11.5 122.5t-29.5 74.5t-39.5 39t-41.5 17q-20 -5 -41.5 -17t-39.5 -39.5t-30 -75t-12 -122.5t11.5 -122.5t29.5 -74.5t39.5 -39t41.5 -17q20 5 41.5 17t39.5 39.5t30 75t12 122.5zM712 355q0 -75 -17 -131.5t-44.5 -96.5t-63 -66.5t-73.5 -42.5t-75 -23.5
t-67 -9.5q-30 3 -67 9.5t-75 21.5t-73.5 40.5t-63 65.5t-44 97t-16.5 135q0 75 17 131.5t44.5 96.5t63 66.5t73.5 42.5t75 23t67 10q30 -3 67 -9.5t75 -21.5t73.5 -40.5t63 -65.5t44 -97t16.5 -135zM274 930h174q-6 -13 -17 -30q-10 -14 -28 -33.5t-48 -42.5
q-27 -21 -54 -33.5t-48 -20.5q-25 -9 -47 -13zM504 930h174q-6 -13 -17 -30q-10 -14 -28 -33.5t-48 -42.5q-27 -21 -54 -33.5t-48 -20.5q-25 -9 -47 -13z" />
    <glyph glyph-name="ohungarumlaut" unicode="&#x151;" horiz-adv-x="661" 
d="M420 290q0 56 -8.5 91.5t-21 55.5t-28.5 29t-31 13q-15 -4 -30.5 -13t-29 -29.5t-22 -56t-8.5 -91.5t8.5 -91.5t21 -55.5t28.5 -29t31 -13q15 4 30.5 13t29 29.5t22 56t8.5 91.5zM630 290q0 -62 -20 -115.5t-58 -93.5t-94 -65t-128 -31q-78 7 -134.5 32t-93 65t-54 92.5
t-17.5 114.5t20 115.5t58 93.5t94 65t128 31q78 -7 134.5 -32t93 -65t54 -92.5t17.5 -114.5zM220 796h174q-6 -13 -17 -30q-10 -14 -28 -33.5t-48 -42.5q-27 -21 -54 -33.5t-48 -20.5q-25 -9 -47 -13zM450 796h174q-6 -13 -17 -30q-10 -14 -28 -33.5t-48 -42.5
q-27 -21 -54 -33.5t-48 -20.5q-25 -9 -47 -13z" />
    <glyph glyph-name="OE" unicode="&#x152;" horiz-adv-x="978" 
d="M947 199q-1 -14 -3 -36q-2 -19 -4 -48.5t-4 -73.5l-2 -41h-445q-16 -3 -34 -6q-16 -2 -37 -4t-44 -2q-169 0 -255 94t-86 266q0 88 23.5 158t68 118.5t109 74t147.5 25.5q24 0 44 -2t35 -4q17 -3 31 -6h433q-1 -8 -1 -19v-60q0 -43 1 -63.5t1 -22.5l-7.5 7.5t-27.5 19.5
q-38 22 -110 22h-95v-181h71q35 0 63.5 4t46.5 15q20 11 27 17.5t9 8.5q0 -1 -1.5 -24t-1.5 -80q0 -53 1.5 -77t1.5 -26q-1 1 -8 7.5t-28 19.5q-18 11 -46.5 15t-63.5 4h-71v-183h85q46 0 74.5 5.5t46.5 16t30 26t26 35.5zM488 590q-9 4 -21 8q-11 3 -27 6t-38 3
q-40 0 -67.5 -12t-46.5 -41t-27.5 -78.5t-8.5 -120.5q0 -146 36 -201q18 -28 46 -38.5t66 -10.5q22 0 38.5 2.5t27.5 6.5q13 4 22 10v466z" />
    <glyph glyph-name="oe" unicode="&#x153;" horiz-adv-x="966" 
d="M416 287q0 51 -4 87t-14 58t-26.5 32t-41.5 10q-26 0 -43 -9.5t-27 -31t-14 -56.5t-4 -86t4 -87t14 -58t26.5 -32t41.5 -10q26 0 43 9.5t27 31t14 56.5t4 86zM935 402q0 -28 -7 -58t-25.5 -54.5t-50 -40.5t-80.5 -16q-57 0 -87 23.5t-30 63.5q3 -2 7 -3q7 -3 26 -3
q37 0 48 25.5t11 67.5q0 87 -64 87q-23 0 -38 -10t-23 -31t-11 -53.5t-3 -77.5q0 -32 3 -70t17.5 -70t45 -53.5t84.5 -21.5q33 0 57 5t41.5 13.5t30 19.5t23.5 23v-147q-18 -10 -46 -17q-24 -6 -61.5 -11t-89.5 -5q-60 0 -98 9.5t-61 20.5q-26 13 -39 30q-15 -17 -41 -30
q-23 -11 -59.5 -20.5t-92.5 -9.5q-146 0 -218.5 74.5t-72.5 214.5q0 154 74 233.5t223 79.5q52 0 86.5 -8.5t56.5 -18.5q25 -11 40 -26q15 15 40 27q21 10 53.5 18.5t79.5 8.5q48 0 93 -8.5t80.5 -30t56.5 -58t21 -92.5z" />
    <glyph glyph-name="Racute" unicode="&#x154;" horiz-adv-x="677" 
d="M672 -1q-14 0 -32 1q-16 0 -39.5 0.5t-54.5 0.5q-26 0 -47.5 -0.5t-37.5 -0.5q-18 -1 -33 -1q2 3 5 7q2 4 3.5 9.5t1.5 13.5q0 49 -11 96t-30 88t-44 73t-53 52q13 3 35 8t43 20.5t36 45t15 81.5q0 36 -8.5 59t-24.5 36t-39 18t-51 5q-10 0 -16.5 -0.5t-10.5 -0.5
q-5 -1 -8 -1v-321q0 -59 0.5 -99.5t1.5 -68t3 -44t5 -27t6.5 -17.5t8.5 -16l9 -17q-14 0 -32 1q-17 0 -41 0.5t-58 0.5t-58 -0.5t-41 -0.5q-19 -1 -32 -1l9 17q5 9 8.5 17t6.5 21.5t5 35t3 56.5t1.5 87.5t0.5 127.5q0 109 -1 169.5t-3.5 92t-7.5 45t-13 28.5l-9 17
q13 -1 29 -1q14 -1 32.5 -1h40.5q13 0 35.5 0.5t46.5 0.5t46 0.5t34 0.5q64 0 123.5 -4.5t105 -23t72.5 -56.5t27 -105q0 -17 -4 -44t-18 -54.5t-41 -51t-73 -32.5q39 -15 63.5 -43t40 -62.5t24 -71.5t14 -69t10 -56t13.5 -33zM336 930h174q-6 -13 -17 -30
q-10 -14 -28 -33.5t-48 -42.5q-27 -21 -54 -33.5t-48 -20.5q-25 -9 -47 -13z" />
    <glyph glyph-name="racute" unicode="&#x155;" horiz-adv-x="476" 
d="M476 375q-26 48 -60 73t-81 25q-14 0 -25.5 -2.5t-19.5 -5.5q-10 -4 -17 -8v-186q0 -82 2 -128t5.5 -70.5t9 -35t11.5 -20.5l11 -18q-14 0 -34 1q-17 0 -44 0.5t-62 0.5q-36 0 -61.5 -0.5t-42.5 -0.5q-19 -1 -32 -1l9 17q6 11 10.5 21.5t8 35t5 70.5t1.5 128v45
q0 81 -1.5 134t-3.5 85q-2 37 -4 57l186 -38q16 10 36 18q17 7 42.5 12.5t59.5 5.5q18 0 34.5 -3t29.5 -6q15 -4 27 -9q-1 -8 -1 -21q-1 -11 -1 -29v-44v-47.5t1 -31.5q0 -15 1 -24zM275 796h174q-6 -13 -17 -30q-10 -14 -28 -33.5t-48 -42.5q-27 -21 -54 -33.5t-48 -20.5
q-25 -9 -47 -13z" />
    <glyph glyph-name="Rcommaaccent" unicode="&#x156;" horiz-adv-x="677" 
d="M672 -1q-14 0 -32 1q-16 0 -39.5 0.5t-54.5 0.5q-26 0 -47.5 -0.5t-37.5 -0.5q-18 -1 -33 -1q2 3 5 7q2 4 3.5 9.5t1.5 13.5q0 49 -11 96t-30 88t-44 73t-53 52q13 3 35 8t43 20.5t36 45t15 81.5q0 36 -8.5 59t-24.5 36t-39 18t-51 5q-10 0 -16.5 -0.5t-10.5 -0.5
q-5 -1 -8 -1v-321q0 -59 0.5 -99.5t1.5 -68t3 -44t5 -27t6.5 -17.5t8.5 -16l9 -17q-14 0 -32 1q-17 0 -41 0.5t-58 0.5t-58 -0.5t-41 -0.5q-19 -1 -32 -1l9 17q5 9 8.5 17t6.5 21.5t5 35t3 56.5t1.5 87.5t0.5 127.5q0 109 -1 169.5t-3.5 92t-7.5 45t-13 28.5l-9 17
q13 -1 29 -1q14 -1 32.5 -1h40.5q13 0 35.5 0.5t46.5 0.5t46 0.5t34 0.5q64 0 123.5 -4.5t105 -23t72.5 -56.5t27 -105q0 -17 -4 -44t-18 -54.5t-41 -51t-73 -32.5q39 -15 63.5 -43t40 -62.5t24 -71.5t14 -69t10 -56t13.5 -33zM430 -106q0 -31 -14.5 -54t-36 -38.5
t-46.5 -24t-45 -9.5q1 0 7 6t13.5 16.5t13.5 24.5t6 31q0 15 -6 24.5t-14 14.5q-9 6 -19 9v11q0 26 15.5 46.5t46.5 25.5q13 -2 27 -6.5t25.5 -14t19 -25t7.5 -37.5z" />
    <glyph glyph-name="rcommaaccent" unicode="&#x157;" horiz-adv-x="476" 
d="M476 375q-26 48 -60 73t-81 25q-14 0 -25.5 -2.5t-19.5 -5.5q-10 -4 -17 -8v-186q0 -82 2 -128t5.5 -70.5t9 -35t11.5 -20.5l11 -18q-14 0 -34 1q-17 0 -44 0.5t-62 0.5q-36 0 -61.5 -0.5t-42.5 -0.5q-19 -1 -32 -1l9 17q6 11 10.5 21.5t8 35t5 70.5t1.5 128v45
q0 81 -1.5 134t-3.5 85q-2 37 -4 57l186 -38q16 10 36 18q17 7 42.5 12.5t59.5 5.5q18 0 34.5 -3t29.5 -6q15 -4 27 -9q-1 -8 -1 -21q-1 -11 -1 -29v-44v-47.5t1 -31.5q0 -15 1 -24zM257 -106q0 -31 -14.5 -54t-36 -38.5t-46.5 -24t-45 -9.5q1 0 7 6t13.5 16.5t13.5 24.5
t6 31q0 15 -6 24.5t-14 14.5q-9 6 -19 9v11q0 26 15.5 46.5t46.5 25.5q13 -2 27 -6.5t25.5 -14t19 -25t7.5 -37.5z" />
    <glyph glyph-name="Rcaron" unicode="&#x158;" horiz-adv-x="677" 
d="M672 -1q-14 0 -32 1q-16 0 -39.5 0.5t-54.5 0.5q-26 0 -47.5 -0.5t-37.5 -0.5q-18 -1 -33 -1q2 3 5 7q2 4 3.5 9.5t1.5 13.5q0 49 -11 96t-30 88t-44 73t-53 52q13 3 35 8t43 20.5t36 45t15 81.5q0 36 -8.5 59t-24.5 36t-39 18t-51 5q-10 0 -16.5 -0.5t-10.5 -0.5
q-5 -1 -8 -1v-321q0 -59 0.5 -99.5t1.5 -68t3 -44t5 -27t6.5 -17.5t8.5 -16l9 -17q-14 0 -32 1q-17 0 -41 0.5t-58 0.5t-58 -0.5t-41 -0.5q-19 -1 -32 -1l9 17q5 9 8.5 17t6.5 21.5t5 35t3 56.5t1.5 87.5t0.5 127.5q0 109 -1 169.5t-3.5 92t-7.5 45t-13 28.5l-9 17
q13 -1 29 -1q14 -1 32.5 -1h40.5q13 0 35.5 0.5t46.5 0.5t46 0.5t34 0.5q64 0 123.5 -4.5t105 -23t72.5 -56.5t27 -105q0 -17 -4 -44t-18 -54.5t-41 -51t-73 -32.5q39 -15 63.5 -43t40 -62.5t24 -71.5t14 -69t10 -56t13.5 -33zM511 933q-40 -44 -73.5 -86t-67.5 -91h-80
l-70 72q-8 8 -25 23t-28 24l91 75q5 -13 16.5 -28.5t19.5 -26.5l33 -45q39 49 82.5 67.5t101.5 15.5z" />
    <glyph glyph-name="rcaron" unicode="&#x159;" horiz-adv-x="476" 
d="M476 375q-26 48 -60 73t-81 25q-14 0 -25.5 -2.5t-19.5 -5.5q-10 -4 -17 -8v-186q0 -82 2 -128t5.5 -70.5t9 -35t11.5 -20.5l11 -18q-14 0 -34 1q-17 0 -44 0.5t-62 0.5q-36 0 -61.5 -0.5t-42.5 -0.5q-19 -1 -32 -1l9 17q6 11 10.5 21.5t8 35t5 70.5t1.5 128v45
q0 81 -1.5 134t-3.5 85q-2 37 -4 57l186 -38q16 10 36 18q17 7 42.5 12.5t59.5 5.5q18 0 34.5 -3t29.5 -6q15 -4 27 -9q-1 -8 -1 -21q-1 -11 -1 -29v-44v-47.5t1 -31.5q0 -15 1 -24zM442 792q-20 -22 -37 -42t-32 -40.5t-30 -42t-30 -45.5h-93l-61 64q-11 11 -24.5 24
t-24.5 22l93 71q8 -15 18 -30t18 -26l25 -34q19 24 36.5 40t38 26t45.5 13t58 0z" />
    <glyph glyph-name="Sacute" unicode="&#x15a;" horiz-adv-x="554" 
d="M515 205q0 -113 -71 -162.5t-198 -49.5q-48 0 -83.5 4.5t-59.5 9.5q-28 6 -49 15q0 8 1 20q0 11 0.5 27.5t0.5 40.5t-0.5 42.5t-0.5 31.5q-1 15 -1 26q29 -43 72 -70.5t103 -27.5q56 0 77.5 16t21.5 43q0 16 -5.5 26.5t-16.5 19.5t-26.5 17.5t-35.5 19.5l-68 37
q-31 17 -57 36.5t-45 44t-29.5 55.5t-10.5 71q0 64 22 106.5t59.5 68t88.5 36t110 10.5q48 0 84 -5t60 -10q28 -6 47 -14q-1 -8 -1 -20q-1 -11 -1 -26.5v-38.5v-45t1 -33q0 -16 1 -28q-17 27 -37.5 46t-43.5 31t-47 17.5t-47 5.5q-52 0 -80 -14.5t-28 -52.5q0 -17 6.5 -28.5
t17.5 -21t25 -17.5t30 -17l77 -42q61 -33 99 -79.5t38 -121.5zM292 930h174q-6 -13 -17 -30q-10 -14 -28 -33.5t-48 -42.5q-27 -21 -54 -33.5t-48 -20.5q-25 -9 -47 -13z" />
    <glyph glyph-name="sacute" unicode="&#x15b;" horiz-adv-x="494" 
d="M461 169q0 -84 -55.5 -131t-165.5 -47q-52 0 -87 5t-57 11q-26 7 -40 16q0 7 1 19q0 10 0.5 26.5t0.5 40.5q0 23 -0.5 40.5t-0.5 28.5q-1 13 -1 22q31 -50 64.5 -72.5t87.5 -22.5q39 0 57 10t18 31q0 20 -14 31t-44 25l-70 32q-29 13 -51.5 28.5t-38 36t-24 46t-8.5 59.5
q0 87 59 136t176 49q49 0 85.5 -5.5t60.5 -11.5q28 -7 47 -16q-1 -6 -1 -17q-1 -9 -1 -24.5v-38.5v-44t1 -30q0 -14 1 -24q-18 32 -37.5 51t-40 29t-42.5 13t-45 3q-42 0 -60.5 -12t-18.5 -33q0 -20 11 -30.5t35 -21.5l74 -35q57 -27 90.5 -65.5t33.5 -107.5zM253 796h174
q-6 -13 -17 -30q-10 -14 -28 -33.5t-48 -42.5q-27 -21 -54 -33.5t-48 -20.5q-25 -9 -47 -13z" />
    <glyph glyph-name="Scircumflex" unicode="&#x15c;" horiz-adv-x="554" 
d="M515 205q0 -113 -71 -162.5t-198 -49.5q-48 0 -83.5 4.5t-59.5 9.5q-28 6 -49 15q0 8 1 20q0 11 0.5 27.5t0.5 40.5t-0.5 42.5t-0.5 31.5q-1 15 -1 26q29 -43 72 -70.5t103 -27.5q56 0 77.5 16t21.5 43q0 16 -5.5 26.5t-16.5 19.5t-26.5 17.5t-35.5 19.5l-68 37
q-31 17 -57 36.5t-45 44t-29.5 55.5t-10.5 71q0 64 22 106.5t59.5 68t88.5 36t110 10.5q48 0 84 -5t60 -10q28 -6 47 -14q-1 -8 -1 -20q-1 -11 -1 -26.5v-38.5v-45t1 -33q0 -16 1 -28q-17 27 -37.5 46t-43.5 31t-47 17.5t-47 5.5q-52 0 -80 -14.5t-28 -52.5q0 -17 6.5 -28.5
t17.5 -21t25 -17.5t30 -17l77 -42q61 -33 99 -79.5t38 -121.5zM467 755q-44 -1 -94.5 17t-90.5 62q-17 -20 -40 -35t-48 -25.5t-50.5 -15.5t-46.5 -3l128 174h114z" />
    <glyph glyph-name="scircumflex" unicode="&#x15d;" horiz-adv-x="494" 
d="M461 169q0 -84 -55.5 -131t-165.5 -47q-52 0 -87 5t-57 11q-26 7 -40 16q0 7 1 19q0 10 0.5 26.5t0.5 40.5q0 23 -0.5 40.5t-0.5 28.5q-1 13 -1 22q31 -50 64.5 -72.5t87.5 -22.5q39 0 57 10t18 31q0 20 -14 31t-44 25l-70 32q-29 13 -51.5 28.5t-38 36t-24 46t-8.5 59.5
q0 87 59 136t176 49q49 0 85.5 -5.5t60.5 -11.5q28 -7 47 -16q-1 -6 -1 -17q-1 -9 -1 -24.5v-38.5v-44t1 -30q0 -14 1 -24q-18 32 -37.5 51t-40 29t-42.5 13t-45 3q-42 0 -60.5 -12t-18.5 -33q0 -20 11 -30.5t35 -21.5l74 -35q57 -27 90.5 -65.5t33.5 -107.5zM442 622
q-44 -1 -94.5 17t-90.5 62q-17 -20 -40 -35t-48 -25.5t-50.5 -15.5t-46.5 -3l128 174h114z" />
    <glyph glyph-name="Scedilla" unicode="&#x15e;" horiz-adv-x="550" 
d="M515 205q0 -101 -57 -151t-160 -58q-7 -11 -7 -21q0 -9 7 -15.5t20 -14.5l11 -7q6 -4 14 -9t15 -12.5t12 -18.5t5 -26q0 -29 -16 -46t-40.5 -26t-54 -11.5t-56.5 -1.5q2 1 11.5 6.5t20 15t19 23t8.5 30.5q0 16 -5.5 26.5t-16.5 24.5l-6 8q-7 9 -11.5 17t-4.5 19t5 20
t12 16q-46 0 -80.5 5t-57.5 10q-27 6 -48 14q0 8 1 20q0 11 0.5 27.5t0.5 40.5t-0.5 42.5t-0.5 31.5q-1 15 -1 26q29 -43 72 -70.5t103 -27.5q56 0 77.5 16t21.5 43q0 16 -5.5 26.5t-16.5 19.5t-26.5 17.5t-35.5 19.5l-68 37q-31 17 -57 36.5t-45 44t-29.5 55.5t-10.5 71
q0 64 22 106.5t59.5 68t88.5 36t110 10.5q48 0 84 -5t60 -10q28 -6 47 -14q-1 -8 -1 -20q-1 -11 -1 -26.5v-38.5v-45t1 -33q0 -16 1 -28q-17 27 -37.5 46t-43.5 31t-47 17.5t-47 5.5q-52 0 -80 -14.5t-28 -52.5q0 -17 6.5 -28.5t17.5 -21t25 -17.5t30 -17l77 -42
q61 -33 99 -79.5t38 -121.5z" />
    <glyph glyph-name="scedilla" unicode="&#x15f;" horiz-adv-x="494" 
d="M461 169q0 -78 -49 -125t-146 -52q-5 -10 -5 -17q0 -9 7 -15.5t20 -14.5l11 -7q6 -4 14 -9t15 -12.5t12 -18.5t5 -26q0 -29 -16 -46t-40.5 -26t-54 -11.5t-56.5 -1.5q2 1 11.5 6.5t20 15t19 23t8.5 30.5q0 16 -5.5 26.5t-16.5 24.5l-6 8q-7 9 -11.5 17t-4.5 19t4.5 19.5
t11.5 15.5q-43 2 -72 7t-47 10q-21 6 -34 14q0 7 1 19q0 10 0.5 26.5t0.5 40.5q0 23 -0.5 40.5t-0.5 28.5q-1 13 -1 22q31 -50 64.5 -72.5t87.5 -22.5q39 0 57 10t18 31q0 20 -14 31t-44 25l-70 32q-29 13 -51.5 28.5t-38 36t-24 46t-8.5 59.5q0 87 59 136t176 49
q49 0 85.5 -5.5t60.5 -11.5q28 -7 47 -16q-1 -6 -1 -17q-1 -9 -1 -24.5v-38.5v-44t1 -30q0 -14 1 -24q-18 32 -37.5 51t-40 29t-42.5 13t-45 3q-42 0 -60.5 -12t-18.5 -33q0 -20 11 -30.5t35 -21.5l74 -35q57 -27 90.5 -65.5t33.5 -107.5z" />
    <glyph glyph-name="Scaron" unicode="&#x160;" horiz-adv-x="554" 
d="M515 205q0 -113 -71 -162.5t-198 -49.5q-48 0 -83.5 4.5t-59.5 9.5q-28 6 -49 15q0 8 1 20q0 11 0.5 27.5t0.5 40.5t-0.5 42.5t-0.5 31.5q-1 15 -1 26q29 -43 72 -70.5t103 -27.5q56 0 77.5 16t21.5 43q0 16 -5.5 26.5t-16.5 19.5t-26.5 17.5t-35.5 19.5l-68 37
q-31 17 -57 36.5t-45 44t-29.5 55.5t-10.5 71q0 64 22 106.5t59.5 68t88.5 36t110 10.5q48 0 84 -5t60 -10q28 -6 47 -14q-1 -8 -1 -20q-1 -11 -1 -26.5v-38.5v-45t1 -33q0 -16 1 -28q-17 27 -37.5 46t-43.5 31t-47 17.5t-47 5.5q-52 0 -80 -14.5t-28 -52.5q0 -17 6.5 -28.5
t17.5 -21t25 -17.5t30 -17l77 -42q61 -33 99 -79.5t38 -121.5zM457 933q-40 -44 -73.5 -86t-67.5 -91h-80l-70 72q-8 8 -25 23t-28 24l91 75q5 -13 16.5 -28.5t19.5 -26.5l33 -45q39 49 82.5 67.5t101.5 15.5z" />
    <glyph glyph-name="scaron" unicode="&#x161;" horiz-adv-x="494" 
d="M461 169q0 -84 -55.5 -131t-165.5 -47q-52 0 -87 5t-57 11q-26 7 -40 16q0 7 1 19q0 10 0.5 26.5t0.5 40.5q0 23 -0.5 40.5t-0.5 28.5q-1 13 -1 22q31 -50 64.5 -72.5t87.5 -22.5q39 0 57 10t18 31q0 20 -14 31t-44 25l-70 32q-29 13 -51.5 28.5t-38 36t-24 46t-8.5 59.5
q0 87 59 136t176 49q49 0 85.5 -5.5t60.5 -11.5q28 -7 47 -16q-1 -6 -1 -17q-1 -9 -1 -24.5v-38.5v-44t1 -30q0 -14 1 -24q-18 32 -37.5 51t-40 29t-42.5 13t-45 3q-42 0 -60.5 -12t-18.5 -33q0 -20 11 -30.5t35 -21.5l74 -35q57 -27 90.5 -65.5t33.5 -107.5zM437 792
q-20 -22 -37 -42t-32 -40.5t-30 -42t-30 -45.5h-93l-61 64q-11 11 -24.5 24t-24.5 22l93 71q8 -15 18 -30t18 -26l25 -34q19 24 36.5 40t38 26t45.5 13t58 0z" />
    <glyph glyph-name="Tcommaaccent" unicode="&#x162;" horiz-adv-x="611" 
d="M599 633q0 -43 1 -64.5t1 -23.5q-1 1 -7.5 8t-27.5 20q-18 11 -45.5 18t-62.5 7h-50v-247q0 -109 1 -169.5t3.5 -92t7.5 -45t13 -28.5l9 -17q-11 1 -28 1h-35t-50 1q-12 -12 -12 -26q0 -9 7 -15.5t20 -14.5l11 -7q6 -4 14 -9t15 -12.5t12 -18.5t5 -26q0 -29 -16 -46
t-40.5 -26t-54 -11.5t-56.5 -1.5q2 1 11.5 6.5t20 15t19 23t8.5 30.5q0 16 -5.5 26.5t-16.5 24.5l-6 8q-7 9 -11.5 17t-4.5 19q0 15 8.5 25.5t17.5 18.5q-28 -1 -47.5 -1h-32.5q-15 0 -26 -1l9 17l9 18t6.5 21.5t4.5 34.5t3 56.5t1.5 87.5t0.5 127v237h-50q-35 0 -62.5 -7
t-45.5 -18q-19 -11 -26.5 -18.5t-8.5 -9.5q0 3 1 25t1 63q0 20 -0.5 35t-0.5 25v19h589q-1 -8 -1 -19v-60v0z" />
    <glyph glyph-name="tcommaaccent" unicode="&#x163;" horiz-adv-x="425" 
d="M425 130q0 -26 -9 -50t-29 -43.5t-51.5 -32t-75.5 -14.5q-4 -10 -4 -15q0 -9 7 -15.5t20 -14.5l11 -7q6 -4 14 -9t15 -12.5t12 -18.5t5 -26q0 -29 -16 -46t-40.5 -26t-54 -11.5t-56.5 -1.5q2 1 11.5 6.5t20 15t19 23t8.5 30.5q0 16 -5.5 26.5t-16.5 24.5l-6 8
q-7 9 -11.5 17t-4.5 19t5 19.5t12 16.5q-44 5 -70 21.5t-41 36.5q-18 24 -25 65t-7 95v106.5t1 78.5q1 38 2 66h-65l24 27q12 14 29 34t38 48q19 25 34.5 47.5t27.5 39.5q13 20 25 38h89v-121h52q31 0 50 1.5t30 3.5q12 3 18 6q-1 -5 -1 -15v-52v-52q0 -10 1 -15q-6 2 -18 5
q-11 2 -30 3.5t-50 1.5h-52v-246q0 -32 2 -49t9 -31q8 -16 23.5 -25t43.5 -9q20 0 35.5 4.5t25.5 9.5q11 6 19 14z" />
    <glyph glyph-name="Tcaron" unicode="&#x164;" horiz-adv-x="611" 
d="M599 633q0 -43 1 -64.5t1 -23.5q-1 1 -7.5 8t-27.5 20q-18 11 -45.5 18t-62.5 7h-50v-247q0 -109 1 -169.5t3.5 -92t7.5 -45t13 -28.5l9 -17q-13 0 -32 1q-17 0 -43 0.5t-61 0.5q-36 0 -62 -0.5t-43 -0.5q-19 -1 -32 -1l9 17l9 18t6.5 21.5t4.5 34.5t3 56.5t1.5 87.5
t0.5 127v237h-50q-35 0 -62.5 -7t-45.5 -18q-20 -12 -27 -19t-8 -9q0 1 1 23t1 65q0 20 -0.5 35t-0.5 25v19h589q-1 -8 -1 -19v-60zM481 933q-40 -44 -73.5 -86t-67.5 -91h-80l-70 72q-8 8 -25 23t-28 24l91 75q5 -13 16.5 -28.5t19.5 -26.5l33 -45q39 49 82.5 67.5
t101.5 15.5z" />
    <glyph glyph-name="tcaron" unicode="&#x165;" horiz-adv-x="425" 
d="M425 130q0 -26 -10 -51.5t-31 -45t-55 -31.5t-82 -12q-63 0 -98.5 18t-54.5 43q-18 24 -25 65t-7 95v106.5t1 78.5q1 38 2 66h-65l24 27q12 14 29 34t38 48q19 25 34.5 47.5t27.5 39.5q13 20 25 38h89v-121h52q31 0 50 1.5t30 3.5q12 3 18 6q-1 -5 -1 -15v-52v-52
q0 -10 1 -15q-6 2 -18 5q-11 2 -30 3.5t-50 1.5h-52v-246q0 -32 2 -49t9 -31q8 -16 23.5 -25t43.5 -9q20 0 35.5 4.5t25.5 9.5q11 6 19 14zM311 602q12 69 9.5 134t-12.5 106l137 16q8 -49 1.5 -88.5t-25 -70.5t-47 -55t-63.5 -42z" />
    <glyph glyph-name="Tbar" unicode="&#x166;" horiz-adv-x="611" 
d="M599 633q0 -43 1 -64.5t1 -23.5q-1 1 -7.5 8t-27.5 20q-18 11 -45.5 18t-62.5 7h-50v-199h32q29 0 48 4t30 9q13 5 21 13q-1 -10 -1 -22q-1 -11 -1 -27v-36v-36t1 -26q0 -12 1 -21q-8 7 -21 13q-11 5 -30 9t-48 4h-32q0 -83 1 -130t4 -73t8 -38.5t12 -25.5l9 -17
q-13 0 -32 1q-17 0 -43 0.5t-61 0.5q-36 0 -62 -0.5t-43 -0.5q-19 -1 -32 -1l9 17q7 13 11.5 24.5t7.5 37.5t4.5 73.5t1.5 131.5h-29q-29 0 -48 -4t-30 -9q-13 -6 -21 -13q0 9 1 21q0 11 0.5 26t0.5 36q0 20 -0.5 36t-0.5 27q-1 12 -1 22q8 -8 21 -13q11 -5 30 -9t48 -4h29
v199h-50q-35 0 -62.5 -7t-45.5 -18q-19 -11 -26.5 -18.5t-8.5 -9.5q0 3 1 25t1 63q0 20 -0.5 35t-0.5 25v19h589q-1 -8 -1 -19v-60v0z" />
    <glyph glyph-name="tbar" unicode="&#x167;" horiz-adv-x="425" 
d="M425 130q0 -26 -10 -51.5t-31 -45t-55 -31.5t-82 -12q-63 0 -98.5 18t-54.5 43q-18 24 -25 65t-7 95v70q-30 -4 -44 -9q-8 -3 -12 -5q0 5 1 13q0 7 0.5 16t0.5 23q0 13 -0.5 23t-0.5 17q-1 8 -1 14q5 -3 13 -6q7 -2 17 -4t26 -4q0 25 0.5 43.5t1.5 32.5q1 15 1 27h-65
l24 27q12 14 29 34t38 48q19 25 34.5 47.5t27.5 39.5q13 20 25 38h89v-121h52q31 0 50 1.5t30 3.5q12 3 18 6q-1 -5 -1 -15v-52v-52q0 -10 1 -15q-6 2 -18 5q-11 2 -30 3.5t-50 1.5h-52v-105h28q29 0 48 2.5t30 5.5q13 4 21 8q-1 -6 -1 -14q-1 -7 -1 -17v-23v-23t1 -16
q0 -8 1 -13q-8 4 -21 8q-11 3 -30 5.5t-48 2.5h-28v-67q0 -32 2 -49t9 -31q8 -16 23.5 -25t43.5 -9q20 0 35.5 4.5t25.5 9.5q11 6 19 14z" />
    <glyph glyph-name="Utilde" unicode="&#x168;" horiz-adv-x="771" 
d="M719 696q-5 -9 -9 -17.5t-6.5 -22t-4.5 -34.5t-3 -56.5t-1.5 -87.5t-0.5 -127q0 -89 2.5 -144.5t7 -88.5t9.5 -48t11 -23q-33 -17 -79 -29q-40 -11 -98 -20t-136 -9q-116 0 -182.5 26.5t-99.5 71.5t-41.5 104.5t-8.5 125.5q0 29 1 69t2.5 80t2.5 75t1 54q0 15 -0.5 31
t-4 30.5t-12.5 26t-26 19.5q15 3 33 7q16 3 36.5 5.5t46.5 2.5q50 0 77.5 -8.5t41 -23.5t16.5 -35t3 -42q0 -46 -3.5 -106.5t-3.5 -130.5q0 -66 2 -115t13 -81.5t36 -49t70 -16.5q20 0 35 2t25 4q11 3 18 6v254q0 70 -0.5 118t-1.5 80.5t-2.5 52t-4.5 32t-7 20.5l-9 18
l-9 17q13 -1 32 -1q17 -1 42.5 -1h61.5h61.5t42.5 1q19 0 33 1zM492 881q15 0 28 7t22.5 15t15 15.5t6.5 9.5q0 -27 -2 -54t-11.5 -48.5t-28.5 -35.5t-53 -14q-15 0 -28.5 3.5t-23.5 6.5l-66 21q-13 4 -21 6t-21 2q-15 0 -28 -7t-22.5 -15.5t-15 -16t-6.5 -9.5q0 27 2 54
t11.5 49t28.5 36t53 14q15 0 28 -3.5t23 -6.5l67 -21q13 -4 21 -6t21 -2z" />
    <glyph glyph-name="utilde" unicode="&#x169;" horiz-adv-x="679" 
d="M632 38q-30 -15 -72 -26q-36 -10 -89 -17.5t-123 -7.5q-100 0 -157.5 19.5t-86.5 54.5t-36.5 84t-7.5 109q0 23 0.5 51t1.5 55t1.5 50.5t0.5 37.5q0 27 -1.5 45.5t-5 31t-11 20.5t-19.5 14q9 8 26 14q14 5 38 10t59 5q41 0 64 -9t34.5 -24.5t14.5 -36.5t3 -45
q0 -15 -0.5 -40.5t-1.5 -54t-1.5 -56.5t-0.5 -48q0 -43 2 -74.5t11 -52.5t27 -31.5t50 -10.5q16 0 26.5 2t18.5 4q8 3 14 7v196q0 65 -1.5 105t-5 64t-8 37t-10.5 24l-9 17l244 25q-2 -31 -4 -74q-2 -37 -3 -92.5t-1 -128.5q0 -79 1.5 -126t4 -73t6 -37t7.5 -17zM450 747
q15 0 28 7t22.5 15t15 15.5t6.5 9.5q0 -27 -2 -54t-11.5 -48.5t-28.5 -35.5t-53 -14q-15 0 -28.5 3.5t-23.5 6.5l-66 21q-13 4 -21 6t-21 2q-15 0 -28 -7t-22.5 -15.5t-15 -16t-6.5 -9.5q0 27 2 54t11.5 49t28.5 36t53 14q15 0 28 -3.5t23 -6.5l67 -21q13 -4 21 -6t21 -2z
" />
    <glyph glyph-name="Umacron" unicode="&#x16a;" horiz-adv-x="771" 
d="M719 696q-5 -9 -9 -17.5t-6.5 -22t-4.5 -34.5t-3 -56.5t-1.5 -87.5t-0.5 -127q0 -89 2.5 -144.5t7 -88.5t9.5 -48t11 -23q-33 -17 -79 -29q-40 -11 -98 -20t-136 -9q-116 0 -182.5 26.5t-99.5 71.5t-41.5 104.5t-8.5 125.5q0 29 1 69t2.5 80t2.5 75t1 54q0 15 -0.5 31
t-4 30.5t-12.5 26t-26 19.5q15 3 33 7q16 3 36.5 5.5t46.5 2.5q50 0 77.5 -8.5t41 -23.5t16.5 -35t3 -42q0 -46 -3.5 -106.5t-3.5 -130.5q0 -66 2 -115t13 -81.5t36 -49t70 -16.5q20 0 35 2t25 4q11 3 18 6v254q0 70 -0.5 118t-1.5 80.5t-2.5 52t-4.5 32t-7 20.5l-9 18
l-9 17q13 -1 32 -1q17 -1 42.5 -1h61.5h61.5t42.5 1q19 0 33 1zM228 773v111h350v-111h-350z" />
    <glyph glyph-name="umacron" unicode="&#x16b;" horiz-adv-x="679" 
d="M632 38q-30 -15 -72 -26q-36 -10 -89 -17.5t-123 -7.5q-100 0 -157.5 19.5t-86.5 54.5t-36.5 84t-7.5 109q0 23 0.5 51t1.5 55t1.5 50.5t0.5 37.5q0 27 -1.5 45.5t-5 31t-11 20.5t-19.5 14q9 8 26 14q14 5 38 10t59 5q41 0 64 -9t34.5 -24.5t14.5 -36.5t3 -45
q0 -15 -0.5 -40.5t-1.5 -54t-1.5 -56.5t-0.5 -48q0 -43 2 -74.5t11 -52.5t27 -31.5t50 -10.5q16 0 26.5 2t18.5 4q8 3 14 7v196q0 65 -1.5 105t-5 64t-8 37t-10.5 24l-9 17l244 25q-2 -31 -4 -74q-2 -37 -3 -92.5t-1 -128.5q0 -79 1.5 -126t4 -73t6 -37t7.5 -17zM175 639
v111h350v-111h-350z" />
    <glyph glyph-name="Ubreve" unicode="&#x16c;" horiz-adv-x="771" 
d="M719 696q-5 -9 -9 -17.5t-6.5 -22t-4.5 -34.5t-3 -56.5t-1.5 -87.5t-0.5 -127q0 -89 2.5 -144.5t7 -88.5t9.5 -48t11 -23q-33 -17 -79 -29q-40 -11 -98 -20t-136 -9q-116 0 -182.5 26.5t-99.5 71.5t-41.5 104.5t-8.5 125.5q0 29 1 69t2.5 80t2.5 75t1 54q0 15 -0.5 31
t-4 30.5t-12.5 26t-26 19.5q15 3 33 7q16 3 36.5 5.5t46.5 2.5q50 0 77.5 -8.5t41 -23.5t16.5 -35t3 -42q0 -46 -3.5 -106.5t-3.5 -130.5q0 -66 2 -115t13 -81.5t36 -49t70 -16.5q20 0 35 2t25 4q11 3 18 6v254q0 70 -0.5 118t-1.5 80.5t-2.5 52t-4.5 32t-7 20.5l-9 18
l-9 17q13 -1 32 -1q17 -1 42.5 -1h61.5h61.5t42.5 1q19 0 33 1zM213 953q32 -38 75.5 -60.5t105.5 -22.5q63 0 106.5 22.5t75.5 60.5q0 -45 -13.5 -80.5t-37.5 -60.5t-57.5 -38.5t-73.5 -13.5t-73.5 13.5t-57.5 38.5t-37 60.5t-13 80.5z" />
    <glyph glyph-name="ubreve" unicode="&#x16d;" horiz-adv-x="679" 
d="M632 38q-30 -15 -72 -26q-36 -10 -89 -17.5t-123 -7.5q-100 0 -157.5 19.5t-86.5 54.5t-36.5 84t-7.5 109q0 23 0.5 51t1.5 55t1.5 50.5t0.5 37.5q0 27 -1.5 45.5t-5 31t-11 20.5t-19.5 14q9 8 26 14q14 5 38 10t59 5q41 0 64 -9t34.5 -24.5t14.5 -36.5t3 -45
q0 -15 -0.5 -40.5t-1.5 -54t-1.5 -56.5t-0.5 -48q0 -43 2 -74.5t11 -52.5t27 -31.5t50 -10.5q16 0 26.5 2t18.5 4q8 3 14 7v196q0 65 -1.5 105t-5 64t-8 37t-10.5 24l-9 17l244 25q-2 -31 -4 -74q-2 -37 -3 -92.5t-1 -128.5q0 -79 1.5 -126t4 -73t6 -37t7.5 -17zM166 819
q32 -38 75.5 -60.5t105.5 -22.5q63 0 106.5 22.5t75.5 60.5q0 -45 -13.5 -80.5t-37.5 -60.5t-57.5 -38.5t-73.5 -13.5t-73.5 13.5t-57.5 38.5t-37 60.5t-13 80.5z" />
    <glyph glyph-name="Uring" unicode="&#x16e;" horiz-adv-x="771" 
d="M719 696q-5 -9 -9 -17.5t-6.5 -22t-4.5 -34.5t-3 -56.5t-1.5 -87.5t-0.5 -127q0 -89 2.5 -144.5t7 -88.5t9.5 -48t11 -23q-33 -17 -79 -29q-40 -11 -98 -20t-136 -9q-116 0 -182.5 26.5t-99.5 71.5t-41.5 104.5t-8.5 125.5q0 29 1 69t2.5 80t2.5 75t1 54q0 15 -0.5 31
t-4 30.5t-12.5 26t-26 19.5q15 3 33 7q16 3 36.5 5.5t46.5 2.5q50 0 77.5 -8.5t41 -23.5t16.5 -35t3 -42q0 -46 -3.5 -106.5t-3.5 -130.5q0 -66 2 -115t13 -81.5t36 -49t70 -16.5q20 0 35 2t25 4q11 3 18 6v254q0 70 -0.5 118t-1.5 80.5t-2.5 52t-4.5 32t-7 20.5l-9 18
l-9 17q13 -1 32 -1q17 -1 42.5 -1h61.5h61.5t42.5 1q19 0 33 1zM513 856q0 -26 -9 -46.5t-25 -35t-37.5 -22.5t-45.5 -8q-50 0 -83 29.5t-33 80.5q0 25 9 46t25 35.5t37.5 22.5t45.5 8q50 0 83 -29.5t33 -80.5zM446 855q0 22 -14 35.5t-35 13.5t-35.5 -13.5t-14.5 -35.5
t14 -35.5t35 -13.5t35.5 13.5t14.5 35.5z" />
    <glyph glyph-name="uring" unicode="&#x16f;" horiz-adv-x="679" 
d="M632 38q-30 -15 -72 -26q-36 -10 -89 -17.5t-123 -7.5q-100 0 -157.5 19.5t-86.5 54.5t-36.5 84t-7.5 109q0 23 0.5 51t1.5 55t1.5 50.5t0.5 37.5q0 27 -1.5 45.5t-5 31t-11 20.5t-19.5 14q9 8 26 14q14 5 38 10t59 5q41 0 64 -9t34.5 -24.5t14.5 -36.5t3 -45
q0 -15 -0.5 -40.5t-1.5 -54t-1.5 -56.5t-0.5 -48q0 -43 2 -74.5t11 -52.5t27 -31.5t50 -10.5q16 0 26.5 2t18.5 4q8 3 14 7v196q0 65 -1.5 105t-5 64t-8 37t-10.5 24l-9 17l244 25q-2 -31 -4 -74q-2 -37 -3 -92.5t-1 -128.5q0 -79 1.5 -126t4 -73t6 -37t7.5 -17zM464 722
q0 -26 -9 -46.5t-25 -35t-37.5 -22.5t-45.5 -8q-50 0 -83 29.5t-33 80.5q0 25 9 46t25 35.5t37.5 22.5t45.5 8q50 0 83 -29.5t33 -80.5zM397 721q0 22 -14 35.5t-35 13.5t-35.5 -13.5t-14.5 -35.5t14 -35.5t35 -13.5t35.5 13.5t14.5 35.5z" />
    <glyph glyph-name="Uhungarumlaut" unicode="&#x170;" horiz-adv-x="771" 
d="M719 696q-5 -9 -9 -17.5t-6.5 -22t-4.5 -34.5t-3 -56.5t-1.5 -87.5t-0.5 -127q0 -89 2.5 -144.5t7 -88.5t9.5 -48t11 -23q-33 -17 -79 -29q-40 -11 -98 -20t-136 -9q-116 0 -182.5 26.5t-99.5 71.5t-41.5 104.5t-8.5 125.5q0 29 1 69t2.5 80t2.5 75t1 54q0 15 -0.5 31
t-4 30.5t-12.5 26t-26 19.5q15 3 33 7q16 3 36.5 5.5t46.5 2.5q50 0 77.5 -8.5t41 -23.5t16.5 -35t3 -42q0 -46 -3.5 -106.5t-3.5 -130.5q0 -66 2 -115t13 -81.5t36 -49t70 -16.5q20 0 35 2t25 4q11 3 18 6v254q0 70 -0.5 118t-1.5 80.5t-2.5 52t-4.5 32t-7 20.5l-9 18
l-9 17q13 -1 32 -1q17 -1 42.5 -1h61.5h61.5t42.5 1q19 0 33 1zM296 930h174q-6 -13 -17 -30q-10 -14 -28 -33.5t-48 -42.5q-27 -21 -54 -33.5t-48 -20.5q-25 -9 -47 -13zM526 930h174q-6 -13 -17 -30q-10 -14 -28 -33.5t-48 -42.5q-27 -21 -54 -33.5t-48 -20.5
q-25 -9 -47 -13z" />
    <glyph glyph-name="uhungarumlaut" unicode="&#x171;" horiz-adv-x="679" 
d="M632 38q-30 -15 -72 -26q-36 -10 -89 -17.5t-123 -7.5q-100 0 -157.5 19.5t-86.5 54.5t-36.5 84t-7.5 109q0 23 0.5 51t1.5 55t1.5 50.5t0.5 37.5q0 27 -1.5 45.5t-5 31t-11 20.5t-19.5 14q9 8 26 14q14 5 38 10t59 5q41 0 64 -9t34.5 -24.5t14.5 -36.5t3 -45
q0 -15 -0.5 -40.5t-1.5 -54t-1.5 -56.5t-0.5 -48q0 -43 2 -74.5t11 -52.5t27 -31.5t50 -10.5q16 0 26.5 2t18.5 4q8 3 14 7v196q0 65 -1.5 105t-5 64t-8 37t-10.5 24l-9 17l244 25q-2 -31 -4 -74q-2 -37 -3 -92.5t-1 -128.5q0 -79 1.5 -126t4 -73t6 -37t7.5 -17zM234 796
h174q-6 -13 -17 -30q-10 -14 -28 -33.5t-48 -42.5q-27 -21 -54 -33.5t-48 -20.5q-25 -9 -47 -13zM464 796h174q-6 -13 -17 -30q-10 -14 -28 -33.5t-48 -42.5q-27 -21 -54 -33.5t-48 -20.5q-25 -9 -47 -13z" />
    <glyph glyph-name="Uogonek" unicode="&#x172;" horiz-adv-x="771" 
d="M394 -129q0 44 31.5 74t73.5 48q-20 -2 -42 -3t-46 -1q-116 0 -182.5 26.5t-99.5 71.5t-41.5 104.5t-8.5 125.5q0 29 1 69t2.5 80t2.5 75t1 54q0 15 -0.5 31t-4 30.5t-12.5 26t-26 19.5q15 3 33 7q16 3 36.5 5.5t46.5 2.5q50 0 77.5 -8.5t41 -23.5t16.5 -35t3 -42
q0 -46 -3.5 -106.5t-3.5 -130.5q0 -66 2 -115t13 -81.5t36 -49t70 -16.5q20 0 35 2t25 4q11 3 18 6v254q0 70 -0.5 118t-1.5 80.5t-2.5 52t-4.5 32t-7 20.5l-9 18l-9 17q13 -1 32 -1q17 -1 42.5 -1h61.5h61.5t42.5 1q19 0 33 1l-9 -17q-5 -9 -9 -17.5t-6.5 -22t-4.5 -34.5
t-3 -56.5t-1.5 -87.5t-0.5 -127q0 -89 2.5 -144.5t7 -88.5t9.5 -48t11 -23q-13 -6 -29 -12q-14 -5 -32 -12.5t-40 -16.5q-38 -16 -65.5 -46.5t-27.5 -68.5t25 -55.5t64 -24.5q-20 -10 -51 -17t-55 -7q-52 0 -85.5 21t-33.5 63z" />
    <glyph glyph-name="uogonek" unicode="&#x173;" horiz-adv-x="679" 
d="M337 -129q0 43 30.5 72.5t71.5 47.5q-21 -2 -43 -3t-48 -1q-100 0 -157.5 19.5t-86.5 54.5t-36.5 84t-7.5 109q0 23 0.5 51t1.5 55t1.5 50.5t0.5 37.5q0 27 -1.5 45.5t-5 31t-11 20.5t-19.5 14q9 8 26 14q14 5 38 10t59 5q41 0 64 -9t34.5 -24.5t14.5 -36.5t3 -45
q0 -15 -0.5 -40.5t-1.5 -54t-1.5 -56.5t-0.5 -48q0 -43 2 -74.5t11 -52.5t27 -31.5t50 -10.5q16 0 26.5 2t18.5 4q8 3 14 7v196q0 65 -1.5 105t-5 64t-8 37t-10.5 24l-9 17l244 25q-2 -31 -4 -74q-2 -37 -3 -92.5t-1 -128.5q0 -79 1.5 -126t4 -73t6 -37t7.5 -17
q-71 -26 -115 -61.5t-44 -85.5q0 -38 25 -55.5t64 -24.5q-20 -10 -51 -17t-55 -7q-52 0 -85.5 21t-33.5 63z" />
    <glyph glyph-name="Wcircumflex" unicode="&#x174;" horiz-adv-x="1128" 
d="M1128 713q-11 -9 -19.5 -21t-17.5 -35q-8 -19 -15.5 -57t-16.5 -90t-21 -114.5t-28 -129t-37 -135t-48 -132.5q-9 0 -27 1q-15 0 -39.5 0.5t-59.5 0.5t-59.5 -0.5t-40.5 -0.5q-18 -1 -31 -1l-89 435q-6 29 -9 51t-3 28q-1 -5 -3.5 -25.5t-9.5 -54.5l-84 -434q-14 0 -33 1
q-17 0 -41.5 0.5t-59.5 0.5t-61 -0.5t-43 -0.5q-20 -1 -35 -1l-115 477q-13 53 -23.5 91.5t-21 66.5t-22 46.5t-25.5 32.5q14 -1 35 -1q18 -1 45 -1h65h70t49 1q23 0 39 1q-10 -7 -21 -21t-11 -42q0 -26 7 -68t18 -99l62 -325q2 -11 3 -22t3 -21q2 -11 3 -22q1 10 3 21
q3 18 8 43l108 556q11 -1 28 -1q14 -1 34.5 -1h48.5h49t35 1q17 0 28 1l112 -545q2 -11 4 -24t4 -24q3 -13 5 -27q9 27 19.5 67.5t20 89t18.5 101.5t16 103.5t11 96t4 78.5q0 42 -8.5 59.5t-18.5 24.5q14 -1 32 -1q16 -1 39.5 -1h53.5h51.5t36.5 1q17 0 29 1zM772 755
q-44 -1 -94.5 17t-90.5 62q-17 -20 -40 -35t-48 -25.5t-50.5 -15.5t-46.5 -3l128 174h114z" />
    <glyph glyph-name="wcircumflex" unicode="&#x175;" horiz-adv-x="995" 
d="M995 577q-11 -9 -19.5 -21t-17.5 -36q-6 -17 -14 -70.5t-21.5 -127t-35 -159t-54.5 -164.5q-9 0 -26 1q-14 0 -37.5 0.5t-57.5 0.5q-35 0 -58.5 -0.5t-38.5 -0.5q-18 -1 -28 -1l-70 354q-8 41 -10.5 60.5t-2.5 24.5q-1 -5 -3.5 -25t-10.5 -59l-74 -355q-13 0 -31 1
q-16 0 -40.5 0.5t-58.5 0.5q-35 0 -59.5 -0.5t-40.5 -0.5q-18 -1 -30 -1l-79 343q-12 53 -22 91.5t-19.5 66.5t-20.5 46.5t-25 32.5q14 -1 35 -1q18 -1 45 -1h64h63.5t44.5 1q20 0 35 1q-10 -7 -21 -21t-11 -42q0 -26 6.5 -70.5t17.5 -101.5l24 -131q10 -54 13 -79t4 -33
q0 6 3.5 31t15.5 81l77 366q9 -1 25 -1q14 -1 34.5 -1h52.5h53t35 1q16 0 25 1l74 -365q6 -32 10 -55.5t6 -38.5q3 -18 4 -29q7 16 14.5 46t14.5 67.5t13 79t11 81t7.5 74t2.5 58.5q0 41 -11 58t-21 24q12 -1 30 -1q15 -1 38.5 -1h55.5h115zM707 622q-44 -1 -94.5 17
t-90.5 62q-17 -20 -40 -35t-48 -25.5t-50.5 -15.5t-46.5 -3l128 174h114z" />
    <glyph glyph-name="Ycircumflex" unicode="&#x176;" horiz-adv-x="702" 
d="M712 713q-11 -9 -19 -21t-18 -35q-10 -24 -26 -71t-41.5 -104.5t-61.5 -120t-86 -117.5q0 -57 1 -94.5t3.5 -62t7.5 -40.5t13 -31l9 -17q-14 0 -34 1q-17 0 -43 0.5t-61 0.5t-61 -0.5t-43 -0.5q-20 -1 -35 -1l9 17q7 13 11.5 28.5t7.5 39t4.5 59t1.5 89.5l-145 280
q-32 63 -51 98t-31 54.5t-21.5 29t-22.5 19.5q16 -1 38 -1q19 -1 47.5 -1h68.5h70t49 1q23 0 38 1q-12 -11 -17.5 -23t-5.5 -24t1 -21.5t5.5 -22.5t13.5 -34t26 -57l65 -142q13 16 29.5 48t31.5 69t25 75.5t10 68.5q0 29 -8.5 42.5t-18.5 20.5q16 -1 36 -1q17 -1 41 -1h55
h57t42 1q19 0 33 1zM550 755q-44 -1 -94.5 17t-90.5 62q-17 -20 -40 -35t-48 -25.5t-50.5 -15.5t-46.5 -3l128 174h114z" />
    <glyph glyph-name="ycircumflex" unicode="&#x177;" horiz-adv-x="625" 
d="M635 579q-11 -9 -22 -26t-21 -40q-12 -27 -25 -82.5t-31.5 -127t-44.5 -153t-63 -159.5q-19 -39 -42.5 -75.5t-55 -65t-72.5 -45.5t-94 -17q-32 0 -51 2t-30 5q-12 4 -18 8q0 7 1 18q0 10 0.5 25t0.5 36q0 24 -0.5 42t-0.5 30q-1 14 -1 23q12 -18 21 -32t19 -23t22.5 -14
t30.5 -5q34 0 49.5 15t22.5 29l2 4l-141 391q-18 51 -32.5 89.5t-27.5 66.5t-25 47.5t-26 33.5q15 -1 37 -1q19 -1 48 -1h70h70.5t45.5 1q20 0 33 1q-10 -7 -21 -21t-11 -42q0 -26 10 -67.5t24 -97.5l38 -145q6 -23 9 -38.5t5 -25.5q2 -11 3 -18q16 34 29 83.5t22 102
t14 102.5t5 84q0 43 -11 59.5t-21 23.5q12 -1 30 -1q16 -1 40 -1h59h59.5t39.5 1q18 0 28 1zM510 622q-44 -1 -94.5 17t-90.5 62q-17 -20 -40 -35t-48 -25.5t-50.5 -15.5t-46.5 -3l128 174h114z" />
    <glyph glyph-name="Ydieresis" unicode="&#x178;" horiz-adv-x="702" 
d="M712 713q-11 -9 -19 -21t-18 -35q-10 -24 -26 -71t-41.5 -104.5t-61.5 -120t-86 -117.5q0 -57 1 -94.5t3.5 -62t7.5 -40.5t13 -31l9 -17q-14 0 -34 1q-17 0 -43 0.5t-61 0.5t-61 -0.5t-43 -0.5q-20 -1 -35 -1l9 17q7 13 11.5 28.5t7.5 39t4.5 59t1.5 89.5l-145 280
q-32 63 -51 98t-31 54.5t-21.5 29t-22.5 19.5q16 -1 38 -1q19 -1 47.5 -1h68.5h70t49 1q23 0 38 1q-12 -11 -17.5 -23t-5.5 -24t1 -21.5t5.5 -22.5t13.5 -34t26 -57l65 -142q13 16 29.5 48t31.5 69t25 75.5t10 68.5q0 29 -8.5 42.5t-18.5 20.5q16 -1 36 -1q17 -1 41 -1h55
h57t42 1q19 0 33 1zM353 840l-112 -96l-112 96l112 97zM594 840l-112 -96l-112 96l112 97z" />
    <glyph glyph-name="Zacute" unicode="&#x179;" horiz-adv-x="637" 
d="M607 204q-3 -29 -7 -59q-3 -26 -5.5 -56t-4.5 -59l-2 -30h-558v18q0 76 24 138.5t79 130.5l153 190q20 25 32.5 41.5t20 29.5t10.5 23t3 21h-155q-35 0 -63.5 -6.5t-46.5 -17.5q-20 -12 -27.5 -18.5t-8.5 -8.5q0 1 1.5 20.5t1.5 69.5q0 20 -0.5 35.5t-0.5 25.5
q-1 11 -1 20h532v-18q0 -38 -6 -72t-18.5 -66.5t-32 -64.5t-46.5 -66l-153 -190q-20 -25 -32.5 -41.5t-20 -29.5t-10.5 -23t-3 -21h168q46 0 74.5 5.5t46.5 16t30 26.5t26 36zM328 930h174q-6 -13 -17 -30q-10 -14 -28 -33.5t-48 -42.5q-27 -21 -54 -33.5t-48 -20.5
q-25 -9 -47 -13z" />
    <glyph glyph-name="zacute" unicode="&#x17a;" horiz-adv-x="547" 
d="M522 193q-2 -22 -4 -48q-2 -22 -3.5 -49t-3.5 -56l-2 -40h-479v43q0 30 4 56t13.5 50t26 48t40.5 51l106 118q27 31 41 48.5t14 41.5v10h-81q-25 0 -44.5 -2.5t-36 -9t-30.5 -19t-28 -32.5q0 10 1 23q0 11 0.5 28t0.5 38q0 23 -0.5 38.5t-0.5 25.5q-1 11 -1 19h455v-37
q0 -30 -4 -56t-14 -50.5t-26 -48.5t-40 -51l-111 -123q-14 -15 -24.5 -26.5t-17 -21.5t-10 -20t-3.5 -22v-10h85q46 0 74.5 5.5t46.5 16t30 26.5t26 36zM291 796h174q-6 -13 -17 -30q-10 -14 -28 -33.5t-48 -42.5q-27 -21 -54 -33.5t-48 -20.5q-25 -9 -47 -13z" />
    <glyph glyph-name="Zdotaccent" unicode="&#x17b;" horiz-adv-x="637" 
d="M607 204q-3 -29 -7 -59q-3 -26 -5.5 -56t-4.5 -59l-2 -30h-558v18q0 76 24 138.5t79 130.5l153 190q20 25 32.5 41.5t20 29.5t10.5 23t3 21h-155q-35 0 -63.5 -6.5t-46.5 -17.5q-20 -12 -27.5 -18.5t-8.5 -8.5q0 1 1.5 20.5t1.5 69.5q0 20 -0.5 35.5t-0.5 25.5
q-1 11 -1 20h532v-18q0 -38 -6 -72t-18.5 -66.5t-32 -64.5t-46.5 -66l-153 -190q-20 -25 -32.5 -41.5t-20 -29.5t-10.5 -23t-3 -21h168q46 0 74.5 5.5t46.5 16t30 26.5t26 36zM465 850l-144 -113l-144 113l144 113z" />
    <glyph glyph-name="zdotaccent" unicode="&#x17c;" horiz-adv-x="547" 
d="M522 193q-2 -22 -4 -48q-2 -22 -3.5 -49t-3.5 -56l-2 -40h-479v43q0 30 4 56t13.5 50t26 48t40.5 51l106 118q27 31 41 48.5t14 41.5v10h-81q-25 0 -44.5 -2.5t-36 -9t-30.5 -19t-28 -32.5q0 10 1 23q0 11 0.5 28t0.5 38q0 23 -0.5 38.5t-0.5 25.5q-1 11 -1 19h455v-37
q0 -30 -4 -56t-14 -50.5t-26 -48.5t-40 -51l-111 -123q-14 -15 -24.5 -26.5t-17 -21.5t-10 -20t-3.5 -22v-10h85q46 0 74.5 5.5t46.5 16t30 26.5t26 36zM424 694l-144 -113l-144 113l144 113z" />
    <glyph glyph-name="Zcaron" unicode="&#x17d;" horiz-adv-x="637" 
d="M607 204q-3 -29 -7 -59q-3 -26 -5.5 -56t-4.5 -59l-2 -30h-558v18q0 76 24 138.5t79 130.5l153 190q20 25 32.5 41.5t20 29.5t10.5 23t3 21h-155q-35 0 -63.5 -6.5t-46.5 -17.5q-20 -12 -27.5 -18.5t-8.5 -8.5q0 1 1.5 20.5t1.5 69.5q0 20 -0.5 35.5t-0.5 25.5
q-1 11 -1 20h532v-18q0 -38 -6 -72t-18.5 -66.5t-32 -64.5t-46.5 -66l-153 -190q-20 -25 -32.5 -41.5t-20 -29.5t-10.5 -23t-3 -21h168q46 0 74.5 5.5t46.5 16t30 26.5t26 36zM498 933q-40 -44 -73.5 -86t-67.5 -91h-80l-70 72q-8 8 -25 23t-28 24l91 75q5 -13 16.5 -28.5
t19.5 -26.5l33 -45q39 49 82.5 67.5t101.5 15.5z" />
    <glyph glyph-name="zcaron" unicode="&#x17e;" horiz-adv-x="547" 
d="M522 193q-2 -22 -4 -48q-2 -22 -3.5 -49t-3.5 -56l-2 -40h-479v43q0 30 4 56t13.5 50t26 48t40.5 51l106 118q27 31 41 48.5t14 41.5v10h-81q-25 0 -44.5 -2.5t-36 -9t-30.5 -19t-28 -32.5q0 10 1 23q0 11 0.5 28t0.5 38q0 23 -0.5 38.5t-0.5 25.5q-1 11 -1 19h455v-37
q0 -30 -4 -56t-14 -50.5t-26 -48.5t-40 -51l-111 -123q-14 -15 -24.5 -26.5t-17 -21.5t-10 -20t-3.5 -22v-10h85q46 0 74.5 5.5t46.5 16t30 26.5t26 36zM459 792q-20 -22 -37 -42t-32 -40.5t-30 -42t-30 -45.5h-93l-61 64q-11 11 -24.5 24t-24.5 22l93 71q8 -15 18 -30
t18 -26l25 -34q19 24 36.5 40t38 26t45.5 13t58 0z" />
    <glyph glyph-name="florin" unicode="&#x192;" horiz-adv-x="519" 
d="M517 708l-3 -15q-2 -8 -4 -22t-4 -34q-3 -20 -4.5 -35l-2.5 -25q-1 -11 -1 -20q-17 35 -35 45.5t-44 10.5q-16 0 -29 -5t-24 -18q-11 -14 -15.5 -36.5t-9.5 -61.5l-1 -8h28q29 0 48 1.5t30 3.5q13 3 21 6q-1 -6 -3 -16q-2 -8 -3.5 -21.5t-3.5 -32.5q-2 -17 -3 -29t-2 -20
q-1 -9 -2 -15q-8 2 -21 5q-11 2 -29.5 4t-46.5 2h-27l-27 -205q-4 -33 -8.5 -68t-13 -68.5t-23.5 -63.5t-40.5 -52.5t-63.5 -35.5t-93 -13q-31 0 -50.5 2t-31.5 4q-14 3 -22 6q1 6 3 16q2 8 3.5 20t3.5 27q2 20 4 34.5t3 24.5q1 11 1 20q17 -33 32.5 -43.5t32.5 -10.5
q31 0 40 27.5t15 74.5l38 304h-58l13 11q18 15 29.5 31t18 30.5t9 27.5t3.5 22l2 16q5 39 15.5 76.5t36 67t71 47.5t121.5 18q35 0 59 -2t39 -4q18 -3 29 -5z" />
    <glyph glyph-name="Scommaaccent" unicode="&#x218;" horiz-adv-x="554" 
d="M515 205q0 -113 -71 -162.5t-198 -49.5q-48 0 -83.5 4.5t-59.5 9.5q-28 6 -49 15q0 8 1 20q0 11 0.5 27.5t0.5 40.5t-0.5 42.5t-0.5 31.5q-1 15 -1 26q29 -43 72 -70.5t103 -27.5q56 0 77.5 16t21.5 43q0 16 -5.5 26.5t-16.5 19.5t-26.5 17.5t-35.5 19.5l-68 37
q-31 17 -57 36.5t-45 44t-29.5 55.5t-10.5 71q0 64 22 106.5t59.5 68t88.5 36t110 10.5q48 0 84 -5t60 -10q28 -6 47 -14q-1 -8 -1 -20q-1 -11 -1 -26.5v-38.5v-45t1 -33q0 -16 1 -28q-17 27 -37.5 46t-43.5 31t-47 17.5t-47 5.5q-52 0 -80 -14.5t-28 -52.5q0 -17 6.5 -28.5
t17.5 -21t25 -17.5t30 -17l77 -42q61 -33 99 -79.5t38 -121.5zM346 -106q0 -31 -14.5 -54t-36 -38.5t-46.5 -24t-45 -9.5q1 0 7 6t13.5 16.5t13.5 24.5t6 31q0 15 -6 24.5t-14 14.5q-9 6 -19 9v11q0 26 15.5 46.5t46.5 25.5q13 -2 27 -6.5t25.5 -14t19 -25t7.5 -37.5z" />
    <glyph glyph-name="scommaaccent" unicode="&#x219;" horiz-adv-x="494" 
d="M461 169q0 -84 -55.5 -131t-165.5 -47q-52 0 -87 5t-57 11q-26 7 -40 16q0 7 1 19q0 10 0.5 26.5t0.5 40.5q0 23 -0.5 40.5t-0.5 28.5q-1 13 -1 22q31 -50 64.5 -72.5t87.5 -22.5q39 0 57 10t18 31q0 20 -14 31t-44 25l-70 32q-29 13 -51.5 28.5t-38 36t-24 46t-8.5 59.5
q0 87 59 136t176 49q49 0 85.5 -5.5t60.5 -11.5q28 -7 47 -16q-1 -6 -1 -17q-1 -9 -1 -24.5v-38.5v-44t1 -30q0 -14 1 -24q-18 32 -37.5 51t-40 29t-42.5 13t-45 3q-42 0 -60.5 -12t-18.5 -33q0 -20 11 -30.5t35 -21.5l74 -35q57 -27 90.5 -65.5t33.5 -107.5zM324 -106
q0 -31 -14.5 -54t-36 -38.5t-46.5 -24t-45 -9.5q1 0 7 6t13.5 16.5t13.5 24.5t6 31q0 15 -6 24.5t-14 14.5q-9 6 -19 9v11q0 26 15.5 46.5t46.5 25.5q13 -2 27 -6.5t25.5 -14t19 -25t7.5 -37.5z" />
    <glyph glyph-name="uni021A" unicode="&#x21a;" horiz-adv-x="611" 
d="M599 633q0 -43 1 -64.5t1 -23.5q-1 1 -7.5 8t-27.5 20q-18 11 -45.5 18t-62.5 7h-50v-247q0 -109 1 -169.5t3.5 -92t7.5 -45t13 -28.5l9 -17q-13 0 -32 1q-17 0 -43 0.5t-61 0.5q-36 0 -62 -0.5t-43 -0.5q-19 -1 -32 -1l9 17l9 18t6.5 21.5t4.5 34.5t3 56.5t1.5 87.5
t0.5 127v237h-50q-35 0 -62.5 -7t-45.5 -18q-20 -12 -27 -19t-8 -9q0 1 1 23t1 65q0 20 -0.5 35t-0.5 25v19h589q-1 -8 -1 -19v-60zM380 -106q0 -31 -14.5 -54t-36 -38.5t-46.5 -24t-45 -9.5q1 0 7 6t13.5 16.5t13.5 24.5t6 31q0 15 -6 24.5t-14 14.5q-9 6 -19 9v11
q0 26 15.5 46.5t46.5 25.5q13 -2 27 -6.5t25.5 -14t19 -25t7.5 -37.5z" />
    <glyph glyph-name="uni021B" unicode="&#x21b;" horiz-adv-x="425" 
d="M425 130q0 -26 -10 -51.5t-31 -45t-55 -31.5t-82 -12q-63 0 -98.5 18t-54.5 43q-18 24 -25 65t-7 95v106.5t1 78.5q1 38 2 66h-65l24 27q12 14 29 34t38 48q19 25 34.5 47.5t27.5 39.5q13 20 25 38h89v-121h52q31 0 50 1.5t30 3.5q12 3 18 6q-1 -5 -1 -15v-52v-52
q0 -10 1 -15q-6 2 -18 5q-11 2 -30 3.5t-50 1.5h-52v-246q0 -32 2 -49t9 -31q8 -16 23.5 -25t43.5 -9q20 0 35.5 4.5t25.5 9.5q11 6 19 14zM311 -106q0 -31 -14.5 -54t-36 -38.5t-46.5 -24t-45 -9.5q1 0 7 6t13.5 16.5t13.5 24.5t6 31q0 15 -6 24.5t-14 14.5q-9 6 -19 9v11
q0 26 15.5 46.5t46.5 25.5q13 -2 27 -6.5t25.5 -14t19 -25t7.5 -37.5z" />
    <glyph glyph-name="uni0237" unicode="&#x237;" horiz-adv-x="337" 
d="M281 586q-3 -19 -5 -55q-2 -31 -3 -83t-1 -133v-314q0 -44 -4.5 -83t-27 -68t-70 -46t-133.5 -17h-48q29 14 45 34.5t24 49.5t9.5 68t1.5 91v284q0 65 -1.5 105t-5 64t-8 37t-10.5 24l-9 17l246 25v0z" />
    <glyph glyph-name="circumflex" unicode="&#x2c6;" horiz-adv-x="520" 
d="M445 622q-44 -1 -94.5 17t-90.5 62q-17 -20 -40 -35t-48 -25.5t-50.5 -15.5t-46.5 -3l128 174h114z" />
    <glyph glyph-name="caron" unicode="&#x2c7;" horiz-adv-x="520" 
d="M431 792q-20 -22 -37 -42t-32 -40.5t-30 -42t-30 -45.5h-93l-61 64q-11 11 -24.5 24t-24.5 22l93 71q8 -15 18 -30t18 -26l25 -34q19 24 36.5 40t38 26t45.5 13t58 0z" />
    <glyph glyph-name="uni02C9" unicode="&#x2c9;" horiz-adv-x="520" 
d="M85 639v111h350v-111h-350z" />
    <glyph glyph-name="breve" unicode="&#x2d8;" horiz-adv-x="520" 
d="M78 819q32 -38 75.5 -60.5t105.5 -22.5q63 0 106.5 22.5t75.5 60.5q0 -45 -13.5 -80.5t-37.5 -60.5t-57.5 -38.5t-73.5 -13.5t-73.5 13.5t-57.5 38.5t-37 60.5t-13 80.5z" />
    <glyph glyph-name="dotaccent" unicode="&#x2d9;" horiz-adv-x="520" 
d="M404 694l-144 -113l-144 113l144 113z" />
    <glyph glyph-name="ring" unicode="&#x2da;" horiz-adv-x="520" 
d="M376 722q0 -26 -9 -46.5t-25 -35t-37.5 -22.5t-45.5 -8q-50 0 -83 29.5t-33 80.5q0 25 9 46t25 35.5t37.5 22.5t45.5 8q50 0 83 -29.5t33 -80.5zM309 721q0 22 -14 35.5t-35 13.5t-35.5 -13.5t-14.5 -35.5t14 -35.5t35 -13.5t35.5 13.5t14.5 35.5z" />
    <glyph glyph-name="ogonek" unicode="&#x2db;" horiz-adv-x="520" 
d="M167 -129q0 28 14 50.5t36 39.5t49.5 29t54.5 19l74 1q-36 -20 -64 -50.5t-28 -68.5t25 -55.5t64 -24.5q-20 -10 -51 -17t-55 -7q-52 0 -85.5 21t-33.5 63z" />
    <glyph glyph-name="tilde" unicode="&#x2dc;" horiz-adv-x="520" 
d="M351 747q15 0 28 7t22.5 15t15 15.5t6.5 9.5q0 -27 -2 -54t-11.5 -48.5t-28.5 -35.5t-53 -14q-15 0 -28.5 3.5t-23.5 6.5l-66 21q-13 4 -21 6t-21 2q-15 0 -28 -7t-22.5 -15.5t-15 -16t-6.5 -9.5q0 27 2 54t11.5 49t28.5 36t53 14q15 0 28 -3.5t23 -6.5l67 -21
q13 -4 21 -6t21 -2z" />
    <glyph glyph-name="hungarumlaut" unicode="&#x2dd;" horiz-adv-x="520" 
d="M92 796h174q-6 -13 -17 -30q-10 -14 -28 -33.5t-48 -42.5q-27 -21 -54 -33.5t-48 -20.5q-25 -9 -47 -13zM322 796h174q-6 -13 -17 -30q-10 -14 -28 -33.5t-48 -42.5q-27 -21 -54 -33.5t-48 -20.5q-25 -9 -47 -13z" />
    <glyph glyph-name="uni0374" unicode="&#x374;" horiz-adv-x="328" 
d="M263 844q-8 -28 -23 -66.5t-41 -79.5q-23 -37 -56 -71t-78 -59l31 276h167v0z" />
    <glyph glyph-name="uni0375" unicode="&#x375;" horiz-adv-x="328" 
d="M65 -173q8 28 23 66.5t41 79.5q23 37 56 71t78 59l-31 -276h-167z" />
    <glyph glyph-name="uni037A" unicode="&#x37a;" horiz-adv-x="325" 
d="M260 -258q-11 -19 -27 -33q-14 -12 -35 -22t-50 -10q-15 0 -29.5 3t-26.5 12t-19 25t-7 42q0 43 -0.5 84t-0.5 94h121q0 -12 -0.5 -29t-0.5 -34.5t-0.5 -35t-0.5 -31.5q0 -32 16.5 -47t59.5 -18z" />
    <glyph glyph-name="uni037E" unicode="&#x37e;" horiz-adv-x="326" 
d="M281 65q0 -65 -24.5 -106.5t-61.5 -65.5t-80 -33.5t-79 -9.5q1 1 12 8t24 21t23 37t10 55q0 30 -9.5 49.5t-20.5 30.5q-13 13 -29 19v23q0 51 32 81t86 37q21 -3 42 -10.5t37.5 -23.5t27 -43t10.5 -69zM281 481q0 -51 -32.5 -79.5t-85.5 -33.5q-60 7 -89 34t-29 78
t32.5 79.5t85.5 33.5q60 -7 89 -34t29 -78z" />
    </font>
</defs>
</svg>
