<svg xmlns="http://www.w3.org/2000/svg" viewBox="0 0 512 512" >

	<defs>

		<clipPath id="icon-bg">
			<polygon points="376,463.85,136,463.85,16,256,136,48.15,376,48.15,496,256" fill="rgb(100,0,0)" stroke="#ff0000" stroke-width="0" transform="translate(-51.2, -51.2) scale(1.2, 1.2) rotate(0, 256, 256) skewX(0) skewY(0)">
			</polygon>
		</clipPath>

		<linearGradient id="bg-gradient" x1="0" x2="1" y1="1" y2="0">
			<stop offset="40%" stop-color="rgb(200, 0, 0)"></stop>
			<stop offset="100%" stop-color="rgb(109, 22, 22)"></stop>
		</linearGradient>
		<linearGradient id="stroke-gradient" x1="0" x2="1" y1="1" y2="0">
			<stop offset="50%" stop-color="rgb(255, 0, 0)"></stop>
			<stop offset="100%" stop-color="rgb(255, 0, 0)"></stop>
		</linearGradient>
	</defs>
		<path d="M0 0h512v512H0z" fill="url(#bg-gradient)" stroke="url(#stroke-gradient)" stroke-width="0" clip-path="url(#icon-bg)" transform="translate(-25.6, -25.6) scale(1.1, 1.1) rotate(0, 256, 256) skewX(0) skewY(0)"></path>
	<g transform-origin="center" transform="">
		<path d="M79.238 115.768l-28.51 67.863h406.15l-.273-67.862h-263.83v55.605h-15v-55.605h-16.68v55.605H146.1v-55.605h-17.434v55.605h-15v-55.605H79.238zm387.834 15.96v40.66h18.688v-40.66h-18.688zM56.768 198.63l20.566 32.015L28.894 406.5l101.68 7.174 21.54-97.996h115.74l14.664-80.252 174.55-3.873-.13-32.922H56.767zM263.44 235.85l-11.17 61.142h-96.05l12.98-59.05 12.53-.278-2.224 35.5 14.262 13.576 1.003-33.65 24.69-16.264 43.98-.976z" fill="#fff"></path>
	</g>
</svg>